<?xml version="1.0" encoding="iso-8859-1"?>
<!-- Generator: Adobe Illustrator 19.0.0, SVG Export Plug-In . SVG Version: 6.00 Build 0)  -->
<svg version="1.1" id="Capa_1" xmlns="http://www.w3.org/2000/svg" xmlns:xlink="http://www.w3.org/1999/xlink" x="0px" y="0px"
	 viewBox="0 0 496 496" style="enable-background:new 0 0 496 496;" xml:space="preserve">
<g>
	<path style="fill:#FFA64D;" d="M248,434.632l-59.864-52.392C180.424,375.504,176,365.768,176,355.512
		C176,335.928,191.928,320,211.512,320h1.088c9.488,0,18.408,3.696,25.12,10.408l10.28,10.28l10.28-10.28
		C264.992,323.696,273.912,320,283.4,320h1.088c19.584,0,35.52,15.928,35.52,35.512c0,10.248-4.424,19.992-12.136,26.728
		L248,434.632z"/>
	<path style="fill:#FFA64D;" d="M248,240l-35.312-32H144c-30.872,0-56-25.128-56-56V56c0-30.872,25.128-56,56-56h208
		c30.872,0,56,25.128,56,56v96c0,30.872-25.128,56-56,56h-68.688L248,240z"/>
</g>
<g>
	<path style="fill:#333333;" d="M144,464h208V288H144V464z M160,304h176v144H160V304z"/>
	<path style="fill:#333333;" d="M496,289.064l-113.2-16.176C379.752,263.136,370.744,256,360,256H136
		c-10.744,0-19.752,7.136-22.8,16.888L0,289.064v173.872l113.2,16.176C116.248,488.856,125.256,496,136,496h224
		c10.744,0,19.752-7.144,22.8-16.888L496,462.936V289.064z M64,368v-16h16v48H64v-16H48v16H16v-48h32v16H64z M16,416h64
		c8.816,0,16-7.184,16-16v-48c0-8.824-7.184-16-16-16H16v-33.064l96-13.712v173.552l-96-13.712V416z M368,472c0,4.416-3.584,8-8,8
		H136c-4.416,0-8-3.584-8-8V280c0-4.416,3.584-8,8-8h224c4.416,0,8,3.584,8,8V472z M384,462.776V289.224l96,13.712V336h-64
		c-8.824,0-16,7.176-16,16v48c0,8.816,7.176,16,16,16h64v33.064L384,462.776z M432,384v16h-16v-48h16v16h16v-16h32v48h-32v-16H432z"
		/>
	<path style="fill:#333333;" d="M160,176h40v-48h-32V80h32V32h-40c-22.056,0-40,17.944-40,40v64C120,158.056,137.944,176,160,176z
		 M136,72c0-13.232,10.768-24,24-24h24v16h-16c-8.824,0-16,7.176-16,16v48c0,8.816,7.176,16,16,16h16v16h-24
		c-13.232,0-24-10.768-24-24V72z"/>
	<path style="fill:#333333;" d="M224,128c13.232,0,24-10.768,24-24s-10.768-24-24-24s-24,10.768-24,24S210.768,128,224,128z M224,96
		c4.416,0,8,3.584,8,8s-3.584,8-8,8s-8-3.584-8-8S219.584,96,224,96z"/>
	<path style="fill:#333333;" d="M288,128c13.232,0,24-10.768,24-24s-10.768-24-24-24s-24,10.768-24,24S274.768,128,288,128z M288,96
		c4.416,0,8,3.584,8,8s-3.584,8-8,8s-8-3.584-8-8S283.584,96,288,96z"/>
	<path style="fill:#333333;" d="M352,128c13.232,0,24-10.768,24-24s-10.768-24-24-24s-24,10.768-24,24S338.768,128,352,128z M352,96
		c4.416,0,8,3.584,8,8s-3.584,8-8,8s-8-3.584-8-8S347.584,96,352,96z"/>
</g>
<g>
</g>
<g>
</g>
<g>
</g>
<g>
</g>
<g>
</g>
<g>
</g>
<g>
</g>
<g>
</g>
<g>
</g>
<g>
</g>
<g>
</g>
<g>
</g>
<g>
</g>
<g>
</g>
<g>
</g>
</svg>
