<?xml version="1.0" encoding="iso-8859-1"?>
<!-- Generator: Adobe Illustrator 19.0.0, SVG Export Plug-In . SVG Version: 6.00 Build 0)  -->
<svg version="1.1" id="Capa_1" xmlns="http://www.w3.org/2000/svg" xmlns:xlink="http://www.w3.org/1999/xlink" x="0px" y="0px"
	 viewBox="0 0 496 496" style="enable-background:new 0 0 496 496;" xml:space="preserve">
<g>
	<rect x="80" y="448" style="fill:#333333;" width="112" height="16"/>
	<path style="fill:#333333;" d="M272,192V40c0-22.056-17.944-40-40-40H40C17.944,0,0,17.944,0,40v416c0,22.056,17.944,40,40,40h192
		c22.056,0,40-17.944,40-40v-64h-16v24H16V64h240v128H272z M256,432v24c0,13.232-10.768,24-24,24H40c-13.232,0-24-10.768-24-24v-24
		H256z M16,48v-8c0-13.232,10.768-24,24-24h192c13.232,0,24,10.768,24,24v8H16z"/>
	<path style="fill:#333333;" d="M440,1.576l-56,84V440c0,30.872,25.128,56,56,56s56-25.128,56-56V85.576L440,1.576z M473.056,80
		h-66.104L440,30.424L473.056,80z M400,432v-16h80v16H400z M448,400v-16h-16v16h-32V96h32v272h16V96h32v304H448z M440,480
		c-19.312,0-35.472-13.768-39.192-32h78.384C475.472,466.232,459.312,480,440,480z"/>
</g>
<path style="fill:#FFA64D;" d="M260,400H136c-57.344,0-104-46.656-104-104V168c0-48.52,39.48-88,88-88s88,39.48,88,88
	c0,8.824,7.176,16,16,16h36c59.552,0,108,48.448,108,108S319.552,400,260,400z"/>
<g>
	<path style="fill:#333333;" d="M136,360c-22.056,0-40-17.944-40-40s17.944-40,40-40s40,17.944,40,40S158.056,360,136,360z M136,296
		c-13.232,0-24,10.768-24,24s10.768,24,24,24s24-10.768,24-24S149.232,296,136,296z"/>
	<path style="fill:#333333;" d="M240,360c-22.056,0-40-17.944-40-40s17.944-40,40-40s40,17.944,40,40S262.056,360,240,360z M240,296
		c-13.232,0-24,10.768-24,24s10.768,24,24,24s24-10.768,24-24S253.232,296,240,296z"/>
	<path style="fill:#333333;" d="M104,264c-22.056,0-40-17.944-40-40s17.944-40,40-40s40,17.944,40,40S126.056,264,104,264z M104,200
		c-13.232,0-24,10.768-24,24s10.768,24,24,24s24-10.768,24-24S117.232,200,104,200z"/>
</g>
<g>
</g>
<g>
</g>
<g>
</g>
<g>
</g>
<g>
</g>
<g>
</g>
<g>
</g>
<g>
</g>
<g>
</g>
<g>
</g>
<g>
</g>
<g>
</g>
<g>
</g>
<g>
</g>
<g>
</g>
</svg>
