<?xml version="1.0" encoding="iso-8859-1"?>
<!-- Generator: Adobe Illustrator 19.0.0, SVG Export Plug-In . SVG Version: 6.00 Build 0)  -->
<svg version="1.1" id="Capa_1" xmlns="http://www.w3.org/2000/svg" xmlns:xlink="http://www.w3.org/1999/xlink" x="0px" y="0px"
	 viewBox="0 0 496 496" style="enable-background:new 0 0 496 496;" xml:space="preserve">
<polygon style="fill:#FFA64D;" points="368,96 368,304 392,288 416,304 416,96 "/>
<g>
	<rect x="200" y="448" style="fill:#333333;" width="96" height="16"/>
	<rect x="272" y="112" style="fill:#333333;" width="96" height="16"/>
	<rect x="272" y="144" style="fill:#333333;" width="96" height="16"/>
	<rect x="272" y="176" style="fill:#333333;" width="96" height="16"/>
	<rect x="272" y="208" style="fill:#333333;" width="96" height="16"/>
	<rect x="272" y="240" style="fill:#333333;" width="96" height="16"/>
	<rect x="272" y="272" style="fill:#333333;" width="96" height="16"/>
	<rect x="416" y="112" style="fill:#333333;" width="48" height="16"/>
	<rect x="416" y="144" style="fill:#333333;" width="48" height="16"/>
	<rect x="416" y="176" style="fill:#333333;" width="48" height="16"/>
	<rect x="416" y="208" style="fill:#333333;" width="48" height="16"/>
	<rect x="416" y="240" style="fill:#333333;" width="48" height="16"/>
	<rect x="416" y="272" style="fill:#333333;" width="48" height="16"/>
	<rect x="272" y="304" style="fill:#333333;" width="192" height="16"/>
	<rect x="448" y="336" style="fill:#333333;" width="16" height="16"/>
	<rect x="272" y="336" style="fill:#333333;" width="160" height="16"/>
	<rect x="32" y="112" style="fill:#333333;" width="192" height="16"/>
	<rect x="32" y="144" style="fill:#333333;" width="192" height="16"/>
	<rect x="32" y="176" style="fill:#333333;" width="192" height="16"/>
	<rect x="208" y="208" style="fill:#333333;" width="16" height="16"/>
	<rect x="32" y="208" style="fill:#333333;" width="160" height="16"/>
	<rect x="32" y="240" style="fill:#333333;" width="192" height="16"/>
	<rect x="32" y="272" style="fill:#333333;" width="192" height="16"/>
	<rect x="64" y="304" style="fill:#333333;" width="160" height="16"/>
	<rect x="32" y="304" style="fill:#333333;" width="16" height="16"/>
	<rect x="32" y="336" style="fill:#333333;" width="192" height="16"/>
	<path style="fill:#333333;" d="M496,80h-96V40c0-22.056-17.944-40-40-40H136c-22.056,0-40,17.944-40,40v40H0v304h96v72
		c0,22.056,17.944,40,40,40h224c22.056,0,40-17.944,40-40v-72h96V80z M136,16h224c13.232,0,24,10.768,24,24v8H112v-8
		C112,26.768,122.768,16,136,16z M112,64h272v16H112V64z M360,480H136c-13.232,0-24-10.768-24-24v-24h272v24
		C384,469.232,373.232,480,360,480z M384,416H112v-32h108.392c5.64,9.76,16.128,16,27.608,16c11.48,0,21.968-6.24,27.608-16H384V416
		z M480,368H264.88l-1.888,5.32C260.728,379.712,254.696,384,248,384s-12.728-4.288-14.992-10.68L231.12,368H16V96h224v264h16V96
		h224V368z"/>
</g>
<g>
</g>
<g>
</g>
<g>
</g>
<g>
</g>
<g>
</g>
<g>
</g>
<g>
</g>
<g>
</g>
<g>
</g>
<g>
</g>
<g>
</g>
<g>
</g>
<g>
</g>
<g>
</g>
<g>
</g>
</svg>
