<?xml version="1.0" encoding="iso-8859-1"?>
<!-- Generator: Adobe Illustrator 19.0.0, SVG Export Plug-In . SVG Version: 6.00 Build 0)  -->
<svg version="1.1" id="Capa_1" xmlns="http://www.w3.org/2000/svg" xmlns:xlink="http://www.w3.org/1999/xlink" x="0px" y="0px"
	 viewBox="0 0 496 496" style="enable-background:new 0 0 496 496;" xml:space="preserve">
<rect x="32" y="112" style="fill:#FFA64D;" width="72" height="208"/>
<g>
	<path style="fill:#333333;" d="M472,80H272V40c0-22.056-17.944-40-40-40H40C17.944,0,0,17.944,0,40v416c0,22.056,17.944,40,40,40
		h192c22.056,0,40-17.944,40-40V352h200c13.232,0,24-10.768,24-24V104C496,90.768,485.232,80,472,80z M480,104v24H112v-24
		c0-4.416,3.584-8,8-8h352C476.416,96,480,99.584,480,104z M40,16h192c13.232,0,24,10.768,24,24v8H16v-8C16,26.768,26.768,16,40,16z
		 M232,480H40c-13.232,0-24-10.768-24-24v-24h240v24C256,469.232,245.232,480,232,480z M256,416H16V64h240v16H120
		c-13.232,0-24,10.768-24,24v24H64v16h32v16H64v16h32v16H64v16h32v16H64v16h32v16H64v16h32v16H64v16h32v24c0,13.232,10.768,24,24,24
		h136V416z M472,336H120c-4.416,0-8-3.584-8-8V192h336v-16H112v-32h368v32h-16v16h16v136C480,332.416,476.416,336,472,336z"/>
	<path style="fill:#333333;" d="M416,240c-9.608,0-18.128,4.336-24,11.056c-5.872-6.72-14.392-11.056-24-11.056
		c-17.648,0-32,14.352-32,32s14.352,32,32,32c9.608,0,18.128-4.336,24-11.056c5.872,6.72,14.392,11.056,24,11.056
		c17.648,0,32-14.352,32-32S433.648,240,416,240z M368,288c-8.816,0-16-7.184-16-16c0-8.824,7.184-16,16-16s16,7.176,16,16
		C384,280.816,376.816,288,368,288z M416,288c-8.816,0-16-7.184-16-16c0-8.824,7.184-16,16-16s16,7.176,16,16
		C432,280.816,424.816,288,416,288z"/>
	<rect x="80" y="448" style="fill:#333333;" width="112" height="16"/>
	<rect x="32" y="128" style="fill:#333333;" width="16" height="16"/>
	<rect x="32" y="160" style="fill:#333333;" width="16" height="16"/>
	<rect x="32" y="192" style="fill:#333333;" width="16" height="16"/>
	<rect x="32" y="224" style="fill:#333333;" width="16" height="16"/>
	<rect x="32" y="256" style="fill:#333333;" width="16" height="16"/>
	<rect x="32" y="288" style="fill:#333333;" width="16" height="16"/>
</g>
<g>
</g>
<g>
</g>
<g>
</g>
<g>
</g>
<g>
</g>
<g>
</g>
<g>
</g>
<g>
</g>
<g>
</g>
<g>
</g>
<g>
</g>
<g>
</g>
<g>
</g>
<g>
</g>
<g>
</g>
</svg>
