<?xml version="1.0" encoding="iso-8859-1"?>
<!-- Generator: Adobe Illustrator 19.0.0, SVG Export Plug-In . SVG Version: 6.00 Build 0)  -->
<svg version="1.1" id="Capa_1" xmlns="http://www.w3.org/2000/svg" xmlns:xlink="http://www.w3.org/1999/xlink" x="0px" y="0px"
	 viewBox="0 0 496 496" style="enable-background:new 0 0 496 496;" xml:space="preserve">
<g>
	<path style="fill:#FFA64D;" d="M248,496c-57.344,0-104-46.656-104-104s46.656-104,104-104s104,46.656,104,104S305.344,496,248,496z
		"/>
	<path style="fill:#FFA64D;" d="M304,176H192V64h112V176z"/>
</g>
<g>
	<path style="fill:#333333;" d="M296,0h-96c-22.056,0-40,17.944-40,40v192c0,22.056,17.944,40,40,40h96c22.056,0,40-17.944,40-40V40
		C336,17.944,318.056,0,296,0z M320,48v144H176V48H320z M200,16h96c10.416,0,19.216,6.712,22.528,16H177.472
		C180.784,22.712,189.584,16,200,16z M296,256h-96c-13.232,0-24-10.768-24-24v-24h144v24C320,245.232,309.232,256,296,256z"/>
	<path style="fill:#333333;" d="M240,352h16c8.816,0,16,7.176,16,16h16c0-17.648-14.352-32-32-32v-16h-16v16
		c-17.648,0-32,14.352-32,32s14.352,32,32,32h16c8.816,0,16,7.176,16,16c0,8.816-7.184,16-16,16h-16c-8.816,0-16-7.184-16-16h-16
		c0,17.648,14.352,32,32,32v16h16v-16c17.648,0,32-14.352,32-32s-14.352-32-32-32h-16c-8.816,0-16-7.184-16-16
		C224,359.176,231.184,352,240,352z"/>
	<rect x="224" y="224" style="fill:#333333;" width="48" height="16"/>
	<path style="fill:#333333;" d="M432,328c-35.288,0-64,28.712-64,64s28.712,64,64,64s64-28.712,64-64S467.288,328,432,328z M432,440
		c-26.472,0-48-21.528-48-48s21.528-48,48-48s48,21.528,48,48S458.472,440,432,440z"/>
	<path style="fill:#333333;" d="M64,328c-35.288,0-64,28.712-64,64s28.712,64,64,64s64-28.712,64-64S99.288,328,64,328z M64,440
		c-26.472,0-48-21.528-48-48s21.528-48,48-48s48,21.528,48,48S90.472,440,64,440z"/>
	<path style="fill:#333333;" d="M439.92,191.992c5.288,18.12,8.08,36.88,8.08,56.008c0,21.032-3.24,41.736-9.64,61.528l15.216,4.92
		C460.496,293.064,464,270.712,464,248c0-20.976-3.136-41.544-9.016-61.4c5.448-4.408,9.016-11.056,9.016-18.6
		c0-13.232-10.768-24-24-24s-24,10.768-24,24C416,181.208,426.72,191.944,439.92,191.992z M440,160c4.416,0,8,3.584,8,8
		s-3.584,8-8,8s-8-3.584-8-8S435.584,160,440,160z"/>
	<path style="fill:#333333;" d="M40,288c13.232,0,24-10.768,24-24c0-10.32-6.584-19.064-15.736-22.448
		c1.336-42.68,15.712-82.904,42.08-116.632l-12.608-9.856c-28.56,36.528-44.096,80.096-45.464,126.328
		C22.84,244.624,16,253.488,16,264C16,277.232,26.768,288,40,288z M40,256c4.416,0,8,3.584,8,8s-3.584,8-8,8s-8-3.584-8-8
		S35.584,256,40,256z"/>
	<rect x="424" y="384" style="fill:#333333;" width="16" height="16"/>
	<rect x="56" y="384" style="fill:#333333;" width="16" height="16"/>
</g>
<g>
</g>
<g>
</g>
<g>
</g>
<g>
</g>
<g>
</g>
<g>
</g>
<g>
</g>
<g>
</g>
<g>
</g>
<g>
</g>
<g>
</g>
<g>
</g>
<g>
</g>
<g>
</g>
<g>
</g>
</svg>
