<?xml version="1.0" encoding="iso-8859-1"?>
<!-- Generator: Adobe Illustrator 19.0.0, SVG Export Plug-In . SVG Version: 6.00 Build 0)  -->
<svg version="1.1" id="Capa_1" xmlns="http://www.w3.org/2000/svg" xmlns:xlink="http://www.w3.org/1999/xlink" x="0px" y="0px"
	 viewBox="0 0 496 496" style="enable-background:new 0 0 496 496;" xml:space="preserve">
<g>
	<path style="fill:#FFA64D;" d="M456,224H272l32-42.664V120c0-22.056,17.944-40,40-40h112c22.056,0,40,17.944,40,40v64
		C496,206.056,478.056,224,456,224z"/>
	<path style="fill:#FFA64D;" d="M456,400H272l32-42.664V296c0-22.056,17.944-40,40-40h112c22.056,0,40,17.944,40,40v64
		C496,382.056,478.056,400,456,400z"/>
	<path style="fill:#FFA64D;" d="M224,312H40c-22.056,0-40-17.944-40-40v-64c0-22.056,17.944-40,40-40h112c22.056,0,40,17.944,40,40
		v61.336L224,312z"/>
</g>
<g>
	<rect x="200" y="448" style="fill:#333333;" width="96" height="16"/>
	<path style="fill:#333333;" d="M112,64h272v16h16V40c0-22.056-17.944-40-40-40H136c-22.056,0-40,17.944-40,40v128h16V64z M136,16
		h224c13.232,0,24,10.768,24,24v8H112v-8C112,26.768,122.768,16,136,16z"/>
	<path style="fill:#333333;" d="M384,416H112V312H96v144c0,22.056,17.944,40,40,40h224c22.056,0,40-17.944,40-40v-56h-16V416z
		 M360,480H136c-13.232,0-24-10.768-24-24v-24h272v24C384,469.232,373.232,480,360,480z"/>
	<rect x="384" y="224" style="fill:#333333;" width="16" height="32"/>
	<rect x="336" y="112" style="fill:#333333;" width="128" height="16"/>
	<rect x="336" y="144" style="fill:#333333;" width="128" height="16"/>
	<rect x="448" y="176" style="fill:#333333;" width="16" height="16"/>
	<rect x="336" y="176" style="fill:#333333;" width="96" height="16"/>
	<rect x="336" y="288" style="fill:#333333;" width="128" height="16"/>
	<rect x="336" y="320" style="fill:#333333;" width="128" height="16"/>
	<rect x="448" y="352" style="fill:#333333;" width="16" height="16"/>
	<rect x="336" y="352" style="fill:#333333;" width="96" height="16"/>
	<rect x="32" y="200" style="fill:#333333;" width="128" height="16"/>
	<rect x="32" y="232" style="fill:#333333;" width="128" height="16"/>
	<rect x="32" y="264" style="fill:#333333;" width="96" height="16"/>
	<rect x="144" y="264" style="fill:#333333;" width="16" height="16"/>
</g>
<g>
</g>
<g>
</g>
<g>
</g>
<g>
</g>
<g>
</g>
<g>
</g>
<g>
</g>
<g>
</g>
<g>
</g>
<g>
</g>
<g>
</g>
<g>
</g>
<g>
</g>
<g>
</g>
<g>
</g>
</svg>
