<?xml version="1.0" encoding="iso-8859-1"?>
<!-- Generator: Adobe Illustrator 19.0.0, SVG Export Plug-In . SVG Version: 6.00 Build 0)  -->
<svg version="1.1" id="Capa_1" xmlns="http://www.w3.org/2000/svg" xmlns:xlink="http://www.w3.org/1999/xlink" x="0px" y="0px"
	 viewBox="0 0 496 496" style="enable-background:new 0 0 496 496;" xml:space="preserve">
<g>
	<rect x="88" y="264" style="fill:#FFA64D;" width="304" height="48"/>
	<path style="fill:#FFA64D;" d="M360,144c-17.648,0-32,14.352-32,32s14.352,32,32,32h16v-64H360z"/>
	<path style="fill:#FFA64D;" d="M120,144h-16v64h16c17.648,0,32-14.352,32-32S137.648,144,120,144z"/>
</g>
<g>
	<rect x="448" y="288" style="fill:#333333;" width="16" height="128"/>
	<path style="fill:#333333;" d="M456,208h-72v-64C384,64.6,319.4,0,240,0S96,64.6,96,144v64H40c-22.056,0-40,17.944-40,40v208
		c0,22.056,17.944,40,40,40h416c22.056,0,40-17.944,40-40V248C496,225.944,478.056,208,456,208z M96,272h288v96H96V272z M240,16
		c70.576,0,128,57.424,128,128v80h-16.008v16h19.064l8,16H100.944l8-16H336v-16H112v-80C112,73.424,169.424,16,240,16z M96,230.112
		l-16,32V384h320V262.112l-16-32V224h32v256H64V224h32V230.112z M16,456V248c0-13.232,10.768-24,24-24h8v256h-8
		C26.768,480,16,469.232,16,456z M480,456c0,13.232-10.768,24-24,24h-24V224h24c13.232,0,24,10.768,24,24V456z"/>
	<path style="fill:#333333;" d="M240,208c48.52,0,88-39.48,88-88s-39.48-88-88-88s-88,39.48-88,88S191.48,208,240,208z M240,48
		c39.704,0,72,32.296,72,72s-32.296,72-72,72s-72-32.296-72-72S200.296,48,240,48z"/>
	<path style="fill:#333333;" d="M240,176c30.872,0,56-25.128,56-56s-25.128-56-56-56s-56,25.128-56,56S209.128,176,240,176z M240,80
		c22.056,0,40,17.944,40,40s-17.944,40-40,40s-40-17.944-40-40S217.944,80,240,80z"/>
</g>
<g>
</g>
<g>
</g>
<g>
</g>
<g>
</g>
<g>
</g>
<g>
</g>
<g>
</g>
<g>
</g>
<g>
</g>
<g>
</g>
<g>
</g>
<g>
</g>
<g>
</g>
<g>
</g>
<g>
</g>
</svg>
