<?xml version="1.0" encoding="iso-8859-1"?>
<!-- Generator: Adobe Illustrator 19.0.0, SVG Export Plug-In . SVG Version: 6.00 Build 0)  -->
<svg version="1.1" id="Capa_1" xmlns="http://www.w3.org/2000/svg" xmlns:xlink="http://www.w3.org/1999/xlink" x="0px" y="0px"
	 viewBox="0 0 496 496" style="enable-background:new 0 0 496 496;" xml:space="preserve">
<path style="fill:#FFA64D;" d="M336,128H144V32h192V128z"/>
<g>
	<rect x="448" y="312" style="fill:#333333;" width="16" height="88"/>
	<rect x="144" y="144" style="fill:#333333;" width="16" height="16"/>
	<rect x="176" y="144" style="fill:#333333;" width="160" height="16"/>
	<rect x="320" y="176" style="fill:#333333;" width="16" height="16"/>
	<rect x="144" y="176" style="fill:#333333;" width="160" height="16"/>
	<rect x="232" y="224" style="fill:#333333;" width="16" height="16"/>
	<rect x="280" y="224" style="fill:#333333;" width="16" height="16"/>
	<rect x="184" y="224" style="fill:#333333;" width="16" height="16"/>
	<path style="fill:#333333;" d="M456,216h-56v-20l-32-24V0H112v172l-32,24v20H40c-22.056,0-40,17.944-40,40v200
		c0,22.056,17.944,40,40,40h416c22.056,0,40-17.944,40-40V256C496,233.944,478.056,216,456,216z M216.112,304.336L96,377.736
		V215.824L216.112,304.336z M230.024,314.584l9.976,7.352l9.976-7.352L363.568,384H116.432L230.024,314.584z M384,215.824v161.904
		l-120.112-73.4L384,215.824z M378.592,199.944L368,207.752V192L378.592,199.944z M352,16v203.544l-112,82.52l-112-82.52V16H352z
		 M112,207.752l-10.592-7.808L112,192V207.752z M400,400V232h16v248H64V232h16v168H400z M16,456V256c0-13.232,10.768-24,24-24h8v248
		h-8C26.768,480,16,469.232,16,456z M480,456c0,13.232-10.768,24-24,24h-24V232h24c13.232,0,24,10.768,24,24V456z"/>
</g>
<g>
</g>
<g>
</g>
<g>
</g>
<g>
</g>
<g>
</g>
<g>
</g>
<g>
</g>
<g>
</g>
<g>
</g>
<g>
</g>
<g>
</g>
<g>
</g>
<g>
</g>
<g>
</g>
<g>
</g>
</svg>
