<?xml version="1.0" encoding="iso-8859-1"?>
<!-- Generator: Adobe Illustrator 19.0.0, SVG Export Plug-In . SVG Version: 6.00 Build 0)  -->
<svg version="1.1" id="Capa_1" xmlns="http://www.w3.org/2000/svg" xmlns:xlink="http://www.w3.org/1999/xlink" x="0px" y="0px"
	 viewBox="0 0 496 496" style="enable-background:new 0 0 496 496;" xml:space="preserve">
<g>
	<path style="fill:#FFA64D;" d="M128,192H32V96h96V192z"/>
	<path style="fill:#FFA64D;" d="M368,256v-80l72,40L368,256z"/>
</g>
<g>
	<path style="fill:#333333;" d="M496,80H256v112h-16V0H0v224h144.808c-0.528,2.584-0.808,5.264-0.808,8v224
		c0,22.056,17.944,40,40,40h128c22.056,0,40-17.944,40-40V288h144V80z M480,96v48H272V96H480z M160,256h176v160H160V256z M336,240
		H160v-8c0-13.232,10.768-24,24-24h128c13.232,0,24,10.768,24,24V240z M224,16v48H16V16H224z M16,208V80h208v112h-40
		c-13.128,0-24.704,6.448-32,16.248V208H16z M312,480H184c-13.232,0-24-10.768-24-24v-24h176v24C336,469.232,325.232,480,312,480z
		 M352,272v-40c0-22.056-17.944-40-40-40h-40v-32h208v112H352z"/>
	<rect x="32" y="32" style="fill:#333333;" width="16" height="16"/>
	<rect x="64" y="32" style="fill:#333333;" width="16" height="16"/>
	<rect x="96" y="32" style="fill:#333333;" width="16" height="16"/>
	<rect x="144" y="96" style="fill:#333333;" width="64" height="16"/>
	<rect x="144" y="128" style="fill:#333333;" width="64" height="16"/>
	<rect x="144" y="160" style="fill:#333333;" width="64" height="16"/>
	<rect x="288" y="112" style="fill:#333333;" width="16" height="16"/>
	<rect x="320" y="112" style="fill:#333333;" width="16" height="16"/>
	<rect x="352" y="112" style="fill:#333333;" width="16" height="16"/>
	<rect x="208" y="448" style="fill:#333333;" width="80" height="16"/>
	<path style="fill:#333333;" d="M240,270.552v82.92c-2.512-0.896-5.184-1.472-8-1.472c-13.232,0-24,10.768-24,24s10.768,24,24,24
		s24-10.768,24-24v-86.552l38.688,6.448l2.624-15.784L240,270.552z M232,384c-4.416,0-8-3.584-8-8s3.584-8,8-8s8,3.584,8,8
		S236.416,384,232,384z"/>
</g>
<g>
</g>
<g>
</g>
<g>
</g>
<g>
</g>
<g>
</g>
<g>
</g>
<g>
</g>
<g>
</g>
<g>
</g>
<g>
</g>
<g>
</g>
<g>
</g>
<g>
</g>
<g>
</g>
<g>
</g>
</svg>
