<?xml version="1.0" encoding="iso-8859-1"?>
<!-- Generator: Adobe Illustrator 19.0.0, SVG Export Plug-In . SVG Version: 6.00 Build 0)  -->
<svg version="1.1" id="Capa_1" xmlns="http://www.w3.org/2000/svg" xmlns:xlink="http://www.w3.org/1999/xlink" x="0px" y="0px"
	 viewBox="0 0 496 496" style="enable-background:new 0 0 496 496;" xml:space="preserve">
<path style="fill:#FFA64D;" d="M312,40c-35.288,0-64,28.712-64,64c0,23.32,13.072,44.848,33.448,56H288v-56
	c0-13.256,10.744-24,24-24s24,10.744,24,24v56h6.552C362.928,148.848,376,127.32,376,104C376,68.712,347.288,40,312,40z"/>
<g>
	<path style="fill:#333333;" d="M456,0H40C17.944,0,0,17.944,0,40v176c0,22.056,17.944,40,40,40h96v162.424l16,24V496h16v-58.424
		l-16-24V232c0-8.824,7.176-16,16-16c8.816,0,16,7.176,16,16v8h16v-8c0-8.824,7.176-16,16-16c8.816,0,16,7.176,16,16v8h16v-8
		c0-8.824,7.176-16,16-16c8.816,0,16,7.176,16,16v8h16v-8V104c0-8.824,7.176-16,16-16c8.816,0,16,7.176,16,16v256h18.128
		l52.008-29.728c2.616-1.48,5.576-2.272,8.584-2.272c9.536,0,17.28,7.752,17.28,17.28v3.464c0,4.888-2.088,9.568-5.72,12.84
		l-70.992,63.888L288,459.36V496h16v-27.36l51.968-29.696l73.016-65.472c7-6.304,11.016-15.32,11.016-24.728v-3.464
		c0-18.352-14.928-33.28-33.288-33.28c-5.776,0-11.488,1.52-16.504,4.384L344,342.792V256h112c22.056,0,40-17.944,40-40V40
		C496,17.944,478.056,0,456,0z M16,216V40c0-13.232,10.768-24,24-24h8v224h-8C26.768,240,16,229.232,16,216z M312,72
		c-17.648,0-32,14.352-32,32v100.448c-4.728-2.752-10.144-4.448-16-4.448c-9.608,0-18.128,4.336-24,11.056
		c-5.872-6.72-14.392-11.056-24-11.056s-18.128,4.336-24,11.056c-5.872-6.72-14.392-11.056-24-11.056c-17.648,0-32,14.352-32,32v8
		H64V16h352v224h-72V104C344,86.352,329.648,72,312,72z M480,216c0,13.232-10.768,24-24,24h-24V16h24c13.232,0,24,10.768,24,24V216z
		"/>
	<rect x="448" y="80" style="fill:#333333;" width="16" height="96"/>
	<rect x="144" y="96" style="fill:#333333;" width="88" height="16"/>
	<rect x="112" y="96" style="fill:#333333;" width="16" height="16"/>
	<rect x="80" y="96" style="fill:#333333;" width="16" height="16"/>
</g>
<g>
</g>
<g>
</g>
<g>
</g>
<g>
</g>
<g>
</g>
<g>
</g>
<g>
</g>
<g>
</g>
<g>
</g>
<g>
</g>
<g>
</g>
<g>
</g>
<g>
</g>
<g>
</g>
<g>
</g>
</svg>
