<?xml version="1.0" encoding="iso-8859-1"?>
<!-- Generator: Adobe Illustrator 19.0.0, SVG Export Plug-In . SVG Version: 6.00 Build 0)  -->
<svg version="1.1" id="Capa_1" xmlns="http://www.w3.org/2000/svg" xmlns:xlink="http://www.w3.org/1999/xlink" x="0px" y="0px"
	 viewBox="0 0 496 496" style="enable-background:new 0 0 496 496;" xml:space="preserve">
<g>
	<circle style="fill:#FFA64D;" cx="256" cy="304" r="96"/>
	<path style="fill:#FFA64D;" d="M128,144H0V0h128V144z"/>
	<path style="fill:#FFA64D;" d="M496,184H368V40h128V184z"/>
</g>
<g>
	<path style="fill:#333333;" d="M456,240h-71.2c-16.56-33.192-45.504-59.056-80.8-71.6V112h64V96h-80v67.712
		C277.688,161.36,267.008,160,256,160c-16.848,0-32.96,3.064-48,8.4V56h-80v16h64v103.2c-28.024,13.984-50.824,36.784-64.8,64.8H40
		c-22.056,0-40,17.944-40,40v176c0,22.056,17.944,40,40,40h416c22.056,0,40-17.944,40-40V280C496,257.944,478.056,240,456,240z
		 M384,304c0,67.88-53.152,123.432-120,127.592V176.408C330.848,180.568,384,236.12,384,304z M248,431.592
		C183.808,427.6,132.4,376.184,128.408,312H248V431.592z M248,176.408V296H128.408C132.4,231.808,183.808,180.4,248,176.408z
		 M112,304c0,79.4,64.6,144,144,144s144-64.6,144-144c0-16.848-3.064-32.96-8.4-48H432v224H80V256h40.4
		C115.064,271.04,112,287.152,112,304z M16,456V280c0-13.232,10.768-24,24-24h24v224H40C26.768,480,16,469.232,16,456z M480,456
		c0,13.232-10.768,24-24,24h-8V256h8c13.232,0,24,10.768,24,24V456z"/>
	<rect x="32" y="320" style="fill:#333333;" width="16" height="96"/>
	<rect x="400" y="72" style="fill:#333333;" width="64" height="16"/>
	<rect x="400" y="104" style="fill:#333333;" width="64" height="16"/>
	<rect x="400" y="136" style="fill:#333333;" width="64" height="16"/>
	<rect x="32" y="32" style="fill:#333333;" width="64" height="16"/>
	<rect x="32" y="64" style="fill:#333333;" width="64" height="16"/>
	<rect x="80" y="96" style="fill:#333333;" width="16" height="16"/>
	<rect x="32" y="96" style="fill:#333333;" width="32" height="16"/>
	<rect x="280" y="248" style="fill:#333333;" width="80" height="16"/>
	<rect x="280" y="280" style="fill:#333333;" width="80" height="16"/>
	<rect x="344" y="312" style="fill:#333333;" width="16" height="16"/>
	<rect x="280" y="312" style="fill:#333333;" width="48" height="16"/>
	<rect x="168" y="264" style="fill:#333333;" width="64" height="16"/>
	<rect x="168" y="232" style="fill:#333333;" width="64" height="16"/>
	<rect x="168" y="328" style="fill:#333333;" width="64" height="16"/>
	<rect x="168" y="360" style="fill:#333333;" width="64" height="16"/>
</g>
<g>
</g>
<g>
</g>
<g>
</g>
<g>
</g>
<g>
</g>
<g>
</g>
<g>
</g>
<g>
</g>
<g>
</g>
<g>
</g>
<g>
</g>
<g>
</g>
<g>
</g>
<g>
</g>
<g>
</g>
</svg>
