<?xml version="1.0" encoding="iso-8859-1"?>
<!-- Generator: Adobe Illustrator 19.0.0, SVG Export Plug-In . SVG Version: 6.00 Build 0)  -->
<svg version="1.1" id="Capa_1" xmlns="http://www.w3.org/2000/svg" xmlns:xlink="http://www.w3.org/1999/xlink" x="0px" y="0px"
	 viewBox="0 0 496 496" style="enable-background:new 0 0 496 496;" xml:space="preserve">
<g>
	<path style="fill:#FFA64D;" d="M288,336H96V192h192V336z"/>
	<path style="fill:#FFA64D;" d="M464,144H336V64h128V144z"/>
</g>
<g>
	<rect x="80" y="448" style="fill:#333333;" width="16" height="16"/>
	<rect x="112" y="448" style="fill:#333333;" width="16" height="16"/>
	<rect x="96" y="352" style="fill:#333333;" width="16" height="16"/>
	<rect x="128" y="352" style="fill:#333333;" width="160" height="16"/>
	<rect x="272" y="384" style="fill:#333333;" width="16" height="16"/>
	<rect x="96" y="384" style="fill:#333333;" width="160" height="16"/>
	<rect x="128" y="224" style="fill:#333333;" width="128" height="16"/>
	<rect x="160" y="256" style="fill:#333333;" width="96" height="16"/>
	<rect x="128" y="256" style="fill:#333333;" width="16" height="16"/>
	<rect x="128" y="288" style="fill:#333333;" width="128" height="16"/>
	<path style="fill:#333333;" d="M472,0H328c-13.232,0-24,10.768-24,24v88H56c-22.056,0-40,17.944-40,40v264H0v40
		c0,22.056,17.944,40,40,40h368c22.056,0,40-17.944,40-40v-40h-16V304h40c13.232,0,24-10.768,24-24V24C496,10.768,485.232,0,472,0z
		 M328,16h144c4.416,0,8,3.584,8,8v8H320v-8C320,19.584,323.584,16,328,16z M64,416V160h240v120c0,13.232,10.768,24,24,24h56v112H64
		z M176,432h96v8c0,4.416-3.584,8-8,8h-80c-4.416,0-8-3.584-8-8V432z M480,48v176H320V48H480z M32,152c0-13.232,10.768-24,24-24h248
		v16H48v272H32V152z M432,456c0,13.232-10.768,24-24,24H40c-13.232,0-24-10.768-24-24v-24h144v8c0,13.232,10.768,24,24,24h80
		c13.232,0,24-10.768,24-24v-8h144V456z M416,416h-16V304h16V416z M472,288H328c-4.416,0-8-3.584-8-8v-40h160v40
		C480,284.416,476.416,288,472,288z"/>
	<rect x="368" y="256" style="fill:#333333;" width="64" height="16"/>
	<rect x="336" y="160" style="fill:#333333;" width="128" height="16"/>
	<rect x="336" y="192" style="fill:#333333;" width="96" height="16"/>
	<rect x="448" y="192" style="fill:#333333;" width="16" height="16"/>
</g>
<g>
</g>
<g>
</g>
<g>
</g>
<g>
</g>
<g>
</g>
<g>
</g>
<g>
</g>
<g>
</g>
<g>
</g>
<g>
</g>
<g>
</g>
<g>
</g>
<g>
</g>
<g>
</g>
<g>
</g>
</svg>
