<?xml version="1.0" encoding="iso-8859-1"?>
<!-- Generator: Adobe Illustrator 19.0.0, SVG Export Plug-In . SVG Version: 6.00 Build 0)  -->
<svg version="1.1" id="Capa_1" xmlns="http://www.w3.org/2000/svg" xmlns:xlink="http://www.w3.org/1999/xlink" x="0px" y="0px"
	 viewBox="0 0 496 496" style="enable-background:new 0 0 496 496;" xml:space="preserve">
<g>
	<path style="fill:#FFA64D;" d="M496,224H352V80h144V224z"/>
	<path style="fill:#FFA64D;" d="M496,400H352V256h144V400z"/>
	<path style="fill:#FFA64D;" d="M144,224H0V80h144V224z"/>
	<path style="fill:#FFA64D;" d="M320,312H176V168h144V312z"/>
	<path style="fill:#FFA64D;" d="M144,400H0V256h144V400z"/>
</g>
<g>
	<rect x="200" y="448" style="fill:#333333;" width="96" height="16"/>
	<path style="fill:#333333;" d="M112,64h272v16h16V40c0-22.056-17.944-40-40-40H136c-22.056,0-40,17.944-40,40v40h16V64z M136,16
		h224c13.232,0,24,10.768,24,24v8H112v-8C112,26.768,122.768,16,136,16z"/>
	<rect x="96" y="224" style="fill:#333333;" width="16" height="32"/>
	<path style="fill:#333333;" d="M384,416H112v-16H96v56c0,22.056,17.944,40,40,40h224c22.056,0,40-17.944,40-40v-56h-16V416z
		 M360,480H136c-13.232,0-24-10.768-24-24v-24h272v24C384,469.232,373.232,480,360,480z"/>
	<rect x="384" y="224" style="fill:#333333;" width="16" height="32"/>
	<path style="fill:#333333;" d="M384,152c0,22.056,17.944,40,40,40s40-17.944,40-40s-17.944-40-40-40S384,129.944,384,152z M424,128
		c13.232,0,24,10.768,24,24s-10.768,24-24,24s-24-10.768-24-24S410.768,128,424,128z"/>
	<path style="fill:#333333;" d="M384,368h80v-80h-80V368z M400,304h48v48h-48V304z"/>
	<path style="fill:#333333;" d="M72,111.872L26.208,192h91.576L72,111.872z M72,144.128L90.208,176H53.792L72,144.128z"/>
	<polygon style="fill:#333333;" points="106.344,373.656 117.656,362.344 83.312,328 117.656,293.656 106.344,282.344 72,316.688 
		37.656,282.344 26.344,293.656 60.688,328 26.344,362.344 37.656,373.656 72,339.312 	"/>
	<path style="fill:#333333;" d="M288,256v-32c0-13.232-10.768-24-24-24h-32c-13.232,0-24,10.768-24,24v32c0,13.232,10.768,24,24,24
		h32C277.232,280,288,269.232,288,256z M272,256c0,4.416-3.584,8-8,8h-32c-4.416,0-8-3.584-8-8v-32c0-4.416,3.584-8,8-8h32
		c4.416,0,8,3.584,8,8V256z"/>
	<rect x="240" y="232" style="fill:#333333;" width="16" height="16"/>
	<rect x="160" y="96" style="fill:#333333;" width="16" height="16"/>
	<rect x="192" y="96" style="fill:#333333;" width="16" height="16"/>
	<rect x="224" y="96" style="fill:#333333;" width="16" height="16"/>
	<rect x="256" y="96" style="fill:#333333;" width="16" height="16"/>
	<rect x="288" y="96" style="fill:#333333;" width="16" height="16"/>
	<rect x="320" y="96" style="fill:#333333;" width="16" height="16"/>
	<rect x="160" y="368" style="fill:#333333;" width="16" height="16"/>
	<rect x="192" y="368" style="fill:#333333;" width="16" height="16"/>
	<rect x="224" y="368" style="fill:#333333;" width="16" height="16"/>
	<rect x="256" y="368" style="fill:#333333;" width="16" height="16"/>
	<rect x="288" y="368" style="fill:#333333;" width="16" height="16"/>
	<rect x="320" y="368" style="fill:#333333;" width="16" height="16"/>
</g>
<g>
</g>
<g>
</g>
<g>
</g>
<g>
</g>
<g>
</g>
<g>
</g>
<g>
</g>
<g>
</g>
<g>
</g>
<g>
</g>
<g>
</g>
<g>
</g>
<g>
</g>
<g>
</g>
<g>
</g>
</svg>
