<?xml version="1.0" encoding="iso-8859-1"?>
<!-- Generator: Adobe Illustrator 19.0.0, SVG Export Plug-In . SVG Version: 6.00 Build 0)  -->
<svg version="1.1" id="Capa_1" xmlns="http://www.w3.org/2000/svg" xmlns:xlink="http://www.w3.org/1999/xlink" x="0px" y="0px"
	 viewBox="0 0 496 496" style="enable-background:new 0 0 496 496;" xml:space="preserve">
<g>
	<path style="fill:#FFA64D;" d="M176,144H0V0h176V144z"/>
	<path style="fill:#FFA64D;" d="M496,144H320V0h176V144z"/>
</g>
<g>
	<path style="fill:#333333;" d="M320,160H176c-22.056,0-40,17.944-40,40v256c0,22.056,17.944,40,40,40h144c22.056,0,40-17.944,40-40
		V200C360,177.944,342.056,160,320,160z M176,176h144c13.232,0,24,10.768,24,24v8H152v-8C152,186.768,162.768,176,176,176z M344,224
		v192H152V224H344z M320,480H176c-13.232,0-24-10.768-24-24v-24h192v24C344,469.232,333.232,480,320,480z"/>
	<rect x="32" y="32" style="fill:#333333;" width="112" height="16"/>
	<rect x="32" y="64" style="fill:#333333;" width="112" height="16"/>
	<rect x="48" y="96" style="fill:#333333;" width="16" height="16"/>
	<rect x="80" y="96" style="fill:#333333;" width="16" height="16"/>
	<rect x="112" y="96" style="fill:#333333;" width="16" height="16"/>
	<path style="fill:#333333;" d="M112,192c0-13.232-10.768-24-24-24s-24,10.768-24,24s10.768,24,24,24S112,205.232,112,192z M80,192
		c0-4.416,3.584-8,8-8s8,3.584,8,8s-3.584,8-8,8S80,196.416,80,192z"/>
	<polygon style="fill:#333333;" points="96,232 80,232 80,336 120,336 120,320 96,320 	"/>
	<rect x="352" y="32" style="fill:#333333;" width="112" height="16"/>
	<rect x="352" y="64" style="fill:#333333;" width="112" height="16"/>
	<rect x="432" y="96" style="fill:#333333;" width="16" height="16"/>
	<rect x="400" y="96" style="fill:#333333;" width="16" height="16"/>
	<rect x="368" y="96" style="fill:#333333;" width="16" height="16"/>
	<path style="fill:#333333;" d="M408,168c-13.232,0-24,10.768-24,24s10.768,24,24,24s24-10.768,24-24S421.232,168,408,168z M408,200
		c-4.416,0-8-3.584-8-8s3.584-8,8-8s8,3.584,8,8S412.416,200,408,200z"/>
	<polygon style="fill:#333333;" points="400,320 376,320 376,336 416,336 416,232 400,232 	"/>
	<rect x="200" y="448" style="fill:#333333;" width="96" height="16"/>
</g>
<path style="fill:#FFA64D;" d="M273.768,310.336C282.4,302.992,288,292.192,288,280c0-22.056-17.944-40-40-40s-40,17.944-40,40
	c0,12.192,5.6,22.992,14.232,30.336C204.296,319.68,192,338.416,192,360v40h112v-40C304,338.416,291.704,319.68,273.768,310.336z"/>
<g>
</g>
<g>
</g>
<g>
</g>
<g>
</g>
<g>
</g>
<g>
</g>
<g>
</g>
<g>
</g>
<g>
</g>
<g>
</g>
<g>
</g>
<g>
</g>
<g>
</g>
<g>
</g>
<g>
</g>
</svg>
