<?xml version="1.0" encoding="iso-8859-1"?>
<!-- Generator: Adobe Illustrator 19.0.0, SVG Export Plug-In . SVG Version: 6.00 Build 0)  -->
<svg version="1.1" id="Capa_1" xmlns="http://www.w3.org/2000/svg" xmlns:xlink="http://www.w3.org/1999/xlink" x="0px" y="0px"
	 viewBox="0 0 496 496" style="enable-background:new 0 0 496 496;" xml:space="preserve">
<g>
	<path style="fill:#FFA64D;" d="M288,112H48V0h240V112z"/>
	<path style="fill:#FFA64D;" d="M464,400H272V192h192V400z"/>
</g>
<g>
	<path style="fill:#333333;" d="M456,112H330.544l-21-56H288v16h10.456l15,40H280c-13.016,0-24.488,6.344-31.792,16H16.848
		c0.248-1.032,0.472-2.072,0.848-3.072L37.544,72H48V56H26.456L2.712,119.32C0.912,124.136,0,129.168,0,134.28
		c0,18.112,9.672,34.312,24,43V352h216v104c0,22.056,17.944,40,40,40h176c22.056,0,40-17.944,40-40V152
		C496,129.944,478.056,112,456,112z M280,128h176c13.232,0,24,10.768,24,24v8H256v-8C256,138.768,266.768,128,280,128z M17.512,144
		h61.352c-1.552,5.968-4.704,11.464-9.336,15.688c-6.76,6.136-15.512,9.008-24.696,8.168C31.824,166.608,21.216,156.776,17.512,144z
		 M256,176h224v240H256V176z M238.864,144c-3.576,13.768-15.992,24-30.864,24s-27.288-10.232-30.864-24H238.864z M158.864,144
		c-3.576,13.768-15.992,24-30.864,24s-27.288-10.232-30.864-24H158.864z M208,336h-80V224h80V336z M224,336V208H112v128H40V183.288
		c1.096,0.184,2.192,0.376,3.312,0.488c13.528,1.312,26.984-3.168,36.968-12.248c2.96-2.696,5.544-5.728,7.728-9.008
		C96.608,175.456,111.328,184,128,184c16.68,0,31.392-8.544,40-21.496C176.608,175.456,191.32,184,208,184
		c12.304,0,23.496-4.688,32-12.32V336H224z M456,480H280c-13.232,0-24-10.768-24-24v-24h224v24C480,469.232,469.232,480,456,480z"/>
	<rect x="320" y="448" style="fill:#333333;" width="96" height="16"/>
	<rect x="304" y="224" style="fill:#333333;" width="16" height="16"/>
	<rect x="336" y="224" style="fill:#333333;" width="96" height="16"/>
	<rect x="416" y="352" style="fill:#333333;" width="16" height="16"/>
	<rect x="304" y="352" style="fill:#333333;" width="96" height="16"/>
	<rect x="304" y="288" style="fill:#333333;" width="128" height="16"/>
	<rect x="304" y="256" style="fill:#333333;" width="128" height="16"/>
	<rect x="304" y="320" style="fill:#333333;" width="128" height="16"/>
	<rect x="256" y="80" style="fill:#333333;" width="16" height="16"/>
	<rect x="184" y="80" style="fill:#333333;" width="56" height="16"/>
</g>
<g>
</g>
<g>
</g>
<g>
</g>
<g>
</g>
<g>
</g>
<g>
</g>
<g>
</g>
<g>
</g>
<g>
</g>
<g>
</g>
<g>
</g>
<g>
</g>
<g>
</g>
<g>
</g>
<g>
</g>
</svg>
