<?xml version="1.0" encoding="iso-8859-1"?>
<!-- Generator: Adobe Illustrator 19.0.0, SVG Export Plug-In . SVG Version: 6.00 Build 0)  -->
<svg version="1.1" id="Capa_1" xmlns="http://www.w3.org/2000/svg" xmlns:xlink="http://www.w3.org/1999/xlink" x="0px" y="0px"
	 viewBox="0 0 496 496" style="enable-background:new 0 0 496 496;" xml:space="preserve">
<g>
	<path style="fill:#FFA64D;" d="M192,240c0-24.112,13.344-45.088,33.04-56H120v64h72.552C192.224,245.376,192,242.712,192,240z"/>
	<path style="fill:#FFA64D;" d="M286.96,184c19.696,10.912,33.04,31.888,33.04,56c0,2.712-0.224,5.376-0.552,8H392v-64H286.96z"/>
	<rect x="160" y="344" style="fill:#FFA64D;" width="192" height="120"/>
</g>
<g>
	<path style="fill:#333333;" d="M456,0H40C17.944,0,0,17.944,0,40v192c0,22.056,17.944,40,40,40h72v48
		c0,10.416,6.712,19.216,16,22.528V496h256V342.528c9.288-3.312,16-12.112,16-22.528v-48h56c22.056,0,40-17.944,40-40V40
		C496,17.944,478.056,0,456,0z M16,232V40c0-13.232,10.768-24,24-24h24v240H40C26.768,256,16,245.232,16,232z M144,480V344h224v136
		H144z M384,320c0,4.416-3.584,8-8,8H136c-4.416,0-8-3.584-8-8V160c0-4.416,3.584-8,8-8h240c4.416,0,8,3.584,8,8V320z M240,136h-32
		v-8c0-4.416,3.584-8,8-8h16c4.416,0,8,3.584,8,8V136z M352,136h-48v-16h48V136z M376,136h-8v-32h-80v32h-32v-8
		c0-13.232-10.768-24-24-24h-16c-13.232,0-24,10.768-24,24v8h-56c-13.232,0-24,10.768-24,24v96H80V16h352v240h-32v-96
		C400,146.768,389.232,136,376,136z M480,232c0,13.232-10.768,24-24,24h-8V16h8c13.232,0,24,10.768,24,24V232z"/>
	<rect x="32" y="96" style="fill:#333333;" width="16" height="80"/>
	<path style="fill:#333333;" d="M256,168c-39.704,0-72,32.296-72,72s32.296,72,72,72s72-32.296,72-72S295.704,168,256,168z M256,296
		c-30.872,0-56-25.128-56-56s25.128-56,56-56s56,25.128,56,56S286.872,296,256,296z"/>
	<path style="fill:#333333;" d="M256,200c-22.056,0-40,17.944-40,40s17.944,40,40,40s40-17.944,40-40S278.056,200,256,200z M256,264
		c-13.232,0-24-10.768-24-24s10.768-24,24-24s24,10.768,24,24S269.232,264,256,264z"/>
</g>
<g>
</g>
<g>
</g>
<g>
</g>
<g>
</g>
<g>
</g>
<g>
</g>
<g>
</g>
<g>
</g>
<g>
</g>
<g>
</g>
<g>
</g>
<g>
</g>
<g>
</g>
<g>
</g>
<g>
</g>
</svg>
