<?xml version="1.0" encoding="iso-8859-1"?>
<!-- Generator: Adobe Illustrator 19.0.0, SVG Export Plug-In . SVG Version: 6.00 Build 0)  -->
<svg version="1.1" id="Capa_1" xmlns="http://www.w3.org/2000/svg" xmlns:xlink="http://www.w3.org/1999/xlink" x="0px" y="0px"
	 viewBox="0 0 496 496" style="enable-background:new 0 0 496 496;" xml:space="preserve">
<g>
	<path style="fill:#FFA64D;" d="M96,208H32V96h64V208z"/>
	<path style="fill:#FFA64D;" d="M464,336H304v-80h160V336z"/>
</g>
<g>
	<path style="fill:#333333;" d="M184,0H40C17.944,0,0,17.944,0,40v240c0,22.056,17.944,40,40,40h144c22.056,0,40-17.944,40-40V40
		C224,17.944,206.056,0,184,0z M40,16h144c13.232,0,24,10.768,24,24v8H16v-8C16,26.768,26.768,16,40,16z M208,64v176H16V64H208z
		 M184,304H40c-13.232,0-24-10.768-24-24v-24h192v24C208,293.232,197.232,304,184,304z"/>
	<path style="fill:#333333;" d="M0,496h192V352H0V496z M96,442.336l8.952-7.328L161.184,480H30.816l56.232-44.992L96,442.336z
		 M117.624,424.648L176,376.88v94.464L117.624,424.648z M96,421.664L30.416,368h131.176L96,421.664z M74.376,424.648L16,471.352
		V376.88L74.376,424.648z"/>
	<rect x="80" y="272" style="fill:#333333;" width="64" height="16"/>
	<rect x="352" y="448" style="fill:#333333;" width="64" height="16"/>
	<rect x="112" y="96" style="fill:#333333;" width="80" height="16"/>
	<rect x="112" y="128" style="fill:#333333;" width="80" height="16"/>
	<rect x="112" y="160" style="fill:#333333;" width="80" height="16"/>
	<rect x="112" y="192" style="fill:#333333;" width="80" height="16"/>
	<path style="fill:#333333;" d="M456,176H312c-22.056,0-40,17.944-40,40v240c0,22.056,17.944,40,40,40h144c22.056,0,40-17.944,40-40
		V216C496,193.944,478.056,176,456,176z M312,192h144c13.232,0,24,10.768,24,24v8H288v-8C288,202.768,298.768,192,312,192z M480,240
		v176H288V240H480z M456,480H312c-13.232,0-24-10.768-24-24v-24h192v24C480,469.232,469.232,480,456,480z"/>
	<path style="fill:#333333;" d="M304,0v144h192V0H304z M400,69.664L334.416,16h131.176L400,69.664z M378.376,72.648L320,119.352
		V24.88L378.376,72.648z M391.048,83.008L400,90.336l8.952-7.328L465.184,128H334.816L391.048,83.008z M421.624,72.648L480,24.88
		v94.464L421.624,72.648z"/>
	<rect x="208" y="416" style="fill:#333333;" width="16" height="16"/>
	<rect x="240" y="416" style="fill:#333333;" width="16" height="16"/>
	<rect x="272" y="64" style="fill:#333333;" width="16" height="16"/>
	<rect x="240" y="64" style="fill:#333333;" width="16" height="16"/>
	<rect x="304" y="352" style="fill:#333333;" width="160" height="16"/>
	<rect x="448" y="384" style="fill:#333333;" width="16" height="16"/>
	<rect x="304" y="384" style="fill:#333333;" width="128" height="16"/>
</g>
<g>
</g>
<g>
</g>
<g>
</g>
<g>
</g>
<g>
</g>
<g>
</g>
<g>
</g>
<g>
</g>
<g>
</g>
<g>
</g>
<g>
</g>
<g>
</g>
<g>
</g>
<g>
</g>
<g>
</g>
</svg>
