<?xml version="1.0" encoding="iso-8859-1"?>
<!-- Generator: Adobe Illustrator 19.0.0, SVG Export Plug-In . SVG Version: 6.00 Build 0)  -->
<svg version="1.1" id="Capa_1" xmlns="http://www.w3.org/2000/svg" xmlns:xlink="http://www.w3.org/1999/xlink" x="0px" y="0px"
	 viewBox="0 0 496 496" style="enable-background:new 0 0 496 496;" xml:space="preserve">
<rect x="112" y="40" style="fill:#FFA64D;" width="256" height="352"/>
<g>
	<rect x="448" y="80" style="fill:#333333;" width="16" height="112"/>
	<path style="fill:#333333;" d="M456,0H40C17.944,0,0,17.944,0,40v192c0,22.056,17.944,40,40,40h40v224h320V272h56
		c22.056,0,40-17.944,40-40V40C496,17.944,478.056,0,456,0z M16,232V40c0-13.232,10.768-24,24-24h8v240h-8
		C26.768,256,16,245.232,16,232z M384,384H96V48h288V384z M96,480v-80h288v80H96z M80,32v224H64V16h352v240h-16V32H80z M480,232
		c0,13.232-10.768,24-24,24h-24V16h24c13.232,0,24,10.768,24,24V232z"/>
	<path style="fill:#333333;" d="M344,416H136c-13.232,0-24,10.768-24,24s10.768,24,24,24h208c13.232,0,24-10.768,24-24
		S357.232,416,344,416z M248,432h48v16h-48V432z M232,448h-48v-16h48V448z M128,440c0-4.416,3.584-8,8-8h32v16h-32
		C131.584,448,128,444.416,128,440z M344,448h-32v-16h32c4.416,0,8,3.584,8,8S348.416,448,344,448z"/>
	<path style="fill:#333333;" d="M208,368h64h8h48v-56h-16v17.056l-32-21.336V296c0-22.056-17.944-40-40-40s-40,17.944-40,40v11.72
		l-32,21.336V312h-16v56h48H208z M312,348.28V352h-32v-25.056L312,348.28z M216,296c0-13.232,10.768-24,24-24s24,10.768,24,24v56
		h-48V296z M168,352v-3.72l32-21.336V352H168z"/>
	<rect x="152" y="280" style="fill:#333333;" width="16" height="16"/>
	<rect x="152" y="248" style="fill:#333333;" width="16" height="16"/>
	<rect x="152" y="216" style="fill:#333333;" width="16" height="16"/>
	<rect x="152" y="184" style="fill:#333333;" width="16" height="16"/>
	<rect x="152" y="152" style="fill:#333333;" width="16" height="16"/>
	<rect x="312" y="280" style="fill:#333333;" width="16" height="16"/>
	<rect x="312" y="248" style="fill:#333333;" width="16" height="16"/>
	<rect x="312" y="216" style="fill:#333333;" width="16" height="16"/>
	<rect x="312" y="184" style="fill:#333333;" width="16" height="16"/>
	<rect x="312" y="152" style="fill:#333333;" width="16" height="16"/>
</g>
<g>
</g>
<g>
</g>
<g>
</g>
<g>
</g>
<g>
</g>
<g>
</g>
<g>
</g>
<g>
</g>
<g>
</g>
<g>
</g>
<g>
</g>
<g>
</g>
<g>
</g>
<g>
</g>
<g>
</g>
</svg>
