<?xml version="1.0" encoding="iso-8859-1"?>
<!-- Generator: Adobe Illustrator 19.0.0, SVG Export Plug-In . SVG Version: 6.00 Build 0)  -->
<svg version="1.1" id="Capa_1" xmlns="http://www.w3.org/2000/svg" xmlns:xlink="http://www.w3.org/1999/xlink" x="0px" y="0px"
	 viewBox="0 0 496 496" style="enable-background:new 0 0 496 496;" xml:space="preserve">
<path style="fill:#FFA64D;" d="M360,496c-27.464,0-53.328-11.616-71.552-32h-80.896c-18.224,20.384-44.096,32-71.552,32
	c-52.936,0-96-43.064-96-96s43.064-96,96-96h224c52.936,0,96,43.064,96,96S412.936,496,360,496z"/>
<g>
	<rect x="32" y="80" style="fill:#333333;" width="16" height="112"/>
	<path style="fill:#333333;" d="M456,0H40C17.944,0,0,17.944,0,40v192c0,22.056,17.944,40,40,40h200v32h16v-32h200
		c22.056,0,40-17.944,40-40V40C496,17.944,478.056,0,456,0z M16,232V40c0-13.232,10.768-24,24-24h24v240H40
		C26.768,256,16,245.232,16,232z M192,136h80v-16h-80v-16h112v16h-16v16h16v8c0,13.232-10.768,24-24,24h-64
		c-13.232,0-24-10.768-24-24V136z M280,184c22.056,0,40-17.944,40-40V88H176v56c0,22.056,17.944,40,40,40h24v72H80V16h352v240H256
		v-72H280z M480,232c0,13.232-10.768,24-24,24h-8V16h8c13.232,0,24,10.768,24,24V232z"/>
	<path style="fill:#333333;" d="M360,416c-13.232,0-24,10.768-24,24s10.768,24,24,24s24-10.768,24-24S373.232,416,360,416z M360,448
		c-4.416,0-8-3.584-8-8s3.584-8,8-8s8,3.584,8,8S364.416,448,360,448z"/>
	<path style="fill:#333333;" d="M360,384c13.232,0,24-10.768,24-24s-10.768-24-24-24s-24,10.768-24,24S346.768,384,360,384z
		 M360,352c4.416,0,8,3.584,8,8s-3.584,8-8,8s-8-3.584-8-8S355.584,352,360,352z"/>
	<path style="fill:#333333;" d="M400,376c-13.232,0-24,10.768-24,24s10.768,24,24,24s24-10.768,24-24S413.232,376,400,376z M400,408
		c-4.416,0-8-3.584-8-8s3.584-8,8-8s8,3.584,8,8S404.416,408,400,408z"/>
	<path style="fill:#333333;" d="M344,400c0-13.232-10.768-24-24-24s-24,10.768-24,24s10.768,24,24,24S344,413.232,344,400z M320,408
		c-4.416,0-8-3.584-8-8s3.584-8,8-8s8,3.584,8,8S324.416,408,320,408z"/>
	<path style="fill:#333333;" d="M160,336h-48v40H72v48h40v40h48v-40h40v-48h-40V336z M184,392v16h-40v40h-16v-40H88v-16h40v-40h16
		v40H184z"/>
	<path style="fill:#333333;" d="M296,304h-16v24c0,4.416-3.584,8-8,8h-48c-4.416,0-8-3.584-8-8v-24h-16v24c0,13.232,10.768,24,24,24
		h48c13.232,0,24-10.768,24-24V304z"/>
</g>
<g>
</g>
<g>
</g>
<g>
</g>
<g>
</g>
<g>
</g>
<g>
</g>
<g>
</g>
<g>
</g>
<g>
</g>
<g>
</g>
<g>
</g>
<g>
</g>
<g>
</g>
<g>
</g>
<g>
</g>
</svg>
