<?xml version="1.0" encoding="iso-8859-1"?>
<!-- Generator: Adobe Illustrator 19.0.0, SVG Export Plug-In . SVG Version: 6.00 Build 0)  -->
<svg version="1.1" id="Capa_1" xmlns="http://www.w3.org/2000/svg" xmlns:xlink="http://www.w3.org/1999/xlink" x="0px" y="0px"
	 viewBox="0 0 496 496" style="enable-background:new 0 0 496 496;" xml:space="preserve">
<path style="fill:#FFA64D;" d="M448,336H272V168l64-72h48l64,72V336z"/>
<g>
	<rect x="304" y="448" style="fill:#333333;" width="112" height="16"/>
	<path style="fill:#333333;" d="M360,352c-13.232,0-24,10.768-24,24s10.768,24,24,24s24-10.768,24-24S373.232,352,360,352z M360,384
		c-4.416,0-8-3.584-8-8s3.584-8,8-8s8,3.584,8,8S364.416,384,360,384z"/>
	<path style="fill:#333333;" d="M296,352c-13.232,0-24,10.768-24,24s10.768,24,24,24s24-10.768,24-24S309.232,352,296,352z M296,384
		c-4.416,0-8-3.584-8-8s3.584-8,8-8s8,3.584,8,8S300.416,384,296,384z"/>
	<path style="fill:#333333;" d="M400,376c0,13.232,10.768,24,24,24s24-10.768,24-24s-10.768-24-24-24S400,362.768,400,376z M424,368
		c4.416,0,8,3.584,8,8s-3.584,8-8,8s-8-3.584-8-8S419.584,368,424,368z"/>
	<path style="fill:#333333;" d="M456,0H264c-22.056,0-40,17.944-40,40v56h-14.248l-23.992,96H0v24l27.432,106.584
		C16.016,327.48,8,338.816,8,352c0,17.648,14.352,32,32,32s32-14.352,32-32c0-2.776-0.464-5.432-1.136-8h114.272
		c-0.672,2.568-1.136,5.224-1.136,8c0,17.648,14.352,32,32,32c2.776,0,5.432-0.464,8-1.136V456c0,22.056,17.944,40,40,40h192
		c22.056,0,40-17.944,40-40V40C496,17.944,478.056,0,456,0z M264,16h192c13.232,0,24,10.768,24,24v8H240v-8
		C240,26.768,250.768,16,264,16z M240,64h240v352H240v-43.056c4.92-5.624,8-12.896,8-20.944c0-13.216-8.048-24.568-19.496-29.448
		l27.24-104.536L256,192h-21.76l12.008-48H272c13.232,0,24-10.768,24-24s-10.768-24-24-24h-32V64z M222.248,112H272
		c4.416,0,8,3.584,8,8s-3.584,8-8,8h-38.248l-15.992,64h-15.52L222.248,112z M16,208h224v6.976L237.648,224H216v16h17.48
		l-20.936,80.352c-6.672,0.728-12.688,3.456-17.488,7.648H60.944c-4.824-4.216-10.872-6.952-17.584-7.664L22.496,240H200v-16H18.344
		L16,214.976V208z M40,368c-8.816,0-16-7.184-16-16c0-8.824,7.184-16,16-16s16,7.176,16,16C56,360.816,48.816,368,40,368z M200,352
		c0-8.824,7.184-16,16-16s16,7.176,16,16c0,8.816-7.184,16-16,16S200,360.816,200,352z M456,480H264c-13.232,0-24-10.768-24-24v-24
		h240v24C480,469.232,469.232,480,456,480z"/>
	
		<rect x="311.983" y="227.743" transform="matrix(-0.7071 0.7071 -0.7071 -0.7071 781.2174 147.8947)" style="fill:#333333;" width="95.991" height="16"/>
	<path style="fill:#333333;" d="M371.312,247.032c-9.36,9.36-9.36,24.576,0,33.936c4.68,4.68,10.824,7.024,16.976,7.024
		c6.144,0,12.288-2.344,16.968-7.024h0.008c9.336-9.36,9.336-24.576-0.008-33.936C395.888,237.664,380.664,237.68,371.312,247.032z
		 M393.936,258.344c3.12,3.12,3.12,8.192,0.008,11.312c-3.136,3.136-8.2,3.128-11.32,0c-3.12-3.12-3.12-8.192,0-11.312
		c1.56-1.56,3.608-2.344,5.664-2.344C390.336,256,392.384,256.784,393.936,258.344z"/>
	<path style="fill:#333333;" d="M331.712,231.424c6.152,0,12.296-2.344,16.976-7.016c0-0.008,0-0.008,0-0.008
		c4.528-4.528,7.032-10.552,7.032-16.968c0-6.408-2.496-12.44-7.032-16.968c-9.36-9.36-24.576-9.36-33.952,0
		c-9.344,9.368-9.344,24.584,0.008,33.936C319.424,229.08,325.568,231.424,331.712,231.424z M326.056,201.776
		c1.56-1.56,3.608-2.344,5.656-2.344c2.056,0,4.104,0.784,5.664,2.344c1.512,1.512,2.344,3.52,2.344,5.656
		c0,2.144-0.832,4.144-2.344,5.648v0.008c-3.12,3.12-8.184,3.136-11.32,0C322.936,209.968,322.936,204.888,326.056,201.776z"/>
</g>
<g>
</g>
<g>
</g>
<g>
</g>
<g>
</g>
<g>
</g>
<g>
</g>
<g>
</g>
<g>
</g>
<g>
</g>
<g>
</g>
<g>
</g>
<g>
</g>
<g>
</g>
<g>
</g>
<g>
</g>
</svg>
