<?xml version="1.0" encoding="iso-8859-1"?>
<!-- Generator: Adobe Illustrator 19.0.0, SVG Export Plug-In . SVG Version: 6.00 Build 0)  -->
<svg version="1.1" id="Capa_1" xmlns="http://www.w3.org/2000/svg" xmlns:xlink="http://www.w3.org/1999/xlink" x="0px" y="0px"
	 viewBox="0 0 496 496" style="enable-background:new 0 0 496 496;" xml:space="preserve">
<g>
	<rect x="304" y="448" style="fill:#333333;" width="112" height="16"/>
	<path style="fill:#333333;" d="M456,0H264c-22.056,0-40,17.944-40,40v48h16V64h240v352H240v-56h-16v96c0,22.056,17.944,40,40,40
		h192c22.056,0,40-17.944,40-40V40C496,17.944,478.056,0,456,0z M240,48v-8c0-13.232,10.768-24,24-24h192c13.232,0,24,10.768,24,24
		v8H240z M456,480H264c-13.232,0-24-10.768-24-24v-24h240v24C480,469.232,469.232,480,456,480z"/>
</g>
<path style="fill:#FFA64D;" d="M448,368H0V80h448V368z"/>
<g>
	<path style="fill:#333333;" d="M80,176H48c-8.824,0-16-7.176-16-16v-32c0-8.816,7.176-16,16-16h32c8.816,0,16,7.184,16,16v32
		C96,168.824,88.816,176,80,176z M48,128v32h32.016L80,128H48z"/>
	<path style="fill:#333333;" d="M80,256H48c-8.824,0-16-7.176-16-16v-32c0-8.824,7.176-16,16-16h32c8.816,0,16,7.176,16,16v32
		C96,248.824,88.816,256,80,256z M48,208v32h32.016L80,208H48z"/>
	<path style="fill:#333333;" d="M80,336H48c-8.824,0-16-7.176-16-16v-32c0-8.824,7.176-16,16-16h32c8.816,0,16,7.176,16,16v32
		C96,328.824,88.816,336,80,336z M48,288v32h32.016L80,288H48z"/>
	<path style="fill:#333333;" d="M160,176h-32c-8.824,0-16-7.176-16-16v-32c0-8.816,7.176-16,16-16h32c8.816,0,16,7.184,16,16v32
		C176,168.824,168.816,176,160,176z M128,128v32h32.016L160,128H128z"/>
	<path style="fill:#333333;" d="M160,256h-32c-8.824,0-16-7.176-16-16v-32c0-8.824,7.176-16,16-16h32c8.816,0,16,7.176,16,16v32
		C176,248.824,168.816,256,160,256z M128,208v32h32.016L160,208H128z"/>
	<path style="fill:#333333;" d="M160,336h-32c-8.824,0-16-7.176-16-16v-32c0-8.824,7.176-16,16-16h32c8.816,0,16,7.176,16,16v32
		C176,328.824,168.816,336,160,336z M128,288v32h32.016L160,288H128z"/>
	<path style="fill:#333333;" d="M240,176h-32c-8.824,0-16-7.176-16-16v-32c0-8.816,7.176-16,16-16h32c8.816,0,16,7.184,16,16v32
		C256,168.824,248.816,176,240,176z M208,128v32h32.016L240,128H208z"/>
	<path style="fill:#333333;" d="M240,256h-32c-8.824,0-16-7.176-16-16v-32c0-8.824,7.176-16,16-16h32c8.816,0,16,7.176,16,16v32
		C256,248.824,248.816,256,240,256z M208,208v32h32.016L240,208H208z"/>
	<path style="fill:#333333;" d="M240,336h-32c-8.824,0-16-7.176-16-16v-32c0-8.824,7.176-16,16-16h32c8.816,0,16,7.176,16,16v32
		C256,328.824,248.816,336,240,336z M208,288v32h32.016L240,288H208z"/>
	<path style="fill:#333333;" d="M320,176h-32c-8.824,0-16-7.176-16-16v-32c0-8.816,7.176-16,16-16h32c8.816,0,16,7.184,16,16v32
		C336,168.824,328.816,176,320,176z M288,128v32h32.016L320,128H288z"/>
	<path style="fill:#333333;" d="M320,256h-32c-8.824,0-16-7.176-16-16v-32c0-8.824,7.176-16,16-16h32c8.816,0,16,7.176,16,16v32
		C336,248.824,328.816,256,320,256z M288,208v32h32.016L320,208H288z"/>
	<path style="fill:#333333;" d="M320,336h-32c-8.824,0-16-7.176-16-16v-32c0-8.824,7.176-16,16-16h32c8.816,0,16,7.176,16,16v32
		C336,328.824,328.816,336,320,336z M288,288v32h32.016L320,288H288z"/>
	<path style="fill:#333333;" d="M400,176h-32c-8.824,0-16-7.176-16-16v-32c0-8.816,7.176-16,16-16h32c8.816,0,16,7.184,16,16v32
		C416,168.824,408.816,176,400,176z M368,128v32h32.016L400,128H368z"/>
	<path style="fill:#333333;" d="M400,256h-32c-8.824,0-16-7.176-16-16v-32c0-8.824,7.176-16,16-16h32c8.816,0,16,7.176,16,16v32
		C416,248.824,408.816,256,400,256z M368,208v32h32.016L400,208H368z"/>
	<path style="fill:#333333;" d="M400,336h-32c-8.824,0-16-7.176-16-16v-32c0-8.824,7.176-16,16-16h32c8.816,0,16,7.176,16,16v32
		C416,328.824,408.816,336,400,336z M368,288v32h32.016L400,288H368z"/>
	<rect x="256" y="384" style="fill:#333333;" width="16" height="16"/>
	<rect x="448" y="384" style="fill:#333333;" width="16" height="16"/>
	<rect x="288" y="384" style="fill:#333333;" width="144" height="16"/>
</g>
<g>
</g>
<g>
</g>
<g>
</g>
<g>
</g>
<g>
</g>
<g>
</g>
<g>
</g>
<g>
</g>
<g>
</g>
<g>
</g>
<g>
</g>
<g>
</g>
<g>
</g>
<g>
</g>
<g>
</g>
</svg>
