<?xml version="1.0" encoding="iso-8859-1"?>
<!-- Generator: Adobe Illustrator 19.0.0, SVG Export Plug-In . SVG Version: 6.00 Build 0)  -->
<svg version="1.1" id="Capa_1" xmlns="http://www.w3.org/2000/svg" xmlns:xlink="http://www.w3.org/1999/xlink" x="0px" y="0px"
	 viewBox="0 0 496 496" style="enable-background:new 0 0 496 496;" xml:space="preserve">
<g>
	<path style="fill:#FFA64D;" d="M360,336c-48.52,0-88-39.48-88-88s39.48-88,88-88s88,39.48,88,88S408.52,336,360,336z"/>
	<polygon style="fill:#FFA64D;" points="96,32 96,96 32,96 32,144 256,144 256,32 	"/>
</g>
<g>
	<path style="fill:#333333;" d="M456,80H288V0H84.688L0,84.688V320h224v136c0,22.056,17.944,40,40,40h192c22.056,0,40-17.944,40-40
		V120C496,97.944,478.056,80,456,80z M456,96c13.232,0,24,10.768,24,24v8H288V96H456z M80,27.312V80H27.312L80,27.312z M16,96h80V16
		h176v288H16V96z M288,320V144h192v272H240v-96H288z M456,480H264c-13.232,0-24-10.768-24-24v-24h240v24
		C480,469.232,469.232,480,456,480z"/>
	<rect x="304" y="448" style="fill:#333333;" width="112" height="16"/>
	<path style="fill:#333333;" d="M360,352c-13.232,0-24,10.768-24,24s10.768,24,24,24s24-10.768,24-24S373.232,352,360,352z M360,384
		c-4.416,0-8-3.584-8-8s3.584-8,8-8s8,3.584,8,8S364.416,384,360,384z"/>
	<path style="fill:#333333;" d="M296,400c13.232,0,24-10.768,24-24s-10.768-24-24-24s-24,10.768-24,24S282.768,400,296,400z
		 M296,368c4.416,0,8,3.584,8,8s-3.584,8-8,8s-8-3.584-8-8S291.584,368,296,368z"/>
	<path style="fill:#333333;" d="M400,376c0,13.232,10.768,24,24,24s24-10.768,24-24s-10.768-24-24-24S400,362.768,400,376z M424,368
		c4.416,0,8,3.584,8,8s-3.584,8-8,8s-8-3.584-8-8S419.584,368,424,368z"/>
	<path style="fill:#333333;" d="M320,203.056v89.888L409.888,248L320,203.056z M336,228.944L374.112,248L336,267.056V228.944z"/>
	<rect x="176" y="160" style="fill:#333333;" width="80" height="16"/>
	<rect x="176" y="216" style="fill:#333333;" width="80" height="16"/>
	<rect x="176" y="272" style="fill:#333333;" width="48" height="16"/>
	<rect x="240" y="272" style="fill:#333333;" width="16" height="16"/>
</g>
<path style="fill:#FFA64D;" d="M96,288c-35.288,0-64-28.712-64-64s28.712-64,64-64s64,28.712,64,64S131.288,288,96,288z"/>
<g>
</g>
<g>
</g>
<g>
</g>
<g>
</g>
<g>
</g>
<g>
</g>
<g>
</g>
<g>
</g>
<g>
</g>
<g>
</g>
<g>
</g>
<g>
</g>
<g>
</g>
<g>
</g>
<g>
</g>
</svg>
