<?xml version="1.0" encoding="iso-8859-1"?>
<!-- Generator: Adobe Illustrator 19.0.0, SVG Export Plug-In . SVG Version: 6.00 Build 0)  -->
<svg version="1.1" id="Capa_1" xmlns="http://www.w3.org/2000/svg" xmlns:xlink="http://www.w3.org/1999/xlink" x="0px" y="0px"
	 viewBox="0 0 496 496" style="enable-background:new 0 0 496 496;" xml:space="preserve">
<g>
	<rect x="80" y="448" style="fill:#333333;" width="112" height="16"/>
	<path style="fill:#333333;" d="M496,0H48v80h-8C17.944,80,0,97.944,0,120v336c0,22.056,17.944,40,40,40h192
		c22.056,0,40-17.944,40-40v-72h224V0z M192,16v80H64V16H192z M192,368H64V160h128V368z M40,96h8v32H16v-8
		C16,106.768,26.768,96,40,96z M232,480H40c-13.232,0-24-10.768-24-24v-24h240v24C256,469.232,245.232,480,232,480z M256,416H16V144
		h32v240h208V416z M480,368H256v-64h224V368z M480,240h-87.352v16H480v32H240v80h-32V144H64v-32h144V16h32v240h104v-16h-88V16h224
		V240z"/>
	<rect x="160" y="176" style="fill:#333333;" width="16" height="16"/>
	<rect x="160" y="208" style="fill:#333333;" width="16" height="16"/>
	<rect x="160" y="240" style="fill:#333333;" width="16" height="16"/>
</g>
<path style="fill:#FFA64D;" d="M368,272c-12.76,0-24.488-6.408-31.384-17.144l-49.592-77.144
	C277.192,162.424,272,144.744,272,126.568C272,74.424,314.424,32,366.568,32h2.856C421.576,32,464,74.424,464,126.568
	c0,18.168-5.192,35.848-15.024,51.144l-49.6,77.152C392.48,265.592,380.76,272,368,272z"/>
<path style="fill:#333333;" d="M368,192c-35.288,0-64-28.712-64-64s28.712-64,64-64s64,28.712,64,64S403.288,192,368,192z M368,80
	c-26.472,0-48,21.528-48,48s21.528,48,48,48s48-21.528,48-48S394.472,80,368,80z"/>
<g>
</g>
<g>
</g>
<g>
</g>
<g>
</g>
<g>
</g>
<g>
</g>
<g>
</g>
<g>
</g>
<g>
</g>
<g>
</g>
<g>
</g>
<g>
</g>
<g>
</g>
<g>
</g>
<g>
</g>
</svg>
