<?xml version="1.0" encoding="iso-8859-1"?>
<!-- Generator: Adobe Illustrator 19.0.0, SVG Export Plug-In . SVG Version: 6.00 Build 0)  -->
<svg version="1.1" id="Capa_1" xmlns="http://www.w3.org/2000/svg" xmlns:xlink="http://www.w3.org/1999/xlink" x="0px" y="0px"
	 viewBox="0 0 496 496" style="enable-background:new 0 0 496 496;" xml:space="preserve">
<g>
	<rect x="120" y="8" style="fill:#FFA64D;" width="136" height="96"/>
	<rect x="128" y="392" style="fill:#FFA64D;" width="128" height="96"/>
	<path style="fill:#FFA64D;" d="M352,224V72h144v112h-96L352,224z"/>
</g>
<g>
	<path style="fill:#333333;" d="M104,304h176V192H104V304z M192,265.768l9.864-6.904L245.576,288H138.424l43.712-29.144L192,265.768
		z M215.936,249.008L264,215.368v65.688L215.936,249.008z M192,246.232L137.376,208h109.24L192,246.232z M168.064,249.008
		L120,281.056v-65.688L168.064,249.008z"/>
	<path style="fill:#333333;" d="M296,126.656V0H88v126.656C61.512,149.392,42.456,180.544,35.224,216H24c-13.232,0-24,10.768-24,24
		v16c0,13.232,10.768,24,24,24h11.224c7.232,35.456,26.288,66.608,52.776,89.344V496h208V369.344
		c34.216-29.368,56-72.824,56-121.344S330.216,156.024,296,126.656z M280,114.512c-5.12-3.392-10.488-6.408-16-9.2V16h16V114.512z
		 M104,16h16v56h16V16h112v82.312C230.544,91.76,211.72,88,192,88s-38.544,3.76-56,10.312V88h-16v17.312
		c-5.512,2.792-10.88,5.816-16,9.2V16z M24,264c-4.416,0-8-3.584-8-8v-16c0-4.416,3.584-8,8-8h8.808C32.288,237.264,32,242.6,32,248
		s0.288,10.736,0.808,16H24z M104,381.488c5.12,3.392,10.488,6.408,16,9.2V480h-16V381.488z M192,408c19.72,0,38.544-3.76,56-10.312
		V480H136v-82.312C153.456,404.24,172.28,408,192,408z M280,480h-16v-89.312c5.512-2.792,10.88-5.816,16-9.2V480z M192,392
		c-79.4,0-144-64.6-144-144s64.6-144,144-144s144,64.6,144,144S271.4,392,192,392z"/>
	<path style="fill:#333333;" d="M192,120c-70.576,0-128,57.424-128,128s57.424,128,128,128s128-57.424,128-128S262.576,120,192,120z
		 M192,360c-61.76,0-112-50.24-112-112s50.24-112,112-112s112,50.24,112,112S253.76,360,192,360z"/>
	<rect x="384" y="120" style="fill:#333333;" width="16" height="16"/>
	<rect x="416" y="120" style="fill:#333333;" width="16" height="16"/>
	<rect x="448" y="120" style="fill:#333333;" width="16" height="16"/>
</g>
<g>
</g>
<g>
</g>
<g>
</g>
<g>
</g>
<g>
</g>
<g>
</g>
<g>
</g>
<g>
</g>
<g>
</g>
<g>
</g>
<g>
</g>
<g>
</g>
<g>
</g>
<g>
</g>
<g>
</g>
</svg>
