<?xml version="1.0" encoding="iso-8859-1"?>
<!-- Generator: Adobe Illustrator 19.0.0, SVG Export Plug-In . SVG Version: 6.00 Build 0)  -->
<svg version="1.1" id="Capa_1" xmlns="http://www.w3.org/2000/svg" xmlns:xlink="http://www.w3.org/1999/xlink" x="0px" y="0px"
	 viewBox="0 0 496 496" style="enable-background:new 0 0 496 496;" xml:space="preserve">
<g>
	<path style="fill:#FFA64D;" d="M256,192H96V80h160V192z"/>
	<path style="fill:#FFA64D;" d="M352,400c-30.872,0-56-25.128-56-56s25.128-56,56-56s56,25.128,56,56S382.872,400,352,400z"/>
</g>
<g>
	<path style="fill:#333333;" d="M408,0H88C65.944,0,48,17.944,48,40v416c0,22.056,17.944,40,40,40h320c22.056,0,40-17.944,40-40V40
		C448,17.944,430.056,0,408,0z M88,16h320c13.232,0,24,10.768,24,24v8H64v-8C64,26.768,74.768,16,88,16z M432,64v352H64V64H432z
		 M408,480H88c-13.232,0-24-10.768-24-24v-24h368v24C432,469.232,421.232,480,408,480z"/>
	<rect x="208" y="448" style="fill:#333333;" width="80" height="16"/>
	<rect x="272" y="80" style="fill:#333333;" width="16" height="16"/>
	<rect x="304" y="80" style="fill:#333333;" width="96" height="16"/>
	<rect x="272" y="112" style="fill:#333333;" width="128" height="16"/>
	<rect x="272" y="144" style="fill:#333333;" width="128" height="16"/>
	<rect x="384" y="176" style="fill:#333333;" width="16" height="16"/>
	<rect x="272" y="176" style="fill:#333333;" width="96" height="16"/>
	<rect x="264" y="384" style="fill:#333333;" width="16" height="16"/>
	<rect x="96" y="384" style="fill:#333333;" width="152" height="16"/>
	<rect x="96" y="352" style="fill:#333333;" width="184" height="16"/>
	<rect x="96" y="320" style="fill:#333333;" width="184" height="16"/>
	<rect x="96" y="288" style="fill:#333333;" width="16" height="16"/>
	<rect x="128" y="288" style="fill:#333333;" width="152" height="16"/>
	<rect x="96" y="208" style="fill:#333333;" width="304" height="16"/>
	<rect x="96" y="240" style="fill:#333333;" width="304" height="16"/>
</g>
<g>
</g>
<g>
</g>
<g>
</g>
<g>
</g>
<g>
</g>
<g>
</g>
<g>
</g>
<g>
</g>
<g>
</g>
<g>
</g>
<g>
</g>
<g>
</g>
<g>
</g>
<g>
</g>
<g>
</g>
</svg>
