<?xml version="1.0" encoding="iso-8859-1"?>
<!-- Generator: Adobe Illustrator 19.0.0, SVG Export Plug-In . SVG Version: 6.00 Build 0)  -->
<svg version="1.1" id="Capa_1" xmlns="http://www.w3.org/2000/svg" xmlns:xlink="http://www.w3.org/1999/xlink" x="0px" y="0px"
	 viewBox="0 0 496 496" style="enable-background:new 0 0 496 496;" xml:space="preserve">
<g>
	<rect x="192" y="160" style="fill:#FFA64D;" width="40" height="48"/>
	<rect x="264" y="160" style="fill:#FFA64D;" width="40" height="48"/>
	<path style="fill:#FFA64D;" d="M112,208H64v-48h48V208z"/>
	<path style="fill:#FFA64D;" d="M176,208h-48v-48h48V208z"/>
	<path style="fill:#FFA64D;" d="M368,208h-48v-48h48V208z"/>
</g>
<g>
	<rect x="80" y="448" style="fill:#333333;" width="112" height="16"/>
	<path style="fill:#333333;" d="M496,184c0-74.992-61.008-136-136-136c-33.56,0-64.256,12.28-88,32.496V40c0-22.056-17.944-40-40-40
		H40C17.944,0,0,17.944,0,40v416c0,22.056,17.944,40,40,40h192c22.056,0,40-17.944,40-40V287.504
		c13.896,11.832,30.144,20.968,48,26.472V336h-16v16h16v104c0,22.056,17.944,40,40,40s40-17.944,40-40V352h16v-16h-16v-22.024
		C455.528,296.856,496,245.072,496,184z M230.024,224H48v-80h182.024C226.12,156.656,224,170.08,224,184S226.12,211.344,230.024,224
		z M236.208,128H32v112h204.208c5.28,11.624,12.104,22.392,20.288,32H256v144H16V64h240v32h0.496
		C248.312,105.608,241.488,116.376,236.208,128z M40,16h192c13.232,0,24,10.768,24,24v8H16v-8C16,26.768,26.768,16,40,16z M232,480
		H40c-13.232,0-24-10.768-24-24v-24h240v24C256,469.232,245.232,480,232,480z M240,184c0-66.176,53.832-120,120-120
		s120,53.824,120,120c0,66.168-53.832,120-120,120S240,250.168,240,184z M384,456c0,13.232-10.768,24-24,24s-24-10.768-24-24V352h48
		V456z M384,336h-48v-18.248c7.808,1.392,15.8,2.248,24,2.248s16.192-0.856,24-2.248V336z"/>
	<path style="fill:#333333;" d="M435.992,254.992l-11.688-10.92C407.48,262.08,384.64,272,360,272
		c-27.264,0-51.672-12.464-67.832-32H400V128H292.168c16.152-19.528,40.56-32,67.832-32c48.52,0,88,39.48,88,88
		c0,17.984-5.392,35.28-15.584,50.016l13.152,9.112C457.624,225.704,464,205.256,464,184c0-57.344-46.656-104-104-104
		s-104,46.656-104,104s46.656,104,104,104C388.704,288,416.4,275.968,435.992,254.992z M281.712,144H384v80H281.712
		c-6.16-12.016-9.712-25.592-9.712-40S275.552,156.016,281.712,144z"/>
	<path style="fill:#333333;" d="M192,312h-16v-16c0-22.056-17.944-40-40-40s-40,17.944-40,40v16H80v88h112V312z M112,296
		c0-13.232,10.768-24,24-24s24,10.768,24,24v16h-48V296z M176,384H96v-56h80V384z"/>
</g>
<g>
</g>
<g>
</g>
<g>
</g>
<g>
</g>
<g>
</g>
<g>
</g>
<g>
</g>
<g>
</g>
<g>
</g>
<g>
</g>
<g>
</g>
<g>
</g>
<g>
</g>
<g>
</g>
<g>
</g>
</svg>
