<?xml version="1.0" encoding="iso-8859-1"?>
<!-- Generator: Adobe Illustrator 19.0.0, SVG Export Plug-In . SVG Version: 6.00 Build 0)  -->
<svg version="1.1" id="Capa_1" xmlns="http://www.w3.org/2000/svg" xmlns:xlink="http://www.w3.org/1999/xlink" x="0px" y="0px"
	 viewBox="0 0 496 496" style="enable-background:new 0 0 496 496;" xml:space="preserve">
<g>
	<rect x="168" y="8" style="fill:#FFA64D;" width="160" height="96"/>
	<path style="fill:#FFA64D;" d="M432,176c-7.864,0-15.088-4.288-18.848-11.192l-37.336-68.44C370.704,86.992,368,76.392,368,65.72
		V64c0-35.288,28.712-64,64-64s64,28.712,64,64v1.72c0,10.672-2.704,21.272-7.816,30.648l-37.336,68.44
		C447.088,171.712,439.864,176,432,176z"/>
	<path style="fill:#FFA64D;" d="M110.56,92.472C116.464,84.488,120,74.664,120,64V48c0-26.472-21.528-48-48-48S24,21.528,24,48v16
		c0,10.664,3.536,20.488,9.44,28.472C13.48,101.784,0,122.04,0,144.824V176h144v-31.176C144,122.04,130.52,101.784,110.56,92.472z"
		/>
</g>
<g>
	<rect x="240" y="384" style="fill:#333333;" width="16" height="16"/>
	<rect x="272" y="384" style="fill:#333333;" width="16" height="16"/>
	<rect x="208" y="384" style="fill:#333333;" width="16" height="16"/>
	<path style="fill:#333333;" d="M336,0H160v112h176V0z M248,54.232L193.376,16h109.24L248,54.232z M220.576,54.568L176,88V23.36
		L220.576,54.568z M234.368,64.224L248,73.768l13.632-9.544L304.008,96H191.992L234.368,64.224z M275.424,54.568L320,23.368V88
		L275.424,54.568z"/>
	<rect x="208" y="448" style="fill:#333333;" width="80" height="16"/>
	<path style="fill:#333333;" d="M432,96c17.648,0,32-14.352,32-32s-14.352-32-32-32s-32,14.352-32,32S414.352,96,432,96z M432,48
		c8.816,0,16,7.176,16,16c0,8.816-7.184,16-16,16s-16-7.184-16-16C416,55.176,423.184,48,432,48z"/>
	<path style="fill:#333333;" d="M144,144.816c0-22.784-13.48-43.032-33.44-52.352C116.464,84.496,120,74.664,120,64V48
		c0-26.472-21.528-48-48-48S24,21.528,24,48v16c0,10.664,3.536,20.496,9.44,28.464C13.48,101.784,0,122.04,0,144.816V176h144
		V144.816z M40,48c0-17.648,14.352-32,32-32s32,14.352,32,32v16c0,17.648-14.352,32-32,32S40,81.648,40,64V48z M128,160H16v-15.184
		c0-18.816,12.768-35.144,30.68-40.12C54.04,109.296,62.696,112,72,112s17.96-2.704,25.32-7.296C115.232,109.68,128,126,128,144.816
		V160z"/>
	<path style="fill:#333333;" d="M432,192c-13.232,0-24,10.768-24,24c0,10.416,6.712,19.216,16,22.528V360h-80v-96
		c0-22.056-17.944-40-40-40h-48v-49.472c9.288-3.312,16-12.112,16-22.528c0-13.232-10.768-24-24-24s-24,10.768-24,24
		c0,10.416,6.712,19.216,16,22.528V224h-48c-22.056,0-40,17.944-40,40v96H72V238.528c9.288-3.312,16-12.112,16-22.528
		c0-13.232-10.768-24-24-24s-24,10.768-24,24c0,10.416,6.712,19.216,16,22.528V376h96v80c0,22.056,17.944,40,40,40h112
		c22.056,0,40-17.944,40-40v-80h96V238.528c9.288-3.312,16-12.112,16-22.528C456,202.768,445.232,192,432,192z M248,144
		c4.416,0,8,3.584,8,8s-3.584,8-8,8s-8-3.584-8-8S243.584,144,248,144z M64,208c4.416,0,8,3.584,8,8s-3.584,8-8,8s-8-3.584-8-8
		S59.584,208,64,208z M328,272v144H168V272H328z M192,240h112c10.416,0,19.216,6.712,22.528,16H169.472
		C172.784,246.712,181.584,240,192,240z M304,480H192c-13.232,0-24-10.768-24-24v-24h160v24C328,469.232,317.232,480,304,480z
		 M432,224c-4.416,0-8-3.584-8-8s3.584-8,8-8s8,3.584,8,8S436.416,224,432,224z"/>
	<rect x="88" y="328" style="fill:#333333;" width="16" height="16"/>
	<rect x="88" y="296" style="fill:#333333;" width="16" height="16"/>
	<rect x="88" y="264" style="fill:#333333;" width="16" height="16"/>
	<rect x="392" y="328" style="fill:#333333;" width="16" height="16"/>
	<rect x="392" y="296" style="fill:#333333;" width="16" height="16"/>
	<rect x="392" y="264" style="fill:#333333;" width="16" height="16"/>
</g>
<g>
</g>
<g>
</g>
<g>
</g>
<g>
</g>
<g>
</g>
<g>
</g>
<g>
</g>
<g>
</g>
<g>
</g>
<g>
</g>
<g>
</g>
<g>
</g>
<g>
</g>
<g>
</g>
<g>
</g>
</svg>
