<?xml version="1.0" encoding="iso-8859-1"?>
<!-- Generator: Adobe Illustrator 19.0.0, SVG Export Plug-In . SVG Version: 6.00 Build 0)  -->
<svg version="1.1" id="Capa_1" xmlns="http://www.w3.org/2000/svg" xmlns:xlink="http://www.w3.org/1999/xlink" x="0px" y="0px"
	 viewBox="0 0 496 496" style="enable-background:new 0 0 496 496;" xml:space="preserve">
<g>
	<path style="fill:#FFA64D;" d="M464,336H288V160h176V336z"/>
	<path style="fill:#FFA64D;" d="M112,224C50.24,224,0,173.76,0,112S50.24,0,112,0s112,50.24,112,112S173.76,224,112,224z"/>
	<path style="fill:#FFA64D;" d="M112,496C50.24,496,0,445.76,0,384s50.24-112,112-112s112,50.24,112,112S173.76,496,112,496z"/>
</g>
<g>
	<path style="fill:#333333;" d="M479.216,129.232L463.064,0H288.936l-16.152,129.232C263.088,132.312,256,141.296,256,152v64h-8
		c-13.232,0-24,10.768-24,24v16c0,13.232,10.768,24,24,24h8v64c0,10.704,7.088,19.688,16.784,22.768L288.936,496h174.128
		l16.152-129.232C488.912,363.688,496,354.704,496,344V152C496,141.296,488.912,132.312,479.216,129.232z M448.936,16l14,112
		H289.064l14-112H448.936z M248,264c-4.416,0-8-3.584-8-8v-16c0-4.416,3.584-8,8-8h8v32H248z M480,344c0,4.416-3.584,8-8,8h-24v16
		h14.936l-14,112H303.064l-14-112H432v-16H280c-4.416,0-8-3.584-8-8V152c0-4.416,3.584-8,8-8h192c4.416,0,8,3.584,8,8V344z"/>
	<rect x="344" y="32" style="fill:#333333;" width="64" height="16"/>
	<rect x="344" y="64" style="fill:#333333;" width="64" height="16"/>
	<rect x="344" y="416" style="fill:#333333;" width="64" height="16"/>
	<rect x="344" y="448" style="fill:#333333;" width="64" height="16"/>
	<rect x="344" y="96" style="fill:#333333;" width="64" height="16"/>
	<rect x="344" y="384" style="fill:#333333;" width="64" height="16"/>
	<rect x="136" y="240" style="fill:#333333;" width="16" height="16"/>
	<rect x="104" y="240" style="fill:#333333;" width="16" height="16"/>
	<rect x="72" y="240" style="fill:#333333;" width="16" height="16"/>
	<path style="fill:#333333;" d="M99.312,160H112V64H99.312c-9.432,0-18.296,3.672-24.968,10.344C70.696,77.992,65.848,80,60.688,80
		H32v64h28.688c5.16,0,10.008,2.008,13.656,5.656C81.016,156.328,89.88,160,99.312,160z M48,128V96h12.688
		c9.432,0,18.296-3.672,24.968-10.344c2.856-2.848,6.448-4.704,10.344-5.376v63.44c-3.896-0.672-7.496-2.52-10.344-5.376
		C78.984,131.672,70.12,128,60.688,128H48z"/>
	<path style="fill:#333333;" d="M160,112c0-17.648-14.352-32-32-32v16c8.816,0,16,7.176,16,16c0,8.816-7.184,16-16,16v16
		C145.648,144,160,129.648,160,112z"/>
	<path style="fill:#333333;" d="M128,48v16c26.472,0,48,21.528,48,48s-21.528,48-48,48v16c35.288,0,64-28.712,64-64
		S163.288,48,128,48z"/>
	<path style="fill:#333333;" d="M104,409.472c-2.512-0.896-5.184-1.472-8-1.472c-13.232,0-24,10.768-24,24s10.768,24,24,24
		s24-10.768,24-24V329.448l38.688,6.448l2.624-15.784L104,310.552V409.472z M96,440c-4.416,0-8-3.584-8-8s3.584-8,8-8s8,3.584,8,8
		S100.416,440,96,440z"/>
	<rect x="416" y="264" style="fill:#333333;" width="16" height="16"/>
	<rect x="320" y="264" style="fill:#333333;" width="80" height="16"/>
	<rect x="320" y="224" style="fill:#333333;" width="112" height="16"/>
</g>
<g>
</g>
<g>
</g>
<g>
</g>
<g>
</g>
<g>
</g>
<g>
</g>
<g>
</g>
<g>
</g>
<g>
</g>
<g>
</g>
<g>
</g>
<g>
</g>
<g>
</g>
<g>
</g>
<g>
</g>
</svg>
