<?xml version="1.0" encoding="iso-8859-1"?>
<!-- Generator: Adobe Illustrator 19.0.0, SVG Export Plug-In . SVG Version: 6.00 Build 0)  -->
<svg version="1.1" id="Capa_1" xmlns="http://www.w3.org/2000/svg" xmlns:xlink="http://www.w3.org/1999/xlink" x="0px" y="0px"
	 viewBox="0 0 496 496" style="enable-background:new 0 0 496 496;" xml:space="preserve">
<path style="fill:#333333;" d="M400,256c4.416,0,8,3.584,8,8v80h16v-80c0-13.232-10.768-24-24-24h-40V112c0-22.056-17.944-40-40-40
	H176c-22.056,0-40,17.944-40,40v128H96c-4.416,0-8-3.584-8-8v-80H72v80c0,13.232,10.768,24,24,24h40v128c0,22.056,17.944,40,40,40
	h144c22.056,0,40-17.944,40-40V256H400z M176,88h144c13.232,0,24,10.768,24,24v8H152v-8C152,98.768,162.768,88,176,88z M344,136v208
	H152V136H344z M320,408H176c-13.232,0-24-10.768-24-24v-24h192v24C344,397.232,333.232,408,320,408z"/>
<g>
	<rect x="176" y="176" style="fill:#FFA64D;" width="144" height="48"/>
	<circle style="fill:#FFA64D;" cx="416" cy="416" r="80"/>
	<circle style="fill:#FFA64D;" cx="80" cy="80" r="80"/>
</g>
<g>
	<rect x="200" y="376" style="fill:#333333;" width="96" height="16"/>
	<path style="fill:#333333;" d="M416,176c13.232,0,24-10.768,24-24s-10.768-24-24-24s-24,10.768-24,24S402.768,176,416,176z
		 M416,144c4.416,0,8,3.584,8,8s-3.584,8-8,8s-8-3.584-8-8S411.584,144,416,144z"/>
	<path style="fill:#333333;" d="M416,112c13.232,0,24-10.768,24-24s-10.768-24-24-24s-24,10.768-24,24S402.768,112,416,112z M416,80
		c4.416,0,8,3.584,8,8s-3.584,8-8,8s-8-3.584-8-8S411.584,80,416,80z"/>
	<path style="fill:#333333;" d="M416,48c13.232,0,24-10.768,24-24S429.232,0,416,0s-24,10.768-24,24S402.768,48,416,48z M416,16
		c4.416,0,8,3.584,8,8s-3.584,8-8,8s-8-3.584-8-8S411.584,16,416,16z"/>
	<path style="fill:#333333;" d="M80,448c-13.232,0-24,10.768-24,24s10.768,24,24,24s24-10.768,24-24S93.232,448,80,448z M80,480
		c-4.416,0-8-3.584-8-8s3.584-8,8-8s8,3.584,8,8S84.416,480,80,480z"/>
	<path style="fill:#333333;" d="M80,384c-13.232,0-24,10.768-24,24s10.768,24,24,24s24-10.768,24-24S93.232,384,80,384z M80,416
		c-4.416,0-8-3.584-8-8s3.584-8,8-8s8,3.584,8,8S84.416,416,80,416z"/>
	<path style="fill:#333333;" d="M80,320c-13.232,0-24,10.768-24,24s10.768,24,24,24s24-10.768,24-24S93.232,320,80,320z M80,352
		c-4.416,0-8-3.584-8-8s3.584-8,8-8s8,3.584,8,8S84.416,352,80,352z"/>
	<path style="fill:#333333;" d="M56,88c0,13.232,10.768,24,24,24s24-10.768,24-24S93.232,64,80,64S56,74.768,56,88z M88,88
		c0,4.416-3.584,8-8,8s-8-3.584-8-8s3.584-8,8-8S88,83.584,88,88z"/>
	<path style="fill:#333333;" d="M120,88h16c0-30.872-25.128-56-56-56S24,57.128,24,88h16c0-22.056,17.944-40,40-40
		S120,65.944,120,88z"/>
	<path style="fill:#333333;" d="M168,312h160V168h-32v-16h-16v16h-64v-16h-16v16h-32V312z M184,296v-64h128v64H184z M200,184v16h16
		v-16h64v16h16v-16h16v32H184v-32H200z"/>
	<path style="fill:#333333;" d="M384,371.056v89.888L473.888,416L384,371.056z M400,396.944L438.112,416L400,435.056V396.944z"/>
</g>
<g>
</g>
<g>
</g>
<g>
</g>
<g>
</g>
<g>
</g>
<g>
</g>
<g>
</g>
<g>
</g>
<g>
</g>
<g>
</g>
<g>
</g>
<g>
</g>
<g>
</g>
<g>
</g>
<g>
</g>
</svg>
