<?xml version="1.0" encoding="iso-8859-1"?>
<!-- Generator: Adobe Illustrator 19.0.0, SVG Export Plug-In . SVG Version: 6.00 Build 0)  -->
<svg version="1.1" id="Capa_1" xmlns="http://www.w3.org/2000/svg" xmlns:xlink="http://www.w3.org/1999/xlink" x="0px" y="0px"
	 viewBox="0 0 512 512" style="enable-background:new 0 0 512 512;" xml:space="preserve">
<g>
	<path style="fill:#35495E;" d="M141.241,0h229.517c19.501,0,35.31,15.809,35.31,35.31V476.69c0,19.501-15.809,35.31-35.31,35.31
		H141.241c-19.501,0-35.31-15.809-35.31-35.31V35.31C105.931,15.809,121.74,0,141.241,0z"/>
	<path style="fill:#ECF0F1;" d="M379.586,35.31V476.69c-0.014,4.869-3.958,8.813-8.828,8.828H141.241
		c-4.869-0.014-8.813-3.958-8.828-8.828V35.31c0.014-4.869,3.958-8.813,8.828-8.828h28.954c3.81,0.028,7.181,2.476,8.386,6.091
		l2.737,8.298c2.42,7.21,9.166,12.075,16.771,12.094h115.819c7.605-0.019,14.352-4.884,16.772-12.094l2.737-8.298
		c1.205-3.615,4.576-6.063,8.386-6.091h28.954C375.628,26.497,379.572,30.441,379.586,35.31z"/>
	<path style="fill:#A5A5A4;" d="M300.138,35.31c-2.348,0.023-4.607-0.9-6.267-2.56c-1.66-1.66-2.583-3.919-2.56-6.267
		c0.033-2.337,0.947-4.576,2.56-6.268c3.539-3.267,8.995-3.267,12.534,0c3.414,3.481,3.414,9.054,0,12.534
		C304.712,34.36,302.474,35.275,300.138,35.31z"/>
	<g>
		<path style="fill:#2C3E50;" d="M167.724,57.379h-17.655c-2.438,0-4.414-1.976-4.414-4.414c0-2.438,1.976-4.414,4.414-4.414h17.655
			c2.438,0,4.414,1.976,4.414,4.414C172.138,55.403,170.162,57.379,167.724,57.379z"/>
		<path style="fill:#2C3E50;" d="M361.931,57.379h-17.655c-2.438,0-4.414-1.976-4.414-4.414c0-2.438,1.976-4.414,4.414-4.414h17.655
			c2.438,0,4.414,1.976,4.414,4.414C366.345,55.403,364.369,57.379,361.931,57.379z"/>
	</g>
	<g>
		<path style="fill:#90BAE1;" d="M167.724,101.517c-1.171,0.001-2.294-0.464-3.121-1.293l-8.828-8.828
			c-0.828-0.827-1.293-1.95-1.293-3.121s0.465-2.293,1.293-3.121l8.828-8.828c1.728-1.694,4.499-1.68,6.21,0.031
			c1.711,1.711,1.725,4.481,0.031,6.21l-5.707,5.707l5.707,5.707c1.262,1.262,1.64,3.16,0.957,4.81
			C171.118,100.441,169.509,101.517,167.724,101.517z"/>
		<path style="fill:#90BAE1;" d="M211.862,92.69h-26.483c-2.438,0-4.414-1.976-4.414-4.414s1.976-4.414,4.414-4.414h26.483
			c2.438,0,4.414,1.976,4.414,4.414S214.3,92.69,211.862,92.69z"/>
		<path style="fill:#90BAE1;" d="M273.655,92.69h-35.31c-2.438,0-4.414-1.976-4.414-4.414s1.976-4.414,4.414-4.414h35.31
			c2.438,0,4.414,1.976,4.414,4.414S276.093,92.69,273.655,92.69z"/>
	</g>
	<rect x="132.414" y="123.586" style="fill:#E6E7E8;" width="247.172" height="88.276"/>
	<path style="fill:#7F8C8D;" d="M326.621,172.138h-52.966c-2.438,0-4.414-1.976-4.414-4.414s1.976-4.414,4.414-4.414h52.966
		c2.438,0,4.414,1.976,4.414,4.414S329.058,172.138,326.621,172.138z"/>
	<path style="fill:#90BAE1;" d="M238.345,172.138h-52.966c-2.438,0-4.414-1.976-4.414-4.414s1.976-4.414,4.414-4.414h52.966
		c2.438,0,4.414,1.976,4.414,4.414S240.783,172.138,238.345,172.138z"/>
	<circle style="fill:#D1D4D1;" cx="256" cy="167.724" r="17.655"/>
	<g>
		<path style="fill:#7F8C8D;" d="M158.897,176.552c-0.593-0.016-1.183-0.075-1.767-0.177c-0.552-0.098-1.086-0.277-1.586-0.53
			c-0.565-0.194-1.101-0.462-1.595-0.797c-0.461-0.324-0.902-0.677-1.319-1.056c-0.798-0.844-1.427-1.833-1.854-2.914
			c-0.452-1.061-0.692-2.2-0.706-3.354c0.031-2.338,0.945-4.577,2.56-6.268c2.556-2.47,6.329-3.198,9.621-1.858
			c1.07,0.45,2.055,1.078,2.915,1.858c2.546,2.525,3.312,6.341,1.937,9.653C165.725,174.422,162.483,176.573,158.897,176.552z"/>
		<path style="fill:#7F8C8D;" d="M353.103,176.552c-2.34-0.017-4.585-0.933-6.268-2.56c-2.86-2.828-3.457-7.227-1.455-10.715
			c2.003-3.488,6.103-5.191,9.987-4.147c3.884,1.044,6.579,4.572,6.563,8.595c-0.018,0.591-0.078,1.18-0.181,1.763
			c-0.093,0.554-0.27,1.09-0.526,1.591c-0.176,0.542-0.445,1.049-0.793,1.5c-0.353,0.53-0.707,0.97-1.06,1.414
			C357.686,175.615,355.443,176.532,353.103,176.552L353.103,176.552z"/>
		<path style="fill:#7F8C8D;" d="M256,256h-97.103c-4.875,0-8.828-3.952-8.828-8.828s3.952-8.828,8.828-8.828H256
			c4.875,0,8.828,3.952,8.828,8.828S260.875,256,256,256z"/>
	</g>
	<path style="fill:#46B29D;" d="M313.379,238.345h35.31c7.313,0,13.241,5.928,13.241,13.241l0,0c0,7.313-5.928,13.241-13.241,13.241
		h-35.31c-7.313,0-13.241-5.928-13.241-13.241l0,0C300.138,244.273,306.066,238.345,313.379,238.345z"/>
	<circle style="fill:#D1D4D1;" cx="348.69" cy="251.586" r="13.241"/>
	<rect x="132.414" y="291.31" style="fill:#E6E7E8;" width="247.172" height="79.448"/>
	<path style="fill:#7F8C8D;" d="M256,335.448h-97.103c-4.875,0-8.828-3.952-8.828-8.828s3.952-8.828,8.828-8.828H256
		c4.875,0,8.828,3.952,8.828,8.828S260.875,335.448,256,335.448z"/>
	<path style="fill:#46B29D;" d="M313.379,317.793h35.31c7.313,0,13.241,5.928,13.241,13.241l0,0c0,7.313-5.928,13.241-13.241,13.241
		h-35.31c-7.313,0-13.241-5.928-13.241-13.241l0,0C300.138,323.721,306.066,317.793,313.379,317.793z"/>
	<circle style="fill:#D1D4D1;" cx="348.69" cy="331.034" r="13.241"/>
	<path style="fill:#7F8C8D;" d="M256,414.897h-97.103c-4.875,0-8.828-3.952-8.828-8.828s3.952-8.828,8.828-8.828H256
		c4.875,0,8.828,3.952,8.828,8.828S260.875,414.897,256,414.897z"/>
	<path style="fill:#46B29D;" d="M313.379,397.241h35.31c7.313,0,13.241,5.928,13.241,13.241l0,0c0,7.313-5.928,13.241-13.241,13.241
		h-35.31c-7.313,0-13.241-5.928-13.241-13.241l0,0C300.138,403.17,306.066,397.241,313.379,397.241z"/>
	<circle style="fill:#D1D4D1;" cx="348.69" cy="410.483" r="13.241"/>
</g>
<g>
</g>
<g>
</g>
<g>
</g>
<g>
</g>
<g>
</g>
<g>
</g>
<g>
</g>
<g>
</g>
<g>
</g>
<g>
</g>
<g>
</g>
<g>
</g>
<g>
</g>
<g>
</g>
<g>
</g>
</svg>
