<?xml version="1.0" encoding="iso-8859-1"?>
<!-- Generator: Adobe Illustrator 19.0.0, SVG Export Plug-In . SVG Version: 6.00 Build 0)  -->
<svg version="1.1" id="Capa_1" xmlns="http://www.w3.org/2000/svg" xmlns:xlink="http://www.w3.org/1999/xlink" x="0px" y="0px"
	 viewBox="0 0 512 512" style="enable-background:new 0 0 512 512;" xml:space="preserve">
<g>
	<path style="fill:#35495E;" d="M141.241,0h229.517c19.501,0,35.31,15.809,35.31,35.31V476.69c0,19.501-15.809,35.31-35.31,35.31
		H141.241c-19.501,0-35.31-15.809-35.31-35.31V35.31C105.931,15.809,121.74,0,141.241,0z"/>
	<path style="fill:#ECF0F1;" d="M379.586,35.31V476.69c-0.015,4.869-3.958,8.813-8.828,8.828H141.241
		c-4.869-0.015-8.813-3.958-8.828-8.828V35.31c0.015-4.869,3.958-8.813,8.828-8.828h28.954c3.81,0.028,7.181,2.476,8.386,6.091
		l2.737,8.298c2.42,7.21,9.167,12.075,16.772,12.094h115.818c7.605-0.019,14.352-4.884,16.772-12.094l2.737-8.298
		c1.205-3.615,4.576-6.063,8.386-6.091h28.954C375.628,26.497,379.572,30.441,379.586,35.31z"/>
	<path style="fill:#A5A5A4;" d="M300.138,35.31c-2.348,0.023-4.607-0.9-6.267-2.56c-1.66-1.66-2.583-3.919-2.56-6.267
		c0.033-2.337,0.947-4.576,2.56-6.268c3.539-3.267,8.995-3.267,12.534,0c3.414,3.481,3.414,9.054,0,12.534
		C304.712,34.36,302.474,35.275,300.138,35.31z"/>
	<g>
		<path style="fill:#2C3E50;" d="M167.724,57.379h-17.655c-2.438,0-4.414-1.976-4.414-4.414c0-2.438,1.976-4.414,4.414-4.414h17.655
			c2.438,0,4.414,1.976,4.414,4.414C172.138,55.403,170.162,57.379,167.724,57.379z"/>
		<path style="fill:#2C3E50;" d="M361.931,57.379h-17.655c-2.438,0-4.414-1.976-4.414-4.414c0-2.438,1.976-4.414,4.414-4.414h17.655
			c2.438,0,4.414,1.976,4.414,4.414C366.345,55.403,364.369,57.379,361.931,57.379z"/>
	</g>
	<path style="fill:#BDC3C7;" d="M277.274,96.309c-10.063,28.248-17.214,64.618-3.708,94.632
		c5.648,12.538,12.015,24.741,19.068,36.546c3.796,6.444,7.68,12.888,11.564,19.421c22.362,34.786,40.47,72.128,53.937,111.228
		c4.855,14.124,9.181,28.866,12.977,44.05c3.09,12.535,5.914,24.364,8.474,35.399v24.717c-2.096-0.003-3.903-1.478-4.326-3.531
		c-3.354-15.89-7.68-34.251-12.712-54.466c-3.443-13.506-7.327-26.659-11.476-39.371c-12.535,3.619-65.501,21.804-121.379,81.302
		c4.843,12.481,7.875,25.59,9.004,38.93v0.353h-8.828c-1.242-13.461-4.454-26.667-9.534-39.194
		c-22.334-56.497-75.917-97.192-87.923-105.843v-9.799c0.877-0.027,1.741,0.22,2.472,0.706
		c2.648,1.766,63.647,43.167,91.189,105.931c56.143-58.615,107.961-76.712,122.174-80.772
		c-13.23-36.822-30.521-72.055-51.553-105.048c-3.354-5.473-6.532-10.858-9.622-16.243c-23.221,10.493-48.405,15.939-73.887,15.978
		c-27.918-0.105-55.479-6.28-80.772-18.097v-9.269c0.67,0.02,1.329,0.17,1.942,0.441c46.579,22.593,100.686,23.785,148.215,3.266
		c-6.257-10.712-11.972-21.731-17.126-33.015c-16.419-36.635-4.943-80.949,7.592-111.934c0.035-0.156,0.094-0.305,0.177-0.441
		c4.068-9.992,8.695-19.747,13.859-29.219h9.445c0.003,0.739-0.179,1.468-0.53,2.119c-5.224,9.364-9.882,19.033-13.948,28.954
		c6.179,17.479,34.692,87.217,97.545,103.812v8.916c-0.362,0.028-0.726-0.033-1.059-0.177
		C319.117,181.672,288.486,123.057,277.274,96.309z"/>
</g>
<g>
</g>
<g>
</g>
<g>
</g>
<g>
</g>
<g>
</g>
<g>
</g>
<g>
</g>
<g>
</g>
<g>
</g>
<g>
</g>
<g>
</g>
<g>
</g>
<g>
</g>
<g>
</g>
<g>
</g>
</svg>
