<?xml version="1.0" encoding="iso-8859-1"?>
<!-- Generator: Adobe Illustrator 19.0.0, SVG Export Plug-In . SVG Version: 6.00 Build 0)  -->
<svg version="1.1" id="Capa_1" xmlns="http://www.w3.org/2000/svg" xmlns:xlink="http://www.w3.org/1999/xlink" x="0px" y="0px"
	 viewBox="0 0 512 512" style="enable-background:new 0 0 512 512;" xml:space="preserve">
<g>
	<path style="fill:#35495E;" d="M141.241,0h229.517c19.501,0,35.31,15.809,35.31,35.31V476.69c0,19.501-15.809,35.31-35.31,35.31
		H141.241c-19.501,0-35.31-15.809-35.31-35.31V35.31C105.931,15.809,121.74,0,141.241,0z"/>
	<path style="fill:#ECF0F1;" d="M379.586,35.31V476.69c-0.015,4.869-3.958,8.813-8.828,8.828H141.241
		c-4.869-0.015-8.813-3.958-8.828-8.828V35.31c0.015-4.869,3.958-8.813,8.828-8.828h28.954c3.81,0.028,7.181,2.476,8.386,6.091
		l2.737,8.298c2.42,7.21,9.167,12.075,16.772,12.094h115.818c7.605-0.019,14.352-4.884,16.772-12.094l2.737-8.298
		c1.205-3.615,4.576-6.063,8.386-6.091h28.954C375.628,26.497,379.572,30.441,379.586,35.31z"/>
	<path style="fill:#A5A5A4;" d="M300.138,35.31c-2.348,0.023-4.607-0.9-6.267-2.56c-1.66-1.66-2.583-3.919-2.56-6.267
		c0.033-2.337,0.947-4.576,2.56-6.268c3.539-3.267,8.995-3.267,12.534,0c3.414,3.481,3.414,9.054,0,12.534
		C304.712,34.36,302.474,35.275,300.138,35.31z"/>
	<g>
		<path style="fill:#2C3E50;" d="M167.724,57.379h-17.655c-2.438,0-4.414-1.976-4.414-4.414c0-2.438,1.976-4.414,4.414-4.414h17.655
			c2.438,0,4.414,1.976,4.414,4.414C172.138,55.403,170.162,57.379,167.724,57.379z"/>
		<path style="fill:#2C3E50;" d="M361.931,57.379h-17.655c-2.438,0-4.414-1.976-4.414-4.414c0-2.438,1.976-4.414,4.414-4.414h17.655
			c2.438,0,4.414,1.976,4.414,4.414C366.345,55.403,364.369,57.379,361.931,57.379z"/>
	</g>
	<g>
		<circle style="fill:#BDC3C7;" cx="256" cy="105.931" r="26.483"/>
		<circle style="fill:#BDC3C7;" cx="335.448" cy="105.931" r="17.655"/>
	</g>
	<path style="fill:#4482C3;" d="M167.724,119.172c-1.171,0.001-2.294-0.464-3.121-1.293l-8.828-8.828
		c-0.828-0.827-1.293-1.95-1.293-3.121c0-1.171,0.465-2.293,1.293-3.121l8.828-8.828c1.728-1.694,4.499-1.68,6.21,0.031
		c1.711,1.711,1.725,4.481,0.031,6.21l-5.707,5.707l5.707,5.707c1.262,1.262,1.64,3.16,0.957,4.81
		C171.118,118.097,169.509,119.172,167.724,119.172z"/>
	<g>
		<rect x="132.414" y="326.621" style="fill:#BDC3C7;" width="247.172" height="61.793"/>
		<path style="fill:#BDC3C7;" d="M176.552,414.897h17.655c9.751,0,17.655,7.905,17.655,17.655v8.828
			c0,9.751-7.904,17.655-17.655,17.655h-17.655c-9.751,0-17.655-7.905-17.655-17.655v-8.828
			C158.897,422.801,166.801,414.897,176.552,414.897z"/>
		<path style="fill:#BDC3C7;" d="M247.172,414.897h17.655c9.751,0,17.655,7.905,17.655,17.655v8.828
			c0,9.751-7.904,17.655-17.655,17.655h-17.655c-9.751,0-17.655-7.905-17.655-17.655v-8.828
			C229.517,422.801,237.422,414.897,247.172,414.897z"/>
		<path style="fill:#BDC3C7;" d="M317.793,414.897h17.655c9.751,0,17.655,7.905,17.655,17.655v8.828
			c0,9.751-7.904,17.655-17.655,17.655h-17.655c-9.751,0-17.655-7.905-17.655-17.655v-8.828
			C300.138,422.801,308.042,414.897,317.793,414.897z"/>
	</g>
	<path style="fill:#7F5B53;" d="M326.849,232.076c12.379-10.972,16.311-28.653,9.75-43.837c-7.15-12.69-27.95-11.536-27.95-11.536
		H203.351c0,0-20.8-1.154-27.95,11.536c-6.561,15.184-2.629,32.865,9.75,43.837H326.849z"/>
	<path style="fill:#ECF0F1;" d="M203.034,344.276h150.069c4.875,0,8.828,3.952,8.828,8.828v8.828c0,4.875-3.952,8.828-8.828,8.828
		H203.034c-4.875,0-8.828-3.952-8.828-8.828v-8.828C194.207,348.228,198.159,344.276,203.034,344.276z"/>
	<circle style="fill:#7F8C8D;" cx="163.31" cy="357.517" r="13.241"/>
	<path style="fill:#CB9080;" d="M327.503,245.495c0.406,10.425-2.703,20.685-8.828,29.131c-6.653,8.056-15.295,14.233-25.07,17.92
		c-4.197,1.292-8.516,2.15-12.888,2.56c-1.101,0.09-2.193,0.267-3.266,0.53c-6.961,2.292-14.156,3.802-21.451,4.502
		c-7.295-0.7-14.49-2.21-21.451-4.502c-1.073-0.262-2.165-0.439-3.266-0.53c-4.372-0.41-8.691-1.268-12.888-2.56
		c-9.775-3.687-18.418-9.864-25.07-17.92c-6.124-8.446-9.233-18.706-8.828-29.131c-0.1-3.689,0.107-7.38,0.618-11.034
		c0.877-4.208,2.458-8.237,4.679-11.917c1.26-2.468,2.124-5.12,2.56-7.857c0.971-5.12,0.883-10.328,1.589-15.448
		c0.615-4.923,2.079-9.701,4.326-14.124c3.214-5.73,7.128-11.038,11.652-15.801c11.761-12.9,28.64-19.916,46.08-19.156
		c17.44-0.761,34.319,6.256,46.08,19.156c4.524,4.764,8.438,10.072,11.652,15.801c2.247,4.423,3.711,9.201,4.326,14.124
		c0.706,5.12,0.617,10.328,1.589,15.448c0.436,2.737,1.3,5.388,2.56,7.857c2.22,3.68,3.802,7.709,4.679,11.917
		C327.397,238.115,327.604,241.806,327.503,245.495L327.503,245.495z"/>
	<path style="fill:#FDD7AD;" d="M276.48,255.117c3.056,3.023,5.618,6.509,7.592,10.328c1.869,3.395,2.955,7.165,3.178,11.034
		c0.414,6.375-1.64,12.665-5.738,17.567l-0.794,1.059c-1.101,0.09-2.193,0.267-3.266,0.53c-6.961,2.292-14.156,3.802-21.451,4.502
		c-7.295-0.7-14.49-2.21-21.451-4.502c-1.073-0.262-2.165-0.439-3.266-0.53l-0.794-1.059c-4.098-4.901-6.152-11.192-5.738-17.567
		c0.223-3.869,1.309-7.639,3.178-11.034c1.973-3.82,4.535-7.305,7.592-10.328c-8.554,0.104-16.481-4.474-20.666-11.935
		s-3.961-16.612,0.586-23.858c4.547-7.246,12.689-11.429,21.228-10.905c7.43-0.048,14.503,3.182,19.332,8.828
		c4.83-5.646,11.903-8.875,19.332-8.828c8.538-0.524,16.681,3.659,21.228,10.905c4.547,7.246,4.772,16.397,0.586,23.858
		S285.034,255.221,276.48,255.117L276.48,255.117z"/>
	<path style="fill:#7F5B53;" d="M287.25,276.48c-19.923,8.71-42.577,8.71-62.499,0c0.223-3.869,1.309-7.639,3.178-11.034
		c17.927,7.68,38.217,7.68,56.143,0C285.941,268.841,287.027,272.611,287.25,276.48z"/>
	<g>
		<path style="fill:#59474E;" d="M238.345,242.759c-1.171,0.001-2.294-0.464-3.122-1.292s-1.293-1.951-1.292-3.122v-8.828
			c0-2.438,1.976-4.414,4.414-4.414s4.414,1.976,4.414,4.414v8.828c0.001,1.171-0.464,2.294-1.292,3.122
			S239.516,242.759,238.345,242.759L238.345,242.759z"/>
		<path style="fill:#59474E;" d="M273.655,242.759c-1.171,0.001-2.294-0.464-3.122-1.292c-0.828-0.828-1.293-1.951-1.292-3.122
			v-8.828c0-2.438,1.976-4.414,4.414-4.414c2.438,0,4.414,1.976,4.414,4.414v8.828c0.001,1.171-0.464,2.294-1.292,3.122
			S274.826,242.759,273.655,242.759L273.655,242.759z"/>
	</g>
</g>
<g>
</g>
<g>
</g>
<g>
</g>
<g>
</g>
<g>
</g>
<g>
</g>
<g>
</g>
<g>
</g>
<g>
</g>
<g>
</g>
<g>
</g>
<g>
</g>
<g>
</g>
<g>
</g>
<g>
</g>
</svg>
