<?xml version="1.0" encoding="iso-8859-1"?>
<!-- Generator: Adobe Illustrator 19.0.0, SVG Export Plug-In . SVG Version: 6.00 Build 0)  -->
<svg version="1.1" id="Capa_1" xmlns="http://www.w3.org/2000/svg" xmlns:xlink="http://www.w3.org/1999/xlink" x="0px" y="0px"
	 viewBox="0 0 512 512" style="enable-background:new 0 0 512 512;" xml:space="preserve">
<g>
	<path style="fill:#35495E;" d="M141.241,0h229.517c19.501,0,35.31,15.809,35.31,35.31V476.69c0,19.501-15.809,35.31-35.31,35.31
		H141.241c-19.501,0-35.31-15.809-35.31-35.31V35.31C105.931,15.809,121.74,0,141.241,0z"/>
	<path style="fill:#BDC3C7;" d="M379.586,35.31v61.793H132.414V35.31c0.015-4.869,3.958-8.813,8.828-8.828h28.954
		c3.81,0.028,7.181,2.476,8.386,6.091l2.737,8.298c2.42,7.21,9.167,12.075,16.772,12.094h115.818
		c7.605-0.019,14.352-4.884,16.772-12.094l2.737-8.298c1.205-3.615,4.576-6.063,8.386-6.091h28.954
		C375.628,26.497,379.572,30.441,379.586,35.31z"/>
	<path style="fill:#ECF0F1;" d="M379.586,97.103V476.69c-0.015,4.869-3.958,8.813-8.828,8.828H141.241
		c-4.869-0.015-8.813-3.958-8.828-8.828V97.103H379.586z"/>
	<path style="fill:#A5A5A4;" d="M300.138,35.31c-2.348,0.023-4.607-0.9-6.267-2.56c-1.66-1.66-2.583-3.919-2.56-6.267
		c0.033-2.337,0.947-4.576,2.56-6.268c3.539-3.267,8.995-3.267,12.534,0c3.414,3.481,3.414,9.054,0,12.534
		C304.712,34.36,302.474,35.275,300.138,35.31z"/>
	<g>
		<path style="fill:#2C3E50;" d="M176.552,79.448h-17.655c-4.875,0-8.828-3.952-8.828-8.828s3.952-8.828,8.828-8.828h17.655
			c4.875,0,8.828,3.952,8.828,8.828S181.427,79.448,176.552,79.448z"/>
		<path style="fill:#2C3E50;" d="M353.103,79.448h-17.655c-4.875,0-8.828-3.952-8.828-8.828s3.952-8.828,8.828-8.828h17.655
			c4.875,0,8.828,3.952,8.828,8.828S357.979,79.448,353.103,79.448z"/>
	</g>
	<path style="fill:#A5A5A4;" d="M163.31,114.759H348.69c7.313,0,13.241,5.928,13.241,13.241l0,0c0,7.313-5.928,13.241-13.241,13.241
		H163.31c-7.313,0-13.241-5.928-13.241-13.241l0,0C150.069,120.687,155.997,114.759,163.31,114.759z"/>
	<circle style="fill:#7F8C8D;" cx="163.31" cy="128" r="13.241"/>
	<path style="fill:#A5A5A4;" d="M194.207,167.724h123.586c4.875,0,8.828,3.952,8.828,8.828v123.586c0,4.875-3.952,8.828-8.828,8.828
		H194.207c-4.875,0-8.828-3.952-8.828-8.828V176.552C185.379,171.676,189.332,167.724,194.207,167.724z"/>
	<g>
		<path style="fill:#ECF0F1;" d="M317.793,344.276H194.207c-4.875,0-8.828-3.952-8.828-8.828s3.952-8.828,8.828-8.828h123.586
			c4.875,0,8.828,3.952,8.828,8.828S322.668,344.276,317.793,344.276z"/>
		<circle style="fill:#ECF0F1;" cx="225.103" cy="273.655" r="13.241"/>
		<circle style="fill:#ECF0F1;" cx="286.897" cy="256" r="13.241"/>
		<path style="fill:#ECF0F1;" d="M233.931,273.655c-1.171,0.001-2.294-0.464-3.122-1.292c-0.828-0.828-1.293-1.951-1.292-3.122
			v-58.845c-0.005-5.7,3.643-10.762,9.052-12.56l44.397-11.845c3.971-1.283,8.316-0.577,11.677,1.897
			c3.469,2.474,5.519,6.48,5.496,10.742v52.957c0,2.438-1.976,4.414-4.414,4.414c-2.438,0-4.414-1.976-4.414-4.414V198.63
			c0.001-1.419-0.681-2.753-1.832-3.582c-1.152-0.83-2.632-1.054-3.978-0.603l-44.397,11.841c-1.683,0.666-2.781,2.302-2.759,4.112
			v58.845c0.001,1.171-0.464,2.294-1.292,3.122C236.225,273.191,235.102,273.656,233.931,273.655z"/>
	</g>
	<path style="fill:#7F8C8D;" d="M353.103,454.621h-88.276c-2.438,0-4.414-1.976-4.414-4.414c0-2.438,1.976-4.414,4.414-4.414h88.276
		c2.438,0,4.414,1.976,4.414,4.414C357.517,452.645,355.541,454.621,353.103,454.621z"/>
	<g>
		<path style="fill:#2C3E50;" d="M229.517,454.621h-70.621c-2.438,0-4.414-1.976-4.414-4.414c0-2.438,1.976-4.414,4.414-4.414
			h70.621c2.438,0,4.414,1.976,4.414,4.414C233.931,452.645,231.955,454.621,229.517,454.621z"/>
		<polygon style="fill:#2C3E50;" points="242.759,361.931 242.759,397.241 269.241,379.586 		"/>
		<path style="fill:#2C3E50;" d="M185.164,395.772c-0.87-0.001-1.72-0.259-2.444-0.742l-17.655-11.772
			c-1.228-0.819-1.965-2.197-1.965-3.672s0.737-2.854,1.965-3.672l17.655-11.772c2.027-1.323,4.742-0.767,6.085,1.248
			c1.343,2.014,0.813,4.734-1.188,6.097l-12.147,8.099l12.147,8.099c1.619,1.079,2.34,3.091,1.775,4.953
			C188.827,394.501,187.11,395.773,185.164,395.772L185.164,395.772z"/>
		<path style="fill:#2C3E50;" d="M211.858,395.772c-0.87-0.001-1.72-0.259-2.444-0.742l-17.655-11.772
			c-1.228-0.819-1.965-2.197-1.965-3.672s0.737-2.854,1.965-3.672l17.655-11.772c2.027-1.323,4.742-0.767,6.085,1.248
			s0.813,4.734-1.188,6.097l-12.146,8.099l12.147,8.099c1.619,1.079,2.34,3.091,1.775,4.953
			C215.521,394.501,213.804,395.773,211.858,395.772L211.858,395.772z"/>
		<path style="fill:#2C3E50;" d="M326.625,395.772c-1.946,0.002-3.663-1.271-4.228-3.133c-0.565-1.862,0.156-3.874,1.775-4.953
			l12.146-8.099l-12.147-8.099c-2.001-1.362-2.531-4.083-1.188-6.097c1.343-2.014,4.058-2.571,6.085-1.248l17.655,11.772
			c1.228,0.819,1.965,2.197,1.965,3.672s-0.737,2.854-1.965,3.672l-17.655,11.772C328.345,395.513,327.495,395.771,326.625,395.772z
			"/>
		<path style="fill:#2C3E50;" d="M299.931,395.772c-1.946,0.002-3.663-1.271-4.228-3.133c-0.565-1.862,0.156-3.874,1.775-4.953
			l12.147-8.099l-12.147-8.099c-1.329-0.867-2.09-2.382-1.993-3.966c0.097-1.584,1.037-2.994,2.462-3.693
			c1.425-0.699,3.116-0.579,4.427,0.315l17.655,11.772c1.228,0.819,1.965,2.197,1.965,3.672s-0.737,2.854-1.965,3.672
			l-17.655,11.772C301.651,395.513,300.801,395.771,299.931,395.772z"/>
	</g>
	<circle style="fill:#A5A5A4;" cx="247.172" cy="450.207" r="17.655"/>
</g>
<g>
</g>
<g>
</g>
<g>
</g>
<g>
</g>
<g>
</g>
<g>
</g>
<g>
</g>
<g>
</g>
<g>
</g>
<g>
</g>
<g>
</g>
<g>
</g>
<g>
</g>
<g>
</g>
<g>
</g>
</svg>
