<?xml version="1.0" encoding="iso-8859-1"?>
<!-- Generator: Adobe Illustrator 19.0.0, SVG Export Plug-In . SVG Version: 6.00 Build 0)  -->
<svg version="1.1" id="Capa_1" xmlns="http://www.w3.org/2000/svg" xmlns:xlink="http://www.w3.org/1999/xlink" x="0px" y="0px"
	 viewBox="0 0 512 512" style="enable-background:new 0 0 512 512;" xml:space="preserve">
<g>
	<path style="fill:#35495E;" d="M141.241,0h229.517c19.501,0,35.31,15.809,35.31,35.31V476.69c0,19.501-15.809,35.31-35.31,35.31
		H141.241c-19.501,0-35.31-15.809-35.31-35.31V35.31C105.931,15.809,121.74,0,141.241,0z"/>
	<path style="fill:#E6E7E8;" d="M170.177,26.483c3.806,0,7.183,2.439,8.38,6.051l2.762,8.337c2.42,7.21,9.167,12.075,16.772,12.094
		h115.818c7.605-0.019,14.353-4.884,16.772-12.094l2.762-8.337c1.197-3.613,4.574-6.051,8.38-6.051h28.935
		c4.869,0.014,8.813,3.958,8.828,8.828V476.69c-0.014,4.869-3.958,8.813-8.828,8.828H141.241c-4.869-0.014-8.813-3.958-8.828-8.828
		V35.31c0.014-4.869,3.958-8.813,8.828-8.828H170.177z"/>
	<path style="fill:#A5A5A4;" d="M300.138,35.31c-2.348,0.023-4.607-0.9-6.267-2.56c-1.66-1.66-2.583-3.919-2.56-6.267
		c0.033-2.337,0.947-4.576,2.56-6.268c3.539-3.267,8.995-3.267,12.534,0c3.414,3.481,3.414,9.054,0,12.534
		C304.712,34.36,302.474,35.275,300.138,35.31z"/>
	<g>
		<path style="fill:#2C3E50;" d="M185.379,97.103h-26.483c-4.875,0-8.828-3.952-8.828-8.828c0-4.875,3.952-8.828,8.828-8.828h26.483
			c4.875,0,8.828,3.952,8.828,8.828C194.207,93.151,190.255,97.103,185.379,97.103z"/>
		<path style="fill:#2C3E50;" d="M353.103,97.103h-44.138c-4.875,0-8.828-3.952-8.828-8.828c0-4.875,3.952-8.828,8.828-8.828h44.138
			c4.875,0,8.828,3.952,8.828,8.828C361.931,93.151,357.979,97.103,353.103,97.103z"/>
	</g>
	<path style="fill:#BDC3C7;" d="M185.379,406.069h141.241c14.626,0,26.483,11.857,26.483,26.483l0,0
		c0,14.626-11.857,26.483-26.483,26.483H185.379c-14.626,0-26.483-11.857-26.483-26.483l0,0
		C158.897,417.926,170.753,406.069,185.379,406.069z"/>
	<circle style="fill:#ECF0F1;" cx="185.379" cy="432.552" r="26.483"/>
	<path style="fill:#BDC3C7;" d="M300.05,189.97c-27.77-18.481-64.131-17.631-91.006,2.128s-38.532,54.212-29.175,86.23
		c9.357,32.018,37.733,54.771,71.019,56.947c33.286,2.176,64.383-16.688,77.829-47.215
		C344.169,252.734,332.093,211.414,300.05,189.97z"/>
	<g>
		<path style="fill:#D75E72;" d="M304.552,256c0.056,28.121-9.895,55.344-28.072,76.8c-2.383,0.617-4.855,1.147-7.327,1.589
			c-1.429,0.268-2.874,0.445-4.326,0.53c-0.187-1.276,0.201-2.569,1.059-3.531c19.185-20.411,29.857-47.375,29.837-75.388
			c-0.009-15.783-9.367-30.062-23.835-36.37c-0.265-0.088-0.441-0.265-0.706-0.353c-6.024-2.504-12.583-3.445-19.068-2.737
			c-5.415,0.487-10.673,2.079-15.448,4.679c-0.184,0.176-0.392,0.324-0.618,0.441c-12.224,7.12-19.752,20.193-19.774,34.339
			c0,2.438-1.976,4.414-4.414,4.414c-2.438,0-4.414-1.976-4.414-4.414c0.025-17.01,8.927-32.773,23.481-41.578
			c0.265-0.177,0.441-0.353,0.706-0.53c5.987-3.358,12.595-5.46,19.421-6.179h0.441c8.13-0.767,16.322,0.508,23.835,3.708h0.088
			c0.283,0.112,0.55,0.261,0.794,0.441c15.748,7.253,26.42,22.368,27.983,39.636c0.088,0.177,0.177,0.265,0.177,0.441
			C304.463,253.352,304.552,254.676,304.552,256z"/>
		<path style="fill:#D75E72;" d="M269.241,256c0.094,30.596-16.576,58.786-43.432,73.446h-0.088
			c-1.677-0.706-3.354-1.501-5.032-2.295c-1.331-0.638-2.627-1.345-3.884-2.119c0.438-0.806,1.117-1.454,1.942-1.854
			c25.599-12.575,41.776-38.657,41.666-67.178c0-2.438-1.976-4.414-4.414-4.414c-2.438,0-4.414,1.976-4.414,4.414
			c0,2.03-0.088,3.972-0.265,5.914c0,0.088-0.088,0.265-0.088,0.353v0.53c-0.063,0.889-0.18,1.774-0.353,2.648
			c-0.066,0.93-0.243,1.849-0.53,2.737c-0.065,0.959-0.243,1.907-0.53,2.825c-0.192,1.142-0.488,2.265-0.883,3.354
			c0.012,0.097-0.02,0.194-0.088,0.265c-0.23,1.028-0.555,2.033-0.971,3.001c-1.042,3.274-2.402,6.438-4.061,9.446
			c-0.155,0.408-0.363,0.794-0.618,1.148c-0.303,0.664-0.689,1.286-1.148,1.854v0.088c-0.301,0.591-0.655,1.152-1.059,1.677
			c-0.441,0.706-1.059,1.589-1.677,2.472c-0.465,0.837-1.173,1.514-2.03,1.942c-0.624,0.339-1.321,0.521-2.03,0.53
			c-1.55-0.022-2.978-0.847-3.77-2.179c-0.792-1.333-0.836-2.981-0.114-4.353c0.177-0.265,0.353-0.618,0.53-0.883
			c0.695-0.794,1.316-1.651,1.854-2.56c0.21-0.398,0.446-0.781,0.706-1.148l0.53-0.794c0.088-0.265,0.353-0.706,0.441-0.971
			c0.088-0.177,0.53-0.883,0.618-1.059c1.45-2.653,2.661-5.43,3.619-8.298c0.305-0.802,0.541-1.629,0.706-2.472
			c0.088-0.177,0.177-0.441,0.265-0.618c0.247-0.783,0.453-1.579,0.618-2.383c0.232-0.807,0.379-1.635,0.441-2.472l0.353-1.677
			c-0.014-0.326,0.015-0.653,0.088-0.971c0.131-0.611,0.22-1.23,0.265-1.854c-0.029-0.536,0.031-1.073,0.177-1.589
			c0.088-1.589,0.177-3.09,0.177-4.502c0-7.313,5.928-13.241,13.241-13.241C263.313,242.759,269.241,248.687,269.241,256
			L269.241,256z"/>
		<path style="fill:#D75E72;" d="M224.486,309.407c-5.369,3.838-11.253,6.899-17.479,9.092c-1.324-1.059-2.648-2.119-3.884-3.266
			c-1.059-0.971-2.119-1.942-3.09-3.001c0.448-0.583,1.065-1.014,1.766-1.236c6.281-2.007,12.208-4.986,17.567-8.828
			c1.999-1.401,4.754-0.922,6.163,1.071C226.938,305.232,226.472,307.989,224.486,309.407L224.486,309.407z"/>
		<path style="fill:#D75E72;" d="M211.858,217.22c1.188,0.001,2.326-0.478,3.155-1.328c6.787-6.942,15.212-12.064,24.5-14.892
			c6.606-2.101,13.572-2.831,20.47-2.147c2.421,0.286,4.615-1.445,4.901-3.866c0.286-2.421-1.445-4.615-3.866-4.901
			c-8.095-0.825-16.274,0.011-24.035,2.457c-10.72,3.259-20.446,9.166-28.28,17.177c-1.242,1.27-1.602,3.16-0.913,4.798
			S210.081,217.22,211.858,217.22L211.858,217.22z"/>
		<path style="fill:#D75E72;" d="M322.207,256c-0.35,20.638-5.042,40.97-13.771,59.674h-0.088c-2.607,2.319-5.38,4.443-8.298,6.356
			c0,0.024-0.009,0.046-0.025,0.063c-0.017,0.017-0.039,0.026-0.063,0.025c-1.236,0.794-2.56,1.677-3.796,2.383
			c-0.39-0.735-0.602-1.551-0.618-2.383c0.009-0.954,0.318-1.88,0.883-2.648c11.128-19.3,16.974-41.192,16.949-63.47
			c-0.078-20.435-10.956-39.304-28.601-49.611c-0.38-0.187-0.713-0.459-0.971-0.794l-0.088-0.088
			c-0.803-0.84-1.236-1.966-1.202-3.127c0.033-1.161,0.53-2.26,1.379-3.053c0.688-0.677,1.597-1.084,2.56-1.147
			c0.088,0,0.177-0.088,0.353-0.088c0.272,0.017,0.541,0.076,0.794,0.177c0.268-0.014,0.536,0.015,0.794,0.088
			c0.216,0.098,0.423,0.216,0.618,0.353c0.177,0.088,0.441,0.177,0.618,0.265C309.774,210.922,322.146,232.582,322.207,256z"/>
		<path style="fill:#D75E72;" d="M286.897,256c-0.099,30.76-14.04,59.842-37.959,79.183c-2.03-0.177-4.149-0.441-6.179-0.794
			c-1.501-0.265-2.913-0.53-4.326-0.883c0.207-1.062,0.806-2.007,1.677-2.648c23.788-17.538,37.867-45.304,37.959-74.858
			c0-12.188-9.881-22.069-22.069-22.069s-22.069,9.881-22.069,22.069c0,2.438-1.976,4.414-4.414,4.414s-4.414-1.976-4.414-4.414
			c0-17.064,13.833-30.897,30.897-30.897S286.897,238.936,286.897,256z"/>
		<path style="fill:#D75E72;" d="M229.87,275.421c-6.665,15.296-20.747,26.074-37.252,28.513c-0.971-1.324-1.942-2.648-2.825-4.061
			c-0.794-1.236-1.589-2.383-2.295-3.708c0.534-0.414,1.18-0.659,1.854-0.706c14.287-1.421,26.701-10.428,32.486-23.57
			c0.631-1.435,1.979-2.424,3.537-2.596s3.089,0.502,4.017,1.766C230.318,272.323,230.501,273.986,229.87,275.421L229.87,275.421z"
			/>
		<path style="fill:#D75E72;" d="M208.331,276.568c-5.811,6.581-14.172,10.343-22.952,10.328c-0.706,0-1.589,0-2.56-0.088h-0.088
			c-0.618-1.589-1.236-3.178-1.766-4.767c-0.521-1.386-0.963-2.801-1.324-4.237c0.772-0.264,1.611-0.264,2.383,0
			c1.106,0.202,2.23,0.291,3.354,0.265c6.265-0.003,12.233-2.666,16.419-7.327c1.041-1.167,2.625-1.69,4.156-1.372
			c1.531,0.318,2.776,1.428,3.266,2.913C209.711,273.768,209.372,275.401,208.331,276.568L208.331,276.568z"/>
		<path style="fill:#D75E72;" d="M204.182,231.371c-3.679,7.688-5.58,16.106-5.561,24.629c0.005,3.513-1.389,6.884-3.873,9.368
			c-2.484,2.484-5.855,3.878-9.368,3.873c-2.95,0.011-5.815-0.986-8.121-2.825c-0.458-3.454-0.694-6.933-0.706-10.417
			c0-1.501,0-2.913,0.088-4.414c1.16,0.007,2.27,0.477,3.082,1.306c0.812,0.829,1.26,1.948,1.243,3.108
			c0,2.438,1.976,4.414,4.414,4.414s4.414-1.976,4.414-4.414c-0.042-9.842,2.162-19.563,6.444-28.425
			c1.07-2.155,3.671-3.052,5.842-2.015C204.25,226.597,205.186,229.185,204.182,231.371L204.182,231.371z"/>
	</g>
</g>
<g>
</g>
<g>
</g>
<g>
</g>
<g>
</g>
<g>
</g>
<g>
</g>
<g>
</g>
<g>
</g>
<g>
</g>
<g>
</g>
<g>
</g>
<g>
</g>
<g>
</g>
<g>
</g>
<g>
</g>
</svg>
