<?xml version="1.0" encoding="iso-8859-1"?>
<!-- Generator: Adobe Illustrator 19.0.0, SVG Export Plug-In . SVG Version: 6.00 Build 0)  -->
<svg version="1.1" id="Capa_1" xmlns="http://www.w3.org/2000/svg" xmlns:xlink="http://www.w3.org/1999/xlink" x="0px" y="0px"
	 viewBox="0 0 512 512" style="enable-background:new 0 0 512 512;" xml:space="preserve">
<g>
	<path style="fill:#35495E;" d="M141.241,0h229.517c19.501,0,35.31,15.809,35.31,35.31V476.69c0,19.501-15.809,35.31-35.31,35.31
		H141.241c-19.501,0-35.31-15.809-35.31-35.31V35.31C105.931,15.809,121.74,0,141.241,0z"/>
	<path style="fill:#E6E7E8;" d="M379.586,379.586v97.103c-0.015,4.869-3.958,8.813-8.828,8.828H141.241
		c-4.869-0.015-8.813-3.958-8.828-8.828v-97.103H379.586z"/>
	<g>
		<path style="fill:#95A5A5;" d="M379.586,35.31v344.276H132.414V35.31c0.015-4.869,3.958-8.813,8.828-8.828h28.954
			c3.81,0.028,7.181,2.476,8.386,6.091l2.737,8.298c2.42,7.21,9.167,12.075,16.772,12.094h115.818
			c7.605-0.019,14.352-4.884,16.772-12.094l2.737-8.298c1.205-3.615,4.576-6.063,8.386-6.091h28.954
			C375.628,26.497,379.572,30.441,379.586,35.31z"/>
		<path style="fill:#95A5A5;" d="M185.379,406.069h141.241c14.626,0,26.483,11.857,26.483,26.483l0,0
			c0,14.626-11.857,26.483-26.483,26.483H185.379c-14.626,0-26.483-11.857-26.483-26.483l0,0
			C158.897,417.926,170.753,406.069,185.379,406.069z"/>
	</g>
	<circle style="fill:#BDC3C7;" cx="185.379" cy="432.552" r="26.483"/>
	<path style="fill:#A5A5A4;" d="M300.138,35.31c-2.348,0.023-4.607-0.9-6.267-2.56c-1.66-1.66-2.583-3.919-2.56-6.267
		c0.033-2.337,0.947-4.576,2.56-6.268c3.539-3.267,8.995-3.267,12.534,0c3.414,3.481,3.414,9.054,0,12.534
		C304.712,34.36,302.474,35.275,300.138,35.31z"/>
	<g>
		<path style="fill:#2C3E50;" d="M185.379,97.103h-26.483c-4.875,0-8.828-3.952-8.828-8.828c0-4.875,3.952-8.828,8.828-8.828h26.483
			c4.875,0,8.828,3.952,8.828,8.828C194.207,93.151,190.255,97.103,185.379,97.103z"/>
		<path style="fill:#2C3E50;" d="M353.103,97.103h-44.138c-4.875,0-8.828-3.952-8.828-8.828c0-4.875,3.952-8.828,8.828-8.828h44.138
			c4.875,0,8.828,3.952,8.828,8.828C361.931,93.151,357.979,97.103,353.103,97.103z"/>
	</g>
	<g>
		<path style="fill:#E6E7E8;" d="M341.363,344.541c-10.382-2.789-19.985-7.923-28.072-15.007v-16.331
			c12.909-12.553,18.93-30.585,16.154-48.375c9.942-7.282,16.604-18.196,18.538-30.367c2.03-19.156,0.353-30.279-5.032-33.103
			c-2.515-1.359-5.523-1.457-8.121-0.265c0.265-8.298,0.177-18.273-0.353-30.455c-2.825-60.822-72.298-64.53-73.181-64.53h-10.77
			c-0.706,0-70.179,3.708-73.004,64.53c-0.53,12.182-0.618,22.157-0.353,30.455c-2.598-1.192-5.606-1.094-8.121,0.265
			c-5.385,2.825-7.062,13.948-5.032,33.192c1.963,12.136,8.622,23.012,18.538,30.279c-2.776,17.79,3.246,35.822,16.154,48.375
			v16.331c-8.086,7.083-17.69,12.217-28.072,15.007c-13.502,4.075-26.367,10.017-38.223,17.655v10.328
			c12.308-8.263,25.708-14.77,39.812-19.332c9.597-2.264,18.616-6.503,26.483-12.447v10.946c0,2.438,1.976,4.414,4.414,4.414
			s4.414-1.976,4.414-4.414v-28.778c3.619,4.502,6.621,8.916,9.269,12.888c7.062,10.946,13.153,20.303,28.601,20.303h21.186
			c15.448,0,21.539-9.357,28.601-20.303c2.648-3.972,5.65-8.386,9.269-12.888v28.778c0,2.438,1.976,4.414,4.414,4.414
			c2.438,0,4.414-1.976,4.414-4.414v-10.946c7.89,5.961,16.941,10.201,26.571,12.447c13.854,3.893,27.191,9.435,39.724,16.508
			v-9.975C367.542,353.06,354.697,347.958,341.363,344.541L341.363,344.541z M331.123,236.491
			c1.543-7.843,2.605-15.773,3.178-23.746c1.412-1.942,3.531-4.061,4.061-3.884c1.932,8.039,2.232,16.384,0.883,24.541
			c-1.385,7.604-4.871,14.667-10.063,20.392C329.279,247.977,329.929,242.184,331.123,236.491L331.123,236.491z M172.756,233.578
			c-1.195-8.09-1.046-16.322,0.441-24.364c0.706-0.441,3.001,1.589,4.502,3.619c0.578,7.943,1.64,15.844,3.178,23.658
			c1.189,5.664,1.839,11.427,1.942,17.214C177.709,248.028,174.231,241.073,172.756,233.578L172.756,233.578z M305.876,308.348
			h-0.088c0,0.088,0,0.088-0.088,0.088c-6.844,6.777-12.832,14.366-17.832,22.599c-6.886,10.505-10.593,16.243-21.274,16.243
			h-21.186c-10.681,0-14.389-5.738-21.274-16.243c-4.999-8.232-10.988-15.822-17.832-22.599c-0.088,0-0.088,0-0.088-0.088h-0.088
			c-16.066-15.36-15.448-27.983-14.742-44.05v-0.265c0.293-0.854,0.324-1.777,0.088-2.648c0.088-2.383,0.177-4.855,0.177-7.327
			c-0.084-6.439-0.793-12.854-2.119-19.156c-3.854-21.073-4.923-42.561-3.178-63.912c2.472-52.612,62.058-55.967,64.353-56.055
			h10.417c2.472,0.088,62.058,3.443,64.53,56.055c1.745,21.351,0.676,42.839-3.178,63.912c-1.325,6.302-2.035,12.717-2.119,19.156
			c0,2.472,0.088,4.943,0.177,7.327c-0.236,0.872-0.205,1.794,0.088,2.648v0.265C321.324,280.364,321.942,292.988,305.876,308.348z"
			/>
		<path style="fill:#E6E7E8;" d="M225.103,207.801v-13.594c0-2.438-1.976-4.414-4.414-4.414s-4.414,1.976-4.414,4.414v13.594
			c-9.308,0.71-16.758,8.01-17.655,17.302c0.898,9.292,8.347,16.592,17.655,17.302V256c0,2.438,1.976,4.414,4.414,4.414
			s4.414-1.976,4.414-4.414v-13.594c9.308-0.71,16.758-8.01,17.655-17.302C241.861,215.812,234.412,208.511,225.103,207.801
			L225.103,207.801z M220.69,233.931c-7.15,0-13.241-4.061-13.241-8.828c0-4.767,6.091-8.828,13.241-8.828
			s13.241,4.061,13.241,8.828C233.931,229.87,227.84,233.931,220.69,233.931z"/>
		<path style="fill:#E6E7E8;" d="M295.724,207.801v-13.594c0-2.438-1.976-4.414-4.414-4.414c-2.438,0-4.414,1.976-4.414,4.414
			v13.594c-9.308,0.71-16.758,8.01-17.655,17.302c0.898,9.292,8.347,16.592,17.655,17.302V256c0,2.438,1.976,4.414,4.414,4.414
			c2.438,0,4.414-1.976,4.414-4.414v-13.594c9.308-0.71,16.758-8.01,17.655-17.302C312.482,215.812,305.032,208.511,295.724,207.801
			z M291.31,233.931c-7.15,0-13.241-4.061-13.241-8.828c0-4.767,6.091-8.828,13.241-8.828c7.15,0,13.241,4.061,13.241,8.828
			C304.552,229.87,298.461,233.931,291.31,233.931z"/>
	</g>
</g>
<g>
</g>
<g>
</g>
<g>
</g>
<g>
</g>
<g>
</g>
<g>
</g>
<g>
</g>
<g>
</g>
<g>
</g>
<g>
</g>
<g>
</g>
<g>
</g>
<g>
</g>
<g>
</g>
<g>
</g>
</svg>
