<?xml version="1.0" encoding="iso-8859-1"?>
<!-- Generator: Adobe Illustrator 19.0.0, SVG Export Plug-In . SVG Version: 6.00 Build 0)  -->
<svg version="1.1" id="Capa_1" xmlns="http://www.w3.org/2000/svg" xmlns:xlink="http://www.w3.org/1999/xlink" x="0px" y="0px"
	 viewBox="0 0 512 512" style="enable-background:new 0 0 512 512;" xml:space="preserve">
<g>
	<path style="fill:#35495E;" d="M141.241,0h229.517c19.501,0,35.31,15.809,35.31,35.31V476.69c0,19.501-15.809,35.31-35.31,35.31
		H141.241c-19.501,0-35.31-15.809-35.31-35.31V35.31C105.931,15.809,121.74,0,141.241,0z"/>
	<path style="fill:#B0D3F0;" d="M379.586,35.31V476.69c-0.014,4.869-3.958,8.813-8.828,8.828H141.241
		c-4.869-0.014-8.813-3.958-8.828-8.828V35.31c0.014-4.869,3.958-8.813,8.828-8.828h28.954c3.81,0.028,7.181,2.476,8.386,6.091
		l2.737,8.298c2.42,7.21,9.166,12.075,16.771,12.094h115.819c7.605-0.019,14.352-4.884,16.772-12.094l2.737-8.298
		c1.205-3.615,4.576-6.063,8.386-6.091h28.954C375.628,26.497,379.572,30.441,379.586,35.31z"/>
	<path style="fill:#A5A5A4;" d="M300.138,35.31c-2.348,0.023-4.607-0.9-6.267-2.56c-1.66-1.66-2.583-3.919-2.56-6.267
		c0.033-2.337,0.947-4.576,2.56-6.268c3.539-3.267,8.995-3.267,12.534,0c3.414,3.481,3.414,9.054,0,12.534
		C304.712,34.36,302.474,35.275,300.138,35.31z"/>
	<g>
		<path style="fill:#35495E;" d="M338.979,344.541c-10.407-2.792-20.039-7.925-28.16-15.007v-16.331
			c12.942-12.572,18.995-30.632,16.243-48.463c9.763-7.335,16.26-18.206,18.097-30.279c2.031-19.068,0.353-30.19-4.855-33.103
			c-2.42-1.319-5.305-1.481-7.858-0.441c0.177-8.21,0.088-18.097-0.441-30.279c-2.824-60.822-72.298-64.53-73.18-64.53h-10.77
			c-0.706,0-70.179,3.708-72.915,64.53c-0.619,12.182-0.619,22.069-0.441,30.367c-2.53-1.116-5.437-0.986-7.857,0.353
			c-5.208,2.913-6.886,14.036-4.943,33.192c1.96,12.025,8.471,22.835,18.183,30.191c-2.79,17.818,3.232,35.883,16.154,48.463v16.331
			c-8.073,7.102-17.681,12.239-28.072,15.007c-12.723,3.3-24.807,8.7-35.752,15.978v9.887c0.734-0.019,1.443-0.266,2.03-0.706
			c10.802-7.371,22.727-12.946,35.31-16.508c3.306-0.651,6.533-1.657,9.623-3.001c-1.589,16.508-1.855,54.025,27.276,68.679
			c0.613,0.271,1.273,0.421,1.943,0.441c1.685-0.006,3.223-0.963,3.973-2.472c1.034-2.174,0.179-4.777-1.943-5.914
			c-28.072-14.036-23.04-57.026-21.716-65.412c2.736-1.677,5.208-3.267,7.327-4.767v10.946c0.007,2.435,1.979,4.407,4.414,4.414
			c1.174,0.012,2.304-0.45,3.134-1.28c0.83-0.83,1.292-1.96,1.28-3.134v-28.778c3.312,4.132,6.406,8.434,9.269,12.888
			c7.062,10.946,13.153,20.303,28.69,20.303h21.097c15.448,0,21.628-9.357,28.69-20.303c2.648-3.972,5.563-8.386,9.181-12.888
			v28.778c0.007,2.435,1.979,4.407,4.414,4.414c1.174,0.012,2.304-0.45,3.134-1.28c0.83-0.83,1.292-1.96,1.28-3.134v-10.946
			c2.119,1.501,4.591,3.09,7.416,4.767c1.235,8.386,6.268,51.376-21.716,65.412c-1.051,0.517-1.85,1.436-2.215,2.549
			c-0.366,1.113-0.267,2.326,0.272,3.366c0.694,1.518,2.216,2.486,3.885,2.472c0.699-0.01,1.39-0.16,2.03-0.441
			c29.131-14.654,28.866-52.171,27.189-68.679c3.12,1.345,6.376,2.351,9.71,3.001c14.572,3.917,28.709,9.3,42.196,16.066v-9.799
			C366.614,353.07,353.003,348.07,338.979,344.541z M328.739,236.491c1.505-7.876,2.537-15.835,3.091-23.834
			c1.049-1.461,2.297-2.768,3.707-3.884h0.088c1.837,8.083,2.107,16.444,0.794,24.629c-1.353,7.491-4.709,14.476-9.71,20.215
			C326.841,247.857,327.521,242.122,328.739,236.491L328.739,236.491z M170.726,233.578c-1.206-8.116-1.087-16.374,0.352-24.452
			c0.529-0.265,2.648,1.324,4.149,3.531c0.619,7.997,1.68,15.954,3.178,23.834c1.189,5.634,1.839,11.368,1.942,17.126
			C175.401,247.921,172.077,241,170.726,233.578L170.726,233.578z M303.404,308.348h-0.088v0.088
			c-6.889,6.759-12.908,14.351-17.919,22.599c-6.797,10.505-10.594,16.243-21.276,16.243h-21.097
			c-10.681,0-14.477-5.738-21.274-16.243c-5.011-8.248-11.031-15.839-17.919-22.599v-0.088h-0.088
			c-16.155-15.36-15.537-27.983-14.831-44.05v-0.265c0.337-0.846,0.368-1.782,0.087-2.648c0.088-2.383,0.265-4.855,0.265-7.327
			c-0.111-6.442-0.85-12.858-2.207-19.156c-3.806-21.079-4.844-42.564-3.088-63.912c2.383-52.612,61.969-55.967,64.264-56.055
			h10.417c2.56,0.088,62.058,3.443,64.529,56.055c1.745,21.351,0.676,42.839-3.178,63.912c-1.325,6.302-2.035,12.717-2.119,19.156
			c0,2.472,0.088,4.943,0.177,7.327c-0.236,0.872-0.205,1.794,0.088,2.648v0.265C318.941,280.364,319.47,292.988,303.404,308.348z"
			/>
		<path style="fill:#35495E;" d="M185.379,97.103h-26.483c-4.875,0-8.828-3.952-8.828-8.828c0-4.875,3.952-8.828,8.828-8.828h26.483
			c4.875,0,8.828,3.952,8.828,8.828C194.207,93.151,190.255,97.103,185.379,97.103z"/>
		<path style="fill:#35495E;" d="M353.103,97.103h-44.138c-4.875,0-8.828-3.952-8.828-8.828c0-4.875,3.952-8.828,8.828-8.828h44.138
			c4.875,0,8.828,3.952,8.828,8.828C361.931,93.151,357.979,97.103,353.103,97.103z"/>
	</g>
	<circle style="fill:#285680;" cx="256" cy="432.552" r="26.483"/>
	<g>
		<circle style="fill:#4482C3;" cx="185.379" cy="441.379" r="17.655"/>
		<circle style="fill:#4482C3;" cx="326.621" cy="441.379" r="17.655"/>
	</g>
</g>
<g>
</g>
<g>
</g>
<g>
</g>
<g>
</g>
<g>
</g>
<g>
</g>
<g>
</g>
<g>
</g>
<g>
</g>
<g>
</g>
<g>
</g>
<g>
</g>
<g>
</g>
<g>
</g>
<g>
</g>
</svg>
