<?xml version="1.0" encoding="iso-8859-1"?>
<!-- Generator: Adobe Illustrator 19.0.0, SVG Export Plug-In . SVG Version: 6.00 Build 0)  -->
<svg version="1.1" id="Capa_1" xmlns="http://www.w3.org/2000/svg" xmlns:xlink="http://www.w3.org/1999/xlink" x="0px" y="0px"
	 viewBox="0 0 512 512" style="enable-background:new 0 0 512 512;" xml:space="preserve">
<g>
	<path style="fill:#35495E;" d="M141.241,0h229.517c19.501,0,35.31,15.809,35.31,35.31V476.69c0,19.501-15.809,35.31-35.31,35.31
		H141.241c-19.501,0-35.31-15.809-35.31-35.31V35.31C105.931,15.809,121.74,0,141.241,0z"/>
	<path style="fill:#2C3E50;" d="M379.586,35.31V476.69c-0.015,4.869-3.958,8.813-8.828,8.828H141.241
		c-4.869-0.015-8.813-3.958-8.828-8.828V35.31c0.015-4.869,3.958-8.813,8.828-8.828h28.954c3.81,0.028,7.181,2.476,8.386,6.091
		l2.737,8.298c2.42,7.21,9.167,12.075,16.772,12.094h115.818c7.605-0.019,14.352-4.884,16.772-12.094l2.737-8.298
		c1.205-3.615,4.576-6.063,8.386-6.091h28.954C375.628,26.497,379.572,30.441,379.586,35.31z"/>
	<path style="fill:#A5A5A4;" d="M300.138,35.31c-2.348,0.023-4.607-0.9-6.267-2.56c-1.66-1.66-2.583-3.919-2.56-6.267
		c0.033-2.337,0.947-4.576,2.56-6.268c3.539-3.267,8.995-3.267,12.534,0c3.414,3.481,3.414,9.054,0,12.534
		C304.712,34.36,302.474,35.275,300.138,35.31z"/>
	<g>
		<path style="fill:#BDC3C7;" d="M185.379,97.103h-26.483c-4.875,0-8.828-3.952-8.828-8.828c0-4.875,3.952-8.828,8.828-8.828h26.483
			c4.875,0,8.828,3.952,8.828,8.828C194.207,93.151,190.255,97.103,185.379,97.103z"/>
		<path style="fill:#BDC3C7;" d="M353.103,97.103h-44.138c-4.875,0-8.828-3.952-8.828-8.828c0-4.875,3.952-8.828,8.828-8.828h44.138
			c4.875,0,8.828,3.952,8.828,8.828C361.931,93.151,357.979,97.103,353.103,97.103z"/>
	</g>
	<path style="fill:#ECF0F1;" d="M335.448,264.828v1.501c-0.289,16.16-5.527,31.842-15.007,44.932
		c-1.735,2.389-3.591,4.687-5.563,6.886c-6.418,7.093-14.076,12.957-22.597,17.302c-3.49,1.845-7.12,3.409-10.858,4.679
		c-6.785,2.307-13.854,3.673-21.01,4.061c-1.412,0.088-2.914,0.088-4.414,0.088c-1.5,0-3.002,0-4.414-0.088
		c-7.156-0.388-14.225-1.754-21.01-4.061c-3.738-1.269-7.368-2.834-10.858-4.679c-8.522-4.345-16.18-10.209-22.598-17.302
		c-1.971-2.198-3.827-4.496-5.562-6.886c-9.48-13.09-14.718-28.773-15.007-44.932v-1.501c-0.015-2.476,0.103-4.952,0.353-7.415
		c3.694-39.142,35.429-69.714,74.681-71.945c1.412-0.088,2.914-0.088,4.414-0.088c1.5,0,3.002,0,4.414,0.088
		c39.252,2.231,70.987,32.803,74.681,71.945C335.345,259.876,335.463,262.351,335.448,264.828L335.448,264.828z"/>
	<g>
		<path style="fill:#81CCB8;" d="M256,172.138c-1.171,0.001-2.294-0.464-3.122-1.292c-0.828-0.828-1.293-1.951-1.292-3.122v-8.828
			c0-2.438,1.976-4.414,4.414-4.414c2.438,0,4.414,1.976,4.414,4.414v8.828c0.001,1.171-0.464,2.294-1.292,3.122
			C258.294,171.674,257.171,172.139,256,172.138z"/>
		<path style="fill:#81CCB8;" d="M256,375.172c-1.171,0.001-2.294-0.464-3.122-1.292c-0.828-0.828-1.293-1.951-1.292-3.122v-8.828
			c0-2.438,1.976-4.414,4.414-4.414c2.438,0,4.414,1.976,4.414,4.414v8.828c0.001,1.171-0.464,2.294-1.292,3.122
			C258.294,374.708,257.171,375.173,256,375.172z"/>
		<path style="fill:#81CCB8;" d="M239.129,173.612c-2.138-0.005-3.965-1.541-4.336-3.647l-1.535-8.694
			c-0.424-2.4,1.178-4.688,3.578-5.112c2.4-0.424,4.688,1.178,5.112,3.578l1.535,8.694c0.423,2.399-1.179,4.687-3.578,5.112
			C239.649,173.59,239.39,173.613,239.129,173.612z"/>
		<path style="fill:#81CCB8;" d="M274.388,373.565c-2.138-0.005-3.965-1.541-4.336-3.647l-1.535-8.694
			c-0.424-2.4,1.178-4.688,3.578-5.112c2.4-0.424,4.688,1.178,5.112,3.578l1.535,8.694c0.423,2.399-1.179,4.687-3.578,5.112
			C274.908,373.542,274.648,373.565,274.388,373.565L274.388,373.565z"/>
		<path style="fill:#81CCB8;" d="M222.784,177.996c-1.856,0.001-3.514-1.16-4.147-2.905l-3.017-8.297
			c-0.826-2.288,0.356-4.813,2.642-5.645c2.286-0.832,4.814,0.344,5.651,2.627l3.017,8.297c0.491,1.353,0.292,2.86-0.533,4.039
			S224.224,177.994,222.784,177.996L222.784,177.996z"/>
		<path style="fill:#81CCB8;" d="M292.233,368.785c-1.856,0.001-3.514-1.16-4.147-2.905l-3.017-8.297
			c-0.826-2.288,0.356-4.813,2.642-5.645c2.286-0.832,4.814,0.344,5.651,2.627l3.017,8.297c0.491,1.353,0.292,2.86-0.533,4.039
			C295.02,368.08,293.672,368.783,292.233,368.785L292.233,368.785z"/>
		<path style="fill:#81CCB8;" d="M207.448,185.147c-1.577,0.002-3.034-0.84-3.819-2.207l-4.414-7.642
			c-0.796-1.365-0.802-3.051-0.014-4.421c0.788-1.37,2.248-2.214,3.828-2.212c1.58,0.002,3.039,0.848,3.824,2.22l4.414,7.642
			c0.79,1.365,0.792,3.048,0.004,4.414S209.025,185.147,207.448,185.147L207.448,185.147z"/>
		<path style="fill:#81CCB8;" d="M308.966,360.978c-1.577,0.002-3.034-0.84-3.819-2.207l-4.414-7.642
			c-0.796-1.365-0.802-3.052-0.014-4.421c0.788-1.37,2.248-2.214,3.828-2.212c1.58,0.002,3.039,0.848,3.824,2.22l4.414,7.642
			c0.79,1.365,0.792,3.048,0.004,4.414C312,360.138,310.543,360.979,308.966,360.978L308.966,360.978z"/>
		<path style="fill:#81CCB8;" d="M193.586,194.858c-1.304,0.003-2.542-0.574-3.379-1.573l-5.681-6.763
			c-1.558-1.867-1.312-4.643,0.549-6.207s4.638-1.329,6.209,0.526l5.681,6.763c1.103,1.314,1.344,3.148,0.62,4.703
			S195.302,194.856,193.586,194.858L193.586,194.858z"/>
		<path style="fill:#81CCB8;" d="M324.095,350.388c-1.304,0.003-2.542-0.574-3.379-1.573l-5.681-6.763
			c-1.558-1.867-1.312-4.643,0.549-6.207c1.861-1.565,4.638-1.329,6.209,0.526l5.681,6.763c1.103,1.314,1.344,3.148,0.62,4.703
			C327.37,349.391,325.81,350.386,324.095,350.388L324.095,350.388z"/>
		<path style="fill:#81CCB8;" d="M181.612,206.823c-1.038,0-2.042-0.367-2.836-1.035l-6.759-5.672
			c-1.866-1.566-2.109-4.349-0.543-6.215c1.566-1.866,4.349-2.109,6.215-0.543l6.759,5.672c1.42,1.193,1.943,3.146,1.308,4.889
			C185.123,205.662,183.467,206.822,181.612,206.823L181.612,206.823z"/>
		<path style="fill:#81CCB8;" d="M337.147,337.332c-1.038,0-2.042-0.366-2.836-1.034l-6.759-5.672
			c-1.223-1.008-1.811-2.596-1.541-4.158c0.271-1.562,1.359-2.859,2.85-3.396s3.157-0.234,4.362,0.796l6.759,5.672
			c1.42,1.193,1.943,3.146,1.308,4.889S339.001,337.331,337.147,337.332L337.147,337.332z"/>
		<path style="fill:#81CCB8;" d="M171.905,220.69c-0.775,0-1.536-0.203-2.207-0.59l-7.647-4.414
			c-2.11-1.219-2.833-3.918-1.614-6.029c1.218-2.111,3.917-2.835,6.028-1.618l7.647,4.414c1.728,1,2.57,3.036,2.054,4.964
			C175.649,219.346,173.902,220.688,171.905,220.69L171.905,220.69z"/>
		<path style="fill:#81CCB8;" d="M347.741,322.207c-0.775,0-1.536-0.204-2.207-0.59l-7.647-4.414
			c-2.11-1.219-2.833-3.918-1.614-6.029c1.218-2.111,3.917-2.835,6.028-1.618l7.647,4.414c1.728,1,2.57,3.036,2.054,4.964
			C351.485,320.863,349.738,322.205,347.741,322.207L347.741,322.207z"/>
		<path style="fill:#81CCB8;" d="M164.75,236.03c-0.515-0.001-1.025-0.091-1.509-0.267l-8.293-3.017
			c-1.485-0.536-2.571-1.825-2.847-3.38s0.3-3.139,1.511-4.153c1.21-1.014,2.87-1.304,4.353-0.76l8.293,3.017
			c2.012,0.732,3.209,2.804,2.837,4.913C168.724,234.492,166.892,236.03,164.75,236.03L164.75,236.03z"/>
		<path style="fill:#81CCB8;" d="M355.543,305.47c-0.515-0.001-1.025-0.091-1.509-0.267l-8.293-3.017
			c-2.284-0.838-3.459-3.365-2.627-5.651c0.832-2.286,3.357-3.468,5.645-2.642l8.293,3.017c2.012,0.732,3.209,2.804,2.837,4.913
			C359.517,303.932,357.685,305.469,355.543,305.47L355.543,305.47z"/>
		<path style="fill:#81CCB8;" d="M160.38,252.379c-0.26,0.001-0.52-0.022-0.776-0.069l-8.69-1.535
			c-2.4-0.424-4.001-2.712-3.578-5.112s2.712-4.001,5.112-3.578l8.69,1.535c2.251,0.398,3.826,2.449,3.629,4.726
			C164.57,250.625,162.666,252.375,160.38,252.379L160.38,252.379z"/>
		<path style="fill:#81CCB8;" d="M360.328,287.638c-0.26,0.001-0.52-0.022-0.776-0.069l-8.69-1.535
			c-2.4-0.424-4.001-2.712-3.578-5.112c0.424-2.4,2.712-4.001,5.112-3.578l8.69,1.535c2.251,0.398,3.826,2.449,3.629,4.726
			S362.614,287.633,360.328,287.638L360.328,287.638z"/>
		<path style="fill:#81CCB8;" d="M158.897,269.241h-8.828c-2.438,0-4.414-1.976-4.414-4.414c0-2.438,1.976-4.414,4.414-4.414h8.828
			c2.438,0,4.414,1.976,4.414,4.414C163.31,267.265,161.334,269.241,158.897,269.241z"/>
		<path style="fill:#81CCB8;" d="M361.931,269.241h-8.828c-2.438,0-4.414-1.976-4.414-4.414c0-2.438,1.976-4.414,4.414-4.414h8.828
			c2.438,0,4.414,1.976,4.414,4.414C366.345,267.265,364.369,269.241,361.931,269.241z"/>
		<path style="fill:#81CCB8;" d="M151.672,287.638c-2.286-0.005-4.19-1.755-4.387-4.032c-0.197-2.277,1.377-4.329,3.629-4.726
			l8.69-1.534c1.552-0.274,3.133,0.301,4.146,1.508c1.014,1.207,1.306,2.863,0.767,4.345c-0.539,1.481-1.827,2.563-3.379,2.837
			l-8.69,1.535C152.192,287.616,151.933,287.639,151.672,287.638L151.672,287.638z"/>
		<path style="fill:#81CCB8;" d="M351.62,252.379c-2.286-0.005-4.19-1.755-4.387-4.032c-0.197-2.277,1.377-4.329,3.629-4.726
			l8.69-1.535c1.552-0.274,3.133,0.301,4.146,1.508s1.306,2.863,0.767,4.345c-0.539,1.481-1.827,2.563-3.379,2.837l-8.69,1.535
			C352.14,252.357,351.881,252.38,351.62,252.379z"/>
		<path style="fill:#81CCB8;" d="M156.457,305.47c-2.142,0-3.974-1.538-4.345-3.647s0.824-4.181,2.837-4.913l8.293-3.017
			c1.483-0.544,3.143-0.254,4.353,0.76c1.21,1.014,1.787,2.598,1.511,4.153c-0.276,1.555-1.361,2.844-2.847,3.38l-8.293,3.017
			C157.482,305.379,156.971,305.469,156.457,305.47L156.457,305.47z"/>
		<path style="fill:#81CCB8;" d="M347.25,236.03c-2.142,0-3.974-1.538-4.346-3.647c-0.372-2.109,0.824-4.181,2.837-4.913
			l8.293-3.017c2.288-0.826,4.813,0.356,5.645,2.642c0.832,2.286-0.344,4.814-2.627,5.651l-8.293,3.017
			C348.275,235.939,347.765,236.03,347.25,236.03L347.25,236.03z"/>
		<path style="fill:#81CCB8;" d="M164.259,322.207c-1.997-0.002-3.744-1.344-4.261-3.273c-0.517-1.929,0.325-3.964,2.054-4.964
			l7.647-4.414c2.111-1.217,4.81-0.493,6.028,1.617c1.218,2.111,0.496,4.81-1.614,6.029l-7.647,4.414
			C165.794,322.003,165.033,322.207,164.259,322.207L164.259,322.207z"/>
		<path style="fill:#81CCB8;" d="M340.095,220.69c-1.997-0.002-3.744-1.344-4.261-3.273c-0.517-1.929,0.325-3.964,2.054-4.964
			l7.647-4.414c2.111-1.217,4.81-0.493,6.028,1.617c1.218,2.111,0.496,4.81-1.614,6.029l-7.647,4.414
			C341.631,220.486,340.87,220.69,340.095,220.69L340.095,220.69z"/>
		<path style="fill:#81CCB8;" d="M174.853,337.332c-1.854-0.001-3.51-1.162-4.145-2.904c-0.634-1.743-0.112-3.696,1.308-4.889
			l6.759-5.672c1.207-1.013,2.864-1.306,4.345-0.767c1.481,0.539,2.562,1.827,2.836,3.379c0.274,1.552-0.301,3.133-1.508,4.146
			l-6.759,5.672C176.896,336.966,175.891,337.332,174.853,337.332L174.853,337.332z"/>
		<path style="fill:#81CCB8;" d="M330.388,206.823c-1.854-0.001-3.51-1.162-4.145-2.904c-0.634-1.743-0.112-3.696,1.308-4.889
			l6.759-5.672c1.207-1.013,2.864-1.305,4.345-0.767c1.481,0.539,2.562,1.827,2.836,3.379c0.274,1.552-0.301,3.133-1.508,4.146
			l-6.759,5.672C332.43,206.457,331.426,206.823,330.388,206.823L330.388,206.823z"/>
		<path style="fill:#81CCB8;" d="M187.905,350.388c-1.715-0.002-3.275-0.996-3.999-2.551s-0.483-3.389,0.62-4.703l5.681-6.763
			c1.572-1.855,4.348-2.091,6.209-0.526s2.107,4.34,0.549,6.207l-5.681,6.763C190.447,349.814,189.209,350.391,187.905,350.388
			L187.905,350.388z"/>
		<path style="fill:#81CCB8;" d="M318.414,194.858c-1.715-0.002-3.275-0.996-3.999-2.551c-0.724-1.555-0.483-3.389,0.62-4.703
			l5.681-6.763c1.572-1.856,4.348-2.091,6.209-0.526c1.861,1.565,2.107,4.34,0.549,6.207l-5.681,6.763
			C320.956,194.284,319.718,194.86,318.414,194.858z"/>
		<path style="fill:#81CCB8;" d="M203.034,360.978c-1.577,0.001-3.035-0.841-3.823-2.207c-0.788-1.366-0.787-3.049,0.004-4.414
			l4.414-7.642c0.785-1.371,2.244-2.218,3.824-2.22c1.58-0.002,3.041,0.842,3.828,2.212c0.788,1.37,0.782,3.057-0.014,4.421
			l-4.414,7.642C206.068,360.139,204.611,360.981,203.034,360.978L203.034,360.978z"/>
		<path style="fill:#81CCB8;" d="M304.552,185.147c-1.577,0.001-3.035-0.841-3.823-2.207c-0.788-1.366-0.787-3.049,0.004-4.414
			l4.414-7.642c0.785-1.372,2.244-2.218,3.824-2.22c1.58-0.002,3.041,0.842,3.828,2.212c0.788,1.37,0.782,3.057-0.014,4.421
			l-4.414,7.642C307.585,184.307,306.128,185.149,304.552,185.147L304.552,185.147z"/>
		<path style="fill:#81CCB8;" d="M219.767,368.785c-1.439-0.001-2.788-0.704-3.613-1.883c-0.826-1.179-1.025-2.686-0.533-4.039
			l3.017-8.297c0.838-2.284,3.365-3.459,5.651-2.627s3.468,3.357,2.642,5.645l-3.017,8.297
			C223.281,367.624,221.623,368.786,219.767,368.785L219.767,368.785z"/>
		<path style="fill:#81CCB8;" d="M289.216,177.996c-1.439-0.001-2.788-0.704-3.613-1.883s-1.025-2.686-0.533-4.039l3.017-8.297
			c0.536-1.485,1.825-2.571,3.38-2.847s3.139,0.3,4.153,1.511c1.014,1.21,1.304,2.871,0.76,4.353l-3.017,8.297
			C292.729,176.835,291.071,177.997,289.216,177.996z"/>
		<path style="fill:#81CCB8;" d="M237.612,373.565c-0.26,0.001-0.52-0.023-0.776-0.069c-2.399-0.425-4-2.713-3.578-5.112
			l1.534-8.694c0.424-2.4,2.713-4.001,5.112-3.578c2.4,0.424,4.001,2.713,3.578,5.112l-1.535,8.694
			C241.577,372.023,239.75,373.56,237.612,373.565z"/>
		<path style="fill:#81CCB8;" d="M272.871,173.612c-0.26,0.001-0.52-0.022-0.776-0.069c-2.399-0.425-4-2.713-3.578-5.112
			l1.535-8.694c0.424-2.4,2.712-4.001,5.112-3.578c2.4,0.424,4.001,2.712,3.578,5.112l-1.535,8.694
			C276.835,172.071,275.008,173.607,272.871,173.612z"/>
	</g>
	<path style="fill:#A5A5A4;" d="M320,310.908c-6.324-3.706-13.168-6.444-20.303-8.121c-4.468-0.942-8.701-2.773-12.447-5.385v-4.59
		c6.514-5.683,9.621-14.334,8.21-22.863c-0.088-1.412-0.088-2.737-0.088-4.149c0.019-2.415,0.346-4.818,0.972-7.15
		c1.974-9.696,2.539-19.627,1.676-29.484c-1.236-23.04-26.13-30.014-39.371-30.543h-5.474c-13.065,0.53-37.958,7.503-39.194,30.543
		c-0.862,9.858-0.298,19.788,1.677,29.484c0.626,2.333,0.953,4.735,0.972,7.15c0,1.412,0,2.737-0.088,4.149
		c-1.411,8.529,1.695,17.18,8.21,22.863v4.59c-3.751,2.602-7.982,4.433-12.447,5.385c-7.136,1.678-13.979,4.415-20.303,8.121
		c-0.182,0.066-0.337,0.19-0.441,0.353c1.735,2.389,3.591,4.687,5.563,6.886c5.181-3.001,10.771-5.231,16.595-6.621
		c0.753-0.092,1.494-0.27,2.207-0.53c-0.648,8.335,0.652,16.706,3.796,24.452c3.49,1.845,7.12,3.409,10.858,4.679
		c0.63-1.4,0.426-3.035-0.529-4.237c-4.606-8.012-6.408-17.331-5.121-26.483c0.428,2,2.191,3.433,4.237,3.443
		c2.435-0.007,4.407-1.979,4.414-4.414v-6.444c0.265,0.353,0.53,0.706,0.884,1.148c3.235,5.918,9.411,9.63,16.154,9.71h10.77
		c6.744-0.081,12.919-3.793,16.154-9.71c0.353-0.441,0.619-0.794,0.884-1.148v6.444c0.007,2.435,1.979,4.407,4.414,4.414
		c2.046-0.01,3.809-1.442,4.237-3.443c1.308,9.152-0.495,18.478-5.121,26.483c-0.955,1.202-1.159,2.837-0.529,4.237
		c3.737-1.27,7.367-2.834,10.857-4.679c3.144-7.746,4.444-16.118,3.796-24.452c0.713,0.26,1.454,0.437,2.207,0.53
		c5.824,1.389,11.414,3.62,16.595,6.621c1.971-2.198,3.828-4.496,5.562-6.886C320.337,311.098,320.182,310.974,320,310.908
		L320,310.908z M286.632,270.389c1.459,6.477-1.117,13.196-6.532,17.037c-3.593,3.035-6.795,6.504-9.534,10.328
		c-3.619,4.767-4.943,6.268-9.181,6.268h-10.77c-4.238,0-5.561-1.501-9.181-6.268c-2.738-3.824-5.941-7.293-9.534-10.328
		c-5.415-3.841-7.991-10.56-6.532-17.037c0.088-1.501,0.088-3.09,0.088-4.59c-0.032-3.036-0.418-6.058-1.149-9.004
		c-1.884-8.933-2.389-18.103-1.5-27.189c1.059-20.745,29.485-22.069,30.543-22.157h5.208c0.265,0,29.484,1.324,30.632,22.157
		c0.89,9.086,0.384,18.256-1.5,27.189c-0.731,2.947-1.116,5.968-1.148,9.004C286.543,267.299,286.543,268.888,286.632,270.389z"/>
	<path style="fill:#81CCB8;" d="M335.448,264.828v1.501h-0.088c-0.239,0.014-0.479-0.016-0.707-0.088
		c-24.582-3.642-49.389-5.56-74.239-5.738v83.686c-1.412,0.088-2.914,0.088-4.414,0.088c-1.5,0-3.002,0-4.414-0.088v-83.686
		c-24.85,0.178-49.657,2.096-74.239,5.738c-0.258,0.073-0.527,0.103-0.795,0.088v-1.501c-0.015-2.476,0.103-4.952,0.353-7.415
		c24.726-3.683,49.683-5.6,74.681-5.738v-66.207c1.412-0.088,2.914-0.088,4.414-0.088c1.5,0,3.002,0,4.414,0.088v66.207
		c24.998,0.138,49.955,2.055,74.681,5.738C335.345,259.876,335.463,262.351,335.448,264.828z"/>
	<circle style="fill:#BDC3C7;" cx="256" cy="432.552" r="26.483"/>
	<g>
		<circle style="fill:#ECF0F1;" cx="185.379" cy="441.379" r="17.655"/>
		<circle style="fill:#ECF0F1;" cx="326.621" cy="441.379" r="17.655"/>
	</g>
</g>
<g>
</g>
<g>
</g>
<g>
</g>
<g>
</g>
<g>
</g>
<g>
</g>
<g>
</g>
<g>
</g>
<g>
</g>
<g>
</g>
<g>
</g>
<g>
</g>
<g>
</g>
<g>
</g>
<g>
</g>
</svg>
