<?xml version="1.0" encoding="iso-8859-1"?>
<!-- Generator: Adobe Illustrator 19.0.0, SVG Export Plug-In . SVG Version: 6.00 Build 0)  -->
<svg version="1.1" id="Capa_1" xmlns="http://www.w3.org/2000/svg" xmlns:xlink="http://www.w3.org/1999/xlink" x="0px" y="0px"
	 viewBox="0 0 512 512" style="enable-background:new 0 0 512 512;" xml:space="preserve">
<g>
	<path style="fill:#35495E;" d="M0,370.759V141.241c0-19.501,15.809-35.31,35.31-35.31H476.69c19.501,0,35.31,15.809,35.31,35.31
		v229.517c0,19.501-15.809,35.31-35.31,35.31H35.31C15.809,406.069,0,390.26,0,370.759z"/>
	<path style="fill:#46B29D;" d="M35.31,132.414H476.69c4.869,0.015,8.813,3.958,8.828,8.828v229.517
		c-0.015,4.869-3.958,8.813-8.828,8.828H35.31c-4.869-0.015-8.813-3.958-8.828-8.828v-28.954c0.028-3.81,2.476-7.181,6.091-8.386
		l8.298-2.737c7.21-2.42,12.075-9.167,12.094-16.772V198.091c-0.019-7.605-4.884-14.352-12.094-16.772l-8.298-2.737
		c-3.615-1.205-6.063-4.576-6.091-8.386v-28.954C26.497,136.372,30.441,132.428,35.31,132.414z"/>
	<path style="fill:#A5A5A4;" d="M35.31,211.862c0.023,2.348-0.9,4.607-2.56,6.267c-1.66,1.66-3.919,2.583-6.267,2.56
		c-2.337-0.033-4.576-0.947-6.268-2.56c-3.267-3.539-3.267-8.995,0-12.534c3.481-3.414,9.054-3.414,12.534,0
		C34.36,207.288,35.275,209.526,35.31,211.862z"/>
	<g>
		<path style="fill:#E6E7E8;" d="M185.379,163.31H79.448c-2.438,0-4.414-1.976-4.414-4.414c0-2.438,1.976-4.414,4.414-4.414h105.931
			c2.438,0,4.414,1.976,4.414,4.414C189.793,161.334,187.817,163.31,185.379,163.31z"/>
		<path style="fill:#E6E7E8;" d="M432.552,163.31H326.621c-2.438,0-4.414-1.976-4.414-4.414c0-2.438,1.976-4.414,4.414-4.414
			h105.931c2.438,0,4.414,1.976,4.414,4.414C436.966,161.334,434.989,163.31,432.552,163.31z"/>
		<path style="fill:#E6E7E8;" d="M278.069,256c0-12.188-9.881-22.069-22.069-22.069s-22.069,9.881-22.069,22.069
			s9.881,22.069,22.069,22.069C268.183,278.056,278.056,268.183,278.069,256L278.069,256z M256,269.241
			c-7.313,0-13.241-5.928-13.241-13.241c0-7.313,5.928-13.241,13.241-13.241c7.313,0,13.241,5.928,13.241,13.241
			C269.233,263.31,263.31,269.233,256,269.241L256,269.241z"/>
		<path style="fill:#E6E7E8;" d="M335.448,251.586h-13.465c-2.239-33.032-28.537-59.33-61.57-61.57v-13.465
			c0-2.438-1.976-4.414-4.414-4.414c-2.438,0-4.414,1.976-4.414,4.414v13.465c-33.032,2.239-59.33,28.537-61.57,61.57h-13.465
			c-2.438,0-4.414,1.976-4.414,4.414c0,2.438,1.976,4.414,4.414,4.414h13.465c2.239,33.032,28.537,59.33,61.57,61.57v13.465
			c0,2.438,1.976,4.414,4.414,4.414c2.438,0,4.414-1.976,4.414-4.414v-13.465c33.032-2.239,59.33-28.537,61.57-61.57h13.465
			c2.438,0,4.414-1.976,4.414-4.414C339.862,253.562,337.886,251.586,335.448,251.586z M260.414,313.156v-20.018l1.293,1.293
			c1.728,1.694,4.499,1.68,6.21-0.031c1.711-1.711,1.725-4.481,0.031-6.21l-8.828-8.828c-0.563-0.536-1.26-0.908-2.018-1.079
			c-0.171-0.045-0.345-0.079-0.521-0.101c-0.753-0.226-1.565-0.146-2.26,0.222l-0.007-0.001l-0.045,0.035
			c-0.518,0.216-0.99,0.529-1.39,0.923l-8.828,8.828c-1.134,1.111-1.583,2.745-1.178,4.28s1.604,2.733,3.139,3.139
			c1.535,0.406,3.169-0.044,4.28-1.178l1.294-1.293v20.018c-28.164-2.205-50.536-24.577-52.742-52.742h20.018l-1.293,1.293
			c-1.134,1.111-1.583,2.745-1.178,4.28c0.406,1.535,1.604,2.733,3.139,3.139c1.535,0.406,3.169-0.044,4.28-1.178l8.828-8.828
			c0.537-0.564,0.91-1.263,1.079-2.023c0.044-0.168,0.078-0.339,0.1-0.512c0.051-0.193,0.089-0.388,0.114-0.586
			c-0.001-0.576-0.115-1.146-0.335-1.678l0.001-0.007l-0.035-0.045c-0.216-0.518-0.529-0.99-0.923-1.39l-8.828-8.828
			c-1.728-1.694-4.499-1.68-6.21,0.031c-1.711,1.711-1.725,4.481-0.031,6.21l1.294,1.293h-20.018
			c2.205-28.165,24.577-50.536,52.742-52.742v20.018l-1.293-1.293c-1.728-1.694-4.499-1.68-6.21,0.031
			c-1.711,1.711-1.725,4.481-0.031,6.21l8.828,8.828c1.257,1.261,3.151,1.64,4.796,0.96l0.014-0.003l0.041-0.033
			c0.518-0.216,0.99-0.529,1.39-0.923l8.828-8.828c1.694-1.728,1.68-4.499-0.031-6.21c-1.711-1.711-4.481-1.725-6.21-0.031
			l-1.294,1.293v-20.018c28.164,2.205,50.536,24.577,52.742,52.742h-20.018l1.293-1.293c1.134-1.111,1.583-2.745,1.178-4.28
			c-0.406-1.535-1.604-2.733-3.139-3.139c-1.535-0.406-3.169,0.044-4.28,1.178l-8.828,8.828c-0.537,0.564-0.91,1.263-1.079,2.023
			c-0.044,0.168-0.078,0.339-0.1,0.512c-0.227,0.755-0.148,1.568,0.221,2.265l-0.001,0.008l0.035,0.045
			c0.216,0.518,0.529,0.99,0.923,1.39l8.828,8.828c1.111,1.134,2.745,1.583,4.28,1.178c1.535-0.406,2.733-1.604,3.139-3.139
			c0.406-1.535-0.044-3.169-1.178-4.28l-1.293-1.294h20.018C310.95,288.578,288.578,310.95,260.414,313.156L260.414,313.156z"/>
		<path style="fill:#E6E7E8;" d="M254.319,251.939c-0.552,0.186-1.042,0.522-1.414,0.97c-0.842,0.806-1.319,1.922-1.319,3.088
			c0,1.166,0.476,2.282,1.319,3.088c0.372,0.449,0.861,0.787,1.414,0.974c0.524,0.251,1.1,0.372,1.681,0.354
			c1.17,0.014,2.292-0.468,3.086-1.328c0.448-0.371,0.785-0.859,0.974-1.41c0.253-0.522,0.374-1.097,0.353-1.677
			c0.017-1.172-0.466-2.296-1.328-3.091C257.846,251.639,255.957,251.255,254.319,251.939L254.319,251.939z"/>
		<path style="fill:#E6E7E8;" d="M114.759,198.621h-35.31c-2.438,0-4.414-1.976-4.414-4.414s1.976-4.414,4.414-4.414h35.31
			c2.438,0,4.414,1.976,4.414,4.414S117.196,198.621,114.759,198.621z"/>
		<path style="fill:#E6E7E8;" d="M114.759,216.276h-35.31c-2.438,0-4.414-1.976-4.414-4.414c0-2.438,1.976-4.414,4.414-4.414h35.31
			c2.438,0,4.414,1.976,4.414,4.414C119.172,214.3,117.196,216.276,114.759,216.276z"/>
		<path style="fill:#E6E7E8;" d="M114.759,233.931h-35.31c-2.438,0-4.414-1.976-4.414-4.414s1.976-4.414,4.414-4.414h35.31
			c2.438,0,4.414,1.976,4.414,4.414S117.196,233.931,114.759,233.931z"/>
	</g>
	<g>
		<circle style="fill:#81CCB8;" cx="97.103" cy="335.448" r="17.655"/>
		<circle style="fill:#81CCB8;" cx="150.069" cy="335.448" r="17.655"/>
		<circle style="fill:#81CCB8;" cx="445.793" cy="207.448" r="22.069"/>
		<circle style="fill:#81CCB8;" cx="445.793" cy="269.241" r="22.069"/>
		<circle style="fill:#81CCB8;" cx="445.793" cy="331.034" r="22.069"/>
	</g>
</g>
<g>
</g>
<g>
</g>
<g>
</g>
<g>
</g>
<g>
</g>
<g>
</g>
<g>
</g>
<g>
</g>
<g>
</g>
<g>
</g>
<g>
</g>
<g>
</g>
<g>
</g>
<g>
</g>
<g>
</g>
</svg>
