<?xml version="1.0" encoding="iso-8859-1"?>
<!-- Generator: Adobe Illustrator 19.0.0, SVG Export Plug-In . SVG Version: 6.00 Build 0)  -->
<svg version="1.1" id="Capa_1" xmlns="http://www.w3.org/2000/svg" xmlns:xlink="http://www.w3.org/1999/xlink" x="0px" y="0px"
	 viewBox="0 0 512 512" style="enable-background:new 0 0 512 512;" xml:space="preserve">
<g>
	<path style="fill:#E6E7E8;" d="M450.207,229.517h26.483c9.751,0,17.655,7.904,17.655,17.655v17.655
		c0,9.751-7.905,17.655-17.655,17.655h-26.483V229.517z"/>
	<path style="fill:#ECF0F1;" d="M88.276,94.19C43.246,135.951,17.655,194.587,17.655,256s25.591,120.049,70.621,161.81h300.138
		c45.03-41.761,70.621-100.396,70.621-161.81s-25.591-120.049-70.621-161.81H88.276z"/>
	<path style="fill:#35495E;" d="M123.586,0h229.517c19.501,0,35.31,15.809,35.31,35.31V476.69c0,19.501-15.809,35.31-35.31,35.31
		H123.586c-19.501,0-35.31-15.809-35.31-35.31V35.31C88.276,15.809,104.085,0,123.586,0z"/>
	<path style="fill:#B0D3F0;" d="M361.931,35.31V476.69c-0.015,4.869-3.958,8.813-8.828,8.828H123.586
		c-4.869-0.015-8.813-3.958-8.828-8.828V35.31c0.015-4.869,3.958-8.813,8.828-8.828h28.954c3.81,0.028,7.181,2.476,8.386,6.091
		l2.737,8.298c2.42,7.21,9.167,12.075,16.772,12.094h115.818c7.605-0.019,14.352-4.884,16.772-12.094l2.737-8.298
		c1.205-3.615,4.576-6.063,8.386-6.091h28.954C357.973,26.497,361.916,30.441,361.931,35.31z"/>
	<path style="fill:#A5A5A4;" d="M282.483,35.31c-2.348,0.023-4.607-0.9-6.267-2.56c-1.66-1.66-2.583-3.919-2.56-6.267
		c0.033-2.337,0.947-4.576,2.56-6.268c3.539-3.267,8.995-3.267,12.534,0c3.414,3.481,3.414,9.054,0,12.534
		C287.057,34.36,284.819,35.275,282.483,35.31z"/>
	<path style="fill:#ECF0F1;" d="M300.138,463.448H176.552c-2.438,0-4.414-1.976-4.414-4.414c0-2.438,1.976-4.414,4.414-4.414
		h123.586c2.438,0,4.414,1.976,4.414,4.414C304.552,461.472,302.576,463.448,300.138,463.448z"/>
	<path style="fill:#46B29D;" d="M233.931,114.759v61.793h-52.966c-4.869-0.015-8.813-3.958-8.828-8.828v-44.138
		c0.015-4.869,3.958-8.813,8.828-8.828H233.931z"/>
	<g>
		<path style="fill:#ECF0F1;" d="M286.897,123.586v44.138c-0.015,4.869-3.958,8.813-8.828,8.828h-44.138v-61.793h44.138
			C282.938,114.773,286.882,118.717,286.897,123.586z"/>
		<path style="fill:#ECF0F1;" d="M304.552,141.241v8.828c-0.015,4.869-3.958,8.813-8.828,8.828h-8.828v-26.483h8.828
			C300.593,132.428,304.537,136.372,304.552,141.241L304.552,141.241z"/>
		<path style="fill:#ECF0F1;" d="M282.483,211.862h-88.276c-4.875,0-8.828-3.952-8.828-8.828s3.952-8.828,8.828-8.828h88.276
			c4.875,0,8.828,3.952,8.828,8.828S287.358,211.862,282.483,211.862z"/>
	</g>
</g>
<g>
</g>
<g>
</g>
<g>
</g>
<g>
</g>
<g>
</g>
<g>
</g>
<g>
</g>
<g>
</g>
<g>
</g>
<g>
</g>
<g>
</g>
<g>
</g>
<g>
</g>
<g>
</g>
<g>
</g>
</svg>
