<?xml version="1.0" encoding="iso-8859-1"?>
<!-- Generator: Adobe Illustrator 19.0.0, SVG Export Plug-In . SVG Version: 6.00 Build 0)  -->
<svg version="1.1" id="Capa_1" xmlns="http://www.w3.org/2000/svg" xmlns:xlink="http://www.w3.org/1999/xlink" x="0px" y="0px"
	 viewBox="0 0 512 512" style="enable-background:new 0 0 512 512;" xml:space="preserve">
<g>
	<path style="fill:#35495E;" d="M141.241,0h229.517c19.501,0,35.31,15.809,35.31,35.31V476.69c0,19.501-15.809,35.31-35.31,35.31
		H141.241c-19.501,0-35.31-15.809-35.31-35.31V35.31C105.931,15.809,121.74,0,141.241,0z"/>
	<path style="fill:#BDC3C7;" d="M379.586,35.31V476.69c-0.015,4.869-3.958,8.813-8.828,8.828H141.241
		c-4.869-0.015-8.813-3.958-8.828-8.828V35.31c0.015-4.869,3.958-8.813,8.828-8.828h28.954c3.81,0.028,7.181,2.476,8.386,6.091
		l2.737,8.298c2.42,7.21,9.167,12.075,16.772,12.094h115.818c7.605-0.019,14.352-4.884,16.772-12.094l2.737-8.298
		c1.205-3.615,4.576-6.063,8.386-6.091h28.954C375.628,26.497,379.572,30.441,379.586,35.31z"/>
	<path style="fill:#A5A5A4;" d="M300.138,35.31c-2.348,0.023-4.607-0.9-6.267-2.56c-1.66-1.66-2.583-3.919-2.56-6.267
		c0.033-2.337,0.947-4.576,2.56-6.268c3.539-3.267,8.995-3.267,12.534,0c3.414,3.481,3.414,9.054,0,12.534
		C304.712,34.36,302.474,35.275,300.138,35.31z"/>
	<g>
		<path style="fill:#ECF0F1;" d="M317.793,463.448H194.207c-2.438,0-4.414-1.976-4.414-4.414c0-2.438,1.976-4.414,4.414-4.414
			h123.586c2.438,0,4.414,1.976,4.414,4.414C322.207,461.472,320.231,463.448,317.793,463.448z"/>
		<path style="fill:#ECF0F1;" d="M185.379,97.103h-26.483c-4.875,0-8.828-3.952-8.828-8.828c0-4.875,3.952-8.828,8.828-8.828h26.483
			c4.875,0,8.828,3.952,8.828,8.828C194.207,93.151,190.255,97.103,185.379,97.103z"/>
		<path style="fill:#ECF0F1;" d="M353.103,97.103h-44.138c-4.875,0-8.828-3.952-8.828-8.828c0-4.875,3.952-8.828,8.828-8.828h44.138
			c4.875,0,8.828,3.952,8.828,8.828C361.931,93.151,357.979,97.103,353.103,97.103z"/>
	</g>
	<g>
		<path style="fill:#7F8C8D;" d="M176.552,132.414h52.966c9.751,0,17.655,7.904,17.655,17.655v52.966
			c0,9.751-7.904,17.655-17.655,17.655h-52.966c-9.751,0-17.655-7.904-17.655-17.655v-52.966
			C158.897,140.318,166.801,132.414,176.552,132.414z"/>
		<path style="fill:#7F8C8D;" d="M167.724,247.172h17.655c4.875,0,8.828,3.952,8.828,8.828v17.655c0,4.875-3.952,8.828-8.828,8.828
			h-17.655c-4.875,0-8.828-3.952-8.828-8.828V256C158.897,251.125,162.849,247.172,167.724,247.172z"/>
	</g>
	<g>
		<path style="fill:#ECF0F1;" d="M167.724,300.138h70.621c4.875,0,8.828,3.952,8.828,8.828v17.655c0,4.875-3.952,8.828-8.828,8.828
			h-70.621c-4.875,0-8.828-3.952-8.828-8.828v-17.655C158.897,304.09,162.849,300.138,167.724,300.138z"/>
		<path style="fill:#ECF0F1;" d="M300.138,291.31v35.31c-0.015,4.869-3.958,8.813-8.828,8.828h-17.655
			c-4.869-0.015-8.813-3.958-8.828-8.828v-35.31H300.138z"/>
		<path style="fill:#ECF0F1;" d="M353.103,291.31v35.31c-0.015,4.869-3.958,8.813-8.828,8.828h-17.655
			c-4.869-0.015-8.813-3.958-8.828-8.828v-35.31H353.103z"/>
	</g>
	<g>
		<path style="fill:#7F8C8D;" d="M353.103,256v35.31h-35.31V256c0.015-4.869,3.958-8.813,8.828-8.828h17.655
			C349.145,247.187,353.089,251.131,353.103,256z"/>
		<path style="fill:#7F8C8D;" d="M220.69,247.172h17.655c4.875,0,8.828,3.952,8.828,8.828v17.655c0,4.875-3.952,8.828-8.828,8.828
			H220.69c-4.875,0-8.828-3.952-8.828-8.828V256C211.862,251.125,215.814,247.172,220.69,247.172z"/>
		<path style="fill:#7F8C8D;" d="M167.724,353.103h17.655c4.875,0,8.828,3.952,8.828,8.828v17.655c0,4.875-3.952,8.828-8.828,8.828
			h-17.655c-4.875,0-8.828-3.952-8.828-8.828v-17.655C158.897,357.056,162.849,353.103,167.724,353.103z"/>
		<path style="fill:#7F8C8D;" d="M220.69,353.103h17.655c4.875,0,8.828,3.952,8.828,8.828v17.655c0,4.875-3.952,8.828-8.828,8.828
			H220.69c-4.875,0-8.828-3.952-8.828-8.828v-17.655C211.862,357.056,215.814,353.103,220.69,353.103z"/>
		<path style="fill:#7F8C8D;" d="M273.655,353.103h17.655c4.875,0,8.828,3.952,8.828,8.828v17.655c0,4.875-3.952,8.828-8.828,8.828
			h-17.655c-4.875,0-8.828-3.952-8.828-8.828v-17.655C264.828,357.056,268.78,353.103,273.655,353.103z"/>
		<path style="fill:#7F8C8D;" d="M326.621,353.103h17.655c4.875,0,8.828,3.952,8.828,8.828v17.655c0,4.875-3.952,8.828-8.828,8.828
			h-17.655c-4.875,0-8.828-3.952-8.828-8.828v-17.655C317.793,357.056,321.745,353.103,326.621,353.103z"/>
		<path style="fill:#7F8C8D;" d="M282.483,132.414h52.966c9.751,0,17.655,7.904,17.655,17.655v52.966
			c0,9.751-7.904,17.655-17.655,17.655h-52.966c-9.751,0-17.655-7.904-17.655-17.655v-52.966
			C264.828,140.318,272.732,132.414,282.483,132.414z"/>
	</g>
	<circle style="fill:#BDC3C7;" cx="189.793" cy="163.31" r="13.241"/>
	<circle style="fill:#71C285;" cx="216.276" cy="163.31" r="13.241"/>
	<g>
		<circle style="fill:#84B5CB;" cx="189.793" cy="189.793" r="13.241"/>
		<circle style="fill:#84B5CB;" cx="216.276" cy="189.793" r="13.241"/>
	</g>
	<g>
		<path style="fill:#ECF0F1;" d="M326.621,154.483h-35.31c-2.438,0-4.414-1.976-4.414-4.414s1.976-4.414,4.414-4.414h35.31
			c2.438,0,4.414,1.976,4.414,4.414S329.058,154.483,326.621,154.483z"/>
		<path style="fill:#ECF0F1;" d="M308.966,198.621c-1.785,0-3.394-1.076-4.077-2.725c-0.683-1.649-0.306-3.547,0.957-4.81
			l5.707-5.707l-5.707-5.707c-1.694-1.728-1.68-4.499,0.031-6.21s4.481-1.725,6.21-0.031l8.828,8.828
			c0.828,0.827,1.293,1.95,1.293,3.121c0,1.171-0.465,2.293-1.293,3.121l-8.828,8.828
			C311.26,198.157,310.136,198.622,308.966,198.621L308.966,198.621z"/>
	</g>
	<g>
		<path style="fill:#BDC3C7;" d="M291.31,198.621c-1.171,0.001-2.294-0.464-3.121-1.293l-8.828-8.828
			c-0.828-0.827-1.293-1.95-1.293-3.121c0-1.17,0.465-2.293,1.293-3.121l8.828-8.828c1.111-1.134,2.745-1.583,4.28-1.178
			c1.535,0.406,2.733,1.604,3.139,3.139c0.406,1.535-0.044,3.169-1.178,4.28l-5.707,5.707l5.707,5.707
			c1.262,1.262,1.64,3.16,0.957,4.81C294.704,197.545,293.095,198.62,291.31,198.621L291.31,198.621z"/>
		<path style="fill:#BDC3C7;" d="M326.621,198.621c-1.785,0-3.394-1.076-4.077-2.725c-0.683-1.649-0.306-3.547,0.957-4.81
			l5.707-5.707l-5.707-5.707c-1.694-1.728-1.68-4.499,0.031-6.21c1.711-1.711,4.481-1.725,6.21-0.031l8.828,8.828
			c0.828,0.827,1.293,1.95,1.293,3.121c0,1.171-0.465,2.293-1.293,3.121l-8.828,8.828
			C328.915,198.157,327.792,198.622,326.621,198.621L326.621,198.621z"/>
	</g>
	<path style="fill:#7F8C8D;" d="M300.138,256v35.31h-35.31V256c0.015-4.869,3.958-8.813,8.828-8.828h17.655
		C296.18,247.187,300.123,251.131,300.138,256z"/>
</g>
<g>
</g>
<g>
</g>
<g>
</g>
<g>
</g>
<g>
</g>
<g>
</g>
<g>
</g>
<g>
</g>
<g>
</g>
<g>
</g>
<g>
</g>
<g>
</g>
<g>
</g>
<g>
</g>
<g>
</g>
</svg>
