<?xml version="1.0" encoding="iso-8859-1"?>
<!-- Generator: Adobe Illustrator 19.0.0, SVG Export Plug-In . SVG Version: 6.00 Build 0)  -->
<svg version="1.1" id="Capa_1" xmlns="http://www.w3.org/2000/svg" xmlns:xlink="http://www.w3.org/1999/xlink" x="0px" y="0px"
	 viewBox="0 0 512 512" style="enable-background:new 0 0 512 512;" xml:space="preserve">
<g>
	<path style="fill:#35495E;" d="M141.241,0h229.517c19.501,0,35.31,15.809,35.31,35.31V476.69c0,19.501-15.809,35.31-35.31,35.31
		H141.241c-19.501,0-35.31-15.809-35.31-35.31V35.31C105.931,15.809,121.74,0,141.241,0z"/>
	<path style="fill:#2C2F38;" d="M167.724,35.31L167.724,35.31c14.626,0,26.483,11.857,26.483,26.483v52.966
		c0,14.626-11.857,26.483-26.483,26.483l0,0c-14.626,0-26.483-11.857-26.483-26.483V61.793
		C141.241,47.167,153.098,35.31,167.724,35.31z"/>
	<path style="fill:#285680;" d="M167.724,70.621c-1.155-0.014-2.296-0.254-3.358-0.707c-1.068-0.449-2.051-1.076-2.91-1.853
		c-0.353-0.444-0.707-0.884-1.06-1.323c-0.335-0.492-0.603-1.027-0.797-1.591c-0.254-0.501-0.431-1.037-0.526-1.591
		c-0.104-0.582-0.163-1.172-0.177-1.763c0.033-2.337,0.947-4.576,2.56-6.268c0.857-0.78,1.841-1.409,2.909-1.858
		c3.289-1.384,7.088-0.651,9.626,1.858c0.38,0.418,0.733,0.86,1.056,1.323c0.334,0.491,0.603,1.025,0.797,1.586
		c0.253,0.502,0.432,1.038,0.53,1.591c0.097,0.585,0.156,1.175,0.177,1.767c-0.016,0.591-0.075,1.18-0.177,1.763
		c-0.098,0.553-0.277,1.089-0.53,1.591c-0.194,0.563-0.462,1.098-0.797,1.591c-0.325,0.462-0.678,0.904-1.056,1.324
		C172.298,69.671,170.061,70.585,167.724,70.621z"/>
	<path style="fill:#ECF0F1;" d="M167.724,92.69c-0.578,0.01-1.152-0.111-1.677-0.353c-0.553-0.186-1.043-0.524-1.414-0.974
		c-0.845-0.805-1.323-1.921-1.323-3.088c0-1.167,0.478-2.283,1.323-3.088c0.371-0.449,0.861-0.785,1.414-0.97
		c1.074-0.444,2.28-0.444,3.353,0c0.552,0.184,1.041,0.52,1.41,0.97c0.848,0.804,1.328,1.92,1.328,3.088s-0.48,2.285-1.328,3.088
		c-0.369,0.451-0.857,0.789-1.41,0.974C168.878,92.587,168.303,92.708,167.724,92.69z"/>
	<path style="fill:#285680;" d="M167.724,123.586c-1.155-0.014-2.296-0.254-3.358-0.707c-2.215-0.807-3.96-2.552-4.767-4.767
		c-0.451-1.061-0.69-2.201-0.703-3.354c0.033-2.337,0.947-4.576,2.56-6.268c0.857-0.78,1.841-1.409,2.909-1.858
		c3.294-1.34,7.067-0.612,9.626,1.858c0.38,0.418,0.733,0.86,1.056,1.323c0.334,0.491,0.603,1.025,0.797,1.586
		c0.253,0.501,0.432,1.037,0.53,1.591c0.102,0.584,0.161,1.175,0.176,1.768c0.023,2.348-0.9,4.607-2.56,6.267
		C172.331,122.686,170.072,123.609,167.724,123.586L167.724,123.586z"/>
	<circle style="fill:#ECF0F1;" cx="256" cy="256" r="44.138"/>
</g>
<g>
</g>
<g>
</g>
<g>
</g>
<g>
</g>
<g>
</g>
<g>
</g>
<g>
</g>
<g>
</g>
<g>
</g>
<g>
</g>
<g>
</g>
<g>
</g>
<g>
</g>
<g>
</g>
<g>
</g>
</svg>
