<?xml version="1.0" encoding="iso-8859-1"?>
<!-- Generator: Adobe Illustrator 19.0.0, SVG Export Plug-In . SVG Version: 6.00 Build 0)  -->
<svg version="1.1" id="Capa_1" xmlns="http://www.w3.org/2000/svg" xmlns:xlink="http://www.w3.org/1999/xlink" x="0px" y="0px"
	 viewBox="0 0 512 512" style="enable-background:new 0 0 512 512;" xml:space="preserve">
<g>
	<path style="fill:#35495E;" d="M141.241,0h229.517c19.501,0,35.31,15.809,35.31,35.31V476.69c0,19.501-15.809,35.31-35.31,35.31
		H141.241c-19.501,0-35.31-15.809-35.31-35.31V35.31C105.931,15.809,121.74,0,141.241,0z"/>
	<path style="fill:#BDC3C7;" d="M379.586,35.31V476.69c-0.015,4.869-3.958,8.813-8.828,8.828H141.241
		c-4.869-0.015-8.813-3.958-8.828-8.828V35.31c0.015-4.869,3.958-8.813,8.828-8.828h28.954c3.81,0.028,7.181,2.476,8.386,6.091
		l2.737,8.298c2.42,7.21,9.167,12.075,16.772,12.094h115.818c7.605-0.019,14.352-4.884,16.772-12.094l2.737-8.298
		c1.205-3.615,4.576-6.063,8.386-6.091h28.954C375.628,26.497,379.572,30.441,379.586,35.31z"/>
	<path style="fill:#ECF0F1;" d="M379.586,335.448V476.69c-0.015,4.869-3.958,8.813-8.828,8.828H141.241
		c-4.869-0.015-8.813-3.958-8.828-8.828V335.448H379.586z"/>
	<path style="fill:#A5A5A4;" d="M300.138,35.31c-2.348,0.023-4.607-0.9-6.267-2.56c-1.66-1.66-2.583-3.919-2.56-6.267
		c0.033-2.337,0.947-4.576,2.56-6.268c3.539-3.267,8.995-3.267,12.534,0c3.414,3.481,3.414,9.054,0,12.534
		C304.712,34.36,302.474,35.275,300.138,35.31z"/>
	<g>
		<rect x="132.414" y="132.414" style="fill:#ECF0F1;" width="247.172" height="141.241"/>
		<circle style="fill:#ECF0F1;" cx="256" cy="92.69" r="22.069"/>
		<path style="fill:#ECF0F1;" d="M167.81,97.103c-4.875,0.024-8.847-3.909-8.871-8.784c-0.024-4.875,3.909-8.847,8.784-8.871h0.086
			c4.875,0,8.828,3.952,8.828,8.828C176.638,93.151,172.686,97.103,167.81,97.103L167.81,97.103z"/>
		<path style="fill:#ECF0F1;" d="M344.362,97.103c-4.875,0.024-8.847-3.909-8.871-8.784c-0.024-4.875,3.909-8.847,8.784-8.871h0.086
			c4.875,0,8.828,3.952,8.828,8.828C353.19,93.151,349.237,97.103,344.362,97.103L344.362,97.103z"/>
		<path style="fill:#ECF0F1;" d="M203.034,291.31h150.069c4.875,0,8.828,3.952,8.828,8.828v8.828c0,4.875-3.952,8.828-8.828,8.828
			H203.034c-4.875,0-8.828-3.952-8.828-8.828v-8.828C194.207,295.263,198.159,291.31,203.034,291.31z"/>
	</g>
	<circle style="fill:#7F8C8D;" cx="163.31" cy="304.552" r="13.241"/>
	<path style="fill:#BDC3C7;" d="M331.034,150.069h-128c-12.188,0-22.069,9.881-22.069,22.069v0.757c0,2.341-0.93,4.587-2.586,6.242
		l-15.07,15.07h166.466c11.64,0.251,21.621-8.26,23.213-19.793c0.643-6.216-1.379-12.413-5.564-17.054
		C343.24,152.719,337.284,150.069,331.034,150.069z"/>
	<path style="fill:#4482C3;" d="M263.57,211.862h49.81c12.188,0,22.069,9.881,22.069,22.069v0.757c0,2.341,0.93,4.587,2.586,6.242
		l15.07,15.07h-88.276c-11.64,0.251-21.621-8.26-23.213-19.793c-0.643-6.216,1.379-12.413,5.564-17.054
		C251.364,214.512,257.32,211.863,263.57,211.862L263.57,211.862z"/>
	<g>
		<path style="fill:#D1D4D1;" d="M229.517,353.103h52.966c9.751,0,17.655,7.904,17.655,17.655v79.448
			c0,9.751-7.904,17.655-17.655,17.655h-52.966c-9.751,0-17.655-7.904-17.655-17.655v-79.448
			C211.862,361.008,219.767,353.103,229.517,353.103z"/>
		<path style="fill:#D1D4D1;" d="M335.448,353.103h8.828c4.875,0,8.828,3.952,8.828,8.828v8.828c0,4.875-3.952,8.828-8.828,8.828
			h-8.828c-4.875,0-8.828-3.952-8.828-8.828v-8.828C326.621,357.056,330.573,353.103,335.448,353.103z"/>
	</g>
	<path style="fill:#A5A5A4;" d="M335.448,397.241h8.828c4.875,0,8.828,3.952,8.828,8.828v8.828c0,4.875-3.952,8.828-8.828,8.828
		h-8.828c-4.875,0-8.828-3.952-8.828-8.828v-8.828C326.621,401.194,330.573,397.241,335.448,397.241z"/>
	<path style="fill:#5E5F62;" d="M335.448,441.379h8.828c4.875,0,8.828,3.952,8.828,8.828v8.828c0,4.875-3.952,8.828-8.828,8.828
		h-8.828c-4.875,0-8.828-3.952-8.828-8.828v-8.828C326.621,445.332,330.573,441.379,335.448,441.379z"/>
	<g>
		<path style="fill:#BDC3C7;" d="M185.379,379.586c-3.569-0.014-6.782-2.168-8.151-5.465c-1.369-3.297-0.626-7.092,1.883-9.631
			c2.536-2.508,6.333-3.242,9.621-1.858c1.081,0.428,2.07,1.059,2.915,1.858c3.414,3.481,3.414,9.054,0,12.534
			c-0.86,0.778-1.845,1.405-2.914,1.854C187.672,379.332,186.533,379.572,185.379,379.586z"/>
		<path style="fill:#BDC3C7;" d="M158.897,397.241c-2.337-0.035-4.575-0.949-6.268-2.56c-0.353-0.444-0.707-0.884-1.06-1.323
			c-0.335-0.492-0.603-1.027-0.797-1.591c-0.254-0.501-0.431-1.037-0.526-1.591c-0.104-0.582-0.163-1.172-0.176-1.763
			c0.012-1.154,0.251-2.295,0.703-3.358c0.449-1.069,1.077-2.053,1.857-2.91c2.536-2.508,6.333-3.242,9.621-1.858
			c2.215,0.807,3.96,2.552,4.767,4.767c0.453,1.062,0.694,2.203,0.708,3.358c-0.016,0.591-0.075,1.18-0.177,1.763
			c-0.098,0.553-0.277,1.089-0.53,1.591c-0.194,0.563-0.462,1.098-0.797,1.591c-0.349,0.44-0.703,0.879-1.056,1.323
			c-0.86,0.778-1.845,1.405-2.914,1.854C161.189,396.987,160.05,397.227,158.897,397.241L158.897,397.241z"/>
		<path style="fill:#BDC3C7;" d="M158.897,432.552c-2.337-0.035-4.575-0.949-6.268-2.56c-0.353-0.444-0.707-0.884-1.06-1.323
			c-0.335-0.492-0.603-1.027-0.797-1.591c-0.254-0.501-0.431-1.037-0.526-1.591c-0.099-0.583-0.158-1.172-0.176-1.763
			c0.014-0.563,0.073-1.123,0.177-1.677c0.081-0.586,0.258-1.154,0.526-1.681c0.195-0.561,0.463-1.095,0.797-1.586
			c0.353-0.444,0.707-0.884,1.06-1.323c2.536-2.508,6.333-3.242,9.621-1.858c1.07,0.449,2.056,1.077,2.914,1.857
			c0.353,0.44,0.707,0.879,1.056,1.323c0.334,0.491,0.603,1.025,0.797,1.586c0.267,0.528,0.446,1.096,0.53,1.681
			c0.102,0.554,0.161,1.114,0.176,1.677c-0.02,0.591-0.079,1.18-0.177,1.763c-0.098,0.553-0.277,1.089-0.53,1.591
			c-0.194,0.563-0.462,1.098-0.797,1.591c-0.349,0.44-0.703,0.879-1.056,1.323c-0.86,0.778-1.845,1.405-2.914,1.854
			C161.189,432.298,160.05,432.538,158.897,432.552z"/>
		<path style="fill:#BDC3C7;" d="M185.379,414.897c-2.348,0.023-4.607-0.9-6.267-2.56c-1.66-1.66-2.583-3.919-2.56-6.267
			c0.012-1.154,0.251-2.295,0.703-3.358c0.449-1.069,1.077-2.053,1.857-2.91c0.44-0.353,0.879-0.707,1.323-1.06
			c0.491-0.334,1.025-0.603,1.586-0.797c0.501-0.254,1.037-0.431,1.591-0.526c1.72-0.361,3.51-0.177,5.121,0.526
			c2.215,0.807,3.96,2.552,4.767,4.767c0.453,1.062,0.693,2.203,0.707,3.358c-0.016,0.591-0.075,1.18-0.177,1.763
			c-0.098,0.553-0.277,1.089-0.53,1.591c-0.194,0.563-0.462,1.098-0.797,1.591c-0.349,0.44-0.703,0.879-1.056,1.323
			c-0.86,0.778-1.845,1.405-2.914,1.854C187.672,414.643,186.533,414.883,185.379,414.897z"/>
		<path style="fill:#BDC3C7;" d="M185.379,450.207c-2.337-0.035-4.575-0.949-6.268-2.56c-0.78-0.859-1.409-1.844-1.858-2.914
			c-0.451-1.061-0.69-2.201-0.702-3.354c0.033-2.337,0.947-4.576,2.56-6.268c2.536-2.508,6.333-3.242,9.621-1.858
			c1.07,0.449,2.056,1.077,2.915,1.858c0.353,0.44,0.707,0.879,1.056,1.323c0.334,0.491,0.603,1.025,0.797,1.586
			c0.253,0.501,0.432,1.037,0.53,1.591c0.102,0.584,0.161,1.175,0.176,1.768c-0.014,1.153-0.254,2.293-0.707,3.353
			c-0.804,2.217-2.55,3.963-4.767,4.767C187.672,449.952,186.533,450.193,185.379,450.207L185.379,450.207z"/>
	</g>
</g>
<g>
</g>
<g>
</g>
<g>
</g>
<g>
</g>
<g>
</g>
<g>
</g>
<g>
</g>
<g>
</g>
<g>
</g>
<g>
</g>
<g>
</g>
<g>
</g>
<g>
</g>
<g>
</g>
<g>
</g>
</svg>
