<?xml version="1.0" encoding="iso-8859-1"?>
<!-- Generator: Adobe Illustrator 19.0.0, SVG Export Plug-In . SVG Version: 6.00 Build 0)  -->
<svg version="1.1" id="Capa_1" xmlns="http://www.w3.org/2000/svg" xmlns:xlink="http://www.w3.org/1999/xlink" x="0px" y="0px"
	 viewBox="0 0 512 512" style="enable-background:new 0 0 512 512;" xml:space="preserve">
<g>
	<path style="fill:#35495E;" d="M141.241,0h229.517c19.501,0,35.31,15.809,35.31,35.31V476.69c0,19.501-15.809,35.31-35.31,35.31
		H141.241c-19.501,0-35.31-15.809-35.31-35.31V35.31C105.931,15.809,121.74,0,141.241,0z"/>
	<path style="fill:#BDC3C7;" d="M379.586,35.31V476.69c-0.015,4.869-3.958,8.813-8.828,8.828H141.241
		c-4.869-0.015-8.813-3.958-8.828-8.828V35.31c0.015-4.869,3.958-8.813,8.828-8.828h28.954c3.81,0.028,7.181,2.476,8.386,6.091
		l2.737,8.298c2.42,7.21,9.167,12.075,16.772,12.094h115.818c7.605-0.019,14.352-4.884,16.772-12.094l2.737-8.298
		c1.205-3.615,4.576-6.063,8.386-6.091h28.954C375.628,26.497,379.572,30.441,379.586,35.31z"/>
	<path style="fill:#ECF0F1;" d="M379.586,335.448V476.69c-0.015,4.869-3.958,8.813-8.828,8.828H141.241
		c-4.869-0.015-8.813-3.958-8.828-8.828V335.448H379.586z"/>
	<path style="fill:#A5A5A4;" d="M300.138,35.31c-2.348,0.023-4.607-0.9-6.267-2.56c-1.66-1.66-2.583-3.919-2.56-6.267
		c0.033-2.337,0.947-4.576,2.56-6.268c3.539-3.267,8.995-3.267,12.534,0c3.414,3.481,3.414,9.054,0,12.534
		C304.712,34.36,302.474,35.275,300.138,35.31z"/>
	<g>
		<rect x="132.414" y="132.414" style="fill:#ECF0F1;" width="247.172" height="141.241"/>
		<circle style="fill:#ECF0F1;" cx="256" cy="92.69" r="22.069"/>
		<path style="fill:#ECF0F1;" d="M167.81,97.103c-4.875,0.024-8.847-3.909-8.871-8.784c-0.024-4.875,3.909-8.847,8.784-8.871h0.086
			c4.875,0,8.828,3.952,8.828,8.828C176.638,93.151,172.686,97.103,167.81,97.103L167.81,97.103z"/>
		<path style="fill:#ECF0F1;" d="M344.362,97.103c-4.875,0.024-8.847-3.909-8.871-8.784c-0.024-4.875,3.909-8.847,8.784-8.871h0.086
			c4.875,0,8.828,3.952,8.828,8.828C353.19,93.151,349.237,97.103,344.362,97.103L344.362,97.103z"/>
	</g>
	<path style="fill:#BDC3C7;" d="M158.897,353.103h52.966c4.875,0,8.828,3.952,8.828,8.828l0,0c0,4.875-3.952,8.828-8.828,8.828
		h-52.966c-4.875,0-8.828-3.952-8.828-8.828l0,0C150.069,357.056,154.021,353.103,158.897,353.103z"/>
	<path style="fill:#ECF0F1;" d="M203.034,291.31h150.069c4.875,0,8.828,3.952,8.828,8.828v8.828c0,4.875-3.952,8.828-8.828,8.828
		H203.034c-4.875,0-8.828-3.952-8.828-8.828v-8.828C194.207,295.263,198.159,291.31,203.034,291.31z"/>
	<g>
		<path style="fill:#BDC3C7;" d="M326.621,353.103h26.483c4.875,0,8.828,3.952,8.828,8.828l0,0c0,4.875-3.952,8.828-8.828,8.828
			h-26.483c-4.875,0-8.828-3.952-8.828-8.828l0,0C317.793,357.056,321.745,353.103,326.621,353.103z"/>
		<path style="fill:#BDC3C7;" d="M247.172,353.103h44.138c4.875,0,8.828,3.952,8.828,8.828l0,0c0,4.875-3.952,8.828-8.828,8.828
			h-44.138c-4.875,0-8.828-3.952-8.828-8.828l0,0C238.345,357.056,242.297,353.103,247.172,353.103z"/>
	</g>
	<circle style="fill:#7F8C8D;" cx="163.31" cy="304.552" r="13.241"/>
	<g>
		<path style="fill:#BDC3C7;" d="M167.724,414.897c-4.875,0-8.828-3.952-8.828-8.828v-8.828c0-4.875,3.952-8.828,8.828-8.828
			s8.828,3.952,8.828,8.828v8.828C176.552,410.944,172.599,414.897,167.724,414.897z"/>
		<path style="fill:#BDC3C7;" d="M203.034,414.897c-4.875,0-8.828-3.952-8.828-8.828v-8.828c0-4.875,3.952-8.828,8.828-8.828
			s8.828,3.952,8.828,8.828v8.828C211.862,410.944,207.91,414.897,203.034,414.897z"/>
		<path style="fill:#BDC3C7;" d="M238.345,414.897c-4.875,0-8.828-3.952-8.828-8.828v-8.828c0-4.875,3.952-8.828,8.828-8.828
			c4.875,0,8.828,3.952,8.828,8.828v8.828C247.172,410.944,243.22,414.897,238.345,414.897z"/>
		<path style="fill:#BDC3C7;" d="M273.655,414.897c-4.875,0-8.828-3.952-8.828-8.828v-8.828c0-4.875,3.952-8.828,8.828-8.828
			s8.828,3.952,8.828,8.828v8.828C282.483,410.944,278.531,414.897,273.655,414.897z"/>
		<path style="fill:#BDC3C7;" d="M308.966,414.897c-4.875,0-8.828-3.952-8.828-8.828v-8.828c0-4.875,3.952-8.828,8.828-8.828
			s8.828,3.952,8.828,8.828v8.828C317.793,410.944,313.841,414.897,308.966,414.897z"/>
		<path style="fill:#BDC3C7;" d="M344.276,414.897c-4.875,0-8.828-3.952-8.828-8.828v-8.828c0-4.875,3.952-8.828,8.828-8.828
			s8.828,3.952,8.828,8.828v8.828C353.103,410.944,349.151,414.897,344.276,414.897z"/>
		<path style="fill:#BDC3C7;" d="M167.724,441.379c-1.159,0.031-2.309-0.212-3.358-0.707c-1.079-0.428-2.066-1.057-2.909-1.854
			c-1.612-1.692-2.527-3.93-2.56-6.267c0.014-0.593,0.073-1.184,0.177-1.767c0.095-0.554,0.272-1.09,0.526-1.591
			c0.195-0.562,0.463-1.095,0.797-1.586c0.324-0.464,0.679-0.906,1.06-1.324c0.842-0.8,1.83-1.43,2.909-1.858
			c2.142-0.925,4.57-0.925,6.711,0c1.07,0.449,2.056,1.077,2.915,1.858c0.38,0.418,0.733,0.86,1.056,1.323
			c0.334,0.491,0.603,1.025,0.797,1.586c0.253,0.501,0.432,1.037,0.53,1.591c0.102,0.584,0.161,1.175,0.176,1.768
			c-0.014,1.153-0.254,2.293-0.707,3.353c-0.429,1.08-1.058,2.068-1.854,2.914C172.298,440.43,170.061,441.344,167.724,441.379
			L167.724,441.379z"/>
		<path style="fill:#BDC3C7;" d="M203.034,441.379c-1.155-0.014-2.296-0.254-3.358-0.707c-1.068-0.449-2.051-1.076-2.909-1.854
			c-0.353-0.444-0.707-0.884-1.06-1.323c-0.335-0.492-0.603-1.027-0.797-1.591c-0.254-0.501-0.431-1.037-0.526-1.591
			c-0.236-1.165-0.236-2.365,0-3.53c0.095-0.554,0.272-1.09,0.526-1.591c0.195-0.561,0.463-1.095,0.797-1.586
			c0.353-0.444,0.707-0.884,1.06-1.323c0.857-0.78,1.841-1.409,2.909-1.858c2.151-0.879,4.561-0.879,6.711,0
			c1.081,0.428,2.07,1.059,2.914,1.858c0.353,0.44,0.707,0.879,1.056,1.323c0.334,0.491,0.603,1.025,0.797,1.586
			c0.253,0.501,0.432,1.037,0.53,1.591c0.236,1.165,0.236,2.365,0,3.53c-0.098,0.553-0.277,1.089-0.53,1.591
			c-0.194,0.563-0.462,1.098-0.797,1.591c-0.349,0.44-0.703,0.879-1.056,1.323c-0.846,0.796-1.834,1.425-2.914,1.854
			C205.327,441.125,204.188,441.365,203.034,441.379z"/>
		<path style="fill:#BDC3C7;" d="M238.345,441.379c-2.337-0.035-4.575-0.949-6.268-2.56c-1.627-1.683-2.544-3.927-2.56-6.268
			c0.012-1.154,0.251-2.295,0.703-3.358c0.427-1.08,1.058-2.068,1.857-2.91c0.857-0.78,1.841-1.409,2.909-1.858
			c3.29-1.375,7.084-0.643,9.626,1.858c0.797,0.843,1.426,1.831,1.854,2.909c0.495,1.049,0.737,2.199,0.706,3.358
			c0.023,2.348-0.9,4.607-2.56,6.267C242.952,440.479,240.693,441.402,238.345,441.379L238.345,441.379z"/>
		<path style="fill:#BDC3C7;" d="M273.655,441.379c-0.592-0.02-1.183-0.079-1.767-0.177c-0.553-0.098-1.089-0.277-1.591-0.53
			c-0.562-0.195-1.095-0.463-1.586-0.797c-0.444-0.349-0.884-0.703-1.323-1.056c-3.414-3.481-3.414-9.054,0-12.534
			c0.418-0.382,0.86-0.736,1.323-1.06c0.491-0.334,1.025-0.603,1.586-0.797c0.501-0.254,1.037-0.431,1.591-0.526
			c2.907-0.581,5.914,0.311,8.035,2.383c2.546,2.525,3.312,6.34,1.937,9.653C280.484,439.249,277.241,441.4,273.655,441.379z"/>
		<path style="fill:#BDC3C7;" d="M308.966,441.379c-0.592-0.02-1.183-0.079-1.767-0.177c-0.553-0.098-1.089-0.277-1.591-0.53
			c-0.561-0.195-1.095-0.463-1.586-0.797c-0.464-0.323-0.906-0.676-1.324-1.056c-2.86-2.828-3.457-7.227-1.455-10.715
			c2.003-3.488,6.103-5.191,9.987-4.147c3.884,1.044,6.579,4.572,6.563,8.595c-0.014,1.153-0.254,2.293-0.707,3.353
			c-0.429,1.08-1.058,2.068-1.854,2.914C313.539,440.43,311.302,441.344,308.966,441.379L308.966,441.379z"/>
		<path style="fill:#BDC3C7;" d="M344.276,441.379c-1.155-0.014-2.296-0.254-3.358-0.707c-1.079-0.428-2.066-1.057-2.91-1.854
			c-3.414-3.481-3.414-9.054,0-12.534c3.514-3.332,9.021-3.332,12.534,0c3.414,3.481,3.414,9.054,0,12.534
			C348.86,440.444,346.616,441.361,344.276,441.379z"/>
		<path style="fill:#BDC3C7;" d="M167.724,467.862c-1.155-0.014-2.296-0.254-3.358-0.707c-2.215-0.807-3.96-2.552-4.767-4.767
			c-0.451-1.061-0.69-2.201-0.703-3.354c0.033-2.337,0.947-4.576,2.56-6.268c0.842-0.8,1.83-1.43,2.909-1.858
			c2.142-0.925,4.57-0.925,6.711,0c2.215,0.807,3.96,2.552,4.767,4.767c0.943,2.138,0.943,4.573,0,6.711
			c-0.429,1.08-1.058,2.068-1.854,2.914C172.298,466.912,170.06,467.826,167.724,467.862z"/>
		<path style="fill:#BDC3C7;" d="M203.034,467.862c-3.591,0.014-6.836-2.14-8.217-5.455c-1.381-3.315-0.625-7.136,1.914-9.676
			s6.36-3.296,9.676-1.914s5.469,4.626,5.455,8.217c0.03,1.158-0.212,2.306-0.707,3.353c-0.449,1.069-1.076,2.054-1.854,2.914
			C207.608,466.912,205.371,467.826,203.034,467.862L203.034,467.862z"/>
		<path style="fill:#BDC3C7;" d="M238.345,467.862c-2.337-0.035-4.575-0.949-6.268-2.56c-1.627-1.683-2.544-3.927-2.56-6.268
			c0.012-1.154,0.251-2.295,0.703-3.358c0.449-1.069,1.077-2.053,1.857-2.91c2.525-2.546,6.341-3.312,9.653-1.937
			s5.463,4.618,5.442,8.204c-0.02,0.591-0.079,1.18-0.177,1.763c-0.098,0.553-0.277,1.089-0.53,1.591
			c-0.194,0.563-0.462,1.098-0.797,1.591c-0.349,0.44-0.703,0.879-1.056,1.323C242.919,466.913,240.681,467.827,238.345,467.862z"/>
		<path style="fill:#BDC3C7;" d="M273.655,467.862c-0.592-0.02-1.183-0.079-1.767-0.177c-0.553-0.098-1.089-0.277-1.591-0.53
			c-0.562-0.195-1.095-0.463-1.586-0.797c-0.464-0.323-0.906-0.676-1.323-1.056c-3.414-3.481-3.414-9.054,0-12.534
			c0.44-0.353,0.879-0.707,1.323-1.06c0.491-0.334,1.025-0.603,1.586-0.797c0.501-0.254,1.037-0.432,1.591-0.526
			c3.308-0.694,6.722,0.56,8.794,3.231c2.072,2.671,2.438,6.29,0.943,9.321S277.035,467.88,273.655,467.862L273.655,467.862z"/>
		<path style="fill:#BDC3C7;" d="M308.966,467.862c-0.592-0.02-1.183-0.079-1.767-0.177c-0.553-0.098-1.089-0.277-1.591-0.53
			c-0.561-0.195-1.095-0.463-1.586-0.797c-0.444-0.349-0.884-0.703-1.323-1.056c-0.353-0.444-0.707-0.884-1.06-1.323
			c-0.335-0.492-0.603-1.027-0.797-1.591c-0.254-0.501-0.431-1.037-0.526-1.591c-0.099-0.583-0.158-1.172-0.177-1.763
			c-0.021-3.586,2.13-6.829,5.442-8.204c3.312-1.375,7.127-0.61,9.653,1.937c0.797,0.843,1.426,1.831,1.854,2.909
			c0.453,1.062,0.693,2.203,0.706,3.358c-0.018,2.34-0.935,4.584-2.56,6.268C313.54,466.913,311.302,467.827,308.966,467.862z"/>
		<path style="fill:#BDC3C7;" d="M344.276,467.862c-4.163-0.041-7.72-3.011-8.502-7.1c-0.782-4.089,1.427-8.162,5.281-9.736
			c3.854-1.574,8.283-0.213,10.588,3.255c2.304,3.467,1.844,8.078-1.1,11.022C348.851,466.913,346.613,467.828,344.276,467.862z"/>
		<path style="fill:#BDC3C7;" d="M331.034,150.069h-128c-12.188,0-22.069,9.881-22.069,22.069v0.757c0,2.341-0.93,4.587-2.586,6.242
			l-15.07,15.07h166.466c11.64,0.251,21.621-8.26,23.213-19.793c0.643-6.216-1.379-12.413-5.564-17.054
			C343.24,152.719,337.284,150.069,331.034,150.069z"/>
	</g>
	<path style="fill:#4482C3;" d="M263.57,211.862h49.81c12.188,0,22.069,9.881,22.069,22.069v0.757c0,2.341,0.93,4.587,2.586,6.242
		l15.07,15.07h-88.276c-11.64,0.251-21.621-8.26-23.213-19.793c-0.643-6.216,1.379-12.413,5.564-17.054
		C251.364,214.512,257.32,211.863,263.57,211.862L263.57,211.862z"/>
</g>
<g>
</g>
<g>
</g>
<g>
</g>
<g>
</g>
<g>
</g>
<g>
</g>
<g>
</g>
<g>
</g>
<g>
</g>
<g>
</g>
<g>
</g>
<g>
</g>
<g>
</g>
<g>
</g>
<g>
</g>
</svg>
