<?xml version="1.0" encoding="iso-8859-1"?>
<!-- Generator: Adobe Illustrator 19.0.0, SVG Export Plug-In . SVG Version: 6.00 Build 0)  -->
<svg version="1.1" id="Capa_1" xmlns="http://www.w3.org/2000/svg" xmlns:xlink="http://www.w3.org/1999/xlink" x="0px" y="0px"
	 viewBox="0 0 512 512" style="enable-background:new 0 0 512 512;" xml:space="preserve">
<g>
	<path style="fill:#35495E;" d="M141.241,0h229.517c19.501,0,35.31,15.809,35.31,35.31V476.69c0,19.501-15.809,35.31-35.31,35.31
		H141.241c-19.501,0-35.31-15.809-35.31-35.31V35.31C105.931,15.809,121.74,0,141.241,0z"/>
	<path style="fill:#95A5A5;" d="M170.177,26.483c3.806,0,7.183,2.439,8.38,6.051l2.762,8.337c2.42,7.21,9.167,12.075,16.772,12.094
		h115.818c7.605-0.019,14.353-4.884,16.772-12.094l2.762-8.337c1.197-3.613,4.574-6.051,8.38-6.051h28.935
		c4.869,0.014,8.813,3.958,8.828,8.828V476.69c-0.014,4.869-3.958,8.813-8.828,8.828H141.241c-4.869-0.014-8.813-3.958-8.828-8.828
		V35.31c0.014-4.869,3.958-8.813,8.828-8.828H170.177z"/>
	<path style="fill:#A5A5A4;" d="M300.138,35.31c-2.348,0.023-4.607-0.9-6.267-2.56c-1.66-1.66-2.583-3.919-2.56-6.267
		c0.033-2.337,0.947-4.576,2.56-6.268c3.539-3.267,8.995-3.267,12.534,0c3.414,3.481,3.414,9.054,0,12.534
		C304.712,34.36,302.474,35.275,300.138,35.31z"/>
	<g>
		<circle style="fill:#E6E7E8;" cx="185.379" cy="167.724" r="26.483"/>
		<circle style="fill:#E6E7E8;" cx="256" cy="167.724" r="26.483"/>
		<circle style="fill:#E6E7E8;" cx="326.621" cy="167.724" r="26.483"/>
		<circle style="fill:#E6E7E8;" cx="185.379" cy="247.172" r="26.483"/>
		<circle style="fill:#E6E7E8;" cx="256" cy="247.172" r="26.483"/>
		<circle style="fill:#E6E7E8;" cx="326.621" cy="247.172" r="26.483"/>
		<circle style="fill:#E6E7E8;" cx="185.379" cy="326.621" r="26.483"/>
		<circle style="fill:#E6E7E8;" cx="256" cy="326.621" r="26.483"/>
		<circle style="fill:#E6E7E8;" cx="256" cy="406.069" r="26.483"/>
		<circle style="fill:#E6E7E8;" cx="326.621" cy="326.621" r="26.483"/>
		<path style="fill:#E6E7E8;" d="M203.034,114.759c-1.155-0.014-2.296-0.254-3.358-0.707c-1.079-0.428-2.066-1.057-2.909-1.854
			c-3.414-3.481-3.414-9.054,0-12.534c0.857-0.78,1.841-1.409,2.909-1.858c3.291-1.367,7.08-0.636,9.625,1.858
			c0.353,0.44,0.707,0.879,1.056,1.323c0.334,0.491,0.603,1.025,0.797,1.586c0.253,0.501,0.432,1.037,0.53,1.591
			c0.097,0.585,0.156,1.175,0.176,1.768c0.023,2.348-0.9,4.607-2.56,6.267C207.641,113.859,205.383,114.781,203.034,114.759
			L203.034,114.759z"/>
		<path style="fill:#E6E7E8;" d="M238.345,114.759c-1.155-0.014-2.296-0.254-3.358-0.707c-1.079-0.428-2.066-1.057-2.909-1.854
			c-1.612-1.692-2.527-3.93-2.56-6.267c0.012-1.154,0.251-2.295,0.703-3.358c0.449-1.069,1.077-2.053,1.857-2.91
			c2.063-2.142,5.077-3.082,7.992-2.492c2.915,0.589,5.327,2.627,6.396,5.402c0.453,1.062,0.693,2.203,0.707,3.358
			c0.023,2.348-0.9,4.607-2.56,6.267C242.952,113.859,240.693,114.781,238.345,114.759L238.345,114.759z"/>
		<path style="fill:#E6E7E8;" d="M273.655,114.759c-2.348,0.023-4.607-0.9-6.267-2.56c-1.66-1.66-2.583-3.919-2.56-6.267
			c0.012-1.154,0.251-2.295,0.703-3.358c0.406-1.09,1.039-2.082,1.857-2.91c3.539-3.267,8.995-3.267,12.534,0
			c0.797,0.843,1.426,1.831,1.854,2.909c0.495,1.049,0.738,2.199,0.707,3.358c-0.035,2.337-0.949,4.574-2.56,6.268
			c-0.86,0.778-1.845,1.405-2.914,1.854C275.948,114.505,274.809,114.745,273.655,114.759z"/>
		<path style="fill:#E6E7E8;" d="M308.966,114.759c-4.163-0.041-7.72-3.011-8.502-7.1c-0.782-4.089,1.427-8.162,5.281-9.736
			s8.283-0.213,10.588,3.255c2.304,3.467,1.844,8.078-1.1,11.022C313.54,113.81,311.302,114.724,308.966,114.759L308.966,114.759z"
			/>
		<path style="fill:#E6E7E8;" d="M203.034,467.862h-44.138c-4.875,0-8.828-3.952-8.828-8.828s3.952-8.828,8.828-8.828h44.138
			c4.875,0,8.828,3.952,8.828,8.828S207.91,467.862,203.034,467.862z"/>
		<path style="fill:#E6E7E8;" d="M353.103,467.862h-44.138c-4.875,0-8.828-3.952-8.828-8.828s3.952-8.828,8.828-8.828h44.138
			c4.875,0,8.828,3.952,8.828,8.828S357.979,467.862,353.103,467.862z"/>
	</g>
</g>
<g>
</g>
<g>
</g>
<g>
</g>
<g>
</g>
<g>
</g>
<g>
</g>
<g>
</g>
<g>
</g>
<g>
</g>
<g>
</g>
<g>
</g>
<g>
</g>
<g>
</g>
<g>
</g>
<g>
</g>
</svg>
