<?xml version="1.0" encoding="iso-8859-1"?>
<!-- Generator: Adobe Illustrator 19.0.0, SVG Export Plug-In . SVG Version: 6.00 Build 0)  -->
<svg version="1.1" id="Capa_1" xmlns="http://www.w3.org/2000/svg" xmlns:xlink="http://www.w3.org/1999/xlink" x="0px" y="0px"
	 viewBox="0 0 512 512" style="enable-background:new 0 0 512 512;" xml:space="preserve">
<g>
	<path style="fill:#35495E;" d="M141.241,0h229.517c19.501,0,35.31,15.809,35.31,35.31V476.69c0,19.501-15.809,35.31-35.31,35.31
		H141.241c-19.501,0-35.31-15.809-35.31-35.31V35.31C105.931,15.809,121.74,0,141.241,0z"/>
	<path style="fill:#90BAE1;" d="M170.177,26.483c3.806,0,7.183,2.439,8.38,6.051l2.762,8.337c2.42,7.21,9.167,12.075,16.772,12.094
		h115.818c7.605-0.019,14.353-4.884,16.772-12.094l2.762-8.337c1.197-3.613,4.574-6.051,8.38-6.051h28.935
		c4.869,0.014,8.813,3.958,8.828,8.828V476.69c-0.014,4.869-3.958,8.813-8.828,8.828H141.241c-4.869-0.014-8.813-3.958-8.828-8.828
		V35.31c0.014-4.869,3.958-8.813,8.828-8.828H170.177z"/>
	<path style="fill:#A5A5A4;" d="M300.138,35.31c-2.348,0.023-4.607-0.9-6.267-2.56c-1.66-1.66-2.583-3.919-2.56-6.267
		c0.033-2.337,0.947-4.576,2.56-6.268c3.539-3.267,8.995-3.267,12.534,0c3.414,3.481,3.414,9.054,0,12.534
		C304.712,34.36,302.474,35.275,300.138,35.31z"/>
	<path style="fill:#ECF0F1;" d="M185.379,88.276h141.241c14.626,0,26.483,11.857,26.483,26.483l0,0
		c0,14.626-11.857,26.483-26.483,26.483H185.379c-14.626,0-26.483-11.857-26.483-26.483l0,0
		C158.897,100.133,170.753,88.276,185.379,88.276z"/>
	<circle style="fill:#BDC3C7;" cx="185.379" cy="114.759" r="26.483"/>
	<circle style="fill:#E6E7E8;" cx="256" cy="397.241" r="26.483"/>
	<g>
		<path style="fill:#90BAE1;" d="M262.241,397.241l5.707-5.707c1.694-1.728,1.68-4.499-0.031-6.21
			c-1.711-1.711-4.481-1.725-6.21-0.031L256,391l-5.707-5.707c-1.728-1.694-4.499-1.68-6.21,0.031
			c-1.711,1.711-1.725,4.481-0.031,6.21l5.707,5.707l-5.707,5.707c-1.134,1.111-1.583,2.745-1.178,4.28
			c0.406,1.535,1.604,2.733,3.139,3.139c1.535,0.406,3.169-0.044,4.28-1.178l5.707-5.707l5.707,5.707
			c1.728,1.694,4.499,1.68,6.21-0.031c1.711-1.711,1.725-4.481,0.031-6.21L262.241,397.241z"/>
		<path style="fill:#90BAE1;" d="M282.483,459.034h-52.966c-4.875,0-8.828-3.952-8.828-8.828c0-4.875,3.952-8.828,8.828-8.828
			h52.966c4.875,0,8.828,3.952,8.828,8.828C291.31,455.082,287.358,459.034,282.483,459.034z"/>
	</g>
</g>
<g>
</g>
<g>
</g>
<g>
</g>
<g>
</g>
<g>
</g>
<g>
</g>
<g>
</g>
<g>
</g>
<g>
</g>
<g>
</g>
<g>
</g>
<g>
</g>
<g>
</g>
<g>
</g>
<g>
</g>
</svg>
