<?xml version="1.0" encoding="iso-8859-1"?>
<!-- Generator: Adobe Illustrator 19.0.0, SVG Export Plug-In . SVG Version: 6.00 Build 0)  -->
<svg version="1.1" id="Capa_1" xmlns="http://www.w3.org/2000/svg" xmlns:xlink="http://www.w3.org/1999/xlink" x="0px" y="0px"
	 viewBox="0 0 348.158 348.158" style="enable-background:new 0 0 348.158 348.158;" xml:space="preserve">
<path style="fill:#EAEAEA;" d="M157.013,150.185H13.653v-20.504c0-37.69,30.553-68.243,68.243-68.243h75.117V150.185z"/>
<path style="fill:#602F75;" d="M157.013,157.012H13.653c-3.773,0-6.827-3.053-6.827-6.827v-20.507
	c0-41.393,33.673-75.066,75.066-75.066h75.121c3.773,0,6.827,3.053,6.827,6.827v88.747
	C163.839,153.958,160.786,157.012,157.013,157.012z M20.479,143.358h129.707V68.265H81.892c-33.865,0-61.413,27.547-61.413,61.413
	V143.358z"/>
<rect x="68.266" y="34.132" style="fill:#FFE600;" width="218.453" height="163.84"/>
<path style="fill:#602F75;" d="M286.719,204.798H68.266c-3.773,0-6.827-3.053-6.827-6.827V34.132c0-3.773,3.053-6.827,6.827-6.827
	h218.453c3.773,0,6.827,3.053,6.827,6.827v163.84C293.546,201.745,290.493,204.798,286.719,204.798z M75.093,191.145h204.8V40.958
	h-204.8V191.145z"/>
<path style="fill:#EA3457;" d="M68.266,61.438c30.162,0,54.613,24.451,54.613,54.613s-24.451,54.613-54.613,54.613V61.438z"/>
<path style="fill:#602F75;" d="M68.266,177.492c-3.773,0-6.827-3.053-6.827-6.827V61.438c0-3.773,3.053-6.827,6.827-6.827
	c33.881,0,61.44,27.559,61.44,61.44S102.147,177.492,68.266,177.492z M75.093,68.751v94.601c23.127-3.319,40.96-23.267,40.96-47.3
	S98.22,72.071,75.093,68.751z"/>
<path style="fill:#FFFFFF;" d="M245.759,197.972c0-22.622,18.338-40.96,40.96-40.96"/>
<g>
	<path style="fill:#602F75;" d="M245.759,204.798c-3.773,0-6.827-3.053-6.827-6.827c0-26.348,21.439-47.787,47.787-47.787
		c3.773,0,6.827,3.053,6.827,6.827s-3.053,6.827-6.827,6.827c-18.819,0-34.133,15.314-34.133,34.133
		C252.586,201.745,249.533,204.798,245.759,204.798z"/>
	<path style="fill:#602F75;" d="M286.719,81.918c-26.348,0-47.787-21.439-47.787-47.787c0-3.773,3.053-6.827,6.827-6.827
		s6.827,3.053,6.827,6.827c0,18.819,15.314,34.133,34.133,34.133c3.773,0,6.827,3.053,6.827,6.827S290.493,81.918,286.719,81.918z"
		/>
</g>
<polygon style="fill:#FFE600;" points="273.066,6.825 273.066,34.132 68.266,34.132 "/>
<path style="fill:#602F75;" d="M273.066,40.958h-204.8c-3.593,0-6.574-2.787-6.813-6.373c-0.234-3.587,2.347-6.746,5.914-7.219
	l204.8-27.307c1.954-0.259,3.92,0.333,5.4,1.633c1.48,1.292,2.326,3.166,2.326,5.132v27.307
	C279.893,37.905,276.839,40.958,273.066,40.958z M171.12,27.305h95.119V14.624L171.12,27.305z"/>
<path style="fill:#FFFFFF;" d="M334.506,191.143v120.641c0,16.319-13.228,29.548-29.548,29.548H43.2
	c-16.319,0-29.548-13.228-29.548-29.548V125.119c0-16.319,13.228-29.548,29.548-29.548h261.758
	c16.319,0,29.548,13.228,29.548,29.548v34.34"/>
<path style="fill:#602F75;" d="M304.96,348.158H43.198c-20.053,0-36.372-16.321-36.372-36.374V125.117
	c0-20.053,16.319-36.372,36.372-36.372h261.76c20.053,0,36.372,16.319,36.372,36.372v34.34c0,3.773-3.053,6.827-6.827,6.827
	s-6.827-3.053-6.827-6.827v-34.34c0-12.527-10.194-22.719-22.719-22.719H43.198c-12.525,0-22.719,10.194-22.719,22.719v186.667
	c0,12.527,10.194,22.721,22.719,22.721h261.76c12.527,0,22.719-10.194,22.719-22.719V191.145c0-3.773,3.053-6.827,6.827-6.827
	s6.827,3.053,6.827,6.827v120.641C341.333,331.837,325.013,348.158,304.96,348.158z"/>
<path style="fill:#00E7FF;" d="M255.999,266.238h78.507v-75.093h-78.507c-20.736,0-37.547,16.811-37.547,37.547l0,0
	C218.453,249.428,235.263,266.238,255.999,266.238z"/>
<path style="fill:#602F75;" d="M334.506,273.065h-78.507c-24.467,0-44.373-19.907-44.373-44.373s19.907-44.373,44.373-44.373h78.507
	c3.773,0,6.827,3.053,6.827,6.827v75.093C341.333,270.012,338.279,273.065,334.506,273.065z M255.999,197.972
	c-16.94,0-30.72,13.78-30.72,30.72s13.78,30.72,30.72,30.72h71.68v-61.44H255.999z"/>
<circle style="fill:#FFFFFF;" cx="255.999" cy="228.692" r="17.067"/>
<g>
	<path style="fill:#602F75;" d="M255.999,252.585c-13.174,0-23.893-10.72-23.893-23.893c0-13.174,10.72-23.893,23.893-23.893
		c13.174,0,23.893,10.72,23.893,23.893C279.893,241.865,269.173,252.585,255.999,252.585z M255.999,218.452
		c-5.647,0-10.24,4.593-10.24,10.24c0,5.647,4.593,10.24,10.24,10.24s10.24-4.593,10.24-10.24
		C266.239,223.044,261.647,218.452,255.999,218.452z"/>
	<path style="fill:#602F75;" d="M27.306,136.532H13.653c-3.773,0-6.827-3.053-6.827-6.827s3.053-6.827,6.827-6.827h13.653
		c3.773,0,6.827,3.053,6.827,6.827S31.079,136.532,27.306,136.532z"/>
	<path style="fill:#602F75;" d="M294.165,136.532h-26.687c-3.773,0-6.827-3.053-6.827-6.827s3.053-6.827,6.827-6.827h26.687
		c3.773,0,6.827,3.053,6.827,6.827S297.939,136.532,294.165,136.532z M240.793,136.532h-26.687c-3.773,0-6.827-3.053-6.827-6.827
		s3.053-6.827,6.827-6.827h26.687c3.773,0,6.827,3.053,6.827,6.827S244.566,136.532,240.793,136.532z M187.425,136.532h-26.687
		c-3.773,0-6.827-3.053-6.827-6.827s3.053-6.827,6.827-6.827h26.687c3.773,0,6.827,3.053,6.827,6.827
		S191.199,136.532,187.425,136.532z M134.053,136.532h-26.687c-3.773,0-6.827-3.053-6.827-6.827s3.053-6.827,6.827-6.827h26.687
		c3.773,0,6.827,3.053,6.827,6.827S137.826,136.532,134.053,136.532z M80.678,136.532H53.993c-3.773,0-6.827-3.053-6.827-6.827
		s3.053-6.827,6.827-6.827H80.68c3.773,0,6.827,3.053,6.827,6.827S84.452,136.532,80.678,136.532z"/>
	<path style="fill:#602F75;" d="M334.506,136.532h-13.653c-3.773,0-6.827-3.053-6.827-6.827s3.053-6.827,6.827-6.827h13.653
		c3.773,0,6.827,3.053,6.827,6.827S338.279,136.532,334.506,136.532z"/>
</g>
<g>
</g>
<g>
</g>
<g>
</g>
<g>
</g>
<g>
</g>
<g>
</g>
<g>
</g>
<g>
</g>
<g>
</g>
<g>
</g>
<g>
</g>
<g>
</g>
<g>
</g>
<g>
</g>
<g>
</g>
</svg>
