<?xml version="1.0" encoding="iso-8859-1"?>
<!-- Generator: Adobe Illustrator 19.0.0, SVG Export Plug-In . SVG Version: 6.00 Build 0)  -->
<svg version="1.1" id="Capa_1" xmlns="http://www.w3.org/2000/svg" xmlns:xlink="http://www.w3.org/1999/xlink" x="0px" y="0px"
	 viewBox="0 0 375.467 375.467" style="enable-background:new 0 0 375.467 375.467;" xml:space="preserve">
<path style="fill:#FFE600;" d="M116.053,136.533L15.111,306.876c-3.657,6.171,0.79,13.978,7.965,13.978l243.164-6.827l102.4-177.493
	l0,0c0-15.082-11.581-27.307-25.87-27.307H170.667C149.18,109.227,128.945,119.344,116.053,136.533L116.053,136.533z"/>
<path style="fill:#602F75;" d="M23.26,327.68c-6.047,0-11.267-3.04-14.16-8.12c-2.9-5.086-2.847-11.133,0.14-16.167l100.941-170.341
	c0.126-0.213,0.266-0.42,0.413-0.62c14.106-18.806,36.567-30.032,60.073-30.032h172.107c18.026,0,32.693,15.314,32.693,34.133
	c0,1.2-0.314,2.374-0.913,3.413l-102.4,177.493c-1.186,2.053-3.354,3.347-5.721,3.413L23.267,327.68
	C23.26,327.68,23.26,327.68,23.26,327.68z M121.733,140.339L20.987,310.352c-0.626,1.06-0.287,1.987-0.027,2.447
	c0.266,0.461,0.887,1.227,2.113,1.227l239.16-6.721l99.514-172.486c-0.814-10.493-9.013-18.767-18.973-18.767H170.667
	C151.554,116.053,133.287,125.126,121.733,140.339z"/>
<path style="fill:#FFFFFF;" d="M116.053,68.267L13.534,241.27c-2.961,4.997,0.64,11.317,6.449,11.317H266.24l102.4-184.32l0,0
	c0-15.082-11.581-27.307-25.87-27.307H170.667C149.18,40.96,128.945,51.077,116.053,68.267L116.053,68.267z"/>
<path style="fill:#602F75;" d="M270.259,259.413H19.98c-5.207,0-9.859-2.7-12.44-7.226s-2.54-9.914,0.119-14.401L110.592,64.167
	c14.107-18.807,36.569-30.034,60.075-30.034h172.107c18.026,0,32.693,15.314,32.693,34.133v1.766L270.259,259.413z M121.733,72.073
	L19.407,244.746l0.573,1.014h242.241l99.533-179.154c-0.787-10.52-9.001-18.819-18.98-18.819H170.667
	C151.554,47.787,133.287,56.859,121.733,72.073z"/>
<path style="fill:#EA3457;" d="M133.118,279.893H34.133c-15.082,0-27.307-12.225-27.307-27.307l0,0
	c0-15.082,12.225-27.307,27.307-27.307h204.8c15.082,0,27.307,12.225,27.307,27.307l0,0c0,15.082-12.225,27.307-27.307,27.307
	h-42.098"/>
<g>
	<path style="fill:#602F75;" d="M238.933,286.72h-42.1c-3.773,0-6.827-3.053-6.827-6.827s3.053-6.827,6.827-6.827h42.1
		c11.293,0,20.48-9.187,20.48-20.48c0-11.293-9.187-20.48-20.48-20.48h-204.8c-11.293,0-20.48,9.187-20.48,20.48
		c0,11.293,9.187,20.48,20.48,20.48h98.987c3.773,0,6.827,3.053,6.827,6.827s-3.053,6.827-6.827,6.827H34.133
		C15.314,286.72,0,271.406,0,252.587s15.314-34.133,34.133-34.133h204.8c18.819,0,34.133,15.314,34.133,34.133
		S257.753,286.72,238.933,286.72z"/>
	<path style="fill:#602F75;" d="M191.147,259.413H34.133c-3.773,0-6.827-3.053-6.827-6.827s3.053-6.827,6.827-6.827h157.013
		c3.773,0,6.827,3.053,6.827,6.827S194.92,259.413,191.147,259.413z"/>
</g>
<path style="fill:#00E7FF;" d="M196.833,279.893h42.1c15.082,0,27.307,12.225,27.307,27.307l0,0
	c0,15.082-12.225,27.307-27.307,27.307h-204.8c-15.082,0-27.307-12.225-27.307-27.307l0,0c0-15.082,12.225-27.307,27.307-27.307
	h48.925h50.063"/>
<g>
	<path style="fill:#602F75;" d="M238.933,341.333h-204.8C15.314,341.333,0,326.019,0,307.2s15.314-34.133,34.133-34.133h98.987
		c3.773,0,6.827,3.053,6.827,6.827s-3.053,6.827-6.827,6.827H34.133c-11.293,0-20.48,9.187-20.48,20.48s9.187,20.48,20.48,20.48
		h204.8c11.293,0,20.48-9.187,20.48-20.48s-9.187-20.48-20.48-20.48h-42.1c-3.773,0-6.827-3.053-6.827-6.827
		s3.053-6.827,6.827-6.827h42.1c18.819,0,34.133,15.314,34.133,34.133S257.753,341.333,238.933,341.333z"/>
	<path style="fill:#602F75;" d="M238.933,314.027H81.92c-3.773,0-6.827-3.053-6.827-6.827s3.053-6.827,6.827-6.827h157.013
		c3.773,0,6.827,3.053,6.827,6.827S242.707,314.027,238.933,314.027z"/>
</g>
<g>
</g>
<g>
</g>
<g>
</g>
<g>
</g>
<g>
</g>
<g>
</g>
<g>
</g>
<g>
</g>
<g>
</g>
<g>
</g>
<g>
</g>
<g>
</g>
<g>
</g>
<g>
</g>
<g>
</g>
</svg>
