<?xml version="1.0" encoding="iso-8859-1"?>
<!-- Generator: Adobe Illustrator 19.0.0, SVG Export Plug-In . SVG Version: 6.00 Build 0)  -->
<svg version="1.1" id="Capa_1" xmlns="http://www.w3.org/2000/svg" xmlns:xlink="http://www.w3.org/1999/xlink" x="0px" y="0px"
	 viewBox="0 0 430.082 430.082" style="enable-background:new 0 0 430.082 430.082;" xml:space="preserve">
<polygon style="fill:#EA3457;" points="242.348,40.96 187.734,40.96 180.908,6.827 249.174,6.827 "/>
<path style="fill:#602F75;" d="M242.348,47.787h-54.613c-3.253,0-6.054-2.301-6.694-5.487l-6.827-34.133
	c-0.399-2.007,0.119-4.087,1.413-5.666c1.3-1.58,3.234-2.5,5.28-2.5h68.267c2.046,0,3.98,0.92,5.28,2.5
	c1.294,1.58,1.812,3.661,1.413,5.666L249.041,42.3C248.401,45.486,245.6,47.787,242.348,47.787z M193.327,34.133h43.426l4.093-20.48
	h-51.613L193.327,34.133z"/>
<polygon style="fill:#FFFFFF;" points="262.828,375.467 215.566,423.253 167.254,375.467 187.734,40.96 242.348,40.96 "/>
<g>
	<path style="fill:#602F75;" d="M215.568,430.08c-1.801,0-3.519-0.707-4.799-1.973l-48.314-47.787
		c-1.399-1.386-2.133-3.308-2.014-5.274l20.48-334.507c0.22-3.599,3.207-6.407,6.813-6.407h54.613c3.606,0,6.593,2.807,6.813,6.407
		l20.48,334.507c0.119,1.94-0.594,3.84-1.959,5.221l-47.259,47.787c-1.273,1.287-3.007,2.014-4.813,2.027
		C215.594,430.08,215.58,430.08,215.568,430.08z M174.255,372.794l41.26,40.806l40.313-40.76L235.927,47.787h-41.774
		L174.255,372.794z"/>
	
		<rect x="168.175" y="85.344" transform="matrix(-0.7071 0.7071 -0.7071 -0.7071 426.4309 7.7052)" style="fill:#602F75;" width="86.889" height="13.651"/>
	<path style="fill:#602F75;" d="M180.908,197.973c-1.746,0-3.494-0.667-4.826-2c-2.666-2.666-2.666-6.987,0-9.653l61.44-61.44
		c2.666-2.666,6.987-2.666,9.653,0s2.666,6.987,0,9.653l-61.44,61.44C184.401,197.306,182.653,197.973,180.908,197.973z"/>
	
		<rect x="158.535" y="221.863" transform="matrix(-0.7071 0.7071 -0.7071 -0.7071 522.9947 240.7453)" style="fill:#602F75;" width="106.205" height="13.651"/>
	
		<rect x="148.868" y="290.125" transform="matrix(-0.7071 0.7071 -0.7071 -0.7071 571.2357 357.2881)" style="fill:#602F75;" width="125.507" height="13.651"/>
	<path style="fill:#602F75;" d="M187.734,395.947c-1.746,0-3.494-0.667-4.826-2c-2.666-2.666-2.666-6.987,0-9.653l68.267-68.267
		c2.666-2.666,6.987-2.666,9.653,0s2.666,6.987,0,9.653l-68.267,68.267C191.228,395.279,189.48,395.947,187.734,395.947z"/>
</g>
<g>
	<polygon style="fill:#FFE600;" points="337.921,99.176 349.854,131.427 382.105,143.36 349.854,155.293 337.921,187.544 
		325.988,155.293 293.737,143.36 325.988,131.427 	"/>
	<path style="fill:#FFE600;" d="M337.921,194.367c-2.854,0-5.414-1.78-6.4-4.46l-10.846-29.3l-29.3-10.846
		c-2.68-0.986-4.46-3.546-4.46-6.4c0-2.854,1.78-5.414,4.46-6.4l29.3-10.846l10.846-29.3c0.986-2.679,3.546-4.46,6.4-4.46
		s5.414,1.78,6.4,4.46l10.846,29.3l29.3,10.846c2.68,0.986,4.46,3.546,4.46,6.4c0,2.854-1.78,5.414-4.46,6.4l-29.3,10.846
		l-10.846,29.3C343.334,192.587,340.774,194.367,337.921,194.367z M313.408,143.36l14.947,5.533
		c1.874,0.686,3.347,2.161,4.033,4.033l5.533,14.947l5.533-14.947c0.686-1.874,2.161-3.347,4.033-4.033l14.947-5.533l-14.947-5.533
		c-1.874-0.686-3.347-2.161-4.033-4.033l-5.533-14.947l-5.533,14.947c-0.686,1.874-2.161,3.347-4.033,4.033L313.408,143.36z"/>
</g>
<g>
	<polygon style="fill:#00E7FF;" points="92.161,37.736 104.094,69.987 136.345,81.92 104.094,93.853 92.161,126.104 80.228,93.853 
		47.977,81.92 80.228,69.987 	"/>
	<path style="fill:#00E7FF;" d="M92.161,132.927c-2.854,0-5.414-1.78-6.4-4.46l-10.846-29.3l-29.3-10.848
		c-2.679-0.986-4.46-3.546-4.46-6.4c0-2.854,1.78-5.414,4.46-6.4l29.3-10.846l10.846-29.3c0.986-2.679,3.546-4.46,6.4-4.46
		c2.854,0,5.414,1.78,6.4,4.46l10.846,29.3l29.3,10.846c2.679,0.986,4.46,3.546,4.46,6.4c0,2.854-1.78,5.414-4.46,6.4l-29.3,10.846
		l-10.846,29.3C97.574,131.147,95.014,132.927,92.161,132.927z M67.648,81.92l14.947,5.533c1.874,0.686,3.347,2.161,4.033,4.033
		l5.533,14.947l5.533-14.947c0.686-1.874,2.161-3.347,4.033-4.033l14.947-5.533l-14.947-5.533c-1.874-0.686-3.347-2.161-4.033-4.033
		l-5.533-14.947l-5.533,14.947c-0.686,1.874-2.161,3.347-4.033,4.033L67.648,81.92z"/>
</g>
<g>
	<polygon style="fill:#EA3457;" points="167.254,249.363 179.187,281.614 211.438,293.547 179.187,305.48 167.254,337.731 
		155.321,305.48 123.07,293.547 155.321,281.614 	"/>
	<path style="fill:#EA3457;" d="M167.254,344.554c-2.854,0-5.414-1.78-6.4-4.46l-10.846-29.3l-29.3-10.846
		c-2.679-0.986-4.46-3.546-4.46-6.4s1.78-5.414,4.46-6.4l29.3-10.846l10.846-29.3c0.986-2.679,3.546-4.46,6.4-4.46
		s5.414,1.78,6.4,4.46l10.846,29.3l29.3,10.846c2.679,0.986,4.46,3.546,4.46,6.4s-1.78,5.414-4.46,6.4l-29.3,10.846l-10.846,29.3
		C172.668,342.774,170.108,344.554,167.254,344.554z M142.741,293.547l14.947,5.533c1.874,0.686,3.347,2.161,4.033,4.033
		l5.533,14.947l5.533-14.947c0.686-1.874,2.161-3.347,4.033-4.033l14.947-5.533l-14.947-5.533c-1.874-0.686-3.347-2.161-4.033-4.033
		l-5.533-14.947l-5.533,14.947c-0.686,1.874-2.161,3.347-4.033,4.033L142.741,293.547z"/>
</g>
<g>
</g>
<g>
</g>
<g>
</g>
<g>
</g>
<g>
</g>
<g>
</g>
<g>
</g>
<g>
</g>
<g>
</g>
<g>
</g>
<g>
</g>
<g>
</g>
<g>
</g>
<g>
</g>
<g>
</g>
</svg>
