<?xml version="1.0" encoding="iso-8859-1"?>
<!-- Generator: Adobe Illustrator 19.0.0, SVG Export Plug-In . SVG Version: 6.00 Build 0)  -->
<svg version="1.1" id="Capa_1" xmlns="http://www.w3.org/2000/svg" xmlns:xlink="http://www.w3.org/1999/xlink" x="0px" y="0px"
	 viewBox="0 0 430.094 430.094" style="enable-background:new 0 0 430.094 430.094;" xml:space="preserve">
<g>
	<circle style="fill:#FFE600;" cx="109.227" cy="339.855" r="68.267"/>
	<path style="fill:#FFE600;" d="M109.227,414.95c-41.407,0-75.093-33.686-75.093-75.093s33.686-75.093,75.093-75.093
		s75.093,33.686,75.093,75.093S150.634,414.95,109.227,414.95z M109.227,278.417c-33.881,0-61.44,27.559-61.44,61.44
		s27.559,61.44,61.44,61.44s61.44-27.559,61.44-61.44S143.107,278.417,109.227,278.417z"/>
</g>
<path style="fill:#FFFFFF;" d="M116.055,339.857h21.318c3.71,15.507,17.556,27.085,34.203,27.114l194.476,0.346
	c16.352,0.031,29.631-13.203,29.66-29.554l27.554-138.709c0.031-16.352-13.201-29.629-29.553-29.66l-134.96-0.241l26.19-44.512
	c5.745-9.764,8.784-20.883,8.805-32.212l0.034-18.789c0.027-15.08-12.177-27.327-27.259-27.353
	c-15.08-0.027-27.329,12.177-27.354,27.257l0,0c-0.024,12.875-6.178,24.967-16.573,32.563l-62.285,45.505
	c-12.549,9.168-20.712,22.927-23.023,38.059H75.093v150.187"/>
<g>
	<path style="fill:#602F75;" d="M366.114,374.144c-0.02,0-0.046,0-0.073,0l-194.48-0.346c-17.64-0.027-33.074-10.933-39.214-27.114
		h-16.294c-3.773,0-6.827-3.053-6.827-6.827s3.053-6.827,6.827-6.827h21.32c3.161,0,5.907,2.167,6.641,5.24
		c3.081,12.853,14.413,21.854,27.573,21.873l194.48,0.346c0.014,0,0.034,0,0.046,0c6.067,0,11.773-2.36,16.073-6.641
		c4.313-4.301,6.694-10.013,6.7-16.101c0-0.44,0.046-0.881,0.133-1.314l27.414-138.016c-0.314-12.273-10.38-22.173-22.733-22.2
		l-134.96-0.241c-2.447-0.007-4.7-1.319-5.914-3.441c-1.213-2.127-1.2-4.739,0.039-6.847l26.194-44.506
		c5.134-8.719,7.847-18.661,7.859-28.761l0.039-18.794c0.02-11.293-9.153-20.5-20.446-20.519c-0.014,0-0.027,0-0.034,0
		c-5.46,0-10.586,2.12-14.454,5.973c-3.879,3.86-6.019,8.999-6.026,14.473c-0.034,14.986-7.274,29.22-19.374,38.067l-62.286,45.5
		c-11.013,8.04-18.227,19.966-20.306,33.58c-0.507,3.333-3.374,5.794-6.746,5.794H81.92v143.36c0,3.773-3.053,6.827-6.827,6.827
		s-6.827-3.053-6.827-6.827V189.669c0-3.773,3.053-6.827,6.827-6.827h56.593c3.627-14.814,12.22-27.706,24.6-36.746l62.287-45.5
		c8.6-6.287,13.754-16.406,13.773-27.066c0.034-18.801,15.34-34.074,34.133-34.074c0.02,0,0.039,0,0.06,0
		c18.819,0.034,34.106,15.374,34.074,34.2l-0.039,18.787c-0.014,12.52-3.386,24.852-9.74,35.661l-20.154,34.239l123.047,0.22
		c20.087,0.039,36.4,16.413,36.367,36.5c0,0.44-0.046,0.881-0.133,1.319l-27.426,138.093c-0.193,9.467-3.98,18.333-10.706,25.04
		C384.947,370.371,375.82,374.144,366.114,374.144z"/>
	<path style="fill:#602F75;" d="M416.427,230.63h-40.96c-3.773,0-6.827-3.053-6.827-6.827s3.053-6.827,6.827-6.827h40.96
		c3.773,0,6.827,3.053,6.827,6.827S420.2,230.63,416.427,230.63z"/>
	<path style="fill:#602F75;" d="M402.773,278.417H368.64c-3.773,0-6.827-3.053-6.827-6.827c0-3.773,3.053-6.827,6.827-6.827h34.133
		c3.773,0,6.827,3.053,6.827,6.827C409.6,275.364,406.547,278.417,402.773,278.417z"/>
	<path style="fill:#602F75;" d="M395.947,326.204H348.16c-3.773,0-6.827-3.053-6.827-6.827s3.053-6.827,6.827-6.827h47.787
		c3.773,0,6.827,3.053,6.827,6.827S399.72,326.204,395.947,326.204z"/>
</g>
<rect x="6.827" y="176.015" style="fill:#EA3457;" width="68.267" height="184.32"/>
<path style="fill:#602F75;" d="M75.093,367.164H6.827c-3.773,0-6.827-3.053-6.827-6.827v-184.32c0-3.773,3.053-6.827,6.827-6.827
	h68.267c3.773,0,6.827,3.053,6.827,6.827v184.32C81.92,364.111,78.867,367.164,75.093,367.164z M13.653,353.51h54.613V182.844
	H13.653C13.653,182.844,13.653,353.51,13.653,353.51z"/>
<g>
	<polygon style="fill:#00E7FF;" points="363.011,97.063 334.507,146.435 391.514,146.435 	"/>
	<path style="fill:#00E7FF;" d="M391.513,153.264h-57.006c-2.441,0-4.693-1.3-5.914-3.413c-1.22-2.113-1.22-4.714,0-6.827
		L357.1,93.65c1.22-2.113,3.473-3.413,5.914-3.413l0,0c2.441,0,4.693,1.3,5.914,3.413l28.5,49.374c1.22,2.113,1.22,4.714,0,6.827
		C396.206,151.963,393.953,153.264,391.513,153.264z M346.334,139.61h33.36l-16.679-28.894L346.334,139.61z"/>
	<polygon style="fill:#00E7FF;" points="363.011,21.97 334.507,71.342 391.514,71.342 	"/>
	<path style="fill:#00E7FF;" d="M391.513,78.17h-57.006c-2.441,0-4.693-1.3-5.914-3.413c-1.22-2.113-1.22-4.714,0-6.827
		L357.1,18.557c1.22-2.113,3.473-3.413,5.914-3.413l0,0c2.441,0,4.693,1.3,5.914,3.413l28.5,49.374c1.22,2.113,1.22,4.714,0,6.827
		C396.206,76.87,393.953,78.17,391.513,78.17z M346.334,64.517h33.36l-16.679-28.894L346.334,64.517z"/>
</g>
<g>
</g>
<g>
</g>
<g>
</g>
<g>
</g>
<g>
</g>
<g>
</g>
<g>
</g>
<g>
</g>
<g>
</g>
<g>
</g>
<g>
</g>
<g>
</g>
<g>
</g>
<g>
</g>
<g>
</g>
</svg>
