<?xml version="1.0" encoding="iso-8859-1"?>
<!-- Generator: Adobe Illustrator 19.0.0, SVG Export Plug-In . SVG Version: 6.00 Build 0)  -->
<svg version="1.1" id="Capa_1" xmlns="http://www.w3.org/2000/svg" xmlns:xlink="http://www.w3.org/1999/xlink" x="0px" y="0px"
	 viewBox="0 0 393.89 393.89" style="enable-background:new 0 0 393.89 393.89;" xml:space="preserve">
<path style="fill:#00E7FF;" d="M340.305,325.627v-170.67L245.167,53.873c-7.639-8.117-20.538-8.117-28.177,0l-95.138,101.084v212.76
	c0,10.684,8.661,19.347,19.347,19.347h179.76c10.685,0,19.347-8.661,19.347-19.347 M231.078,127.65c-11.31,0-20.48-9.17-20.48-20.48
	s9.17-20.48,20.48-20.48c11.31,0,20.48,9.17,20.48,20.48S242.388,127.65,231.078,127.65z"/>
<path style="fill:#602F75;" d="M320.958,393.89h-179.76c-14.433,0-26.173-11.74-26.173-26.173v-212.76
	c0-1.741,0.667-3.413,1.853-4.68l95.14-101.084c4.927-5.233,11.873-8.233,19.06-8.233c7.187,0,14.133,3,19.06,8.233l95.14,101.084
	c1.186,1.266,1.853,2.941,1.853,4.68v170.67c0,3.77-3.053,6.827-6.827,6.827s-6.827-3.057-6.827-6.827V157.664l-93.286-99.11
	c-4.774-5.086-13.454-5.086-18.227,0l-93.286,99.11v210.053c0,6.903,5.613,12.52,12.52,12.52h179.76
	c6.907,0,12.52-5.617,12.52-12.52c0-3.77,3.053-6.827,6.827-6.827s6.827,3.057,6.827,6.827
	C347.132,382.152,335.392,393.89,320.958,393.89z M231.078,134.477c-15.06,0-27.307-12.25-27.307-27.307
	s12.247-27.307,27.307-27.307c15.06,0,27.307,12.25,27.307,27.307S246.138,134.477,231.078,134.477z M231.078,93.517
	c-7.526,0-13.653,6.124-13.653,13.653c0,7.53,6.127,13.653,13.653,13.653c7.526,0,13.653-6.124,13.653-13.653
	C244.732,99.64,238.605,93.517,231.078,93.517z"/>
<path style="fill:#FFFFFF;" d="M176.9,12.913c-7.639-8.117-20.538-8.117-28.177,0L53.585,113.997v212.76
	c0,10.684,8.661,19.347,19.347,19.347h179.76c10.685,0,19.347-8.661,19.347-19.347v-212.76L176.9,12.913z M162.812,86.69
	c-11.31,0-20.48-9.17-20.48-20.48s9.17-20.48,20.48-20.48s20.48,9.17,20.48,20.48S174.122,86.69,162.812,86.69z"/>
<path style="fill:#602F75;" d="M252.692,352.93H72.932c-14.433,0-26.173-11.74-26.173-26.173v-212.76
	c0-1.741,0.667-3.413,1.853-4.68l95.14-101.084C148.679,3,155.625,0,162.812,0s14.133,3,19.06,8.233l0,0l95.14,101.084
	c1.186,1.266,1.853,2.941,1.853,4.68v212.76C278.865,341.192,267.125,352.93,252.692,352.93z M60.412,116.704v210.053
	c0,6.903,5.613,12.52,12.52,12.52h179.76c6.907,0,12.52-5.617,12.52-12.52V116.704l-93.286-99.11
	c-4.774-5.086-13.454-5.086-18.227,0L60.412,116.704z M162.812,93.517c-15.06,0-27.307-12.25-27.307-27.307
	s12.247-27.307,27.307-27.307s27.307,12.25,27.307,27.307S177.871,93.517,162.812,93.517z M162.812,52.557
	c-7.526,0-13.653,6.124-13.653,13.653c0,7.53,6.127,13.653,13.653,13.653c7.526,0,13.653-6.124,13.653-13.653
	C176.465,58.68,170.338,52.557,162.812,52.557z"/>
<rect x="60.412" y="161.789" style="fill:#FFE600;" width="204.8" height="68.267"/>
<g>
	<path style="fill:#EA3457;" d="M224.252,189.09H87.718c-3.773,0-6.827-3.057-6.827-6.827c0-3.77,3.053-6.827,6.827-6.827h136.533
		c3.773,0,6.827,3.057,6.827,6.827C231.078,186.033,228.025,189.09,224.252,189.09z"/>
	<path style="fill:#EA3457;" d="M149.158,216.397h-61.44c-3.773,0-6.827-3.057-6.827-6.827c0-3.77,3.053-6.827,6.827-6.827h61.44
		c3.773,0,6.827,3.057,6.827,6.827C155.985,213.34,152.932,216.397,149.158,216.397z"/>
</g>
<g>
	<path style="fill:#602F75;" d="M149.158,305.143h-61.44c-3.773,0-6.827-3.057-6.827-6.827s3.053-6.827,6.827-6.827h61.44
		c3.773,0,6.827,3.057,6.827,6.827S152.932,305.143,149.158,305.143z"/>
	<path style="fill:#602F75;" d="M299.345,236.877h-27.307c-3.773,0-6.827-3.057-6.827-6.827c0-3.77,3.053-6.827,6.827-6.827h27.307
		c3.773,0,6.827,3.057,6.827,6.827C306.172,233.82,303.118,236.877,299.345,236.877z"/>
	<path style="fill:#602F75;" d="M299.345,264.183h-27.307c-3.773,0-6.827-3.057-6.827-6.827c0-3.77,3.053-6.827,6.827-6.827h27.307
		c3.773,0,6.827,3.057,6.827,6.827C306.172,261.127,303.118,264.183,299.345,264.183z"/>
</g>
<g>
</g>
<g>
</g>
<g>
</g>
<g>
</g>
<g>
</g>
<g>
</g>
<g>
</g>
<g>
</g>
<g>
</g>
<g>
</g>
<g>
</g>
<g>
</g>
<g>
</g>
<g>
</g>
<g>
</g>
</svg>
