<?xml version="1.0" encoding="iso-8859-1"?>
<!-- Generator: Adobe Illustrator 19.0.0, SVG Export Plug-In . SVG Version: 6.00 Build 0)  -->
<svg version="1.1" id="Capa_1" xmlns="http://www.w3.org/2000/svg" xmlns:xlink="http://www.w3.org/1999/xlink" x="0px" y="0px"
	 viewBox="0 0 396.179 396.179" style="enable-background:new 0 0 396.179 396.179;" xml:space="preserve">
<path style="fill:#FFFFFF;" d="M300.489,102.84V6.943h-54.613c0,26.392-21.395,47.787-47.787,47.787s-47.787-21.395-47.787-47.787
	H95.689v382.293h54.613c0-26.392,21.395-47.787,47.787-47.787s47.787,21.395,47.787,47.787h54.613V149.453"/>
<path style="fill:#602F75;" d="M300.489,396.179h-54.613c-3.833,0-6.943-3.11-6.943-6.943c0-22.519-18.323-40.844-40.844-40.844
	s-40.844,18.324-40.844,40.844c0,3.833-3.11,6.943-6.943,6.943H95.689c-3.833,0-6.943-3.11-6.943-6.943V6.943
	C88.747,3.11,91.856,0,95.689,0h54.613c3.833,0,6.943,3.11,6.943,6.943c0,22.519,18.323,40.844,40.844,40.844
	s40.844-18.324,40.844-40.844c0-3.833,3.11-6.943,6.943-6.943h54.613c3.833,0,6.943,3.11,6.943,6.943v95.896
	c0,3.833-3.11,6.943-6.943,6.943c-3.833,0-6.943-3.11-6.943-6.943V13.885h-41.163c-3.424,26.911-26.467,47.787-54.292,47.787
	s-50.871-20.876-54.292-47.787h-41.167v368.406h41.163c3.424-26.911,26.467-47.787,54.292-47.787s50.871,20.876,54.292,47.787
	h41.163V149.451c0-3.833,3.11-6.943,6.943-6.943s6.943,3.11,6.943,6.943v239.785C307.432,393.069,304.323,396.179,300.489,396.179z"
	/>
<g>
	<path style="fill:#00E7FF;" d="M135.513,129.939h-13.653c-3.833,0-6.943-3.11-6.943-6.943s3.11-6.943,6.943-6.943h13.653
		c3.833,0,6.943,3.11,6.943,6.943S139.346,129.939,135.513,129.939z"/>
	<path style="fill:#00E7FF;" d="M170.783,129.939h-13.653c-3.833,0-6.943-3.11-6.943-6.943s3.11-6.943,6.943-6.943h13.653
		c3.833,0,6.943,3.11,6.943,6.943S174.616,129.939,170.783,129.939z"/>
	<path style="fill:#00E7FF;" d="M206.053,129.939h-13.653c-3.833,0-6.943-3.11-6.943-6.943s3.11-6.943,6.943-6.943h13.653
		c3.833,0,6.943,3.11,6.943,6.943S209.886,129.939,206.053,129.939z"/>
	<path style="fill:#00E7FF;" d="M241.326,129.939h-13.653c-3.833,0-6.943-3.11-6.943-6.943s3.11-6.943,6.943-6.943h13.653
		c3.833,0,6.943,3.11,6.943,6.943S245.159,129.939,241.326,129.939z"/>
</g>
<rect x="102.516" y="150.303" style="fill:#FFE600;" width="191.147" height="122.88"/>
<path style="fill:#00E7FF;" d="M276.596,129.939h-13.653c-3.833,0-6.943-3.11-6.943-6.943s3.11-6.943,6.943-6.943h13.653
	c3.833,0,6.943,3.11,6.943,6.943S280.429,129.939,276.596,129.939z"/>
<g>
	<path style="fill:#EA3457;" d="M225.396,177.725h-102.4c-3.833,0-6.943-3.11-6.943-6.943c0-3.833,3.11-6.943,6.943-6.943h102.4
		c3.833,0,6.943,3.11,6.943,6.943C232.339,174.616,229.229,177.725,225.396,177.725z"/>
	<path style="fill:#EA3457;" d="M259.529,205.032H122.996c-3.833,0-6.943-3.11-6.943-6.943c0-3.833,3.11-6.943,6.943-6.943h136.533
		c3.833,0,6.943,3.11,6.943,6.943C266.472,201.923,263.363,205.032,259.529,205.032z"/>
	<path style="fill:#EA3457;" d="M225.396,232.339h-102.4c-3.833,0-6.943-3.11-6.943-6.943c0-3.833,3.11-6.943,6.943-6.943h102.4
		c3.833,0,6.943,3.11,6.943,6.943C232.339,229.229,229.229,232.339,225.396,232.339z"/>
	<path style="fill:#EA3457;" d="M191.263,259.645h-68.267c-3.833,0-6.943-3.11-6.943-6.943c0-3.833,3.11-6.943,6.943-6.943h68.267
		c3.833,0,6.943,3.11,6.943,6.943C198.205,256.536,195.096,259.645,191.263,259.645z"/>
</g>
<g>
</g>
<g>
</g>
<g>
</g>
<g>
</g>
<g>
</g>
<g>
</g>
<g>
</g>
<g>
</g>
<g>
</g>
<g>
</g>
<g>
</g>
<g>
</g>
<g>
</g>
<g>
</g>
<g>
</g>
</svg>
