<?xml version="1.0" encoding="iso-8859-1"?>
<!-- Generator: Adobe Illustrator 19.0.0, SVG Export Plug-In . SVG Version: 6.00 Build 0)  -->
<svg version="1.1" id="Capa_1" xmlns="http://www.w3.org/2000/svg" xmlns:xlink="http://www.w3.org/1999/xlink" x="0px" y="0px"
	 viewBox="0 0 409.719 409.719" style="enable-background:new 0 0 409.719 409.719;" xml:space="preserve">
<g>
	<circle style="fill:#00E7FF;" cx="314.138" cy="163.9" r="88.747"/>
	<path style="fill:#00E7FF;" d="M314.146,259.473c-52.7,0-95.573-42.873-95.573-95.573s42.873-95.573,95.573-95.573
		s95.573,42.873,95.573,95.573S366.846,259.473,314.146,259.473z M314.146,81.98c-45.17,0-81.92,36.746-81.92,81.92
		s36.75,81.92,81.92,81.92s81.92-36.746,81.92-81.92S359.316,81.98,314.146,81.98z"/>
</g>
<path style="fill:#FFFFFF;" d="M320.973,172.602v-31.044l68.267-18.618V47.846h-68.267h-6.827h-61.911
	c0.28,2.241,0.471,4.511,0.471,6.827c0,30.162-24.451,54.613-54.613,54.613s-54.613-24.451-54.613-54.613
	c0-2.316,0.191-4.586,0.471-6.827H82.039h-6.827H6.946v75.093l68.267,18.618v220.315h245.76V218.511"/>
<path style="fill:#602F75;" d="M320.973,368.819H75.213c-3.837,0-6.946-3.106-6.946-6.946V146.867L5.12,129.64
	c-3.023-0.819-5.12-3.567-5.12-6.7V47.846c0-3.84,3.11-6.946,6.946-6.946h137.006c1.993,0,3.889,0.853,5.21,2.347
	c1.316,1.493,1.93,3.487,1.683,5.46c-0.244,1.959-0.42,3.941-0.42,5.967c0,26.279,21.383,47.667,47.667,47.667
	s47.667-21.386,47.667-47.667c0-2.028-0.178-4.007-0.42-5.967c-0.247-1.973,0.367-3.966,1.683-5.46
	c1.319-1.493,3.217-2.347,5.21-2.347h137.006c3.837,0,6.946,3.106,6.946,6.946v75.093c0,3.133-2.098,5.879-5.12,6.7l-63.147,17.227
	V172.6c0,3.84-3.11,6.946-6.946,6.946c-3.837,0-6.946-3.106-6.946-6.946v-31.041c0-3.133,2.098-5.879,5.12-6.7l63.147-17.227V54.793
	H259.654c-0.063,33.893-27.653,61.44-61.559,61.44s-61.496-27.547-61.559-61.44H13.892v62.839l63.147,17.227
	c3.023,0.819,5.12,3.567,5.12,6.7v213.367h231.866V218.513c0-3.84,3.11-6.946,6.946-6.946c3.837,0,6.946,3.106,6.946,6.946v143.36
	C327.919,365.713,324.809,368.819,320.973,368.819z"/>
<polygon style="fill:#EA3457;" points="150.306,218.513 95.693,218.513 95.693,143.42 122.999,109.286 150.306,143.42 "/>
<g>
	<path style="fill:#602F75;" d="M150.306,225.34H95.693c-3.77,0-6.827-3.053-6.827-6.827V143.42c0-1.553,0.527-3.053,1.497-4.267
		l27.307-34.133c2.587-3.239,8.073-3.239,10.66,0l27.307,34.133c0.969,1.213,1.497,2.714,1.497,4.267v75.093
		C157.133,222.286,154.076,225.34,150.306,225.34z M102.519,211.686h40.96v-65.874l-20.48-25.6l-20.48,25.6V211.686z"/>
	<path style="fill:#602F75;" d="M122.999,122.94c-3.77,0-6.827-3.053-6.827-6.827V47.846c0-3.773,3.057-6.827,6.827-6.827
		c3.77,0,6.827,3.053,6.827,6.827v68.267C129.826,119.886,126.769,122.94,122.999,122.94z"/>
	<path style="fill:#602F75;" d="M320.973,170.726c-3.77,0-6.827-3.053-6.827-6.827v-54.613c0-3.773,3.057-6.827,6.827-6.827
		s6.827,3.053,6.827,6.827V163.9C327.799,167.673,324.743,170.726,320.973,170.726z"/>
	<path style="fill:#602F75;" d="M75.213,191.206c-3.77,0-6.827-3.053-6.827-6.827v-75.093c0-3.773,3.057-6.827,6.827-6.827
		s6.827,3.053,6.827,6.827v75.093C82.039,188.153,78.983,191.206,75.213,191.206z"/>
	<path style="fill:#602F75;" d="M286.839,164.019h-61.44c-3.837,0-6.946-3.106-6.946-6.946c0-3.84,3.11-6.946,6.946-6.946h61.44
		c3.837,0,6.946,3.106,6.946,6.946C293.786,160.913,290.676,164.019,286.839,164.019z"/>
</g>
<rect x="82.031" y="293.606" style="fill:#FFE600;" width="232.107" height="61.44"/>
<g>
</g>
<g>
</g>
<g>
</g>
<g>
</g>
<g>
</g>
<g>
</g>
<g>
</g>
<g>
</g>
<g>
</g>
<g>
</g>
<g>
</g>
<g>
</g>
<g>
</g>
<g>
</g>
<g>
</g>
</svg>
