<?xml version="1.0" encoding="iso-8859-1"?>
<!-- Generator: Adobe Illustrator 19.0.0, SVG Export Plug-In . SVG Version: 6.00 Build 0)  -->
<svg version="1.1" id="Capa_1" xmlns="http://www.w3.org/2000/svg" xmlns:xlink="http://www.w3.org/1999/xlink" x="0px" y="0px"
	 viewBox="0 0 416.427 416.427" style="enable-background:new 0 0 416.427 416.427;" xml:space="preserve">
<polygon style="fill:#00E7FF;" points="320.854,416.427 248.037,416.427 211.627,0 284.445,0 "/>
<polygon style="fill:#FFE600;" points="197.974,416.427 125.157,416.427 88.747,0 161.565,0 "/>
<rect x="54.614" y="61.44" style="fill:#EA3457;" width="307.2" height="34.133"/>
<path style="fill:#602F75;" d="M361.814,102.4h-307.2c-3.77,0-6.827-3.053-6.827-6.827V61.44c0-3.773,3.057-6.827,6.827-6.827h307.2
	c3.77,0,6.827,3.053,6.827,6.827v34.133C368.64,99.347,365.584,102.4,361.814,102.4z M61.44,88.747h293.547v-20.48H61.44V88.747z"/>
<polyline style="fill:#FFFFFF;" points="361.814,95.573 54.614,95.573 40.96,375.467 188.113,375.467 208.214,249.173 
	228.315,375.467 375.467,375.467 361.814,129.707 "/>
<g>
	<path style="fill:#602F75;" d="M375.467,382.293H228.313c-3.357,0-6.214-2.441-6.743-5.753l-13.356-83.934l-13.356,83.934
		c-0.531,3.313-3.386,5.753-6.743,5.753H40.96c-1.867,0-3.654-0.766-4.943-2.12c-1.289-1.353-1.966-3.173-1.877-5.04L47.794,95.241
		c0.181-3.633,3.18-6.494,6.82-6.494h307.2c3.77,0,6.827,3.053,6.827,6.827s-3.057,6.827-6.827,6.827H61.118L48.128,368.64h134.159
		l19.183-120.54c0.531-3.313,3.386-5.753,6.743-5.753s6.214,2.441,6.743,5.753l19.185,120.54h134.11l-13.254-238.553
		c-0.21-3.767,2.673-6.987,6.436-7.194c3.801-0.113,6.987,2.673,7.197,6.434l13.653,245.76c0.104,1.874-0.567,3.707-1.857,5.074
		C379.138,381.52,377.344,382.293,375.467,382.293z"/>
	<path style="fill:#602F75;" d="M225.28,177.613c-3.837,0-6.946-3.106-6.946-6.946V95.573c0-3.84,3.11-6.946,6.946-6.946
		s6.946,3.106,6.946,6.946v75.093C232.228,174.507,229.117,177.613,225.28,177.613z"/>
	<path style="fill:#602F75;" d="M191.147,129.826c-3.837,0-6.946-3.106-6.946-6.946V95.573c0-3.84,3.11-6.946,6.946-6.946
		s6.946,3.106,6.946,6.946v27.307C198.095,126.72,194.984,129.826,191.147,129.826z"/>
	<path style="fill:#602F75;" d="M54.614,225.28c-3.77,0-6.827-3.053-6.827-6.827s3.057-6.827,6.827-6.827
		c26.349,0,47.787-21.439,47.787-47.787v-27.307H54.614c-3.77,0-6.827-3.053-6.827-6.827c0-3.773,3.057-6.827,6.827-6.827h54.613
		c3.77,0,6.827,3.053,6.827,6.827v34.133C116.054,197.721,88.491,225.28,54.614,225.28z"/>
	<path style="fill:#602F75;" d="M361.814,225.28c-33.877,0-61.44-27.559-61.44-61.44v-34.133c0-3.773,3.057-6.827,6.827-6.827
		h54.613c3.77,0,6.827,3.053,6.827,6.827c0,3.773-3.057,6.827-6.827,6.827h-47.787v27.307c0,26.348,21.437,47.787,47.787,47.787
		c3.77,0,6.827,3.053,6.827,6.827S365.584,225.28,361.814,225.28z"/>
</g>
<g>
</g>
<g>
</g>
<g>
</g>
<g>
</g>
<g>
</g>
<g>
</g>
<g>
</g>
<g>
</g>
<g>
</g>
<g>
</g>
<g>
</g>
<g>
</g>
<g>
</g>
<g>
</g>
<g>
</g>
</svg>
