<?xml version="1.0" encoding="iso-8859-1"?>
<!-- Generator: Adobe Illustrator 19.0.0, SVG Export Plug-In . SVG Version: 6.00 Build 0)  -->
<svg version="1.1" id="Capa_1" xmlns="http://www.w3.org/2000/svg" xmlns:xlink="http://www.w3.org/1999/xlink" x="0px" y="0px"
	 viewBox="0 0 416.427 416.427" style="enable-background:new 0 0 416.427 416.427;" xml:space="preserve">
<path style="fill:#FFE600;" d="M344.746,390.166c0,10.733-8.701,19.434-19.434,19.434H91.113c-10.733,0-19.434-8.701-19.434-19.434
	V46.74c0-10.733,8.701-19.434,19.434-19.434h234.201c10.732,0,19.432,8.701,19.432,19.434v294.593"/>
<path style="fill:#602F75;" d="M325.312,416.427H91.113c-14.481,0-26.26-11.779-26.26-26.26V46.74
	c0-14.481,11.779-26.26,26.26-26.26h234.201c14.479,0,26.259,11.779,26.259,26.26v294.593c0,3.773-3.053,6.827-6.827,6.827
	s-6.827-3.053-6.827-6.827V46.74c0-6.953-5.652-12.607-12.607-12.607H91.113c-6.955,0-12.607,5.652-12.607,12.607v343.427
	c0,6.953,5.652,12.607,12.607,12.607h234.201c6.953,0,12.607-5.652,12.607-12.607c0-3.773,3.053-6.827,6.827-6.827
	s6.827,3.053,6.827,6.827C351.572,404.647,339.793,416.427,325.312,416.427z"/>
<rect x="98.986" y="54.613" style="fill:#FFFFFF;" width="218.453" height="327.68"/>
<path style="fill:#602F75;" d="M317.439,389.12H98.986c-3.773,0-6.827-3.053-6.827-6.827V54.613c0-3.773,3.053-6.827,6.827-6.827
	h218.453c3.773,0,6.827,3.053,6.827,6.827v327.68C324.266,386.067,321.213,389.12,317.439,389.12z M105.812,375.467h204.8V61.44
	h-204.8V375.467z"/>
<path style="fill:#EA3457;" d="M243.346,27.307h-14.653c0-11.31-9.17-20.48-20.48-20.48s-20.48,9.17-20.48,20.48h-14.653
	c-10.759,0-19.48,8.721-19.48,19.48v2c0,10.759,8.721,19.48,19.48,19.48h70.267c10.759,0,19.48-8.721,19.48-19.48v-2
	C262.826,36.028,254.105,27.307,243.346,27.307z"/>
<g>
	<path style="fill:#602F75;" d="M243.346,75.093h-70.267c-14.507,0-26.307-11.8-26.307-26.307v-2
		c0-14.507,11.8-26.307,26.307-26.307h8.694C184.806,8.713,195.513,0,208.212,0s23.407,8.713,26.44,20.48h8.694
		c14.507,0,26.307,11.8,26.307,26.307v2C269.652,63.293,257.853,75.093,243.346,75.093z M173.079,34.133
		c-6.98,0-12.653,5.673-12.653,12.653v2c0,6.98,5.673,12.653,12.653,12.653h70.267c6.98,0,12.653-5.673,12.653-12.653v-2
		c0-6.98-5.673-12.653-12.653-12.653h-14.653c-3.773,0-6.827-3.053-6.827-6.827c0-7.526-6.127-13.653-13.653-13.653
		s-13.653,6.127-13.653,13.653c0,3.773-3.053,6.827-6.827,6.827C187.732,34.133,173.079,34.133,173.079,34.133z"/>
	<path style="fill:#602F75;" d="M276.479,136.533h-68.267c-3.773,0-6.827-3.053-6.827-6.827c0-3.773,3.053-6.827,6.827-6.827h68.267
		c3.773,0,6.827,3.053,6.827,6.827C283.306,133.48,280.253,136.533,276.479,136.533z"/>
</g>
<path style="fill:#00E7FF;" d="M146.772,157.013c-1.333,0-2.654-0.393-3.787-1.147l-20.48-13.653
	c-3.14-2.094-3.987-6.327-1.893-9.467c2.087-3.14,6.313-3.987,9.467-1.893l13.653,9.1l17.246-40.24
	c1.487-3.473,5.513-5.081,8.96-3.587c3.466,1.487,5.074,5.501,3.587,8.96l-20.48,47.787c-0.8,1.867-2.386,3.28-4.326,3.86
	C148.08,156.919,147.426,157.013,146.772,157.013z"/>
<path style="fill:#602F75;" d="M276.479,225.28h-68.267c-3.773,0-6.827-3.053-6.827-6.827s3.053-6.827,6.827-6.827h68.267
	c3.773,0,6.827,3.053,6.827,6.827S280.253,225.28,276.479,225.28z"/>
<path style="fill:#00E7FF;" d="M146.772,245.76c-1.333,0-2.654-0.393-3.787-1.147l-20.48-13.653
	c-3.14-2.094-3.987-6.327-1.893-9.467c2.087-3.14,6.313-3.98,9.467-1.893l13.653,9.1l17.246-40.24
	c1.487-3.473,5.513-5.081,8.96-3.587c3.466,1.487,5.074,5.501,3.587,8.96l-20.48,47.787c-0.8,1.867-2.386,3.28-4.326,3.86
	C148.08,245.666,147.426,245.76,146.772,245.76z"/>
<path style="fill:#602F75;" d="M276.479,314.027h-68.267c-3.773,0-6.827-3.053-6.827-6.827s3.053-6.827,6.827-6.827h68.267
	c3.773,0,6.827,3.053,6.827,6.827S280.253,314.027,276.479,314.027z"/>
<path style="fill:#00E7FF;" d="M146.772,334.507c-1.333,0-2.654-0.393-3.787-1.147l-20.48-13.653
	c-3.14-2.094-3.987-6.327-1.893-9.467c2.087-3.14,6.313-3.98,9.467-1.893l13.653,9.1l17.246-40.24
	c1.487-3.473,5.513-5.081,8.96-3.587c3.466,1.487,5.074,5.501,3.587,8.96l-20.48,47.787c-0.8,1.867-2.386,3.28-4.326,3.86
	C148.08,334.413,147.426,334.507,146.772,334.507z"/>
<g>
</g>
<g>
</g>
<g>
</g>
<g>
</g>
<g>
</g>
<g>
</g>
<g>
</g>
<g>
</g>
<g>
</g>
<g>
</g>
<g>
</g>
<g>
</g>
<g>
</g>
<g>
</g>
<g>
</g>
</svg>
