<?xml version="1.0" encoding="iso-8859-1"?>
<!-- Generator: Adobe Illustrator 19.0.0, SVG Export Plug-In . SVG Version: 6.00 Build 0)  -->
<svg version="1.1" id="Capa_1" xmlns="http://www.w3.org/2000/svg" xmlns:xlink="http://www.w3.org/1999/xlink" x="0px" y="0px"
	 viewBox="0 0 368.64 368.64" style="enable-background:new 0 0 368.64 368.64;" xml:space="preserve">
<path style="fill:#FFE600;" d="M279.893,191.148V348.22c0,7.508-6.086,13.594-13.594,13.594H102.34
	c-7.508,0-13.594-6.086-13.594-13.594V20.42c0-7.508,6.086-13.594,13.594-13.594H266.3c7.508,0,13.594,6.086,13.594,13.594v64.91"/>
<path style="fill:#602F75;" d="M266.3,368.64H102.34c-11.261,0-20.42-9.16-20.42-20.42V20.42C81.92,9.16,91.08,0,102.34,0H266.3
	c11.261,0,20.42,9.16,20.42,20.42v64.906c0,3.773-3.053,6.827-6.827,6.827s-6.827-3.053-6.827-6.827V20.42
	c0-3.734-3.033-6.767-6.767-6.767H102.34c-3.734,0-6.767,3.033-6.767,6.767V348.22c0,3.734,3.033,6.767,6.767,6.767H266.3
	c3.734,0,6.767-3.033,6.767-6.767V191.147c0-3.773,3.053-6.827,6.827-6.827s6.827,3.053,6.827,6.827V348.22
	C286.72,359.48,277.56,368.64,266.3,368.64z"/>
<path style="fill:#602F75;" d="M279.893,174.08c-3.773,0-6.827-3.053-6.827-6.827v-58.027c0-3.773,3.053-6.827,6.827-6.827
	s6.827,3.053,6.827,6.827v58.027C286.72,171.027,283.667,174.08,279.893,174.08z"/>
<rect x="109.227" y="27.307" style="fill:#FFFFFF;" width="150.187" height="266.24"/>
<path style="fill:#602F75;" d="M259.413,300.373H109.227c-3.773,0-6.827-3.053-6.827-6.827V27.307c0-3.773,3.053-6.827,6.827-6.827
	h150.187c3.773,0,6.827,3.053,6.827,6.827v266.24C266.24,297.32,263.187,300.373,259.413,300.373z M116.053,286.72h136.533V34.133
	H116.053V286.72z"/>
<g>
	<circle style="fill:#EA3457;" cx="184.32" cy="327.68" r="13.653"/>
	<path style="fill:#EA3457;" d="M184.32,348.16c-11.293,0-20.48-9.187-20.48-20.48c0-11.293,9.187-20.48,20.48-20.48
		c11.293,0,20.48,9.187,20.48,20.48C204.8,338.973,195.613,348.16,184.32,348.16z M184.32,320.853c-3.767,0-6.827,3.06-6.827,6.827
		c0,3.767,3.06,6.827,6.827,6.827s6.827-3.06,6.827-6.827C191.147,323.913,188.087,320.853,184.32,320.853z"/>
</g>
<path style="fill:#602F75;" d="M232.107,88.747h-40.96c-3.773,0-6.827-3.053-6.827-6.827c0-3.773,3.053-6.827,6.827-6.827h40.96
	c3.773,0,6.827,3.053,6.827,6.827C238.933,85.693,235.88,88.747,232.107,88.747z"/>
<path style="fill:#00E7FF;" d="M150.187,109.227c-1.333,0-2.654-0.393-3.787-1.147l-20.48-13.653
	c-3.14-2.094-3.987-6.327-1.893-9.467c2.08-3.14,6.32-3.987,9.467-1.893l13.653,9.1l17.246-40.24
	c1.487-3.473,5.519-5.086,8.96-3.587c3.466,1.487,5.074,5.501,3.587,8.96l-20.48,47.787c-0.8,1.867-2.386,3.28-4.326,3.86
	C151.494,109.133,150.84,109.227,150.187,109.227z"/>
<path style="fill:#602F75;" d="M232.107,170.667h-40.96c-3.773,0-6.827-3.053-6.827-6.827c0-3.773,3.053-6.827,6.827-6.827h40.96
	c3.773,0,6.827,3.053,6.827,6.827C238.933,167.613,235.88,170.667,232.107,170.667z"/>
<path style="fill:#00E7FF;" d="M150.187,191.147c-1.333,0-2.654-0.393-3.787-1.147l-20.48-13.653
	c-3.14-2.094-3.987-6.327-1.893-9.467c2.08-3.14,6.32-3.987,9.467-1.893l13.653,9.1l17.246-40.24c1.487-3.48,5.519-5.081,8.96-3.587
	c3.466,1.486,5.074,5.501,3.587,8.96l-20.48,47.787c-0.8,1.867-2.386,3.28-4.326,3.86
	C151.494,191.053,150.84,191.147,150.187,191.147z"/>
<path style="fill:#602F75;" d="M232.107,252.587h-40.96c-3.773,0-6.827-3.053-6.827-6.827s3.053-6.827,6.827-6.827h40.96
	c3.773,0,6.827,3.053,6.827,6.827S235.88,252.587,232.107,252.587z"/>
<path style="fill:#00E7FF;" d="M150.187,273.067c-1.333,0-2.654-0.393-3.787-1.147l-20.48-13.653
	c-3.14-2.094-3.987-6.327-1.893-9.467c2.08-3.14,6.32-3.987,9.467-1.893l13.653,9.1l17.246-40.24
	c1.487-3.473,5.519-5.086,8.96-3.587c3.466,1.487,5.074,5.501,3.587,8.96l-20.48,47.787c-0.8,1.867-2.386,3.28-4.326,3.86
	C151.494,272.973,150.84,273.067,150.187,273.067z"/>
<g>
</g>
<g>
</g>
<g>
</g>
<g>
</g>
<g>
</g>
<g>
</g>
<g>
</g>
<g>
</g>
<g>
</g>
<g>
</g>
<g>
</g>
<g>
</g>
<g>
</g>
<g>
</g>
<g>
</g>
</svg>
