<?xml version="1.0" encoding="iso-8859-1"?>
<!-- Generator: Adobe Illustrator 19.0.0, SVG Export Plug-In . SVG Version: 6.00 Build 0)  -->
<svg version="1.1" id="Capa_1" xmlns="http://www.w3.org/2000/svg" xmlns:xlink="http://www.w3.org/1999/xlink" x="0px" y="0px"
	 viewBox="0 0 395.947 395.947" style="enable-background:new 0 0 395.947 395.947;" xml:space="preserve">
<polyline style="fill:#FFFFFF;" points="341.333,177.493 341.333,295.253 47.787,295.253 47.787,177.493 "/>
<path style="fill:#602F75;" d="M341.333,302.08H47.787c-3.773,0-6.827-3.053-6.827-6.827v-117.76c0-3.773,3.053-6.827,6.827-6.827
	s6.827,3.053,6.827,6.827v110.933h279.893V177.493c0-3.773,3.053-6.827,6.827-6.827s6.827,3.053,6.827,6.827v117.76
	C348.16,299.027,345.107,302.08,341.333,302.08z"/>
<path style="fill:#EAEAEA;" d="M315.044,341.333H74.076c-14.519,0-26.289-11.771-26.289-26.29v-21.497h293.547v21.497
	C341.333,329.562,329.562,341.333,315.044,341.333z"/>
<path style="fill:#602F75;" d="M315.04,348.16H74.08c-18.26,0-33.12-14.86-33.12-33.12v-21.494c0-3.773,3.053-6.827,6.827-6.827
	h293.547c3.773,0,6.827,3.053,6.827,6.827v21.494C348.16,333.3,333.3,348.16,315.04,348.16z M54.613,300.373v14.667
	c0,10.733,8.733,19.466,19.466,19.466H315.04c10.733,0,19.466-8.733,19.466-19.466v-14.667H54.613z"/>
<polygon style="fill:#FFFFFF;" points="238.08,382.293 151.04,382.293 176.34,341.333 212.78,341.333 "/>
<path style="fill:#602F75;" d="M238.08,389.12h-87.04c-2.473,0-4.753-1.34-5.96-3.5c-1.207-2.161-1.147-4.806,0.154-6.914
	l25.3-40.96c1.241-2.014,3.441-3.239,5.806-3.239h36.441c2.367,0,4.567,1.227,5.806,3.239l25.3,40.96
	c1.3,2.106,1.36,4.753,0.154,6.914C242.833,387.78,240.553,389.12,238.08,389.12z M163.28,375.467h62.56l-16.867-27.307h-28.827
	L163.28,375.467z"/>
<g>
	<path style="fill:#00E7FF;" d="M264.533,277.333c-1.746,0-3.494-0.667-4.826-2c-2.666-2.666-2.666-6.987,0-9.653l43.52-43.52
		c2.666-2.666,6.987-2.666,9.653,0c2.666,2.666,2.666,6.987,0,9.653l-43.52,43.52C268.027,276.666,266.279,277.333,264.533,277.333z
		"/>
	<path style="fill:#00E7FF;" d="M297.813,274.773c-1.746,0-3.494-0.667-4.826-2c-2.666-2.666-2.666-6.987,0-9.653l15.36-15.36
		c2.666-2.666,6.987-2.666,9.653,0c2.666,2.666,2.666,6.987,0,9.653l-15.36,15.36C301.307,274.106,299.559,274.773,297.813,274.773z
		"/>
</g>
<path style="fill:#602F75;" d="M268.8,389.12H115.2c-3.773,0-6.827-3.053-6.827-6.827s3.053-6.827,6.827-6.827h153.6
	c3.773,0,6.827,3.053,6.827,6.827S272.573,389.12,268.8,389.12z"/>
<path style="fill:#FFE600;" d="M88.747,150.187L88.747,150.187c-15.082,0-27.307-12.225-27.307-27.307V13.653h54.613V122.88
	C116.053,137.962,103.828,150.187,88.747,150.187z"/>
<path style="fill:#602F75;" d="M88.747,157.013c-18.819,0-34.133-15.314-34.133-34.133V13.653c0-3.773,3.053-6.827,6.827-6.827
	h54.613c3.773,0,6.827,3.053,6.827,6.827V122.88C122.88,141.699,107.566,157.013,88.747,157.013z M68.267,20.48v102.4
	c0,11.293,9.187,20.48,20.48,20.48s20.48-9.187,20.48-20.48V20.48H68.267z"/>
<path style="fill:#EA3457;" d="M143.36,150.187L143.36,150.187c-15.082,0-27.307-12.225-27.307-27.307V13.653h54.613V122.88
	C170.667,137.962,158.442,150.187,143.36,150.187z"/>
<path style="fill:#602F75;" d="M143.36,157.013c-18.819,0-34.133-15.314-34.133-34.133V13.653c0-3.773,3.053-6.827,6.827-6.827
	h54.613c3.773,0,6.827,3.053,6.827,6.827V122.88C177.493,141.699,162.179,157.013,143.36,157.013z M122.88,20.48v102.4
	c0,11.293,9.187,20.48,20.48,20.48c11.293,0,20.48-9.187,20.48-20.48V20.48H122.88z"/>
<path style="fill:#EA3457;" d="M34.133,150.187L34.133,150.187c-15.082,0-27.307-12.225-27.307-27.307L20.48,13.653h40.96V122.88
	C61.44,137.962,49.215,150.187,34.133,150.187z"/>
<path style="fill:#602F75;" d="M34.133,157.013C15.314,157.013,0,141.699,0,122.88c0-0.28,0.02-0.567,0.053-0.847L13.706,12.807
	c0.427-3.413,3.333-5.98,6.774-5.98h40.96c3.773,0,6.827,3.053,6.827,6.827V122.88C68.267,141.699,52.953,157.013,34.133,157.013z
	 M13.66,123.273c0.207,11.114,9.313,20.087,20.473,20.087c11.293,0,20.48-9.187,20.48-20.48V20.48H26.506L13.66,123.273z"/>
<path style="fill:#FFE600;" d="M197.973,150.187L197.973,150.187c-15.082,0-27.307-12.225-27.307-27.307V13.653h54.613V122.88
	C225.28,137.962,213.055,150.187,197.973,150.187z"/>
<path style="fill:#602F75;" d="M197.973,157.013c-18.819,0-34.133-15.314-34.133-34.133V13.653c0-3.773,3.053-6.827,6.827-6.827
	h54.613c3.773,0,6.827,3.053,6.827,6.827V122.88C232.107,141.699,216.793,157.013,197.973,157.013z M177.493,20.48v102.4
	c0,11.293,9.187,20.48,20.48,20.48c11.293,0,20.48-9.187,20.48-20.48V20.48H177.493z"/>
<path style="fill:#EA3457;" d="M252.587,150.187L252.587,150.187c-15.082,0-27.307-12.225-27.307-27.307V13.653h54.613V122.88
	C279.893,137.962,267.668,150.187,252.587,150.187z"/>
<path style="fill:#602F75;" d="M252.587,157.013c-18.819,0-34.133-15.314-34.133-34.133V13.653c0-3.773,3.053-6.827,6.827-6.827
	h54.613c3.773,0,6.827,3.053,6.827,6.827V122.88C286.72,141.699,271.406,157.013,252.587,157.013z M232.107,20.48v102.4
	c0,11.293,9.187,20.48,20.48,20.48c11.293,0,20.48-9.187,20.48-20.48V20.48H232.107z"/>
<path style="fill:#EA3457;" d="M361.813,150.187L361.813,150.187c-15.082,0-27.307-12.225-27.307-27.307V13.653h40.96L389.12,122.88
	C389.12,137.962,376.895,150.187,361.813,150.187z"/>
<path style="fill:#602F75;" d="M361.813,157.013c-18.819,0-34.133-15.314-34.133-34.133V13.653c0-3.773,3.053-6.827,6.827-6.827
	h40.96c3.441,0,6.347,2.567,6.774,5.98l13.653,109.227c0.034,0.28,0.053,0.567,0.053,0.847
	C395.947,141.699,380.633,157.013,361.813,157.013z M341.333,20.48v102.4c0,11.293,9.187,20.48,20.48,20.48
	c11.16,0,20.267-8.974,20.473-20.087L369.44,20.48H341.333z"/>
<path style="fill:#FFE600;" d="M307.2,150.187L307.2,150.187c-15.082,0-27.307-12.225-27.307-27.307V13.653h54.613V122.88
	C334.507,137.962,322.282,150.187,307.2,150.187z"/>
<path style="fill:#602F75;" d="M307.2,157.013c-18.819,0-34.133-15.314-34.133-34.133V13.653c0-3.773,3.053-6.827,6.827-6.827
	h54.613c3.773,0,6.827,3.053,6.827,6.827V122.88C341.333,141.699,326.019,157.013,307.2,157.013z M286.72,20.48v102.4
	c0,11.293,9.187,20.48,20.48,20.48s20.48-9.187,20.48-20.48V20.48H286.72z"/>
<g>
</g>
<g>
</g>
<g>
</g>
<g>
</g>
<g>
</g>
<g>
</g>
<g>
</g>
<g>
</g>
<g>
</g>
<g>
</g>
<g>
</g>
<g>
</g>
<g>
</g>
<g>
</g>
<g>
</g>
</svg>
