<?xml version="1.0" encoding="iso-8859-1"?>
<!-- Generator: Adobe Illustrator 19.0.0, SVG Export Plug-In . SVG Version: 6.00 Build 0)  -->
<svg version="1.1" id="Capa_1" xmlns="http://www.w3.org/2000/svg" xmlns:xlink="http://www.w3.org/1999/xlink" x="0px" y="0px"
	 viewBox="0 0 409.6 409.6" style="enable-background:new 0 0 409.6 409.6;" xml:space="preserve">
<path style="fill:#FFFFFF;" d="M351.413,391.075H58.187c-13.285,0-24.054-10.769-24.054-24.054v-173.92h341.333v173.92
	C375.467,380.308,364.698,391.075,351.413,391.075z"/>
<path style="fill:#602F75;" d="M351.413,398.023H58.187c-17.094,0-31-13.906-31-31V193.102c0-3.84,3.11-6.946,6.946-6.946h341.333
	c3.837,0,6.946,3.106,6.946,6.946v173.92C382.413,384.115,368.507,398.023,351.413,398.023z M41.079,200.05v166.973
	c0,9.433,7.673,17.106,17.106,17.106h293.226c9.433,0,17.106-7.673,17.106-17.106V200.05H41.079z"/>
<path style="fill:#FFE600;" d="M261.12,138.489h130.884c5.948,0,10.771,4.821,10.771,10.771v33.073
	c0,5.948-4.821,10.771-10.771,10.771H17.597c-5.948,0-10.771-4.821-10.771-10.771v-33.073c0-5.948,4.821-10.771,10.771-10.771
	h175.258"/>
<path style="fill:#602F75;" d="M392.003,199.929H17.597C7.893,199.929,0,192.035,0,182.329v-33.067
	c0-9.708,7.893-17.599,17.597-17.599h175.256c3.77,0,6.827,3.053,6.827,6.827s-3.057,6.827-6.827,6.827H17.597
	c-2.173,0-3.944,1.773-3.944,3.946v33.067c0,2.173,1.77,3.946,3.944,3.946h374.407c2.173,0,3.944-1.773,3.944-3.946v-33.067
	c0-2.173-1.77-3.946-3.944-3.946H261.12c-3.77,0-6.827-3.053-6.827-6.827s3.057-6.827,6.827-6.827h130.883
	c9.704,0,17.597,7.893,17.597,17.599v33.067C409.6,192.035,401.707,199.929,392.003,199.929z"/>
<path style="fill:#EA3457;" d="M81.021,24.142L81.021,24.142c-7.997,7.997-7.997,20.965,0,28.964l110.176,110.176
	c7.997,7.997,20.965,7.997,28.964,0l0,0c7.997-7.997,7.997-20.965,0-28.964L109.984,24.142
	C101.985,16.144,89.018,16.144,81.021,24.142z"/>
<path style="fill:#602F75;" d="M205.677,176.109c-7.293,0-14.15-2.84-19.306-8.001L76.194,57.929
	c-5.156-5.154-7.997-12.013-7.997-19.306s2.84-14.147,7.997-19.306l0,0c10.313-10.32,28.303-10.32,38.617,0l110.177,110.174
	c10.643,10.646,10.643,27.974,0,38.62C219.831,173.269,212.973,176.109,205.677,176.109z M85.847,28.97
	c-2.577,2.58-3.997,6.007-3.997,9.653s1.42,7.074,3.997,9.653l110.177,110.181c5.163,5.159,14.153,5.159,19.309,0
	c5.32-5.327,5.32-13.986,0-19.313L105.156,28.97C99.997,23.809,91.006,23.809,85.847,28.97z"/>
<g>
	<circle style="fill:#00E7FF;" cx="85.333" cy="237.482" r="17.067"/>
	<path style="fill:#00E7FF;" d="M85.333,261.369c-13.174,0-23.893-10.72-23.893-23.893s10.72-23.893,23.893-23.893
		s23.893,10.72,23.893,23.893S98.507,261.369,85.333,261.369z M85.333,227.235c-5.647,0-10.24,4.593-10.24,10.24
		s4.593,10.24,10.24,10.24s10.24-4.593,10.24-10.24S90.981,227.235,85.333,227.235z"/>
	<circle style="fill:#00E7FF;" cx="153.6" cy="237.482" r="17.067"/>
	<path style="fill:#00E7FF;" d="M153.6,261.369c-13.174,0-23.893-10.72-23.893-23.893s10.72-23.893,23.893-23.893
		s23.893,10.72,23.893,23.893S166.774,261.369,153.6,261.369z M153.6,227.235c-5.647,0-10.24,4.593-10.24,10.24
		s4.593,10.24,10.24,10.24s10.24-4.593,10.24-10.24S159.247,227.235,153.6,227.235z"/>
	<circle style="fill:#00E7FF;" cx="256" cy="237.482" r="17.067"/>
	<path style="fill:#00E7FF;" d="M256,261.369c-13.174,0-23.893-10.72-23.893-23.893s10.72-23.893,23.893-23.893
		c13.174,0,23.893,10.72,23.893,23.893S269.174,261.369,256,261.369z M256,227.235c-5.647,0-10.24,4.593-10.24,10.24
		s4.593,10.24,10.24,10.24s10.24-4.593,10.24-10.24S261.647,227.235,256,227.235z"/>
	<circle style="fill:#00E7FF;" cx="324.267" cy="237.482" r="17.067"/>
	<path style="fill:#00E7FF;" d="M324.267,261.369c-13.174,0-23.893-10.72-23.893-23.893s10.72-23.893,23.893-23.893
		c13.174,0,23.893,10.72,23.893,23.893S337.44,261.369,324.267,261.369z M324.267,227.235c-5.647,0-10.24,4.593-10.24,10.24
		s4.593,10.24,10.24,10.24s10.24-4.593,10.24-10.24S329.914,227.235,324.267,227.235z"/>
	<circle style="fill:#00E7FF;" cx="85.333" cy="292.095" r="17.067"/>
	<path style="fill:#00E7FF;" d="M85.333,315.982c-13.174,0-23.893-10.72-23.893-23.893c0-13.174,10.72-23.893,23.893-23.893
		s23.893,10.72,23.893,23.893C109.227,305.262,98.507,315.982,85.333,315.982z M85.333,281.849c-5.647,0-10.24,4.593-10.24,10.24
		s4.593,10.24,10.24,10.24s10.24-4.593,10.24-10.24S90.981,281.849,85.333,281.849z"/>
	<circle style="fill:#00E7FF;" cx="153.6" cy="292.095" r="17.067"/>
	<path style="fill:#00E7FF;" d="M153.6,315.982c-13.174,0-23.893-10.72-23.893-23.893c0-13.174,10.72-23.893,23.893-23.893
		s23.893,10.72,23.893,23.893C177.493,305.262,166.774,315.982,153.6,315.982z M153.6,281.849c-5.647,0-10.24,4.593-10.24,10.24
		s4.593,10.24,10.24,10.24s10.24-4.593,10.24-10.24S159.247,281.849,153.6,281.849z"/>
	<circle style="fill:#00E7FF;" cx="256" cy="292.095" r="17.067"/>
	<path style="fill:#00E7FF;" d="M256,315.982c-13.174,0-23.893-10.72-23.893-23.893c0-13.174,10.72-23.893,23.893-23.893
		c13.174,0,23.893,10.72,23.893,23.893C279.893,305.262,269.174,315.982,256,315.982z M256,281.849
		c-5.647,0-10.24,4.593-10.24,10.24s4.593,10.24,10.24,10.24s10.24-4.593,10.24-10.24S261.647,281.849,256,281.849z"/>
	<circle style="fill:#00E7FF;" cx="324.267" cy="292.095" r="17.067"/>
	<path style="fill:#00E7FF;" d="M324.267,315.982c-13.174,0-23.893-10.72-23.893-23.893c0-13.174,10.72-23.893,23.893-23.893
		c13.174,0,23.893,10.72,23.893,23.893C348.16,305.262,337.44,315.982,324.267,315.982z M324.267,281.849
		c-5.647,0-10.24,4.593-10.24,10.24s4.593,10.24,10.24,10.24s10.24-4.593,10.24-10.24S329.914,281.849,324.267,281.849z"/>
	<circle style="fill:#00E7FF;" cx="85.333" cy="346.709" r="17.067"/>
	<path style="fill:#00E7FF;" d="M85.333,370.595c-13.174,0-23.893-10.72-23.893-23.893c0-13.174,10.72-23.893,23.893-23.893
		s23.893,10.72,23.893,23.893C109.227,359.876,98.507,370.595,85.333,370.595z M85.333,336.462c-5.647,0-10.24,4.593-10.24,10.24
		s4.593,10.24,10.24,10.24s10.24-4.593,10.24-10.24S90.981,336.462,85.333,336.462z"/>
	<circle style="fill:#00E7FF;" cx="153.6" cy="346.709" r="17.067"/>
	<path style="fill:#00E7FF;" d="M153.6,370.595c-13.174,0-23.893-10.72-23.893-23.893c0-13.174,10.72-23.893,23.893-23.893
		s23.893,10.72,23.893,23.893C177.493,359.876,166.774,370.595,153.6,370.595z M153.6,336.462c-5.647,0-10.24,4.593-10.24,10.24
		s4.593,10.24,10.24,10.24s10.24-4.593,10.24-10.24S159.247,336.462,153.6,336.462z"/>
	<circle style="fill:#00E7FF;" cx="256" cy="346.709" r="17.067"/>
	<path style="fill:#00E7FF;" d="M256,370.595c-13.174,0-23.893-10.72-23.893-23.893c0-13.174,10.72-23.893,23.893-23.893
		c13.174,0,23.893,10.72,23.893,23.893C279.893,359.876,269.174,370.595,256,370.595z M256,336.462
		c-5.647,0-10.24,4.593-10.24,10.24s4.593,10.24,10.24,10.24s10.24-4.593,10.24-10.24S261.647,336.462,256,336.462z"/>
	<circle style="fill:#00E7FF;" cx="324.267" cy="346.709" r="17.067"/>
	<path style="fill:#00E7FF;" d="M324.267,370.595c-13.174,0-23.893-10.72-23.893-23.893c0-13.174,10.72-23.893,23.893-23.893
		c13.174,0,23.893,10.72,23.893,23.893C348.16,359.876,337.44,370.595,324.267,370.595z M324.267,336.462
		c-5.647,0-10.24,4.593-10.24,10.24s4.593,10.24,10.24,10.24s10.24-4.593,10.24-10.24S329.914,336.462,324.267,336.462z"/>
</g>
<g>
</g>
<g>
</g>
<g>
</g>
<g>
</g>
<g>
</g>
<g>
</g>
<g>
</g>
<g>
</g>
<g>
</g>
<g>
</g>
<g>
</g>
<g>
</g>
<g>
</g>
<g>
</g>
<g>
</g>
</svg>
