<?xml version="1.0" encoding="iso-8859-1"?>
<!-- Generator: Adobe Illustrator 19.0.0, SVG Export Plug-In . SVG Version: 6.00 Build 0)  -->
<svg version="1.1" id="Capa_1" xmlns="http://www.w3.org/2000/svg" xmlns:xlink="http://www.w3.org/1999/xlink" x="0px" y="0px"
	 viewBox="0 0 395.926 395.926" style="enable-background:new 0 0 395.926 395.926;" xml:space="preserve">
<polyline style="fill:#FFFFFF;" points="40.96,197.963 354.987,197.963 354.987,354.976 40.96,354.976 40.96,271.348 "/>
<path style="fill:#602F75;" d="M354.987,361.803H40.96c-3.773,0-6.827-3.053-6.827-6.827V271.35c0-3.773,3.053-6.827,6.827-6.827
	s6.827,3.053,6.827,6.827v76.8H348.16V204.79H40.96c-3.773,0-6.827-3.053-6.827-6.827s3.053-6.827,6.827-6.827h314.027
	c3.773,0,6.827,3.053,6.827,6.827v157.013C361.813,358.75,358.76,361.803,354.987,361.803z"/>
<g>
	<rect x="88.754" y="211.616" style="fill:#00E7FF;" width="88.747" height="75.093"/>
	<path style="fill:#00E7FF;" d="M177.493,293.536H88.747c-3.773,0-6.827-3.053-6.827-6.827v-75.093c0-3.773,3.053-6.827,6.827-6.827
		h88.747c3.773,0,6.827,3.053,6.827,6.827v75.093C184.32,290.483,181.267,293.536,177.493,293.536z M95.573,279.883h75.093v-61.44
		H95.573V279.883z"/>
</g>
<rect x="232.113" y="204.79" style="fill:#FFFFFF;" width="81.92" height="150.187"/>
<path style="fill:#602F75;" d="M314.027,361.803h-81.92c-3.773,0-6.827-3.053-6.827-6.827V204.79c0-3.773,3.053-6.827,6.827-6.827
	h81.92c3.773,0,6.827,3.053,6.827,6.827v150.187C320.853,358.75,317.8,361.803,314.027,361.803z M238.933,348.15H307.2V211.616
	h-68.267V348.15z"/>
<path style="fill:#FFE600;" d="M88.747,238.923L88.747,238.923c-15.082,0-27.307-12.225-27.307-27.307V40.95h54.613v170.667
	C116.053,226.698,103.827,238.923,88.747,238.923z"/>
<path style="fill:#602F75;" d="M88.747,245.75c-18.819,0-34.133-15.314-34.133-34.133V40.95c0-3.773,3.053-6.827,6.827-6.827h54.613
	c3.773,0,6.827,3.053,6.827,6.827v170.667C122.88,230.436,107.566,245.75,88.747,245.75z M68.267,47.776v163.84
	c0,11.293,9.187,20.48,20.48,20.48s20.48-9.187,20.48-20.48V47.776H68.267z"/>
<path style="fill:#EA3457;" d="M143.36,238.923L143.36,238.923c-15.082,0-27.307-12.225-27.307-27.307V40.95h54.613v170.667
	C170.667,226.698,158.44,238.923,143.36,238.923z"/>
<path style="fill:#602F75;" d="M143.36,245.75c-18.819,0-34.133-15.314-34.133-34.133V40.95c0-3.773,3.053-6.827,6.827-6.827h54.613
	c3.773,0,6.827,3.053,6.827,6.827v170.667C177.493,230.436,162.179,245.75,143.36,245.75z M122.88,47.776v163.84
	c0,11.293,9.187,20.48,20.48,20.48c11.293,0,20.48-9.187,20.48-20.48V47.776H122.88z"/>
<path style="fill:#EA3457;" d="M34.133,238.923L34.133,238.923c-15.082,0-27.307-12.225-27.307-27.307L20.48,40.95h40.96v170.667
	C61.44,226.698,49.213,238.923,34.133,238.923z"/>
<path style="fill:#602F75;" d="M34.133,245.75C15.314,245.75,0,230.436,0,211.616L13.674,40.404
	c0.287-3.546,3.246-6.281,6.806-6.281h40.96c3.773,0,6.827,3.053,6.827,6.827v170.667C68.267,230.436,52.953,245.75,34.133,245.75z
	 M26.779,47.776L13.633,212.163c0.02,10.747,9.207,19.934,20.5,19.934s20.48-9.187,20.48-20.48V47.776H26.779z"/>
<path style="fill:#FFE600;" d="M197.973,238.923L197.973,238.923c-15.082,0-27.307-12.225-27.307-27.307V40.95h54.613v170.667
	C225.28,226.698,213.053,238.923,197.973,238.923z"/>
<path style="fill:#602F75;" d="M197.973,245.75c-18.819,0-34.133-15.314-34.133-34.133V40.95c0-3.773,3.053-6.827,6.827-6.827
	h54.613c3.773,0,6.827,3.053,6.827,6.827v170.667C232.107,230.436,216.793,245.75,197.973,245.75z M177.493,47.776v163.84
	c0,11.293,9.187,20.48,20.48,20.48c11.293,0,20.48-9.187,20.48-20.48V47.776H177.493z"/>
<path style="fill:#EA3457;" d="M252.587,238.923L252.587,238.923c-15.082,0-27.307-12.225-27.307-27.307V40.95h54.613v170.667
	C279.893,226.698,267.667,238.923,252.587,238.923z"/>
<path style="fill:#602F75;" d="M252.587,245.75c-18.819,0-34.133-15.314-34.133-34.133V40.95c0-3.773,3.053-6.827,6.827-6.827
	h54.613c3.773,0,6.827,3.053,6.827,6.827v170.667C286.72,230.436,271.406,245.75,252.587,245.75z M232.107,47.776v163.84
	c0,11.293,9.187,20.48,20.48,20.48s20.48-9.187,20.48-20.48V47.776H232.107z"/>
<path style="fill:#EA3457;" d="M361.813,238.923L361.813,238.923c-15.082,0-27.307-12.225-27.307-27.307V40.95h40.96l13.653,170.667
	C389.12,226.698,376.893,238.923,361.813,238.923z"/>
<path style="fill:#602F75;" d="M361.813,245.75c-18.819,0-34.133-15.314-34.133-34.133V40.95c0-3.773,3.053-6.827,6.827-6.827h40.96
	c3.56,0,6.519,2.734,6.806,6.281l13.653,170.667C395.947,230.436,380.633,245.75,361.813,245.75z M341.333,47.776v163.84
	c0,11.293,9.187,20.48,20.48,20.48c11.293,0,20.48-9.187,20.48-20.48l-13.126-163.84H341.333z"/>
<path style="fill:#FFE600;" d="M307.2,238.923L307.2,238.923c-15.082,0-27.307-12.225-27.307-27.307V40.95h54.613v170.667
	C334.507,226.698,322.28,238.923,307.2,238.923z"/>
<g>
	<path style="fill:#602F75;" d="M307.2,245.75c-18.819,0-34.133-15.314-34.133-34.133V40.95c0-3.773,3.053-6.827,6.827-6.827h54.613
		c3.773,0,6.827,3.053,6.827,6.827v170.667C341.333,230.436,326.019,245.75,307.2,245.75z M286.72,47.776v163.84
		c0,11.293,9.187,20.48,20.48,20.48c11.293,0,20.48-9.187,20.48-20.48V47.776H286.72z"/>
	<path style="fill:#602F75;" d="M293.547,286.71h-13.653c-3.773,0-6.827-3.053-6.827-6.827s3.053-6.827,6.827-6.827h13.653
		c3.773,0,6.827,3.053,6.827,6.827S297.32,286.71,293.547,286.71z"/>
</g>
<g>
</g>
<g>
</g>
<g>
</g>
<g>
</g>
<g>
</g>
<g>
</g>
<g>
</g>
<g>
</g>
<g>
</g>
<g>
</g>
<g>
</g>
<g>
</g>
<g>
</g>
<g>
</g>
<g>
</g>
</svg>
