<?xml version="1.0" encoding="iso-8859-1"?>
<!-- Generator: Adobe Illustrator 19.0.0, SVG Export Plug-In . SVG Version: 6.00 Build 0)  -->
<svg version="1.1" id="Capa_1" xmlns="http://www.w3.org/2000/svg" xmlns:xlink="http://www.w3.org/1999/xlink" x="0px" y="0px"
	 viewBox="0 0 389.123 389.123" style="enable-background:new 0 0 389.123 389.123;" xml:space="preserve">
<path style="fill:#FFFFFF;" d="M146.777,382.296H73.368c-12.242,0-22.166-9.924-22.166-22.166V56.302
	c0-12.242,9.924-22.166,22.166-22.166h242.389c12.242,0,22.166,9.924,22.166,22.166v303.829c0,12.242-9.924,22.166-22.166,22.166
	H194.562"/>
<path style="fill:#602F75;" d="M315.756,389.123H194.562c-3.773,0-6.827-3.053-6.827-6.827s3.053-6.827,6.827-6.827h121.194
	c8.46,0,15.34-6.88,15.34-15.34V56.304c0-8.46-6.88-15.34-15.34-15.34H73.368c-8.46,0-15.34,6.88-15.34,15.34V360.13
	c0,8.46,6.88,15.34,15.34,15.34h73.407c3.773,0,6.827,3.053,6.827,6.827s-3.053,6.827-6.827,6.827H73.368
	c-15.986,0-28.993-13.007-28.993-28.993V56.304c0-15.986,13.007-28.993,28.993-28.993h242.386c15.986,0,28.993,13.007,28.993,28.993
	V360.13C344.749,376.116,331.742,389.123,315.756,389.123z"/>
<polygon style="fill:#EAEAEA;" points="193.736,78.509 274.83,6.829 112.642,6.829 "/>
<g>
	<path style="fill:#602F75;" d="M193.736,85.336c-1.613,0-3.234-0.573-4.519-1.713l-81.094-71.68
		c-2.127-1.881-2.867-4.873-1.867-7.533c1.007-2.654,3.546-4.407,6.386-4.407h162.186c2.84,0,5.379,1.753,6.386,4.407
		c1,2.661,0.259,5.652-1.867,7.533l-81.094,71.68C196.969,84.763,195.349,85.336,193.736,85.336z M130.675,13.656l63.06,55.74
		l63.06-55.74C256.794,13.656,130.675,13.656,130.675,13.656z"/>
	<path style="fill:#602F75;" d="M194.562,389.123c-3.773,0-6.827-3.053-6.827-6.827v-307.2c0-3.773,3.053-6.827,6.827-6.827
		s6.827,3.053,6.827,6.827v307.2C201.389,386.07,198.336,389.123,194.562,389.123z"/>
	<path style="fill:#602F75;" d="M221.869,389.123c-3.773,0-6.827-3.053-6.827-6.827v-307.2c0-3.773,3.053-6.827,6.827-6.827
		s6.827,3.053,6.827,6.827v307.2C228.696,386.07,225.642,389.123,221.869,389.123z"/>
</g>
<polygon style="fill:#FFE600;" points="183.215,58.34 156.681,98.083 82.805,48.762 112.642,6.829 "/>
<path style="fill:#602F75;" d="M156.676,104.91c-1.3,0-2.62-0.374-3.787-1.147l-73.88-49.319c-1.533-1.027-2.587-2.627-2.92-4.446
	c-0.333-1.812,0.08-3.686,1.154-5.193l29.839-41.933c1.053-1.487,2.666-2.487,4.466-2.78c1.801-0.3,3.64,0.147,5.12,1.227
	l70.574,51.514c2.953,2.161,3.68,6.26,1.654,9.306l-26.534,39.74C161.042,103.843,158.883,104.91,156.676,104.91z M92.442,46.991
	l62.353,41.627l19.106-28.621l-59.706-43.58L92.442,46.991z"/>
<polygon style="fill:#FFE600;" points="205.685,58.34 232.218,98.083 306.095,48.762 276.257,6.829 "/>
<path style="fill:#602F75;" d="M232.222,104.91c-2.207,0-4.367-1.067-5.687-3.033l-26.534-39.74c-2.028-3.046-1.3-7.148,1.654-9.306
	l70.574-51.514c1.48-1.073,3.319-1.521,5.12-1.227c1.801,0.294,3.413,1.294,4.466,2.78l29.839,41.933
	c1.074,1.507,1.487,3.379,1.154,5.193c-0.333,1.819-1.386,3.42-2.92,4.446l-73.88,49.319
	C234.843,104.536,233.522,104.91,232.222,104.91z M214.996,59.997l19.106,28.621l62.353-41.627l-21.753-30.573L214.996,59.997z"/>
<rect x="85.336" y="170.668" style="fill:#EA3457;" width="75.093" height="47.787"/>
<path style="fill:#602F75;" d="M160.429,225.283H85.336c-3.773,0-6.827-3.053-6.827-6.827v-47.787c0-3.773,3.053-6.827,6.827-6.827
	h75.093c3.773,0,6.827,3.053,6.827,6.827v47.787C167.256,222.23,164.202,225.283,160.429,225.283z M92.162,211.629h61.44v-34.133
	h-61.44V211.629z"/>
<rect x="85.336" y="150.188" style="fill:#FFFFFF;" width="75.093" height="20.48"/>
<path style="fill:#602F75;" d="M160.429,177.496H85.336c-3.773,0-6.827-3.053-6.827-6.827v-20.48c0-3.773,3.053-6.827,6.827-6.827
	h75.093c3.773,0,6.827,3.053,6.827,6.827v20.48C167.256,174.443,164.202,177.496,160.429,177.496z M92.162,163.843h61.44v-6.827
	h-61.44V163.843z"/>
<g>
	<rect x="256.002" y="116.054" style="fill:#00E7FF;" width="47.787" height="232.107"/>
	<path style="fill:#00E7FF;" d="M303.789,354.989h-47.787c-3.773,0-6.827-3.053-6.827-6.827V116.056
		c0-3.773,3.053-6.827,6.827-6.827h47.787c3.773,0,6.827,3.053,6.827,6.827v232.107
		C310.616,351.936,307.562,354.989,303.789,354.989z M262.829,341.336h34.133V122.883h-34.133V341.336z"/>
</g>
<g>
</g>
<g>
</g>
<g>
</g>
<g>
</g>
<g>
</g>
<g>
</g>
<g>
</g>
<g>
</g>
<g>
</g>
<g>
</g>
<g>
</g>
<g>
</g>
<g>
</g>
<g>
</g>
<g>
</g>
</svg>
