<?xml version="1.0" encoding="iso-8859-1"?>
<!-- Generator: Adobe Illustrator 19.0.0, SVG Export Plug-In . SVG Version: 6.00 Build 0)  -->
<svg version="1.1" id="Capa_1" xmlns="http://www.w3.org/2000/svg" xmlns:xlink="http://www.w3.org/1999/xlink" x="0px" y="0px"
	 viewBox="0 0 389.123 389.123" style="enable-background:new 0 0 389.123 389.123;" xml:space="preserve">
<path style="fill:#FFFFFF;" d="M194.564,382.296H73.368c-12.242,0-22.166-9.924-22.166-22.166V56.302
	c0-12.242,9.924-22.166,22.166-22.166h242.389c12.242,0,22.166,9.924,22.166,22.166v303.829c0,12.242-9.924,22.166-22.166,22.166
	h-76.16"/>
<path style="fill:#602F75;" d="M315.756,389.123h-76.16c-3.773,0-6.827-3.053-6.827-6.827s3.053-6.827,6.827-6.827h76.16
	c8.46,0,15.34-6.88,15.34-15.34V56.304c0-8.46-6.88-15.34-15.34-15.34H73.368c-8.46,0-15.34,6.88-15.34,15.34V360.13
	c0,8.46,6.88,15.34,15.34,15.34h121.194c3.773,0,6.827,3.053,6.827,6.827s-3.053,6.827-6.827,6.827H73.368
	c-15.986,0-28.993-13.007-28.993-28.993V56.304c0-15.986,13.007-28.993,28.993-28.993h242.386c15.986,0,28.993,13.007,28.993,28.993
	V360.13C344.749,376.116,331.742,389.123,315.756,389.123z"/>
<polygon style="fill:#EAEAEA;" points="193.736,78.509 274.83,6.829 112.642,6.829 "/>
<path style="fill:#602F75;" d="M193.736,85.336c-1.613,0-3.234-0.573-4.519-1.713l-81.094-71.68
	c-2.127-1.881-2.867-4.873-1.867-7.533c1.007-2.654,3.546-4.407,6.386-4.407h162.186c2.84,0,5.379,1.753,6.386,4.407
	c1,2.661,0.259,5.652-1.867,7.533l-81.094,71.68C196.969,84.763,195.349,85.336,193.736,85.336z M130.675,13.656l63.06,55.74
	l63.06-55.74C256.794,13.656,130.675,13.656,130.675,13.656z"/>
<g>
	<polygon style="fill:#00E7FF;" points="331.096,150.189 58.029,197.976 58.029,157.016 331.096,109.229 	"/>
	<polygon style="fill:#00E7FF;" points="331.096,232.109 58.029,279.896 58.029,225.283 331.096,177.496 	"/>
	<polygon style="fill:#00E7FF;" points="331.096,300.376 58.029,348.163 58.029,307.203 331.096,259.416 	"/>
</g>
<path style="fill:#602F75;" d="M194.562,389.123c-3.773,0-6.827-3.053-6.827-6.827v-307.2c0-3.773,3.053-6.827,6.827-6.827
	s6.827,3.053,6.827,6.827v307.2C201.389,386.07,198.336,389.123,194.562,389.123z"/>
<polygon style="fill:#FFE600;" points="208.216,61.443 180.909,61.443 167.256,344.488 194.503,368.643 221.869,344.488 "/>
<path style="fill:#602F75;" d="M194.503,375.469c-1.62,0-3.234-0.573-4.526-1.72l-27.247-24.153
	c-1.546-1.374-2.393-3.367-2.294-5.434l13.653-283.047c0.179-3.64,3.18-6.501,6.82-6.501h27.307c3.64,0,6.641,2.86,6.82,6.501
	l13.653,283.047c0.101,2.067-0.748,4.074-2.301,5.446l-27.366,24.153C197.728,374.903,196.115,375.469,194.503,375.469z
	 M174.229,341.549l20.28,17.98l20.379-17.987L201.708,68.269h-14.293L174.229,341.549z"/>
<polygon style="fill:#EA3457;" points="183.215,58.34 156.681,98.083 82.805,48.762 112.642,6.829 "/>
<path style="fill:#602F75;" d="M156.676,104.91c-1.3,0-2.62-0.374-3.787-1.147l-73.88-49.319c-1.533-1.027-2.587-2.627-2.92-4.446
	c-0.333-1.812,0.08-3.686,1.154-5.193l29.839-41.933c1.053-1.487,2.666-2.487,4.466-2.78c1.807-0.3,3.64,0.147,5.12,1.227
	l70.574,51.514c2.953,2.161,3.68,6.26,1.654,9.306l-26.534,39.74C161.042,103.843,158.883,104.91,156.676,104.91z M92.442,46.991
	l62.353,41.627l19.106-28.621l-59.706-43.58L92.442,46.991z"/>
<polygon style="fill:#EA3457;" points="205.685,58.34 232.218,98.083 306.095,48.762 276.257,6.829 "/>
<path style="fill:#602F75;" d="M232.222,104.91c-2.207,0-4.367-1.067-5.687-3.033l-26.534-39.74c-2.028-3.046-1.3-7.148,1.654-9.306
	l70.574-51.514c1.48-1.073,3.319-1.521,5.12-1.227c1.801,0.294,3.413,1.294,4.466,2.78l29.839,41.933
	c1.074,1.507,1.487,3.379,1.154,5.193c-0.333,1.819-1.386,3.42-2.92,4.446l-73.88,49.319
	C234.843,104.536,233.522,104.91,232.222,104.91z M214.996,59.997l19.106,28.621l62.353-41.627l-21.753-30.573L214.996,59.997z"/>
<g>
</g>
<g>
</g>
<g>
</g>
<g>
</g>
<g>
</g>
<g>
</g>
<g>
</g>
<g>
</g>
<g>
</g>
<g>
</g>
<g>
</g>
<g>
</g>
<g>
</g>
<g>
</g>
<g>
</g>
</svg>
