<?xml version="1.0" encoding="iso-8859-1"?>
<!-- Generator: Adobe Illustrator 19.0.0, SVG Export Plug-In . SVG Version: 6.00 Build 0)  -->
<svg version="1.1" id="Capa_1" xmlns="http://www.w3.org/2000/svg" xmlns:xlink="http://www.w3.org/1999/xlink" x="0px" y="0px"
	 viewBox="0 0 389.125 389.125" style="enable-background:new 0 0 389.125 389.125;" xml:space="preserve">
<path style="fill:#EA3457;" d="M194.564,382.299H73.37c-12.242,0-22.166-9.924-22.166-22.166V56.305
	c0-12.242,9.924-22.166,22.166-22.166h242.389c12.242,0,22.166,9.924,22.166,22.166v303.829c0,12.242-9.924,22.166-22.166,22.166
	H238.94"/>
<path style="fill:#602F75;" d="M315.757,389.125H238.94c-3.77,0-6.827-3.053-6.827-6.827s3.057-6.827,6.827-6.827h76.817
	c8.46,0,15.34-6.88,15.34-15.34V56.305c0-8.46-6.88-15.34-15.34-15.34H73.37c-8.46,0-15.34,6.88-15.34,15.34v303.826
	c0,8.46,6.88,15.34,15.34,15.34h121.194c3.77,0,6.827,3.053,6.827,6.827s-3.057,6.827-6.827,6.827H73.37
	c-15.986,0-28.993-13.007-28.993-28.993V56.305c0-15.986,13.007-28.993,28.993-28.993h242.386c15.986,0,28.993,13.007,28.993,28.993
	v303.826C344.75,376.119,331.744,389.125,315.757,389.125z"/>
<polygon style="fill:#EAEAEA;" points="193.738,78.512 274.832,6.832 112.644,6.832 "/>
<g>
	<path style="fill:#602F75;" d="M193.738,85.339c-1.616,0-3.231-0.573-4.519-1.713l-81.094-71.68
		c-2.127-1.881-2.871-4.873-1.864-7.533c1.004-2.654,3.546-4.407,6.383-4.407H274.83c2.836,0,5.379,1.753,6.383,4.407
		c1.007,2.661,0.263,5.652-1.864,7.533l-81.094,71.68C196.967,84.765,195.354,85.339,193.738,85.339z M130.673,13.659l63.063,55.74
		l63.063-55.74C256.799,13.659,130.673,13.659,130.673,13.659z"/>
	<path style="fill:#602F75;" d="M194.564,389.125c-3.77,0-6.827-3.053-6.827-6.827v-307.2c0-3.773,3.057-6.827,6.827-6.827
		s6.827,3.053,6.827,6.827v307.2C201.39,386.072,198.334,389.125,194.564,389.125z"/>
</g>
<polygon style="fill:#FFFFFF;" points="183.216,58.343 156.682,98.086 82.806,48.765 112.644,6.832 "/>
<path style="fill:#602F75;" d="M156.677,104.912c-1.304,0-2.62-0.374-3.784-1.147L79.017,54.446
	c-1.536-1.027-2.591-2.627-2.924-4.446c-0.333-1.812,0.08-3.686,1.15-5.193L107.08,2.874c1.06-1.487,2.666-2.487,4.47-2.78
	c1.804-0.307,3.647,0.147,5.117,1.227l70.574,51.514c2.956,2.161,3.686,6.26,1.654,9.306l-26.534,39.74
	C161.046,103.846,158.881,104.912,156.677,104.912z M92.447,46.992l62.35,41.627l19.106-28.621L114.2,16.418L92.447,46.992z"/>
<polygon style="fill:#FFFFFF;" points="205.686,58.343 232.219,98.086 306.096,48.765 276.258,6.832 "/>
<path style="fill:#602F75;" d="M232.226,104.912c-2.203,0-4.367-1.067-5.683-3.033L200.01,62.14
	c-2.033-3.046-1.304-7.148,1.654-9.306L272.234,1.32c1.473-1.073,3.326-1.527,5.117-1.227c1.801,0.294,3.41,1.294,4.47,2.78
	l29.839,41.933c1.07,1.507,1.483,3.379,1.15,5.193c-0.333,1.814-1.386,3.42-2.924,4.446l-73.876,49.319
	C234.848,104.539,233.53,104.912,232.226,104.912z M215.001,59.998l19.106,28.621l62.35-41.627L274.7,16.418L215.001,59.998z"/>
<circle style="fill:#FFFFFF;" cx="218.457" cy="139.949" r="3.413"/>
<path style="fill:#00E7FF;" d="M218.457,150.192c-5.647,0-10.24-4.593-10.24-10.24s4.593-10.24,10.24-10.24
	c5.647,0,10.24,4.593,10.24,10.24S224.104,150.192,218.457,150.192z M218.457,136.539c-1.884,0-3.413,1.533-3.413,3.413
	c0,1.881,1.529,3.413,3.413,3.413c1.884,0,3.413-1.533,3.413-3.413C221.87,138.071,220.341,136.539,218.457,136.539z"/>
<circle style="fill:#FFFFFF;" cx="218.457" cy="187.735" r="3.413"/>
<path style="fill:#00E7FF;" d="M218.457,197.979c-5.647,0-10.24-4.593-10.24-10.24s4.593-10.24,10.24-10.24
	c5.647,0,10.24,4.593,10.24,10.24S224.104,197.979,218.457,197.979z M218.457,184.325c-1.884,0-3.413,1.533-3.413,3.413
	s1.529,3.413,3.413,3.413c1.884,0,3.413-1.533,3.413-3.413S220.341,184.325,218.457,184.325z"/>
<circle style="fill:#FFFFFF;" cx="218.457" cy="235.522" r="3.413"/>
<path style="fill:#00E7FF;" d="M218.457,245.765c-5.647,0-10.24-4.593-10.24-10.24s4.593-10.24,10.24-10.24
	c5.647,0,10.24,4.593,10.24,10.24S224.104,245.765,218.457,245.765z M218.457,232.112c-1.884,0-3.413,1.533-3.413,3.413
	s1.529,3.413,3.413,3.413c1.884,0,3.413-1.533,3.413-3.413S220.341,232.112,218.457,232.112z"/>
<circle style="fill:#FFFFFF;" cx="218.457" cy="283.309" r="3.413"/>
<path style="fill:#00E7FF;" d="M218.457,293.552c-5.647,0-10.24-4.593-10.24-10.24s4.593-10.24,10.24-10.24
	c5.647,0,10.24,4.593,10.24,10.24S224.104,293.552,218.457,293.552z M218.457,279.899c-1.884,0-3.413,1.533-3.413,3.413
	c0,1.881,1.529,3.413,3.413,3.413c1.884,0,3.413-1.533,3.413-3.413C221.87,281.431,220.341,279.899,218.457,279.899z"/>
<circle style="fill:#FFFFFF;" cx="218.457" cy="331.095" r="3.413"/>
<path style="fill:#00E7FF;" d="M218.457,341.339c-5.647,0-10.24-4.593-10.24-10.24s4.593-10.24,10.24-10.24
	c5.647,0,10.24,4.593,10.24,10.24S224.104,341.339,218.457,341.339z M218.457,327.685c-1.884,0-3.413,1.533-3.413,3.413
	s1.529,3.413,3.413,3.413c1.884,0,3.413-1.533,3.413-3.413S220.341,327.685,218.457,327.685z"/>
<g>
	<rect x="58.03" y="157.015" style="fill:#FFE600;" width="129.707" height="34.133"/>
	<rect x="58.03" y="232.109" style="fill:#FFE600;" width="129.707" height="34.133"/>
	<rect x="58.03" y="307.202" style="fill:#FFE600;" width="129.707" height="34.133"/>
</g>
<g>
</g>
<g>
</g>
<g>
</g>
<g>
</g>
<g>
</g>
<g>
</g>
<g>
</g>
<g>
</g>
<g>
</g>
<g>
</g>
<g>
</g>
<g>
</g>
<g>
</g>
<g>
</g>
<g>
</g>
</svg>
