<?xml version="1.0" encoding="iso-8859-1"?>
<!-- Generator: Adobe Illustrator 19.0.0, SVG Export Plug-In . SVG Version: 6.00 Build 0)  -->
<svg version="1.1" id="Capa_1" xmlns="http://www.w3.org/2000/svg" xmlns:xlink="http://www.w3.org/1999/xlink" x="0px" y="0px"
	 viewBox="0 0 389.125 389.125" style="enable-background:new 0 0 389.125 389.125;" xml:space="preserve">
<path style="fill:#FFE600;" d="M194.565,382.299H73.37c-12.242,0-22.166-9.924-22.166-22.166V56.305
	c0-12.242,9.924-22.166,22.166-22.166h242.389c12.242,0,22.166,9.924,22.166,22.166v303.829c0,12.242-9.924,22.166-22.166,22.166
	h-78.111"/>
<path style="fill:#602F75;" d="M315.757,389.125h-78.111c-3.77,0-6.827-3.053-6.827-6.827s3.057-6.827,6.827-6.827h78.111
	c8.46,0,15.34-6.88,15.34-15.34V56.305c0-8.46-6.88-15.34-15.34-15.34H73.37c-8.46,0-15.34,6.88-15.34,15.34v303.826
	c0,8.46,6.88,15.34,15.34,15.34h121.197c3.77,0,6.827,3.053,6.827,6.827s-3.057,6.827-6.827,6.827H73.37
	c-15.986,0-28.993-13.007-28.993-28.993V56.305c0-15.986,13.007-28.993,28.993-28.993h242.386c15.986,0,28.993,13.007,28.993,28.993
	v303.826C344.75,376.119,331.744,389.125,315.757,389.125z"/>
<polygon style="fill:#EAEAEA;" points="193.738,78.512 274.832,6.832 112.644,6.832 "/>
<g>
	<path style="fill:#602F75;" d="M193.738,85.339c-1.616,0-3.231-0.573-4.519-1.713l-81.094-71.68
		c-2.127-1.881-2.871-4.873-1.864-7.533c1.004-2.654,3.546-4.407,6.383-4.407H274.83c2.836,0,5.379,1.753,6.383,4.407
		c1.007,2.661,0.263,5.652-1.864,7.533l-81.094,71.68C196.967,84.765,195.354,85.339,193.738,85.339z M130.673,13.659l63.063,55.74
		l63.063-55.74C256.799,13.659,130.673,13.659,130.673,13.659z"/>
	<path style="fill:#602F75;" d="M194.564,389.125c-3.77,0-6.827-3.053-6.827-6.827v-307.2c0-3.773,3.057-6.827,6.827-6.827
		s6.827,3.053,6.827,6.827v307.2C201.39,386.072,198.334,389.125,194.564,389.125z"/>
</g>
<circle style="fill:#00E7FF;" cx="194.564" cy="143.362" r="13.653"/>
<path style="fill:#602F75;" d="M194.564,163.845c-11.293,0-20.48-9.187-20.48-20.48c0-11.293,9.187-20.48,20.48-20.48
	s20.48,9.187,20.48,20.48C215.044,154.658,205.857,163.845,194.564,163.845z M194.564,136.539c-3.763,0-6.827,3.06-6.827,6.827
	s3.063,6.827,6.827,6.827s6.827-3.06,6.827-6.827S198.327,136.539,194.564,136.539z"/>
<circle style="fill:#00E7FF;" cx="194.564" cy="218.455" r="13.653"/>
<path style="fill:#602F75;" d="M194.564,238.939c-11.293,0-20.48-9.187-20.48-20.48c0-11.293,9.187-20.48,20.48-20.48
	s20.48,9.187,20.48,20.48C215.044,229.752,205.857,238.939,194.564,238.939z M194.564,211.632c-3.763,0-6.827,3.06-6.827,6.827
	s3.063,6.827,6.827,6.827s6.827-3.06,6.827-6.827S198.327,211.632,194.564,211.632z"/>
<circle style="fill:#00E7FF;" cx="194.564" cy="293.549" r="13.653"/>
<path style="fill:#602F75;" d="M194.564,314.032c-11.293,0-20.48-9.187-20.48-20.48c0-11.293,9.187-20.48,20.48-20.48
	s20.48,9.187,20.48,20.48C215.044,304.845,205.857,314.032,194.564,314.032z M194.564,286.725c-3.763,0-6.827,3.06-6.827,6.827
	c0,3.767,3.063,6.827,6.827,6.827s6.827-3.06,6.827-6.827C201.39,289.785,198.327,286.725,194.564,286.725z"/>
<polygon style="fill:#FFFFFF;" points="183.216,58.343 156.682,98.086 82.806,48.765 112.644,6.832 "/>
<path style="fill:#602F75;" d="M156.677,104.912c-1.304,0-2.62-0.374-3.784-1.147L79.017,54.446
	c-1.536-1.027-2.591-2.627-2.924-4.446c-0.333-1.812,0.08-3.686,1.15-5.193L107.08,2.874c1.06-1.487,2.666-2.487,4.47-2.78
	c1.801-0.307,3.644,0.147,5.117,1.227l70.574,51.514c2.956,2.161,3.686,6.26,1.654,9.306l-26.534,39.74
	C161.046,103.846,158.881,104.912,156.677,104.912z M92.447,46.992l62.35,41.627l19.106-28.621L114.2,16.418L92.447,46.992z"/>
<polygon style="fill:#FFFFFF;" points="205.686,58.343 232.219,98.086 306.096,48.765 276.258,6.832 "/>
<path style="fill:#602F75;" d="M232.226,104.912c-2.203,0-4.367-1.067-5.683-3.033L200.01,62.14
	c-2.033-3.046-1.304-7.148,1.654-9.306L272.234,1.32c1.469-1.073,3.323-1.527,5.117-1.227c1.801,0.294,3.41,1.294,4.47,2.78
	l29.839,41.933c1.07,1.507,1.483,3.379,1.15,5.193c-0.333,1.814-1.386,3.42-2.924,4.446l-73.876,49.319
	C234.848,104.539,233.53,104.912,232.226,104.912z M215.001,59.998l19.106,28.621l62.35-41.627L274.7,16.418L215.001,59.998z"/>
<g>
	
		<rect x="242.349" y="116.063" transform="matrix(-0.7071 0.7071 -0.7071 -0.7071 561.7091 54.0721)" style="fill:#EA3457;" width="54.613" height="54.613"/>
	<path style="fill:#EA3457;" d="M269.657,188.812c-1.811,0-3.546-0.72-4.826-2l-38.617-38.62c-2.666-2.666-2.666-6.987,0-9.653
		l38.617-38.62c2.56-2.56,7.093-2.56,9.653,0l38.617,38.62c2.666,2.666,2.666,6.987,0,9.653l-38.617,38.62
		C273.203,188.092,271.468,188.812,269.657,188.812z M240.693,143.365l28.964,28.967l28.964-28.967l-28.964-28.967L240.693,143.365z
		"/>
	
		<rect x="242.344" y="197.985" transform="matrix(-0.7071 0.7071 -0.7071 -0.7071 619.627 193.9245)" style="fill:#EA3457;" width="54.613" height="54.613"/>
	<path style="fill:#EA3457;" d="M269.657,270.732c-1.811,0-3.546-0.72-4.826-2l-38.617-38.62c-2.666-2.666-2.666-6.987,0-9.653
		l38.617-38.62c2.56-2.56,7.093-2.56,9.653,0l38.617,38.62c2.666,2.666,2.666,6.987,0,9.653l-38.617,38.62
		C273.203,270.012,271.468,270.732,269.657,270.732z M240.693,225.285l28.964,28.967l28.964-28.967l-28.964-28.967L240.693,225.285z
		"/>
	
		<rect x="92.153" y="204.8" transform="matrix(-0.7071 0.7071 -0.7071 -0.7071 368.0543 311.7594)" style="fill:#EA3457;" width="54.613" height="54.613"/>
	<path style="fill:#EA3457;" d="M119.47,277.559c-1.811,0-3.546-0.72-4.826-2l-38.617-38.62c-2.666-2.666-2.666-6.987,0-9.653
		l38.617-38.62c2.56-2.56,7.093-2.56,9.653,0l38.617,38.62c2.666,2.666,2.666,6.987,0,9.653l-38.617,38.62
		C123.017,276.839,121.281,277.559,119.47,277.559z M90.506,232.112l28.964,28.967l28.964-28.967l-28.964-28.967L90.506,232.112z"/>
	
		<rect x="92.155" y="286.721" transform="matrix(-0.7071 0.7071 -0.7071 -0.7071 425.9838 451.607)" style="fill:#EA3457;" width="54.613" height="54.613"/>
	<path style="fill:#EA3457;" d="M119.47,359.479c-1.811,0-3.546-0.72-4.826-2l-38.617-38.62c-2.666-2.666-2.666-6.987,0-9.653
		l38.617-38.62c2.56-2.56,7.093-2.56,9.653,0l38.617,38.62c2.666,2.666,2.666,6.987,0,9.653l-38.617,38.62
		C123.017,358.759,121.281,359.479,119.47,359.479z M90.506,314.032l28.964,28.967l28.964-28.967l-28.964-28.967L90.506,314.032z"/>
</g>
<g>
</g>
<g>
</g>
<g>
</g>
<g>
</g>
<g>
</g>
<g>
</g>
<g>
</g>
<g>
</g>
<g>
</g>
<g>
</g>
<g>
</g>
<g>
</g>
<g>
</g>
<g>
</g>
<g>
</g>
</svg>
