<?xml version="1.0" encoding="iso-8859-1"?>
<!-- Generator: Adobe Illustrator 19.0.0, SVG Export Plug-In . SVG Version: 6.00 Build 0)  -->
<svg version="1.1" id="Capa_1" xmlns="http://www.w3.org/2000/svg" xmlns:xlink="http://www.w3.org/1999/xlink" x="0px" y="0px"
	 viewBox="0 0 423.253 423.253" style="enable-background:new 0 0 423.253 423.253;" xml:space="preserve">
<rect x="6.827" y="226.236" style="fill:#FFFFFF;" width="409.6" height="163.84"/>
<path style="fill:#602F75;" d="M416.427,396.904H6.827c-3.773,0-6.827-3.053-6.827-6.827v-163.84c0-3.773,3.053-6.827,6.827-6.827
	h409.6c3.773,0,6.827,3.053,6.827,6.827v163.84C423.253,393.849,420.2,396.904,416.427,396.904z M13.653,383.251H409.6V233.064
	H13.653V383.251z"/>
<path style="fill:#FFFFFF;" d="M211.627,362.771c30.162,0,54.613-24.451,54.613-54.613s-24.451-54.613-54.613-54.613V362.771z"/>
<g>
	<path style="fill:#602F75;" d="M211.627,369.597H204.8v-122.88h6.827c33.881,0,61.44,27.559,61.44,61.44
		S245.507,369.597,211.627,369.597z M218.453,260.857v94.601c23.127-3.319,40.96-23.267,40.96-47.3
		C259.413,284.124,241.58,264.177,218.453,260.857z"/>
	<path style="fill:#602F75;" d="M416.427,274.024c-26.348,0-47.787-21.439-47.787-47.787c0-3.773,3.053-6.827,6.827-6.827
		s6.827,3.053,6.827,6.827c0,18.819,15.314,34.133,34.133,34.133c3.773,0,6.827,3.053,6.827,6.827S420.2,274.024,416.427,274.024z"
		/>
	<path style="fill:#602F75;" d="M375.467,396.904c-3.773,0-6.827-3.053-6.827-6.827c0-26.348,21.439-47.787,47.787-47.787
		c3.773,0,6.827,3.053,6.827,6.827s-3.053,6.827-6.827,6.827c-18.819,0-34.133,15.314-34.133,34.133
		C382.293,393.849,379.24,396.904,375.467,396.904z"/>
	<path style="fill:#602F75;" d="M6.827,274.024c-3.773,0-6.827-3.053-6.827-6.827s3.053-6.827,6.827-6.827
		c18.819,0,34.133-15.314,34.133-34.133c0-3.773,3.053-6.827,6.827-6.827s6.827,3.053,6.827,6.827
		C54.613,252.583,33.174,274.024,6.827,274.024z"/>
</g>
<g>
	<rect x="88.747" y="280.849" style="fill:#FFE600;" width="245.76" height="61.44"/>
	<path style="fill:#FFE600;" d="M334.507,349.117H88.747c-3.773,0-6.827-3.053-6.827-6.827v-61.44c0-3.773,3.053-6.827,6.827-6.827
		h245.76c3.773,0,6.827,3.053,6.827,6.827v61.44C341.333,346.063,338.28,349.117,334.507,349.117z M95.573,335.464H327.68v-47.787
		H95.573V335.464z"/>
</g>
<path style="fill:#602F75;" d="M47.787,396.904c-3.773,0-6.827-3.053-6.827-6.827c0-18.819-15.314-34.133-34.133-34.133
	c-3.773,0-6.827-3.053-6.827-6.827s3.053-6.827,6.827-6.827c26.348,0,47.787,21.439,47.787,47.787
	C54.613,393.849,51.56,396.904,47.787,396.904z"/>
<circle style="fill:#EA3457;" cx="211.627" cy="308.156" r="54.613"/>
<path style="fill:#602F75;" d="M211.627,369.597c-33.881,0-61.44-27.559-61.44-61.44s27.559-61.44,61.44-61.44
	s61.44,27.559,61.44,61.44S245.507,369.597,211.627,369.597z M211.627,260.371c-26.348,0-47.787,21.439-47.787,47.787
	c0,26.348,21.439,47.787,47.787,47.787s47.787-21.439,47.787-47.787C259.413,281.81,237.974,260.371,211.627,260.371z"/>
<g>
	<polygon style="fill:#00E7FF;" points="398.507,122.344 368.64,98.444 338.773,122.344 330.24,111.677 368.64,80.963 
		407.04,111.677 	"/>
	<rect x="266.24" y="41.917" style="fill:#00E7FF;" width="13.653" height="122.88"/>
	<rect x="361.813" y="89.702" style="fill:#00E7FF;" width="13.653" height="102.4"/>
	<polygon style="fill:#00E7FF;" points="302.933,67.731 273.067,43.831 243.2,67.731 234.667,57.064 273.067,26.349 311.467,57.064 
			"/>
</g>
<g>
</g>
<g>
</g>
<g>
</g>
<g>
</g>
<g>
</g>
<g>
</g>
<g>
</g>
<g>
</g>
<g>
</g>
<g>
</g>
<g>
</g>
<g>
</g>
<g>
</g>
<g>
</g>
<g>
</g>
</svg>
