<?xml version="1.0" encoding="iso-8859-1"?>
<!-- Generator: Adobe Illustrator 19.0.0, SVG Export Plug-In . SVG Version: 6.00 Build 0)  -->
<svg version="1.1" id="Capa_1" xmlns="http://www.w3.org/2000/svg" xmlns:xlink="http://www.w3.org/1999/xlink" x="0px" y="0px"
	 viewBox="0 0 382.416 382.416" style="enable-background:new 0 0 382.416 382.416;" xml:space="preserve">
<g>
	<path style="fill:#00E7FF;" d="M361.875,238.935c0,75.406-61.128,136.533-136.533,136.533l0,0l0,0
		c-75.406,0-136.533-61.128-136.533-136.533V40.962L225.867,6.828l136.008,34.133V238.935z"/>
	<path style="fill:#00E7FF;" d="M225.341,382.295c-79.046,0-143.36-64.314-143.36-143.36V40.962c0-3.133,2.133-5.868,5.18-6.627
		L224.222,0.201c1.087-0.266,2.22-0.273,3.308,0.007l136.006,34.133c3.04,0.759,5.166,3.487,5.166,6.62v197.973
		C368.701,317.983,304.387,382.295,225.341,382.295z M95.635,46.295v192.64c0,71.52,58.187,129.707,129.707,129.707
		s129.707-58.187,129.707-129.707V46.288l-129.186-32.42L95.635,46.295z"/>
</g>
<path style="fill:#FFFFFF;" d="M293.608,238.935c0,75.406-61.128,136.533-136.533,136.533l0,0l0,0
	c-75.406,0-136.533-61.128-136.533-136.533V40.962L157.6,6.828l136.008,34.133v150.183"/>
<path style="fill:#602F75;" d="M157.075,382.295c-79.046,0-143.36-64.314-143.36-143.36V40.962c0-3.133,2.133-5.868,5.18-6.627
	L155.955,0.201c1.087-0.266,2.22-0.273,3.308,0.007l136.006,34.133c3.04,0.759,5.166,3.487,5.166,6.62v150.187
	c0,3.773-3.053,6.827-6.827,6.827s-6.827-3.053-6.827-6.827V46.288l-129.186-32.42L27.368,46.295v192.64
	c0,71.52,58.187,129.707,129.707,129.707s129.707-58.187,129.707-129.707c0-3.773,3.053-6.827,6.827-6.827s6.827,3.053,6.827,6.827
	C300.435,317.983,236.121,382.295,157.075,382.295z"/>
<path style="fill:#FFE600;" d="M252.648,226.546c0,55.856-42.79,101.135-95.573,101.135l0,0l0,0
	c-52.784,0-95.573-45.28-95.573-101.135V79.899l95.94-25.284l95.206,25.284V226.546z"/>
<g>
	<path style="fill:#602F75;" d="M157.075,334.508c-56.467,0-102.4-48.434-102.4-107.96V79.903c0-3.099,2.087-5.813,5.086-6.6
		l95.94-25.286c1.147-0.307,2.347-0.307,3.494,0l95.206,25.286c2.993,0.794,5.074,3.507,5.074,6.6V226.55
		C259.475,286.075,213.542,334.508,157.075,334.508z M68.328,85.163V226.55c0,52,39.813,94.307,88.747,94.307
		s88.747-42.307,88.747-94.307V85.156l-88.387-23.48L68.328,85.163z"/>
	<path style="fill:#602F75;" d="M157.075,61.442c-3.773,0-6.827-3.053-6.827-6.827v-40.96c0-3.773,3.053-6.827,6.827-6.827
		s6.827,3.053,6.827,6.827v40.96C163.901,58.388,160.848,61.442,157.075,61.442z"/>
	<path style="fill:#602F75;" d="M157.075,382.416c-3.833,0-6.946-3.113-6.946-6.946v-47.787c0-3.833,3.113-6.946,6.946-6.946
		s6.946,3.113,6.946,6.946v47.787C164.021,379.302,160.908,382.416,157.075,382.416z"/>
</g>
<g>
	<path style="fill:#EA3457;" d="M150.161,259.555c-1.812,0-3.647-0.36-5.414-1.12l-47.706-20.62
		c-6.921-2.993-10.107-11.027-7.113-17.954c2.993-6.921,11.027-10.093,17.954-7.113l36.127,15.613l55.613-105.04
		c3.526-6.659,11.793-9.219,18.452-5.68c6.666,3.526,9.207,11.793,5.68,18.452l-61.52,116.193
		C159.802,256.889,155.075,259.555,150.161,259.555z"/>
	<path style="fill:#EA3457;" d="M150.161,266.382c-2.801,0-5.526-0.567-8.113-1.673l-47.713-20.627
		c-10.366-4.487-15.153-16.56-10.673-26.926c4.48-10.346,16.56-15.133,26.919-10.68l30.346,13.121l52.659-99.466
		c2.567-4.847,6.861-8.4,12.1-10.006c5.246-1.601,10.767-1.073,15.594,1.493c4.82,2.553,8.373,6.84,9.981,12.073
		c1.606,5.226,1.087,10.767-1.473,15.601l-61.52,116.193C164.716,262.202,157.775,266.382,150.161,266.382z M102.482,218.462
		c-2.647,0-5.173,1.539-6.287,4.113c-1.493,3.453,0.101,7.48,3.56,8.974l47.7,20.62c3.193,1.386,7.127-0.014,8.747-3.074
		l61.52-116.193c0.853-1.613,1.027-3.459,0.493-5.2c-0.539-1.746-1.72-3.173-3.333-4.026c-1.606-0.86-3.441-1.027-5.187-0.5
		c-1.746,0.539-3.186,1.727-4.04,3.34l-55.613,105.04c-1.673,3.154-5.473,4.48-8.74,3.074l-36.127-15.613
		C104.294,218.636,103.381,218.462,102.482,218.462z"/>
</g>
<g>
</g>
<g>
</g>
<g>
</g>
<g>
</g>
<g>
</g>
<g>
</g>
<g>
</g>
<g>
</g>
<g>
</g>
<g>
</g>
<g>
</g>
<g>
</g>
<g>
</g>
<g>
</g>
<g>
</g>
</svg>
