<?xml version="1.0" encoding="iso-8859-1"?>
<!-- Generator: Adobe Illustrator 19.0.0, SVG Export Plug-In . SVG Version: 6.00 Build 0)  -->
<svg version="1.1" id="Capa_1" xmlns="http://www.w3.org/2000/svg" xmlns:xlink="http://www.w3.org/1999/xlink" x="0px" y="0px"
	 viewBox="0 0 409.6 409.6" style="enable-background:new 0 0 409.6 409.6;" xml:space="preserve">
<path style="fill:#602F75;" d="M279.894,122.88c-3.77,0-6.827-3.053-6.827-6.827V61.44c0-26.348-21.437-47.787-47.787-47.787
	s-47.787,21.439-47.787,47.787v54.613c0,3.773-3.057,6.827-6.827,6.827c-3.77,0-6.827-3.053-6.827-6.827V61.44
	c0-33.881,27.563-61.44,61.44-61.44s61.44,27.559,61.44,61.44v54.613C286.721,119.827,283.664,122.88,279.894,122.88z"/>
<polyline style="fill:#00E7FF;" points="238.934,402.773 68.268,402.773 102.401,61.44 341.334,61.44 375.468,402.773 
	276.66,402.773 "/>
<path style="fill:#602F75;" d="M375.468,409.6H276.66c-3.77,0-6.827-3.053-6.827-6.827s3.057-6.827,6.827-6.827h91.264
	l-32.766-327.68h-226.58l-32.766,327.68h163.123c3.77,0,6.827,3.053,6.827,6.827s-3.057,6.827-6.827,6.827H68.268
	c-1.93,0-3.767-0.814-5.06-2.246c-1.297-1.427-1.923-3.34-1.734-5.26L95.607,60.761c0.352-3.487,3.287-6.147,6.794-6.147h238.933
	c3.507,0,6.443,2.661,6.793,6.147l34.133,341.333c0.189,1.92-0.437,3.833-1.734,5.26C379.234,408.786,377.398,409.6,375.468,409.6z"
	/>
<polyline style="fill:#FFFFFF;" points="238.934,402.773 34.134,402.773 68.268,61.44 307.201,61.44 341.334,402.773 
	276.658,402.773 "/>
<path style="fill:#602F75;" d="M341.334,409.6h-64.676c-3.77,0-6.827-3.053-6.827-6.827s3.057-6.827,6.827-6.827h57.134
	l-32.768-327.68H74.444l-32.766,327.68h197.257c3.77,0,6.827,3.053,6.827,6.827s-3.057,6.827-6.827,6.827h-204.8
	c-1.93,0-3.767-0.814-5.06-2.246c-1.297-1.427-1.923-3.34-1.734-5.26L61.473,60.761c0.352-3.487,3.287-6.147,6.794-6.147h238.933
	c3.507,0,6.443,2.661,6.793,6.147l34.133,341.333c0.189,1.92-0.437,3.833-1.734,5.26C345.101,408.786,343.264,409.6,341.334,409.6z"
	/>
<polygon style="fill:#EA3457;" points="238.934,395.947 143.361,395.947 153.98,68.267 228.315,68.267 "/>
<path style="fill:#602F75;" d="M245.761,122.88c-3.77,0-6.827-3.053-6.827-6.827V61.44c0-26.348-21.437-47.787-47.787-47.787
	s-47.787,21.439-47.787,47.787v54.613c0,3.773-3.057,6.827-6.827,6.827s-6.827-3.053-6.827-6.827V61.44
	c0-33.881,27.563-61.44,61.44-61.44s61.44,27.559,61.44,61.44v54.613C252.588,119.827,249.531,122.88,245.761,122.88z"/>
<circle style="fill:#FFE600;" cx="163.841" cy="225.28" r="54.613"/>
<g>
	<path style="fill:#602F75;" d="M163.841,286.72c-33.877,0-61.44-27.559-61.44-61.44s27.563-61.44,61.44-61.44
		s61.44,27.559,61.44,61.44S197.718,286.72,163.841,286.72z M163.841,177.493c-26.349,0-47.787,21.439-47.787,47.787
		s21.437,47.787,47.787,47.787c26.349,0,47.787-21.439,47.787-47.787S190.19,177.493,163.841,177.493z"/>
	<path style="fill:#602F75;" d="M273.068,341.333c-1.746,0-3.494-0.667-4.826-2l-64.853-64.853c-2.666-2.666-2.666-6.987,0-9.653
		c2.666-2.666,6.987-2.666,9.653,0l64.853,64.853c2.666,2.666,2.666,6.987,0,9.653C276.561,340.666,274.813,341.333,273.068,341.333
		z"/>
</g>
<g>
</g>
<g>
</g>
<g>
</g>
<g>
</g>
<g>
</g>
<g>
</g>
<g>
</g>
<g>
</g>
<g>
</g>
<g>
</g>
<g>
</g>
<g>
</g>
<g>
</g>
<g>
</g>
<g>
</g>
</svg>
