<?xml version="1.0" encoding="iso-8859-1"?>
<!-- Generator: Adobe Illustrator 19.0.0, SVG Export Plug-In . SVG Version: 6.00 Build 0)  -->
<svg version="1.1" id="Capa_1" xmlns="http://www.w3.org/2000/svg" xmlns:xlink="http://www.w3.org/1999/xlink" x="0px" y="0px"
	 viewBox="0 0 395.947 395.947" style="enable-background:new 0 0 395.947 395.947;" xml:space="preserve">
<rect x="116.053" y="6.827" style="fill:#FFE600;" width="252.587" height="157.013"/>
<g>
	<path style="fill:#602F75;" d="M368.64,170.667h-13.653c-3.773,0-6.827-3.053-6.827-6.827c0-3.773,3.053-6.827,6.827-6.827h6.827
		v-6.827c0-3.773,3.053-6.827,6.827-6.827s6.827,3.053,6.827,6.827v13.653C375.467,167.613,372.413,170.667,368.64,170.667z"/>
	<path style="fill:#602F75;" d="M329.953,170.667H304.92c-3.773,0-6.827-3.053-6.827-6.827c0-3.773,3.053-6.827,6.827-6.827h25.033
		c3.773,0,6.827,3.053,6.827,6.827C336.78,167.613,333.727,170.667,329.953,170.667z M279.893,170.667H254.86
		c-3.773,0-6.827-3.053-6.827-6.827c0-3.773,3.053-6.827,6.827-6.827h25.033c3.773,0,6.827,3.053,6.827,6.827
		C286.72,167.613,283.667,170.667,279.893,170.667z M229.827,170.667H204.8c-3.773,0-6.827-3.053-6.827-6.827
		c0-3.773,3.053-6.827,6.827-6.827h25.027c3.773,0,6.827,3.053,6.827,6.827C236.653,167.613,233.6,170.667,229.827,170.667z
		 M179.767,170.667h-25.033c-3.773,0-6.827-3.053-6.827-6.827c0-3.773,3.053-6.827,6.827-6.827h25.033
		c3.773,0,6.827,3.053,6.827,6.827C186.593,167.613,183.54,170.667,179.767,170.667z"/>
	<path style="fill:#602F75;" d="M129.707,170.667h-13.653c-3.773,0-6.827-3.053-6.827-6.827v-13.653
		c0-3.773,3.053-6.827,6.827-6.827s6.827,3.053,6.827,6.827v6.827h6.827c3.773,0,6.827,3.053,6.827,6.827
		C136.533,167.613,133.48,170.667,129.707,170.667z"/>
	<path style="fill:#602F75;" d="M116.053,131.074c-3.773,0-6.827-3.053-6.827-6.827v-25.94c0-3.773,3.053-6.827,6.827-6.827
		s6.827,3.053,6.827,6.827v25.94C122.88,128.02,119.827,131.074,116.053,131.074z M116.053,79.193c-3.773,0-6.827-3.053-6.827-6.827
		V46.42c0-3.773,3.053-6.827,6.827-6.827s6.827,3.053,6.827,6.827v25.946C122.88,76.14,119.827,79.193,116.053,79.193z"/>
	<path style="fill:#602F75;" d="M116.053,27.307c-3.773,0-6.827-3.053-6.827-6.827V6.827c0-3.773,3.053-6.827,6.827-6.827h13.653
		c3.773,0,6.827,3.053,6.827,6.827s-3.053,6.827-6.827,6.827h-6.827v6.827C122.88,24.253,119.827,27.307,116.053,27.307z"/>
	<path style="fill:#602F75;" d="M329.96,13.653h-25.033c-3.773,0-6.827-3.053-6.827-6.827S301.153,0,304.927,0h25.033
		c3.773,0,6.827,3.053,6.827,6.827S333.734,13.653,329.96,13.653z M279.893,13.653h-25.027c-3.773,0-6.827-3.053-6.827-6.827
		S251.093,0,254.867,0h25.027c3.773,0,6.827,3.053,6.827,6.827S283.667,13.653,279.893,13.653z M229.833,13.653H204.8
		c-3.773,0-6.827-3.053-6.827-6.827S201.027,0,204.8,0h25.033c3.773,0,6.827,3.053,6.827,6.827S233.607,13.653,229.833,13.653z
		 M179.773,13.653H154.74c-3.773,0-6.827-3.053-6.827-6.827S150.967,0,154.74,0h25.033c3.773,0,6.827,3.053,6.827,6.827
		S183.547,13.653,179.773,13.653z"/>
	<path style="fill:#602F75;" d="M368.64,27.307c-3.773,0-6.827-3.053-6.827-6.827v-6.827h-6.827c-3.773,0-6.827-3.053-6.827-6.827
		S351.213,0,354.987,0h13.653c3.773,0,6.827,3.053,6.827,6.827V20.48C375.467,24.253,372.413,27.307,368.64,27.307z"/>
	<path style="fill:#602F75;" d="M368.64,131.074c-3.773,0-6.827-3.053-6.827-6.827V98.301c0-3.773,3.053-6.827,6.827-6.827
		s6.827,3.053,6.827,6.827v25.946C375.467,128.02,372.413,131.074,368.64,131.074z M368.64,79.186c-3.773,0-6.827-3.053-6.827-6.827
		V46.42c0-3.773,3.053-6.827,6.827-6.827s6.827,3.053,6.827,6.827v25.94C375.467,76.133,372.413,79.186,368.64,79.186z"/>
</g>
<g>
	<path style="fill:#EA3457;" d="M262.624,124.86v-10.341c-5.939-0.106-12.083-1.947-15.667-4.507l2.456-6.861
		c3.686,2.454,9.01,4.4,14.744,4.4c7.27,0,12.187-4.2,12.187-10.033c0-5.634-3.994-9.114-11.57-12.187
		c-10.447-4.093-16.896-8.806-16.896-17.713c0-8.499,6.043-14.947,15.464-16.486V40.789h6.347v9.933
		c6.144,0.2,10.344,1.84,13.314,3.581l-2.56,6.76c-2.15-1.227-6.35-3.48-12.904-3.48c-7.883,0-10.853,4.707-10.853,8.806
		c0,5.32,3.79,7.987,12.696,11.674c10.547,4.301,15.874,9.62,15.874,18.734c0,8.093-5.634,15.667-16.179,17.413v10.646h-6.453
		V124.86z"/>
	<path style="fill:#EA3457;" d="M214.837,124.86v-10.341c-5.939-0.106-12.083-1.947-15.667-4.507l2.456-6.861
		c3.686,2.454,9.01,4.4,14.744,4.4c7.27,0,12.187-4.2,12.187-10.033c0-5.634-3.994-9.114-11.57-12.187
		c-10.447-4.093-16.896-8.806-16.896-17.713c0-8.499,6.043-14.947,15.464-16.486V40.789h6.347v9.933
		c6.144,0.2,10.344,1.84,13.314,3.581l-2.56,6.76c-2.15-1.227-6.35-3.48-12.904-3.48c-7.883,0-10.853,4.707-10.853,8.806
		c0,5.32,3.79,7.987,12.696,11.674c10.547,4.301,15.874,9.62,15.874,18.734c0,8.093-5.634,15.667-16.179,17.413v10.646h-6.453
		V124.86z"/>
</g>
<path style="fill:#FFFFFF;" d="M118.886,204.704l-33.867-33.867c-26.66-26.66-26.66-69.885,0-96.543l0,0l183.17,183.17
	l-48.271,48.271l-62.512-62.512"/>
<path style="fill:#602F75;" d="M219.919,312.561c-1.746,0-3.494-0.667-4.826-2l-62.513-62.507c-2.666-2.666-2.666-6.987,0-9.653
	s6.987-2.666,9.653,0l57.687,57.68l38.613-38.613L85.287,84.214c-8.707,10.853-13.433,24.24-13.433,38.354
	c0,16.413,6.386,31.84,17.993,43.447l33.867,33.867c2.666,2.666,2.666,6.987,0,9.653s-6.987,2.666-9.653,0l-33.869-33.867
	c-29.28-29.28-29.28-76.919,0-106.201c2.56-2.56,7.093-2.56,9.653,0L273.012,252.64c2.666,2.666,2.666,6.987,0,9.653l-48.266,48.266
	C223.413,311.893,221.667,312.561,219.919,312.561z"/>
<path style="fill:#00E7FF;" d="M114.589,257.949l48.271,48.271l135.383-135.383c26.66-26.66,26.66-69.885,0-96.543l0,0
	L114.589,257.949z"/>
<path style="fill:#602F75;" d="M162.86,313.047c-1.746,0-3.494-0.667-4.826-2l-48.273-48.273c-1.28-1.28-2-3.014-2-4.826
	s0.72-3.546,2-4.826L293.42,69.466c2.666-2.666,6.987-2.666,9.653,0c29.28,29.28,29.28,76.919,0,106.201l-135.386,135.38
	C166.354,312.38,164.606,313.047,162.86,313.047z M124.24,257.947l38.62,38.62l130.56-130.553
	c11.607-11.607,17.993-27.034,17.993-43.447c0-14.114-4.727-27.5-13.433-38.354L124.24,257.947z"/>
<circle style="fill:#FFFFFF;" cx="187.733" cy="228.693" r="10.24"/>
<path style="fill:#602F75;" d="M187.733,245.76c-9.414,0-17.067-7.653-17.067-17.067s7.653-17.067,17.067-17.067
	s17.067,7.653,17.067,17.067S197.147,245.76,187.733,245.76z M187.733,225.28c-1.881,0-3.413,1.533-3.413,3.413
	c0,1.881,1.533,3.413,3.413,3.413s3.413-1.533,3.413-3.413C191.147,226.813,189.614,225.28,187.733,225.28z"/>
<path style="fill:#EAEAEA;" d="M95.573,252.587c-37.702,0-68.267,30.563-68.267,68.267c0,37.702,30.565,68.267,68.267,68.267
	s68.267-30.565,68.267-68.267C163.84,283.15,133.275,252.587,95.573,252.587z M95.573,361.813c-22.622,0-40.96-18.338-40.96-40.96
	c0-22.622,18.338-40.96,40.96-40.96s40.96,18.338,40.96,40.96C136.533,343.475,118.195,361.813,95.573,361.813z"/>
<path style="fill:#602F75;" d="M95.573,395.947c-41.407,0-75.093-33.686-75.093-75.093s33.686-75.093,75.093-75.093
	s75.093,33.686,75.093,75.093S136.98,395.947,95.573,395.947z M95.573,259.413c-33.881,0-61.44,27.559-61.44,61.44
	s27.559,61.44,61.44,61.44s61.44-27.559,61.44-61.44S129.454,259.413,95.573,259.413z M95.573,368.64
	c-26.348,0-47.787-21.439-47.787-47.787c0-26.348,21.439-47.787,47.787-47.787s47.787,21.439,47.787,47.787
	C143.36,347.201,121.921,368.64,95.573,368.64z M95.573,286.72c-18.819,0-34.133,15.314-34.133,34.133s15.314,34.133,34.133,34.133
	s34.133-15.314,34.133-34.133S114.393,286.72,95.573,286.72z"/>
<path style="fill:#EAEAEA;" d="M286.72,252.587c-37.702,0-68.267,30.563-68.267,68.267c0,37.702,30.565,68.267,68.267,68.267
	s68.267-30.565,68.267-68.267C354.987,283.15,324.422,252.587,286.72,252.587z M286.72,361.813c-22.622,0-40.96-18.338-40.96-40.96
	c0-22.622,18.338-40.96,40.96-40.96c22.622,0,40.96,18.338,40.96,40.96C327.68,343.475,309.342,361.813,286.72,361.813z"/>
<path style="fill:#602F75;" d="M286.72,395.947c-41.407,0-75.093-33.686-75.093-75.093s33.686-75.093,75.093-75.093
	s75.093,33.686,75.093,75.093S328.127,395.947,286.72,395.947z M286.72,259.413c-33.881,0-61.44,27.559-61.44,61.44
	s27.559,61.44,61.44,61.44s61.44-27.559,61.44-61.44S320.601,259.413,286.72,259.413z M286.72,368.64
	c-26.348,0-47.787-21.439-47.787-47.787c0-26.348,21.439-47.787,47.787-47.787s47.787,21.439,47.787,47.787
	C334.507,347.201,313.068,368.64,286.72,368.64z M286.72,286.72c-18.819,0-34.133,15.314-34.133,34.133s15.314,34.133,34.133,34.133
	s34.133-15.314,34.133-34.133S305.539,286.72,286.72,286.72z"/>
<g>
</g>
<g>
</g>
<g>
</g>
<g>
</g>
<g>
</g>
<g>
</g>
<g>
</g>
<g>
</g>
<g>
</g>
<g>
</g>
<g>
</g>
<g>
</g>
<g>
</g>
<g>
</g>
<g>
</g>
</svg>
