<?xml version="1.0" encoding="iso-8859-1"?>
<!-- Generator: Adobe Illustrator 19.0.0, SVG Export Plug-In . SVG Version: 6.00 Build 0)  -->
<svg version="1.1" id="Capa_1" xmlns="http://www.w3.org/2000/svg" xmlns:xlink="http://www.w3.org/1999/xlink" x="0px" y="0px"
	 viewBox="0 0 389.12 389.12" style="enable-background:new 0 0 389.12 389.12;" xml:space="preserve">
<g>
	<circle style="fill:#00E7FF;" cx="296.96" cy="88.747" r="81.92"/>
	<path style="fill:#00E7FF;" d="M296.96,177.493c-48.934,0-88.747-39.813-88.747-88.747S248.026,0,296.96,0
		s88.747,39.813,88.747,88.747S345.894,177.493,296.96,177.493z M296.96,13.653c-41.407,0-75.093,33.686-75.093,75.093
		s33.686,75.093,75.093,75.093s75.093-33.686,75.093-75.093S338.367,13.653,296.96,13.653z"/>
</g>
<path style="fill:#FFFFFF;" d="M16.225,151.206c-3.907,14.935-5.985,30.609-5.985,46.768c0,101.796,82.522,184.32,184.32,184.32
	s184.32-82.524,184.32-184.32c0-13.887-1.585-27.397-4.497-40.407L213.574,14.626c-6.25-0.64-12.594-0.973-19.014-0.973
	c-48.408,0-92.459,18.661-125.348,49.183"/>
<path style="fill:#602F75;" d="M194.56,389.12c-105.4,0-191.147-85.746-191.147-191.147c0-16.427,2.087-32.748,6.207-48.493
	c0.959-3.647,4.693-5.794,8.334-4.879c3.647,0.954,5.833,4.687,4.879,8.334c-3.826,14.619-5.767,29.773-5.767,45.039
	c0,97.874,79.619,177.493,177.493,177.493s177.493-79.619,177.493-177.493c0-12.254-1.3-24.614-3.867-36.78L210.7,21.207
	C160.294,16.674,110.686,33.661,73.859,67.84c-2.773,2.56-7.086,2.4-9.653-0.36c-2.56-2.767-2.4-7.086,0.36-9.653
	c35.441-32.887,81.606-51,129.993-51c6.54,0,13.167,0.34,19.707,1.007c1.427,0.147,2.773,0.741,3.84,1.693l160.814,142.94
	c1.073,0.947,1.813,2.214,2.126,3.613c3.092,13.827,4.659,27.919,4.659,41.894C385.707,303.374,299.96,389.12,194.56,389.12z"/>
<g>
	<path style="fill:#FFFFFF;" d="M52.461,80.57c-11.803,14.269-21.499,30.348-28.609,47.756"/>
</g>
<path style="fill:#602F75;" d="M23.854,135.153c-0.86,0-1.734-0.16-2.58-0.507c-3.494-1.427-5.166-5.407-3.739-8.9
	c7.306-17.893,17.287-34.56,29.667-49.527c2.386-2.886,6.694-3.319,9.614-0.906c2.9,2.4,3.313,6.707,0.906,9.614
	c-11.493,13.901-20.767,29.367-27.547,45.979C29.094,133.553,26.54,135.153,23.854,135.153z"/>
<circle style="fill:#FFE600;" cx="112.64" cy="191.147" r="81.92"/>
<g>
	<path style="fill:#EA3457;" d="M65.812,190.327c-0.454-0.667-0.693-1.434-0.713-2.301s0.179-1.647,0.626-2.319
		c0.58-0.881,1.381-1.447,2.406-1.7c1.021-0.259,2-0.08,2.92,0.527c0.521,0.346,0.947,0.773,1.287,1.287
		c3.367,5.26,7.774,9.673,13.213,13.247c9.066,5.953,15.553,5.953,19.473,0c1.021-1.56,1.294-3.234,0.807-5.04
		c-0.486-1.801-1.386-3.56-2.707-5.28c-1.314-1.72-3.287-4.033-5.9-6.932c-3.487-3.854-6.193-7.134-8.113-9.847
		c-1.934-2.707-3.161-5.687-3.7-8.933c-0.539-3.246,0.294-6.554,2.507-9.926c1.947-2.947,4.487-5.12,7.62-6.506
		c3.14-1.393,6.687-1.807,10.66-1.241c3.959,0.567,8.079,2.246,12.327,5.04c5.7,3.739,10.293,7.987,13.786,12.727
		c1.106,1.473,1.154,2.98,0.126,4.533c-0.539,0.833-1.319,1.393-2.333,1.7c-1.014,0.294-1.98,0.14-2.92-0.473
		c-0.307-0.206-0.654-0.58-1.039-1.126c-3.12-4.053-6.833-7.494-11.133-10.32c-4.099-2.693-7.927-4.099-11.52-4.227
		c-3.587-0.133-6.294,1.2-8.134,4c-1.227,1.867-1.613,3.78-1.161,5.746c0.447,1.966,1.381,3.874,2.801,5.733
		c1.406,1.853,3.453,4.18,6.141,6.987c3.447,3.673,6.106,6.827,7.974,9.467c1.867,2.633,3.014,5.574,3.434,8.82
		c0.433,3.246-0.514,6.634-2.826,10.16c-1.906,2.9-4.446,4.96-7.62,6.173c-3.173,1.22-6.694,1.487-10.54,0.807
		c-3.867-0.679-7.76-2.307-11.699-4.893C75.279,201.887,69.927,196.588,65.812,190.327z"/>
	<path style="fill:#EA3457;" d="M110.887,223.273c-0.207-1.101,0.014-2.14,0.66-3.127c0.273-0.413,0.741-0.847,1.406-1.3
		l50.567-33.773c1.021-0.66,2.106-1.039,3.253-1.14c1.14-0.106,2.26,0.2,3.347,0.913l0.773,0.514
		c1.094,0.713,1.819,1.613,2.173,2.707c0.36,1.087,0.44,2.234,0.247,3.441l-10.919,59.814c-0.154,0.794-0.36,1.399-0.633,1.812
		c-0.647,0.986-1.514,1.601-2.606,1.847c-1.087,0.253-2.154,0.034-3.193-0.647c-0.72-0.473-1.253-1.106-1.594-1.886
		c-0.34-0.78-0.44-1.606-0.314-2.487l2.913-15.447l-26.426-17.36l-13.02,8.806c-0.753,0.466-1.56,0.707-2.406,0.7
		c-0.853,0-1.647-0.241-2.367-0.72C111.706,225.26,111.094,224.374,110.887,223.273z M137.492,212.494l20.987,13.786l6.106-32.16
		L137.492,212.494z"/>
	<path style="fill:#EA3457;" d="M173.52,263.253c-0.321-1.587-0.039-3.053,0.84-4.407l30.333-46.174
		c0.647-0.98,1.539-1.601,2.673-1.86c1.126-0.253,2.186-0.067,3.173,0.587c0.986,0.647,1.601,1.546,1.833,2.707
		c0.247,1.161,0.039,2.234-0.606,3.22l-28.901,43.993l25.421,16.7c0.98,0.647,1.587,1.546,1.833,2.707
		c0.241,1.161,0.034,2.234-0.613,3.214c-0.647,0.986-1.533,1.594-2.679,1.807c-1.147,0.207-2.207-0.014-3.186-0.654l-27.6-18.133
		C174.693,266.08,173.853,264.841,173.52,263.253z"/>
	<path style="fill:#EA3457;" d="M217.593,292.813c-0.234-1.12-0.034-2.173,0.613-3.154l31-47.186c0.647-0.98,1.539-1.606,2.679-1.86
		c1.126-0.259,2.179-0.067,3.166,0.587l31.174,20.473c0.934,0.613,1.507,1.454,1.734,2.526c0.22,1.074,0.027,2.08-0.587,3.014
		c-0.614,0.934-1.447,1.493-2.5,1.693c-1.06,0.193-2.053-0.014-2.987-0.626l-27.592-18.12l-11.286,17.172l24.793,16.287
		c0.934,0.613,1.507,1.454,1.734,2.533c0.227,1.073,0.034,2.074-0.58,3.007c-0.614,0.934-1.447,1.493-2.507,1.693
		c-1.06,0.193-2.053-0.014-2.987-0.626l-24.793-16.28l-11.334,17.253l27.593,18.12c0.934,0.62,1.507,1.459,1.734,2.533
		c0.22,1.073,0.02,2.08-0.594,3.007c-0.613,0.934-1.44,1.5-2.493,1.7c-1.067,0.193-2.053-0.014-2.987-0.626l-31.174-20.48
		C218.426,294.806,217.82,293.927,217.593,292.813z"/>
</g>
<path style="fill:#602F75;" d="M282.348,189.053c-11.68,0-23.76-3.234-33.98-9.554c-21.494-13.278-33.328-38.238-33.328-70.272
	c0-66.266-6.56-93.66-6.627-93.926L221.66,12c0.287,1.147,7.033,28.908,7.033,97.227c0,34.767,14.601,51.094,26.846,58.66
	c16.119,9.96,34.319,8.94,45.193,3.5c28.954-14.479,70.687-7.753,72.439-7.453l-2.239,13.467c-0.387-0.067-39.148-6.274-64.094,6.2
	C299.52,187.261,291.04,189.053,282.348,189.053z"/>
<g>
</g>
<g>
</g>
<g>
</g>
<g>
</g>
<g>
</g>
<g>
</g>
<g>
</g>
<g>
</g>
<g>
</g>
<g>
</g>
<g>
</g>
<g>
</g>
<g>
</g>
<g>
</g>
<g>
</g>
</svg>
