<?xml version="1.0" encoding="iso-8859-1"?>
<!-- Generator: Adobe Illustrator 19.0.0, SVG Export Plug-In . SVG Version: 6.00 Build 0)  -->
<svg version="1.1" id="Capa_1" xmlns="http://www.w3.org/2000/svg" xmlns:xlink="http://www.w3.org/1999/xlink" x="0px" y="0px"
	 viewBox="0 0 402.773 402.773" style="enable-background:new 0 0 402.773 402.773;" xml:space="preserve">
<path style="fill:#FFE600;" d="M395.947,249.173H6.827V63.836c0-14.519,11.771-26.289,26.289-26.289h336.539
	c14.52,0,26.291,11.771,26.291,26.289v139.255"/>
<path style="fill:#602F75;" d="M395.947,256H6.827C3.053,256,0,252.947,0,249.173V63.84c0-18.26,14.86-33.12,33.12-33.12h336.534
	c18.26,0,33.12,14.86,33.12,33.12v139.254c0,3.773-3.053,6.827-6.827,6.827s-6.827-3.053-6.827-6.827V63.84
	c0-10.733-8.733-19.466-19.466-19.466H33.12c-10.733,0-19.466,8.733-19.466,19.466v178.507h382.293c3.773,0,6.827,3.053,6.827,6.827
	S399.72,256,395.947,256z"/>
<path style="fill:#FFFFFF;" d="M369.657,310.613H33.116c-14.519,0-26.289-11.771-26.289-26.29v-35.15h389.12v35.151
	C395.947,298.842,384.176,310.613,369.657,310.613z"/>
<path style="fill:#602F75;" d="M369.654,317.44H33.12C14.86,317.44,0,302.58,0,284.32v-35.147c0-3.773,3.053-6.827,6.827-6.827
	h389.12c3.773,0,6.827,3.053,6.827,6.827v35.147C402.773,302.58,387.913,317.44,369.654,317.44z M13.653,256v28.32
	c0,10.733,8.733,19.466,19.466,19.466h336.534c10.733,0,19.466-8.733,19.466-19.466V256H13.653z"/>
<g>
	<circle style="fill:#00E7FF;" cx="201.387" cy="279.893" r="10.24"/>
	<path style="fill:#00E7FF;" d="M201.387,296.96c-9.414,0-17.067-7.653-17.067-17.067s7.653-17.067,17.067-17.067
		s17.067,7.653,17.067,17.067S210.801,296.96,201.387,296.96z M201.387,276.48c-1.881,0-3.413,1.533-3.413,3.413
		s1.533,3.413,3.413,3.413s3.413-1.533,3.413-3.413S203.267,276.48,201.387,276.48z"/>
</g>
<polygon style="fill:#EAEAEA;" points="259.413,365.227 143.36,365.227 177.092,310.613 225.681,310.613 "/>
<path style="fill:#602F75;" d="M259.413,372.053H143.36c-2.473,0-4.753-1.34-5.96-3.5s-1.147-4.806,0.154-6.914l33.734-54.613
	c1.241-2.014,3.441-3.239,5.806-3.239h48.587c2.367,0,4.567,1.227,5.806,3.239l33.734,54.613c1.3,2.106,1.36,4.753,0.154,6.914
	S261.886,372.053,259.413,372.053z M155.6,358.4h91.573l-25.3-40.96H180.9L155.6,358.4z"/>
<g>
	<path style="fill:#EA3457;" d="M99.874,143.14c0.44,2.046,1.434,3.746,2.98,5.1c1.533,1.353,3.441,2.514,5.707,3.459
		c2.266,0.959,4.787,1.787,7.547,2.487c2.767,0.707,5.6,1.434,8.506,2.186c2.906,0.748,5.767,1.606,8.586,2.574
		c2.826,0.966,5.42,2.179,7.799,3.647c2.374,1.473,4.42,3.267,6.127,5.393c1.713,2.127,2.9,4.733,3.56,7.799
		c0.601,2.794,0.7,5.453,0.307,7.987c-0.393,2.534-1.179,4.893-2.34,7.1c-1.167,2.2-2.666,4.239-4.5,6.127
		c-1.835,1.888-3.886,3.567-6.166,5.033c-2.28,1.459-4.733,2.727-7.359,3.794c-2.627,1.074-5.32,1.906-8.079,2.5
		c-3.879,0.833-7.747,1.174-11.614,1.021c-3.867-0.16-7.427-0.887-10.694-2.173c-3.267-1.294-6.067-3.193-8.407-5.693
		c-2.34-2.493-3.927-5.666-4.753-9.513c-0.427-1.98-0.493-3.794-0.174-5.441c0.307-1.64,0.826-3.067,1.56-4.28
		c0.727-1.207,1.594-2.193,2.599-2.947s1.987-1.227,2.953-1.434c0.986-0.213,1.881-0.119,2.666,0.273
		c0.78,0.399,1.3,1.174,1.546,2.319c0.113,0.527,0.174,1.101,0.179,1.713c0.005,0.613,0.02,1.28,0.039,2.014
		c0.007,0.72,0.053,1.521,0.113,2.386c0.06,0.86,0.193,1.794,0.406,2.78c0.473,2.173,1.374,3.941,2.707,5.313
		c1.326,1.367,2.92,2.381,4.787,3.053c1.86,0.674,3.907,1.021,6.147,1.053c2.246,0.046,4.514-0.179,6.799-0.674
		c2.7-0.587,5.327-1.493,7.887-2.727c2.56-1.227,4.767-2.72,6.634-4.453c1.867-1.72,3.267-3.654,4.207-5.787
		c0.934-2.133,1.147-4.393,0.633-6.781c-0.473-2.2-1.5-4.04-3.067-5.513c-1.574-1.48-3.494-2.746-5.787-3.801
		c-2.28-1.046-4.826-1.947-7.613-2.707c-2.801-0.759-5.641-1.527-8.533-2.301c-2.886-0.766-5.746-1.62-8.573-2.546
		c-2.826-0.934-5.407-2.08-7.747-3.42c-2.347-1.347-4.354-2.98-6.013-4.907c-1.661-1.934-2.794-4.294-3.4-7.079
		c-0.56-2.613-0.486-5.32,0.22-8.113c0.707-2.807,2.106-5.48,4.207-8.033c2.087-2.546,4.886-4.847,8.4-6.907
		c3.507-2.053,7.806-3.633,12.88-4.727c3.227-0.693,6.487-0.893,9.779-0.601c3.301,0.294,6.34,1.067,9.146,2.313
		c2.794,1.253,5.193,2.934,7.2,5.067c2.007,2.127,3.326,4.693,3.966,7.666c0.381,1.773,0.466,3.64,0.266,5.641
		c-0.2,1.993-0.759,4.14-1.654,6.439c-0.887,2.234-1.987,3.994-3.319,5.267c-1.333,1.28-2.62,2.053-3.86,2.319
		c-0.934,0.2-1.746,0.094-2.454-0.321c-0.708-0.415-1.174-1.161-1.406-2.253c-0.174-0.8-0.2-1.801-0.053-2.98
		c0.133-1.174,0.507-2.58,1.106-4.193c0.553-1.539,0.899-2.959,1.053-4.239c0.147-1.28,0.113-2.427-0.106-3.447
		c-0.346-1.58-1.067-2.881-2.179-3.886c-1.113-1.005-2.514-1.746-4.186-2.234c-1.686-0.48-3.627-0.693-5.827-0.633
		c-2.207,0.053-4.567,0.353-7.086,0.893c-2.787,0.601-5.147,1.447-7.074,2.526c-1.927,1.073-3.473,2.266-4.634,3.574
		c-1.167,1.307-1.947,2.647-2.347,4.033C99.686,140.64,99.613,141.933,99.874,143.14z"/>
	<path style="fill:#EA3457;" d="M211.453,170.86c-0.5,1.161-1.2,2.54-2.099,4.147c-0.906,1.601-1.966,3.186-3.193,4.727
		c-1.227,1.546-2.599,2.927-4.12,4.14c-1.527,1.213-3.14,2.007-4.847,2.374c-2.06,0.447-3.92,0.16-5.574-0.853
		c-1.661-1.007-3.26-2.647-4.794-4.913c-0.567,1.014-1.3,2.094-2.207,3.22c-0.899,1.126-1.92,2.193-3.06,3.193
		c-1.147,1-2.374,1.881-3.68,2.647c-1.307,0.759-2.666,1.294-4.067,1.594c-1.493,0.321-3.007,0.333-4.547,0.027
		c-1.546-0.307-2.987-0.913-4.313-1.819c-1.34-0.913-2.5-2.113-3.507-3.62c-1.007-1.507-1.727-3.28-2.173-5.347
		c-0.5-2.319-0.693-4.774-0.56-7.354c0.126-2.58,0.573-5.446,1.333-8.579c0.753-3.133,1.7-5.92,2.833-8.327
		c1.126-2.413,2.466-4.588,4-6.54c1.539-1.954,3.253-3.599,5.134-4.96c1.874-1.36,3.886-2.273,6.04-2.739
		c0.72-0.154,1.314-0.126,1.78,0.06c0.466,0.193,0.867,0.44,1.213,0.753c0.34,0.3,0.674,0.594,1,0.887
		c0.326,0.294,0.686,0.473,1.101,0.546c0.406,0.087,0.814,0.101,1.207,0.06c0.406-0.034,0.807-0.101,1.213-0.186
		c0.34-0.073,0.686-0.154,1.046-0.247c0.36-0.101,0.707-0.179,1.046-0.253c0.466-0.101,0.92-0.147,1.34-0.133
		c0.427-0.007,0.833,0.126,1.213,0.374c0.381,0.253,0.707,0.633,1,1.154c0.294,0.532,0.546,1.287,0.753,2.253
		c0.321,1.48,0.521,3.161,0.601,5.033c0.073,1.874,0.126,3.813,0.133,5.794c0.007,1.981,0.014,4.233,0.027,6.781
		c0.007,2.533,0.2,4.634,0.553,6.299c0.307,1.42,0.681,2.5,1.12,3.246c0.433,0.748,1.087,1.021,1.954,0.833
		c0.647-0.14,1.3-0.447,1.947-0.92c0.64-0.473,1.273-1.06,1.886-1.734c0.613-0.686,1.22-1.427,1.807-2.253
		c0.58-0.819,1.126-1.647,1.626-2.5c1.161-1.987,2.294-4.2,3.393-6.613L211.453,170.86z M170.747,175.826
		c0.174,0.794,0.399,1.553,0.667,2.294c0.28,0.72,0.613,1.353,1.021,1.886s0.887,0.927,1.434,1.2
		c0.539,0.259,1.174,0.326,1.886,0.167c1.147-0.247,2.08-0.973,2.801-2.179c0.713-1.193,1.266-2.567,1.647-4.12
		c0.381-1.56,0.62-3.127,0.72-4.714c0.094-1.587,0.094-2.9,0-3.927l0.213-15.867c-1.28,0.273-2.447,0.853-3.519,1.741
		c-1.08,0.887-2.033,1.987-2.867,3.308c-0.84,1.3-1.56,2.739-2.161,4.32c-0.601,1.574-1.12,3.473-1.553,5.687
		c-0.427,2.22-0.66,4.134-0.679,5.753C170.327,172.979,170.46,174.467,170.747,175.826z"/>
	<path style="fill:#EA3457;" d="M220.553,180.966c-1.674,0.36-3.381-0.034-5.127-1.174c-1.753-1.14-3.427-2.813-5.014-5.033
		c-1.601-2.207-3.04-4.861-4.34-7.953c-1.3-3.087-2.326-6.407-3.087-9.953c-0.66-3.04-1.087-7.194-1.287-12.474
		c-0.2-5.274-0.3-7.907-0.3-7.907s0.126-2.686,0.387-8.054c0.259-5.373,0.748-9.74,1.447-13.094c0.7-3.36,1.567-6.547,2.587-9.554
		s2.2-5.687,3.526-8.047c1.326-2.367,2.826-4.306,4.494-5.854c1.667-1.539,3.487-2.526,5.46-2.947
		c1.434-0.314,2.686-0.294,3.739,0.053c1.046,0.34,1.94,0.906,2.666,1.686c0.734,0.787,1.326,1.727,1.787,2.819
		c0.466,1.094,0.826,2.227,1.08,3.407c0.626,2.934,0.927,5.994,0.893,9.187c-0.046,3.186-0.321,6.446-0.833,9.774
		c-0.512,3.328-1.207,6.7-2.094,10.121c-0.887,3.427-1.84,6.833-2.854,10.24c-1.027,3.4-2.067,6.76-3.127,10.073
		c-1.053,3.313-2,6.526-2.819,9.646c-0.087,0.346-0.167,0.794-0.227,1.333c-0.067,0.532-0.113,1.106-0.14,1.72
		c-0.027,0.614-0.053,1.266-0.067,1.954c-0.014,0.688,0,1.36,0.039,2l0.14,0.66c0.174,0.814,0.433,1.587,0.766,2.319
		c0.333,0.72,0.693,1.374,1.08,1.934c0.374,0.546,0.748,0.98,1.106,1.28c0.353,0.294,0.66,0.42,0.906,0.367
		c0.606-0.126,1.266-0.413,1.993-0.826s1.473-0.934,2.26-1.546c0.78-0.601,1.574-1.28,2.374-2.033
		c0.807-0.748,1.58-1.493,2.313-2.239c1.713-1.741,3.487-3.714,5.306-5.907l6.221,8.926c-2.434,2.5-4.879,4.794-7.347,6.861
		c-1.08,0.887-2.2,1.76-3.36,2.647c-1.167,0.881-2.353,1.7-3.56,2.454s-2.4,1.413-3.587,1.959
		C222.773,180.347,221.64,180.733,220.553,180.966z M212.64,144.08c0.867-2.813,1.746-5.946,2.64-9.407
		c0.899-3.466,1.693-7.013,2.374-10.633c0.686-3.62,1.186-7.187,1.507-10.706c0.314-3.519,0.307-6.733-0.034-9.646
		c-0.193-0.906-0.381-1.673-0.56-2.301c-0.186-0.64-0.393-0.934-0.633-0.881c-0.853,0.186-1.64,0.973-2.374,2.36
		c-0.734,1.393-1.374,3.207-1.92,5.427c-0.546,2.227-1.021,5.746-1.413,10.573c-0.387,4.82-0.587,7.24-0.587,7.24
		s0.039,2.193,0.106,6.579C211.82,137.066,212.12,140.867,212.64,144.08z"/>
	<path style="fill:#EA3457;" d="M250.86,174.433c-2.893,0.626-5.54,0.633-7.953,0.027c-2.4-0.606-4.519-1.654-6.361-3.161
		c-1.842-1.507-3.379-3.379-4.613-5.593c-1.241-2.234-2.14-4.654-2.707-7.274c-0.367-1.72-0.493-3.826-0.353-6.34
		c0.14-2.514,0.353-4.767,0.654-6.76c0.3-1.98,0.794-3.92,1.48-5.813c0.686-1.9,1.601-3.633,2.734-5.2
		c1.126-1.574,2.48-2.92,4.06-4.053c1.587-1.12,3.441-1.92,5.574-2.374c1.734-0.381,3.413-0.447,5.019-0.207
		c1.613,0.234,3.074,0.741,4.4,1.507c1.314,0.766,2.441,1.801,3.367,3.092c0.934,1.287,1.587,2.819,1.966,4.581
		c0.406,1.881,0.227,4.127-0.527,6.733c-0.759,2.599-1.794,4.927-3.113,6.96c-1.314,2.028-2.993,3.946-5.026,5.746
		c-2.033,1.807-4.326,3.36-6.873,4.666c0.64,0.72,1.246,1.307,1.819,1.76c0.567,0.447,1.113,0.766,1.647,0.966
		c0.532,0.207,1.073,0.307,1.613,0.326c0.539,0.014,1.106-0.053,1.7-0.179c1.86-0.399,3.739-1.186,5.647-2.36
		c1.906-1.167,3.721-2.514,5.441-4.026c1.714-1.514,3.301-3.106,4.76-4.767s2.666-3.2,3.633-4.613l7.32,4.806
		c-2.106,3.487-4.453,6.694-7.04,9.586c-1.126,1.246-2.36,2.493-3.693,3.753c-1.34,1.26-2.773,2.427-4.306,3.514
		c-1.539,1.073-3.166,2.033-4.886,2.86C254.513,173.413,252.727,174.034,250.86,174.433z M239.874,153.614
		c1.12-0.241,2.28-0.787,3.487-1.633c1.2-0.847,2.273-1.833,3.22-2.959c0.947-1.126,1.807-2.553,2.574-4.273
		c0.766-1.713,1.053-3.06,0.847-4.033c-0.294-1.36-0.8-2.427-1.5-3.2c-0.707-0.766-1.434-1.073-2.179-0.913
		c-1.333,0.294-2.427,0.78-3.273,1.473c-0.847,0.686-1.5,1.493-1.98,2.393c-0.466,0.92-0.787,1.913-0.966,2.973
		c-0.179,1.073-0.367,2.4-0.567,3.959c-0.2,1.574-0.227,2.819-0.087,3.78C239.587,152.134,239.734,152.94,239.874,153.614z"/>
	<path style="fill:#EA3457;" d="M265.207,152.96c1.413-1.874,2.553-3.434,3.427-4.673c0.867-1.241,1.7-2.64,2.5-4.2
		c0.794-1.567,1.427-2.847,1.874-3.833c0.454-0.986,0.993-2.147,1.606-3.494c0.62-1.347,1.367-2.993,2.246-4.941
		c0.881-1.94,2.039-4.393,3.487-7.327c0.28-0.647,0.613-1.287,0.993-1.927c0.387-0.64,0.833-1.241,1.34-1.794
		c0.521-0.553,1.113-1.046,1.78-1.466c0.674-0.427,1.459-0.727,2.36-0.92c1.487-0.326,2.673-0.413,3.553-0.253
		c0.874,0.154,1.546,0.42,2.028,0.819c0.473,0.387,0.794,0.826,0.966,1.34c0.179,0.5,0.3,0.94,0.381,1.319
		c0.16,0.748,0.053,1.654-0.346,2.679c-0.393,1.039-0.853,2.053-1.386,3.053c-0.527,1-1.039,1.927-1.521,2.76
		c-0.48,0.853-0.734,1.454-0.753,1.819c0.207,0.973,0.473,1.833,0.78,2.613c0.321,0.766,0.679,1.507,1.08,2.227
		c0.401,0.72,0.826,1.48,1.266,2.287c0.44,0.8,0.893,1.746,1.374,2.826c0.473,1.073,0.84,2.627,1.094,4.64
		c0.253,2.007,0.601,4.014,1.033,6.019c0.954-0.986,2.007-1.934,3.161-2.819c1.154-0.893,2.367-1.807,3.613-2.773
		c1.26-0.959,2.533-1.993,3.833-3.12c1.307-1.106,2.574-2.386,3.826-3.84l2.313,10.52c-1.613,1.847-3.553,3.68-5.806,5.48
		c-2.253,1.807-4.68,3.48-7.26,5.04c-2.58,1.553-5.233,2.92-7.953,4.087c-2.714,1.167-5.347,2.021-7.887,2.567
		c-1.833,0.393-3.574,0.601-5.226,0.613c-1.652,0.012-3.154-0.193-4.494-0.633c-1.347-0.44-2.514-1.14-3.5-2.113
		c-0.986-0.966-1.734-2.234-2.234-3.801c-0.406,0.186-0.819,0.346-1.241,0.461c-0.406,0.126-0.819,0.234-1.22,0.321
		c-0.493,0.106-0.959,0.186-1.406,0.247c-0.44,0.067-0.84,0.027-1.193-0.113c-0.346-0.133-0.667-0.406-0.954-0.819
		c-0.287-0.42-0.521-1.053-0.7-1.9c-0.16-0.748-0.126-1.487,0.106-2.214c0.227-0.72,0.546-1.381,0.934-1.993
		c0.387-0.606,0.787-1.154,1.207-1.633C264.694,153.614,265.006,153.233,265.207,152.96z M272.307,157.727
		c0.374-0.08,0.84,0.067,1.386,0.44c0.553,0.381,1.186,0.78,1.893,1.22c0.713,0.44,1.507,0.814,2.381,1.113
		c0.881,0.3,1.819,0.346,2.807,0.133c1.213-0.259,2.173-0.686,2.867-1.26c0.707-0.58,1.22-1.253,1.539-2.033
		c0.314-0.766,0.473-1.633,0.466-2.56c-0.007-0.934-0.113-1.886-0.321-2.86c-0.186-0.847-0.427-1.693-0.727-2.546
		c-0.294-0.86-0.507-1.954-0.654-3.287c-0.14-1.326-0.387-2.326-0.748-2.98c-0.346-0.667-0.66-1.234-0.92-1.7L272.307,157.727z"/>
	<polygon style="fill:#EA3457;" points="57.762,60.955 63.464,78.507 81.92,78.507 66.99,89.354 72.692,106.907 57.762,96.058 
		42.831,106.907 48.534,89.354 33.603,78.507 52.058,78.507 	"/>
	<path style="fill:#EA3457;" d="M42.834,113.734c-1.406,0-2.813-0.433-4.014-1.3c-2.393-1.741-3.393-4.82-2.48-7.634l4.166-12.839
		l-10.919-7.927c-2.393-1.741-3.393-4.82-2.48-7.634c0.913-2.814,3.533-4.719,6.494-4.719h13.5l4.166-12.834
		c0.913-2.813,3.533-4.721,6.494-4.721c2.953,0,5.581,1.906,6.494,4.714l4.173,12.841H81.92c2.959,0,5.581,1.906,6.494,4.721
		c0.913,2.814-0.087,5.893-2.48,7.634l-10.919,7.927l4.173,12.834c0.913,2.813-0.087,5.9-2.48,7.634
		c-2.386,1.746-5.627,1.741-8.026,0.007l-10.919-7.933l-10.914,7.927C45.653,113.3,44.24,113.734,42.834,113.734z M53.866,85.093
		c1.033,1.294,1.567,2.92,1.487,4.581c1.546-0.587,3.267-0.587,4.813,0c-0.08-1.661,0.454-3.287,1.487-4.588
		c-1.594-0.44-2.98-1.447-3.886-2.826C56.852,83.647,55.467,84.654,53.866,85.093z"/>
</g>
<path style="fill:#FFFFFF;" d="M303.787,232.107c-1.746,0-3.494-0.667-4.826-2c-2.666-2.666-2.666-6.987,0-9.653l58.027-58.027
	c2.666-2.666,6.987-2.666,9.653,0s2.666,6.987,0,9.653l-58.027,58.027C307.28,231.439,305.533,232.107,303.787,232.107z"/>
<path style="fill:#FFFFFF;" d="M348.16,228.693c-1.746,0-3.494-0.667-4.826-2c-2.666-2.666-2.666-6.987,0-9.653l20.48-20.48
	c2.666-2.666,6.987-2.666,9.653,0s2.666,6.987,0,9.653l-20.48,20.48C351.654,228.026,349.906,228.693,348.16,228.693z"/>
<path style="fill:#602F75;" d="M307.2,372.053H102.4c-3.773,0-6.827-3.053-6.827-6.827s3.053-6.827,6.827-6.827h204.8
	c3.773,0,6.827,3.053,6.827,6.827S310.973,372.053,307.2,372.053z"/>
<g>
</g>
<g>
</g>
<g>
</g>
<g>
</g>
<g>
</g>
<g>
</g>
<g>
</g>
<g>
</g>
<g>
</g>
<g>
</g>
<g>
</g>
<g>
</g>
<g>
</g>
<g>
</g>
<g>
</g>
</svg>
