<?xml version="1.0" encoding="iso-8859-1"?>
<!-- Generator: Adobe Illustrator 19.0.0, SVG Export Plug-In . SVG Version: 6.00 Build 0)  -->
<svg version="1.1" id="Capa_1" xmlns="http://www.w3.org/2000/svg" xmlns:xlink="http://www.w3.org/1999/xlink" x="0px" y="0px"
	 viewBox="0 0 406.468 406.468" style="enable-background:new 0 0 406.468 406.468;" xml:space="preserve">
<g>
	<path style="fill:#00E7FF;" d="M216.245,18.453L216.245,18.453c4.381-15.077,26.607-11.88,26.563,3.82l0,0
		c-0.039,13.565,17.669,18.763,24.97,7.332l0,0c8.45-13.232,28.875-3.903,24.41,11.148l0,0
		c-3.859,13.005,11.667,22.982,21.893,14.07l0,0c11.836-10.315,28.805,4.39,20.28,17.574l0,0
		c-7.366,11.39,4.719,25.337,17.041,19.668l0,0c14.263-6.562,26.402,12.327,14.508,22.576l0,0
		c-10.276,8.854-2.609,25.641,10.81,23.671l0,0c15.534-2.278,21.859,19.267,7.561,25.748l0,0c-12.355,5.6-9.728,23.866,3.703,25.759
		l0,0c15.546,2.19,15.546,24.644,0,26.836l0,0c-13.431,1.893-16.058,20.159-3.703,25.759l0,0c14.3,6.482,7.974,28.027-7.561,25.748
		l0,0c-13.421-1.968-21.088,14.819-10.81,23.671l0,0c11.894,10.247-0.246,29.138-14.508,22.576l0,0
		c-12.322-5.67-24.407,8.277-17.041,19.668l0,0c8.525,13.184-8.445,27.889-20.28,17.574l0,0
		c-10.226-8.912-25.752,1.065-21.893,14.07l0,0c4.466,15.051-15.959,24.38-24.41,11.148l0,0c-7.301-11.431-25.008-6.233-24.97,7.332
		l0,0c0.044,15.7-22.182,18.895-26.563,3.82l0,0c-3.785-13.025-22.24-13.025-26.023,0l0,0c-4.381,15.077-26.607,11.88-26.563-3.82
		l0,0c0.039-13.565-17.669-18.763-24.97-7.332l0,0c-8.45,13.232-28.875,3.903-24.41-11.148l0,0
		c3.859-13.005-11.667-22.982-21.893-14.07l0,0c-11.836,10.315-28.805-4.39-20.28-17.574l0,0
		c7.366-11.39-4.719-25.337-17.041-19.668l0,0c-14.263,6.562-26.402-12.327-14.508-22.576l0,0
		c10.276-8.854,2.609-25.641-10.81-23.671l0,0c-15.534,2.278-21.859-19.267-7.561-25.748l0,0c12.355-5.6,9.728-23.866-3.703-25.759
		l0,0c-15.546-2.19-15.546-24.644,0-26.836l0,0c13.431-1.893,16.058-20.159,3.703-25.759l0,0c-14.3-6.482-7.974-28.027,7.561-25.748
		l0,0c13.421,1.968,21.088-14.819,10.81-23.671l0,0c-11.894-10.247,0.246-29.138,14.508-22.576l0,0
		c12.322,5.67,24.407-8.277,17.041-19.668l0,0c-8.525-13.184,8.445-27.889,20.28-17.574l0,0c10.226,8.912,25.752-1.065,21.893-14.07
		l0,0c-4.466-15.051,15.959-24.38,24.41-11.148l0,0c7.301,11.431,25.008,6.233,24.97-7.332l0,0
		c-0.044-15.7,22.182-18.895,26.563-3.82l0,0C194.005,31.48,212.461,31.48,216.245,18.453z"/>
	<path style="fill:#00E7FF;" d="M177.43,404.625c-1.027,0-2.067-0.073-3.12-0.227c-10.32-1.48-17.507-9.8-17.476-20.227
		c0.014-4.68-3.693-6.134-4.83-6.467c-1.133-0.34-5.036-1.12-7.561,2.826c-5.613,8.793-16.164,11.901-25.636,7.574
		c-9.487-4.333-14.037-14.339-11.069-24.334c1.329-4.487-1.812-6.927-2.809-7.567c-0.997-0.633-4.526-2.487-8.054,0.587
		c-7.859,6.861-18.85,6.866-26.73,0.034c-7.88-6.827-9.429-17.707-3.77-26.46c2.546-3.934,0.21-7.159-0.563-8.061
		c-0.773-0.893-3.651-3.654-7.887-1.7c-9.491,4.367-20.026,1.273-25.663-7.494c-5.637-8.767-4.057-19.647,3.84-26.46
		c3.55-3.053,2.22-6.806,1.727-7.887c-0.486-1.073-2.454-4.526-7.086-3.854c-10.344,1.533-19.577-4.427-22.509-14.42
		c-2.937-10.006,1.644-20,11.136-24.306c4.267-1.934,4.05-5.907,3.879-7.079c-0.171-1.172-1.08-5.04-5.714-5.693
		C7.209,221.952,0,213.658,0,203.232c0-10.426,7.211-18.72,17.533-20.18c4.637-0.654,5.547-4.519,5.717-5.693
		s0.387-5.147-3.879-7.079c-9.492-4.306-14.073-14.3-11.136-24.306c2.934-9.999,12.187-15.98,22.508-14.42
		c4.647,0.674,6.6-2.78,7.089-3.854c0.493-1.08,1.823-4.833-1.727-7.887c-7.897-6.813-9.477-17.693-3.84-26.46
		s16.183-11.86,25.66-7.494c4.246,1.947,7.113-0.807,7.89-1.7c0.773-0.899,3.11-4.127,0.563-8.061
		c-5.659-8.753-4.11-19.633,3.77-26.46c7.88-6.84,18.871-6.82,26.73,0.034c3.523,3.081,7.057,1.22,8.054,0.587
		c0.997-0.64,4.14-3.081,2.809-7.567c-2.966-9.993,1.584-20,11.069-24.334c9.491-4.34,20.029-1.213,25.636,7.574
		c2.524,3.953,6.427,3.166,7.561,2.826c1.137-0.333,4.844-1.787,4.83-6.467c-0.031-10.426,7.156-18.746,17.476-20.227
		c10.334-1.507,19.557,4.473,22.467,14.479c1.307,4.5,5.274,4.854,6.456,4.854c1.183,0,5.151-0.353,6.456-4.854l0,0
		c2.913-10.006,12.157-15.973,22.467-14.479c10.32,1.48,17.507,9.8,17.476,20.227c-0.014,4.68,3.693,6.134,4.83,6.467
		c1.137,0.34,5.033,1.126,7.561-2.826c5.606-8.793,16.157-11.907,25.636-7.574c9.487,4.333,14.037,14.339,11.069,24.334
		c-1.329,4.487,1.812,6.927,2.809,7.567c1.004,0.64,4.533,2.493,8.054-0.587c7.859-6.854,18.85-6.873,26.73-0.034
		c7.88,6.827,9.429,17.707,3.77,26.46c-2.546,3.934-0.21,7.159,0.563,8.061c0.777,0.893,3.644,3.654,7.887,1.7
		c9.487-4.367,20.026-1.273,25.663,7.494c5.637,8.767,4.057,19.647-3.84,26.46c-3.55,3.053-2.22,6.806-1.727,7.887
		s2.476,4.533,7.086,3.854c10.337-1.553,19.577,4.42,22.509,14.42c2.937,10.006-1.644,20-11.136,24.306
		c-4.267,1.934-4.05,5.907-3.879,7.079c0.171,1.172,1.08,5.04,5.714,5.693c10.327,1.459,17.536,9.754,17.536,20.18
		c0,10.426-7.211,18.72-17.533,20.18c-4.637,0.654-5.547,4.519-5.717,5.693s-0.387,5.147,3.879,7.079
		c9.492,4.306,14.073,14.3,11.136,24.306c-2.937,9.999-12.203,15.947-22.508,14.42c-4.637-0.679-6.6,2.78-7.09,3.854
		c-0.493,1.08-1.823,4.833,1.727,7.887c7.897,6.813,9.477,17.693,3.84,26.46c-5.637,8.767-16.186,11.86-25.66,7.494
		c-4.253-1.959-7.12,0.807-7.89,1.7c-0.773,0.899-3.11,4.127-0.563,8.061c5.659,8.753,4.11,19.633-3.77,26.46
		c-7.88,6.833-18.871,6.827-26.73-0.034c-3.523-3.081-7.057-1.227-8.054-0.587c-0.997,0.64-4.14,3.081-2.809,7.567
		c2.966,9.993-1.584,20-11.069,24.334c-9.486,4.333-20.026,1.213-25.636-7.574c-2.526-3.946-6.424-3.166-7.561-2.826
		c-1.137,0.333-4.844,1.787-4.83,6.467c0.031,10.426-7.156,18.746-17.476,20.227c-10.32,1.527-19.557-4.473-22.467-14.479
		c-1.307-4.5-5.274-4.854-6.456-4.854c-1.183,0-5.151,0.353-6.456,4.854C194.164,398.906,186.447,404.625,177.43,404.625z
		 M149.864,363.727c1.969,0,3.98,0.287,5.987,0.881c8.917,2.613,14.664,10.313,14.636,19.606c-0.017,5.56,4.799,6.533,5.767,6.673
		c0.959,0.12,5.864,0.56,7.41-4.78c2.596-8.926,10.276-14.693,19.57-14.693c9.294,0,16.973,5.767,19.57,14.693
		c1.55,5.333,6.46,4.907,7.41,4.78c0.966-0.14,5.784-1.113,5.767-6.673c-0.027-9.293,5.721-16.993,14.636-19.606
		c8.91-2.633,17.91,0.753,22.914,8.579c2.99,4.687,7.574,2.913,8.46,2.5c0.887-0.406,5.233-2.7,3.654-8.033
		c-2.647-8.907,0.696-17.906,8.516-22.934c7.817-5.026,17.396-4.333,24.407,1.78c4.207,3.673,8.079,0.654,8.817,0.014
		c0.737-0.64,4.263-4.067,1.244-8.733c-5.047-7.806-4.372-17.388,1.714-24.414c6.083-7.02,15.469-9.054,23.917-5.159
		c5.04,2.313,7.936-1.661,8.463-2.473c0.527-0.819,2.947-5.1-1.266-8.733c-7.04-6.067-9.097-15.454-5.233-23.907
		c3.864-8.446,12.264-13.066,21.494-11.687c5.536,0.748,7.147-3.826,7.424-4.76c0.276-0.94,1.389-5.726-3.676-8.02
		c-8.334-3.78-13.056-12.407-11.754-21.466c1.323-9.194,8.127-15.973,17.326-17.266c5.504-0.78,5.784-5.687,5.784-6.659
		c0-0.973-0.28-5.879-5.787-6.659c-9.197-1.294-16-8.073-17.323-17.266c-1.304-9.061,3.42-17.686,11.754-21.466
		c5.067-2.294,3.953-7.079,3.676-8.02c-0.276-0.934-1.92-5.513-7.427-4.76c-9.19,1.381-17.63-3.239-21.49-11.687
		c-3.864-8.453-1.807-17.84,5.233-23.907c4.214-3.633,1.794-7.914,1.266-8.733c-0.527-0.819-3.407-4.787-8.467-2.473
		c-8.443,3.893-17.83,1.867-23.914-5.159c-6.086-7.026-6.76-16.606-1.714-24.414c3.021-4.666-0.507-8.093-1.244-8.733
		c-0.737-0.64-4.623-3.64-8.817,0.014c-7.009,6.106-16.591,6.806-24.407,1.78c-7.82-5.026-11.163-14.027-8.516-22.932
		c1.58-5.333-2.767-7.627-3.654-8.033s-5.47-2.193-8.46,2.5c-5.004,7.827-14.007,11.206-22.914,8.579
		c-8.917-2.613-14.664-10.313-14.636-19.606c0.017-5.56-4.799-6.533-5.767-6.673c-0.957-0.14-5.861-0.567-7.41,4.78l0,0
		c-2.596,8.926-10.276,14.693-19.57,14.693c-9.295,0-16.973-5.767-19.57-14.693c-1.546-5.333-6.443-4.92-7.41-4.78
		s-5.784,1.113-5.767,6.673c0.027,9.293-5.721,16.993-14.636,19.606c-8.921,2.64-17.913-0.753-22.914-8.579
		c-2.983-4.687-7.574-2.9-8.46-2.5c-0.887,0.406-5.233,2.7-3.654,8.033c2.647,8.907-0.696,17.906-8.516,22.932
		c-7.817,5.026-17.399,4.326-24.407-1.78c-4.193-3.661-8.076-0.654-8.817-0.014c-0.737,0.64-4.263,4.067-1.244,8.733
		c5.047,7.806,4.372,17.388-1.713,24.414c-6.083,7.026-15.466,9.054-23.917,5.159c-5.06-2.34-7.939,1.654-8.463,2.473
		c-0.527,0.819-2.947,5.1,1.266,8.733c7.04,6.067,9.097,15.454,5.233,23.907c-3.86,8.446-12.264,13.073-21.494,11.687
		c-5.56-0.8-7.149,3.826-7.424,4.76c-0.276,0.94-1.389,5.726,3.676,8.02c8.334,3.78,13.056,12.407,11.754,21.466
		c-1.323,9.194-8.127,15.973-17.326,17.266c-5.504,0.78-5.784,5.687-5.784,6.659c0,0.973,0.28,5.879,5.787,6.659
		c9.197,1.294,16,8.073,17.323,17.266c1.304,9.061-3.42,17.686-11.754,21.466c-5.067,2.294-3.953,7.079-3.676,8.02
		c0.273,0.934,1.947,5.501,7.427,4.76c9.184-1.374,17.63,3.239,21.49,11.687c3.864,8.453,1.807,17.84-5.233,23.907
		c-4.214,3.634-1.794,7.914-1.266,8.733c0.527,0.819,3.413,4.799,8.467,2.473c8.436-3.893,17.83-1.86,23.914,5.159
		c6.086,7.026,6.76,16.606,1.713,24.414c-3.021,4.666,0.507,8.093,1.244,8.733c0.744,0.64,4.623,3.654,8.817-0.014
		c7.006-6.113,16.591-6.806,24.407-1.78c7.82,5.026,11.163,14.027,8.516,22.934c-1.58,5.333,2.767,7.627,3.654,8.033
		c0.881,0.406,5.463,2.179,8.46-2.5C136.813,367.119,143.087,363.727,149.864,363.727z M216.247,18.453h0.067H216.247z"/>
</g>
<path style="fill:#EA3457;" d="M212.052,77.995L212.052,77.995c2.97-10.218,18.033-8.052,18.002,2.589l0,0
	c-0.026,9.194,11.976,12.718,16.923,4.97l0,0c5.728-8.969,19.57-2.645,16.544,7.555l0,0c-2.615,8.813,7.907,15.577,14.838,9.535l0,0
	c8.021-6.991,19.524,2.975,13.745,11.911l0,0c-4.992,7.719,3.198,17.172,11.551,13.329l0,0c9.667-4.448,17.894,8.356,9.834,15.3l0,0
	c-6.965,6.001-1.77,17.379,7.327,16.044l0,0c10.528-1.545,14.816,13.058,5.123,17.451l0,0c-8.373,3.796-6.593,16.176,2.51,17.459
	l0,0c10.537,1.485,10.537,16.703,0,18.188l0,0c-9.103,1.282-10.883,13.664-2.51,17.459l0,0c9.692,4.393,5.403,18.995-5.123,17.451
	l0,0c-9.097-1.335-14.292,10.044-7.327,16.044l0,0c8.062,6.946-0.167,19.748-9.834,15.3l0,0c-8.352-3.843-16.543,5.61-11.551,13.329
	l0,0c5.779,8.934-5.724,18.901-13.745,11.911l0,0c-6.931-6.04-17.452,0.722-14.838,9.535l0,0
	c3.028,10.201-10.817,16.524-16.544,7.555l0,0c-4.948-7.748-16.949-4.224-16.923,4.97l0,0c0.031,10.641-15.034,12.807-18.002,2.589
	l0,0c-2.565-8.829-15.073-8.829-17.638,0l0,0c-2.97,10.218-18.033,8.052-18.002-2.589l0,0c0.026-9.194-11.976-12.718-16.923-4.97
	l0,0c-5.728,8.969-19.57,2.645-16.544-7.555l0,0c2.615-8.813-7.907-15.577-14.838-9.535l0,0c-8.021,6.99-19.524-2.975-13.745-11.911
	l0,0c4.992-7.719-3.198-17.172-11.551-13.329l0,0c-9.667,4.448-17.894-8.356-9.834-15.3l0,0c6.965-6.001,1.77-17.379-7.327-16.044
	l0,0c-10.528,1.545-14.816-13.058-5.123-17.451l0,0c8.373-3.796,6.593-16.176-2.511-17.459l0,0
	c-10.537-1.485-10.537-16.703,0-18.188l0,0c9.103-1.282,10.883-13.664,2.511-17.459l0,0c-9.692-4.393-5.403-18.995,5.123-17.451l0,0
	c9.097,1.335,14.292-10.044,7.327-16.044l0,0c-8.062-6.946,0.167-19.748,9.834-15.3l0,0c8.352,3.843,16.543-5.61,11.551-13.329l0,0
	c-5.779-8.934,5.724-18.901,13.745-11.911l0,0c6.931,6.04,17.452-0.722,14.838-9.535l0,0c-3.028-10.201,10.817-16.524,16.544-7.555
	l0,0c4.948,7.748,16.949,4.224,16.923-4.97l0,0c-0.031-10.641,15.034-12.807,18.002-2.589l0,0
	C196.98,86.823,209.487,86.823,212.052,77.995z"/>
<path style="fill:#602F75;" d="M185.771,341.932c-0.807,0-1.623-0.06-2.454-0.179c-8.11-1.167-13.757-7.7-13.73-15.892
	c0.003-1.459-0.92-2.039-1.693-2.266c-0.787-0.22-1.87-0.241-2.654,0.993c-4.41,6.9-12.696,9.353-20.144,5.946
	c-7.453-3.4-11.027-11.261-8.697-19.113c0.416-1.406-0.307-2.22-0.986-2.661c-0.679-0.434-1.727-0.741-2.819,0.207
	c-6.18,5.393-14.814,5.393-21.007,0.034c-6.19-5.367-7.407-13.913-2.959-20.794c0.797-1.227,0.333-2.214-0.196-2.826
	c-0.531-0.606-1.447-1.2-2.77-0.601c-7.436,3.42-15.727,1.007-20.157-5.886c-4.431-6.886-3.186-15.44,3.017-20.787
	c1.109-0.954,0.944-2.028,0.606-2.767c-0.336-0.734-1.017-1.521-2.487-1.353c-8.076,1.22-15.377-3.466-17.683-11.327
	c-2.311-7.859,1.29-15.706,8.753-19.094c1.329-0.601,1.473-1.679,1.357-2.48c-0.113-0.8-0.553-1.794-2-2
	c-8.113-1.145-13.78-7.666-13.78-15.851c0-8.185,5.666-14.706,13.776-15.853c1.451-0.207,1.889-1.2,2.004-2
	c0.116-0.8-0.027-1.881-1.357-2.48c-7.46-3.379-11.059-11.233-8.757-19.094c2.307-7.854,9.566-12.553,17.683-11.334
	c1.483,0.167,2.154-0.613,2.49-1.347c0.336-0.741,0.503-1.812-0.604-2.767c-6.207-5.347-7.45-13.901-3.021-20.787
	c4.431-6.893,12.72-9.313,20.159-5.886c1.34,0.613,2.237,0.014,2.767-0.601c0.529-0.614,0.993-1.601,0.196-2.826
	c-4.446-6.88-3.231-15.427,2.959-20.794c6.19-5.367,14.824-5.361,21.007,0.034c1.091,0.954,2.133,0.64,2.819,0.207
	c0.679-0.44,1.403-1.253,0.986-2.661c-2.33-7.854,1.244-15.713,8.697-19.113c7.446-3.4,15.734-0.954,20.144,5.946
	c0.783,1.227,1.867,1.207,2.654,0.993c0.773-0.227,1.696-0.807,1.693-2.266c-0.027-8.194,5.62-14.727,13.73-15.892
	c8.16-1.193,15.367,3.514,17.654,11.373c0.406,1.406,1.458,1.707,2.263,1.707s1.857-0.3,2.263-1.707l0,0
	c2.287-7.866,9.523-12.559,17.654-11.373c8.11,1.167,13.757,7.7,13.73,15.892c-0.003,1.459,0.92,2.039,1.693,2.266
	c0.773,0.213,1.864,0.234,2.654-0.993c4.413-6.9,12.699-9.347,20.144-5.946c7.453,3.4,11.027,11.261,8.697,19.113
	c-0.416,1.406,0.307,2.22,0.986,2.661c0.686,0.44,1.734,0.753,2.819-0.207c6.183-5.386,14.817-5.386,21.007-0.034
	c6.19,5.367,7.407,13.913,2.959,20.794c-0.797,1.227-0.333,2.214,0.196,2.826c0.532,0.606,1.458,1.213,2.77,0.601
	c7.427-3.427,15.73-1.007,20.157,5.886c4.431,6.886,3.186,15.44-3.017,20.787c-1.109,0.954-0.944,2.028-0.606,2.767
	c0.336,0.734,1.046,1.567,2.487,1.353c8.067-1.227,15.377,3.466,17.683,11.327c2.311,7.859-1.29,15.706-8.753,19.094
	c-1.329,0.601-1.473,1.679-1.357,2.48c0.113,0.8,0.553,1.794,2,2c8.113,1.147,13.78,7.666,13.78,15.853s-5.666,14.706-13.776,15.853
	c-1.451,0.207-1.889,1.2-2.004,2c-0.116,0.8,0.027,1.881,1.357,2.48c7.46,3.379,11.059,11.233,8.757,19.094
	c-2.307,7.854-9.55,12.566-17.683,11.334c-1.497-0.2-2.161,0.613-2.49,1.347c-0.336,0.741-0.503,1.812,0.604,2.767
	c6.207,5.347,7.45,13.901,3.021,20.787c-4.427,6.893-12.716,9.306-20.159,5.886c-1.329-0.601-2.237-0.007-2.767,0.601
	c-0.531,0.613-0.993,1.601-0.196,2.826c4.446,6.88,3.231,15.427-2.959,20.794c-6.197,5.354-14.829,5.354-21.007-0.034
	c-1.101-0.959-2.144-0.654-2.819-0.207c-0.679,0.44-1.403,1.253-0.986,2.661c2.33,7.854-1.244,15.713-8.697,19.113
	c-7.443,3.406-15.73,0.954-20.144-5.946c-0.79-1.234-1.881-1.213-2.654-0.993c-0.773,0.227-1.696,0.807-1.693,2.266
	c0.027,8.194-5.62,14.727-13.73,15.892c-8.137,1.193-15.367-3.514-17.654-11.373c-0.406-1.406-1.457-1.707-2.263-1.707
	c-0.806,0-1.857,0.3-2.263,1.707C198.917,337.439,192.857,341.932,185.771,341.932z M167.156,309.832c1.517,0,3.06,0.213,4.584,0.66
	c6.897,2.028,11.517,8.212,11.5,15.406c-0.003,1.36,0.676,2.147,2.021,2.34c1.343,0.227,2.22-0.36,2.596-1.673
	c2.007-6.907,8.187-11.547,15.377-11.547s13.37,4.64,15.377,11.547c0.377,1.314,1.263,1.874,2.596,1.673
	c1.343-0.193,2.024-0.98,2.021-2.34c-0.017-7.194,4.603-13.38,11.5-15.406c6.89-2.028,14.133,0.686,18.007,6.746
	c0.734,1.147,1.731,1.454,2.966,0.874c1.234-0.567,1.664-1.507,1.28-2.813c-2.046-6.893,0.643-14.133,6.694-18.026
	c6.05-3.879,13.754-3.319,19.173,1.4c1.027,0.893,2.07,0.899,3.091,0.007c1.027-0.887,1.174-1.92,0.437-3.06
	c-3.903-6.033-3.364-13.74,1.343-19.18c4.707-5.439,12.268-7.067,18.79-4.06c1.241,0.573,2.239,0.273,2.97-0.867
	c0.737-1.147,0.587-2.173-0.444-3.06c-5.446-4.693-7.1-12.24-4.113-18.78c2.99-6.547,9.82-10.254,16.887-9.194
	c1.336,0.186,2.217-0.36,2.603-1.667c0.384-1.3-0.05-2.246-1.287-2.807c-6.55-2.966-10.264-9.747-9.24-16.867
	s6.497-12.573,13.617-13.573c1.343-0.186,2.028-0.973,2.028-2.333c0-1.36-0.683-2.147-2.029-2.333
	c-7.117-1-12.59-6.453-13.614-13.573c-1.024-7.12,2.69-13.901,9.24-16.867c1.237-0.56,1.671-1.507,1.287-2.807
	c-0.387-1.314-1.266-1.893-2.606-1.673c-7.113,1.08-13.891-2.64-16.884-9.18c-2.987-6.547-1.333-14.094,4.116-18.787
	c1.027-0.887,1.176-1.913,0.44-3.06c-0.737-1.14-1.731-1.434-2.966-0.867c-6.537,3.007-14.087,1.381-18.794-4.06
	c-4.707-5.441-5.246-13.146-1.343-19.18c0.737-1.14,0.591-2.173-0.437-3.06c-1.021-0.893-2.063-0.887-3.091,0.007
	c-5.427,4.707-13.126,5.28-19.173,1.399c-6.05-3.893-8.74-11.133-6.694-18.026c0.384-1.307-0.046-2.246-1.28-2.813
	c-1.237-0.567-2.234-0.266-2.966,0.874c-3.874,6.06-11.117,8.76-18.007,6.746c-6.897-2.028-11.517-8.212-11.5-15.406
	c0.003-1.36-0.676-2.147-2.021-2.34c-1.304-0.179-2.217,0.36-2.596,1.673l0,0c-2.007,6.907-8.187,11.547-15.377,11.547
	c-7.19,0-13.37-4.64-15.377-11.547c-0.381-1.314-1.266-1.886-2.596-1.673c-1.343,0.193-2.024,0.98-2.021,2.34
	c0.017,7.194-4.603,13.38-11.5,15.406c-6.893,2.014-14.136-0.686-18.007-6.746c-0.727-1.14-1.724-1.44-2.966-0.874
	c-1.234,0.567-1.664,1.507-1.28,2.813c2.046,6.893-0.643,14.133-6.694,18.026c-6.05,3.879-13.751,3.313-19.173-1.399
	c-1.027-0.893-2.07-0.899-3.091-0.007c-1.027,0.887-1.174,1.92-0.437,3.06c3.903,6.033,3.364,13.74-1.343,19.18
	c-4.707,5.439-12.269,7.067-18.79,4.06c-1.237-0.56-2.237-0.266-2.97,0.867c-0.737,1.147-0.587,2.173,0.444,3.06
	c5.446,4.693,7.1,12.24,4.113,18.78c-2.99,6.547-9.786,10.267-16.887,9.194c-1.367-0.2-2.22,0.36-2.603,1.667
	c-0.384,1.3,0.049,2.246,1.287,2.807c6.55,2.966,10.264,9.747,9.24,16.867c-1.024,7.12-6.497,12.573-13.617,13.573
	c-1.345,0.186-2.028,0.973-2.028,2.333c0,1.36,0.683,2.147,2.029,2.333c7.117,1,12.59,6.453,13.614,13.573
	c1.024,7.12-2.69,13.901-9.24,16.867c-1.237,0.56-1.671,1.507-1.287,2.807c0.384,1.314,1.263,1.881,2.606,1.673
	c7.127-1.039,13.894,2.647,16.884,9.18c2.987,6.547,1.333,14.094-4.116,18.787c-1.027,0.887-1.176,1.913-0.44,3.06
	c0.73,1.133,1.724,1.427,2.966,0.867c6.533-3.007,14.087-1.381,18.794,4.06c4.707,5.441,5.246,13.146,1.343,19.18
	c-0.737,1.14-0.591,2.173,0.437,3.06c1.021,0.893,2.063,0.887,3.091-0.007c5.424-4.721,13.121-5.287,19.173-1.4
	c6.05,3.893,8.74,11.133,6.694,18.026c-0.384,1.307,0.046,2.246,1.28,2.813c1.244,0.58,2.239,0.273,2.966-0.874
	C156.751,312.52,161.807,309.832,167.156,309.832z M212.053,77.993h0.067H212.053z"/>
<g>
	<path style="fill:#FFE600;" d="M158.853,281.74c-1.196,0-2.406-0.314-3.507-0.973c-3.234-1.94-4.28-6.134-2.34-9.366l81.92-136.533
		c1.94-3.234,6.13-4.28,9.366-2.34c3.234,1.94,4.28,6.134,2.34,9.366l-81.92,136.533C163.434,280.559,161.173,281.74,158.853,281.74
		z"/>
	<path style="fill:#FFE600;" d="M162.273,172.513c-13.174,0-23.893-10.72-23.893-23.893s10.72-23.893,23.893-23.893
		c13.174,0,23.893,10.72,23.893,23.893S175.447,172.513,162.273,172.513z M162.273,138.38c-5.647,0-10.24,4.593-10.24,10.24
		s4.593,10.24,10.24,10.24c5.647,0,10.24-4.593,10.24-10.24S167.921,138.38,162.273,138.38z"/>
	<path style="fill:#FFE600;" d="M244.193,274.913c-13.174,0-23.893-10.72-23.893-23.893c0-13.174,10.72-23.893,23.893-23.893
		c13.174,0,23.893,10.72,23.893,23.893C268.087,264.194,257.367,274.913,244.193,274.913z M244.193,240.78
		c-5.647,0-10.24,4.593-10.24,10.24s4.593,10.24,10.24,10.24s10.24-4.593,10.24-10.24S249.841,240.78,244.193,240.78z"/>
</g>
<g>
</g>
<g>
</g>
<g>
</g>
<g>
</g>
<g>
</g>
<g>
</g>
<g>
</g>
<g>
</g>
<g>
</g>
<g>
</g>
<g>
</g>
<g>
</g>
<g>
</g>
<g>
</g>
<g>
</g>
</svg>
