<?xml version="1.0" encoding="iso-8859-1"?>
<!-- Generator: Adobe Illustrator 19.0.0, SVG Export Plug-In . SVG Version: 6.00 Build 0)  -->
<svg version="1.1" id="Capa_1" xmlns="http://www.w3.org/2000/svg" xmlns:xlink="http://www.w3.org/1999/xlink" x="0px" y="0px"
	 viewBox="0 0 402.773 402.773" style="enable-background:new 0 0 402.773 402.773;" xml:space="preserve">
<circle style="fill:#00E7FF;" cx="201.387" cy="201.387" r="194.56"/>
<path style="fill:#602F75;" d="M201.387,402.773C90.341,402.773,0,312.433,0,201.387S90.341,0,201.387,0
	s201.387,90.341,201.387,201.387S312.433,402.773,201.387,402.773z M201.387,13.653c-103.513,0-187.733,84.221-187.733,187.733
	S97.874,389.12,201.387,389.12S389.12,304.899,389.12,201.387S304.899,13.653,201.387,13.653z"/>
<path style="fill:#FFFFFF;" d="M370.835,105.813H148.528c-25.475,0-46.128,20.652-46.128,46.128v35.792h293.016
	C393.359,158.104,384.683,130.313,370.835,105.813z"/>
<path style="fill:#602F75;" d="M402.727,194.56H95.573v-42.621c0-29.199,23.753-52.953,52.953-52.953h226.287l1.959,3.466
	c14.807,26.187,23.366,54.719,25.453,84.806L402.727,194.56z M109.227,180.907H387.96c-2.594-24.047-9.694-46.967-21.159-68.267
	H148.526c-21.673,0-39.299,17.626-39.299,39.299V180.907z"/>
<circle style="fill:#EA3457;" cx="146.773" cy="150.187" r="17.067"/>
<path style="fill:#602F75;" d="M146.773,174.08c-13.174,0-23.893-10.72-23.893-23.893c0-13.174,10.72-23.893,23.893-23.893
	c13.174,0,23.893,10.72,23.893,23.893C170.667,163.36,159.947,174.08,146.773,174.08z M146.773,139.947
	c-5.647,0-10.24,4.593-10.24,10.24c0,5.647,4.593,10.24,10.24,10.24c5.647,0,10.24-4.593,10.24-10.24
	C157.013,144.539,152.421,139.947,146.773,139.947z"/>
<circle style="fill:#FFE600;" cx="201.387" cy="150.187" r="17.067"/>
<path style="fill:#602F75;" d="M201.387,174.08c-13.174,0-23.893-10.72-23.893-23.893c0-13.174,10.72-23.893,23.893-23.893
	s23.893,10.72,23.893,23.893C225.28,163.36,214.56,174.08,201.387,174.08z M201.387,139.947c-5.647,0-10.24,4.593-10.24,10.24
	c0,5.647,4.593,10.24,10.24,10.24s10.24-4.593,10.24-10.24C211.627,144.539,207.034,139.947,201.387,139.947z"/>
<circle style="fill:#00E7FF;" cx="256" cy="150.187" r="17.067"/>
<path style="fill:#602F75;" d="M256,174.08c-13.174,0-23.893-10.72-23.893-23.893c0-13.174,10.72-23.893,23.893-23.893
	c13.174,0,23.893,10.72,23.893,23.893C279.893,163.36,269.174,174.08,256,174.08z M256,139.947c-5.647,0-10.24,4.593-10.24,10.24
	c0,5.647,4.593,10.24,10.24,10.24s10.24-4.593,10.24-10.24C266.24,144.539,261.647,139.947,256,139.947z"/>
<path style="fill:#FFFFFF;" d="M102.4,368.872c29.005,17.179,62.833,27.075,98.987,27.075c107.452,0,194.56-87.108,194.56-194.56
	c0-4.594-0.217-9.137-0.531-13.653H102.4V368.872z"/>
<path style="fill:#602F75;" d="M201.387,402.773c-36.081,0-71.506-9.694-102.467-28.027l-3.347-1.98v-191.86h306.2l0.447,6.347
	c0.374,5.221,0.553,9.847,0.553,14.133C402.773,312.433,312.433,402.773,201.387,402.773z M109.227,364.933
	c28.047,15.833,59.82,24.187,92.16,24.187c103.513,0,187.733-84.221,187.733-187.733c0-2.161-0.053-4.42-0.154-6.827h-279.74
	V364.933z"/>
<g>
	<path style="fill:#EA3457;" d="M191.14,337.92c-1.266,0-2.54-0.346-3.686-1.087c-3.166-2.033-4.087-6.26-2.046-9.433l61.44-95.573
		c2.033-3.166,6.253-4.093,9.433-2.046c3.166,2.033,4.087,6.26,2.046,9.433l-61.44,95.573
		C195.587,336.814,193.386,337.92,191.14,337.92z"/>
	<path style="fill:#EA3457;" d="M194.56,269.653c-13.174,0-23.893-10.72-23.893-23.893c0-13.174,10.72-23.893,23.893-23.893
		c13.174,0,23.893,10.72,23.893,23.893C218.453,258.934,207.734,269.653,194.56,269.653z M194.56,235.52
		c-5.647,0-10.24,4.593-10.24,10.24S188.913,256,194.56,256c5.647,0,10.24-4.593,10.24-10.24S200.207,235.52,194.56,235.52z"/>
	<path style="fill:#EA3457;" d="M256,337.92c-13.174,0-23.893-10.72-23.893-23.893c0-13.174,10.72-23.893,23.893-23.893
		c13.174,0,23.893,10.72,23.893,23.893C279.893,327.2,269.174,337.92,256,337.92z M256,303.787c-5.647,0-10.24,4.593-10.24,10.24
		s4.593,10.24,10.24,10.24s10.24-4.593,10.24-10.24S261.647,303.787,256,303.787z"/>
</g>
<g>
</g>
<g>
</g>
<g>
</g>
<g>
</g>
<g>
</g>
<g>
</g>
<g>
</g>
<g>
</g>
<g>
</g>
<g>
</g>
<g>
</g>
<g>
</g>
<g>
</g>
<g>
</g>
<g>
</g>
</svg>
