<?xml version="1.0" encoding="iso-8859-1"?>
<!-- Generator: Adobe Illustrator 19.0.0, SVG Export Plug-In . SVG Version: 6.00 Build 0)  -->
<svg version="1.1" id="Capa_1" xmlns="http://www.w3.org/2000/svg" xmlns:xlink="http://www.w3.org/1999/xlink" x="0px" y="0px"
	 viewBox="0 0 402.773 402.773" style="enable-background:new 0 0 402.773 402.773;" xml:space="preserve">
<circle style="fill:#00E7FF;" cx="201.387" cy="201.387" r="194.56"/>
<path style="fill:#602F75;" d="M201.387,402.773C90.341,402.773,0,312.433,0,201.387S90.341,0,201.387,0
	s201.387,90.341,201.387,201.387S312.433,402.773,201.387,402.773z M201.387,13.653c-103.516,0-187.733,84.221-187.733,187.733
	S97.871,389.12,201.387,389.12S389.12,304.899,389.12,201.387S304.903,13.653,201.387,13.653z"/>
<path style="fill:#FFFFFF;" d="M370.835,105.813H148.528c-25.475,0-46.128,20.652-46.128,46.128v35.792h293.016
	C393.359,158.104,384.683,130.313,370.835,105.813z"/>
<path style="fill:#602F75;" d="M402.734,194.56H95.573v-42.621c0-29.199,23.753-52.953,52.953-52.953h226.29l1.959,3.466
	c14.797,26.18,23.361,54.714,25.45,84.806L402.734,194.56z M109.227,180.907H387.96c-2.594-24.054-9.694-46.973-21.156-68.267
	H148.526c-21.67,0-39.299,17.626-39.299,39.299V180.907z"/>
<circle style="fill:#EA3457;" cx="146.773" cy="150.187" r="17.067"/>
<path style="fill:#602F75;" d="M146.773,174.08c-13.174,0-23.893-10.72-23.893-23.893c0-13.174,10.72-23.893,23.893-23.893
	c13.174,0,23.893,10.72,23.893,23.893C170.667,163.36,159.947,174.08,146.773,174.08z M146.773,139.947
	c-5.647,0-10.24,4.593-10.24,10.24c0,5.647,4.593,10.24,10.24,10.24c5.647,0,10.24-4.593,10.24-10.24
	C157.013,144.539,152.421,139.947,146.773,139.947z"/>
<circle style="fill:#FFE600;" cx="201.387" cy="150.187" r="17.067"/>
<path style="fill:#602F75;" d="M201.387,174.08c-13.174,0-23.893-10.72-23.893-23.893c0-13.174,10.72-23.893,23.893-23.893
	s23.893,10.72,23.893,23.893C225.28,163.36,214.56,174.08,201.387,174.08z M201.387,139.947c-5.647,0-10.24,4.593-10.24,10.24
	c0,5.647,4.593,10.24,10.24,10.24s10.24-4.593,10.24-10.24C211.627,144.539,207.034,139.947,201.387,139.947z"/>
<circle style="fill:#00E7FF;" cx="256" cy="150.187" r="17.067"/>
<path style="fill:#602F75;" d="M256,174.08c-13.174,0-23.893-10.72-23.893-23.893c0-13.174,10.72-23.893,23.893-23.893
	c13.174,0,23.893,10.72,23.893,23.893C279.893,163.36,269.174,174.08,256,174.08z M256,139.947c-5.647,0-10.24,4.593-10.24,10.24
	c0,5.647,4.593,10.24,10.24,10.24s10.24-4.593,10.24-10.24C266.24,144.539,261.647,139.947,256,139.947z"/>
<path style="fill:#FFFFFF;" d="M102.4,368.872c29.005,17.179,62.833,27.075,98.987,27.075c107.452,0,194.56-87.108,194.56-194.56
	c0-4.594-0.217-9.137-0.531-13.653H102.4V368.872z"/>
<path style="fill:#602F75;" d="M201.387,402.773c-36.081,0-71.513-9.694-102.467-28.027l-3.347-1.98v-191.86h306.214l0.44,6.354
	c0.374,5.373,0.546,9.859,0.546,14.126C402.773,312.433,312.433,402.773,201.387,402.773z M109.227,364.933
	c28.044,15.833,59.82,24.187,92.16,24.187c103.516,0,187.733-84.221,187.733-187.733c0-2.167-0.049-4.407-0.154-6.827h-279.74
	V364.933z"/>
<g>
	<path style="fill:#EA3457;" d="M235.52,351.573l51.56-67.251c16.205-21.135,3.659-53.076-22.866-55.468
		c-1.172-0.106-2.359-0.16-3.558-0.16c-9.576,0-18.336,3.454-25.134,9.168c-6.798-5.714-15.56-9.168-25.134-9.168
		c-1.2,0-2.386,0.055-3.558,0.16c-26.525,2.393-39.071,34.333-22.866,55.468L235.52,351.573z"/>
	<path style="fill:#EA3457;" d="M235.52,358.4c-2.123,0-4.127-0.986-5.417-2.673l-51.56-67.253
		c-9.303-12.133-11.233-28.454-5.03-42.593c5.97-13.607,18.193-22.519,32.7-23.827c10.107-0.92,20.697,1.679,29.307,7.313
		c8.61-5.634,19.186-8.247,29.31-7.313c14.503,1.307,26.726,10.22,32.696,23.827c6.204,14.14,4.273,30.461-5.03,42.593
		l-51.56,67.253C239.647,357.414,237.643,358.4,235.52,358.4z M210.386,235.52c-0.99,0-1.973,0.046-2.944,0.133
		c-9.477,0.853-17.487,6.726-21.427,15.713c-4.204,9.58-2.913,20.613,3.36,28.8l46.145,60.187l46.143-60.187
		c6.274-8.187,7.564-19.22,3.36-28.8c-3.941-8.987-11.95-14.86-21.424-15.713c-8.421-0.734-17.123,1.92-23.687,7.433
		c-2.54,2.133-6.246,2.133-8.786,0C225.323,238.206,217.957,235.52,210.386,235.52z"/>
</g>
<g>
</g>
<g>
</g>
<g>
</g>
<g>
</g>
<g>
</g>
<g>
</g>
<g>
</g>
<g>
</g>
<g>
</g>
<g>
</g>
<g>
</g>
<g>
</g>
<g>
</g>
<g>
</g>
<g>
</g>
</svg>
