<?xml version="1.0" encoding="iso-8859-1"?>
<!-- Generator: Adobe Illustrator 19.0.0, SVG Export Plug-In . SVG Version: 6.00 Build 0)  -->
<svg version="1.1" id="Capa_1" xmlns="http://www.w3.org/2000/svg" xmlns:xlink="http://www.w3.org/1999/xlink" x="0px" y="0px"
	 viewBox="0 0 402.773 402.773" style="enable-background:new 0 0 402.773 402.773;" xml:space="preserve">
<circle style="fill:#00E7FF;" cx="201.387" cy="201.387" r="194.56"/>
<path style="fill:#602F75;" d="M201.387,402.773C90.341,402.773,0,312.433,0,201.387S90.341,0,201.387,0
	s201.387,90.341,201.387,201.387S312.433,402.773,201.387,402.773z M201.387,13.653c-103.516,0-187.733,84.221-187.733,187.733
	S97.871,389.12,201.387,389.12S389.12,304.899,389.12,201.387S304.903,13.653,201.387,13.653z"/>
<path style="fill:#FFFFFF;" d="M370.835,105.813H148.528c-25.475,0-46.128,20.652-46.128,46.128v35.792h293.016
	C393.359,158.104,384.683,130.313,370.835,105.813z"/>
<path style="fill:#602F75;" d="M395.416,194.56H102.4c-3.77,0-6.827-3.053-6.827-6.827v-35.794
	c0-29.199,23.753-52.953,52.953-52.953h222.307c2.459,0,4.733,1.326,5.943,3.466c14.797,26.18,23.361,54.714,25.45,84.806
	c0.13,1.886-0.527,3.746-1.819,5.134C399.116,193.773,397.31,194.56,395.416,194.56z M109.227,180.907H387.96
	c-2.594-24.054-9.694-46.973-21.156-68.267H148.526c-21.67,0-39.299,17.626-39.299,39.299V180.907z"/>
<circle style="fill:#EA3457;" cx="146.773" cy="150.187" r="17.067"/>
<path style="fill:#602F75;" d="M146.773,174.08c-13.174,0-23.893-10.72-23.893-23.893c0-13.174,10.72-23.893,23.893-23.893
	c13.174,0,23.893,10.72,23.893,23.893C170.667,163.36,159.947,174.08,146.773,174.08z M146.773,139.947
	c-5.647,0-10.24,4.593-10.24,10.24c0,5.647,4.593,10.24,10.24,10.24c5.647,0,10.24-4.593,10.24-10.24
	C157.013,144.539,152.421,139.947,146.773,139.947z"/>
<circle style="fill:#FFE600;" cx="201.387" cy="150.187" r="17.067"/>
<path style="fill:#602F75;" d="M201.387,174.08c-13.174,0-23.893-10.72-23.893-23.893c0-13.174,10.72-23.893,23.893-23.893
	s23.893,10.72,23.893,23.893C225.28,163.36,214.56,174.08,201.387,174.08z M201.387,139.947c-5.647,0-10.24,4.593-10.24,10.24
	c0,5.647,4.593,10.24,10.24,10.24s10.24-4.593,10.24-10.24C211.627,144.539,207.034,139.947,201.387,139.947z"/>
<circle style="fill:#00E7FF;" cx="256" cy="150.187" r="17.067"/>
<path style="fill:#602F75;" d="M256,174.08c-13.174,0-23.893-10.72-23.893-23.893c0-13.174,10.72-23.893,23.893-23.893
	c13.174,0,23.893,10.72,23.893,23.893C279.893,163.36,269.174,174.08,256,174.08z M256,139.947c-5.647,0-10.24,4.593-10.24,10.24
	c0,5.647,4.593,10.24,10.24,10.24s10.24-4.593,10.24-10.24C266.24,144.539,261.647,139.947,256,139.947z"/>
<path style="fill:#FFFFFF;" d="M102.4,368.872c29.005,17.179,62.833,27.075,98.987,27.075c107.452,0,194.56-87.108,194.56-194.56
	c0-4.594-0.217-9.137-0.531-13.653H102.4V368.872z"/>
<path style="fill:#602F75;" d="M201.387,402.773c-36.081,0-71.513-9.694-102.467-28.027l-3.347-1.98v-191.86h306.214l0.44,6.354
	c0.374,5.373,0.546,9.859,0.546,14.126C402.773,312.433,312.433,402.773,201.387,402.773z M109.227,364.933
	c28.044,15.833,59.82,24.187,92.16,24.187c103.516,0,187.733-84.221,187.733-187.733c0-2.167-0.049-4.407-0.154-6.827h-279.74
	V364.933z"/>
<polyline style="fill:#FFFFFF;" points="163.84,228.693 163.84,228.693 184.32,310.613 300.373,310.613 314.027,242.347 
	170.667,242.347 "/>
<g>
	<path style="fill:#EA3457;" d="M300.373,317.44H184.32c-3.133,0-5.864-2.133-6.624-5.173l-20.48-81.92
		c-0.913-3.654,1.311-7.359,4.966-8.274c3.651-0.906,7.363,1.3,8.281,4.966l2.12,8.48h141.443c2.046,0,3.983,0.92,5.28,2.5
		c1.297,1.58,1.816,3.661,1.413,5.666l-13.653,68.267C306.43,315.139,303.626,317.44,300.373,317.44z M189.65,303.787h105.127
		l10.923-54.613H175.997L189.65,303.787z"/>
	<g>
		<circle style="fill:#EA3457;" cx="211.627" cy="331.093" r="13.653"/>
		<circle style="fill:#EA3457;" cx="273.067" cy="331.093" r="13.653"/>
	</g>
	<path style="fill:#EA3457;" d="M307.2,283.307H177.493c-3.77,0-6.827-3.053-6.827-6.827s3.057-6.827,6.827-6.827H307.2
		c3.77,0,6.827,3.053,6.827,6.827S310.97,283.307,307.2,283.307z"/>
	<path style="fill:#EA3457;" d="M163.84,235.52h-20.48c-3.77,0-6.827-3.053-6.827-6.827s3.057-6.827,6.827-6.827h20.48
		c3.77,0,6.827,3.053,6.827,6.827S167.61,235.52,163.84,235.52z"/>
</g>
<g>
</g>
<g>
</g>
<g>
</g>
<g>
</g>
<g>
</g>
<g>
</g>
<g>
</g>
<g>
</g>
<g>
</g>
<g>
</g>
<g>
</g>
<g>
</g>
<g>
</g>
<g>
</g>
<g>
</g>
</svg>
