<?xml version="1.0" encoding="iso-8859-1"?>
<!-- Generator: Adobe Illustrator 19.0.0, SVG Export Plug-In . SVG Version: 6.00 Build 0)  -->
<svg version="1.1" id="Capa_1" xmlns="http://www.w3.org/2000/svg" xmlns:xlink="http://www.w3.org/1999/xlink" x="0px" y="0px"
	 viewBox="0 0 423.253 423.253" style="enable-background:new 0 0 423.253 423.253;" xml:space="preserve">
<rect x="6.827" y="225.28" style="fill:#FFFFFF;" width="409.6" height="163.84"/>
<path style="fill:#602F75;" d="M416.427,395.947H6.827c-3.773,0-6.827-3.053-6.827-6.827V225.28c0-3.773,3.053-6.827,6.827-6.827
	h409.6c3.773,0,6.827,3.053,6.827,6.827v163.84C423.253,392.893,420.2,395.947,416.427,395.947z M13.653,382.293H409.6V232.107
	H13.653V382.293z"/>
<path style="fill:#FFFFFF;" d="M211.627,361.813c30.162,0,54.613-24.451,54.613-54.613s-24.451-54.613-54.613-54.613V361.813z"/>
<g>
	<path style="fill:#602F75;" d="M211.627,368.64H204.8V245.76h6.827c33.881,0,61.44,27.559,61.44,61.44
		S245.507,368.64,211.627,368.64z M218.453,259.9V354.5c23.127-3.319,40.96-23.267,40.96-47.3
		C259.413,283.167,241.58,263.219,218.453,259.9z"/>
	<path style="fill:#602F75;" d="M416.427,273.067c-26.348,0-47.787-21.439-47.787-47.787c0-3.773,3.053-6.827,6.827-6.827
		s6.827,3.053,6.827,6.827c0,18.819,15.314,34.133,34.133,34.133c3.773,0,6.827,3.053,6.827,6.827S420.2,273.067,416.427,273.067z"
		/>
	<path style="fill:#602F75;" d="M375.467,395.947c-3.773,0-6.827-3.053-6.827-6.827c0-26.348,21.439-47.787,47.787-47.787
		c3.773,0,6.827,3.053,6.827,6.827s-3.053,6.827-6.827,6.827c-18.819,0-34.133,15.314-34.133,34.133
		C382.293,392.893,379.24,395.947,375.467,395.947z"/>
	<path style="fill:#602F75;" d="M6.827,273.067c-3.773,0-6.827-3.053-6.827-6.827s3.053-6.827,6.827-6.827
		c18.819,0,34.133-15.314,34.133-34.133c0-3.773,3.053-6.827,6.827-6.827s6.827,3.053,6.827,6.827
		C54.613,251.628,33.174,273.067,6.827,273.067z"/>
	<path style="fill:#602F75;" d="M47.787,395.947c-3.773,0-6.827-3.053-6.827-6.827c0-18.819-15.314-34.133-34.133-34.133
		c-3.773,0-6.827-3.053-6.827-6.827s3.053-6.827,6.827-6.827c26.348,0,47.787,21.439,47.787,47.787
		C54.613,392.893,51.56,395.947,47.787,395.947z"/>
</g>
<g>
	<rect x="88.747" y="279.893" style="fill:#FFE600;" width="245.76" height="61.44"/>
	<path style="fill:#FFE600;" d="M334.507,348.16H88.747c-3.773,0-6.827-3.053-6.827-6.827v-61.44c0-3.773,3.053-6.827,6.827-6.827
		h245.76c3.773,0,6.827,3.053,6.827,6.827v61.44C341.333,345.107,338.28,348.16,334.507,348.16z M95.573,334.507H327.68V286.72
		H95.573V334.507z"/>
</g>
<circle style="fill:#EA3457;" cx="211.627" cy="307.2" r="54.613"/>
<path style="fill:#602F75;" d="M211.627,368.64c-33.881,0-61.44-27.559-61.44-61.44s27.559-61.44,61.44-61.44
	s61.44,27.559,61.44,61.44S245.507,368.64,211.627,368.64z M211.627,259.413c-26.348,0-47.787,21.439-47.787,47.787
	s21.439,47.787,47.787,47.787s47.787-21.439,47.787-47.787S237.974,259.413,211.627,259.413z"/>
<g>
	<polygon style="fill:#EA3457;" points="368.64,131.62 330.24,100.907 338.773,90.24 368.64,114.14 398.507,90.24 407.04,100.907 	
		"/>
	<rect x="266.24" y="47.787" style="fill:#EA3457;" width="13.653" height="122.88"/>
	<rect x="361.813" y="27.307" style="fill:#EA3457;" width="13.653" height="95.573"/>
	<polygon style="fill:#EA3457;" points="273.067,186.233 234.667,155.52 243.2,144.853 273.067,168.753 302.933,144.853 
		311.467,155.52 	"/>
</g>
<g>
</g>
<g>
</g>
<g>
</g>
<g>
</g>
<g>
</g>
<g>
</g>
<g>
</g>
<g>
</g>
<g>
</g>
<g>
</g>
<g>
</g>
<g>
</g>
<g>
</g>
<g>
</g>
<g>
</g>
</svg>
