<?xml version="1.0" encoding="iso-8859-1"?>
<!-- Generator: Adobe Illustrator 19.0.0, SVG Export Plug-In . SVG Version: 6.00 Build 0)  -->
<svg version="1.1" id="Capa_1" xmlns="http://www.w3.org/2000/svg" xmlns:xlink="http://www.w3.org/1999/xlink" x="0px" y="0px"
	 viewBox="0 0 396.187 396.187" style="enable-background:new 0 0 396.187 396.187;" xml:space="preserve">
<path style="fill:#FFFFFF;" d="M358.009,93.347c-34.154-52.036-93.022-86.4-159.916-86.4C92.525,6.947,6.946,92.526,6.946,198.094
	S92.525,389.24,198.093,389.24s191.147-85.579,191.147-191.147c0-24.057-4.444-47.077-12.556-68.282"/>
<path style="fill:#602F75;" d="M198.093,396.186C88.863,396.186,0,307.32,0,198.094S88.863,0.001,198.093,0.001
	c66.976,0,128.93,33.473,165.724,89.533c2.106,3.207,1.213,7.513-1.993,9.62c-3.217,2.106-7.52,1.213-9.624-1.993
	c-34.217-52.14-91.827-83.268-154.107-83.268c-101.567,0-184.201,82.633-184.201,184.201s82.633,184.201,184.201,184.201
	s184.201-82.633,184.201-184.201c0-22.68-4.07-44.814-12.1-65.801c-1.37-3.581,0.423-7.6,4.007-8.967
	c3.574-1.367,7.6,0.42,8.974,4.007c8.637,22.574,13.013,46.38,13.013,70.76C396.186,307.32,307.323,396.186,198.093,396.186z"/>
<g>
	<circle style="fill:#FFE600;" cx="198.093" cy="198.094" r="116.053"/>
	<path style="fill:#FFE600;" d="M198.093,320.974c-67.756,0-122.88-55.127-122.88-122.88s55.124-122.88,122.88-122.88
		s122.88,55.127,122.88,122.88S265.849,320.974,198.093,320.974z M198.093,88.867c-60.227,0-109.227,49-109.227,109.227
		s49,109.227,109.227,109.227s109.227-49,109.227-109.227S258.319,88.867,198.093,88.867z"/>
</g>
<path style="fill:#EA3457;" d="M187.822,234.801c-1.83-1.746-2.72-3.813-2.676-6.2c0.133-6.7,1.437-12.559,3.92-17.58
	c2.483-5.021,5.354-9.18,8.627-12.474c3.267-3.294,7.63-7.04,13.076-11.261c5.746-4.354,9.993-8.146,12.74-11.373
	c2.748-3.227,4.161-6.927,4.239-11.1c0.317-16.234-10.184-24.567-31.49-24.98c-5.217-0.106-10.33,0.433-15.346,1.601
	c-5.016,1.174-9.487,2.913-13.406,5.214c-1.811,1.167-3.686,1.727-5.623,1.686c-2.383-0.046-4.449-0.98-6.204-2.807
	c-1.753-1.819-2.606-3.927-2.56-6.313c0.067-3.427,1.98-6.226,5.75-8.387c6.183-3.753,12.423-6.386,18.71-7.914
	c6.294-1.507,13.24-2.2,20.837-2.053c15.2,0.294,27.31,4.333,36.32,12.114c9.02,7.781,13.401,18.147,13.15,31.107
	c-0.113,5.813-1.253,10.9-3.424,15.254c-2.176,4.361-4.777,8.04-7.817,11.027c-3.043,2.993-7.057,6.386-12.051,10.16
	c-6.506,4.946-11.404,9.44-14.681,13.479c-3.287,4.033-4.983,9.033-5.096,14.986c-0.046,2.386-1.06,4.413-3.026,6.086
	c-1.973,1.673-4.301,2.493-6.98,2.441C191.983,237.46,189.653,236.553,187.822,234.801z M184.339,275.88
	c-2.553-2.661-3.797-5.854-3.724-9.58c0.067-3.574,1.43-6.634,4.089-9.187c2.657-2.56,5.777-3.806,9.351-3.734
	c3.724,0.067,6.866,1.44,9.426,4.093c2.553,2.661,3.801,5.774,3.734,9.347c-0.073,3.727-1.44,6.866-4.099,9.421
	c-2.661,2.567-5.85,3.801-9.573,3.734C189.969,279.901,186.895,278.541,184.339,275.88z"/>
<path style="fill:#00E7FF;" d="M41.079,204.92c-3.77,0-6.827-3.053-6.827-6.827c0-90.341,73.499-163.84,163.84-163.84
	c3.77,0,6.827,3.053,6.827,6.827s-3.057,6.827-6.827,6.827c-82.813,0-150.187,67.374-150.187,150.187
	C47.906,201.867,44.849,204.92,41.079,204.92z"/>
<path style="fill:#602F75;" d="M307.319,396.067h-95.573c-3.77,0-6.827-3.053-6.827-6.827s3.057-6.827,6.827-6.827h95.573
	c3.77,0,6.827,3.053,6.827,6.827S311.09,396.067,307.319,396.067z"/>
<g>
</g>
<g>
</g>
<g>
</g>
<g>
</g>
<g>
</g>
<g>
</g>
<g>
</g>
<g>
</g>
<g>
</g>
<g>
</g>
<g>
</g>
<g>
</g>
<g>
</g>
<g>
</g>
<g>
</g>
</svg>
