<?xml version="1.0" encoding="iso-8859-1"?>
<!-- Generator: Adobe Illustrator 19.0.0, SVG Export Plug-In . SVG Version: 6.00 Build 0)  -->
<svg version="1.1" id="Capa_1" xmlns="http://www.w3.org/2000/svg" xmlns:xlink="http://www.w3.org/1999/xlink" x="0px" y="0px"
	 viewBox="0 0 382.293 382.293" style="enable-background:new 0 0 382.293 382.293;" xml:space="preserve">
<path style="fill:#FFFFFF;" d="M375.467,353.944c0,11.887-9.636,21.523-21.523,21.523H28.349c-11.887,0-21.523-9.636-21.523-21.523
	V28.349c0-11.887,9.636-21.523,21.523-21.523h325.594c11.887,0,21.523,9.636,21.523,21.523v282.264"/>
<path style="fill:#602F75;" d="M353.947,382.293H28.346C12.713,382.293,0,369.58,0,353.947V28.346C0,12.713,12.713,0,28.346,0h325.6
	c15.635,0,28.348,12.713,28.348,28.346v282.267c0,3.773-3.053,6.827-6.827,6.827s-6.827-3.053-6.827-6.827V28.346
	c0-8.1-6.593-14.693-14.693-14.693H28.346c-8.1,0-14.693,6.593-14.693,14.693v325.6c0,8.1,6.593,14.693,14.693,14.693h325.6
	c8.1,0,14.693-6.593,14.693-14.693c0-3.773,3.053-6.827,6.827-6.827s6.827,3.053,6.827,6.827
	C382.293,369.58,369.58,382.293,353.947,382.293z"/>
<rect x="40.96" y="40.96" style="fill:#EA3457;" width="61.44" height="61.44"/>
<g>
	<path style="fill:#602F75;" d="M102.4,109.227H40.96c-3.773,0-6.827-3.053-6.827-6.827V40.96c0-3.773,3.053-6.827,6.827-6.827
		h61.44c3.773,0,6.827,3.053,6.827,6.827v61.44C109.227,106.173,106.173,109.227,102.4,109.227z M47.787,95.573h47.787V47.787
		H47.787V95.573z"/>
	<path style="fill:#602F75;" d="M81.92,88.747H61.44c-3.773,0-6.827-3.053-6.827-6.827V61.44c0-3.773,3.053-6.827,6.827-6.827h20.48
		c3.773,0,6.827,3.053,6.827,6.827v20.48C88.747,85.693,85.693,88.747,81.92,88.747z M68.267,75.093h6.827v-6.827h-6.827V75.093z"/>
</g>
<rect x="40.96" y="129.707" style="fill:#FFFFFF;" width="20.48" height="20.48"/>
<path style="fill:#602F75;" d="M61.44,157.013H40.96c-3.773,0-6.827-3.053-6.827-6.827v-20.48c0-3.773,3.053-6.827,6.827-6.827
	h20.48c3.773,0,6.827,3.053,6.827,6.827v20.48C68.267,153.96,65.213,157.013,61.44,157.013z M47.787,143.36h6.827v-6.827h-6.827
	V143.36z"/>
<rect x="81.92" y="129.707" style="fill:#FFFFFF;" width="20.48" height="20.48"/>
<path style="fill:#602F75;" d="M102.4,157.013H81.92c-3.773,0-6.827-3.053-6.827-6.827v-20.48c0-3.773,3.053-6.827,6.827-6.827
	h20.48c3.773,0,6.827,3.053,6.827,6.827v20.48C109.227,153.96,106.173,157.013,102.4,157.013z M88.747,143.36h6.827v-6.827h-6.827
	V143.36z"/>
<rect x="40.96" y="163.84" style="fill:#00E7FF;" width="20.48" height="20.48"/>
<rect x="75.093" y="197.973" style="fill:#FFFFFF;" width="20.48" height="20.48"/>
<path style="fill:#602F75;" d="M95.573,225.28h-20.48c-3.773,0-6.827-3.053-6.827-6.827v-20.48c0-3.773,3.053-6.827,6.827-6.827
	h20.48c3.773,0,6.827,3.053,6.827,6.827v20.48C102.4,222.227,99.347,225.28,95.573,225.28z M81.92,211.627h6.827V204.8H81.92
	V211.627z"/>
<rect x="279.893" y="40.96" style="fill:#EA3457;" width="61.44" height="61.44"/>
<path style="fill:#602F75;" d="M341.333,109.227h-61.44c-3.773,0-6.827-3.053-6.827-6.827V40.96c0-3.773,3.053-6.827,6.827-6.827
	h61.44c3.773,0,6.827,3.053,6.827,6.827v61.44C348.16,106.173,345.107,109.227,341.333,109.227z M286.72,95.573h47.787V47.787
	H286.72V95.573z"/>
<rect x="40.96" y="279.893" style="fill:#EA3457;" width="61.44" height="61.44"/>
<path style="fill:#602F75;" d="M102.4,348.16H40.96c-3.773,0-6.827-3.053-6.827-6.827v-61.44c0-3.773,3.053-6.827,6.827-6.827h61.44
	c3.773,0,6.827,3.053,6.827,6.827v61.44C109.227,345.107,106.173,348.16,102.4,348.16z M47.787,334.507h47.787V286.72H47.787
	V334.507z"/>
<rect x="75.093" y="232.107" style="fill:#FFFFFF;" width="20.48" height="20.48"/>
<path style="fill:#602F75;" d="M95.573,259.413h-20.48c-3.773,0-6.827-3.053-6.827-6.827v-20.48c0-3.773,3.053-6.827,6.827-6.827
	h20.48c3.773,0,6.827,3.053,6.827,6.827v20.48C102.4,256.36,99.347,259.413,95.573,259.413z M81.92,245.76h6.827v-6.827H81.92
	V245.76z"/>
<rect x="116.053" y="204.8" style="fill:#FFFFFF;" width="20.48" height="20.48"/>
<path style="fill:#602F75;" d="M136.533,232.107h-20.48c-3.773,0-6.827-3.053-6.827-6.827V204.8c0-3.773,3.053-6.827,6.827-6.827
	h20.48c3.773,0,6.827,3.053,6.827,6.827v20.48C143.36,229.053,140.307,232.107,136.533,232.107z M122.88,218.453h6.827v-6.827
	h-6.827V218.453z"/>
<rect x="157.013" y="204.8" style="fill:#FFFFFF;" width="20.48" height="20.48"/>
<path style="fill:#602F75;" d="M177.493,232.107h-20.48c-3.773,0-6.827-3.053-6.827-6.827V204.8c0-3.773,3.053-6.827,6.827-6.827
	h20.48c3.773,0,6.827,3.053,6.827,6.827v20.48C184.32,229.053,181.267,232.107,177.493,232.107z M163.84,218.453h6.827v-6.827
	h-6.827V218.453z"/>
<rect x="116.053" y="238.933" style="fill:#FFFFFF;" width="20.48" height="20.48"/>
<path style="fill:#602F75;" d="M136.533,266.24h-20.48c-3.773,0-6.827-3.053-6.827-6.827v-20.48c0-3.773,3.053-6.827,6.827-6.827
	h20.48c3.773,0,6.827,3.053,6.827,6.827v20.48C143.36,263.187,140.307,266.24,136.533,266.24z M122.88,252.587h6.827v-6.827h-6.827
	V252.587z"/>
<rect x="150.187" y="273.067" style="fill:#FFFFFF;" width="20.48" height="20.48"/>
<path style="fill:#602F75;" d="M170.667,300.373h-20.48c-3.773,0-6.827-3.053-6.827-6.827v-20.48c0-3.773,3.053-6.827,6.827-6.827
	h20.48c3.773,0,6.827,3.053,6.827,6.827v20.48C177.493,297.32,174.44,300.373,170.667,300.373z M157.013,286.72h6.827v-6.827h-6.827
	V286.72z"/>
<rect x="150.187" y="307.2" style="fill:#00E7FF;" width="20.48" height="20.48"/>
<rect x="177.493" y="47.787" style="fill:#FFFFFF;" width="20.48" height="20.48"/>
<path style="fill:#602F75;" d="M197.973,75.093h-20.48c-3.773,0-6.827-3.053-6.827-6.827v-20.48c0-3.773,3.053-6.827,6.827-6.827
	h20.48c3.773,0,6.827,3.053,6.827,6.827v20.48C204.8,72.04,201.747,75.093,197.973,75.093z M184.32,61.44h6.827v-6.827h-6.827V61.44
	z"/>
<g>
	<rect x="136.533" y="47.787" style="fill:#00E7FF;" width="20.48" height="20.48"/>
	<rect x="177.493" y="81.92" style="fill:#00E7FF;" width="20.48" height="20.48"/>
</g>
<rect x="143.36" y="116.053" style="fill:#FFFFFF;" width="20.48" height="20.48"/>
<path style="fill:#602F75;" d="M163.84,143.36h-20.48c-3.773,0-6.827-3.053-6.827-6.827v-20.48c0-3.773,3.053-6.827,6.827-6.827
	h20.48c3.773,0,6.827,3.053,6.827,6.827v20.48C170.667,140.307,167.613,143.36,163.84,143.36z M150.187,129.707h6.827v-6.827h-6.827
	V129.707z"/>
<rect x="143.36" y="150.187" style="fill:#FFE600;" width="20.48" height="20.48"/>
<rect x="266.24" y="129.707" style="fill:#FFFFFF;" width="20.48" height="20.48"/>
<path style="fill:#602F75;" d="M286.72,157.013h-20.48c-3.773,0-6.827-3.053-6.827-6.827v-20.48c0-3.773,3.053-6.827,6.827-6.827
	h20.48c3.773,0,6.827,3.053,6.827,6.827v20.48C293.547,153.96,290.493,157.013,286.72,157.013z M273.067,143.36h6.827v-6.827h-6.827
	V143.36z"/>
<rect x="218.453" y="47.787" style="fill:#FFFFFF;" width="20.48" height="20.48"/>
<path style="fill:#602F75;" d="M238.933,75.093h-20.48c-3.773,0-6.827-3.053-6.827-6.827v-20.48c0-3.773,3.053-6.827,6.827-6.827
	h20.48c3.773,0,6.827,3.053,6.827,6.827v20.48C245.76,72.04,242.707,75.093,238.933,75.093z M225.28,61.44h6.827v-6.827h-6.827
	V61.44z"/>
<rect x="266.24" y="163.84" style="fill:#FFFFFF;" width="20.48" height="20.48"/>
<path style="fill:#602F75;" d="M286.72,191.147h-20.48c-3.773,0-6.827-3.053-6.827-6.827v-20.48c0-3.773,3.053-6.827,6.827-6.827
	h20.48c3.773,0,6.827,3.053,6.827,6.827v20.48C293.547,188.093,290.493,191.147,286.72,191.147z M273.067,177.493h6.827v-6.827
	h-6.827V177.493z"/>
<rect x="320.853" y="129.707" style="fill:#00E7FF;" width="20.48" height="20.48"/>
<rect x="320.853" y="163.84" style="fill:#FFFFFF;" width="20.48" height="20.48"/>
<path style="fill:#602F75;" d="M341.333,191.147h-20.48c-3.773,0-6.827-3.053-6.827-6.827v-20.48c0-3.773,3.053-6.827,6.827-6.827
	h20.48c3.773,0,6.827,3.053,6.827,6.827v20.48C348.16,188.093,345.107,191.147,341.333,191.147z M327.68,177.493h6.827v-6.827
	h-6.827V177.493z"/>
<rect x="225.28" y="116.053" style="fill:#FFFFFF;" width="20.48" height="20.48"/>
<path style="fill:#602F75;" d="M245.76,143.36h-20.48c-3.773,0-6.827-3.053-6.827-6.827v-20.48c0-3.773,3.053-6.827,6.827-6.827
	h20.48c3.773,0,6.827,3.053,6.827,6.827v20.48C252.587,140.307,249.533,143.36,245.76,143.36z M232.107,129.707h6.827v-6.827h-6.827
	V129.707z"/>
<rect x="225.28" y="150.187" style="fill:#FFFFFF;" width="20.48" height="20.48"/>
<path style="fill:#602F75;" d="M245.76,177.493h-20.48c-3.773,0-6.827-3.053-6.827-6.827v-20.48c0-3.773,3.053-6.827,6.827-6.827
	h20.48c3.773,0,6.827,3.053,6.827,6.827v20.48C252.587,174.44,249.533,177.493,245.76,177.493z M232.107,163.84h6.827v-6.827h-6.827
	V163.84z"/>
<rect x="286.72" y="225.28" style="fill:#FFFFFF;" width="20.48" height="20.48"/>
<path style="fill:#602F75;" d="M307.2,252.587h-20.48c-3.773,0-6.827-3.053-6.827-6.827v-20.48c0-3.773,3.053-6.827,6.827-6.827
	h20.48c3.773,0,6.827,3.053,6.827,6.827v20.48C314.027,249.533,310.973,252.587,307.2,252.587z M293.547,238.933h6.827v-6.827
	h-6.827V238.933z"/>
<rect x="320.853" y="225.28" style="fill:#FFFFFF;" width="20.48" height="20.48"/>
<path style="fill:#602F75;" d="M341.333,252.587h-20.48c-3.773,0-6.827-3.053-6.827-6.827v-20.48c0-3.773,3.053-6.827,6.827-6.827
	h20.48c3.773,0,6.827,3.053,6.827,6.827v20.48C348.16,249.533,345.107,252.587,341.333,252.587z M327.68,238.933h6.827v-6.827
	h-6.827V238.933z"/>
<rect x="286.72" y="259.413" style="fill:#FFFFFF;" width="20.48" height="20.48"/>
<path style="fill:#602F75;" d="M307.2,286.72h-20.48c-3.773,0-6.827-3.053-6.827-6.827v-20.48c0-3.773,3.053-6.827,6.827-6.827
	h20.48c3.773,0,6.827,3.053,6.827,6.827v20.48C314.027,283.667,310.973,286.72,307.2,286.72z M293.547,273.067h6.827v-6.827h-6.827
	V273.067z"/>
<rect x="320.853" y="279.893" style="fill:#FFE600;" width="20.48" height="20.48"/>
<rect x="320.853" y="314.027" style="fill:#FFFFFF;" width="20.48" height="20.48"/>
<path style="fill:#602F75;" d="M341.333,341.333h-20.48c-3.773,0-6.827-3.053-6.827-6.827v-20.48c0-3.773,3.053-6.827,6.827-6.827
	h20.48c3.773,0,6.827,3.053,6.827,6.827v20.48C348.16,338.28,345.107,341.333,341.333,341.333z M327.68,327.68h6.827v-6.827h-6.827
	V327.68z"/>
<rect x="204.8" y="314.027" style="fill:#FFE600;" width="20.48" height="20.48"/>
<rect x="245.76" y="314.027" style="fill:#FFFFFF;" width="20.48" height="20.48"/>
<path style="fill:#602F75;" d="M266.24,341.333h-20.48c-3.773,0-6.827-3.053-6.827-6.827v-20.48c0-3.773,3.053-6.827,6.827-6.827
	h20.48c3.773,0,6.827,3.053,6.827,6.827v20.48C273.067,338.28,270.013,341.333,266.24,341.333z M252.587,327.68h6.827v-6.827h-6.827
	V327.68z"/>
<rect x="204.8" y="279.893" style="fill:#FFFFFF;" width="20.48" height="20.48"/>
<path style="fill:#602F75;" d="M225.28,307.2H204.8c-3.773,0-6.827-3.053-6.827-6.827v-20.48c0-3.773,3.053-6.827,6.827-6.827h20.48
	c3.773,0,6.827,3.053,6.827,6.827v20.48C232.107,304.147,229.053,307.2,225.28,307.2z M211.627,293.547h6.827v-6.827h-6.827V293.547
	z"/>
<rect x="238.933" y="245.76" style="fill:#FFFFFF;" width="20.48" height="20.48"/>
<path style="fill:#602F75;" d="M259.413,273.067h-20.48c-3.773,0-6.827-3.053-6.827-6.827v-20.48c0-3.773,3.053-6.827,6.827-6.827
	h20.48c3.773,0,6.827,3.053,6.827,6.827v20.48C266.24,270.013,263.187,273.067,259.413,273.067z M245.76,259.413h6.827v-6.827
	h-6.827V259.413z"/>
<rect x="238.933" y="211.627" style="fill:#FFE600;" width="20.48" height="20.48"/>
<g>
</g>
<g>
</g>
<g>
</g>
<g>
</g>
<g>
</g>
<g>
</g>
<g>
</g>
<g>
</g>
<g>
</g>
<g>
</g>
<g>
</g>
<g>
</g>
<g>
</g>
<g>
</g>
<g>
</g>
</svg>
