<?xml version="1.0" encoding="iso-8859-1"?>
<!-- Generator: Adobe Illustrator 19.0.0, SVG Export Plug-In . SVG Version: 6.00 Build 0)  -->
<svg version="1.1" id="Capa_1" xmlns="http://www.w3.org/2000/svg" xmlns:xlink="http://www.w3.org/1999/xlink" x="0px" y="0px"
	 viewBox="0 0 425.052 425.052" style="enable-background:new 0 0 425.052 425.052;" xml:space="preserve">
<polygon style="fill:#FFFFFF;" points="362.713,341.333 62.339,341.333 28.206,122.88 396.846,122.88 "/>
<path style="fill:#602F75;" d="M362.713,348.16H62.339c-3.367,0-6.226-2.447-6.746-5.774L21.46,123.933
	c-0.307-1.973,0.259-3.98,1.56-5.494c1.3-1.514,3.193-2.386,5.187-2.386h368.64c1.993,0,3.886,0.874,5.187,2.386
	c1.3,1.512,1.867,3.519,1.56,5.494l-34.133,218.453C368.939,345.713,366.08,348.16,362.713,348.16z M68.18,334.507h288.693l32-204.8
	H36.18L68.18,334.507z"/>
<g>
	<path style="fill:#EAEAEA;" d="M342.233,307.2c-3.773,0-6.827-3.053-6.827-6.827V163.84h-20.48v136.533
		c0,3.773-3.053,6.827-6.827,6.827s-6.827-3.053-6.827-6.827v-143.36c0-3.773,3.053-6.827,6.827-6.827h34.133
		c3.773,0,6.827,3.053,6.827,6.827v143.36C349.059,304.147,346.006,307.2,342.233,307.2z"/>
	<path style="fill:#EAEAEA;" d="M267.139,307.2c-3.773,0-6.827-3.053-6.827-6.827V163.84h-20.48v136.533
		c0,3.773-3.053,6.827-6.827,6.827s-6.827-3.053-6.827-6.827v-143.36c0-3.773,3.053-6.827,6.827-6.827h34.133
		c3.773,0,6.827,3.053,6.827,6.827v143.36C273.966,304.147,270.913,307.2,267.139,307.2z"/>
	<path style="fill:#EAEAEA;" d="M192.046,307.2c-3.773,0-6.827-3.053-6.827-6.827V163.84h-20.48v136.533
		c0,3.773-3.053,6.827-6.827,6.827s-6.827-3.053-6.827-6.827v-143.36c0-3.773,3.053-6.827,6.827-6.827h34.133
		c3.773,0,6.827,3.053,6.827,6.827v143.36C198.873,304.147,195.82,307.2,192.046,307.2z"/>
	<path style="fill:#EAEAEA;" d="M116.953,307.2c-3.773,0-6.827-3.053-6.827-6.827V163.84h-20.48v136.533
		c0,3.773-3.053,6.827-6.827,6.827s-6.827-3.053-6.827-6.827v-143.36c0-3.773,3.053-6.827,6.827-6.827h34.133
		c3.773,0,6.827,3.053,6.827,6.827v143.36C123.779,304.147,120.726,307.2,116.953,307.2z"/>
</g>
<path style="fill:#EA3457;" d="M74.061,234.158l169.813,169.813l35.632-35.632L109.693,198.526c-9.839-9.839-25.793-9.839-35.632,0
	l0,0C64.222,208.365,64.222,224.319,74.061,234.158z"/>
<path style="fill:#602F75;" d="M243.872,410.8c-1.746,0-3.494-0.667-4.826-2L69.233,238.986c-12.486-12.486-12.486-32.8,0-45.286
	c12.479-12.5,32.807-12.486,45.286,0l169.813,169.813c2.666,2.666,2.666,6.987,0,9.653L248.699,408.8
	C247.366,410.133,245.62,410.8,243.872,410.8z M91.873,197.98c-4.7,0-9.407,1.794-12.986,5.373c-7.159,7.159-7.159,18.819,0,25.981
	L243.874,394.32l25.981-25.981L104.868,203.353C101.286,199.772,96.579,197.98,91.873,197.98z"/>
<polygon style="fill:#FFE600;" points="293.76,418.224 243.874,403.971 279.508,368.34 "/>
<g>
	<path style="fill:#602F75;" d="M293.76,425.052c-0.626,0-1.26-0.087-1.874-0.259L242,410.539c-2.326-0.667-4.127-2.514-4.733-4.854
		s0.067-4.833,1.78-6.54l35.633-35.633c1.707-1.72,4.207-2.393,6.54-1.78c2.34,0.606,4.186,2.406,4.854,4.733l14.254,49.886
		c0.679,2.381,0.014,4.946-1.741,6.7C297.286,424.352,295.547,425.052,293.76,425.052z M256.906,400.592l26.914,7.694l-7.687-26.914
		L256.906,400.592z"/>
	<path style="fill:#602F75;" d="M243.872,382.293c-1.746,0-3.494-0.667-4.826-2L87.052,228.292c-2.666-2.666-2.666-6.987,0-9.653
		c2.666-2.666,6.987-2.666,9.653,0l151.994,151.999c2.666,2.666,2.666,6.987,0,9.653
		C247.366,381.626,245.62,382.293,243.872,382.293z"/>
</g>
<polyline style="fill:#00E7FF;" points="259.234,88.747 417.326,88.747 417.326,122.88 7.726,122.88 7.726,88.747 162.778,88.747 
	"/>
<path style="fill:#602F75;" d="M417.326,129.707H7.726c-3.773,0-6.827-3.053-6.827-6.827V88.747c0-3.773,3.053-6.827,6.827-6.827
	H162.78c3.773,0,6.827,3.053,6.827,6.827s-3.053,6.827-6.827,6.827H14.553v20.48h395.947v-20.48H259.232
	c-3.773,0-6.827-3.053-6.827-6.827s3.053-6.827,6.827-6.827h158.094c3.773,0,6.827,3.053,6.827,6.827v34.133
	C424.153,126.653,421.1,129.707,417.326,129.707z"/>
<rect x="192.046" y="6.827" style="fill:#EAEAEA;" width="40.96" height="116.053"/>
<path style="fill:#602F75;" d="M233.006,129.707h-40.96c-3.773,0-6.827-3.053-6.827-6.827V6.827c0-3.773,3.053-6.827,6.827-6.827
	h40.96c3.773,0,6.827,3.053,6.827,6.827V122.88C239.833,126.653,236.78,129.707,233.006,129.707z M198.873,116.053h27.307v-102.4
	h-27.307V116.053z"/>
<g>
</g>
<g>
</g>
<g>
</g>
<g>
</g>
<g>
</g>
<g>
</g>
<g>
</g>
<g>
</g>
<g>
</g>
<g>
</g>
<g>
</g>
<g>
</g>
<g>
</g>
<g>
</g>
<g>
</g>
</svg>
