<?xml version="1.0" encoding="iso-8859-1"?>
<!-- Generator: Adobe Illustrator 19.0.0, SVG Export Plug-In . SVG Version: 6.00 Build 0)  -->
<svg version="1.1" id="Capa_1" xmlns="http://www.w3.org/2000/svg" xmlns:xlink="http://www.w3.org/1999/xlink" x="0px" y="0px"
	 viewBox="0 0 423.373 423.373" style="enable-background:new 0 0 423.373 423.373;" xml:space="preserve">
<path style="fill:#FFFFFF;" d="M83.712,235.58H19.734c-7.062,0-12.786-5.724-12.786-12.786V98.179
	c0-7.062,5.724-12.786,12.786-12.786h206.532c7.062,0,12.786,5.724,12.786,12.786v124.612c0,7.062-5.724,12.786-12.786,12.786
	h-75.96"/>
<path style="fill:#602F75;" d="M226.266,242.526h-75.96c-3.84,0-6.946-3.106-6.946-6.946s3.106-6.946,6.946-6.946h75.96
	c3.22,0,5.84-2.62,5.84-5.84V98.179c0-3.22-2.62-5.84-5.84-5.84H19.732c-3.22,0-5.84,2.62-5.84,5.84v124.614
	c0,3.22,2.62,5.84,5.84,5.84h63.98c3.84,0,6.946,3.106,6.946,6.946s-3.106,6.946-6.946,6.946h-63.98
	C8.852,242.526,0,233.672,0,222.793V98.179c0-10.88,8.854-19.732,19.732-19.732h206.534c10.88,0,19.732,8.854,19.732,19.732v124.614
	C245.999,233.673,237.146,242.526,226.266,242.526z"/>
<rect x="6.955" y="119.526" style="fill:#00E7FF;" width="232.107" height="40.96"/>
<path style="fill:#602F75;" d="M239.053,167.313H6.946c-3.773,0-6.827-3.053-6.827-6.827v-40.96c0-3.773,3.053-6.827,6.827-6.827
	h232.107c3.773,0,6.827,3.053,6.827,6.827v40.96C245.879,164.26,242.826,167.313,239.053,167.313z M13.773,153.66h218.453v-27.307
	H13.773C13.773,126.353,13.773,153.66,13.773,153.66z"/>
<circle style="fill:#FFE600;" cx="348.271" cy="105.873" r="68.267"/>
<path style="fill:#602F75;" d="M348.279,180.966c-41.407,0-75.093-33.686-75.093-75.093s33.686-75.093,75.093-75.093
	s75.093,33.686,75.093,75.093S389.687,180.966,348.279,180.966z M348.279,44.433c-33.881,0-61.44,27.559-61.44,61.44
	s27.559,61.44,61.44,61.44s61.44-27.559,61.44-61.44S382.16,44.433,348.279,44.433z"/>
<path style="fill:#FFE600;" d="M399.479,208.273h-102.4c-9.387,0-17.067-7.68-17.067-17.067l0,0c0-9.387,7.68-17.067,17.067-17.067
	h102.4c9.387,0,17.067,7.68,17.067,17.067l0,0C416.546,200.593,408.866,208.273,399.479,208.273z"/>
<path style="fill:#602F75;" d="M399.479,215.1h-102.4c-13.174,0-23.893-10.72-23.893-23.893s10.72-23.893,23.893-23.893h102.4
	c13.174,0,23.893,10.72,23.893,23.893S412.653,215.1,399.479,215.1z M297.079,180.966c-5.647,0-10.24,4.593-10.24,10.24
	s4.593,10.24,10.24,10.24h102.4c5.647,0,10.24-4.593,10.24-10.24s-4.593-10.24-10.24-10.24H297.079z"/>
<path style="fill:#FFE600;" d="M399.479,276.54h-102.4c-9.387,0-17.067-7.68-17.067-17.067l0,0c0-9.387,7.68-17.067,17.067-17.067
	h102.4c9.387,0,17.067,7.68,17.067,17.067l0,0C416.546,268.86,408.866,276.54,399.479,276.54z"/>
<path style="fill:#602F75;" d="M399.479,283.366h-102.4c-13.174,0-23.893-10.72-23.893-23.893c0-13.174,10.72-23.893,23.893-23.893
	h102.4c13.174,0,23.893,10.72,23.893,23.893C423.373,272.647,412.653,283.366,399.479,283.366z M297.079,249.233
	c-5.647,0-10.24,4.593-10.24,10.24c0,5.647,4.593,10.24,10.24,10.24h102.4c5.647,0,10.24-4.593,10.24-10.24
	c0-5.647-4.593-10.24-10.24-10.24H297.079z"/>
<path style="fill:#FFE600;" d="M399.479,242.406h-102.4c-9.387,0-17.067-7.68-17.067-17.067l0,0c0-9.387,7.68-17.067,17.067-17.067
	h102.4c9.387,0,17.067,7.68,17.067,17.067l0,0C416.546,234.726,408.866,242.406,399.479,242.406z"/>
<g>
	<path style="fill:#602F75;" d="M399.479,249.233h-102.4c-13.174,0-23.893-10.72-23.893-23.893s10.72-23.893,23.893-23.893h102.4
		c13.174,0,23.893,10.72,23.893,23.893S412.653,249.233,399.479,249.233z M297.079,215.1c-5.647,0-10.24,4.593-10.24,10.24
		s4.593,10.24,10.24,10.24h102.4c5.647,0,10.24-4.593,10.24-10.24s-4.593-10.24-10.24-10.24H297.079z"/>
	<path style="fill:#602F75;" d="M344.663,148.813v-10.341c-5.939-0.106-12.083-1.947-15.667-4.507l2.456-6.861
		c3.686,2.454,9.009,4.4,14.744,4.4c7.27,0,12.187-4.2,12.187-10.033c0-5.634-3.994-9.114-11.569-12.187
		c-10.447-4.093-16.896-8.806-16.896-17.713c0-8.499,6.043-14.947,15.464-16.486V64.742h6.347v9.933
		c6.144,0.2,10.344,1.84,13.314,3.581l-2.56,6.76c-2.15-1.227-6.351-3.48-12.904-3.48c-7.883,0-10.853,4.707-10.853,8.806
		c0,5.32,3.79,7.987,12.696,11.674c10.547,4.301,15.874,9.62,15.874,18.734c0,8.093-5.634,15.667-16.179,17.413v10.646h-6.453
		V148.813z"/>
</g>
<rect x="122.991" y="194.62" style="fill:#FFFFFF;" width="218.453" height="163.84"/>
<path style="fill:#602F75;" d="M341.453,365.286H122.999c-3.773,0-6.827-3.053-6.827-6.827V194.62c0-3.773,3.053-6.827,6.827-6.827
	h218.453c3.773,0,6.827,3.053,6.827,6.827v163.84C348.279,362.233,345.226,365.286,341.453,365.286z M129.826,351.633h204.8V201.446
	h-204.8V351.633z"/>
<path style="fill:#EA3457;" d="M122.999,331.153c30.162,0,54.613-24.451,54.613-54.613s-24.451-54.613-54.613-54.613V331.153z"/>
<path style="fill:#602F75;" d="M122.999,337.98c-3.773,0-6.827-3.053-6.827-6.827V221.926c0-3.773,3.053-6.827,6.827-6.827
	c33.881,0,61.44,27.559,61.44,61.44S156.88,337.98,122.999,337.98z M129.826,229.239v94.601c23.127-3.319,40.96-23.267,40.96-47.3
	S152.953,232.559,129.826,229.239z"/>
<path style="fill:#FFFFFF;" d="M300.493,194.62c0,22.622,18.338,40.96,40.96,40.96"/>
<path style="fill:#602F75;" d="M341.453,242.406c-26.348,0-47.787-21.439-47.787-47.787c0-3.773,3.053-6.827,6.827-6.827
	s6.827,3.053,6.827,6.827c0,18.819,15.314,34.133,34.133,34.133c3.773,0,6.827,3.053,6.827,6.827S345.226,242.406,341.453,242.406z"
	/>
<path style="fill:#FFFFFF;" d="M300.493,358.46c0-22.622,18.338-40.96,40.96-40.96"/>
<path style="fill:#602F75;" d="M300.493,365.286c-3.773,0-6.827-3.053-6.827-6.827c0-26.348,21.439-47.787,47.787-47.787
	c3.773,0,6.827,3.053,6.827,6.827s-3.053,6.827-6.827,6.827c-18.819,0-34.133,15.314-34.133,34.133
	C307.319,362.233,304.266,365.286,300.493,365.286z"/>
<polygon style="fill:#FFFFFF;" points="327.799,385.766 327.799,358.46 122.999,358.46 "/>
<path style="fill:#602F75;" d="M327.799,392.593c-0.3,0-0.601-0.02-0.899-0.06l-204.8-27.307c-3.567-0.473-6.147-3.634-5.914-7.219
	c0.241-3.587,3.22-6.373,6.813-6.373h204.8c3.773,0,6.827,3.053,6.827,6.827v27.307c0,1.966-0.847,3.84-2.326,5.134
	C331.047,391.999,329.446,392.593,327.799,392.593z M225.853,365.286l95.119,12.681v-12.681H225.853z"/>
<g>
</g>
<g>
</g>
<g>
</g>
<g>
</g>
<g>
</g>
<g>
</g>
<g>
</g>
<g>
</g>
<g>
</g>
<g>
</g>
<g>
</g>
<g>
</g>
<g>
</g>
<g>
</g>
<g>
</g>
</svg>
