<?xml version="1.0" encoding="iso-8859-1"?>
<!-- Generator: Adobe Illustrator 19.0.0, SVG Export Plug-In . SVG Version: 6.00 Build 0)  -->
<svg version="1.1" id="Capa_1" xmlns="http://www.w3.org/2000/svg" xmlns:xlink="http://www.w3.org/1999/xlink" x="0px" y="0px"
	 viewBox="0 0 409.6 409.6" style="enable-background:new 0 0 409.6 409.6;" xml:space="preserve">
<polygon style="fill:#EAEAEA;" points="84.304,354.987 34.133,354.987 68.267,61.44 "/>
<path style="fill:#602F75;" d="M84.306,361.813H34.133c-1.947,0-3.801-0.833-5.1-2.287c-1.294-1.454-1.906-3.393-1.679-5.33
	L61.488,60.65c0.406-3.517,3.593-6.103,6.987-6.033c3.546,0.106,6.414,2.91,6.607,6.449l16.039,293.547
	c0.106,1.874-0.567,3.707-1.853,5.067C87.974,361.044,86.18,361.813,84.306,361.813z M41.8,348.16H77.1L65.814,141.65L41.8,348.16z"
	/>
<polygon style="fill:#EAEAEA;" points="307.2,402.773 68.267,402.773 34.133,354.987 307.2,354.987 "/>
<path style="fill:#602F75;" d="M307.2,409.6H68.267c-2.207,0-4.273-1.063-5.553-2.86L28.58,358.953
	c-1.487-2.08-1.686-4.816-0.521-7.09c1.174-2.273,3.514-3.703,6.074-3.703H307.2c3.773,0,6.827,3.057,6.827,6.827v47.787
	C314.027,406.543,310.973,409.6,307.2,409.6z M71.781,395.947h228.593v-34.133H47.399L71.781,395.947z"/>
<g>
	<circle style="fill:#00E7FF;" cx="303.787" cy="303.787" r="71.68"/>
	<path style="fill:#00E7FF;" d="M303.787,382.293c-43.286,0-78.507-35.217-78.507-78.507s35.22-78.507,78.507-78.507
		s78.507,35.217,78.507,78.507S347.073,382.293,303.787,382.293z M303.787,238.933c-35.76,0-64.853,29.094-64.853,64.853
		s29.094,64.853,64.853,64.853s64.853-29.094,64.853-64.853S339.546,238.933,303.787,238.933z"/>
</g>
<polyline style="fill:#FFFFFF;" points="307.2,226.314 307.2,402.773 68.267,402.773 68.267,61.44 307.2,61.44 307.2,191.145 "/>
<g>
	<path style="fill:#602F75;" d="M307.2,409.6H68.267c-3.773,0-6.827-3.057-6.827-6.827V61.44c0-3.77,3.053-6.827,6.827-6.827H307.2
		c3.773,0,6.827,3.057,6.827,6.827v129.707c0,3.77-3.053,6.827-6.827,6.827s-6.827-3.057-6.827-6.827V68.267H75.093v327.68h225.28
		V226.313c0-3.77,3.053-6.827,6.827-6.827s6.827,3.057,6.827,6.827v176.461C314.027,406.543,310.973,409.6,307.2,409.6z"/>
	<path style="fill:#602F75;" d="M245.76,122.88c-3.773,0-6.827-3.057-6.827-6.827V61.44c0-26.349-21.439-47.787-47.787-47.787
		S143.36,35.091,143.36,61.44v54.613c0,3.77-3.053,6.827-6.827,6.827s-6.827-3.057-6.827-6.827V61.44
		c0-33.877,27.559-61.44,61.44-61.44s61.44,27.563,61.44,61.44v54.613C252.587,119.823,249.533,122.88,245.76,122.88z"/>
</g>
<g>
	<rect x="102.4" y="320.853" style="fill:#EA3457;" width="177.493" height="47.787"/>
	<path style="fill:#EA3457;" d="M279.893,375.467H102.4c-3.773,0-6.827-3.057-6.827-6.827v-47.787c0-3.77,3.053-6.827,6.827-6.827
		h177.493c3.773,0,6.827,3.057,6.827,6.827v47.787C286.72,372.41,283.667,375.467,279.893,375.467z M109.227,361.813h163.84V327.68
		h-163.84V361.813z"/>
</g>
<g>
	<circle style="fill:#FFE600;" cx="191.147" cy="218.453" r="47.787"/>
	<path style="fill:#FFE600;" d="M191.147,273.067c-30.114,0-54.613-24.499-54.613-54.613s24.499-54.613,54.613-54.613
		s54.613,24.499,54.613,54.613S221.261,273.067,191.147,273.067z M191.147,177.493c-22.586,0-40.96,18.374-40.96,40.96
		s18.374,40.96,40.96,40.96s40.96-18.374,40.96-40.96S213.733,177.493,191.147,177.493z"/>
</g>
<g>
</g>
<g>
</g>
<g>
</g>
<g>
</g>
<g>
</g>
<g>
</g>
<g>
</g>
<g>
</g>
<g>
</g>
<g>
</g>
<g>
</g>
<g>
</g>
<g>
</g>
<g>
</g>
<g>
</g>
</svg>
