<?xml version="1.0" encoding="iso-8859-1"?>
<!-- Generator: Adobe Illustrator 19.0.0, SVG Export Plug-In . SVG Version: 6.00 Build 0)  -->
<svg version="1.1" id="Capa_1" xmlns="http://www.w3.org/2000/svg" xmlns:xlink="http://www.w3.org/1999/xlink" x="0px" y="0px"
	 viewBox="0 0 423.762 423.762" style="enable-background:new 0 0 423.762 423.762;" xml:space="preserve">
<g>
	<path style="fill:#FFE600;" d="M226.19,42.551l10.988-25.271c6.777-15.587,30.058-10.638,29.909,6.357l-0.241,27.556
		c-0.119,13.638,16.087,20.854,26.141,11.639l20.316-18.616c12.53-11.482,31.785,2.507,24.738,17.973l-11.428,25.076
		c-5.656,12.411,6.214,25.593,19.147,21.265l26.132-8.743c16.118-5.393,28.018,15.218,15.288,26.481l-20.639,18.26
		c-10.214,9.037-4.733,25.907,8.842,27.215l27.43,2.642c16.918,1.63,19.407,25.3,3.197,30.409l-26.281,8.286
		c-13.007,4.101-14.862,21.743-2.992,28.459l23.984,13.57c14.793,8.369,7.438,31.005-9.448,29.082l-27.378-3.12
		c-13.551-1.545-22.42,13.819-14.309,24.783l16.391,22.151c10.11,13.662-5.816,31.35-20.46,22.724l-23.743-13.986
		c-11.752-6.922-26.102,3.504-23.151,16.819l5.963,26.904c3.678,16.594-18.063,26.274-27.935,12.436l-16.002-22.434
		c-7.921-11.104-25.271-7.415-27.991,5.949l-5.494,27.003c-3.389,16.655-27.189,16.655-30.577,0l-5.494-27.003
		c-2.719-13.365-20.07-17.053-27.991-5.949l-16.002,22.434c-9.87,13.836-31.613,4.156-27.935-12.436l5.963-26.904
		c2.953-13.315-11.399-23.741-23.151-16.819l-23.743,13.986c-14.645,8.625-30.57-9.061-20.46-22.724l16.391-22.151
		c8.112-10.964-0.756-26.325-14.309-24.783l-27.378,3.12c-16.887,1.923-24.241-20.712-9.448-29.082l23.984-13.57
		c11.87-6.716,10.016-24.358-2.992-28.459l-26.281-8.286c-16.21-5.111-13.722-28.781,3.197-30.409l27.43-2.642
		c13.577-1.307,19.057-18.178,8.842-27.215l-20.635-18.261c-12.73-11.262-0.829-31.874,15.288-26.481l26.132,8.743
		c12.933,4.328,24.803-8.854,19.147-21.265L85.719,62.188c-7.049-15.466,12.206-29.455,24.738-17.973l20.316,18.616
		c10.056,9.214,26.26,1.999,26.141-11.639l-0.241-27.556c-0.148-16.995,23.132-21.944,29.909-6.357l10.988,25.271
		C203.011,55.057,220.751,55.057,226.19,42.551z"/>
	<path style="fill:#FFE600;" d="M211.881,422.738c-10.96,0-19.794-7.214-21.973-17.959l-5.494-26.999
		c-0.72-3.526-3.253-6.086-6.781-6.833c-3.519-0.747-6.88,0.56-8.967,3.487l-16,22.434c-6.373,8.921-17.374,11.926-27.387,7.467
		s-15.147-14.647-12.773-25.347l5.96-26.9c0.78-3.519-0.493-6.886-3.407-8.999c-2.913-2.127-6.506-2.301-9.607-0.466l-23.745,13.984
		c-9.446,5.56-20.721,3.826-28.054-4.313c-7.334-8.146-7.88-19.54-1.36-28.346l16.393-22.153c2.14-2.893,2.34-6.487,0.539-9.607
		c-1.807-3.12-5.019-4.7-8.593-4.333l-27.373,3.12c-10.933,1.26-20.487-4.941-23.873-15.353
		c-3.386-10.426,0.748-21.053,10.286-26.453l23.987-13.566c3.133-1.773,4.78-4.973,4.4-8.554c-0.374-3.587-2.654-6.373-6.086-7.453
		l-26.279-8.286c-10.453-3.294-16.707-12.834-15.56-23.733c1.147-10.907,9.247-18.934,20.154-19.98l27.433-2.647
		c3.581-0.346,6.386-2.599,7.501-6.019c1.113-3.427,0.167-6.9-2.533-9.286l-20.634-18.26c-8.207-7.26-10.04-18.521-4.56-28.006
		c5.48-9.506,16.16-13.541,26.54-10.061l26.132,8.747c3.407,1.126,6.886,0.227,9.3-2.454c2.413-2.673,2.959-6.233,1.466-9.506
		L79.508,65.029c-4.547-9.981-1.64-21.012,7.233-27.453c8.873-6.446,20.253-5.794,28.327,1.613l20.32,18.613
		c2.661,2.434,6.2,3.007,9.492,1.546c3.294-1.466,5.239-4.494,5.207-8.093l-0.241-27.554c-0.094-10.96,7.047-19.854,17.766-22.134
		c10.72-2.294,20.867,2.941,25.233,12.993l10.988,25.274c1.44,3.301,4.446,5.274,8.047,5.274c3.601,0,6.607-1.973,8.047-5.274
		l10.988-25.274c4.367-10.054,14.486-15.314,25.233-12.993c10.72,2.28,17.86,11.174,17.766,22.134l-0.241,27.554
		c-0.034,3.599,1.913,6.627,5.207,8.093c3.294,1.459,6.84,0.887,9.492-1.546l20.32-18.613c8.067-7.407,19.453-8.061,28.327-1.613
		c8.873,6.439,11.779,17.473,7.233,27.453l-11.426,25.073c-1.493,3.273-0.947,6.833,1.466,9.506c2.413,2.679,5.886,3.581,9.3,2.454
		l26.132-8.747c10.387-3.48,21.06,0.553,26.54,10.061c5.48,9.487,3.647,20.746-4.567,28.006l-20.627,18.26
		c-2.7,2.386-3.647,5.861-2.533,9.286c1.113,3.42,3.92,5.673,7.501,6.019l27.433,2.647c10.907,1.046,19.007,9.073,20.154,19.98
		c1.147,10.9-5.106,20.441-15.56,23.733l-26.279,8.286c-3.434,1.08-5.714,3.867-6.086,7.453c-0.381,3.581,1.266,6.781,4.4,8.554
		l23.987,13.566c9.54,5.4,13.674,16.027,10.286,26.453c-3.388,10.426-12.974,16.601-23.873,15.353l-27.373-3.12
		c-3.54-0.374-6.787,1.213-8.593,4.333c-1.801,3.12-1.601,6.714,0.539,9.607l16.393,22.153c6.519,8.806,5.973,20.2-1.36,28.346
		c-7.334,8.146-18.606,9.88-28.054,4.313l-23.747-13.986c-3.099-1.826-6.694-1.654-9.607,0.466c-2.913,2.113-4.186,5.48-3.407,8.994
		l5.96,26.914c2.374,10.694-2.76,20.879-12.773,25.341c-10.013,4.446-21.019,1.447-27.387-7.467l-16-22.434
		c-2.087-2.927-5.434-4.233-8.967-3.487c-3.526,0.748-6.06,3.308-6.781,6.833l-5.494,26.999
		C231.675,415.524,222.841,422.738,211.881,422.738z M175.654,357.078c1.594,0,3.207,0.167,4.82,0.514
		c8.873,1.886,15.507,8.579,17.314,17.466l5.494,26.999c1.053,5.18,5.134,7.026,8.6,7.026s7.547-1.847,8.6-7.026l5.494-26.999
		c1.807-8.887,8.439-15.58,17.314-17.466c8.841-1.9,17.647,1.521,22.927,8.907l16,22.434c3.074,4.32,7.547,4.333,10.713,2.927
		c3.166-1.413,6.141-4.753,4.994-9.914l-5.96-26.914c-1.959-8.847,1.374-17.661,8.713-22.994c7.347-5.34,16.759-5.787,24.567-1.179
		l23.747,13.986c4.547,2.673,8.646,0.887,10.974-1.686c2.319-2.58,3.673-6.847,0.532-11.093l-16.393-22.153
		c-5.393-7.293-5.927-16.7-1.386-24.561c4.533-7.854,12.96-12.14,21.96-11.059l27.373,3.12c5.2,0.546,8.267-2.72,9.341-6.013
		c1.074-3.301,0.58-7.747-4.019-10.353l-23.987-13.566c-7.893-4.466-12.206-12.839-11.261-21.866
		c0.947-9.02,6.914-16.319,15.56-19.046l26.279-8.286c5.04-1.587,6.446-5.833,6.086-9.281c-0.36-3.447-2.62-7.313-7.88-7.82
		l-27.433-2.647c-9.027-0.867-16.374-6.767-19.18-15.387c-2.801-8.627-0.326-17.72,6.467-23.733l20.634-18.26
		c3.966-3.5,3.526-7.953,1.794-10.96c-1.741-3-5.379-5.627-10.387-3.934l-26.132,8.747c-8.607,2.886-17.713,0.473-23.781-6.26
		c-6.074-6.746-7.506-16.06-3.746-24.313l11.426-25.073c2.193-4.813-0.02-8.701-2.826-10.74c-2.813-2.033-7.187-2.947-11.08,0.633
		l-20.32,18.613c-6.687,6.12-15.98,7.634-24.274,3.953c-8.286-3.686-13.387-11.614-13.307-20.687l0.241-27.554
		c0.046-5.287-3.56-7.939-6.953-8.66c-3.36-0.72-7.76,0.234-9.873,5.081l-10.988,25.274l0,0c-3.62,8.32-11.5,13.486-20.567,13.486
		s-16.947-5.166-20.567-13.486L180.33,20.001c-2.106-4.847-6.494-5.806-9.873-5.081c-3.393,0.72-7.001,3.374-6.953,8.66
		l0.241,27.554c0.08,9.073-5.019,17-13.307,20.687c-8.286,3.68-17.587,2.167-24.274-3.953l-20.323-18.616
		c-3.9-3.574-8.274-2.654-11.08-0.633c-2.807,2.039-5.019,5.927-2.826,10.74l11.426,25.073c3.76,8.253,2.326,17.567-3.746,24.313
		c-6.074,6.74-15.167,9.146-23.781,6.26l-26.132-8.747c-5.007-1.7-8.646,0.934-10.387,3.934c-1.734,3.007-2.173,7.46,1.787,10.96
		l20.64,18.26c6.793,6.013,9.267,15.107,6.467,23.733c-2.807,8.62-10.153,14.52-19.18,15.387l-27.433,2.647
		c-5.26,0.507-7.52,4.372-7.88,7.82c-0.36,3.447,1.046,7.694,6.086,9.281l26.279,8.286c8.646,2.727,14.612,10.027,15.56,19.046
		c0.947,9.027-3.367,17.399-11.261,21.866l-23.987,13.566c-4.599,2.606-5.093,7.054-4.019,10.353
		c1.073,3.294,4.18,6.567,9.341,6.013l27.373-3.12c8.98-1.073,17.42,3.207,21.96,11.059c4.54,7.859,4.007,17.266-1.386,24.561
		L63.27,332.061c-3.14,4.246-1.787,8.513,0.532,11.093c2.319,2.56,6.42,4.361,10.974,1.686l23.747-13.986
		c7.813-4.613,17.22-4.161,24.567,1.179c7.34,5.333,10.673,14.147,8.713,23.001l-5.96,26.9c-1.147,5.166,1.826,8.506,4.994,9.919
		c3.173,1.406,7.646,1.393,10.713-2.927l16-22.434C161.86,360.464,168.521,357.078,175.654,357.078z M226.188,42.551h0.067H226.188z
		"/>
</g>
<path style="fill:#EA3457;" d="M208.468,76.145c-75.406,0-136.533,61.128-136.533,136.533s61.128,136.533,136.533,136.533
	s136.533-61.128,136.533-136.533S283.873,76.145,208.468,76.145z M208.468,328.732c-64.094,0-116.053-51.959-116.053-116.053
	S144.374,96.625,208.468,96.625s116.053,51.959,116.053,116.053S272.561,328.732,208.468,328.732z"/>
<path style="fill:#602F75;" d="M208.468,356.038c-79.046,0-143.36-64.314-143.36-143.36s64.314-143.36,143.36-143.36
	s143.36,64.314,143.36,143.36S287.514,356.038,208.468,356.038z M208.468,82.972c-71.52,0-129.707,58.187-129.707,129.707
	s58.187,129.707,129.707,129.707s129.707-58.187,129.707-129.707S279.987,82.972,208.468,82.972z M208.468,335.558
	c-67.753,0-122.88-55.127-122.88-122.88s55.127-122.88,122.88-122.88s122.88,55.127,122.88,122.88S276.221,335.558,208.468,335.558z
	 M208.468,103.452c-60.227,0-109.227,49-109.227,109.227s49,109.227,109.227,109.227s109.227-49,109.227-109.227
	S268.694,103.452,208.468,103.452z"/>
<circle style="fill:#00E7FF;" cx="208.468" cy="212.682" r="116.053"/>
<g>
	<path style="fill:#602F75;" d="M208.468,335.558c-67.753,0-122.88-55.127-122.88-122.88s55.127-122.88,122.88-122.88
		s122.88,55.127,122.88,122.88S276.221,335.558,208.468,335.558z M208.468,103.452c-60.227,0-109.227,49-109.227,109.227
		s49,109.227,109.227,109.227s109.227-49,109.227-109.227S268.694,103.452,208.468,103.452z"/>
	<path style="fill:#602F75;" d="M168.893,243.479h-11.981l-29.401-47.633h-0.326l0.207,2.654c0.381,5.074,0.573,9.708,0.573,13.906
		v31.073h-8.873v-59.779h11.853l29.321,47.394h0.247c-0.053-0.626-0.167-2.913-0.326-6.854c-0.167-3.941-0.247-7.013-0.247-9.219
		v-31.321h8.953L168.893,243.479L168.893,243.479z"/>
	<path style="fill:#602F75;" d="M218.494,243.479h-33.812v-59.779h33.812v8.26h-24.04v16.273h22.526v8.18h-22.526v18.767h24.04
		V243.479z"/>
	<path style="fill:#602F75;" d="M286.575,243.479h-10.633l-10.139-35.654c-0.44-1.553-0.98-3.801-1.633-6.726
		c-0.66-2.934-1.053-4.966-1.186-6.113c-0.273,1.746-0.72,4.007-1.333,6.787c-0.613,2.78-1.12,4.854-1.533,6.214l-9.894,35.494
		h-10.633l-7.726-29.933l-7.847-29.846h9.974l8.547,34.84c1.333,5.586,2.294,10.52,2.86,14.8c0.3-2.319,0.753-4.907,1.353-7.767
		c0.601-2.867,1.147-5.18,1.633-6.953l9.733-34.92h9.687l9.981,35.081c0.954,3.246,1.959,8.1,3.026,14.56
		c0.406-3.9,1.386-8.859,2.941-14.887l8.506-34.753h9.9L286.575,243.479z"/>
</g>
<g>
</g>
<g>
</g>
<g>
</g>
<g>
</g>
<g>
</g>
<g>
</g>
<g>
</g>
<g>
</g>
<g>
</g>
<g>
</g>
<g>
</g>
<g>
</g>
<g>
</g>
<g>
</g>
<g>
</g>
</svg>
