<?xml version="1.0" encoding="iso-8859-1"?>
<!-- Generator: Adobe Illustrator 19.0.0, SVG Export Plug-In . SVG Version: 6.00 Build 0)  -->
<svg version="1.1" id="Capa_1" xmlns="http://www.w3.org/2000/svg" xmlns:xlink="http://www.w3.org/1999/xlink" x="0px" y="0px"
	 viewBox="0 0 423.253 423.253" style="enable-background:new 0 0 423.253 423.253;" xml:space="preserve">
<g>
	<circle style="fill:#00E7FF;" cx="211.627" cy="204.8" r="109.227"/>
	<rect x="163.84" y="170.667" style="fill:#00E7FF;" width="95.573" height="61.44"/>
</g>
<g>
	<path style="fill:#602F75;" d="M259.413,238.933H163.84c-3.77,0-6.827-3.053-6.827-6.827v-61.44c0-3.773,3.057-6.827,6.827-6.827
		h95.573c3.77,0,6.827,3.053,6.827,6.827v61.44C266.24,235.88,263.183,238.933,259.413,238.933z M170.667,225.28h81.92v-47.787
		h-81.92V225.28z"/>
	<rect x="204.8" y="225.28" style="fill:#602F75;" width="13.653" height="34.133"/>
	<rect x="191.147" y="245.76" style="fill:#602F75;" width="40.96" height="13.653"/>
</g>
<rect x="320.853" y="170.667" style="fill:#EA3457;" width="95.573" height="61.44"/>
<g>
	<path style="fill:#602F75;" d="M416.427,238.933h-95.573c-3.77,0-6.827-3.053-6.827-6.827v-61.44c0-3.773,3.057-6.827,6.827-6.827
		h95.573c3.77,0,6.827,3.053,6.827,6.827v61.44C423.253,235.88,420.197,238.933,416.427,238.933z M327.68,225.28h81.92v-47.787
		h-81.92V225.28z"/>
	<rect x="361.813" y="225.28" style="fill:#602F75;" width="13.653" height="34.133"/>
	<rect x="348.16" y="245.76" style="fill:#602F75;" width="40.96" height="13.653"/>
</g>
<rect x="6.827" y="170.667" style="fill:#FFE600;" width="95.573" height="61.44"/>
<g>
	<path style="fill:#602F75;" d="M102.4,238.933H6.827c-3.77,0-6.827-3.053-6.827-6.827v-61.44c0-3.773,3.057-6.827,6.827-6.827
		H102.4c3.77,0,6.827,3.053,6.827,6.827v61.44C109.227,235.88,106.17,238.933,102.4,238.933z M13.653,225.28h81.92v-47.787h-81.92
		V225.28z"/>
	<rect x="47.787" y="225.28" style="fill:#602F75;" width="13.653" height="34.133"/>
	<rect x="34.133" y="245.76" style="fill:#602F75;" width="40.96" height="13.653"/>
</g>
<rect x="163.84" y="20.48" style="fill:#FFFFFF;" width="95.573" height="61.44"/>
<g>
	<path style="fill:#602F75;" d="M259.413,88.747H163.84c-3.77,0-6.827-3.053-6.827-6.827V20.48c0-3.773,3.057-6.827,6.827-6.827
		h95.573c3.77,0,6.827,3.053,6.827,6.827v61.44C266.24,85.693,263.183,88.747,259.413,88.747z M170.667,75.093h81.92V27.307h-81.92
		V75.093z"/>
	<rect x="204.8" y="75.093" style="fill:#602F75;" width="13.653" height="34.133"/>
	<rect x="191.147" y="95.573" style="fill:#602F75;" width="40.96" height="13.653"/>
</g>
<rect x="163.84" y="320.853" style="fill:#EAEAEA;" width="95.573" height="61.44"/>
<path style="fill:#602F75;" d="M259.413,389.12H163.84c-3.77,0-6.827-3.053-6.827-6.827v-61.44c0-3.773,3.057-6.827,6.827-6.827
	h95.573c3.77,0,6.827,3.053,6.827,6.827v61.44C266.24,386.067,263.183,389.12,259.413,389.12z M170.667,375.467h81.92V327.68h-81.92
	V375.467z"/>
<path style="fill:#602F75;" d="M211.627,409.6c-3.77,0-6.827-3.053-6.827-6.827v-20.48c0-3.773,3.057-6.827,6.827-6.827
	c3.77,0,6.827,3.053,6.827,6.827v20.48C218.453,406.547,215.397,409.6,211.627,409.6z"/>
<g>
	<path style="fill:#602F75;" d="M225.28,409.6h-27.307c-3.77,0-6.827-3.053-6.827-6.827s3.057-6.827,6.827-6.827h27.307
		c3.77,0,6.827,3.053,6.827,6.827S229.05,409.6,225.28,409.6z"/>
	<rect x="204.8" y="116.053" style="fill:#602F75;" width="13.653" height="40.96"/>
	<rect x="204.8" y="266.24" style="fill:#602F75;" width="13.653" height="40.96"/>
	<rect x="273.067" y="197.973" style="fill:#602F75;" width="34.133" height="13.653"/>
	<rect x="116.053" y="197.973" style="fill:#602F75;" width="34.133" height="13.653"/>
</g>
<g>
</g>
<g>
</g>
<g>
</g>
<g>
</g>
<g>
</g>
<g>
</g>
<g>
</g>
<g>
</g>
<g>
</g>
<g>
</g>
<g>
</g>
<g>
</g>
<g>
</g>
<g>
</g>
<g>
</g>
</svg>
