<?xml version="1.0" encoding="iso-8859-1"?>
<!-- Generator: Adobe Illustrator 19.0.0, SVG Export Plug-In . SVG Version: 6.00 Build 0)  -->
<svg version="1.1" id="Capa_1" xmlns="http://www.w3.org/2000/svg" xmlns:xlink="http://www.w3.org/1999/xlink" x="0px" y="0px"
	 viewBox="0 0 389.12 389.12" style="enable-background:new 0 0 389.12 389.12;" xml:space="preserve">
<polyline style="fill:#FFFFFF;" points="214.298,170.667 300.373,170.667 300.373,341.333 6.827,341.333 6.827,170.667 
	158.309,170.667 "/>
<path style="fill:#602F75;" d="M300.373,348.16H6.827c-3.773,0-6.827-3.053-6.827-6.827V170.667c0-3.773,3.053-6.827,6.827-6.827
	h151.48c3.773,0,6.827,3.053,6.827,6.827s-3.053,6.827-6.827,6.827H13.653v157.013h279.893V177.493h-79.247
	c-3.773,0-6.827-3.053-6.827-6.827s3.053-6.827,6.827-6.827h86.074c3.773,0,6.827,3.053,6.827,6.827v170.667
	C307.2,345.107,304.147,348.16,300.373,348.16z"/>
<rect x="6.827" y="341.333" style="fill:#00E7FF;" width="293.547" height="27.307"/>
<path style="fill:#602F75;" d="M300.373,375.467H6.827c-3.773,0-6.827-3.053-6.827-6.827v-27.307c0-3.773,3.053-6.827,6.827-6.827
	h293.547c3.773,0,6.827,3.053,6.827,6.827v27.307C307.2,372.413,304.147,375.467,300.373,375.467z M13.653,361.813h279.893V348.16
	H13.653V361.813z"/>
<rect x="13.653" y="232.107" style="fill:#FFE600;" width="177.493" height="81.92"/>
<rect x="191.147" y="354.987" style="fill:#EA3457;" width="191.147" height="27.307"/>
<path style="fill:#602F75;" d="M382.293,389.12H191.147c-3.773,0-6.827-3.053-6.827-6.827v-27.307c0-3.773,3.053-6.827,6.827-6.827
	h191.147c3.773,0,6.827,3.053,6.827,6.827v27.307C389.12,386.067,386.067,389.12,382.293,389.12z M197.973,375.467h177.493v-13.653
	H197.973V375.467z"/>
<rect x="191.147" y="54.613" style="fill:#FFFFFF;" width="191.147" height="300.373"/>
<g>
	<path style="fill:#602F75;" d="M389.12,361.813h-204.8V47.787h204.8V361.813z M197.973,348.16h177.493V61.44H197.973V348.16z"/>
	<path style="fill:#602F75;" d="M143.28,286.72h-13.493c-18.867,0-34.214-15.346-34.214-34.214V204.8
		c0-3.773,3.053-6.827,6.827-6.827s6.827,3.053,6.827,6.827v47.706c0,11.341,9.219,20.56,20.56,20.56h13.493
		c11.341,0,20.56-9.219,20.56-20.56V204.8c0-3.773,3.053-6.827,6.827-6.827s6.827,3.053,6.827,6.827v47.706
		C177.493,271.374,162.147,286.72,143.28,286.72z"/>
	<path style="fill:#602F75;" d="M320.853,88.747c-3.773,0-6.827-3.053-6.827-6.827V34.214c0-11.341-9.219-20.56-20.56-20.56h-13.493
		c-11.341,0-20.56,9.219-20.56,20.56V81.92c0,3.773-3.053,6.827-6.827,6.827s-6.827-3.053-6.827-6.827V34.214
		C245.76,15.346,261.106,0,279.974,0h13.493c18.867,0,34.214,15.346,34.214,34.214V81.92
		C327.68,85.693,324.627,88.747,320.853,88.747z"/>
</g>
<rect x="197.973" y="170.667" style="fill:#00E7FF;" width="177.493" height="109.227"/>
<g>
</g>
<g>
</g>
<g>
</g>
<g>
</g>
<g>
</g>
<g>
</g>
<g>
</g>
<g>
</g>
<g>
</g>
<g>
</g>
<g>
</g>
<g>
</g>
<g>
</g>
<g>
</g>
<g>
</g>
</svg>
