<?xml version="1.0" encoding="iso-8859-1"?>
<!-- Generator: Adobe Illustrator 19.0.0, SVG Export Plug-In . SVG Version: 6.00 Build 0)  -->
<svg version="1.1" id="Capa_1" xmlns="http://www.w3.org/2000/svg" xmlns:xlink="http://www.w3.org/1999/xlink" x="0px" y="0px"
	 viewBox="0 0 368.64 368.64" style="enable-background:new 0 0 368.64 368.64;" xml:space="preserve">
<path style="fill:#FFFFFF;" d="M204.739,275.797v72.422c0,7.508-6.086,13.594-13.594,13.594H27.186
	c-7.508,0-13.594-6.086-13.594-13.594V20.42c0-7.508,6.086-13.594,13.594-13.594h163.959c7.508,0,13.594,6.086,13.594,13.594v52.627
	"/>
<path style="fill:#602F75;" d="M191.146,368.64H27.186c-11.261,0-20.42-9.16-20.42-20.42V20.42C6.766,9.16,15.926,0,27.186,0
	h163.959c11.261,0,20.42,9.16,20.42,20.42v52.627c0,3.773-3.053,6.827-6.827,6.827c-3.773,0-6.827-3.053-6.827-6.827V20.42
	c0-3.734-3.033-6.767-6.767-6.767H27.186c-3.734,0-6.767,3.033-6.767,6.767V348.22c0,3.734,3.033,6.767,6.767,6.767h163.959
	c3.734,0,6.767-3.033,6.767-6.767v-72.421c0-3.773,3.053-6.827,6.827-6.827c3.773,0,6.827,3.053,6.827,6.827v72.421
	C211.566,359.48,202.406,368.64,191.146,368.64z"/>
<rect x="34.073" y="27.307" style="fill:#EA3457;" width="150.187" height="266.24"/>
<path style="fill:#602F75;" d="M184.259,300.373H34.073c-3.773,0-6.827-3.053-6.827-6.827V27.307c0-3.773,3.053-6.827,6.827-6.827
	h150.187c3.773,0,6.827,3.053,6.827,6.827v266.24C191.086,297.32,188.033,300.373,184.259,300.373z M40.899,286.72h136.533V34.133
	H40.899V286.72z"/>
<g>
	<circle style="fill:#00E7FF;" cx="109.175" cy="327.68" r="13.653"/>
	<path style="fill:#00E7FF;" d="M109.166,348.16c-11.293,0-20.48-9.187-20.48-20.48c0-11.293,9.187-20.48,20.48-20.48
		s20.48,9.187,20.48,20.48C129.646,338.973,120.459,348.16,109.166,348.16z M109.166,320.853c-3.767,0-6.827,3.06-6.827,6.827
		c0,3.767,3.06,6.827,6.827,6.827c3.767,0,6.827-3.06,6.827-6.827C115.993,323.913,112.933,320.853,109.166,320.853z"/>
</g>
<path style="fill:#FFFFFF;" d="M336.74,245.76H127.352c-10.044,0-18.186-8.143-18.186-18.186V113.76
	c0-10.044,8.143-18.186,18.186-18.186H336.74c10.044,0,18.186,8.143,18.186,18.186v113.814
	C354.926,237.618,346.784,245.76,336.74,245.76z"/>
<path style="fill:#602F75;" d="M336.74,252.706H127.352c-13.86,0-25.134-11.273-25.134-25.134V113.758
	c0-13.86,11.273-25.134,25.134-25.134H336.74c13.86,0,25.134,11.273,25.134,25.134v113.814
	C361.872,241.434,350.6,252.706,336.74,252.706z M127.352,102.519c-6.2,0-11.24,5.04-11.24,11.24v113.814
	c0,6.2,5.04,11.24,11.24,11.24H336.74c6.2,0,11.24-5.04,11.24-11.24V113.76c0-6.2-5.04-11.24-11.24-11.24L127.352,102.519
	L127.352,102.519z"/>
<rect x="116.001" y="129.707" style="fill:#FFE600;" width="232.107" height="40.96"/>
<g>
	<path style="fill:#602F75;" d="M177.433,204.919h-40.96c-3.84,0-6.946-3.106-6.946-6.946c0-3.84,3.106-6.946,6.946-6.946h40.96
		c3.84,0,6.946,3.106,6.946,6.946C184.379,201.813,181.273,204.919,177.433,204.919z"/>
	<path style="fill:#602F75;" d="M266.179,204.919h-61.44c-3.84,0-6.946-3.106-6.946-6.946c0-3.84,3.106-6.946,6.946-6.946h61.44
		c3.84,0,6.946,3.106,6.946,6.946C273.126,201.813,270.019,204.919,266.179,204.919z"/>
</g>
<g>
</g>
<g>
</g>
<g>
</g>
<g>
</g>
<g>
</g>
<g>
</g>
<g>
</g>
<g>
</g>
<g>
</g>
<g>
</g>
<g>
</g>
<g>
</g>
<g>
</g>
<g>
</g>
<g>
</g>
</svg>
