<?xml version="1.0" encoding="iso-8859-1"?>
<!-- Generator: Adobe Illustrator 19.0.0, SVG Export Plug-In . SVG Version: 6.00 Build 0)  -->
<svg version="1.1" id="Capa_1" xmlns="http://www.w3.org/2000/svg" xmlns:xlink="http://www.w3.org/1999/xlink" x="0px" y="0px"
	 viewBox="0 0 409.6 409.6" style="enable-background:new 0 0 409.6 409.6;" xml:space="preserve">
<path style="fill:#602F75;" d="M279.894,122.88c-3.77,0-6.827-3.053-6.827-6.827V61.44c0-26.348-21.437-47.787-47.787-47.787
	s-47.787,21.439-47.787,47.787v54.613c0,3.773-3.057,6.827-6.827,6.827c-3.77,0-6.827-3.053-6.827-6.827V61.44
	c0-33.881,27.563-61.44,61.44-61.44s61.44,27.559,61.44,61.44v54.613C286.721,119.827,283.664,122.88,279.894,122.88z"/>
<polyline style="fill:#00E7FF;" points="238.938,402.773 68.268,402.773 102.401,61.44 341.334,61.44 375.468,402.773 
	275.629,402.773 "/>
<path style="fill:#602F75;" d="M375.468,409.6h-99.84c-3.77,0-6.827-3.053-6.827-6.827s3.057-6.827,6.827-6.827h92.297
	l-32.766-327.68h-226.58l-32.766,327.68h163.127c3.77,0,6.827,3.053,6.827,6.827s-3.057,6.827-6.827,6.827H68.268
	c-1.93,0-3.767-0.814-5.06-2.246c-1.297-1.427-1.923-3.34-1.734-5.26L95.607,60.761c0.352-3.487,3.287-6.147,6.794-6.147h238.933
	c3.507,0,6.443,2.661,6.793,6.147l34.133,341.333c0.189,1.92-0.437,3.833-1.734,5.26C379.234,408.786,377.398,409.6,375.468,409.6z"
	/>
<polyline style="fill:#FFFFFF;" points="238.934,402.773 34.134,402.773 68.268,61.44 307.201,61.44 341.334,402.773 
	275.628,402.773 "/>
<g>
	<path style="fill:#602F75;" d="M341.334,409.6h-65.707c-3.77,0-6.827-3.053-6.827-6.827s3.057-6.827,6.827-6.827h58.163
		l-32.766-327.68H74.444l-32.766,327.68h197.257c3.77,0,6.827,3.053,6.827,6.827s-3.057,6.827-6.827,6.827h-204.8
		c-1.93,0-3.767-0.814-5.06-2.246c-1.297-1.427-1.923-3.34-1.734-5.26L61.473,60.761c0.352-3.487,3.287-6.147,6.794-6.147h238.933
		c3.507,0,6.443,2.661,6.793,6.147l34.133,341.333c0.189,1.92-0.437,3.833-1.734,5.26C345.101,408.786,343.264,409.6,341.334,409.6z
		"/>
	<path style="fill:#602F75;" d="M245.761,122.88c-3.77,0-6.827-3.053-6.827-6.827V61.44c0-26.348-21.437-47.787-47.787-47.787
		s-47.787,21.439-47.787,47.787v54.613c0,3.773-3.057,6.827-6.827,6.827s-6.827-3.053-6.827-6.827V61.44
		c0-33.881,27.563-61.44,61.44-61.44s61.44,27.559,61.44,61.44v54.613C252.588,119.827,249.531,122.88,245.761,122.88z"/>
</g>
<polygon style="fill:#FFE600;" points="238.934,395.947 143.361,395.947 153.98,68.267 228.315,68.267 "/>
<g>
	<path style="fill:#EA3457;" d="M187.734,334.507l63.017-82.196c19.806-25.834,4.471-64.87-27.947-67.796
		c-1.434-0.128-2.884-0.195-4.35-0.195c-11.703,0-22.412,4.222-30.72,11.206c-8.308-6.984-19.017-11.206-30.72-11.206
		c-1.466,0-2.917,0.067-4.35,0.195c-32.42,2.925-47.753,41.962-27.947,67.796L187.734,334.507z"/>
	<path style="fill:#EA3457;" d="M187.734,341.333c-2.123,0-4.127-0.986-5.417-2.673L119.3,256.468
		c-11.037-14.394-13.321-33.753-5.963-50.526c7.071-16.126,21.543-26.673,38.714-28.227c12.457-1.094,25.293,2.179,35.683,9.26
		c10.394-7.079,23.34-10.346,35.669-9.26c17.183,1.553,31.657,12.1,38.726,28.227c7.357,16.773,5.074,36.134-5.963,50.526
		l-63.017,82.193C191.861,340.347,189.857,341.333,187.734,341.333z M157.014,191.147c-1.263,0-2.514,0.06-3.75,0.167
		c-12.124,1.094-22.383,8.614-27.423,20.106c-5.361,12.22-3.714,26.293,4.294,36.739l57.6,75.127l57.6-75.127
		c8.006-10.447,9.653-24.52,4.294-36.739c-5.04-11.493-15.3-19.014-27.436-20.106c-10.537-0.906-21.733,2.434-30.063,9.44
		c-2.54,2.133-6.246,2.133-8.786,0C175.977,194.56,166.628,191.147,157.014,191.147z"/>
</g>
<g>
</g>
<g>
</g>
<g>
</g>
<g>
</g>
<g>
</g>
<g>
</g>
<g>
</g>
<g>
</g>
<g>
</g>
<g>
</g>
<g>
</g>
<g>
</g>
<g>
</g>
<g>
</g>
<g>
</g>
</svg>
