<?xml version="1.0" encoding="iso-8859-1"?>
<!-- Generator: Adobe Illustrator 19.0.0, SVG Export Plug-In . SVG Version: 6.00 Build 0)  -->
<svg version="1.1" id="Capa_1" xmlns="http://www.w3.org/2000/svg" xmlns:xlink="http://www.w3.org/1999/xlink" x="0px" y="0px"
	 viewBox="0 0 430.085 430.085" style="enable-background:new 0 0 430.085 430.085;" xml:space="preserve">
<path style="fill:#FFE600;" d="M102.38,348.163c-6.861,0-12.773-5.163-13.548-12.146l-6.827-61.44
	c-0.833-7.494,4.567-14.244,12.059-15.077c7.414-0.85,14.24,4.564,15.073,12.063l6.827,61.44
	c0.833,7.494-4.567,14.244-12.059,15.077C103.393,348.135,102.886,348.163,102.38,348.163z"/>
<path style="fill:#602F75;" d="M102.38,354.989c-10.44,0-19.18-7.834-20.333-18.224l-6.827-61.437
	c-0.601-5.437,0.947-10.783,4.361-15.053c3.42-4.27,8.293-6.956,13.734-7.561c5.4-0.626,10.726,0.927,15.007,4.34
	c4.301,3.427,7.001,8.313,7.607,13.754l6.827,61.44c1.246,11.22-6.866,21.367-18.094,22.613
	C103.893,354.95,103.132,354.989,102.38,354.989z M95.599,266.239c-0.247,0-0.5,0.014-0.753,0.043
	c-1.84,0.203-3.459,1.097-4.599,2.524c-1.14,1.423-1.654,3.203-1.454,5.016l6.827,61.44c0.406,3.721,3.727,6.431,7.54,6.03
	c3.734-0.413,6.439-3.797,6.019-7.537l-6.827-61.44c-0.2-1.807-1.101-3.434-2.546-4.584
	C98.586,266.756,97.113,266.239,95.599,266.239z"/>
<path style="fill:#FFFFFF;" d="M215.038,102.403h-78.165c-7.54,0-13.653,6.113-13.653,13.653c0,7.54,6.113,13.653,13.653,13.653
	H392.66L364.46,259.416H108.092L95.519,114.873c-0.005-0.058-0.026-0.111-0.032-0.169c-0.005-0.053,0.003-0.102-0.002-0.154
	l-6.827-61.44c-0.765-6.919-6.605-12.148-13.565-12.148H20.48c-7.54,0-13.653,6.113-13.653,13.653S12.94,68.269,20.48,68.269h42.394
	l5.456,49.079l13.643,156.906c0.613,7.054,6.519,12.471,13.6,12.471h279.893c6.42,0,11.981-4.477,13.339-10.754l34.133-157.013
	c0.881-4.036-0.119-8.253-2.707-11.467c-2.594-3.217-6.501-5.086-10.633-5.086h-51.198"/>
<path style="fill:#602F75;" d="M375.467,293.549H95.573c-10.701,0-19.473-8.04-20.4-18.707l-13.64-156.908l-4.768-42.839H20.48
	C9.187,75.096,0,65.909,0,54.616s9.187-20.48,20.48-20.48h54.613c10.453,0,19.2,7.834,20.354,18.22l6.827,61.44
	c0.02,0.21,0.034,0.447,0.039,0.679l12.039,138.114h244.606l25.226-116.053H136.871c-11.293,0-20.48-9.187-20.48-20.48
	s9.187-20.48,20.48-20.48h78.167c3.773,0,6.827,3.057,6.827,6.827s-3.053,6.827-6.827,6.827h-78.167
	c-3.767,0-6.827,3.063-6.827,6.827c0,3.763,3.06,6.827,6.827,6.827h255.787c2.067,0,4.019,0.934,5.313,2.543
	c1.3,1.606,1.794,3.717,1.36,5.733l-28.199,129.707c-0.686,3.14-3.459,5.376-6.673,5.376H108.092c-3.54,0-6.494-2.707-6.799-6.236
	L88.745,115.778c-0.02-0.113-0.034-0.224-0.046-0.323c-0.014-0.15-0.027-0.311-0.034-0.473l-6.793-61.119
	c-0.379-3.465-3.299-6.074-6.779-6.074H20.48c-3.767,0-6.827,3.063-6.827,6.827s3.06,6.827,6.827,6.827h42.394
	c3.48,0,6.4,2.616,6.787,6.074l5.46,49.077l13.653,157.07c0.314,3.553,3.234,6.233,6.799,6.233h279.893
	c3.186,0,5.994-2.26,6.666-5.373l34.133-157.017c0.447-2.029-0.046-4.116-1.353-5.736c-1.3-1.614-3.241-2.541-5.313-2.541h-51.2
	c-3.773,0-6.827-3.057-6.827-6.827s3.053-6.827,6.827-6.827h51.2c6.226,0,12.04,2.78,15.947,7.631
	c3.907,4.854,5.386,11.124,4.067,17.203l-34.133,157.01C393.453,286.762,385.039,293.549,375.467,293.549z"/>
<path style="fill:#602F75;" d="M327.68,109.229h-81.92c-3.773,0-6.827-3.057-6.827-6.827s3.053-6.827,6.827-6.827h81.92
	c3.773,0,6.827,3.057,6.827,6.827S331.452,109.229,327.68,109.229z"/>
<polygon style="fill:#EA3457;" points="341.333,232.109 131.982,232.109 122.88,157.016 354.987,157.016 "/>
<path style="fill:#FFE600;" d="M314.027,375.469H136.533c-7.54,0-13.653-6.113-13.653-13.653c0-7.54,6.113-13.653,13.653-13.653
	h177.493c7.54,0,13.653,6.113,13.653,13.653C327.68,369.356,321.565,375.469,314.027,375.469z"/>
<path style="fill:#602F75;" d="M314.027,382.296H136.533c-11.293,0-20.48-9.187-20.48-20.48c0-11.293,9.187-20.48,20.48-20.48
	h177.493c11.293,0,20.48,9.187,20.48,20.48C334.507,373.109,325.32,382.296,314.027,382.296z M136.533,354.989
	c-3.767,0-6.827,3.063-6.827,6.827c0,3.763,3.06,6.827,6.827,6.827h177.493c3.767,0,6.827-3.063,6.827-6.827
	c0-3.763-3.06-6.827-6.827-6.827H136.533z"/>
<circle style="fill:#00E7FF;" cx="109.227" cy="361.816" r="27.307"/>
<path style="fill:#602F75;" d="M109.227,395.949c-18.819,0-34.133-15.314-34.133-34.133s15.314-34.133,34.133-34.133
	s34.133,15.314,34.133,34.133S128.046,395.949,109.227,395.949z M109.227,341.336c-11.293,0-20.48,9.187-20.48,20.48
	c0,11.293,9.187,20.48,20.48,20.48s20.48-9.187,20.48-20.48C129.707,350.523,120.52,341.336,109.227,341.336z"/>
<circle style="fill:#00E7FF;" cx="341.335" cy="361.816" r="27.307"/>
<path style="fill:#602F75;" d="M341.333,395.949c-18.819,0-34.133-15.314-34.133-34.133s15.314-34.133,34.133-34.133
	s34.133,15.314,34.133,34.133S360.153,395.949,341.333,395.949z M341.333,341.336c-11.293,0-20.48,9.187-20.48,20.48
	c0,11.293,9.187,20.48,20.48,20.48c11.293,0,20.48-9.187,20.48-20.48C361.813,350.523,352.626,341.336,341.333,341.336z"/>
<g>
</g>
<g>
</g>
<g>
</g>
<g>
</g>
<g>
</g>
<g>
</g>
<g>
</g>
<g>
</g>
<g>
</g>
<g>
</g>
<g>
</g>
<g>
</g>
<g>
</g>
<g>
</g>
<g>
</g>
</svg>
