<?xml version="1.0" encoding="iso-8859-1"?>
<!-- Generator: Adobe Illustrator 19.0.0, SVG Export Plug-In . SVG Version: 6.00 Build 0)  -->
<svg version="1.1" id="Capa_1" xmlns="http://www.w3.org/2000/svg" xmlns:xlink="http://www.w3.org/1999/xlink" x="0px" y="0px"
	 viewBox="0 0 430.08 430.08" style="enable-background:new 0 0 430.08 430.08;" xml:space="preserve">
<path style="fill:#FFE600;" d="M382.293,351.573H47.787c-22.622,0-40.96-18.338-40.96-40.96l0,0h416.427l0,0
	C423.253,333.235,404.915,351.573,382.293,351.573z"/>
<path style="fill:#602F75;" d="M382.293,358.4H47.787C21.439,358.4,0,336.961,0,310.613c0-3.773,3.053-6.827,6.827-6.827h416.427
	c3.773,0,6.827,3.053,6.827,6.827C430.08,336.961,408.641,358.4,382.293,358.4z M14.339,317.44
	C17.512,333,31.3,344.747,47.787,344.747h334.507c16.486,0,30.273-11.747,33.447-27.307H14.339z"/>
<polyline style="fill:#00E7FF;" points="389.12,310.613 40.96,310.613 40.96,78.507 389.12,78.507 389.12,271.363 "/>
<path style="fill:#602F75;" d="M389.12,317.44H40.96c-3.773,0-6.827-3.053-6.827-6.827V78.507c0-3.773,3.053-6.827,6.827-6.827
	h348.16c3.773,0,6.827,3.053,6.827,6.827V271.36c0,3.773-3.053,6.827-6.827,6.827s-6.827-3.053-6.827-6.827V85.333H47.787v218.453
	H389.12c3.773,0,6.827,3.053,6.827,6.827S392.893,317.44,389.12,317.44z"/>
<polyline style="fill:#FFFFFF;" points="136.533,146.773 136.533,146.773 157.013,228.693 273.067,228.693 286.72,160.427 
	143.36,160.427 "/>
<g>
	<path style="fill:#EA3457;" d="M273.067,235.52H157.013c-3.133,0-5.861-2.133-6.62-5.173l-20.48-81.92
		c-0.92-3.654,1.307-7.359,4.966-8.274c3.64-0.934,7.359,1.307,8.274,4.966l2.127,8.48h141.44c2.046,0,3.98,0.92,5.28,2.5
		c1.294,1.58,1.812,3.661,1.413,5.666l-13.653,68.267C279.12,233.219,276.32,235.52,273.067,235.52z M162.347,221.867h105.127
		l10.919-54.613h-129.7L162.347,221.867z"/>
	<g>
		<circle style="fill:#EA3457;" cx="184.32" cy="249.173" r="13.653"/>
		<circle style="fill:#EA3457;" cx="245.76" cy="249.173" r="13.653"/>
	</g>
</g>
<path style="fill:#EA3457;" d="M279.893,201.387H150.187c-3.773,0-6.827-3.053-6.827-6.827s3.053-6.827,6.827-6.827h129.707
	c3.773,0,6.827,3.053,6.827,6.827S283.667,201.387,279.893,201.387z"/>
<path style="fill:#EA3457;" d="M136.533,153.6h-20.48c-3.773,0-6.827-3.053-6.827-6.827s3.053-6.827,6.827-6.827h20.48
	c3.773,0,6.827,3.053,6.827,6.827S140.307,153.6,136.533,153.6z"/>
<g>
	<path style="fill:#FFFFFF;" d="M61.44,139.947c-1.746,0-3.494-0.667-4.826-2c-2.666-2.666-2.666-6.987,0-9.653l27.307-27.307
		c2.666-2.666,6.987-2.666,9.653,0c2.666,2.666,2.666,6.987,0,9.653l-27.307,27.307C64.934,139.279,63.186,139.947,61.44,139.947z"
		/>
	<path style="fill:#FFFFFF;" d="M303.787,286.72c-1.746,0-3.494-0.667-4.826-2c-2.666-2.666-2.666-6.987,0-9.653l51.2-51.2
		c2.666-2.666,6.987-2.666,9.653,0s2.666,6.987,0,9.653l-51.2,51.2C307.28,286.053,305.533,286.72,303.787,286.72z"/>
	<path style="fill:#FFFFFF;" d="M337.92,286.72c-1.746,0-3.494-0.667-4.826-2c-2.666-2.666-2.666-6.987,0-9.653L350.16,258
		c2.666-2.666,6.987-2.666,9.653,0s2.666,6.987,0,9.653l-17.067,17.067C341.414,286.053,339.666,286.72,337.92,286.72z"/>
</g>
<g>
</g>
<g>
</g>
<g>
</g>
<g>
</g>
<g>
</g>
<g>
</g>
<g>
</g>
<g>
</g>
<g>
</g>
<g>
</g>
<g>
</g>
<g>
</g>
<g>
</g>
<g>
</g>
<g>
</g>
</svg>
