<?xml version="1.0" encoding="iso-8859-1"?>
<!-- Generator: Adobe Illustrator 19.0.0, SVG Export Plug-In . SVG Version: 6.00 Build 0)  -->
<svg version="1.1" id="Capa_1" xmlns="http://www.w3.org/2000/svg" xmlns:xlink="http://www.w3.org/1999/xlink" x="0px" y="0px"
	 viewBox="0 0 368.64 368.64" style="enable-background:new 0 0 368.64 368.64;" xml:space="preserve">
<path style="fill:#FFE600;" d="M314.027,211.628v121.346c0,15.928-12.913,28.839-28.839,28.839H83.453
	c-15.927,0-28.839-12.913-28.839-28.839V35.666c0-15.927,12.913-28.839,28.839-28.839h201.733c15.928,0,28.841,12.913,28.841,28.839
	v49.669"/>
<path style="fill:#602F75;" d="M285.187,368.64H83.453c-19.666,0-35.666-16-35.666-35.666V35.666C47.787,16,63.787,0,83.453,0
	h201.733c19.668,0,35.668,16,35.668,35.666v49.667c0,3.773-3.053,6.827-6.827,6.827s-6.827-3.053-6.827-6.827V35.666
	c0-12.14-9.873-22.013-22.013-22.013H83.453c-12.14,0-22.013,9.873-22.013,22.013v297.306c0,12.141,9.873,22.014,22.013,22.014
	h201.733c12.14,0,22.013-9.873,22.013-22.013V211.627c0-3.773,3.053-6.827,6.827-6.827s6.827,3.053,6.827,6.827v121.347
	C320.853,352.64,304.853,368.64,285.187,368.64z"/>
<path style="fill:#602F75;" d="M314.027,191.147c-3.773,0-6.827-3.053-6.827-6.827v-68.267c0-3.773,3.053-6.827,6.827-6.827
	s6.827,3.053,6.827,6.827v68.267C320.853,188.093,317.8,191.147,314.027,191.147z"/>
<rect x="75.093" y="27.307" style="fill:#FFFFFF;" width="218.453" height="266.24"/>
<path style="fill:#602F75;" d="M293.547,300.373H75.093c-3.773,0-6.827-3.053-6.827-6.827V27.307c0-3.773,3.053-6.827,6.827-6.827
	h218.453c3.773,0,6.827,3.053,6.827,6.827v266.24C300.373,297.32,297.32,300.373,293.547,300.373z M81.92,286.72h204.8V34.133H81.92
	V286.72z"/>
<g>
	<circle style="fill:#EA3457;" cx="184.32" cy="327.68" r="13.653"/>
	<path style="fill:#EA3457;" d="M184.32,348.16c-11.293,0-20.48-9.187-20.48-20.48c0-11.293,9.187-20.48,20.48-20.48
		c11.293,0,20.48,9.187,20.48,20.48C204.8,338.973,195.613,348.16,184.32,348.16z M184.32,320.853c-3.767,0-6.827,3.06-6.827,6.827
		c0,3.767,3.06,6.827,6.827,6.827s6.827-3.06,6.827-6.827C191.147,323.913,188.087,320.853,184.32,320.853z"/>
</g>
<path style="fill:#602F75;" d="M232.107,88.747h-40.96c-3.773,0-6.827-3.053-6.827-6.827c0-3.773,3.053-6.827,6.827-6.827h40.96
	c3.773,0,6.827,3.053,6.827,6.827C238.933,85.693,235.88,88.747,232.107,88.747z"/>
<path style="fill:#00E7FF;" d="M150.187,109.227c-1.333,0-2.654-0.393-3.787-1.147l-20.48-13.653
	c-3.14-2.094-3.987-6.327-1.893-9.467c2.087-3.133,6.313-3.987,9.467-1.893l13.653,9.1l17.246-40.24
	c1.487-3.473,5.513-5.081,8.96-3.587c3.466,1.487,5.074,5.501,3.587,8.96l-20.48,47.787c-0.8,1.867-2.386,3.28-4.326,3.86
	C151.494,109.133,150.84,109.227,150.187,109.227z"/>
<path style="fill:#602F75;" d="M232.107,170.667h-40.96c-3.773,0-6.827-3.053-6.827-6.827c0-3.773,3.053-6.827,6.827-6.827h40.96
	c3.773,0,6.827,3.053,6.827,6.827C238.933,167.613,235.88,170.667,232.107,170.667z"/>
<path style="fill:#00E7FF;" d="M150.187,191.147c-1.333,0-2.654-0.393-3.787-1.147l-20.48-13.653
	c-3.14-2.094-3.987-6.327-1.893-9.467c2.087-3.14,6.313-3.987,9.467-1.893l13.653,9.1l17.246-40.24
	c1.487-3.48,5.513-5.086,8.96-3.587c3.466,1.486,5.074,5.501,3.587,8.96l-20.48,47.787c-0.8,1.867-2.386,3.28-4.326,3.86
	C151.494,191.053,150.84,191.147,150.187,191.147z"/>
<path style="fill:#602F75;" d="M232.107,252.587h-40.96c-3.773,0-6.827-3.053-6.827-6.827s3.053-6.827,6.827-6.827h40.96
	c3.773,0,6.827,3.053,6.827,6.827S235.88,252.587,232.107,252.587z"/>
<path style="fill:#00E7FF;" d="M150.187,273.067c-1.333,0-2.654-0.393-3.787-1.147l-20.48-13.653
	c-3.14-2.094-3.987-6.327-1.893-9.467c2.087-3.14,6.313-3.987,9.467-1.893l13.653,9.1l17.246-40.24
	c1.487-3.473,5.513-5.081,8.96-3.587c3.466,1.487,5.074,5.501,3.587,8.96l-20.48,47.787c-0.8,1.867-2.386,3.28-4.326,3.86
	C151.494,272.973,150.84,273.067,150.187,273.067z"/>
<g>
</g>
<g>
</g>
<g>
</g>
<g>
</g>
<g>
</g>
<g>
</g>
<g>
</g>
<g>
</g>
<g>
</g>
<g>
</g>
<g>
</g>
<g>
</g>
<g>
</g>
<g>
</g>
<g>
</g>
</svg>
