<?xml version="1.0" encoding="iso-8859-1"?>
<!-- Generator: Adobe Illustrator 19.0.0, SVG Export Plug-In . SVG Version: 6.00 Build 0)  -->
<svg version="1.1" id="Capa_1" xmlns="http://www.w3.org/2000/svg" xmlns:xlink="http://www.w3.org/1999/xlink" x="0px" y="0px"
	 viewBox="0 0 368.64 368.64" style="enable-background:new 0 0 368.64 368.64;" xml:space="preserve">
<path style="fill:#FFFFFF;" d="M273.006,264.876v68.098c0,15.928-12.913,28.839-28.839,28.839H42.432
	c-15.928,0-28.839-12.913-28.839-28.839V35.666c0-15.927,12.913-28.839,28.839-28.839h201.733c15.928,0,28.839,12.913,28.839,28.839
	v27.819"/>
<path style="fill:#602F75;" d="M244.165,368.64H42.432c-19.666,0-35.666-16-35.666-35.666V35.666C6.766,16,22.766,0,42.432,0
	h201.733c19.666,0,35.666,16,35.666,35.666v27.82c0,3.773-3.053,6.827-6.827,6.827s-6.827-3.053-6.827-6.827v-27.82
	c0-12.14-9.873-22.013-22.013-22.013H42.432c-12.14,0-22.013,9.873-22.013,22.013v297.306c0,12.14,9.873,22.013,22.013,22.013
	h201.733c12.14,0,22.013-9.873,22.013-22.013v-68.099c0-3.773,3.053-6.827,6.827-6.827s6.827,3.053,6.827,6.827v68.099
	C279.833,352.64,263.833,368.64,244.165,368.64z"/>
<rect x="34.073" y="27.307" style="fill:#EA3457;" width="218.453" height="266.24"/>
<path style="fill:#602F75;" d="M252.526,300.373H34.073c-3.773,0-6.827-3.053-6.827-6.827V27.307c0-3.773,3.053-6.827,6.827-6.827
	h218.453c3.773,0,6.827,3.053,6.827,6.827v266.24C259.353,297.32,256.299,300.373,252.526,300.373z M40.899,286.72h204.8V34.133
	h-204.8V286.72z"/>
<g>
	<circle style="fill:#00E7FF;" cx="143.308" cy="327.68" r="13.653"/>
	<path style="fill:#00E7FF;" d="M143.299,348.16c-11.293,0-20.48-9.187-20.48-20.48c0-11.293,9.187-20.48,20.48-20.48
		s20.48,9.187,20.48,20.48C163.779,338.973,154.592,348.16,143.299,348.16z M143.299,320.853c-3.767,0-6.827,3.06-6.827,6.827
		c0,3.767,3.06,6.827,6.827,6.827s6.827-3.06,6.827-6.827C150.126,323.913,147.066,320.853,143.299,320.853z"/>
</g>
<path style="fill:#FFFFFF;" d="M336.74,238.933H127.352c-10.044,0-18.186-8.143-18.186-18.186V106.933
	c0-10.044,8.143-18.186,18.186-18.186H336.74c10.044,0,18.186,8.143,18.186,18.186v113.814
	C354.926,230.791,346.784,238.933,336.74,238.933z"/>
<path style="fill:#602F75;" d="M336.74,245.879H127.352c-13.86,0-25.134-11.273-25.134-25.134V106.931
	c0-13.86,11.273-25.134,25.134-25.134H336.74c13.86,0,25.134,11.273,25.134,25.134v113.814
	C361.872,234.607,350.6,245.879,336.74,245.879z M127.352,95.693c-6.2,0-11.24,5.04-11.24,11.24v113.814
	c0,6.2,5.04,11.24,11.24,11.24H336.74c6.2,0,11.24-5.04,11.24-11.24V106.933c0-6.2-5.04-11.24-11.24-11.24L127.352,95.693
	L127.352,95.693z"/>
<rect x="116.001" y="122.88" style="fill:#FFE600;" width="232.107" height="40.96"/>
<g>
	<path style="fill:#602F75;" d="M177.433,198.093h-40.96c-3.84,0-6.946-3.106-6.946-6.946s3.106-6.946,6.946-6.946h40.96
		c3.84,0,6.946,3.106,6.946,6.946S181.273,198.093,177.433,198.093z"/>
	<path style="fill:#602F75;" d="M266.179,198.093h-61.44c-3.84,0-6.946-3.106-6.946-6.946s3.106-6.946,6.946-6.946h61.44
		c3.84,0,6.946,3.106,6.946,6.946S270.019,198.093,266.179,198.093z"/>
</g>
<g>
</g>
<g>
</g>
<g>
</g>
<g>
</g>
<g>
</g>
<g>
</g>
<g>
</g>
<g>
</g>
<g>
</g>
<g>
</g>
<g>
</g>
<g>
</g>
<g>
</g>
<g>
</g>
<g>
</g>
</svg>
