<?xml version="1.0" encoding="iso-8859-1"?>
<!-- Generator: Adobe Illustrator 19.0.0, SVG Export Plug-In . SVG Version: 6.00 Build 0)  -->
<svg version="1.1" id="Capa_1" xmlns="http://www.w3.org/2000/svg" xmlns:xlink="http://www.w3.org/1999/xlink" x="0px" y="0px"
	 viewBox="0 0 436.907 436.907" style="enable-background:new 0 0 436.907 436.907;" xml:space="preserve">
<path style="fill:#EAEAEA;" d="M354.986,92.638v324.125c0,7.354-5.961,13.317-13.317,13.317H95.236
	c-7.354,0-13.317-5.961-13.317-13.317V20.144c0-7.356,5.961-13.317,13.317-13.317H341.67c7.354,0,13.317,5.961,13.317,13.317v34.137
	"/>
<path style="fill:#602F75;" d="M341.669,436.907H95.236c-11.107,0-20.144-9.033-20.144-20.14V20.14C75.092,9.033,84.129,0,95.236,0
	H341.67c11.105,0,20.142,9.033,20.142,20.14v34.14c0,3.773-3.057,6.827-6.827,6.827c-3.77,0-6.827-3.053-6.827-6.827V20.14
	c0-3.581-2.91-6.487-6.49-6.487H95.236c-3.581,0-6.49,2.906-6.49,6.487v396.626c0,3.581,2.91,6.487,6.49,6.487H341.67
	c3.581,0,6.49-2.906,6.49-6.487V92.64c0-3.773,3.057-6.827,6.827-6.827s6.827,3.053,6.827,6.827v324.127
	C361.813,427.873,352.776,436.907,341.669,436.907z"/>
<path style="fill:#FFFFFF;" d="M354.986,92.636V382.63c0,7.354-5.961,13.317-13.317,13.317H95.236
	c-7.354,0-13.317-5.961-13.317-13.317V54.277c0-7.356,5.961-13.317,13.317-13.317H341.67c7.354,0,13.317,5.961,13.317,13.317"/>
<path style="fill:#602F75;" d="M341.669,402.773H95.236c-11.107,0-20.144-9.033-20.144-20.14V54.274
	c0-11.107,9.037-20.14,20.144-20.14H341.67c11.105,0,20.142,9.033,20.142,20.14c0,3.773-3.057,6.827-6.827,6.827
	c-3.77,0-6.827-3.053-6.827-6.827c0-3.581-2.91-6.487-6.49-6.487H95.236c-3.581,0-6.49,2.906-6.49,6.487v328.359
	c0,3.581,2.91,6.487,6.49,6.487H341.67c3.581,0,6.49-2.906,6.49-6.487v-290c0-3.773,3.057-6.827,6.827-6.827
	s6.827,3.053,6.827,6.827v290C361.813,393.74,352.776,402.773,341.669,402.773z"/>
<rect x="102.399" y="157.013" style="fill:#FFE600;" width="232.107" height="136.533"/>
<g>
	<path style="fill:#602F75;" d="M334.506,300.373H102.399c-3.77,0-6.827-3.053-6.827-6.827V157.013c0-3.773,3.057-6.827,6.827-6.827
		h232.107c3.77,0,6.827,3.053,6.827,6.827v136.533C341.332,297.32,338.276,300.373,334.506,300.373z M109.226,286.72h218.453V163.84
		H109.226V286.72z"/>
	<path style="fill:#602F75;" d="M163.839,300.373c-3.77,0-6.827-3.053-6.827-6.827V157.013c0-3.773,3.057-6.827,6.827-6.827
		s6.827,3.053,6.827,6.827v136.533C170.666,297.32,167.609,300.373,163.839,300.373z"/>
	<path style="fill:#602F75;" d="M218.452,300.373c-3.77,0-6.827-3.053-6.827-6.827V157.013c0-3.773,3.057-6.827,6.827-6.827
		c3.77,0,6.827,3.053,6.827,6.827v136.533C225.279,297.32,222.223,300.373,218.452,300.373z"/>
</g>
<g>
	<path style="fill:#00E7FF;" d="M232.106,136.533H102.399c-3.77,0-6.827-3.053-6.827-6.827c0-3.773,3.057-6.827,6.827-6.827h129.707
		c3.77,0,6.827,3.053,6.827,6.827C238.932,133.48,235.876,136.533,232.106,136.533z"/>
	<path style="fill:#00E7FF;" d="M191.146,341.333h-88.747c-3.77,0-6.827-3.053-6.827-6.827s3.057-6.827,6.827-6.827h88.747
		c3.77,0,6.827,3.053,6.827,6.827S194.916,341.333,191.146,341.333z"/>
	<path style="fill:#00E7FF;" d="M143.359,368.64h-40.96c-3.77,0-6.827-3.053-6.827-6.827s3.057-6.827,6.827-6.827h40.96
		c3.77,0,6.827,3.053,6.827,6.827S147.129,368.64,143.359,368.64z"/>
</g>
<g>
	<path style="fill:#EA3457;" d="M106.193,106.914V69.033h8.033v37.879h-8.033V106.914z"/>
	<path style="fill:#EA3457;" d="M157.366,106.914h-10.209l-16.478-28.655h-0.234c0.326,5.06,0.49,8.666,0.49,10.827v17.826h-7.177
		V69.033h10.131l16.454,28.373h0.183c-0.259-4.927-0.391-8.407-0.391-10.447V69.033h7.229v37.881H157.366z"/>
	<path style="fill:#EA3457;" d="M188.509,69.033h8.11l-12.877,37.879h-8.76l-12.849-37.879h8.11l7.127,22.54
		c0.396,1.333,0.807,2.881,1.231,4.654c0.423,1.766,0.686,3,0.79,3.693c0.189-1.594,0.836-4.372,1.944-8.347L188.509,69.033z"/>
	<path style="fill:#EA3457;" d="M235.768,87.921c0,6.274-1.553,11.093-4.663,14.461c-3.11,3.367-7.567,5.053-13.37,5.053
		c-5.803,0-10.26-1.686-13.37-5.053c-3.11-3.367-4.663-8.207-4.663-14.513c0-6.299,1.56-11.114,4.676-14.44
		c3.116-3.326,7.586-4.987,13.409-4.987c5.82,0,10.274,1.673,13.356,5.026C234.229,76.814,235.768,81.633,235.768,87.921z
		 M208.122,87.921c0,4.233,0.804,7.421,2.41,9.561c1.606,2.147,4.007,3.214,7.204,3.214c6.407,0,9.614-4.253,9.614-12.773
		c0-8.533-3.186-12.8-9.561-12.8c-3.197,0-5.606,1.08-7.229,3.227C208.936,80.5,208.122,83.686,208.122,87.921z"/>
	<path style="fill:#EA3457;" d="M243.619,106.914V69.033h8.033v37.879h-8.033V106.914z"/>
	<path style="fill:#EA3457;" d="M277.276,75.174c-3.022,0-5.364,1.133-7.02,3.407c-1.661,2.273-2.487,5.441-2.487,9.499
		c0,8.446,3.166,12.667,9.506,12.667c2.661,0,5.883-0.667,9.667-1.993v6.733c-3.11,1.3-6.583,1.947-10.417,1.947
		c-5.511,0-9.726-1.673-12.643-5.014c-2.92-3.347-4.379-8.141-4.379-14.394c0-3.941,0.717-7.393,2.15-10.353
		c1.434-2.959,3.494-5.233,6.18-6.813c2.686-1.58,5.833-2.374,9.443-2.374c3.68,0,7.376,0.893,11.09,2.673l-2.591,6.526
		c-1.417-0.674-2.843-1.26-4.277-1.76S278.659,75.174,277.276,75.174z"/>
	<path style="fill:#EA3457;" d="M316.816,106.914H295V69.033h21.816v6.579h-13.783v8.32h12.827v6.579h-12.827v9.767h13.783V106.914z
		"/>
</g>
<g>
</g>
<g>
</g>
<g>
</g>
<g>
</g>
<g>
</g>
<g>
</g>
<g>
</g>
<g>
</g>
<g>
</g>
<g>
</g>
<g>
</g>
<g>
</g>
<g>
</g>
<g>
</g>
<g>
</g>
</svg>
