<?xml version="1.0" encoding="iso-8859-1"?>
<!-- Generator: Adobe Illustrator 19.0.0, SVG Export Plug-In . SVG Version: 6.00 Build 0)  -->
<svg version="1.1" id="Capa_1" xmlns="http://www.w3.org/2000/svg" xmlns:xlink="http://www.w3.org/1999/xlink" x="0px" y="0px"
	 viewBox="0 0 422.7 422.7" style="enable-background:new 0 0 422.7 422.7;" xml:space="preserve">
<polyline style="fill:#00E7FF;" points="125.8,187.733 6.827,187.733 6.827,37.546 368.64,37.546 368.64,187.733 191.147,187.733 
	"/>
<path style="fill:#602F75;" d="M368.64,194.56H191.147c-3.773,0-6.827-3.053-6.827-6.827s3.053-6.827,6.827-6.827h170.667V44.373
	H13.653v136.533H125.8c3.773,0,6.827,3.053,6.827,6.827s-3.053,6.827-6.827,6.827H6.827c-3.773,0-6.827-3.053-6.827-6.827V37.546
	c0-3.773,3.053-6.827,6.827-6.827H368.64c3.773,0,6.827,3.053,6.827,6.827v150.187C375.467,191.506,372.413,194.56,368.64,194.56z"
	/>
<circle style="fill:#00E7FF;" cx="191.143" cy="112.636" r="54.613"/>
<g>
	<path style="fill:#602F75;" d="M191.147,174.08c-33.881,0-61.44-27.559-61.44-61.44s27.559-61.44,61.44-61.44
		s61.44,27.559,61.44,61.44S225.027,174.08,191.147,174.08z M191.147,64.853c-26.348,0-47.787,21.439-47.787,47.787
		s21.439,47.787,47.787,47.787s47.787-21.439,47.787-47.787S217.494,64.853,191.147,64.853z"/>
	<path style="fill:#602F75;" d="M187.534,155.579v-10.341c-5.946-0.106-12.087-1.947-15.667-4.507l2.454-6.861
		c3.686,2.454,9.013,4.4,14.747,4.4c7.267,0,12.187-4.2,12.187-10.033c0-5.634-4-9.114-11.573-12.187
		c-10.447-4.093-16.893-8.806-16.893-17.713c0-8.499,6.04-14.947,15.461-16.486V71.509h6.347v9.933
		c6.141,0.2,10.341,1.84,13.314,3.581l-2.56,6.76c-2.147-1.227-6.347-3.48-12.906-3.48c-7.88,0-10.853,4.707-10.853,8.806
		c0,5.32,3.794,7.987,12.699,11.674c10.547,4.301,15.874,9.62,15.874,18.734c0,8.093-5.634,15.667-16.179,17.413v10.646h-6.453
		V155.579z"/>
</g>
<path style="fill:#EA3457;" d="M411.884,381.163L411.884,381.163c-5.332,5.332-13.978,5.332-19.309,0l-86.89-86.89l19.309-19.309
	l86.89,86.89C417.217,367.187,417.217,375.832,411.884,381.163z"/>
<path style="fill:#602F75;" d="M402.234,391.98c-5.246,0-10.493-1.993-14.486-5.98l-86.886-86.9c-2.666-2.666-2.666-6.987,0-9.653
	l19.306-19.306c2.666-2.666,6.987-2.666,9.653,0l86.893,86.886c7.98,7.987,7.98,20.98,0.007,28.967c-0.007,0-0.007,0-0.007,0.007
	C412.72,389.987,407.473,391.98,402.234,391.98z M411.887,381.167h0.067H411.887z M315.341,294.273l82.06,82.067
	c2.673,2.661,7.001,2.647,9.66,0c2.661-2.666,2.661-7.001-0.007-9.66l-82.06-82.06L315.341,294.273z"/>
<path style="fill:#FFFFFF;" d="M157.018,220.882c-0.254,24.786,9.076,49.654,27.988,68.565c37.323,37.323,97.838,37.323,135.161,0
	c18.662-18.662,27.993-43.121,27.993-67.581"/>
<path style="fill:#602F75;" d="M252.587,324.266c-27.353,0-53.067-10.653-72.407-29.993c-19.62-19.62-30.266-45.706-29.986-73.46
	c0.039-3.746,3.087-6.76,6.827-6.76c0.02,0,0.046,0,0.067,0c3.773,0.039,6.799,3.127,6.76,6.893
	c-0.247,24.061,8.98,46.667,25.987,63.674c16.759,16.759,39.047,25.993,62.754,25.993s45.993-9.233,62.754-25.993
	c16.761-16.759,25.993-39.047,25.993-62.754c0-3.773,3.053-6.827,6.827-6.827s6.827,3.053,6.827,6.827
	c0,27.353-10.653,53.067-29.993,72.407C305.655,313.613,279.941,324.266,252.587,324.266z"/>
<path style="fill:#00E7FF;" d="M348.16,221.866c0-24.46-9.33-48.918-27.993-67.581c-37.323-37.323-97.838-37.323-135.161,0
	c-18.412,18.412-27.74,42.465-27.988,66.596L348.16,221.866z"/>
<g>
	<path style="fill:#602F75;" d="M348.16,228.693c-0.014,0-0.027,0-0.034,0l-191.14-0.986c-1.819-0.007-3.553-0.741-4.833-2.039
		c-1.273-1.294-1.98-3.04-1.959-4.854c0.273-26.953,10.926-52.294,29.986-71.354c19.34-19.34,45.053-29.993,72.407-29.993
		s53.067,10.653,72.407,29.993s29.993,45.053,29.993,72.407c0,1.812-0.727,3.56-2.014,4.84
		C351.695,227.98,349.967,228.693,348.16,228.693z M164.181,214.092l176.893,0.913c-1.606-21.12-10.6-40.76-25.733-55.893
		c-16.759-16.759-39.047-25.993-62.754-25.993c-23.707,0-45.993,9.233-62.754,25.993
		C174.94,174.006,165.973,193.321,164.181,214.092z"/>
	<path style="fill:#602F75;" d="M191.147,201.386c-9.6,0-19.04-1.527-28.059-4.533c-3.574-1.186-5.507-5.053-4.313-8.634
		c1.193-3.574,5.026-5.519,8.634-4.313c7.62,2.54,15.613,3.826,23.74,3.826c35.308,0,65.42-24.006,73.226-58.38
		c0.833-3.68,4.453-5.967,8.173-5.147c3.673,0.84,5.98,4.494,5.147,8.173C268.46,173.006,232.875,201.386,191.147,201.386z"/>
</g>
<g>
</g>
<g>
</g>
<g>
</g>
<g>
</g>
<g>
</g>
<g>
</g>
<g>
</g>
<g>
</g>
<g>
</g>
<g>
</g>
<g>
</g>
<g>
</g>
<g>
</g>
<g>
</g>
<g>
</g>
</svg>
