<?xml version="1.0" encoding="iso-8859-1"?>
<!-- Generator: Adobe Illustrator 19.0.0, SVG Export Plug-In . SVG Version: 6.00 Build 0)  -->
<svg version="1.1" id="Capa_1" xmlns="http://www.w3.org/2000/svg" xmlns:xlink="http://www.w3.org/1999/xlink" x="0px" y="0px"
	 viewBox="0 0 395.947 395.947" style="enable-background:new 0 0 395.947 395.947;" xml:space="preserve">
<path style="fill:#FFFFFF;" d="M349.884,81.939c-34.93-45.66-89.981-75.112-151.91-75.112C92.406,6.827,6.827,92.406,6.827,197.973
	S92.406,389.12,197.973,389.12S389.12,303.541,389.12,197.973c0-29.324-6.603-57.105-18.403-81.939"/>
<path style="fill:#602F75;" d="M197.973,395.947C88.81,395.947,0,307.133,0,197.973S88.81,0,197.973,0
	c62.167,0,119.513,28.353,157.334,77.793c2.29,2.993,1.72,7.281-1.277,9.566c-2.983,2.301-7.277,1.734-9.569-1.273
	c-35.215-46.032-88.608-72.433-146.488-72.433c-101.634,0-184.32,82.686-184.32,184.32s82.686,184.32,184.32,184.32
	s184.32-82.686,184.32-184.32c0-27.653-5.97-54.233-17.742-79.014c-1.616-3.4-0.171-7.473,3.236-9.093
	c3.4-1.601,7.477-0.167,9.097,3.239c12.65,26.621,19.063,55.175,19.063,84.867C395.947,307.133,307.137,395.947,197.973,395.947z"/>
<g>
	<circle style="fill:#EA3457;" cx="197.973" cy="197.973" r="116.053"/>
	<path style="fill:#EA3457;" d="M197.973,320.853c-67.756,0-122.88-55.127-122.88-122.88s55.124-122.88,122.88-122.88
		s122.88,55.127,122.88,122.88S265.73,320.853,197.973,320.853z M197.973,88.747c-60.227,0-109.227,49-109.227,109.227
		s49,109.227,109.227,109.227S307.2,258.2,307.2,197.973S258.2,88.747,197.973,88.747z"/>
</g>
<path style="fill:#00E7FF;" d="M40.96,204.8c-3.77,0-6.827-3.053-6.827-6.827c0-90.341,73.499-163.84,163.84-163.84
	c3.77,0,6.827,3.053,6.827,6.827c0,3.773-3.057,6.827-6.827,6.827c-82.813,0-150.187,67.374-150.187,150.187
	C47.787,201.747,44.73,204.8,40.96,204.8z"/>
<path style="fill:#FFE600;" d="M189.897,273.954c-2.029-2.106-3.017-4.68-2.956-7.707l1.987-102.494
	c0.06-3.026,1.147-5.593,3.256-7.707c2.113-2.113,4.68-3.14,7.707-3.081c3.186,0.06,5.794,1.154,7.827,3.26
	c2.029,2.113,3.017,4.76,2.953,7.946l-1.987,102.494c-0.06,3.026-1.183,5.56-3.378,7.586c-2.19,2.033-4.799,3.014-7.827,2.953
	S191.927,276.067,189.897,273.954z M191.343,125.559c-2.343-2.441-3.483-5.333-3.417-8.68l0.017-0.954
	c0.067-3.347,1.314-6.187,3.75-8.52c2.437-2.347,5.323-3.487,8.67-3.42l1.434,0.027c3.347,0.067,6.19,1.314,8.533,3.753
	c2.343,2.427,3.48,5.313,3.413,8.66l-0.017,0.954c-0.067,3.347-1.311,6.193-3.746,8.54c-2.437,2.34-5.327,3.487-8.673,3.42
	l-1.434-0.027C196.526,129.246,193.686,127.993,191.343,125.559z"/>
<path style="fill:#602F75;" d="M307.2,395.947h-95.573c-3.77,0-6.827-3.053-6.827-6.827s3.057-6.827,6.827-6.827H307.2
	c3.77,0,6.827,3.053,6.827,6.827S310.97,395.947,307.2,395.947z"/>
<g>
</g>
<g>
</g>
<g>
</g>
<g>
</g>
<g>
</g>
<g>
</g>
<g>
</g>
<g>
</g>
<g>
</g>
<g>
</g>
<g>
</g>
<g>
</g>
<g>
</g>
<g>
</g>
<g>
</g>
</svg>
