<?xml version="1.0" encoding="iso-8859-1"?>
<!-- Generator: Adobe Illustrator 19.0.0, SVG Export Plug-In . SVG Version: 6.00 Build 0)  -->
<svg version="1.1" id="Capa_1" xmlns="http://www.w3.org/2000/svg" xmlns:xlink="http://www.w3.org/1999/xlink" x="0px" y="0px"
	 viewBox="0 0 409.6 409.6" style="enable-background:new 0 0 409.6 409.6;" xml:space="preserve">
<circle style="fill:#FFE600;" cx="170.461" cy="75.093" r="68.267"/>
<path style="fill:#602F75;" d="M170.465,150.187c-41.407,0-75.093-33.686-75.093-75.093S129.058,0,170.465,0
	s75.093,33.686,75.093,75.093S211.872,150.187,170.465,150.187z M170.465,13.653c-33.877,0-61.44,27.559-61.44,61.44
	s27.563,61.44,61.44,61.44s61.44-27.559,61.44-61.44S204.342,13.653,170.465,13.653z"/>
<path style="fill:#FFE600;" d="M221.665,177.493h-102.4c-9.387,0-17.067-7.68-17.067-17.067l0,0c0-9.387,7.68-17.067,17.067-17.067
	h102.4c9.387,0,17.067,7.68,17.067,17.067l0,0C238.732,169.813,231.051,177.493,221.665,177.493z"/>
<path style="fill:#602F75;" d="M221.665,184.32h-102.4c-13.174,0-23.893-10.72-23.893-23.893s10.72-23.893,23.893-23.893h102.4
	c13.174,0,23.893,10.72,23.893,23.893S234.839,184.32,221.665,184.32z M119.265,150.187c-5.647,0-10.24,4.593-10.24,10.24
	s4.593,10.24,10.24,10.24h102.4c5.647,0,10.24-4.593,10.24-10.24s-4.593-10.24-10.24-10.24H119.265z"/>
<path style="fill:#FFE600;" d="M221.665,245.76h-102.4c-9.387,0-17.067-7.68-17.067-17.067l0,0c0-9.387,7.68-17.067,17.067-17.067
	h102.4c9.387,0,17.067,7.68,17.067,17.067l0,0C238.732,238.08,231.051,245.76,221.665,245.76z"/>
<path style="fill:#602F75;" d="M221.665,252.587h-102.4c-13.174,0-23.893-10.72-23.893-23.893s10.72-23.893,23.893-23.893h102.4
	c13.174,0,23.893,10.72,23.893,23.893S234.839,252.587,221.665,252.587z M119.265,218.453c-5.647,0-10.24,4.593-10.24,10.24
	s4.593,10.24,10.24,10.24h102.4c5.647,0,10.24-4.593,10.24-10.24s-4.593-10.24-10.24-10.24H119.265z"/>
<path style="fill:#FFE600;" d="M221.665,211.627h-102.4c-9.387,0-17.067-7.68-17.067-17.067l0,0c0-9.387,7.68-17.067,17.067-17.067
	h102.4c9.387,0,17.067,7.68,17.067,17.067l0,0C238.732,203.947,231.051,211.627,221.665,211.627z"/>
<path style="fill:#602F75;" d="M221.665,218.453h-102.4c-13.174,0-23.893-10.72-23.893-23.893c0-13.174,10.72-23.893,23.893-23.893
	h102.4c13.174,0,23.893,10.72,23.893,23.893C245.558,207.734,234.839,218.453,221.665,218.453z M119.265,184.32
	c-5.647,0-10.24,4.593-10.24,10.24c0,5.647,4.593,10.24,10.24,10.24h102.4c5.647,0,10.24-4.593,10.24-10.24
	c0-5.647-4.593-10.24-10.24-10.24H119.265z"/>
<path style="fill:#EA3457;" d="M166.848,118.033v-10.341c-5.939-0.106-12.083-1.947-15.667-4.507l2.456-6.861
	c3.686,2.454,9.009,4.4,14.744,4.4c7.27,0,12.187-4.2,12.187-10.033c0-5.634-3.994-9.114-11.57-12.187
	c-10.447-4.093-16.896-8.806-16.896-17.713c0-8.499,6.043-14.947,15.464-16.486V33.963h6.347v9.933
	c6.144,0.2,10.344,1.84,13.314,3.581l-2.56,6.76c-2.15-1.227-6.35-3.48-12.904-3.48c-7.883,0-10.853,4.707-10.853,8.806
	c0,5.32,3.791,7.987,12.696,11.674c10.547,4.301,15.874,9.62,15.874,18.734c0,8.093-5.634,15.667-16.179,17.413v10.646h-6.453
	V118.033z"/>
<path style="fill:#FFFFFF;" d="M88.444,286.266c-8.612,5.175-11.436,16.288-6.226,24.96l31.462,52.362
	c3.325,5.531,10.503,7.322,16.034,3.997l21.171-12.721l-37.48-62.379C108.233,283.877,97.117,281.056,88.444,286.266z"/>
<path style="fill:#602F75;" d="M123.731,376.093c-1.504,0-3.017-0.186-4.514-0.56c-4.797-1.2-8.844-4.193-11.39-8.433L76.366,314.74
	c-3.459-5.753-4.466-12.486-2.843-18.966c1.623-6.46,5.673-11.913,11.407-15.36c11.817-7.086,27.216-3.267,34.326,8.554
	l40.996,68.233l-27.023,16.241C130.315,375.194,127.047,376.093,123.731,376.093z M97.795,290.5c-1.99,0-4.007,0.521-5.833,1.62
	h-0.003c-2.609,1.567-4.453,4.047-5.19,6.973c-0.737,2.934-0.273,5.994,1.304,8.62l31.461,52.361c0.671,1.113,1.734,1.9,2.993,2.214
	c1.234,0.321,2.557,0.106,3.669-0.546l15.326-9.207l-33.966-56.533C105.429,292.46,101.655,290.5,97.795,290.5z"/>
<path style="fill:#FFFFFF;" d="M324.365,308.523l-76.153-0.172c0,0-97.492-53.857-112.02-35.847s38.828,43.749,38.828,43.749
	l-21.263,13.385l-69.939,1.268L53.147,314.72c-8.888-4.69-19.971-1.244-24.656,7.516l0.766-1.434
	c-4.729,8.842-1.405,19.86,7.494,24.649l43.279,23.287l78.73,10.406c0,0,23.091,14.988,117.593,1.447"/>
<path style="fill:#602F75;" d="M207.302,393.1c-32.304,0-46.16-5.113-50.686-7.359l-77.479-10.24
	c-0.819-0.106-1.613-0.367-2.34-0.753l-43.279-23.287c-11.15-6.001-15.954-19.267-11.674-30.787c0.133-0.567,0.34-1.12,0.626-1.661
	l0.766-1.434l0,0c0.287-0.539,0.637-1.021,1.033-1.447c7.211-9.94,20.91-13.346,32.063-7.453l29.117,15.367l66.28-1.207l9.68-6.086
	c-12.563-7.233-31.049-19.934-34.091-33.454c-1.231-5.46,0.003-10.673,3.56-15.087c16.087-19.953,87.436,15.927,119.096,33.314
	l74.407,0.167c3.77,0.007,6.82,3.074,6.81,6.84c-0.01,3.767-3.063,6.813-6.827,6.813c-0.007,0-0.01,0-0.017,0l-76.153-0.174
	c-1.147,0-2.277-0.294-3.284-0.853c-65.877-36.379-100.207-41.527-103.407-37.533c-0.934,1.154-1.176,2.14-0.867,3.514
	c2.039,9.093,23.071,22.907,37.35,29.807c2.234,1.08,3.707,3.287,3.843,5.767c0.14,2.48-1.077,4.833-3.176,6.159l-21.263,13.38
	c-1.053,0.66-2.266,1.021-3.514,1.046l-69.939,1.273c-1.224,0-2.29-0.259-3.309-0.787l-30.671-16.186
	c-5.32-2.819-11.89-1.007-15.043,3.994c-2.4,5.379-0.237,11.827,5.067,14.681l42.18,22.694l77.489,10.247
	c1.007,0.133,1.973,0.486,2.823,1.039c0.087,0.039,24.003,13.153,112.91,0.42c3.724-0.514,7.19,2.06,7.723,5.794
	c0.536,3.734-2.057,7.187-5.791,7.726C247.632,391.607,224.768,393.1,207.302,393.1z"/>
<rect x="321.075" y="286.601" style="fill:#00E7FF;" width="61.402" height="116.173"/>
<path style="fill:#602F75;" d="M382.481,409.6h-61.404c-3.77,0-6.827-3.053-6.827-6.827V286.601c0-3.773,3.057-6.827,6.827-6.827
	h61.404c3.77,0,6.827,3.053,6.827,6.827v116.173C389.307,406.547,386.251,409.6,382.481,409.6z M327.905,395.947h47.751v-102.52
	h-47.751V395.947z"/>
<g>
</g>
<g>
</g>
<g>
</g>
<g>
</g>
<g>
</g>
<g>
</g>
<g>
</g>
<g>
</g>
<g>
</g>
<g>
</g>
<g>
</g>
<g>
</g>
<g>
</g>
<g>
</g>
<g>
</g>
</svg>
