<?xml version="1.0" encoding="iso-8859-1"?>
<!-- Generator: Adobe Illustrator 19.0.0, SVG Export Plug-In . SVG Version: 6.00 Build 0)  -->
<svg version="1.1" id="Capa_1" xmlns="http://www.w3.org/2000/svg" xmlns:xlink="http://www.w3.org/1999/xlink" x="0px" y="0px"
	 viewBox="0 0 425.215 425.215" style="enable-background:new 0 0 425.215 425.215;" xml:space="preserve">
<path style="fill:#00E7FF;" d="M394.661,311.594c10.793,0,19.97-6.987,22.84-17.393c2.871-10.4-1.427-21.106-10.694-26.639
	L226.261,159.767v-21.18c15.892-5.634,27.307-20.82,27.307-38.62c0-22.586-18.374-40.96-40.96-40.96s-40.96,18.374-40.96,40.96
	c0,7.54,6.113,13.653,13.653,13.653s13.653-6.113,13.653-13.653c0-7.526,6.124-13.653,13.653-13.653s13.653,6.127,13.653,13.653
	c0,7.526-6.124,13.653-13.653,13.653c-7.54,0-13.653,6.113-13.653,13.653v32.493L18.407,267.56
	C9.14,273.093,4.845,283.801,7.713,294.2c2.871,10.407,12.047,17.394,22.84,17.394h318.775 M55.367,277.293l157.24-93.879
	l157.24,93.88c3.28,1.959,1.891,6.994-1.929,6.994H57.296C53.476,284.287,52.087,279.253,55.367,277.293z"/>
<path style="fill:#602F75;" d="M394.661,318.421c-3.77,0-6.827-3.053-6.827-6.827s3.057-6.827,6.827-6.827
	c7.683,0,14.217-4.973,16.259-12.38s-1.017-15.027-7.613-18.966L222.76,165.628c-2.063-1.234-3.326-3.459-3.326-5.861v-21.18
	c0-2.893,1.819-5.466,4.547-6.434c13.614-4.826,22.76-17.76,22.76-32.186c0-18.819-15.314-34.133-34.133-34.133
	s-34.133,15.314-34.133,34.133c0,3.767,3.063,6.827,6.827,6.827s6.827-3.06,6.827-6.827c0-11.293,9.187-20.48,20.48-20.48
	c11.293,0,20.48,9.187,20.48,20.48s-9.187,20.48-20.48,20.48c-3.763,0-6.827,3.06-6.827,6.827v32.493c0,2.4-1.263,4.627-3.326,5.861
	L21.908,273.421c-6.596,3.941-9.656,11.559-7.613,18.966s8.576,12.38,16.259,12.38h318.773c3.77,0,6.827,3.053,6.827,6.827
	s-3.057,6.827-6.827,6.827H30.554c-13.903,0-25.726-9.006-29.42-22.407c-3.697-13.394,1.836-27.187,13.773-34.313l177.22-105.807
	v-28.621c0-3.161,0.72-6.153,2.004-8.827c-2.678,1.28-5.67,2-8.83,2c-11.293,0-20.48-9.187-20.48-20.48
	c0-26.348,21.437-47.787,47.787-47.787s47.787,21.439,47.787,47.787c0,18.546-10.793,35.326-27.307,43.174v12.754l177.22,105.807
	c11.936,7.127,17.469,20.92,13.773,34.313C420.387,309.415,408.563,318.421,394.661,318.421z M212.607,93.141
	c-3.763,0-6.827,3.06-6.827,6.827c0,3.161-0.72,6.153-2.004,8.827c2.678-1.28,5.67-2,8.83-2c3.763,0,6.827-3.06,6.827-6.827
	C219.434,96.201,216.371,93.141,212.607,93.141z M367.917,291.114H57.297c-4.823,0-8.926-3.12-10.209-7.774
	c-1.283-4.647,0.637-9.433,4.777-11.907c0.003,0,0.003,0,0.003,0l157.24-93.88c2.154-1.294,4.847-1.294,7.001,0l157.24,93.88
	c4.144,2.473,6.064,7.26,4.78,11.907C376.843,287.994,372.74,291.114,367.917,291.114z M58.871,283.154L58.871,283.154h-0.003
	H58.871z M68.404,277.461H356.81l-144.203-86.093L68.404,277.461z"/>
<g>
	<circle style="fill:#EA3457;" cx="82.901" cy="140.927" r="27.307"/>
	<path style="fill:#EA3457;" d="M82.901,175.061c-18.819,0-34.133-15.314-34.133-34.133s15.314-34.133,34.133-34.133
		s34.133,15.314,34.133,34.133S101.72,175.061,82.901,175.061z M82.901,120.447c-11.293,0-20.48,9.187-20.48,20.48
		s9.187,20.48,20.48,20.48s20.48-9.187,20.48-20.48S94.194,120.447,82.901,120.447z"/>
</g>
<g>
	<circle style="fill:#FFE600;" cx="280.874" cy="366.207" r="27.307"/>
	<path style="fill:#FFE600;" d="M280.874,400.341c-18.819,0-34.133-15.314-34.133-34.133s15.314-34.133,34.133-34.133
		s34.133,15.314,34.133,34.133S299.693,400.341,280.874,400.341z M280.874,345.727c-11.293,0-20.48,9.187-20.48,20.48
		s9.187,20.48,20.48,20.48c11.293,0,20.48-9.187,20.48-20.48S292.167,345.727,280.874,345.727z"/>
</g>
<g>
	<circle style="fill:#00E7FF;" cx="335.487" cy="59.007" r="27.307"/>
	<path style="fill:#00E7FF;" d="M335.487,93.141c-18.819,0-34.133-15.314-34.133-34.133s15.314-34.133,34.133-34.133
		s34.133,15.314,34.133,34.133S354.307,93.141,335.487,93.141z M335.487,38.527c-11.293,0-20.48,9.187-20.48,20.48
		s9.187,20.48,20.48,20.48c11.293,0,20.48-9.187,20.48-20.48S346.78,38.527,335.487,38.527z"/>
</g>
<g>
</g>
<g>
</g>
<g>
</g>
<g>
</g>
<g>
</g>
<g>
</g>
<g>
</g>
<g>
</g>
<g>
</g>
<g>
</g>
<g>
</g>
<g>
</g>
<g>
</g>
<g>
</g>
<g>
</g>
</svg>
