<?xml version="1.0" encoding="iso-8859-1"?>
<!-- Generator: Adobe Illustrator 19.0.0, SVG Export Plug-In . SVG Version: 6.00 Build 0)  -->
<svg version="1.1" id="Capa_1" xmlns="http://www.w3.org/2000/svg" xmlns:xlink="http://www.w3.org/1999/xlink" x="0px" y="0px"
	 viewBox="0 0 425.215 425.215" style="enable-background:new 0 0 425.215 425.215;" xml:space="preserve">
<g>
	<circle style="fill:#FFE600;" cx="89.727" cy="106.794" r="27.307"/>
	<path style="fill:#FFE600;" d="M89.727,140.927c-18.819,0-34.133-15.314-34.133-34.133s15.314-34.133,34.133-34.133
		s34.133,15.314,34.133,34.133S108.547,140.927,89.727,140.927z M89.727,86.314c-11.293,0-20.48,9.187-20.48,20.48
		s9.187,20.48,20.48,20.48s20.48-9.187,20.48-20.48S101.02,86.314,89.727,86.314z"/>
</g>
<path style="fill:#00E7FF;" d="M364.999,277.461h29.662c10.793,0,19.97-6.987,22.84-17.393c2.871-10.4-1.427-21.106-10.694-26.639
	L226.261,125.634v-21.18c15.892-5.634,27.307-20.82,27.307-38.62c0-22.586-18.374-40.96-40.96-40.96s-40.96,18.374-40.96,40.96
	c0,7.54,6.113,13.653,13.653,13.653s13.653-6.113,13.653-13.653c0-7.526,6.124-13.653,13.653-13.653s13.653,6.127,13.653,13.653
	c0,7.526-6.124,13.653-13.653,13.653c-7.54,0-13.653,6.113-13.653,13.653v32.493L18.407,233.427
	C9.14,238.96,4.845,249.668,7.713,260.066c2.871,10.407,12.047,17.394,22.84,17.394h287.193 M50.578,246.02l162.029-96.739
	l162.029,96.739c1.939,1.157,1.118,4.134-1.14,4.134H51.718C49.46,250.154,48.639,247.178,50.578,246.02z"/>
<path style="fill:#602F75;" d="M394.661,284.287h-29.66c-3.77,0-6.827-3.053-6.827-6.827s3.057-6.827,6.827-6.827h29.66
	c7.683,0,14.217-4.973,16.259-12.38s-1.017-15.027-7.613-18.966L222.76,131.495c-2.063-1.234-3.326-3.459-3.326-5.861v-21.18
	c0-2.893,1.819-5.466,4.547-6.434c13.614-4.826,22.76-17.76,22.76-32.186c0-18.819-15.314-34.133-34.133-34.133
	s-34.133,15.314-34.133,34.133c0,3.767,3.063,6.827,6.827,6.827s6.827-3.06,6.827-6.827c0-11.293,9.187-20.48,20.48-20.48
	c11.293,0,20.48,9.187,20.48,20.48c0,11.293-9.187,20.48-20.48,20.48c-3.763,0-6.827,3.06-6.827,6.827v32.493
	c0,2.4-1.263,4.627-3.326,5.861L21.908,239.288c-6.596,3.941-9.656,11.559-7.613,18.966s8.576,12.38,16.259,12.38h287.193
	c3.77,0,6.827,3.053,6.827,6.827s-3.057,6.827-6.827,6.827H30.554c-13.903,0-25.726-9.006-29.42-22.407
	c-3.697-13.394,1.836-27.187,13.773-34.313l177.22-105.807V93.141c0-3.161,0.72-6.153,2.004-8.827c-2.678,1.28-5.67,2-8.83,2
	c-11.293,0-20.48-9.187-20.48-20.48c0-26.348,21.437-47.787,47.787-47.787s47.787,21.439,47.787,47.787
	c0,18.546-10.793,35.326-27.307,43.174v12.754l177.22,105.806c11.936,7.127,17.469,20.92,13.773,34.313
	C420.387,275.281,408.563,284.287,394.661,284.287z M212.607,59.007c-3.763,0-6.827,3.06-6.827,6.827
	c0,3.161-0.72,6.153-2.004,8.827c2.678-1.28,5.67-2,8.83-2c3.763,0,6.827-3.06,6.827-6.827
	C219.434,62.067,216.371,59.007,212.607,59.007z M373.496,256.981H51.718c-4.12,0-7.624-2.666-8.723-6.641
	c-1.097-3.966,0.539-8.061,4.077-10.173c0-0.007,0.003-0.007,0.007-0.007l162.029-96.741c2.154-1.294,4.847-1.294,7.001,0
	l162.029,96.741c3.543,2.12,5.18,6.214,4.084,10.18C381.12,254.315,377.618,256.981,373.496,256.981z M68.404,243.327H356.81
	l-144.203-86.093L68.404,243.327z"/>
<path style="fill:#FFFFFF;" d="M304.375,400.341H120.84c-13.413,0-24.286-10.873-24.286-24.286V250.154h232.107v125.901
	C328.661,389.467,317.787,400.341,304.375,400.341z"/>
<g>
	<path style="fill:#602F75;" d="M304.375,407.167H120.84c-17.155,0-31.113-13.961-31.113-31.113V243.327h245.76v132.727
		C335.487,393.207,321.53,407.167,304.375,407.167z M103.381,256.981v119.074c0,9.626,7.834,17.459,17.459,17.459h183.535
		c9.627,0,17.459-7.834,17.459-17.459V256.981H103.381z"/>
	<rect x="117.034" y="277.461" style="fill:#602F75;" width="13.653" height="61.44"/>
</g>
<rect x="233.087" y="256.981" style="fill:#EA3457;" width="61.44" height="136.533"/>
<g>
</g>
<g>
</g>
<g>
</g>
<g>
</g>
<g>
</g>
<g>
</g>
<g>
</g>
<g>
</g>
<g>
</g>
<g>
</g>
<g>
</g>
<g>
</g>
<g>
</g>
<g>
</g>
<g>
</g>
</svg>
