<?xml version="1.0" encoding="iso-8859-1"?>
<!-- Generator: Adobe Illustrator 19.0.0, SVG Export Plug-In . SVG Version: 6.00 Build 0)  -->
<svg version="1.1" id="Capa_1" xmlns="http://www.w3.org/2000/svg" xmlns:xlink="http://www.w3.org/1999/xlink" x="0px" y="0px"
	 viewBox="0 0 423.253 423.253" style="enable-background:new 0 0 423.253 423.253;" xml:space="preserve">
<polyline style="fill:#FFFFFF;" points="368.213,307.198 361.813,348.16 61.44,348.16 27.307,129.707 395.947,129.707 
	378.167,243.497 "/>
<path style="fill:#602F75;" d="M361.813,354.987H61.44c-3.367,0-6.226-2.447-6.746-5.774L20.56,130.76
	c-0.307-1.973,0.259-3.98,1.56-5.494c1.3-1.514,3.193-2.386,5.187-2.386h368.64c1.993,0,3.886,0.874,5.187,2.386
	c1.3,1.512,1.867,3.519,1.56,5.494l-17.78,113.794c-0.58,3.721-4.081,6.281-7.799,5.693c-3.727-0.587-6.274-4.074-5.693-7.799
	l16.553-105.914H35.28l32,204.8h288.693l5.494-35.186c0.58-3.721,4.087-6.24,7.799-5.693c3.727,0.587,6.274,4.074,5.693,7.799
	l-6.4,40.96C368.039,352.539,365.181,354.987,361.813,354.987z"/>
<g>
	<path style="fill:#EAEAEA;" d="M341.333,314.027c-3.773,0-6.827-3.053-6.827-6.827V170.667h-20.48V307.2
		c0,3.773-3.053,6.827-6.827,6.827s-6.827-3.053-6.827-6.827V163.84c0-3.773,3.053-6.827,6.827-6.827h34.133
		c3.773,0,6.827,3.053,6.827,6.827V307.2C348.16,310.973,345.107,314.027,341.333,314.027z"/>
	<path style="fill:#EAEAEA;" d="M266.24,314.027c-3.773,0-6.827-3.053-6.827-6.827V170.667h-20.48V307.2
		c0,3.773-3.053,6.827-6.827,6.827s-6.827-3.053-6.827-6.827V163.84c0-3.773,3.053-6.827,6.827-6.827h34.133
		c3.773,0,6.827,3.053,6.827,6.827V307.2C273.067,310.973,270.013,314.027,266.24,314.027z"/>
	<path style="fill:#EAEAEA;" d="M191.147,314.027c-3.773,0-6.827-3.053-6.827-6.827V170.667h-20.48V307.2
		c0,3.773-3.053,6.827-6.827,6.827s-6.827-3.053-6.827-6.827V163.84c0-3.773,3.053-6.827,6.827-6.827h34.133
		c3.773,0,6.827,3.053,6.827,6.827V307.2C197.973,310.973,194.92,314.027,191.147,314.027z"/>
	<path style="fill:#EAEAEA;" d="M116.053,314.027c-3.773,0-6.827-3.053-6.827-6.827V170.667h-20.48V307.2
		c0,3.773-3.053,6.827-6.827,6.827c-3.773,0-6.827-3.053-6.827-6.827V163.84c0-3.773,3.053-6.827,6.827-6.827h34.133
		c3.773,0,6.827,3.053,6.827,6.827V307.2C122.88,310.973,119.827,314.027,116.053,314.027z"/>
</g>
<rect x="6.827" y="95.573" style="fill:#00E7FF;" width="409.6" height="34.133"/>
<path style="fill:#602F75;" d="M416.427,136.533H6.827c-3.773,0-6.827-3.053-6.827-6.827V95.573c0-3.773,3.053-6.827,6.827-6.827
	h409.6c3.773,0,6.827,3.053,6.827,6.827v34.133C423.253,133.48,420.2,136.533,416.427,136.533z M13.653,122.88H409.6V102.4H13.653
	V122.88z"/>
<rect x="191.147" y="13.653" style="fill:#EAEAEA;" width="40.96" height="116.053"/>
<path style="fill:#602F75;" d="M232.107,136.533h-40.96c-3.773,0-6.827-3.053-6.827-6.827V13.653c0-3.773,3.053-6.827,6.827-6.827
	h40.96c3.773,0,6.827,3.053,6.827,6.827v116.053C238.933,133.48,235.88,136.533,232.107,136.533z M197.973,122.88h27.307V20.48
	h-27.307V122.88z"/>
<g>
	<circle style="fill:#EA3457;" cx="348.16" cy="341.333" r="68.267"/>
	<path style="fill:#EA3457;" d="M348.16,416.427c-41.407,0-75.093-33.686-75.093-75.093s33.686-75.093,75.093-75.093
		s75.093,33.686,75.093,75.093S389.567,416.427,348.16,416.427z M348.16,279.893c-33.881,0-61.44,27.559-61.44,61.44
		s27.559,61.44,61.44,61.44s61.44-27.559,61.44-61.44S382.041,279.893,348.16,279.893z"/>
</g>
<rect x="307.2" y="334.507" style="fill:#FFE600;" width="81.92" height="13.653"/>
<g>
</g>
<g>
</g>
<g>
</g>
<g>
</g>
<g>
</g>
<g>
</g>
<g>
</g>
<g>
</g>
<g>
</g>
<g>
</g>
<g>
</g>
<g>
</g>
<g>
</g>
<g>
</g>
<g>
</g>
</svg>
