<?xml version="1.0" encoding="iso-8859-1"?>
<!-- Generator: Adobe Illustrator 19.0.0, SVG Export Plug-In . SVG Version: 6.00 Build 0)  -->
<svg version="1.1" id="Capa_1" xmlns="http://www.w3.org/2000/svg" xmlns:xlink="http://www.w3.org/1999/xlink" x="0px" y="0px"
	 viewBox="0 0 382.293 382.293" style="enable-background:new 0 0 382.293 382.293;" xml:space="preserve">
<g>
	<circle style="fill:#00E7FF;" cx="163.636" cy="201.387" r="126.293"/>
	<path style="fill:#00E7FF;" d="M163.644,334.507c-73.4,0-133.12-59.72-133.12-133.12s59.72-133.12,133.12-133.12
		s133.12,59.72,133.12,133.12S237.045,334.507,163.644,334.507z M163.644,81.92c-65.874,0-119.467,53.593-119.467,119.467
		S97.77,320.853,163.644,320.853s119.467-53.593,119.467-119.467S229.518,81.92,163.644,81.92z"/>
</g>
<path style="fill:#FFFFFF;" d="M78.212,258.959c-8.612,5.175-11.436,16.288-6.226,24.96l31.462,52.362
	c3.325,5.531,10.503,7.322,16.034,3.997l21.171-12.721l-37.48-62.379C97.999,256.57,86.883,253.749,78.212,258.959z"/>
<path style="fill:#602F75;" d="M113.499,348.786c-1.5,0-3.014-0.186-4.514-0.56c-4.799-1.2-8.841-4.193-11.394-8.428L66.13,287.432
	c-7.1-11.827-3.26-27.22,8.561-34.326l0,0c11.853-7.086,27.226-3.26,34.333,8.554l40.994,68.233l-27.02,16.241
	C120.085,347.887,116.818,348.786,113.499,348.786z M87.564,263.187c-1.993,0-4.007,0.527-5.833,1.626h-0.007
	c-5.367,3.227-7.113,10.22-3.886,15.594l31.461,52.361c1.386,2.301,4.379,3.046,6.666,1.661l15.321-9.201L97.32,268.694
	C95.191,265.153,91.425,263.187,87.564,263.187z"/>
<path style="fill:#FFFFFF;" d="M314.131,281.216l-76.153-0.172c0,0-97.492-53.857-112.02-35.847s38.828,43.749,38.828,43.749
	l-21.263,13.385l-69.939,1.268l-30.671-16.186c-8.888-4.69-19.971-1.244-24.656,7.516l0.766-1.434
	c-4.729,8.842-1.405,19.86,7.494,24.649l43.279,23.287l78.73,10.406c0,0,24.098,15.643,123.814,0.531"/>
<path style="fill:#602F75;" d="M197.045,365.8c-32.294,0-46.133-5.113-50.668-7.366l-77.474-10.24
	c-0.819-0.106-1.613-0.367-2.34-0.753l-43.279-23.287c-11.153-6.001-15.961-19.273-11.674-30.793c0.133-0.56,0.34-1.113,0.626-1.654
	l0,0l0.741-1.386c0.007-0.014,0.02-0.034,0.027-0.046c0.287-0.532,0.633-1.014,1.027-1.44c7.194-9.953,20.886-13.38,32.067-7.453
	l29.119,15.36l66.28-1.207l9.68-6.086c-12.566-7.233-31.053-19.941-34.094-33.454c-1.227-5.46,0-10.673,3.56-15.087
	c16.073-19.953,87.439,15.927,119.093,33.314l74.407,0.167c3.773,0.007,6.82,3.074,6.813,6.84c-0.007,3.767-3.067,6.813-6.827,6.813
	c-0.007,0-0.014,0-0.014,0l-76.153-0.174c-1.154,0-2.28-0.294-3.287-0.853c-65.874-36.379-100.221-41.513-103.407-37.533
	c-0.934,1.154-1.174,2.14-0.867,3.514c2.039,9.093,23.074,22.907,37.347,29.807c2.234,1.08,3.707,3.287,3.847,5.767
	c0.14,2.48-1.073,4.833-3.18,6.159l-21.26,13.38c-1.053,0.66-2.266,1.021-3.507,1.046l-69.939,1.273
	c-1.36,0-2.301-0.253-3.313-0.787l-30.674-16.186c-5.327-2.807-11.894-1.007-15.039,3.987c-2.406,5.379-0.241,11.834,5.067,14.686
	l42.18,22.694l77.486,10.247c1.007,0.133,1.973,0.486,2.826,1.039c0.094,0.046,25.107,13.754,119.074-0.486
	c3.714-0.594,7.207,1.993,7.767,5.726c0.567,3.727-1.993,7.207-5.726,7.767C240.579,364.087,215.725,365.8,197.045,365.8z"/>
<rect x="310.853" y="259.294" style="fill:#EA3457;" width="61.402" height="116.173"/>
<path style="fill:#602F75;" d="M372.252,382.293h-61.406c-3.773,0-6.827-3.053-6.827-6.827V259.294c0-3.773,3.053-6.827,6.827-6.827
	h61.406c3.773,0,6.827,3.053,6.827,6.827v116.173C379.078,379.24,376.025,382.293,372.252,382.293z M317.671,368.64h47.753v-102.52
	h-47.753V368.64z"/>
<polygon style="fill:#FFE600;" points="113.204,221.867 216.363,47.787 10.044,47.787 "/>
<path style="fill:#602F75;" d="M113.205,228.693c-2.413,0-4.647-1.273-5.873-3.347L4.173,51.267
	c-1.253-2.106-1.273-4.727-0.06-6.861s3.478-3.446,5.931-3.446h206.321c2.454,0,4.721,1.314,5.934,3.447
	c1.213,2.133,1.193,4.753-0.06,6.861L119.08,225.348C117.851,227.42,115.619,228.693,113.205,228.693z M22.025,54.613l91.18,153.859
	l91.18-153.859H22.025z"/>
<polygon style="fill:#FFFFFF;" points="214.844,47.787 10.044,47.787 31.231,6.827 193.659,6.827 "/>
<g>
	<path style="fill:#602F75;" d="M214.844,54.613h-204.8c-2.381,0-4.593-1.241-5.833-3.28c-1.241-2.033-1.326-4.567-0.234-6.68
		l21.187-40.96C26.338,1.427,28.678,0,31.232,0h162.427c2.553,0,4.893,1.427,6.067,3.693l21.187,40.96
		c1.094,2.113,1.007,4.647-0.234,6.68C219.439,53.373,217.225,54.613,214.844,54.613z M21.266,40.96h182.361l-14.119-27.307H35.385
		L21.266,40.96z"/>
	<path style="fill:#602F75;" d="M112.444,225.28c-3.773,0-6.827-3.053-6.827-6.827V122.88c0-3.773,3.053-6.827,6.827-6.827
		s6.827,3.053,6.827,6.827v95.573C119.271,222.227,116.218,225.28,112.444,225.28z"/>
</g>
<circle style="fill:#FFFFFF;" cx="337.716" cy="341.333" r="6.827"/>
<path style="fill:#602F75;" d="M337.724,354.987c-7.526,0-13.653-6.127-13.653-13.653s6.127-13.653,13.653-13.653
	s13.653,6.127,13.653,13.653S345.252,354.987,337.724,354.987z M337.724,341.32v0.014V341.32z"/>
<g>
</g>
<g>
</g>
<g>
</g>
<g>
</g>
<g>
</g>
<g>
</g>
<g>
</g>
<g>
</g>
<g>
</g>
<g>
</g>
<g>
</g>
<g>
</g>
<g>
</g>
<g>
</g>
<g>
</g>
</svg>
