<?xml version="1.0" encoding="iso-8859-1"?>
<!-- Generator: Adobe Illustrator 19.0.0, SVG Export Plug-In . SVG Version: 6.00 Build 0)  -->
<svg version="1.1" id="Capa_1" xmlns="http://www.w3.org/2000/svg" xmlns:xlink="http://www.w3.org/1999/xlink" x="0px" y="0px"
	 viewBox="0 0 375.859 375.859" style="enable-background:new 0 0 375.859 375.859;" xml:space="preserve">
<path style="fill:#FFFFFF;" d="M74.993,248.916c-8.612,5.175-11.436,16.288-6.226,24.96l31.462,52.362
	c3.325,5.531,10.503,7.322,16.034,3.997l21.171-12.721l-37.48-62.379C94.781,246.526,83.666,243.705,74.993,248.916z"/>
<path style="fill:#602F75;" d="M110.28,338.743c-1.5,0-3.014-0.186-4.514-0.56c-4.799-1.2-8.841-4.193-11.394-8.428l-31.461-52.367
	c-7.1-11.827-3.26-27.22,8.561-34.326l0,0c11.846-7.086,27.226-3.26,34.333,8.554l40.994,68.233l-27.02,16.241
	C116.866,337.843,113.599,338.743,110.28,338.743z M84.347,253.143c-1.993,0-4.007,0.527-5.833,1.626h-0.007
	c-5.367,3.227-7.113,10.22-3.886,15.594l31.461,52.361c1.386,2.301,4.386,3.046,6.666,1.661l15.321-9.201L94.102,258.65
	C91.972,255.109,88.206,253.143,84.347,253.143z"/>
<path style="fill:#FFFFFF;" d="M310.914,271.172L234.761,271c0,0-97.492-53.857-112.02-35.847s38.828,43.749,38.828,43.749
	l-21.263,13.385l-69.939,1.268l-30.671-16.186c-8.888-4.69-19.971-1.244-24.656,7.516l0.766-1.434
	c-4.729,8.842-1.405,19.86,7.494,24.649l43.279,23.287l78.73,10.406c0,0,24.479,15.889,126.181,0.167"/>
<path style="fill:#602F75;" d="M193.826,355.756c-32.294,0-46.133-5.113-50.668-7.366l-77.474-10.24
	c-0.819-0.106-1.613-0.367-2.34-0.753L20.065,314.11C8.912,308.11,4.105,294.837,8.392,283.317c0.133-0.56,0.34-1.113,0.626-1.654
	l0,0l0.741-1.386c0.007-0.014,0.02-0.034,0.027-0.046c0.287-0.532,0.633-1.014,1.027-1.44c7.187-9.953,20.886-13.38,32.067-7.453
	l29.119,15.36l66.28-1.207l9.68-6.086c-12.566-7.233-31.053-19.941-34.094-33.454c-1.227-5.46,0-10.673,3.56-15.087
	c16.08-19.953,87.439,15.927,119.093,33.314l74.407,0.167c3.773,0.007,6.82,3.074,6.813,6.84c-0.007,3.767-3.067,6.813-6.827,6.813
	c-0.007,0-0.014,0-0.014,0l-76.153-0.174c-1.154,0-2.28-0.294-3.287-0.853c-65.874-36.379-100.221-41.513-103.407-37.533
	c-0.934,1.154-1.174,2.14-0.867,3.514c2.039,9.093,23.074,22.907,37.347,29.807c2.234,1.08,3.707,3.287,3.847,5.767
	s-1.073,4.833-3.18,6.159l-21.26,13.38c-1.053,0.66-2.266,1.021-3.507,1.046l-69.939,1.273c-1.333,0-2.301-0.253-3.313-0.787
	l-30.674-16.186c-5.327-2.807-11.887-1.007-15.039,3.987c-2.406,5.379-0.241,11.834,5.067,14.686l42.18,22.694l77.486,10.247
	c1.007,0.133,1.973,0.486,2.826,1.039c0.094,0.053,25.547,13.979,121.421-0.846c3.727-0.546,7.214,1.98,7.786,5.707
	c0.573,3.721-1.98,7.214-5.707,7.786C238.56,353.963,212.953,355.756,193.826,355.756z"/>
<rect x="307.635" y="249.25" style="fill:#00E7FF;" width="61.402" height="116.173"/>
<path style="fill:#602F75;" d="M369.033,372.25h-61.406c-3.773,0-6.827-3.053-6.827-6.827V249.25c0-3.773,3.053-6.827,6.827-6.827
	h61.406c3.773,0,6.827,3.053,6.827,6.827v116.173C375.859,369.196,372.806,372.25,369.033,372.25z M314.453,358.596h47.753V256.077
	h-47.753V358.596z"/>
<g>
	<circle style="fill:#FFE600;" cx="102.409" cy="106.01" r="95.573"/>
	<path style="fill:#FFE600;" d="M102.4,208.41C45.933,208.41,0,162.476,0,106.01S45.933,3.61,102.4,3.61s102.4,45.933,102.4,102.4
		S158.867,208.41,102.4,208.41z M102.4,17.263c-48.934,0-88.747,39.813-88.747,88.747s39.813,88.747,88.747,88.747
		s88.747-39.813,88.747-88.747S151.334,17.263,102.4,17.263z"/>
</g>
<circle style="fill:#EA3457;" cx="102.409" cy="106.01" r="68.267"/>
<path style="fill:#602F75;" d="M102.4,181.103c-41.407,0-75.093-33.686-75.093-75.093S60.993,30.916,102.4,30.916
	s75.093,33.686,75.093,75.093S143.805,181.103,102.4,181.103z M102.4,44.57c-33.881,0-61.44,27.559-61.44,61.44
	s27.559,61.44,61.44,61.44s61.44-27.559,61.44-61.44S136.279,44.57,102.4,44.57z"/>
<path style="fill:#FFFFFF;" d="M98.784,148.949v-10.341c-5.939-0.106-12.083-1.947-15.667-4.507l2.456-6.861
	c3.686,2.454,9.009,4.4,14.744,4.4c7.27,0,12.187-4.2,12.187-10.033c0-5.634-3.994-9.114-11.569-12.187
	c-10.447-4.093-16.896-8.806-16.896-17.713c0-8.499,6.043-14.947,15.464-16.486V64.879h6.347v9.933
	c6.144,0.2,10.344,1.84,13.314,3.581l-2.56,6.76c-2.15-1.227-6.351-3.48-12.904-3.48c-7.883,0-10.853,4.707-10.853,8.806
	c0,5.32,3.791,7.987,12.696,11.674c10.547,4.301,15.874,9.62,15.874,18.734c0,8.093-5.634,15.667-16.179,17.413v10.646h-6.453
	V148.949z"/>
<g>
	<rect x="95.582" y="37.743" style="fill:#602F75;" width="13.653" height="13.653"/>
	<rect x="95.582" y="160.623" style="fill:#602F75;" width="13.653" height="13.653"/>
	<rect x="34.133" y="99.183" style="fill:#602F75;" width="20.48" height="13.653"/>
	<rect x="150.195" y="99.183" style="fill:#602F75;" width="20.48" height="13.653"/>
</g>
<circle style="fill:#FFFFFF;" cx="334.498" cy="338.116" r="6.827"/>
<path style="fill:#602F75;" d="M334.507,351.77c-7.526,0-13.653-6.127-13.653-13.653c0-7.526,6.127-13.653,13.653-13.653
	c7.526,0,13.653,6.127,13.653,13.653C348.16,345.643,342.033,351.77,334.507,351.77z M334.507,338.103v0.014V338.103z"/>
<g>
</g>
<g>
</g>
<g>
</g>
<g>
</g>
<g>
</g>
<g>
</g>
<g>
</g>
<g>
</g>
<g>
</g>
<g>
</g>
<g>
</g>
<g>
</g>
<g>
</g>
<g>
</g>
<g>
</g>
</svg>
