<?xml version="1.0" encoding="iso-8859-1"?>
<!-- Generator: Adobe Illustrator 19.0.0, SVG Export Plug-In . SVG Version: 6.00 Build 0)  -->
<svg version="1.1" id="Capa_1" xmlns="http://www.w3.org/2000/svg" xmlns:xlink="http://www.w3.org/1999/xlink" x="0px" y="0px"
	 viewBox="0 0 430.199 430.199" style="enable-background:new 0 0 430.199 430.199;" xml:space="preserve">
<g>
	<circle style="fill:#00E7FF;" cx="238.942" cy="218.564" r="143.36"/>
	<path style="fill:#00E7FF;" d="M238.933,368.759c-82.813,0-150.187-67.374-150.187-150.187S156.121,68.386,238.933,68.386
		S389.12,135.76,389.12,218.573S321.746,368.759,238.933,368.759z M238.933,82.039c-75.286,0-136.533,61.247-136.533,136.533
		s61.247,136.533,136.533,136.533s136.533-61.247,136.533-136.533S314.22,82.039,238.933,82.039z"/>
</g>
<path style="fill:#FFFFFF;" d="M245.658,218.573h-41.723c-7.062,0-12.786-5.724-12.786-12.786V81.174
	c0-7.062,5.724-12.786,12.786-12.786h206.532c7.062,0,12.786,5.724,12.786,12.786v124.612c0,7.062-5.724,12.786-12.786,12.786
	H295.311"/>
<path style="fill:#602F75;" d="M410.467,225.519H295.313c-3.84,0-6.946-3.106-6.946-6.946s3.106-6.946,6.946-6.946h115.154
	c3.22,0,5.84-2.62,5.84-5.84V81.172c0-3.22-2.62-5.84-5.84-5.84H203.933c-3.22,0-5.84,2.62-5.84,5.84v124.614
	c0,3.22,2.62,5.84,5.84,5.84h41.726c3.84,0,6.946,3.106,6.946,6.946s-3.106,6.946-6.946,6.946h-41.726
	c-10.88,0-19.732-8.854-19.732-19.732V81.172c0-10.88,8.854-19.732,19.732-19.732h206.534c10.88,0,19.733,8.854,19.733,19.732
	v124.614C430.199,216.666,421.347,225.519,410.467,225.519z"/>
<rect x="197.982" y="102.511" style="fill:#FFE600;" width="218.453" height="40.96"/>
<path style="fill:#FFFFFF;" d="M252.587,252.469l6.827-54.376h64.853c9.426,0,17.067-7.641,17.067-17.067
	c0-9.426-7.641-17.067-17.067-17.067h-71.68h-34.133h-55.537c-12.535,0-22.977,8.762-25.667,20.48H40.96v88.747h96.29
	c2.688,11.718,13.131,20.48,25.667,20.48h48.471C234.141,293.666,252.587,275.222,252.587,252.469z"/>
<g>
	<path style="fill:#602F75;" d="M211.386,300.493H162.92c-13.667,0-25.586-8.194-30.64-20.48H40.96
		c-3.773,0-6.827-3.053-6.827-6.827v-88.747c0-3.773,3.053-6.827,6.827-6.827h91.32c5.053-12.286,16.973-20.48,30.64-20.48h161.347
		c13.174,0,23.893,10.72,23.893,23.893s-10.72,23.893-23.893,23.893h-58.834l-6.019,47.986
		C259.173,279.187,237.72,300.493,211.386,300.493z M47.787,266.359h89.467c3.18,0,5.939,2.2,6.653,5.299
		c2.046,8.94,9.866,15.181,19.014,15.181h48.466c18.953,0,34.374-15.42,34.374-34.374c0-0.287,0.02-0.567,0.053-0.853l6.827-54.373
		c0.427-3.413,3.333-5.973,6.774-5.973h64.853c5.647,0,10.24-4.593,10.24-10.24s-4.593-10.24-10.24-10.24H162.92
		c-9.146,0-16.966,6.24-19.014,15.181c-0.713,3.099-3.473,5.299-6.653,5.299H47.787V266.359z"/>
	<path style="fill:#602F75;" d="M259.413,204.919H225.28c-3.773,0-6.827-3.053-6.827-6.827s3.053-6.827,6.827-6.827h34.133
		c3.773,0,6.827,3.053,6.827,6.827S263.187,204.919,259.413,204.919z"/>
	<path style="fill:#602F75;" d="M252.587,232.226h-20.48c-3.773,0-6.827-3.053-6.827-6.827s3.053-6.827,6.827-6.827h20.48
		c3.773,0,6.827,3.053,6.827,6.827S256.36,232.226,252.587,232.226z"/>
	<path style="fill:#602F75;" d="M252.587,259.533h-20.48c-3.773,0-6.827-3.053-6.827-6.827s3.053-6.827,6.827-6.827h20.48
		c3.773,0,6.827,3.053,6.827,6.827S256.36,259.533,252.587,259.533z"/>
</g>
<rect x="6.827" y="163.951" style="fill:#EA3457;" width="54.613" height="129.707"/>
<path style="fill:#602F75;" d="M61.44,300.493H6.827c-3.773,0-6.827-3.053-6.827-6.827V163.959c0-3.773,3.053-6.827,6.827-6.827
	H61.44c3.773,0,6.827,3.053,6.827,6.827v129.707C68.267,297.44,65.213,300.493,61.44,300.493z M13.653,286.839h40.96V170.786h-40.96
	V286.839z"/>
<circle style="fill:#FFFFFF;" cx="34.133" cy="266.351" r="6.827"/>
<path style="fill:#602F75;" d="M34.133,280.013c-7.526,0-13.653-6.127-13.653-13.653c0-7.526,6.127-13.653,13.653-13.653
	s13.653,6.127,13.653,13.653C47.787,273.886,41.66,280.013,34.133,280.013z M34.133,266.346v0.014V266.346z"/>
<g>
</g>
<g>
</g>
<g>
</g>
<g>
</g>
<g>
</g>
<g>
</g>
<g>
</g>
<g>
</g>
<g>
</g>
<g>
</g>
<g>
</g>
<g>
</g>
<g>
</g>
<g>
</g>
<g>
</g>
</svg>
