<?xml version="1.0" encoding="iso-8859-1"?>
<!-- Generator: Adobe Illustrator 19.0.0, SVG Export Plug-In . SVG Version: 6.00 Build 0)  -->
<svg version="1.1" id="Capa_1" xmlns="http://www.w3.org/2000/svg" xmlns:xlink="http://www.w3.org/1999/xlink" x="0px" y="0px"
	 viewBox="0 0 375.467 375.467" style="enable-background:new 0 0 375.467 375.467;" xml:space="preserve">
<g>
	<rect x="6.827" y="51.2" style="fill:#00E7FF;" width="361.813" height="150.187"/>
	<path style="fill:#00E7FF;" d="M368.64,208.213H6.827c-3.773,0-6.827-3.053-6.827-6.827V51.2c0-3.773,3.053-6.827,6.827-6.827
		H368.64c3.773,0,6.827,3.053,6.827,6.827v150.187C375.467,205.16,372.413,208.213,368.64,208.213z M13.653,194.56h348.16V58.027
		H13.653V194.56z"/>
</g>
<g>
	<polyline style="fill:#FFE600;" points="184.318,174.08 6.827,174.08 6.827,23.893 368.64,23.893 368.64,174.08 245.757,174.08 	
		"/>
</g>
<path style="fill:#602F75;" d="M368.64,180.907H245.76c-3.773,0-6.827-3.053-6.827-6.827s3.053-6.827,6.827-6.827h116.053V30.72
	H13.653v136.533H184.32c3.773,0,6.827,3.053,6.827,6.827s-3.053,6.827-6.827,6.827H6.827c-3.773,0-6.827-3.053-6.827-6.827V23.893
	c0-3.773,3.053-6.827,6.827-6.827H368.64c3.773,0,6.827,3.053,6.827,6.827V174.08C375.467,177.853,372.413,180.907,368.64,180.907z"
	/>
<circle style="fill:#EA3457;" cx="191.147" cy="98.987" r="54.613"/>
<path style="fill:#602F75;" d="M191.147,160.427c-33.881,0-61.44-27.559-61.44-61.44s27.559-61.44,61.44-61.44
	s61.44,27.559,61.44,61.44S225.027,160.427,191.147,160.427z M191.147,51.2c-26.348,0-47.787,21.439-47.787,47.787
	s21.439,47.787,47.787,47.787s47.787-21.439,47.787-47.787S217.494,51.2,191.147,51.2z"/>
<g>
	<path style="fill:#FFFFFF;" d="M187.534,141.926v-10.341c-5.946-0.106-12.087-1.947-15.667-4.507l2.454-6.861
		c3.686,2.454,9.013,4.4,14.747,4.4c7.267,0,12.187-4.2,12.187-10.033c0-5.634-4-9.114-11.573-12.187
		c-10.447-4.093-16.893-8.806-16.893-17.713c0-8.499,6.04-14.947,15.461-16.486V57.856h6.347v9.933
		c6.141,0.2,10.341,1.84,13.314,3.581l-2.56,6.76c-2.147-1.227-6.347-3.48-12.906-3.48c-7.88,0-10.853,4.707-10.853,8.806
		c0,5.32,3.794,7.987,12.699,11.674c10.547,4.301,15.874,9.62,15.874,18.734c0,8.093-5.634,15.667-16.179,17.413v10.646h-6.453
		V141.926z"/>
	<path style="fill:#FFFFFF;" d="M313.789,139.947l-54.376-6.827V68.267c0-9.426-7.641-17.067-17.067-17.067
		c-9.426,0-17.067,7.641-17.067,17.067v71.68v34.133v55.537c0,12.535,8.762,22.977,20.48,25.667v96.29h88.747v-96.29
		c11.718-2.688,20.48-13.131,20.48-25.667v-48.471C354.987,158.392,336.541,139.947,313.789,139.947z"/>
</g>
<g>
	<path style="fill:#602F75;" d="M334.507,358.4H245.76c-3.773,0-6.827-3.053-6.827-6.827v-91.32
		c-12.286-5.053-20.48-16.973-20.48-30.64V68.267c0-13.174,10.72-23.893,23.893-23.893c13.174,0,23.893,10.72,23.893,23.893v58.834
		l47.986,6.019c26.281,0.241,47.587,21.693,47.587,48.027v48.466c0,13.667-8.194,25.586-20.48,30.64v91.32
		C341.333,355.347,338.28,358.4,334.507,358.4z M252.587,344.747h75.093V255.28c0-3.18,2.2-5.939,5.299-6.653
		c8.94-2.046,15.181-9.866,15.181-19.014v-48.466c0-18.953-15.42-34.374-34.374-34.374c-0.287,0-0.567-0.02-0.853-0.053
		l-54.373-6.827c-3.413-0.427-5.973-3.333-5.973-6.774V68.267c0-5.647-4.593-10.24-10.24-10.24c-5.647,0-10.24,4.593-10.24,10.24
		v161.347c0,9.146,6.24,16.966,15.181,19.014c3.099,0.713,5.299,3.473,5.299,6.653V344.747z"/>
	<path style="fill:#602F75;" d="M259.413,174.08c-3.773,0-6.827-3.053-6.827-6.827V133.12c0-3.773,3.053-6.827,6.827-6.827
		c3.773,0,6.827,3.053,6.827,6.827v34.133C266.24,171.027,263.187,174.08,259.413,174.08z"/>
	<path style="fill:#602F75;" d="M286.72,167.253c-3.773,0-6.827-3.053-6.827-6.827v-20.48c0-3.773,3.053-6.827,6.827-6.827
		s6.827,3.053,6.827,6.827v20.48C293.547,164.2,290.493,167.253,286.72,167.253z"/>
	<path style="fill:#602F75;" d="M314.027,167.253c-3.773,0-6.827-3.053-6.827-6.827v-20.48c0-3.773,3.053-6.827,6.827-6.827
		s6.827,3.053,6.827,6.827v20.48C320.853,164.2,317.8,167.253,314.027,167.253z"/>
</g>
<g>
</g>
<g>
</g>
<g>
</g>
<g>
</g>
<g>
</g>
<g>
</g>
<g>
</g>
<g>
</g>
<g>
</g>
<g>
</g>
<g>
</g>
<g>
</g>
<g>
</g>
<g>
</g>
<g>
</g>
</svg>
