<?xml version="1.0" encoding="iso-8859-1"?>
<!-- Generator: Adobe Illustrator 19.0.0, SVG Export Plug-In . SVG Version: 6.00 Build 0)  -->
<svg version="1.1" id="Capa_1" xmlns="http://www.w3.org/2000/svg" xmlns:xlink="http://www.w3.org/1999/xlink" x="0px" y="0px"
	 viewBox="0 0 389.12 389.12" style="enable-background:new 0 0 389.12 389.12;" xml:space="preserve">
<g>
	<circle style="fill:#00E7FF;" cx="293.547" cy="68.267" r="61.44"/>
	<path style="fill:#00E7FF;" d="M293.547,136.533c-37.641,0-68.267-30.626-68.267-68.267S255.907,0,293.547,0
		s68.267,30.626,68.267,68.267S331.188,136.533,293.547,136.533z M293.547,13.653c-30.114,0-54.613,24.499-54.613,54.613
		s24.499,54.613,54.613,54.613s54.613-24.499,54.613-54.613S323.659,13.653,293.547,13.653z"/>
</g>
<path style="fill:#FFFFFF;" d="M196.835,40.96L90.787,61.44c-16.208,0-29.346,13.138-29.346,29.346L27.307,354.987h68.267v27.307
	h197.973v-27.307h68.267L334.507,90.786c0-16.208-13.14-29.346-29.346-29.346l-22.183-4.193"/>
<path style="fill:#602F75;" d="M293.547,389.12H95.574c-3.773,0-6.827-3.053-6.827-6.827v-20.48h-61.44
	c-1.959,0-3.833-0.847-5.127-2.319s-1.893-3.434-1.647-5.379l34.08-263.788C54.861,70.82,70.621,54.987,90.1,54.62L195.54,34.26
	c3.661-0.741,7.281,1.7,7.994,5.407c0.72,3.7-1.707,7.281-5.407,7.994L92.08,68.14c-0.427,0.087-0.86,0.126-1.294,0.126
	c-12.419,0-22.519,10.1-22.519,22.519c0,0.294-0.02,0.587-0.053,0.874l-33.14,256.5h60.5c3.773,0,6.827,3.053,6.827,6.827v20.48
	h184.32v-20.48c0-3.773,3.053-6.827,6.827-6.827h60.699L327.713,91.486c-0.02-0.234-0.034-0.466-0.034-0.7
	c0.002-12.419-10.098-22.519-22.518-22.519c-0.427,0-0.853-0.039-1.266-0.119l-22.18-4.193c-3.707-0.7-6.141-4.273-5.441-7.974
	c0.707-3.707,4.294-6.127,7.974-5.441l21.586,4.081c19.514,0.353,35.301,16.241,35.5,35.799l27.273,263.866
	c0.193,1.92-0.427,3.84-1.727,5.274c-1.294,1.434-3.133,2.253-5.067,2.253h-61.44v20.48
	C300.374,386.067,297.32,389.12,293.547,389.12z"/>
<path style="fill:#FFE600;" d="M237.792,61.44h-79.635c-8.172,0-14.795-6.624-14.795-14.795V35.277
	c0-8.172,6.624-14.795,14.795-14.795h79.635c8.172,0,14.795,6.624,14.795,14.795v11.368C252.587,54.816,245.963,61.44,237.792,61.44
	z"/>
<g>
	<path style="fill:#602F75;" d="M237.794,68.267h-79.64c-11.919,0-21.62-9.701-21.62-21.62V35.273c0-11.919,9.701-21.62,21.62-21.62
		h79.64c11.919,0,21.62,9.701,21.62,21.62v11.373C259.414,58.566,249.713,68.267,237.794,68.267z M158.154,27.307
		c-4.393,0-7.967,3.574-7.967,7.967v11.373c0,4.393,3.574,7.967,7.967,7.967h79.64c4.393,0,7.967-3.574,7.967-7.967V35.273
		c0-4.393-3.574-7.967-7.967-7.967H158.154z"/>
	<path style="fill:#602F75;" d="M95.581,361.813c-0.16,0-0.326-0.007-0.493-0.02c-3.76-0.266-6.593-3.533-6.32-7.293l13.653-191.147
		c0.266-3.753,3.407-6.687,7.293-6.32c3.76,0.266,6.593,3.533,6.32,7.293L102.38,355.473
		C102.127,359.067,99.127,361.813,95.581,361.813z"/>
	<path style="fill:#602F75;" d="M293.54,361.813c-3.546,0-6.547-2.746-6.799-6.34l-13.653-191.147
		c-0.273-3.76,2.56-7.026,6.32-7.293c3.86-0.393,7.026,2.567,7.293,6.32L300.353,354.5c0.273,3.76-2.56,7.026-6.32,7.293
		C293.866,361.807,293.701,361.813,293.54,361.813z"/>
	<path style="fill:#602F75;" d="M68.267,327.68H34.134c-3.773,0-6.827-3.053-6.827-6.827s3.053-6.827,6.827-6.827h34.133
		c3.773,0,6.827,3.053,6.827,6.827S72.04,327.68,68.267,327.68z"/>
	<path style="fill:#602F75;" d="M354.987,327.68h-34.133c-3.773,0-6.827-3.053-6.827-6.827s3.053-6.827,6.827-6.827h34.133
		c3.773,0,6.827,3.053,6.827,6.827S358.76,327.68,354.987,327.68z"/>
</g>
<rect x="157.014" y="68.267" style="fill:#EA3457;" width="81.92" height="307.2"/>
<g>
</g>
<g>
</g>
<g>
</g>
<g>
</g>
<g>
</g>
<g>
</g>
<g>
</g>
<g>
</g>
<g>
</g>
<g>
</g>
<g>
</g>
<g>
</g>
<g>
</g>
<g>
</g>
<g>
</g>
</svg>
