<?xml version="1.0" encoding="iso-8859-1"?>
<!-- Generator: Adobe Illustrator 19.0.0, SVG Export Plug-In . SVG Version: 6.00 Build 0)  -->
<svg version="1.1" id="Capa_1" xmlns="http://www.w3.org/2000/svg" xmlns:xlink="http://www.w3.org/1999/xlink" x="0px" y="0px"
	 viewBox="0 0 395.946 395.946" style="enable-background:new 0 0 395.946 395.946;" xml:space="preserve">
<circle style="fill:#00E7FF;" cx="136.533" cy="331.093" r="34.133"/>
<path style="fill:#602F75;" d="M136.533,372.051c-22.586,0-40.96-18.374-40.96-40.96c0-22.586,18.374-40.96,40.96-40.96
	s40.96,18.374,40.96,40.96C177.493,353.677,159.119,372.051,136.533,372.051z M136.533,303.785
	c-15.056,0-27.307,12.25-27.307,27.307c0,15.056,12.25,27.307,27.307,27.307s27.307-12.25,27.307-27.307
	C163.84,316.035,151.59,303.785,136.533,303.785z"/>
<ellipse style="fill:#00E7FF;" cx="286.705" cy="331.099" rx="34.133" ry="34.133"/>
<path style="fill:#602F75;" d="M286.671,372.055c-10.156,0-19.816-3.71-27.407-10.566c-8.12-7.337-12.897-17.393-13.45-28.32
	c-0.556-10.926,3.176-21.417,10.51-29.534c7.337-8.12,17.393-12.897,28.32-13.45c10.873-0.58,21.414,3.176,29.534,10.51
	c8.12,7.337,12.897,17.393,13.45,28.32l0,0c0.556,10.926-3.176,21.417-10.51,29.534c-7.337,8.12-17.393,12.897-28.32,13.45
	C288.087,372.034,287.377,372.055,286.671,372.055z M286.754,303.785c-0.469,0-0.944,0.01-1.417,0.034
	c-7.287,0.37-13.99,3.557-18.879,8.97c-4.89,5.41-7.38,12.404-7.009,19.686c0.37,7.287,3.557,13.99,8.97,18.879
	c5.41,4.893,12.401,7.407,19.686,7.009c7.287-0.37,13.99-3.557,18.879-8.97c4.89-5.41,7.38-12.404,7.009-19.686l0,0
	c-0.37-7.287-3.557-13.99-8.97-18.879C299.967,306.254,293.523,303.785,286.754,303.785z"/>
<g>
	<path style="fill:#EA3457;" d="M320.853,276.478H109.227c-3.77,0-6.827-3.057-6.827-6.827s3.057-6.827,6.827-6.827h206.476
		l9.754-34.133H95.573c-3.133,0-5.864-2.133-6.624-5.17L42.457,37.545H6.827C3.057,37.545,0,34.488,0,30.718
		s3.057-6.827,6.827-6.827h40.96c3.133,0,5.864,2.133,6.624,5.169l46.493,185.977h233.603c2.144,0,4.161,1.007,5.449,2.717
		c1.289,1.71,1.703,3.927,1.113,5.987l-13.653,47.787C326.581,274.457,323.9,276.478,320.853,276.478z"/>
	<path style="fill:#EA3457;" d="M341.333,208.215c-0.713,0-1.444-0.113-2.161-0.353c-3.577-1.193-5.511-5.06-4.316-8.637
		L379.65,64.851H88.747c-3.77,0-6.827-3.057-6.827-6.827s3.057-6.827,6.827-6.827H389.12c2.193,0,4.253,1.053,5.536,2.836
		c1.283,1.78,1.633,4.067,0.94,6.151l-47.787,143.36C346.856,206.404,344.194,208.215,341.333,208.215z"/>
	<path style="fill:#EA3457;" d="M368.64,105.811H102.4c-3.77,0-6.827-3.057-6.827-6.827s3.057-6.827,6.827-6.827h266.24
		c3.77,0,6.827,3.057,6.827,6.827S372.41,105.811,368.64,105.811z"/>
	<path style="fill:#EA3457;" d="M354.987,146.771H116.053c-3.77,0-6.827-3.057-6.827-6.827s3.057-6.827,6.827-6.827h238.933
		c3.77,0,6.827,3.057,6.827,6.827S358.757,146.771,354.987,146.771z"/>
	<path style="fill:#EA3457;" d="M341.333,187.731H122.88c-3.77,0-6.827-3.057-6.827-6.827c0-3.77,3.057-6.827,6.827-6.827h218.453
		c3.77,0,6.827,3.057,6.827,6.827C348.16,184.675,345.103,187.731,341.333,187.731z"/>
</g>
<g>
</g>
<g>
</g>
<g>
</g>
<g>
</g>
<g>
</g>
<g>
</g>
<g>
</g>
<g>
</g>
<g>
</g>
<g>
</g>
<g>
</g>
<g>
</g>
<g>
</g>
<g>
</g>
<g>
</g>
</svg>
