<?xml version="1.0" encoding="iso-8859-1"?>
<!-- Generator: Adobe Illustrator 19.0.0, SVG Export Plug-In . SVG Version: 6.00 Build 0)  -->
<svg version="1.1" id="Capa_1" xmlns="http://www.w3.org/2000/svg" xmlns:xlink="http://www.w3.org/1999/xlink" x="0px" y="0px"
	 viewBox="0 0 402.773 402.773" style="enable-background:new 0 0 402.773 402.773;" xml:space="preserve">
<path style="fill:#FFE600;" d="M333.609,194.382l-31.568-12.981l61.007-148.374c3.584-8.718,13.558-12.879,22.274-9.295l0,0
	c8.718,3.584,12.879,13.558,9.295,22.274L333.609,194.382z"/>
<path style="fill:#602F75;" d="M333.607,201.207c-0.864,0-1.742-0.167-2.594-0.514l-31.57-12.979
	c-1.673-0.686-3.007-2.014-3.703-3.686c-0.696-1.667-0.703-3.546-0.014-5.221l61.007-148.374
	c2.427-5.907,7.006-10.506,12.897-12.967c5.886-2.459,12.387-2.473,18.29-0.046c12.184,5.014,18.021,19,13.01,31.181
	l-61.007,148.374C338.84,199.613,336.294,201.207,333.607,201.207z M310.95,177.679l18.944,7.793l58.411-142.06
	c2.147-5.221-0.357-11.22-5.577-13.367c-2.529-1.046-5.309-1.027-7.84,0.02c-2.524,1.053-4.487,3.026-5.526,5.553L310.95,177.679z"
	/>
<path style="fill:#FFFFFF;" d="M272.169,194.382l-31.568-12.981l61.007-148.374c3.584-8.718,13.558-12.879,22.274-9.295l0,0
	c8.718,3.584,12.879,13.558,9.294,22.274L272.169,194.382z"/>
<path style="fill:#602F75;" d="M272.167,201.327c-0.881,0-1.773-0.167-2.64-0.521l-31.57-12.979c-1.703-0.7-3.06-2.053-3.77-3.753
	c-0.707-1.7-0.713-3.613-0.014-5.313L295.18,30.387c2.441-5.934,7.043-10.561,12.964-13.034c5.924-2.466,12.454-2.487,18.383-0.046
	c12.244,5.04,18.109,19.099,13.076,31.34l-61.007,148.374C277.494,199.707,274.9,201.327,272.167,201.327z M249.667,177.613
	l18.72,7.7L326.75,43.366c2.123-5.159-0.35-11.087-5.511-13.206c-2.5-1.039-5.257-1.033-7.747,0.02
	c-2.493,1.039-4.434,2.993-5.46,5.487L249.667,177.613z"/>
<polygon style="fill:#FFFFFF;" points="361.813,269.653 81.92,269.653 68.267,112.64 395.947,112.64 "/>
<path style="fill:#602F75;" d="M361.813,276.48H81.92c-3.54,0-6.494-2.707-6.799-6.233L61.467,113.234
	c-0.167-1.906,0.476-3.794,1.766-5.207c1.294-1.413,3.12-2.214,5.033-2.214h327.68c2.067,0,4.019,0.934,5.316,2.54
	c1.294,1.613,1.794,3.721,1.353,5.74l-34.133,157.013C367.804,274.241,365.024,276.48,361.813,276.48z M88.18,262.826h268.129
	l31.167-143.36H75.713L88.18,262.826z"/>
<polygon style="fill:#00E7FF;" points="327.68,228.693 118.328,228.693 109.227,153.6 341.333,153.6 "/>
<g>
	<path style="fill:#602F75;" d="M68.256,119.466c-3.43,0-6.386-2.58-6.774-6.074L55.33,58.026H6.827C3.057,58.026,0,54.973,0,51.2
		s3.057-6.827,6.827-6.827H61.44c3.48,0,6.4,2.613,6.784,6.074l6.827,61.44c0.416,3.746-2.284,7.12-6.03,7.54
		C68.763,119.453,68.511,119.466,68.256,119.466z"/>
	<path style="fill:#602F75;" d="M88.736,337.92c-3.43,0-6.386-2.58-6.774-6.074l-6.827-61.44c-0.416-3.746,2.284-7.12,6.03-7.54
		c3.739-0.387,7.124,2.28,7.537,6.033l6.827,61.44c0.416,3.746-2.284,7.12-6.03,7.54C89.243,337.906,88.991,337.92,88.736,337.92z"
		/>
</g>
<circle style="fill:#FFFFFF;" cx="95.573" cy="358.4" r="27.307"/>
<path style="fill:#602F75;" d="M95.573,392.533c-18.819,0-34.133-15.314-34.133-34.133s15.314-34.133,34.133-34.133
	s34.133,15.314,34.133,34.133S114.393,392.533,95.573,392.533z M95.573,337.92c-11.293,0-20.48,9.187-20.48,20.48
	s9.187,20.48,20.48,20.48s20.48-9.187,20.48-20.48S106.866,337.92,95.573,337.92z"/>
<circle style="fill:#FFFFFF;" cx="327.68" cy="358.4" r="27.307"/>
<g>
	<path style="fill:#602F75;" d="M327.68,392.533c-18.819,0-34.133-15.314-34.133-34.133s15.314-34.133,34.133-34.133
		c18.819,0,34.133,15.314,34.133,34.133S346.499,392.533,327.68,392.533z M327.68,337.92c-11.293,0-20.48,9.187-20.48,20.48
		s9.187,20.48,20.48,20.48c11.293,0,20.48-9.187,20.48-20.48S338.973,337.92,327.68,337.92z"/>
	<path style="fill:#602F75;" d="M273.067,365.226H122.88c-3.77,0-6.827-3.053-6.827-6.827s3.057-6.827,6.827-6.827h150.187
		c3.77,0,6.827,3.053,6.827,6.827S276.837,365.226,273.067,365.226z"/>
</g>
<rect x="102.4" y="58.026" style="fill:#EA3457;" width="95.573" height="54.613"/>
<path style="fill:#602F75;" d="M197.973,119.466H102.4c-3.77,0-6.827-3.053-6.827-6.827V58.026c0-3.773,3.057-6.827,6.827-6.827
	h95.573c3.77,0,6.827,3.053,6.827,6.827v54.613C204.8,116.413,201.743,119.466,197.973,119.466z M109.227,105.813h81.92v-40.96
	h-81.92V105.813z"/>
<path style="fill:#FFFFFF;" d="M225.28,112.64h-47.787V40.96c0-13.196,10.697-23.893,23.893-23.893l0,0
	c13.196,0,23.893,10.697,23.893,23.893V112.64z"/>
<path style="fill:#602F75;" d="M225.28,119.466h-47.787c-3.77,0-6.827-3.053-6.827-6.827V40.96c0-16.94,13.78-30.72,30.72-30.72
	s30.72,13.78,30.72,30.72v71.68C232.107,116.413,229.05,119.466,225.28,119.466z M184.32,105.813h34.133V40.96
	c0-9.414-7.656-17.067-17.067-17.067S184.32,31.546,184.32,40.96V105.813z"/>
<path style="fill:#EA3457;" d="M307.2,112.64c0-22.622-18.338-40.96-40.96-40.96c-22.622,0-40.96,18.338-40.96,40.96H307.2z"/>
<path style="fill:#602F75;" d="M307.2,119.466h-81.92c-3.77,0-6.827-3.053-6.827-6.827c0-26.348,21.437-47.787,47.787-47.787
	s47.787,21.439,47.787,47.787C314.027,116.413,310.97,119.466,307.2,119.466z M232.793,105.813h66.893
	c-3.169-15.56-16.963-27.307-33.447-27.307S235.964,90.253,232.793,105.813z"/>
<g>
</g>
<g>
</g>
<g>
</g>
<g>
</g>
<g>
</g>
<g>
</g>
<g>
</g>
<g>
</g>
<g>
</g>
<g>
</g>
<g>
</g>
<g>
</g>
<g>
</g>
<g>
</g>
<g>
</g>
</svg>
