<?xml version="1.0" encoding="iso-8859-1"?>
<!-- Generator: Adobe Illustrator 19.0.0, SVG Export Plug-In . SVG Version: 6.00 Build 0)  -->
<svg version="1.1" id="Capa_1" xmlns="http://www.w3.org/2000/svg" xmlns:xlink="http://www.w3.org/1999/xlink" x="0px" y="0px"
	 viewBox="0 0 436.907 436.907" style="enable-background:new 0 0 436.907 436.907;" xml:space="preserve">
<path style="fill:#EA3457;" d="M64.853,150.187c-32.048,0-58.027-25.979-58.027-58.027l0,0c0-32.048,25.979-58.027,58.027-58.027
	h307.2c32.048,0,58.027,25.979,58.027,58.027l0,0c0,32.048-25.979,58.027-58.027,58.027H139.948"/>
<path style="fill:#602F75;" d="M372.053,157.013H139.947c-3.773,0-6.827-3.053-6.827-6.827s3.053-6.827,6.827-6.827h232.107
	c28.233,0,51.2-22.967,51.2-51.2s-22.967-51.2-51.2-51.2h-307.2c-28.233,0-51.2,22.967-51.2,51.2s22.967,51.2,51.2,51.2
	c3.773,0,6.827,3.053,6.827,6.827s-3.053,6.827-6.827,6.827C29.094,157.013,0,127.92,0,92.16s29.094-64.853,64.853-64.853h307.2
	c35.76,0,64.853,29.094,64.853,64.853S407.813,157.013,372.053,157.013z"/>
<g>
	<path style="fill:#FFE600;" d="M141.307,123.394h-10.213V60.407h35.546v8.701h-25.334v19.686h23.74v8.747h-23.74L141.307,123.394
		L141.307,123.394z"/>
	<path style="fill:#FFE600;" d="M188.353,98.234v25.16h-10.3V60.407h17.794c8.134,0,14.147,1.521,18.053,4.567
		c3.907,3.04,5.861,7.641,5.861,13.786c0,7.84-4.081,13.426-12.233,16.759l17.794,27.873h-11.72l-15.08-25.16L188.353,98.234
		L188.353,98.234z M188.353,89.701h7.153c4.794,0,8.267-0.887,10.426-2.666c2.154-1.787,3.227-4.427,3.227-7.933
		c0-3.56-1.161-6.113-3.487-7.666c-2.326-1.553-5.833-2.326-10.513-2.326h-6.806L188.353,89.701L188.353,89.701z"/>
	<path style="fill:#FFE600;" d="M270.087,123.394h-35.633V60.407h35.633v8.701h-25.334v17.147h23.74v8.62h-23.74v19.773h25.334
		V123.394z"/>
	<path style="fill:#FFE600;" d="M319.333,123.394h-35.634V60.407h35.634v8.701h-25.334v17.147h23.74v8.62h-23.74v19.773h25.334
		V123.394z"/>
</g>
<path style="fill:#FFFFFF;" d="M163.603,191.147l-54.376-6.827v-64.853c0-9.426-7.641-17.067-17.067-17.067
	s-17.067,7.641-17.067,17.067v71.68v34.133v55.537c0,12.535,8.762,22.977,20.48,25.667v96.29h88.747v-96.29
	c11.718-2.688,20.48-13.131,20.48-25.667v-48.471C204.8,209.592,186.354,191.147,163.603,191.147z"/>
<g>
	<path style="fill:#602F75;" d="M184.32,409.6H95.573c-3.773,0-6.827-3.053-6.827-6.827v-91.32
		c-12.286-5.053-20.48-16.973-20.48-30.64V119.467c0-13.174,10.72-23.893,23.893-23.893s23.893,10.72,23.893,23.893v58.834
		l47.986,6.019c26.281,0.241,47.587,21.693,47.587,48.027v48.466c0,13.667-8.194,25.586-20.48,30.64v91.32
		C191.147,406.547,188.093,409.6,184.32,409.6z M102.4,395.947h75.093V306.48c0-3.18,2.2-5.939,5.299-6.653
		c8.94-2.046,15.181-9.866,15.181-19.014v-48.466c0-18.953-15.42-34.374-34.374-34.374c-0.287,0-0.567-0.02-0.853-0.053
		l-54.373-6.827c-3.413-0.427-5.973-3.333-5.973-6.774v-64.853c0-5.647-4.593-10.24-10.24-10.24c-5.647,0-10.24,4.593-10.24,10.24
		v161.347c0,9.146,6.24,16.966,15.181,19.014c3.099,0.713,5.299,3.473,5.299,6.653L102.4,395.947L102.4,395.947z"/>
	<path style="fill:#602F75;" d="M109.227,225.28c-3.773,0-6.827-3.053-6.827-6.827V184.32c0-3.773,3.053-6.827,6.827-6.827
		s6.827,3.053,6.827,6.827v34.133C116.053,222.227,113,225.28,109.227,225.28z"/>
	<path style="fill:#602F75;" d="M136.533,218.453c-3.773,0-6.827-3.053-6.827-6.827v-20.48c0-3.773,3.053-6.827,6.827-6.827
		s6.827,3.053,6.827,6.827v20.48C143.36,215.4,140.307,218.453,136.533,218.453z"/>
	<path style="fill:#602F75;" d="M163.84,218.453c-3.773,0-6.827-3.053-6.827-6.827v-20.48c0-3.773,3.053-6.827,6.827-6.827
		c3.773,0,6.827,3.053,6.827,6.827v20.48C170.667,215.4,167.613,218.453,163.84,218.453z"/>
</g>
<g>
	<path style="fill:#00E7FF;" d="M282.72,207.626c-1.746,0-3.494-0.667-4.826-2l-19.306-19.306c-2.666-2.666-2.666-6.987,0-9.653
		c2.666-2.666,6.987-2.666,9.653,0l19.306,19.306c2.666,2.666,2.666,6.987,0,9.653C286.213,206.961,284.467,207.626,282.72,207.626z
		"/>
	<path style="fill:#00E7FF;" d="M263.414,207.626c-1.746,0-3.494-0.667-4.826-2c-2.666-2.666-2.666-6.987,0-9.653l19.306-19.306
		c2.666-2.666,6.987-2.666,9.653,0c2.666,2.666,2.666,6.987,0,9.653l-19.306,19.306C266.907,206.961,265.16,207.626,263.414,207.626
		z"/>
	<path style="fill:#00E7FF;" d="M350.986,275.893c-1.746,0-3.494-0.667-4.826-2l-19.306-19.306c-2.666-2.666-2.666-6.987,0-9.653
		c2.666-2.666,6.987-2.666,9.653,0l19.306,19.306c2.666,2.666,2.666,6.987,0,9.653C354.48,275.227,352.734,275.893,350.986,275.893z
		"/>
	<path style="fill:#00E7FF;" d="M331.68,275.893c-1.746,0-3.494-0.667-4.826-2c-2.666-2.666-2.666-6.987,0-9.653l19.306-19.306
		c2.666-2.666,6.987-2.666,9.653,0s2.666,6.987,0,9.653l-19.306,19.306C335.174,275.227,333.426,275.893,331.68,275.893z"/>
</g>
<g>
</g>
<g>
</g>
<g>
</g>
<g>
</g>
<g>
</g>
<g>
</g>
<g>
</g>
<g>
</g>
<g>
</g>
<g>
</g>
<g>
</g>
<g>
</g>
<g>
</g>
<g>
</g>
<g>
</g>
</svg>
