<?xml version="1.0" encoding="iso-8859-1"?>
<!-- Generator: Adobe Illustrator 19.0.0, SVG Export Plug-In . SVG Version: 6.00 Build 0)  -->
<svg version="1.1" id="Capa_1" xmlns="http://www.w3.org/2000/svg" xmlns:xlink="http://www.w3.org/1999/xlink" x="0px" y="0px"
	 viewBox="0 0 402.773 402.773" style="enable-background:new 0 0 402.773 402.773;" xml:space="preserve">
<path style="fill:#FFFFFF;" d="M313.571,102.4c5.907,0,10.696,4.789,10.696,10.696v272.157c0,5.907-4.789,10.696-10.696,10.696
	H89.202c-5.907,0-10.696-4.789-10.696-10.696V113.096c0-5.907,4.789-10.696,10.696-10.696h173.623"/>
<path style="fill:#602F75;" d="M313.569,402.773H89.204c-9.665,0-17.524-7.859-17.524-17.521V113.094
	c0-9.661,7.859-17.521,17.524-17.521h173.623c3.77,0,6.827,3.053,6.827,6.827s-3.057,6.827-6.827,6.827H89.204
	c-2.133,0-3.871,1.734-3.871,3.867v272.16c0,2.133,1.737,3.867,3.871,3.867h224.367c2.133,0,3.871-1.734,3.871-3.867v-272.16
	c0-2.133-1.737-3.867-3.871-3.867c-3.77,0-6.827-3.053-6.827-6.827s3.057-6.827,6.827-6.827c9.663,0,17.522,7.859,17.522,17.521
	v272.16C331.093,394.914,323.234,402.773,313.569,402.773z"/>
<polygon style="fill:#EA3457;" points="119.467,47.788 119.467,136.533 283.307,136.533 283.307,6.827 160.427,6.827 "/>
<path style="fill:#602F75;" d="M283.307,143.36h-163.84c-3.77,0-6.827-3.053-6.827-6.827V47.787c0-1.812,0.72-3.546,2-4.826L155.6,2
	c1.28-1.28,3.016-2,4.826-2h122.88c3.77,0,6.827,3.053,6.827,6.827v129.707C290.133,140.307,287.077,143.36,283.307,143.36z
	 M126.293,129.707H276.48V13.653H163.253l-36.96,36.96V129.707z"/>
<path style="fill:#602F75;" d="M160.427,54.613h-40.96c-3.77,0-6.827-3.053-6.827-6.827s3.057-6.827,6.827-6.827H153.6V6.827
	c0-3.773,3.057-6.827,6.827-6.827c3.77,0,6.827,3.053,6.827,6.827v40.96C167.253,51.56,164.197,54.613,160.427,54.613z"/>
<g>
	<path style="fill:#602F75;" d="M133.12,143.36h-27.307c-3.77,0-6.827-3.053-6.827-6.827s3.057-6.827,6.827-6.827h27.307
		c3.77,0,6.827,3.053,6.827,6.827S136.89,143.36,133.12,143.36z"/>
	<path style="fill:#602F75;" d="M296.96,143.36h-27.307c-3.77,0-6.827-3.053-6.827-6.827s3.057-6.827,6.827-6.827h27.307
		c3.77,0,6.827,3.053,6.827,6.827S300.73,143.36,296.96,143.36z"/>
</g>
<rect x="119.467" y="170.667" style="fill:#00E7FF;" width="157.013" height="40.96"/>
<path style="fill:#602F75;" d="M276.48,218.453H119.467c-3.77,0-6.827-3.053-6.827-6.827v-40.96c0-3.773,3.057-6.827,6.827-6.827
	H276.48c3.77,0,6.827,3.053,6.827,6.827v40.96C283.307,215.4,280.25,218.453,276.48,218.453z M126.293,204.8h143.36v-27.307h-143.36
	V204.8z"/>
<g>
	<rect x="112.64" y="245.76" style="fill:#FFE600;" width="40.96" height="27.307"/>
	<path style="fill:#FFE600;" d="M153.6,279.893h-40.96c-3.77,0-6.827-3.053-6.827-6.827V245.76c0-3.773,3.057-6.827,6.827-6.827
		h40.96c3.77,0,6.827,3.053,6.827,6.827v27.307C160.427,276.84,157.37,279.893,153.6,279.893z M119.467,266.24h27.307v-13.653
		h-27.307V266.24z"/>
	<rect x="242.347" y="245.76" style="fill:#FFE600;" width="40.96" height="27.307"/>
	<path style="fill:#FFE600;" d="M283.307,279.893h-40.96c-3.77,0-6.827-3.053-6.827-6.827V245.76c0-3.773,3.057-6.827,6.827-6.827
		h40.96c3.77,0,6.827,3.053,6.827,6.827v27.307C290.133,276.84,287.077,279.893,283.307,279.893z M249.173,266.24h27.307v-13.653
		h-27.307V266.24z"/>
	<rect x="180.907" y="245.76" style="fill:#FFE600;" width="34.133" height="27.307"/>
	<path style="fill:#FFE600;" d="M215.04,279.893h-34.133c-3.77,0-6.827-3.053-6.827-6.827V245.76c0-3.773,3.057-6.827,6.827-6.827
		h34.133c3.77,0,6.827,3.053,6.827,6.827v27.307C221.867,276.84,218.81,279.893,215.04,279.893z M187.733,266.24h20.48v-13.653
		h-20.48V266.24z"/>
	<rect x="112.64" y="300.373" style="fill:#FFE600;" width="40.96" height="27.307"/>
	<path style="fill:#FFE600;" d="M153.6,334.507h-40.96c-3.77,0-6.827-3.053-6.827-6.827v-27.307c0-3.773,3.057-6.827,6.827-6.827
		h40.96c3.77,0,6.827,3.053,6.827,6.827v27.307C160.427,331.453,157.37,334.507,153.6,334.507z M119.467,320.853h27.307V307.2
		h-27.307V320.853z"/>
	<rect x="180.907" y="300.373" style="fill:#FFE600;" width="102.4" height="27.307"/>
	<path style="fill:#FFE600;" d="M283.307,334.507h-102.4c-3.77,0-6.827-3.053-6.827-6.827v-27.307c0-3.773,3.057-6.827,6.827-6.827
		h102.4c3.77,0,6.827,3.053,6.827,6.827v27.307C290.133,331.453,287.077,334.507,283.307,334.507z M187.733,320.853h88.747V307.2
		h-88.747V320.853z"/>
</g>
<path style="fill:#602F75;" d="M283.307,361.813H112.64c-3.77,0-6.827-3.053-6.827-6.827s3.057-6.827,6.827-6.827h170.667
	c3.77,0,6.827,3.053,6.827,6.827S287.077,361.813,283.307,361.813z"/>
<g>
</g>
<g>
</g>
<g>
</g>
<g>
</g>
<g>
</g>
<g>
</g>
<g>
</g>
<g>
</g>
<g>
</g>
<g>
</g>
<g>
</g>
<g>
</g>
<g>
</g>
<g>
</g>
<g>
</g>
</svg>
