<?xml version="1.0" encoding="iso-8859-1"?>
<!-- Generator: Adobe Illustrator 19.0.0, SVG Export Plug-In . SVG Version: 6.00 Build 0)  -->
<svg version="1.1" id="Capa_1" xmlns="http://www.w3.org/2000/svg" xmlns:xlink="http://www.w3.org/1999/xlink" x="0px" y="0px"
	 viewBox="0 0 436.907 436.907" style="enable-background:new 0 0 436.907 436.907;" xml:space="preserve">
<path style="fill:#FFE600;" d="M281.774,361.813H80.039c-15.927,0-28.839-12.913-28.839-28.839V35.666
	c0-15.927,12.913-28.839,28.839-28.839h201.733c15.928,0,28.841,12.913,28.841,28.839v297.306
	C310.613,348.901,297.701,361.813,281.774,361.813z"/>
<path style="fill:#602F75;" d="M281.774,368.64H80.039c-19.666,0-35.666-16-35.666-35.666V35.666C44.373,16,60.373,0,80.039,0
	h201.733c19.668,0,35.668,16,35.668,35.666v297.306C317.44,352.64,301.44,368.64,281.774,368.64z M80.039,13.653
	c-12.14,0-22.013,9.873-22.013,22.013v297.306c0,12.141,9.873,22.014,22.013,22.014h201.733c12.14,0,22.013-9.873,22.013-22.013
	V35.666c0.002-12.14-9.871-22.013-22.011-22.013H80.039z"/>
<polyline style="fill:#FFFFFF;" points="290.133,293.547 71.68,293.547 71.68,27.307 290.133,27.307 290.133,102.4 "/>
<path style="fill:#602F75;" d="M290.133,300.373H71.68c-3.773,0-6.827-3.053-6.827-6.827V27.307c0-3.773,3.053-6.827,6.827-6.827
	h218.453c3.773,0,6.827,3.053,6.827,6.827V102.4c0,3.773-3.053,6.827-6.827,6.827s-6.827-3.053-6.827-6.827V34.133h-204.8V286.72
	h211.627c3.773,0,6.827,3.053,6.827,6.827S293.907,300.373,290.133,300.373z"/>
<g>
	<circle style="fill:#EA3457;" cx="180.907" cy="327.68" r="13.653"/>
	<path style="fill:#EA3457;" d="M180.907,348.16c-11.293,0-20.48-9.187-20.48-20.48c0-11.293,9.187-20.48,20.48-20.48
		s20.48,9.187,20.48,20.48C201.387,338.973,192.2,348.16,180.907,348.16z M180.907,320.853c-3.767,0-6.827,3.06-6.827,6.827
		c0,3.767,3.06,6.827,6.827,6.827c3.767,0,6.827-3.06,6.827-6.827C187.733,323.913,184.673,320.853,180.907,320.853z"/>
</g>
<path style="fill:#EAEAEA;" d="M344.509,218.453l-54.376-6.827v-64.853c0-9.426-7.641-17.067-17.067-17.067
	c-9.426,0-17.067,7.641-17.067,17.067v71.68v34.133v55.537c0,12.535,8.762,22.977,20.48,25.667v96.29h88.747v-96.29
	c11.718-2.688,20.48-13.131,20.48-25.667v-48.471C385.707,236.899,367.261,218.453,344.509,218.453z"/>
<g>
	<path style="fill:#602F75;" d="M365.227,436.907H276.48c-3.773,0-6.827-3.053-6.827-6.827v-91.32
		c-12.286-5.053-20.48-16.973-20.48-30.64V146.773c0-13.174,10.72-23.893,23.893-23.893c13.174,0,23.893,10.72,23.893,23.893v58.834
		l47.986,6.019c26.281,0.241,47.587,21.693,47.587,48.027v48.466c0,13.667-8.194,25.586-20.48,30.64v91.32
		C372.053,433.853,369,436.907,365.227,436.907z M283.307,423.253H358.4v-89.467c0-3.18,2.2-5.939,5.299-6.653
		c8.94-2.046,15.181-9.866,15.181-19.014v-48.466c0-18.953-15.42-34.374-34.374-34.374c-0.287,0-0.567-0.02-0.853-0.053
		L289.28,218.4c-3.413-0.427-5.973-3.333-5.973-6.774v-64.853c0-5.647-4.593-10.24-10.24-10.24s-10.24,4.593-10.24,10.24V308.12
		c0,9.146,6.24,16.966,15.181,19.014c3.099,0.713,5.299,3.473,5.299,6.653V423.253z"/>
	<path style="fill:#602F75;" d="M290.133,252.587c-3.773,0-6.827-3.053-6.827-6.827v-34.133c0-3.773,3.053-6.827,6.827-6.827
		s6.827,3.053,6.827,6.827v34.133C296.96,249.533,293.907,252.587,290.133,252.587z"/>
	<path style="fill:#602F75;" d="M317.44,245.76c-3.773,0-6.827-3.053-6.827-6.827v-20.48c0-3.773,3.053-6.827,6.827-6.827
		s6.827,3.053,6.827,6.827v20.48C324.267,242.707,321.213,245.76,317.44,245.76z"/>
	<path style="fill:#602F75;" d="M344.747,245.76c-3.773,0-6.827-3.053-6.827-6.827v-20.48c0-3.773,3.053-6.827,6.827-6.827
		s6.827,3.053,6.827,6.827v20.48C351.573,242.707,348.52,245.76,344.747,245.76z"/>
	<path style="fill:#602F75;" d="M228.693,88.747h-40.96c-3.773,0-6.827-3.053-6.827-6.827c0-3.773,3.053-6.827,6.827-6.827h40.96
		c3.773,0,6.827,3.053,6.827,6.827C235.52,85.693,232.467,88.747,228.693,88.747z"/>
</g>
<path style="fill:#00E7FF;" d="M146.773,109.227c-1.333,0-2.654-0.393-3.787-1.147l-20.48-13.653
	c-3.14-2.094-3.987-6.327-1.893-9.467c2.08-3.14,6.32-3.987,9.467-1.893l13.653,9.1l17.246-40.24c1.48-3.473,5.519-5.086,8.96-3.587
	c3.466,1.487,5.074,5.501,3.587,8.96l-20.48,47.787c-0.8,1.867-2.386,3.28-4.326,3.86
	C148.081,109.133,147.427,109.227,146.773,109.227z"/>
<path style="fill:#602F75;" d="M228.693,170.667h-40.96c-3.773,0-6.827-3.053-6.827-6.827c0-3.773,3.053-6.827,6.827-6.827h40.96
	c3.773,0,6.827,3.053,6.827,6.827C235.52,167.613,232.467,170.667,228.693,170.667z"/>
<path style="fill:#00E7FF;" d="M146.773,191.147c-1.333,0-2.654-0.393-3.787-1.147l-20.48-13.653
	c-3.14-2.094-3.987-6.327-1.893-9.467c2.08-3.133,6.32-3.987,9.467-1.893l13.653,9.1l17.246-40.24
	c1.48-3.473,5.519-5.093,8.96-3.587c3.466,1.486,5.074,5.501,3.587,8.96l-20.48,47.787c-0.8,1.867-2.386,3.28-4.326,3.86
	C148.081,191.053,147.427,191.147,146.773,191.147z"/>
<path style="fill:#602F75;" d="M228.693,252.587h-40.96c-3.773,0-6.827-3.053-6.827-6.827s3.053-6.827,6.827-6.827h40.96
	c3.773,0,6.827,3.053,6.827,6.827S232.467,252.587,228.693,252.587z"/>
<path style="fill:#00E7FF;" d="M146.773,273.067c-1.333,0-2.654-0.393-3.787-1.147l-20.48-13.653
	c-3.14-2.094-3.987-6.327-1.893-9.467c2.08-3.14,6.32-3.987,9.467-1.893l13.653,9.1l17.246-40.24c1.48-3.473,5.519-5.081,8.96-3.587
	c3.466,1.487,5.074,5.501,3.587,8.96l-20.48,47.787c-0.8,1.867-2.386,3.28-4.326,3.86
	C148.081,272.973,147.427,273.067,146.773,273.067z"/>
<g>
</g>
<g>
</g>
<g>
</g>
<g>
</g>
<g>
</g>
<g>
</g>
<g>
</g>
<g>
</g>
<g>
</g>
<g>
</g>
<g>
</g>
<g>
</g>
<g>
</g>
<g>
</g>
<g>
</g>
</svg>
