<?xml version="1.0" encoding="iso-8859-1"?>
<!-- Generator: Adobe Illustrator 19.0.0, SVG Export Plug-In . SVG Version: 6.00 Build 0)  -->
<svg version="1.1" id="Capa_1" xmlns="http://www.w3.org/2000/svg" xmlns:xlink="http://www.w3.org/1999/xlink" x="0px" y="0px"
	 viewBox="0 0 436.907 436.907" style="enable-background:new 0 0 436.907 436.907;" xml:space="preserve">
<path style="fill:#FFFFFF;" d="M109.227,223.544v-88.067c0-18.268,14.809-33.077,33.077-33.077H280.95
	c18.268,0,33.077,14.809,33.077,33.077v123.646c0,0.16-0.13,0.29-0.29,0.29h-204.51"/>
<path style="fill:#602F75;" d="M313.737,266.24h-204.51c-3.77,0-6.827-3.053-6.827-6.827c0-3.773,3.057-6.827,6.827-6.827H307.2
	V135.48c0-14.474-11.776-26.254-26.25-26.254H142.304c-14.474,0-26.25,11.779-26.25,26.254v88.067c0,3.773-3.057,6.827-6.827,6.827
	s-6.827-3.053-6.827-6.827V135.48c0-22.007,17.9-39.907,39.904-39.907H280.95c22.004,0,39.904,17.9,39.904,39.907v123.646
	C320.853,262.9,317.507,266.24,313.737,266.24z"/>
<g>
	<path style="fill:#00E7FF;" d="M81.92,116.053H27.307c-3.77,0-6.827-3.053-6.827-6.827s3.057-6.827,6.827-6.827H81.92
		c3.77,0,6.827,3.053,6.827,6.827S85.69,116.053,81.92,116.053z"/>
	<path style="fill:#00E7FF;" d="M81.92,150.187H61.44c-3.77,0-6.827-3.053-6.827-6.827s3.057-6.827,6.827-6.827h20.48
		c3.77,0,6.827,3.053,6.827,6.827S85.69,150.187,81.92,150.187z"/>
	<path style="fill:#00E7FF;" d="M40.96,150.187H6.827c-3.77,0-6.827-3.053-6.827-6.827s3.057-6.827,6.827-6.827H40.96
		c3.77,0,6.827,3.053,6.827,6.827S44.73,150.187,40.96,150.187z"/>
	<path style="fill:#00E7FF;" d="M81.92,184.32H54.613c-3.77,0-6.827-3.053-6.827-6.827s3.057-6.827,6.827-6.827H81.92
		c3.77,0,6.827,3.053,6.827,6.827S85.69,184.32,81.92,184.32z"/>
</g>
<path style="fill:#FFE600;" d="M405.661,307.2H109.227v-47.787H430.08v23.368C430.08,296.267,419.147,307.2,405.661,307.2z"/>
<path style="fill:#602F75;" d="M405.659,314.027H109.227c-3.77,0-6.827-3.053-6.827-6.827v-47.787c0-3.773,3.057-6.827,6.827-6.827
	H430.08c3.77,0,6.827,3.053,6.827,6.827v23.366C436.907,300.006,422.89,314.027,405.659,314.027z M116.053,300.373h289.606
	c9.701,0,17.594-7.893,17.594-17.594V266.24h-307.2V300.373z"/>
<path style="fill:#EA3457;" d="M314.027,150.187h48.462c37.33,0,67.591,30.261,67.591,67.591v41.636H314.027V150.187z"/>
<path style="fill:#602F75;" d="M430.08,266.24H314.027c-3.77,0-6.827-3.053-6.827-6.827V150.187c0-3.773,3.057-6.827,6.827-6.827
	h48.462c41.033,0,74.418,33.386,74.418,74.419v41.634C436.907,263.187,433.85,266.24,430.08,266.24z M320.853,252.587h102.4v-34.807
	c0-33.505-27.261-60.766-60.764-60.766h-41.636V252.587z"/>
<path style="fill:#FFFFFF;" d="M409.6,218.453h-75.093v-40.96h34.133C391.262,177.493,409.6,195.831,409.6,218.453L409.6,218.453z"
	/>
<path style="fill:#602F75;" d="M409.6,225.28h-75.093c-3.77,0-6.827-3.053-6.827-6.827v-40.96c0-3.773,3.057-6.827,6.827-6.827
	h34.133c26.349,0,47.787,21.439,47.787,47.787C416.427,222.227,413.37,225.28,409.6,225.28z M341.333,211.627h60.754
	c-3.169-15.56-16.963-27.307-33.447-27.307h-27.307V211.627z"/>
<circle style="fill:#FFFFFF;" cx="163.84" cy="307.2" r="27.307"/>
<path style="fill:#602F75;" d="M163.84,341.333c-18.819,0-34.133-15.314-34.133-34.133s15.314-34.133,34.133-34.133
	c18.819,0,34.133,15.314,34.133,34.133S182.659,341.333,163.84,341.333z M163.84,286.72c-11.293,0-20.48,9.187-20.48,20.48
	s9.187,20.48,20.48,20.48c11.293,0,20.48-9.187,20.48-20.48S175.133,286.72,163.84,286.72z"/>
<circle style="fill:#FFFFFF;" cx="375.467" cy="307.2" r="27.307"/>
<g>
	<path style="fill:#602F75;" d="M375.467,341.333c-18.819,0-34.133-15.314-34.133-34.133s15.314-34.133,34.133-34.133
		S409.6,288.381,409.6,307.2S394.286,341.333,375.467,341.333z M375.467,286.72c-11.293,0-20.48,9.187-20.48,20.48
		s9.187,20.48,20.48,20.48s20.48-9.187,20.48-20.48S386.76,286.72,375.467,286.72z"/>
	<path style="fill:#602F75;" d="M430.08,341.333H13.653c-3.77,0-6.827-3.053-6.827-6.827s3.057-6.827,6.827-6.827H430.08
		c3.77,0,6.827,3.053,6.827,6.827S433.85,341.333,430.08,341.333z"/>
</g>
<g>
</g>
<g>
</g>
<g>
</g>
<g>
</g>
<g>
</g>
<g>
</g>
<g>
</g>
<g>
</g>
<g>
</g>
<g>
</g>
<g>
</g>
<g>
</g>
<g>
</g>
<g>
</g>
<g>
</g>
</svg>
