<?xml version="1.0" encoding="iso-8859-1"?>
<!-- Generator: Adobe Illustrator 19.0.0, SVG Export Plug-In . SVG Version: 6.00 Build 0)  -->
<svg version="1.1" id="Capa_1" xmlns="http://www.w3.org/2000/svg" xmlns:xlink="http://www.w3.org/1999/xlink" x="0px" y="0px"
	 viewBox="0 0 409.6 409.6" style="enable-background:new 0 0 409.6 409.6;" xml:space="preserve">
<rect x="184.32" y="296.96" style="fill:#FFFFFF;" width="40.96" height="61.44"/>
<path style="fill:#602F75;" d="M225.28,365.227h-40.96c-3.77,0-6.827-3.053-6.827-6.827v-61.44c0-3.773,3.057-6.827,6.827-6.827
	h40.96c3.77,0,6.827,3.053,6.827,6.827v61.44C232.107,362.173,229.05,365.227,225.28,365.227z M191.147,351.573h27.307v-47.787
	h-27.307V351.573z"/>
<path style="fill:#00E7FF;" d="M383.085,64.853c10.873,0,19.688,8.815,19.688,19.688v206.385c0,10.873-8.815,19.688-19.688,19.688
	H26.515c-10.873-0.002-19.688-8.817-19.688-19.69V84.541c0-10.873,8.815-19.688,19.688-19.688"/>
<path style="fill:#602F75;" d="M383.087,317.44H26.513C11.894,317.44,0,305.546,0,290.927V84.54
	C0,69.92,11.894,58.027,26.513,58.027c3.77,0,6.827,3.053,6.827,6.827c0,3.773-3.057,6.827-6.827,6.827
	c-7.089,0-12.86,5.767-12.86,12.86v206.387c0,7.093,5.77,12.86,12.86,12.86h356.574c7.089,0,12.86-5.767,12.86-12.86V84.54
	c0-7.093-5.77-12.86-12.86-12.86c-3.77,0-6.827-3.053-6.827-6.827c0-3.773,3.057-6.827,6.827-6.827
	c14.619,0,26.513,11.894,26.513,26.513v206.387C409.6,305.546,397.706,317.44,383.087,317.44z"/>
<rect x="150.187" y="358.4" style="fill:#FFFFFF;" width="109.227" height="20.48"/>
<path style="fill:#602F75;" d="M259.413,385.707H150.187c-3.77,0-6.827-3.053-6.827-6.827V358.4c0-3.773,3.057-6.827,6.827-6.827
	h109.227c3.77,0,6.827,3.053,6.827,6.827v20.48C266.24,382.653,263.183,385.707,259.413,385.707z M157.013,372.053h95.573v-6.827
	h-95.573V372.053z"/>
<rect x="61.44" y="30.72" style="fill:#FFFFFF;" width="286.72" height="116.053"/>
<path style="fill:#602F75;" d="M348.16,153.6H61.44c-3.77,0-6.827-3.053-6.827-6.827V30.72c0-3.773,3.057-6.827,6.827-6.827h286.72
	c3.77,0,6.827,3.053,6.827,6.827v116.053C354.987,150.547,351.93,153.6,348.16,153.6z M68.267,139.947h273.067v-102.4H68.267
	V139.947z"/>
<rect x="61.44" y="139.947" style="fill:#FFFFFF;" width="286.72" height="170.667"/>
<path style="fill:#602F75;" d="M348.16,317.44H61.44c-3.77,0-6.827-3.053-6.827-6.827V139.947c0-3.773,3.057-6.827,6.827-6.827
	h286.72c3.77,0,6.827,3.053,6.827,6.827v170.667C354.987,314.387,351.93,317.44,348.16,317.44z M68.267,303.787h273.067V146.773
	H68.267V303.787z"/>
<circle style="fill:#FFE600;" cx="191.147" cy="78.507" r="20.48"/>
<g>
	<path style="fill:#602F75;" d="M191.147,105.813c-15.056,0-27.307-12.247-27.307-27.307S176.09,51.2,191.147,51.2
		c15.056,0,27.307,12.247,27.307,27.307S206.203,105.813,191.147,105.813z M191.147,64.853c-7.53,0-13.653,6.127-13.653,13.653
		s6.124,13.653,13.653,13.653S204.8,86.033,204.8,78.507S198.676,64.853,191.147,64.853z"/>
	<path style="fill:#602F75;" d="M225.28,119.467c-1.746,0-3.494-0.667-4.826-2L203.387,100.4c-2.666-2.666-2.666-6.987,0-9.653
		c2.666-2.666,6.987-2.666,9.653,0l17.067,17.067c2.666,2.666,2.666,6.987,0,9.653C228.774,118.799,227.026,119.467,225.28,119.467z
		"/>
</g>
<polyline style="fill:#FFFFFF;" points="136.533,167.253 136.533,167.253 157.013,249.173 273.067,249.173 286.72,180.907 
	143.36,180.907 "/>
<g>
	<path style="fill:#EA3457;" d="M273.067,256H157.013c-3.133,0-5.864-2.133-6.624-5.173l-20.48-81.92
		c-0.913-3.654,1.311-7.359,4.966-8.274c3.654-0.906,7.363,1.3,8.281,4.966l2.12,8.48H286.72c2.046,0,3.983,0.92,5.28,2.5
		s1.816,3.661,1.413,5.666l-13.653,68.267C279.124,253.699,276.32,256,273.067,256z M162.343,242.347h105.127l10.923-54.613H148.69
		L162.343,242.347z"/>
	<g>
		<circle style="fill:#EA3457;" cx="184.32" cy="269.653" r="13.653"/>
		<circle style="fill:#EA3457;" cx="245.76" cy="269.653" r="13.653"/>
	</g>
	<path style="fill:#EA3457;" d="M279.893,221.867H150.187c-3.77,0-6.827-3.053-6.827-6.827s3.057-6.827,6.827-6.827h129.707
		c3.77,0,6.827,3.053,6.827,6.827S283.663,221.867,279.893,221.867z"/>
	<path style="fill:#EA3457;" d="M136.533,174.08h-20.48c-3.77,0-6.827-3.053-6.827-6.827s3.057-6.827,6.827-6.827h20.48
		c3.77,0,6.827,3.053,6.827,6.827S140.303,174.08,136.533,174.08z"/>
</g>
<g>
</g>
<g>
</g>
<g>
</g>
<g>
</g>
<g>
</g>
<g>
</g>
<g>
</g>
<g>
</g>
<g>
</g>
<g>
</g>
<g>
</g>
<g>
</g>
<g>
</g>
<g>
</g>
<g>
</g>
</svg>
