<?xml version="1.0" encoding="iso-8859-1"?>
<!-- Generator: Adobe Illustrator 19.0.0, SVG Export Plug-In . SVG Version: 6.00 Build 0)  -->
<svg version="1.1" id="Capa_1" xmlns="http://www.w3.org/2000/svg" xmlns:xlink="http://www.w3.org/1999/xlink" x="0px" y="0px"
	 viewBox="0 0 423.253 423.253" style="enable-background:new 0 0 423.253 423.253;" xml:space="preserve">
<g>
	<circle style="fill:#00E7FF;" cx="211.627" cy="170.667" r="122.88"/>
	<path style="fill:#00E7FF;" d="M211.627,300.373c-71.52,0-129.707-58.187-129.707-129.707S140.107,40.96,211.627,40.96
		s129.707,58.187,129.707,129.707S283.146,300.373,211.627,300.373z M211.627,54.613c-63.993,0-116.053,52.06-116.053,116.053
		s52.06,116.053,116.053,116.053S327.68,234.66,327.68,170.667S275.62,54.613,211.627,54.613z"/>
</g>
<path style="fill:#FFFFFF;" d="M289.493,166.833l-4.205-54.17c-15.148-7.014-25.875-10.575-25.875-30.744
	c0-18.118,8.644-47.534,21.383-55.636l-1.722-19.458h-26.107c-8.267,8.153-23.665,13.653-41.341,13.653s-33.075-5.501-41.341-13.653
	h-26.107l-1.722,19.458c12.739,8.102,21.383,37.518,21.383,55.636c0,20.169-10.726,23.729-25.875,30.744l-13.972,179.948
	c-0.604,11.643,8.673,21.415,20.332,21.415h134.603c11.66,0,20.937-9.772,20.332-21.417l-6.598-84.977"/>
<path style="fill:#602F75;" d="M278.927,320.853h-134.6c-7.53,0-14.534-3.007-19.721-8.474c-5.183-5.46-7.823-12.607-7.431-20.12
	l13.983-180.12c0.193-2.466,1.696-4.634,3.937-5.666l2.816-1.294c13.512-6.173,19.101-8.733,19.101-23.26
	c0-17.234-8.407-43.633-18.22-49.874c-2.154-1.367-3.364-3.82-3.137-6.361l1.724-19.459C137.694,2.7,140.643,0,144.179,0h26.107
	c1.794,0,3.517,0.707,4.794,1.966c7.31,7.207,21.313,11.687,36.547,11.687c15.234,0,29.237-4.48,36.547-11.687
	c1.277-1.26,3-1.966,4.794-1.966h26.107c3.536,0,6.487,2.7,6.799,6.226l1.724,19.459c0.227,2.54-0.983,4.994-3.137,6.361
	c-9.813,6.241-18.22,32.64-18.22,49.874c0,14.527,5.589,17.087,19.099,23.26l2.816,1.294c2.239,1.033,3.743,3.2,3.937,5.666
	l4.207,54.166c0.29,3.76-2.521,7.04-6.277,7.334c-3.804,0.307-7.043-2.526-7.337-6.281l-3.896-50.161
	c-13.595-6.226-26.202-12.465-26.202-35.279c0-17.3,7.47-46.486,21.081-58.74l-0.845-9.527h-17.215
	c-10.15,8.593-26.317,13.653-43.981,13.653s-33.83-5.06-43.981-13.653h-17.217l-0.843,9.527
	c13.611,12.254,21.081,41.44,21.081,58.74c0,22.813-12.607,29.053-26.204,35.28l-13.664,175.94c-0.183,3.567,1.13,7.127,3.71,9.841
	c2.58,2.72,6.067,4.221,9.817,4.221h134.6c3.75,0,7.236-1.5,9.817-4.221c2.58-2.714,3.893-6.274,3.7-10.013l-6.589-84.806
	c-0.29-3.76,2.521-7.04,6.277-7.334c3.739-0.307,7.043,2.521,7.337,6.281l6.6,84.98c0.403,7.687-2.237,14.833-7.421,20.294
	C293.46,317.846,286.457,320.853,278.927,320.853z"/>
<rect x="184.32" y="81.92" style="fill:#602F75;" width="75.093" height="13.653"/>
<rect x="197.973" y="314.027" style="fill:#EA3457;" width="27.307" height="88.747"/>
<path style="fill:#602F75;" d="M225.28,409.6h-27.307c-3.77,0-6.827-3.053-6.827-6.827v-88.747c0-3.773,3.057-6.827,6.827-6.827
	h27.307c3.77,0,6.827,3.053,6.827,6.827v88.747C232.107,406.547,229.05,409.6,225.28,409.6z M204.8,395.947h13.653v-75.093H204.8
	V395.947z"/>
<rect x="163.84" y="395.947" style="fill:#FFE600;" width="95.573" height="20.48"/>
<path style="fill:#602F75;" d="M259.413,423.253H163.84c-3.77,0-6.827-3.053-6.827-6.827v-20.48c0-3.773,3.057-6.827,6.827-6.827
	h95.573c3.77,0,6.827,3.053,6.827,6.827v20.48C266.24,420.2,263.183,423.253,259.413,423.253z M170.667,409.6h81.92v-6.827h-81.92
	V409.6z"/>
<g>
</g>
<g>
</g>
<g>
</g>
<g>
</g>
<g>
</g>
<g>
</g>
<g>
</g>
<g>
</g>
<g>
</g>
<g>
</g>
<g>
</g>
<g>
</g>
<g>
</g>
<g>
</g>
<g>
</g>
</svg>
