<?xml version="1.0" encoding="iso-8859-1"?>
<!-- Generator: Adobe Illustrator 19.0.0, SVG Export Plug-In . SVG Version: 6.00 Build 0)  -->
<svg version="1.1" id="Capa_1" xmlns="http://www.w3.org/2000/svg" xmlns:xlink="http://www.w3.org/1999/xlink" x="0px" y="0px"
	 viewBox="0 0 423.253 423.253" style="enable-background:new 0 0 423.253 423.253;" xml:space="preserve">
<g>
	<path style="fill:#EA3457;" d="M301.155,368.64H122.098c-18.42,0-33.352-14.932-33.352-33.352v-151.75
		c0-18.42,14.932-33.352,33.352-33.352h179.057c18.42,0,33.352,14.932,33.352,33.352v151.75
		C334.507,353.708,319.575,368.64,301.155,368.64z"/>
	<path style="fill:#EA3457;" d="M301.157,375.467h-179.06c-22.153,0-40.177-18.026-40.177-40.18V183.54
		c0-22.154,18.024-40.18,40.177-40.18h179.06c22.153,0,40.177,18.026,40.177,40.18v151.747
		C341.333,357.441,323.309,375.467,301.157,375.467z M122.097,157.013c-14.623,0-26.523,11.901-26.523,26.527v151.747
		c0,14.626,11.901,26.527,26.523,26.527h179.06c14.623,0,26.523-11.901,26.523-26.527V183.54c0-14.626-11.901-26.527-26.523-26.527
		H122.097z"/>
</g>
<path style="fill:#FFFFFF;" d="M292.246,253.295l-6.96-140.631c-15.147-7.014-25.873-10.574-25.873-30.744
	c0-18.118,8.644-47.534,21.383-55.636l-1.722-19.458h-26.107c-8.267,8.153-23.665,13.653-41.341,13.653s-33.075-5.501-41.341-13.653
	h-26.107l-1.722,19.458c12.739,8.102,21.383,37.518,21.383,55.636c0,20.169-10.726,23.729-25.875,30.744l-13.972,282.348
	c-0.604,11.643,8.673,21.415,20.332,21.415h134.603c11.66,0,20.937-9.772,20.332-21.417l-5.021-101.468"/>
<g>
	<path style="fill:#602F75;" d="M278.927,423.253h-134.6c-7.53,0-14.534-3.007-19.721-8.474c-5.183-5.46-7.823-12.607-7.431-20.12
		l13.971-282.334c0.126-2.533,1.65-4.787,3.949-5.854l2.816-1.294c13.512-6.171,19.101-8.731,19.101-23.258
		c0-17.234-8.407-43.633-18.22-49.874c-2.154-1.367-3.364-3.82-3.137-6.361l1.724-19.459C137.694,2.7,140.643,0,144.179,0h26.107
		c1.794,0,3.517,0.707,4.794,1.966c7.31,7.207,21.313,11.687,36.547,11.687c15.234,0,29.237-4.48,36.547-11.687
		c1.277-1.26,3-1.966,4.794-1.966h26.107c3.536,0,6.487,2.7,6.799,6.226l1.724,19.459c0.227,2.54-0.983,4.994-3.137,6.361
		c-9.813,6.241-18.22,32.64-18.22,49.874c0,14.527,5.589,17.087,19.099,23.26l2.816,1.294c2.301,1.067,3.823,3.319,3.949,5.854
		l6.96,140.626c0.183,3.767-2.717,6.973-6.484,7.159c-3.763,0.213-6.97-2.72-7.156-6.48l-6.753-136.487
		c-13.551-6.212-26.085-12.479-26.085-35.226c0-17.3,7.47-46.486,21.081-58.74l-0.845-9.527h-17.215
		c-10.15,8.593-26.317,13.653-43.981,13.653s-33.83-5.06-43.981-13.653h-17.217l-0.843,9.527
		c13.611,12.254,21.081,41.44,21.081,58.74c0,22.746-12.534,29.013-26.086,35.227l-13.769,278.207
		c-0.193,3.753,1.12,7.313,3.7,10.027c2.58,2.72,6.067,4.221,9.817,4.221h134.6c3.75,0,7.236-1.5,9.817-4.221
		c2.58-2.714,3.893-6.274,3.7-10.013l-5.023-101.487c-0.183-3.767,2.717-6.973,6.484-7.159c3.683-0.307,6.963,2.72,7.153,6.48
		l5.019,101.473c0.393,7.501-2.246,14.647-7.431,20.106C293.46,420.246,286.457,423.253,278.927,423.253z"/>
	
		<rect x="95.219" y="341.347" transform="matrix(-0.0996 0.995 -0.995 -0.0996 526.5847 219.8423)" style="fill:#602F75;" width="137.212" height="13.653"/>
	
		<rect x="160.247" y="375.467" transform="matrix(-0.0996 0.995 -0.995 -0.0996 594.3198 226.7885)" style="fill:#602F75;" width="68.606" height="13.653"/>
	
		<rect x="252.584" y="204.588" transform="matrix(-0.9978 0.0665 -0.0665 -0.9978 538.6746 596.5099)" style="fill:#602F75;" width="13.65" height="205.264"/>
</g>
<rect x="184.32" y="81.92" style="fill:#602F75;" width="75.093" height="13.653"/>
<g>
	<circle style="fill:#FFE600;" cx="320.853" cy="68.267" r="20.48"/>
	<path style="fill:#FFE600;" d="M320.853,95.573c-15.056,0-27.307-12.247-27.307-27.307s12.25-27.307,27.307-27.307
		c15.056,0,27.307,12.247,27.307,27.307S335.91,95.573,320.853,95.573z M320.853,54.613c-7.53,0-13.653,6.127-13.653,13.653
		s6.124,13.653,13.653,13.653s13.653-6.127,13.653-13.653S328.383,54.613,320.853,54.613z"/>
</g>
<g>
	<circle style="fill:#00E7FF;" cx="102.4" cy="68.267" r="20.48"/>
	<path style="fill:#00E7FF;" d="M102.4,95.573c-15.056,0-27.307-12.247-27.307-27.307S87.344,40.96,102.4,40.96
		s27.307,12.247,27.307,27.307S117.456,95.573,102.4,95.573z M102.4,54.613c-7.53,0-13.653,6.127-13.653,13.653
		S94.87,81.92,102.4,81.92s13.653-6.127,13.653-13.653S109.93,54.613,102.4,54.613z"/>
</g>
<g>
</g>
<g>
</g>
<g>
</g>
<g>
</g>
<g>
</g>
<g>
</g>
<g>
</g>
<g>
</g>
<g>
</g>
<g>
</g>
<g>
</g>
<g>
</g>
<g>
</g>
<g>
</g>
<g>
</g>
</svg>
