<?xml version="1.0" encoding="iso-8859-1"?>
<!-- Generator: Adobe Illustrator 19.0.0, SVG Export Plug-In . SVG Version: 6.00 Build 0)  -->
<svg version="1.1" id="Capa_1" xmlns="http://www.w3.org/2000/svg" xmlns:xlink="http://www.w3.org/1999/xlink" x="0px" y="0px"
	 viewBox="0 0 436.907 436.907" style="enable-background:new 0 0 436.907 436.907;" xml:space="preserve">
<path style="fill:#EA3457;" d="M64.853,150.187c-32.048,0-58.027-25.979-58.027-58.027l0,0c0-32.048,25.979-58.027,58.027-58.027
	h307.2c32.048,0,58.027,25.979,58.027,58.027l0,0c0,32.048-25.979,58.027-58.027,58.027h-235.52"/>
<path style="fill:#602F75;" d="M372.053,157.013h-235.52c-3.773,0-6.827-3.053-6.827-6.827s3.053-6.827,6.827-6.827h235.52
	c28.233,0,51.2-22.967,51.2-51.2s-22.967-51.2-51.2-51.2h-307.2c-28.233,0-51.2,22.967-51.2,51.2s22.967,51.2,51.2,51.2
	c3.773,0,6.827,3.053,6.827,6.827s-3.053,6.827-6.827,6.827C29.094,157.013,0,127.92,0,92.16s29.094-64.853,64.853-64.853h307.2
	c35.76,0,64.853,29.094,64.853,64.853S407.813,157.013,372.053,157.013z"/>
<g>
	<path style="fill:#FFE600;" d="M81.741,95.514c0,7.141-1.98,12.6-5.946,16.374c-3.959,3.78-9.673,5.666-17.126,5.666h-12.1V74.307
		h13.373c6.88,0,12.233,1.853,16.06,5.56C79.828,83.574,81.741,88.793,81.741,95.514z M74.286,95.753
		c0-10.353-4.84-15.534-14.527-15.534h-6.118v31.387h5.026C69.081,111.607,74.286,106.32,74.286,95.753z"/>
	<path style="fill:#FFE600;" d="M129.427,95.874c0,7.04-1.76,12.513-5.28,16.413c-3.519,3.907-8.506,5.861-14.954,5.861
		c-6.526,0-11.547-1.94-15.046-5.813s-5.246-9.38-5.246-16.521c0-7.141,1.76-12.621,5.28-16.447c3.521-3.826,8.54-5.74,15.073-5.74
		c6.427,0,11.394,1.94,14.906,5.827C127.667,83.34,129.427,88.813,129.427,95.874z M96.413,95.874c0,5.32,1.073,9.359,3.227,12.114
		c2.147,2.746,5.333,4.127,9.554,4.127c4.2,0,7.366-1.367,9.506-4.087c2.14-2.72,3.214-6.774,3.214-12.153
		c0-5.306-1.06-9.327-3.18-12.073c-2.12-2.739-5.28-4.106-9.481-4.106c-4.239,0-7.439,1.367-9.6,4.106
		C97.493,86.547,96.413,90.566,96.413,95.874z"/>
	<path style="fill:#FFE600;" d="M178.613,117.553h-7.694l-7.334-25.793c-0.314-1.126-0.713-2.746-1.186-4.867
		c-0.473-2.121-0.759-3.593-0.853-4.42c-0.2,1.26-0.521,2.9-0.959,4.907c-0.447,2.014-0.819,3.514-1.113,4.5l-7.159,25.673h-7.687
		l-5.593-21.654l-5.68-21.593h7.219l6.18,25.201c0.966,4.047,1.661,7.613,2.074,10.713c0.213-1.679,0.539-3.553,0.973-5.62
		c0.433-2.074,0.826-3.746,1.186-5.033l7.04-25.26h7.006l7.219,25.38c0.686,2.347,1.42,5.861,2.186,10.534
		c0.3-2.819,1.007-6.414,2.133-10.767l6.153-25.146h7.153L178.613,117.553z"/>
	<path style="fill:#FFE600;" d="M232.033,117.553h-8.666l-21.274-34.459h-0.234l0.147,1.92c0.273,3.666,0.413,7.02,0.413,10.061
		v22.48h-6.42V74.308h8.579l21.207,34.287h0.179c-0.039-0.454-0.119-2.106-0.234-4.96c-0.119-2.847-0.179-5.074-0.179-6.666V74.307
		h6.48v43.247H232.033z"/>
	<path style="fill:#FFE600;" d="M243.447,117.553V74.307h7.074v37.18h18.307v6.067L243.447,117.553L243.447,117.553z"/>
	<path style="fill:#FFE600;" d="M314.68,95.874c0,7.04-1.76,12.513-5.28,16.413c-3.519,3.907-8.506,5.861-14.954,5.861
		c-6.526,0-11.547-1.94-15.046-5.813c-3.499-3.872-5.246-9.38-5.246-16.521c0-7.141,1.76-12.621,5.28-16.447
		c3.521-3.826,8.54-5.74,15.073-5.74c6.427,0,11.394,1.94,14.906,5.827C312.921,83.34,314.68,88.813,314.68,95.874z M281.667,95.874
		c0,5.32,1.073,9.359,3.227,12.114c2.147,2.746,5.333,4.127,9.554,4.127c4.2,0,7.366-1.367,9.506-4.087
		c2.14-2.72,3.214-6.774,3.214-12.153c0-5.306-1.06-9.327-3.18-12.073c-2.12-2.739-5.28-4.106-9.48-4.106
		c-4.239,0-7.439,1.367-9.6,4.106C282.747,86.547,281.667,90.566,281.667,95.874z"/>
	<path style="fill:#FFE600;" d="M350.793,117.553l-4.32-12.006H329.94l-4.233,12.006h-7.453l16.179-43.426h7.694l16.179,43.426
		H350.793z M344.607,99.453L340.56,87.68c-0.3-0.794-0.707-2.033-1.234-3.727c-0.521-1.7-0.881-2.941-1.08-3.734
		c-0.527,2.427-1.307,5.081-2.333,7.96l-3.907,11.273h12.6V99.453z"/>
	<path style="fill:#FFE600;" d="M399.186,95.514c0,7.141-1.98,12.6-5.946,16.374c-3.959,3.78-9.673,5.666-17.126,5.666h-12.1V74.307
		h13.373c6.88,0,12.233,1.853,16.06,5.56S399.186,88.793,399.186,95.514z M391.733,95.753c0-10.353-4.84-15.534-14.527-15.534h-6.12
		v31.387h5.026C386.526,111.607,391.733,106.32,391.733,95.753z"/>
</g>
<path style="fill:#FFFFFF;" d="M163.603,191.147l-54.376-6.827v-64.853c0-9.426-7.641-17.067-17.067-17.067
	s-17.067,7.641-17.067,17.067v71.68v34.133v55.537c0,12.535,8.762,22.977,20.48,25.667v96.29h88.747v-96.29
	c11.718-2.688,20.48-13.131,20.48-25.667v-48.471C204.8,209.592,186.354,191.147,163.603,191.147z"/>
<g>
	<path style="fill:#602F75;" d="M184.32,409.6H95.573c-3.773,0-6.827-3.053-6.827-6.827v-91.32
		c-12.286-5.053-20.48-16.973-20.48-30.64V119.467c0-13.174,10.72-23.893,23.893-23.893s23.893,10.72,23.893,23.893v58.834
		l47.986,6.019c26.281,0.241,47.587,21.693,47.587,48.027v48.466c0,13.667-8.194,25.586-20.48,30.64v91.32
		C191.147,406.547,188.093,409.6,184.32,409.6z M102.4,395.947h75.093V306.48c0-3.18,2.2-5.939,5.299-6.653
		c8.94-2.046,15.181-9.866,15.181-19.014v-48.466c0-18.953-15.42-34.374-34.374-34.374c-0.287,0-0.567-0.02-0.853-0.053
		l-54.373-6.827c-3.413-0.427-5.973-3.333-5.973-6.774v-64.853c0-5.647-4.593-10.24-10.24-10.24c-5.647,0-10.24,4.593-10.24,10.24
		v161.347c0,9.146,6.24,16.966,15.181,19.014c3.099,0.713,5.299,3.473,5.299,6.653L102.4,395.947L102.4,395.947z"/>
	<path style="fill:#602F75;" d="M109.227,225.28c-3.773,0-6.827-3.053-6.827-6.827V184.32c0-3.773,3.053-6.827,6.827-6.827
		s6.827,3.053,6.827,6.827v34.133C116.053,222.227,113,225.28,109.227,225.28z"/>
	<path style="fill:#602F75;" d="M136.533,218.453c-3.773,0-6.827-3.053-6.827-6.827v-20.48c0-3.773,3.053-6.827,6.827-6.827
		s6.827,3.053,6.827,6.827v20.48C143.36,215.4,140.307,218.453,136.533,218.453z"/>
	<path style="fill:#602F75;" d="M163.84,218.453c-3.773,0-6.827-3.053-6.827-6.827v-20.48c0-3.773,3.053-6.827,6.827-6.827
		c3.773,0,6.827,3.053,6.827,6.827v20.48C170.667,215.4,167.613,218.453,163.84,218.453z"/>
</g>
<g>
	<path style="fill:#00E7FF;" d="M269.066,214.453c-1.746,0-3.494-0.667-4.826-2l-19.306-19.306c-2.666-2.666-2.666-6.987,0-9.653
		s6.987-2.666,9.653,0l19.306,19.306c2.666,2.666,2.666,6.987,0,9.653C272.56,213.787,270.814,214.453,269.066,214.453z"/>
	<path style="fill:#00E7FF;" d="M249.76,214.453c-1.746,0-3.494-0.667-4.826-2c-2.666-2.666-2.666-6.987,0-9.653l19.306-19.306
		c2.666-2.666,6.987-2.666,9.653,0s2.666,6.987,0,9.653l-19.306,19.306C253.254,213.787,251.506,214.453,249.76,214.453z"/>
	<path style="fill:#00E7FF;" d="M398.773,289.546c-1.746,0-3.494-0.667-4.826-2l-19.306-19.306c-2.666-2.666-2.666-6.987,0-9.653
		c2.666-2.666,6.987-2.666,9.653,0l19.306,19.306c2.666,2.666,2.666,6.987,0,9.653C402.266,288.881,400.521,289.546,398.773,289.546
		z"/>
	<path style="fill:#00E7FF;" d="M379.467,289.546c-1.746,0-3.494-0.667-4.826-2c-2.666-2.666-2.666-6.987,0-9.653l19.306-19.306
		c2.666-2.666,6.987-2.666,9.653,0c2.666,2.666,2.666,6.987,0,9.653l-19.306,19.306
		C382.961,288.881,381.213,289.546,379.467,289.546z"/>
</g>
<g>
</g>
<g>
</g>
<g>
</g>
<g>
</g>
<g>
</g>
<g>
</g>
<g>
</g>
<g>
</g>
<g>
</g>
<g>
</g>
<g>
</g>
<g>
</g>
<g>
</g>
<g>
</g>
<g>
</g>
</svg>
