<?xml version="1.0" encoding="iso-8859-1"?>
<!-- Generator: Adobe Illustrator 19.0.0, SVG Export Plug-In . SVG Version: 6.00 Build 0)  -->
<svg version="1.1" id="Capa_1" xmlns="http://www.w3.org/2000/svg" xmlns:xlink="http://www.w3.org/1999/xlink" x="0px" y="0px"
	 viewBox="0 0 423.253 423.253" style="enable-background:new 0 0 423.253 423.253;" xml:space="preserve">
<rect x="6.827" y="129.707" style="fill:#FFFFFF;" width="409.6" height="163.84"/>
<path style="fill:#602F75;" d="M416.427,300.373H6.827c-3.77,0-6.827-3.053-6.827-6.827v-163.84c0-3.773,3.057-6.827,6.827-6.827
	h409.6c3.77,0,6.827,3.053,6.827,6.827v163.84C423.253,297.32,420.197,300.373,416.427,300.373z M13.653,286.72H409.6V136.533
	H13.653V286.72z"/>
<path style="fill:#FFFFFF;" d="M211.627,266.24c30.162,0,54.613-24.451,54.613-54.613s-24.451-54.613-54.613-54.613V266.24z"/>
<g>
	<path style="fill:#602F75;" d="M211.627,273.067H204.8v-122.88h6.827c33.877,0,61.44,27.559,61.44,61.44
		S245.504,273.067,211.627,273.067z M218.453,164.326v94.601c23.127-3.319,40.96-23.267,40.96-47.3S241.58,167.646,218.453,164.326z
		"/>
	<path style="fill:#602F75;" d="M416.427,177.493c-26.349,0-47.787-21.439-47.787-47.787c0-3.773,3.057-6.827,6.827-6.827
		s6.827,3.053,6.827,6.827c0,18.819,15.314,34.133,34.133,34.133c3.77,0,6.827,3.053,6.827,6.827S420.197,177.493,416.427,177.493z"
		/>
	<path style="fill:#602F75;" d="M375.467,300.373c-3.77,0-6.827-3.053-6.827-6.827c0-26.348,21.437-47.787,47.787-47.787
		c3.77,0,6.827,3.053,6.827,6.827s-3.057,6.827-6.827,6.827c-18.819,0-34.133,15.314-34.133,34.133
		C382.293,297.32,379.237,300.373,375.467,300.373z"/>
	<path style="fill:#602F75;" d="M6.827,177.493c-3.77,0-6.827-3.053-6.827-6.827s3.057-6.827,6.827-6.827
		c18.819,0,34.133-15.314,34.133-34.133c0-3.773,3.057-6.827,6.827-6.827c3.77,0,6.827,3.053,6.827,6.827
		C54.613,156.054,33.176,177.493,6.827,177.493z"/>
	<path style="fill:#602F75;" d="M47.787,300.373c-3.77,0-6.827-3.053-6.827-6.827c0-18.819-15.314-34.133-34.133-34.133
		c-3.77,0-6.827-3.053-6.827-6.827s3.057-6.827,6.827-6.827c26.349,0,47.787,21.439,47.787,47.787
		C54.613,297.32,51.557,300.373,47.787,300.373z"/>
</g>
<g>
	<rect x="88.747" y="184.32" style="fill:#FFE600;" width="245.76" height="61.44"/>
	<path style="fill:#FFE600;" d="M334.507,252.587H88.747c-3.77,0-6.827-3.053-6.827-6.827v-61.44c0-3.773,3.057-6.827,6.827-6.827
		h245.76c3.77,0,6.827,3.053,6.827,6.827v61.44C341.333,249.533,338.277,252.587,334.507,252.587z M95.573,238.933H327.68v-47.787
		H95.573V238.933z"/>
</g>
<circle style="fill:#EA3457;" cx="211.627" cy="211.627" r="54.613"/>
<path style="fill:#602F75;" d="M211.627,273.067c-33.877,0-61.44-27.559-61.44-61.44s27.563-61.44,61.44-61.44
	s61.44,27.559,61.44,61.44S245.504,273.067,211.627,273.067z M211.627,163.84c-26.349,0-47.787,21.439-47.787,47.787
	s21.437,47.787,47.787,47.787s47.787-21.439,47.787-47.787S237.976,163.84,211.627,163.84z"/>
<g>
	<path style="fill:#00E7FF;" d="M211.627,109.227c-3.77,0-6.827-3.053-6.827-6.827V68.267c0-3.773,3.057-6.827,6.827-6.827
		c3.77,0,6.827,3.053,6.827,6.827V102.4C218.453,106.173,215.397,109.227,211.627,109.227z"/>
	<path style="fill:#00E7FF;" d="M245.76,109.227c-1.746,0-3.494-0.667-4.826-2c-2.666-2.666-2.666-6.987,0-9.653l23.893-23.893
		c2.666-2.666,6.987-2.666,9.653,0c2.666,2.666,2.666,6.987,0,9.653l-23.893,23.893C249.254,108.559,247.506,109.227,245.76,109.227
		z"/>
	<path style="fill:#00E7FF;" d="M174.08,109.227c-1.746,0-3.494-0.667-4.826-2L145.36,83.333c-2.666-2.666-2.666-6.987,0-9.653
		c2.666-2.666,6.987-2.666,9.653,0l23.893,23.893c2.666,2.666,2.666,6.987,0,9.653C177.574,108.559,175.826,109.227,174.08,109.227z
		"/>
	<path style="fill:#00E7FF;" d="M211.627,361.813c-3.77,0-6.827-3.053-6.827-6.827v-34.133c0-3.773,3.057-6.827,6.827-6.827
		c3.77,0,6.827,3.053,6.827,6.827v34.133C218.453,358.76,215.397,361.813,211.627,361.813z"/>
	<path style="fill:#00E7FF;" d="M269.653,351.573c-1.746,0-3.494-0.667-4.826-2l-23.893-23.893c-2.666-2.666-2.666-6.987,0-9.653
		s6.987-2.666,9.653,0l23.893,23.893c2.666,2.666,2.666,6.987,0,9.653C273.147,350.906,271.399,351.573,269.653,351.573z"/>
	<path style="fill:#00E7FF;" d="M150.187,351.573c-1.746,0-3.494-0.667-4.826-2c-2.666-2.666-2.666-6.987,0-9.653l23.893-23.893
		c2.666-2.666,6.987-2.666,9.653,0s2.666,6.987,0,9.653l-23.893,23.893C153.68,350.906,151.933,351.573,150.187,351.573z"/>
</g>
<g>
</g>
<g>
</g>
<g>
</g>
<g>
</g>
<g>
</g>
<g>
</g>
<g>
</g>
<g>
</g>
<g>
</g>
<g>
</g>
<g>
</g>
<g>
</g>
<g>
</g>
<g>
</g>
<g>
</g>
</svg>
