<?xml version="1.0" encoding="iso-8859-1"?>
<!-- Generator: Adobe Illustrator 19.0.0, SVG Export Plug-In . SVG Version: 6.00 Build 0)  -->
<svg version="1.1" id="Capa_1" xmlns="http://www.w3.org/2000/svg" xmlns:xlink="http://www.w3.org/1999/xlink" x="0px" y="0px"
	 viewBox="0 0 430.08 430.08" style="enable-background:new 0 0 430.08 430.08;" xml:space="preserve">
<path style="fill:#FFFFFF;" d="M296.96,281.69l19.985-14.135c16.44-11.626,24.093-30.433,19.799-48.654L294.016,66.56h-157.95
	L93.338,218.904c-4.294,18.22,3.359,37.028,19.799,48.654l101.903,72.069l34.133-24.141"/>
<path style="fill:#602F75;" d="M215.04,346.453c-1.381,0-2.76-0.42-3.944-1.253l-101.903-72.067
	c-18.847-13.332-27.471-34.714-22.501-55.799l42.796-152.62c0.826-2.947,3.514-4.98,6.574-4.98h157.954
	c3.06,0,5.746,2.033,6.574,4.98l42.726,152.34c5.04,21.367-3.584,42.747-22.431,56.079l-19.983,14.133
	c-3.084,2.179-7.344,1.44-9.516-1.633c-2.176-3.074-1.447-7.334,1.63-9.513l19.983-14.133c14.213-10.054,20.767-25.96,17.101-41.52
	L288.84,73.387H141.24l-41.33,147.36c-3.596,15.28,2.956,31.186,17.171,41.24l97.959,69.28l30.189-21.354
	c3.087-2.179,7.34-1.447,9.516,1.633c2.176,3.074,1.447,7.334-1.63,9.513l-34.133,24.141
	C217.8,346.034,216.421,346.453,215.04,346.453z"/>
<path style="fill:#FFFFFF;" d="M302.285,315.001c30.991,0,56.115,26.875,56.115,60.029v48.224H71.68V375.03
	c0-33.152,25.124-60.029,56.115-60.029l87.245-18.041L302.285,315.001"/>
<path style="fill:#602F75;" d="M358.4,430.08H71.68c-3.77,0-6.827-3.053-6.827-6.827v-48.227c0-36.606,27.846-66.441,62.223-66.847
	l86.579-17.906c0.913-0.186,1.853-0.186,2.767,0l86.579,17.906c34.379,0.406,62.225,30.24,62.225,66.847v48.227
	C365.227,427.027,362.17,430.08,358.4,430.08z M78.507,416.427h273.067v-41.4c0-29.334-22.11-53.2-49.29-53.2
	c-0.462,0-0.927-0.046-1.384-0.14l-85.859-17.753l-85.861,17.753c-0.457,0.094-0.92,0.14-1.384,0.14
	c-27.179,0-49.289,23.868-49.289,53.2V416.427z"/>
<path style="fill:#FFFFFF;" d="M249.173,305.493L249.173,305.493c-21.487,10.743-46.78,10.743-68.267,0l0,0V245.76h68.267V305.493z"
	/>
<path style="fill:#602F75;" d="M215.04,320.333c-12.773,0-25.544-2.913-37.187-8.733c-2.313-1.161-3.773-3.519-3.773-6.106V245.76
	c0-3.773,3.057-6.827,6.827-6.827h68.267c3.77,0,6.827,3.053,6.827,6.827v59.733c0,2.587-1.459,4.946-3.773,6.106
	C240.584,317.42,227.813,320.333,215.04,320.333z M187.733,301.133c17.367,7.414,37.246,7.414,54.613,0v-48.546h-54.613V301.133z
	 M249.173,305.493h0.067H249.173z"/>
<path style="fill:#FFFFFF;" d="M240.867,259.413h-51.654c-30.979,0-56.093-25.114-56.093-56.093V91.549
	c0-9.088,7.368-16.456,16.456-16.456h130.929c9.088,0,16.456,7.368,16.456,16.456V203.32
	C296.96,234.3,271.846,259.413,240.867,259.413z"/>
<path style="fill:#602F75;" d="M240.867,266.24h-51.654c-34.693,0-62.92-28.227-62.92-62.92V91.547
	c0-12.834,10.443-23.281,23.284-23.281h130.927c12.839,0,23.282,10.447,23.282,23.281V203.32
	C303.787,238.013,275.56,266.24,240.867,266.24z M149.577,81.92c-5.309,0-9.631,4.32-9.631,9.627V203.32
	c0,27.167,22.1,49.266,49.266,49.266h51.654c27.167,0,49.266-22.1,49.266-49.266V91.547c0-5.306-4.32-9.627-9.631-9.627H149.577z"/>
<rect x="249.173" y="354.987" style="fill:#00E7FF;" width="61.44" height="61.44"/>
<path style="fill:#FFE600;" d="M310.613,109.227c0-47.22-29.831-86.975-70.403-98.811c-8.02-2.34-16.459-3.589-25.17-3.589
	c-52.784,0-95.573,45.846-95.573,102.4H310.613z"/>
<path style="fill:#602F75;" d="M310.613,116.053H119.467c-3.77,0-6.827-3.053-6.827-6.827C112.64,49,158.577,0,215.04,0
	c9.194,0,18.304,1.3,27.083,3.86c44.344,12.94,75.317,56.265,75.317,105.366C317.44,113,314.383,116.053,310.613,116.053z
	 M126.517,102.4H303.56c-2.673-40.201-28.757-74.779-65.263-85.434c-7.533-2.2-15.36-3.313-23.257-3.313
	C168.236,13.653,129.78,52.873,126.517,102.4z"/>
<path style="fill:#EA3457;" d="M119.467,109.227c0,37.702,42.79,68.267,95.573,68.267s95.573-30.565,95.573-68.267H119.467z"/>
<g>
	<path style="fill:#602F75;" d="M215.04,184.32c-56.463,0-102.4-33.686-102.4-75.093c0-3.773,3.057-6.827,6.827-6.827h191.147
		c3.77,0,6.827,3.053,6.827,6.827C317.44,150.634,271.503,184.32,215.04,184.32z M126.836,116.053
		c4.924,30.681,42.6,54.613,88.204,54.613s83.28-23.933,88.204-54.613H126.836z"/>
	<path style="fill:#602F75;" d="M244.047,110.08c-1.126,0-2.27-0.28-3.323-0.867c-3.287-1.833-4.466-5.987-2.637-9.274
		c0.92-1.679,21.224-39.834-8.984-82.333c-2.186-3.074-1.463-7.334,1.606-9.52c3.074-2.186,7.337-1.459,9.52,1.613
		c35.374,49.76,10.844,94.979,9.783,96.881C248.764,108.82,246.439,110.08,244.047,110.08z"/>
	<path style="fill:#602F75;" d="M181.536,110.08c-2.393,0-4.717-1.26-5.967-3.5c-1.06-1.9-25.59-47.119,9.783-96.881
		c2.179-3.074,6.439-3.801,9.52-1.613c3.07,2.186,3.794,6.446,1.606,9.52c-30.426,42.807-9.207,81.927-8.991,82.319
		c1.84,3.287,0.66,7.446-2.63,9.286C183.806,109.8,182.663,110.08,181.536,110.08z"/>
	<path style="fill:#602F75;" d="M215.04,244.567c-3.707,0-7.414-0.454-11.017-1.347c-0.307-0.08-0.606-0.179-0.903-0.294
		l-11.117-4.487c-3.494-1.413-5.183-5.393-3.773-8.887c1.413-3.5,5.373-5.173,8.887-3.78l10.653,4.301
		c4.767,1.12,9.774,1.12,14.541,0l10.653-4.301c3.519-1.393,7.48,0.287,8.887,3.78c1.41,3.494-0.28,7.473-3.773,8.887l-11.117,4.487
		c-0.297,0.113-0.597,0.213-0.903,0.294C222.454,244.113,218.747,244.567,215.04,244.567z"/>
</g>
<g>
</g>
<g>
</g>
<g>
</g>
<g>
</g>
<g>
</g>
<g>
</g>
<g>
</g>
<g>
</g>
<g>
</g>
<g>
</g>
<g>
</g>
<g>
</g>
<g>
</g>
<g>
</g>
<g>
</g>
</svg>
