<?xml version="1.0" encoding="iso-8859-1"?>
<!-- Generator: Adobe Illustrator 19.0.0, SVG Export Plug-In . SVG Version: 6.00 Build 0)  -->
<svg version="1.1" id="Capa_1" xmlns="http://www.w3.org/2000/svg" xmlns:xlink="http://www.w3.org/1999/xlink" x="0px" y="0px"
	 viewBox="0 0 430.08 430.08" style="enable-background:new 0 0 430.08 430.08;" xml:space="preserve">
<g>
	<path style="fill:#00E7FF;" d="M122.88,109.227H34.133c-3.77,0-6.827-3.053-6.827-6.827s3.057-6.827,6.827-6.827h88.747
		c3.77,0,6.827,3.053,6.827,6.827S126.65,109.227,122.88,109.227z"/>
	<path style="fill:#00E7FF;" d="M122.88,143.36H102.4c-3.77,0-6.827-3.053-6.827-6.827s3.057-6.827,6.827-6.827h20.48
		c3.77,0,6.827,3.053,6.827,6.827S126.65,143.36,122.88,143.36z"/>
	<path style="fill:#00E7FF;" d="M81.92,143.36H13.653c-3.77,0-6.827-3.053-6.827-6.827s3.057-6.827,6.827-6.827H81.92
		c3.77,0,6.827,3.053,6.827,6.827S85.69,143.36,81.92,143.36z"/>
	<path style="fill:#00E7FF;" d="M122.88,177.493H95.573c-3.77,0-6.827-3.053-6.827-6.827s3.057-6.827,6.827-6.827h27.307
		c3.77,0,6.827,3.053,6.827,6.827S126.65,177.493,122.88,177.493z"/>
</g>
<path style="fill:#FFFFFF;" d="M398.834,300.373H102.4v-47.787h320.853v23.368C423.253,289.44,412.32,300.373,398.834,300.373z"/>
<path style="fill:#602F75;" d="M398.833,307.2H102.4c-3.77,0-6.827-3.053-6.827-6.827v-47.787c0-3.773,3.057-6.827,6.827-6.827
	h320.853c3.77,0,6.827,3.053,6.827,6.827v23.366C430.08,293.18,416.063,307.2,398.833,307.2z M109.227,293.547h289.606
	c9.701,0,17.594-7.893,17.594-17.594v-16.539h-307.2V293.547z"/>
<path style="fill:#FFFFFF;" d="M307.2,143.36h48.462c37.33,0,67.591,30.261,67.591,67.591v41.636H307.2V143.36z"/>
<path style="fill:#602F75;" d="M423.253,259.413H307.2c-3.77,0-6.827-3.053-6.827-6.827V143.36c0-3.773,3.057-6.827,6.827-6.827
	h48.462c41.033,0,74.418,33.386,74.418,74.419v41.634C430.08,256.36,427.023,259.413,423.253,259.413z M314.027,245.76h102.4
	v-34.807c0-33.505-27.261-60.766-60.764-60.766h-41.636V245.76z"/>
<path style="fill:#00E7FF;" d="M402.773,211.627H327.68v-40.96h34.133C384.435,170.667,402.773,189.005,402.773,211.627
	L402.773,211.627z"/>
<path style="fill:#602F75;" d="M402.773,218.453H327.68c-3.77,0-6.827-3.053-6.827-6.827v-40.96c0-3.773,3.057-6.827,6.827-6.827
	h34.133c26.349,0,47.787,21.439,47.787,47.787C409.6,215.4,406.543,218.453,402.773,218.453z M334.507,204.8h60.754
	c-3.169-15.56-16.963-27.307-33.447-27.307h-27.307V204.8z"/>
<circle style="fill:#EAEAEA;" cx="157.013" cy="300.373" r="27.307"/>
<path style="fill:#602F75;" d="M157.013,334.507c-18.819,0-34.133-15.314-34.133-34.133s15.314-34.133,34.133-34.133
	s34.133,15.314,34.133,34.133S175.833,334.507,157.013,334.507z M157.013,279.893c-11.293,0-20.48,9.187-20.48,20.48
	c0,11.293,9.187,20.48,20.48,20.48s20.48-9.187,20.48-20.48C177.493,289.08,168.306,279.893,157.013,279.893z"/>
<circle style="fill:#EAEAEA;" cx="368.64" cy="300.373" r="27.307"/>
<g>
	<path style="fill:#602F75;" d="M368.64,334.507c-18.819,0-34.133-15.314-34.133-34.133s15.314-34.133,34.133-34.133
		s34.133,15.314,34.133,34.133S387.459,334.507,368.64,334.507z M368.64,279.893c-11.293,0-20.48,9.187-20.48,20.48
		c0,11.293,9.187,20.48,20.48,20.48s20.48-9.187,20.48-20.48C389.12,289.08,379.933,279.893,368.64,279.893z"/>
	<path style="fill:#602F75;" d="M423.253,334.507H6.827c-3.77,0-6.827-3.053-6.827-6.827c0-3.773,3.057-6.827,6.827-6.827h416.427
		c3.77,0,6.827,3.053,6.827,6.827C430.08,331.453,427.023,334.507,423.253,334.507z"/>
</g>
<rect x="225.28" y="116.053" style="fill:#FFE600;" width="54.613" height="136.533"/>
<path style="fill:#602F75;" d="M279.893,259.413H225.28c-3.77,0-6.827-3.053-6.827-6.827V116.053c0-3.773,3.057-6.827,6.827-6.827
	h54.613c3.77,0,6.827,3.053,6.827,6.827v136.533C286.72,256.36,283.663,259.413,279.893,259.413z M232.107,245.76h40.96V122.88
	h-40.96V245.76z"/>
<rect x="143.36" y="177.493" style="fill:#00E7FF;" width="54.613" height="75.093"/>
<path style="fill:#602F75;" d="M197.973,259.413H143.36c-3.77,0-6.827-3.053-6.827-6.827v-75.093c0-3.773,3.057-6.827,6.827-6.827
	h54.613c3.77,0,6.827,3.053,6.827,6.827v75.093C204.8,256.36,201.743,259.413,197.973,259.413z M150.187,245.76h40.96v-61.44h-40.96
	V245.76z"/>
<rect x="191.147" y="143.36" style="fill:#EA3457;" width="54.613" height="109.227"/>
<path style="fill:#602F75;" d="M245.76,259.413h-54.613c-3.77,0-6.827-3.053-6.827-6.827V143.36c0-3.773,3.057-6.827,6.827-6.827
	h54.613c3.77,0,6.827,3.053,6.827,6.827v109.227C252.587,256.36,249.53,259.413,245.76,259.413z M197.973,245.76h40.96v-95.573
	h-40.96V245.76z"/>
<g>
</g>
<g>
</g>
<g>
</g>
<g>
</g>
<g>
</g>
<g>
</g>
<g>
</g>
<g>
</g>
<g>
</g>
<g>
</g>
<g>
</g>
<g>
</g>
<g>
</g>
<g>
</g>
<g>
</g>
</svg>
