<?xml version="1.0" encoding="iso-8859-1"?>
<!-- Generator: Adobe Illustrator 19.0.0, SVG Export Plug-In . SVG Version: 6.00 Build 0)  -->
<svg version="1.1" id="Capa_1" xmlns="http://www.w3.org/2000/svg" xmlns:xlink="http://www.w3.org/1999/xlink" x="0px" y="0px"
	 viewBox="0 0 430.08 430.08" style="enable-background:new 0 0 430.08 430.08;" xml:space="preserve">
<path style="fill:#FFFFFF;" d="M318.903,301.348c36.895,0,66.804,26.875,66.804,60.029v61.877H44.373v-61.877
	c0-33.152,29.909-60.029,66.804-60.029l103.863-4.388"/>
<path style="fill:#602F75;" d="M385.707,430.08H44.373c-3.77,0-6.827-3.053-6.827-6.827v-61.88
	c0-36.861,33.031-66.854,73.631-66.854l103.576-4.379c3.809-0.193,6.95,2.767,7.107,6.533c0.16,3.767-2.767,6.946-6.533,7.107
	l-103.863,4.386C78.107,308.173,51.2,332.041,51.2,361.373v55.054h327.68v-55.054c0-29.334-26.907-53.2-59.977-53.2
	c-3.77,0-6.827-3.053-6.827-6.827s3.057-6.827,6.827-6.827c40.6,0,73.631,29.993,73.631,66.854v61.88
	C392.533,427.027,389.477,430.08,385.707,430.08z"/>
<path style="fill:#FFFFFF;" d="M269.653,305.493L269.653,305.493c-34.379,10.743-74.848,10.743-109.227,0l0,0V245.76h109.227
	V305.493z"/>
<path style="fill:#602F75;" d="M215.04,320.326c-19.456,0-38.914-2.773-56.649-8.32c-2.85-0.887-4.791-3.526-4.791-6.513V245.76
	c0-3.773,3.057-6.827,6.827-6.827h109.227c3.77,0,6.827,3.053,6.827,6.827v59.733c0,2.987-1.94,5.627-4.791,6.513
	C253.954,317.553,234.496,320.326,215.04,320.326z M167.253,300.394c30.287,8.4,65.287,8.4,95.573,0v-47.807h-95.573V300.394z
	 M269.653,305.493h0.067H269.653z"/>
<path style="fill:#FFFFFF;" d="M265.941,273.067H164.139c-24.672,0-44.672-20-44.672-44.672V105.202
	c0-9.088,7.368-16.456,16.456-16.456h158.235c9.088,0,16.456,7.368,16.456,16.456v123.192
	C310.613,253.066,290.613,273.067,265.941,273.067z"/>
<path style="fill:#602F75;" d="M265.94,279.893H164.14c-28.397,0-51.5-23.1-51.5-51.5V105.201c0-12.834,10.443-23.281,23.284-23.281
	h158.234c12.839,0,23.282,10.447,23.282,23.281v123.194C317.44,256.794,294.337,279.893,265.94,279.893z M135.924,95.573
	c-5.311,0-9.631,4.32-9.631,9.627v123.194c0,20.866,16.976,37.845,37.847,37.845H265.94c20.871,0,37.847-16.98,37.847-37.847
	V105.201c0-5.306-4.32-9.627-9.631-9.627H135.924z"/>
<rect x="283.307" y="354.987" style="fill:#00E7FF;" width="61.44" height="61.44"/>
<path style="fill:#FFE600;" d="M310.613,109.227c0-47.22-29.831-86.975-70.403-98.811c-8.02-2.34-16.459-3.589-25.17-3.589
	c-52.784,0-95.573,45.846-95.573,102.4H310.613z"/>
<path style="fill:#602F75;" d="M310.613,116.053H119.467c-3.77,0-6.827-3.053-6.827-6.827C112.64,49,158.577,0,215.04,0
	c9.194,0,18.304,1.3,27.083,3.86c44.344,12.94,75.317,56.265,75.317,105.366C317.44,113,314.383,116.053,310.613,116.053z
	 M126.517,102.4H303.56c-2.673-40.201-28.757-74.779-65.263-85.434c-7.533-2.2-15.36-3.313-23.257-3.313
	C168.236,13.653,129.78,52.873,126.517,102.4z"/>
<path style="fill:#EA3457;" d="M119.467,109.227c0,37.702,42.79,68.267,95.573,68.267s95.573-30.565,95.573-68.267H119.467z"/>
<path style="fill:#602F75;" d="M215.04,184.32c-56.463,0-102.4-33.686-102.4-75.093c0-3.773,3.057-6.827,6.827-6.827h191.147
	c3.77,0,6.827,3.053,6.827,6.827C317.44,150.634,271.503,184.32,215.04,184.32z M126.836,116.053
	c4.924,30.681,42.6,54.613,88.204,54.613s83.28-23.933,88.204-54.613H126.836z"/>
<g>
	<path style="fill:#602F75;" d="M244.047,110.08c-1.126,0-2.27-0.28-3.323-0.867c-3.287-1.833-4.466-5.987-2.637-9.274
		c0.92-1.679,21.224-39.834-8.984-82.333c-2.186-3.074-1.463-7.334,1.606-9.52c3.077-2.186,7.34-1.459,9.52,1.613
		c35.374,49.76,10.844,94.979,9.783,96.881C248.764,108.82,246.439,110.08,244.047,110.08z"/>
	<path style="fill:#602F75;" d="M181.536,110.08c-2.393,0-4.717-1.26-5.967-3.5c-1.06-1.9-25.59-47.119,9.783-96.881
		c2.183-3.074,6.446-3.801,9.52-1.613c3.07,2.186,3.794,6.446,1.606,9.52c-30.426,42.807-9.207,81.927-8.991,82.319
		c1.84,3.287,0.66,7.446-2.63,9.286C183.806,109.8,182.663,110.08,181.536,110.08z"/>
	<path style="fill:#602F75;" d="M215.04,251.394c-3.707,0-7.414-0.454-11.017-1.347l-17.947-4.494
		c-3.657-0.913-5.879-4.62-4.966-8.274c0.916-3.666,4.637-5.873,8.281-4.966l17.944,4.487c5.04,1.253,10.37,1.26,15.416-0.007
		l17.94-4.48c3.661-0.906,7.366,1.3,8.281,4.966c0.913,3.654-1.311,7.359-4.966,8.274l-17.944,4.487
		C222.454,250.94,218.747,251.394,215.04,251.394z"/>
</g>
<g>
</g>
<g>
</g>
<g>
</g>
<g>
</g>
<g>
</g>
<g>
</g>
<g>
</g>
<g>
</g>
<g>
</g>
<g>
</g>
<g>
</g>
<g>
</g>
<g>
</g>
<g>
</g>
<g>
</g>
</svg>
