<?xml version="1.0" encoding="iso-8859-1"?>
<!-- Generator: Adobe Illustrator 19.0.0, SVG Export Plug-In . SVG Version: 6.00 Build 0)  -->
<svg version="1.1" id="Capa_1" xmlns="http://www.w3.org/2000/svg" xmlns:xlink="http://www.w3.org/1999/xlink" x="0px" y="0px"
	 viewBox="0 0 334.507 334.507" style="enable-background:new 0 0 334.507 334.507;" xml:space="preserve">
<polyline style="fill:#FFFFFF;" points="314.027,138.22 314.027,314.027 20.48,314.027 20.48,88.747 314.027,88.747 "/>
<path style="fill:#602F75;" d="M314.027,320.853H20.48c-3.77,0-6.827-3.053-6.827-6.827V88.747c0-3.773,3.057-6.827,6.827-6.827
	h293.547c3.77,0,6.827,3.053,6.827,6.827s-3.057,6.827-6.827,6.827H27.307V307.2H307.2V138.22c0-3.773,3.057-6.827,6.827-6.827
	s6.827,3.053,6.827,6.827v175.807C320.853,317.8,317.797,320.853,314.027,320.853z"/>
<g>
	<rect x="54.613" y="211.627" style="fill:#00E7FF;" width="122.88" height="75.093"/>
	<path style="fill:#00E7FF;" d="M177.493,293.547H54.613c-3.77,0-6.827-3.053-6.827-6.827v-75.093c0-3.773,3.057-6.827,6.827-6.827
		h122.88c3.77,0,6.827,3.053,6.827,6.827v75.093C184.32,290.493,181.263,293.547,177.493,293.547z M61.44,279.893h109.227v-61.44
		H61.44V279.893z"/>
</g>
<path style="fill:#FFE600;" d="M304.319,20.48H30.188c-12.902,0-23.361,10.458-23.361,23.361v44.906H327.68V43.841
	C327.68,30.938,317.222,20.48,304.319,20.48z"/>
<path style="fill:#602F75;" d="M327.68,95.573H6.827C3.057,95.573,0,92.52,0,88.747V43.841c0-16.647,13.541-30.188,30.188-30.188
	h274.133c16.645,0,30.186,13.541,30.186,30.188v44.906C334.507,92.52,331.45,95.573,327.68,95.573z M13.653,81.92h307.2V43.841
	c0-9.114-7.417-16.534-16.534-16.534H30.188c-9.117,0-16.534,7.421-16.534,16.534V81.92z"/>
<polygon style="fill:#EA3457;" points="273.067,170.667 238.933,150.187 204.8,170.667 204.8,88.747 273.067,88.747 "/>
<g>
	<path style="fill:#602F75;" d="M273.067,177.493c-1.217,0-2.434-0.326-3.514-0.973l-30.619-18.374l-30.619,18.374
		c-2.109,1.26-4.736,1.3-6.876,0.087c-2.14-1.213-3.465-3.482-3.465-5.941v-81.92c0-3.773,3.057-6.827,6.827-6.827h68.267
		c3.77,0,6.827,3.053,6.827,6.827v81.92c0,2.459-1.323,4.727-3.463,5.939C275.386,177.2,274.227,177.493,273.067,177.493z
		 M238.933,143.36c1.217,0,2.43,0.326,3.514,0.973l23.793,14.275V95.573h-54.613v63.034l23.793-14.273
		C236.503,143.686,237.716,143.36,238.933,143.36z"/>
	<path style="fill:#602F75;" d="M150.187,245.76H75.093c-3.77,0-6.827-3.053-6.827-6.827s3.057-6.827,6.827-6.827h75.093
		c3.77,0,6.827,3.053,6.827,6.827S153.957,245.76,150.187,245.76z"/>
	<path style="fill:#602F75;" d="M109.227,266.24H75.093c-3.77,0-6.827-3.053-6.827-6.827c0-3.773,3.057-6.827,6.827-6.827h34.133
		c3.77,0,6.827,3.053,6.827,6.827C116.053,263.187,112.997,266.24,109.227,266.24z"/>
</g>
<g>
</g>
<g>
</g>
<g>
</g>
<g>
</g>
<g>
</g>
<g>
</g>
<g>
</g>
<g>
</g>
<g>
</g>
<g>
</g>
<g>
</g>
<g>
</g>
<g>
</g>
<g>
</g>
<g>
</g>
</svg>
