<?xml version="1.0" encoding="iso-8859-1"?>
<!-- Generator: Adobe Illustrator 19.0.0, SVG Export Plug-In . SVG Version: 6.00 Build 0)  -->
<svg version="1.1" id="Capa_1" xmlns="http://www.w3.org/2000/svg" xmlns:xlink="http://www.w3.org/1999/xlink" x="0px" y="0px"
	 viewBox="0 0 368.64 368.64" style="enable-background:new 0 0 368.64 368.64;" xml:space="preserve">
<rect x="102.4" y="135.288" style="fill:#FFE600;" width="259.413" height="211.627"/>
<g>
	<path style="fill:#602F75;" d="M361.813,353.733H348.16c-3.77,0-6.827-3.053-6.827-6.827s3.057-6.827,6.827-6.827h6.827v-6.827
		c0-3.773,3.057-6.827,6.827-6.827c3.77,0,6.827,3.053,6.827,6.827v13.653C368.64,350.68,365.583,353.733,361.813,353.733z"/>
	<path style="fill:#602F75;" d="M322.371,353.733h-25.789c-3.77,0-6.827-3.053-6.827-6.827s3.057-6.827,6.827-6.827h25.789
		c3.77,0,6.827,3.053,6.827,6.827S326.141,353.733,322.371,353.733z M270.79,353.733h-25.789c-3.77,0-6.827-3.053-6.827-6.827
		s3.057-6.827,6.827-6.827h25.789c3.77,0,6.827,3.053,6.827,6.827S274.56,353.733,270.79,353.733z M219.209,353.733h-25.786
		c-3.77,0-6.827-3.053-6.827-6.827s3.057-6.827,6.827-6.827h25.786c3.77,0,6.827,3.053,6.827,6.827S222.979,353.733,219.209,353.733
		z M167.634,353.733h-25.789c-3.77,0-6.827-3.053-6.827-6.827s3.057-6.827,6.827-6.827h25.789c3.77,0,6.827,3.053,6.827,6.827
		S171.404,353.733,167.634,353.733z"/>
	<path style="fill:#602F75;" d="M116.053,353.733H102.4c-3.77,0-6.827-3.053-6.827-6.827v-13.653c0-3.773,3.057-6.827,6.827-6.827
		s6.827,3.053,6.827,6.827v6.827h6.827c3.77,0,6.827,3.053,6.827,6.827S119.823,353.733,116.053,353.733z"/>
	<path style="fill:#602F75;" d="M102.4,313.746c-3.77,0-6.827-3.053-6.827-6.827v-26.334c0-3.773,3.057-6.827,6.827-6.827
		s6.827,3.053,6.827,6.827v26.334C109.227,310.693,106.17,313.746,102.4,313.746z M102.4,261.087c-3.77,0-6.827-3.053-6.827-6.827
		v-26.334c0-3.773,3.057-6.827,6.827-6.827s6.827,3.053,6.827,6.827v26.334C109.227,258.033,106.17,261.087,102.4,261.087z
		 M102.4,208.419c-3.77,0-6.827-3.053-6.827-6.827v-26.334c0-3.773,3.057-6.827,6.827-6.827s6.827,3.053,6.827,6.827v26.334
		C109.227,205.366,106.17,208.419,102.4,208.419z"/>
	<path style="fill:#602F75;" d="M102.4,155.76c-3.77,0-6.827-3.053-6.827-6.827V135.28c0-3.773,3.057-6.827,6.827-6.827h13.653
		c3.77,0,6.827,3.053,6.827,6.827s-3.057,6.827-6.827,6.827h-6.827v6.827C109.227,152.706,106.17,155.76,102.4,155.76z"/>
	<path style="fill:#602F75;" d="M322.371,142.106h-25.789c-3.77,0-6.827-3.053-6.827-6.827s3.057-6.827,6.827-6.827h25.789
		c3.77,0,6.827,3.053,6.827,6.827S326.141,142.106,322.371,142.106z M270.79,142.106h-25.786c-3.77,0-6.827-3.053-6.827-6.827
		s3.057-6.827,6.827-6.827h25.786c3.77,0,6.827,3.053,6.827,6.827S274.56,142.106,270.79,142.106z M219.213,142.106h-25.789
		c-3.77,0-6.827-3.053-6.827-6.827s3.057-6.827,6.827-6.827h25.789c3.77,0,6.827,3.053,6.827,6.827S222.983,142.106,219.213,142.106
		z M167.634,142.106h-25.789c-3.77,0-6.827-3.053-6.827-6.827s3.057-6.827,6.827-6.827h25.789c3.77,0,6.827,3.053,6.827,6.827
		S171.404,142.106,167.634,142.106z"/>
	<path style="fill:#602F75;" d="M361.813,155.76c-3.77,0-6.827-3.053-6.827-6.827v-6.827h-6.827c-3.77,0-6.827-3.053-6.827-6.827
		s3.057-6.827,6.827-6.827h13.653c3.77,0,6.827,3.053,6.827,6.827v13.653C368.64,152.706,365.583,155.76,361.813,155.76z"/>
	<path style="fill:#602F75;" d="M361.813,313.753c-3.77,0-6.827-3.053-6.827-6.827v-26.334c0-3.773,3.057-6.827,6.827-6.827
		c3.77,0,6.827,3.053,6.827,6.827v26.334C368.64,310.699,365.583,313.753,361.813,313.753z M361.813,261.087
		c-3.77,0-6.827-3.053-6.827-6.827v-26.334c0-3.773,3.057-6.827,6.827-6.827c3.77,0,6.827,3.053,6.827,6.827v26.334
		C368.64,258.033,365.583,261.087,361.813,261.087z M361.813,208.426c-3.77,0-6.827-3.053-6.827-6.827v-26.334
		c0-3.773,3.057-6.827,6.827-6.827c3.77,0,6.827,3.053,6.827,6.827v26.334C368.64,205.372,365.583,208.426,361.813,208.426z"/>
</g>
<rect x="6.827" y="135.288" style="fill:#00E7FF;" width="95.573" height="211.627"/>
<g>
	<path style="fill:#602F75;" d="M102.4,353.733H88.747c-3.77,0-6.827-3.053-6.827-6.827s3.057-6.827,6.827-6.827h6.827v-6.827
		c0-3.773,3.057-6.827,6.827-6.827s6.827,3.053,6.827,6.827v13.653C109.227,350.68,106.17,353.733,102.4,353.733z"/>
	<path style="fill:#602F75;" d="M65.99,353.733H43.233c-3.77,0-6.827-3.053-6.827-6.827s3.057-6.827,6.827-6.827H65.99
		c3.77,0,6.827,3.053,6.827,6.827S69.76,353.733,65.99,353.733z"/>
	<path style="fill:#602F75;" d="M20.48,353.733H6.827c-3.77,0-6.827-3.053-6.827-6.827v-13.653c0-3.773,3.057-6.827,6.827-6.827
		s6.827,3.053,6.827,6.827v6.827h6.827c3.77,0,6.827,3.053,6.827,6.827S24.25,353.733,20.48,353.733z"/>
	<path style="fill:#602F75;" d="M6.827,313.746c-3.77,0-6.827-3.053-6.827-6.827v-26.334c0-3.773,3.057-6.827,6.827-6.827
		s6.827,3.053,6.827,6.827v26.334C13.653,310.693,10.597,313.746,6.827,313.746z M6.827,261.087c-3.77,0-6.827-3.053-6.827-6.827
		v-26.334c0-3.773,3.057-6.827,6.827-6.827s6.827,3.053,6.827,6.827v26.334C13.653,258.033,10.597,261.087,6.827,261.087z
		 M6.827,208.419c-3.77,0-6.827-3.053-6.827-6.827v-26.334c0-3.773,3.057-6.827,6.827-6.827s6.827,3.053,6.827,6.827v26.334
		C13.653,205.366,10.597,208.419,6.827,208.419z"/>
	<path style="fill:#602F75;" d="M6.827,155.76c-3.77,0-6.827-3.053-6.827-6.827V135.28c0-3.773,3.057-6.827,6.827-6.827H20.48
		c3.77,0,6.827,3.053,6.827,6.827s-3.057,6.827-6.827,6.827h-6.827v6.827C13.653,152.706,10.597,155.76,6.827,155.76z"/>
	<path style="fill:#602F75;" d="M65.993,142.106H43.237c-3.77,0-6.827-3.053-6.827-6.827s3.057-6.827,6.827-6.827h22.757
		c3.77,0,6.827,3.053,6.827,6.827S69.763,142.106,65.993,142.106z"/>
	<path style="fill:#602F75;" d="M102.4,155.76c-3.77,0-6.827-3.053-6.827-6.827v-6.827h-6.827c-3.77,0-6.827-3.053-6.827-6.827
		s3.057-6.827,6.827-6.827H102.4c3.77,0,6.827,3.053,6.827,6.827v13.653C109.227,152.706,106.17,155.76,102.4,155.76z"/>
	<path style="fill:#602F75;" d="M102.4,313.753c-3.77,0-6.827-3.053-6.827-6.827v-26.334c0-3.773,3.057-6.827,6.827-6.827
		s6.827,3.053,6.827,6.827v26.334C109.227,310.699,106.17,313.753,102.4,313.753z M102.4,261.087c-3.77,0-6.827-3.053-6.827-6.827
		v-26.334c0-3.773,3.057-6.827,6.827-6.827s6.827,3.053,6.827,6.827v26.334C109.227,258.033,106.17,261.087,102.4,261.087z
		 M102.4,208.426c-3.77,0-6.827-3.053-6.827-6.827v-26.334c0-3.773,3.057-6.827,6.827-6.827s6.827,3.053,6.827,6.827v26.334
		C109.227,205.372,106.17,208.426,102.4,208.426z"/>
</g>
<g>
	<path style="fill:#EA3457;" d="M233.634,300.934v-15.338c-8.81-0.159-17.923-2.888-23.238-6.685l3.644-10.175
		c5.468,3.639,13.365,6.526,21.868,6.526c10.783,0,18.075-6.229,18.075-14.882c0-8.356-5.924-13.517-17.161-18.075
		c-15.495-6.072-25.062-13.063-25.062-26.274c0-12.607,8.963-22.17,22.936-24.455v-15.338h9.414v14.734
		c9.112,0.297,15.341,2.729,19.748,5.309l-3.797,10.027c-3.19-1.819-9.419-5.161-19.139-5.161c-11.692,0-16.099,6.982-16.099,13.063
		c0,7.892,5.622,11.846,18.833,17.314c15.643,6.378,23.545,14.269,23.545,27.786c0,12.005-8.356,23.238-23.999,25.829v15.792h-9.568
		V300.934z"/>
	<path style="fill:#EA3457;" d="M78.186,105.466c-14.553,0-30.483-11.073-40.12-29.373c-5.721-10.86-8.267-22.666-7.17-33.241
		C32.096,31.258,37.46,22.399,46,17.905c16.94-8.907,39.984,2.666,52.466,26.373l0,0c5.721,10.86,8.267,22.666,7.17,33.241
		c-1.2,11.593-6.564,20.453-15.104,24.946C86.67,104.5,82.487,105.466,78.186,105.466z M58.353,28.567
		c-2.14,0-4.166,0.461-5.994,1.42c-5.893,3.106-7.47,10.274-7.883,14.273c-0.819,7.927,1.193,16.966,5.67,25.474
		C58.762,86.1,74.346,95.567,84.173,90.387c5.893-3.106,7.47-10.274,7.883-14.273c0.819-7.927-1.193-16.966-5.67-25.474
		C79.37,37.314,67.736,28.567,58.353,28.567z"/>
	<path style="fill:#EA3457;" d="M126.614,105.466c-4.302,0-8.484-0.966-12.346-3c-8.54-4.494-13.903-13.353-15.104-24.946
		c-1.097-10.573,1.451-22.38,7.17-33.241l0,0C118.82,20.564,141.87,8.998,158.8,17.905c8.54,4.494,13.903,13.353,15.104,24.946
		c1.097,10.573-1.451,22.38-7.17,33.241C157.097,94.393,141.167,105.466,126.614,105.466z M118.414,50.639
		c-4.477,8.506-6.49,17.546-5.67,25.474c0.413,4,1.99,11.167,7.883,14.273c9.834,5.166,25.404-4.287,34.028-20.654
		c4.477-8.506,6.49-17.546,5.67-25.474c-0.413-4-1.99-11.167-7.883-14.273C142.594,24.812,127.034,34.272,118.414,50.639
		L118.414,50.639z"/>
	
		<rect x="20.389" y="131.873" transform="matrix(-0.333 0.9429 -0.9429 -0.333 239.9853 107.6418)" style="fill:#EA3457;" width="123.065" height="13.653"/>
	
		<rect x="116.051" y="77.165" transform="matrix(-0.943 0.3328 -0.3328 -0.943 284.9099 228.5988)" style="fill:#EA3457;" width="13.653" height="123.068"/>
</g>
<g>
</g>
<g>
</g>
<g>
</g>
<g>
</g>
<g>
</g>
<g>
</g>
<g>
</g>
<g>
</g>
<g>
</g>
<g>
</g>
<g>
</g>
<g>
</g>
<g>
</g>
<g>
</g>
<g>
</g>
</svg>
