<?xml version="1.0" encoding="iso-8859-1"?>
<!-- Generator: Adobe Illustrator 19.0.0, SVG Export Plug-In . SVG Version: 6.00 Build 0)  -->
<svg version="1.1" id="Capa_1" xmlns="http://www.w3.org/2000/svg" xmlns:xlink="http://www.w3.org/1999/xlink" x="0px" y="0px"
	 viewBox="0 0 402.773 402.773" style="enable-background:new 0 0 402.773 402.773;" xml:space="preserve">
<circle style="fill:#FFE600;" cx="225.279" cy="197.973" r="54.613"/>
<path style="fill:#602F75;" d="M225.279,259.413c-33.877,0-61.44-27.559-61.44-61.44s27.563-61.44,61.44-61.44
	s61.44,27.559,61.44,61.44S259.157,259.413,225.279,259.413z M225.279,150.186c-26.349,0-47.787,21.439-47.787,47.787
	s21.437,47.787,47.787,47.787s47.787-21.439,47.787-47.787S251.628,150.186,225.279,150.186z"/>
<path style="fill:#EA3457;" d="M291.962,246.533c0,14.394-5.354,26.132-16.067,35.22c-10.709,9.086-25.537,14.828-44.471,17.207
	v38.299h-13.146v-37.652c-9.957-0.213-20.801-1.434-32.539-3.654c-11.74-2.214-21.074-4.946-27.996-8.194v-16.72
	c8.117,3.9,17.826,7.2,29.133,9.9c11.303,2.707,21.774,4.06,31.403,4.06v-82.447c-15.689-4.76-27.32-9.52-34.893-14.28
	c-7.573-4.76-13.094-10.394-16.553-16.881c-3.466-6.494-5.193-14.394-5.193-23.7c0-13.413,5.11-24.694,15.336-33.84
	c10.223-9.139,23.991-14.793,41.303-16.961V65.734h13.146v30.839c21.313,0.973,40.303,4.867,56.967,11.687l-5.357,14.607
	c-15.254-6.714-32.461-10.607-51.61-11.687v78.874c23.047,7.148,38.897,14.933,47.553,23.373S291.962,232.9,291.962,246.533z
	 M179.329,147.693c0,9.306,3.084,16.94,9.25,22.886c6.166,5.953,16.067,10.981,29.699,15.094v-73.52
	c-12.877,1.734-22.586,5.84-29.133,12.334C182.599,130.981,179.329,138.712,179.329,147.693z M274.109,245.886
	c0-9.194-3.406-16.8-10.223-22.806c-6.816-6.001-17.637-11.167-32.461-15.493v76.44c13.199-1.406,23.613-5.46,31.244-12.174
	C270.296,265.146,274.109,256.493,274.109,245.886z"/>
<g>
	<path style="fill:#602F75;" d="M395.946,382.293H47.786c-3.77,0-6.827-3.053-6.827-6.827v-57.279c0-3.773,3.057-6.827,6.827-6.827
		c3.77,0,6.827,3.053,6.827,6.827v50.452h334.507V34.133H54.613v60.88c0,3.773-3.057,6.827-6.827,6.827
		c-3.77,0-6.827-3.053-6.827-6.827V27.306c0-3.773,3.057-6.827,6.827-6.827h348.16c3.77,0,6.827,3.053,6.827,6.827v348.16
		C402.773,379.24,399.716,382.293,395.946,382.293z"/>
	<path style="fill:#602F75;" d="M47.786,286.72c-3.77,0-6.827-3.053-6.827-6.827v-88.747c0-3.773,3.057-6.827,6.827-6.827
		c3.77,0,6.827,3.053,6.827,6.827v88.747C54.613,283.666,51.556,286.72,47.786,286.72z"/>
</g>
<polygon style="fill:#00E7FF;" points="47.786,136.533 88.746,197.973 6.828,197.973 "/>
<path style="fill:#602F75;" d="M88.746,204.8H6.826c-2.517,0-4.83-1.386-6.019-3.606c-1.186-2.22-1.056-4.913,0.34-7.006
	l40.96-61.44c2.533-3.801,8.827-3.801,11.36,0l40.96,61.44c1.396,2.094,1.527,4.787,0.34,7.006
	C93.576,203.414,91.263,204.8,88.746,204.8z M19.583,191.146H75.99L47.786,148.84L19.583,191.146z"/>
<g>
</g>
<g>
</g>
<g>
</g>
<g>
</g>
<g>
</g>
<g>
</g>
<g>
</g>
<g>
</g>
<g>
</g>
<g>
</g>
<g>
</g>
<g>
</g>
<g>
</g>
<g>
</g>
<g>
</g>
</svg>
