<?xml version="1.0" encoding="iso-8859-1"?>
<!-- Generator: Adobe Illustrator 19.0.0, SVG Export Plug-In . SVG Version: 6.00 Build 0)  -->
<svg version="1.1" id="Capa_1" xmlns="http://www.w3.org/2000/svg" xmlns:xlink="http://www.w3.org/1999/xlink" x="0px" y="0px"
	 viewBox="0 0 402.773 402.773" style="enable-background:new 0 0 402.773 402.773;" xml:space="preserve">
<circle style="fill:#FFE600;" cx="225.28" cy="197.973" r="54.613"/>
<path style="fill:#602F75;" d="M225.28,259.413c-33.877,0-61.44-27.559-61.44-61.44s27.563-61.44,61.44-61.44
	s61.44,27.559,61.44,61.44S259.157,259.413,225.28,259.413z M225.28,150.187c-26.349,0-47.787,21.439-47.787,47.787
	s21.437,47.787,47.787,47.787s47.787-21.439,47.787-47.787S251.629,150.187,225.28,150.187z"/>
<path style="fill:#EA3457;" d="M291.963,246.533c0,14.394-5.354,26.132-16.067,35.22c-10.709,9.086-25.537,14.828-44.471,17.207
	v38.299h-13.146v-37.652c-9.957-0.213-20.801-1.434-32.539-3.654c-11.74-2.214-21.074-4.946-27.996-8.194v-16.72
	c8.117,3.9,17.826,7.2,29.133,9.9c11.303,2.707,21.774,4.06,31.403,4.06v-82.447c-15.689-4.76-27.32-9.52-34.893-14.28
	c-7.572-4.76-13.094-10.394-16.553-16.881c-3.466-6.494-5.193-14.394-5.193-23.7c0-13.413,5.11-24.694,15.336-33.84
	c10.223-9.139,23.991-14.793,41.303-16.961V65.734h13.146v30.839c21.313,0.973,40.303,4.867,56.967,11.687l-5.357,14.607
	c-15.254-6.714-32.461-10.607-51.61-11.687v78.874c23.047,7.148,38.897,14.933,47.553,23.373S291.963,232.9,291.963,246.533z
	 M179.33,147.693c0,9.306,3.084,16.94,9.25,22.886c6.166,5.953,16.067,10.981,29.699,15.094v-73.52
	c-12.877,1.734-22.586,5.84-29.133,12.334C182.6,130.982,179.33,138.713,179.33,147.693z M274.109,245.886
	c0-9.194-3.407-16.8-10.223-22.806c-6.816-6.001-17.637-11.167-32.461-15.493v76.44c13.199-1.406,23.613-5.46,31.244-12.174
	C270.297,265.146,274.109,256.493,274.109,245.886z"/>
<g>
	<path style="fill:#602F75;" d="M395.947,382.293H47.787c-3.77,0-6.827-3.053-6.827-6.827v-57.279c0-3.773,3.057-6.827,6.827-6.827
		s6.827,3.053,6.827,6.827v50.452H389.12V34.133H54.613v60.88c0,3.773-3.057,6.827-6.827,6.827s-6.827-3.053-6.827-6.827V27.307
		c0-3.773,3.057-6.827,6.827-6.827h348.16c3.77,0,6.827,3.053,6.827,6.827v348.16C402.773,379.24,399.717,382.293,395.947,382.293z"
		/>
	<path style="fill:#602F75;" d="M47.787,232.107c-3.77,0-6.827-3.053-6.827-6.827v-88.747c0-3.773,3.057-6.827,6.827-6.827
		s6.827,3.053,6.827,6.827v88.747C54.613,229.053,51.557,232.107,47.787,232.107z"/>
</g>
<polygon style="fill:#00E7FF;" points="47.787,279.893 88.747,218.453 6.828,218.453 "/>
<path style="fill:#602F75;" d="M47.787,286.72c-2.284,0-4.413-1.14-5.68-3.04l-40.96-61.44c-1.396-2.094-1.527-4.787-0.34-7.006
	c1.19-2.222,3.502-3.608,6.019-3.608h81.92c2.517,0,4.83,1.386,6.019,3.606c1.186,2.22,1.056,4.913-0.34,7.006l-40.96,61.44
	C52.2,285.58,50.07,286.72,47.787,286.72z M19.584,225.28l28.203,42.307l28.203-42.307H19.584z"/>
<g>
</g>
<g>
</g>
<g>
</g>
<g>
</g>
<g>
</g>
<g>
</g>
<g>
</g>
<g>
</g>
<g>
</g>
<g>
</g>
<g>
</g>
<g>
</g>
<g>
</g>
<g>
</g>
<g>
</g>
</svg>
