<?xml version="1.0" encoding="iso-8859-1"?>
<!-- Generator: Adobe Illustrator 19.0.0, SVG Export Plug-In . SVG Version: 6.00 Build 0)  -->
<svg version="1.1" id="Capa_1" xmlns="http://www.w3.org/2000/svg" xmlns:xlink="http://www.w3.org/1999/xlink" x="0px" y="0px"
	 viewBox="0 0 409.6 409.6" style="enable-background:new 0 0 409.6 409.6;" xml:space="preserve">
<path style="fill:#EA3457;" d="M399.36,286.72H10.24V101.383c0-14.519,11.771-26.289,26.289-26.289h336.539
	c14.52,0,26.291,11.771,26.291,26.289v140.966"/>
<path style="fill:#602F75;" d="M399.36,293.547H10.24c-3.773,0-6.827-3.053-6.827-6.827V101.386c0-18.26,14.86-33.12,33.12-33.12
	h336.534c18.26,0,33.12,14.86,33.12,33.12v140.96c0,3.773-3.053,6.827-6.827,6.827s-6.827-3.053-6.827-6.827v-140.96
	c0-10.733-8.733-19.466-19.466-19.466H36.533c-10.733,0-19.466,8.733-19.466,19.466v178.507H399.36c3.773,0,6.827,3.053,6.827,6.827
	S403.133,293.547,399.36,293.547z"/>
<path style="fill:#FFFFFF;" d="M373.07,348.16H36.529c-14.519,0-26.289-11.771-26.289-26.289V286.72h389.12v35.151
	C399.36,336.389,387.589,348.16,373.07,348.16z"/>
<path style="fill:#602F75;" d="M373.067,354.987H36.533c-18.26,0-33.12-14.86-33.12-33.12V286.72c0-3.773,3.053-6.827,6.827-6.827
	h389.12c3.773,0,6.827,3.053,6.827,6.827v35.147C406.187,340.127,391.327,354.987,373.067,354.987z M17.067,293.547v28.32
	c0,10.733,8.733,19.466,19.466,19.466h336.534c10.733,0,19.466-8.733,19.466-19.466v-28.32H17.067z"/>
<g>
	<circle style="fill:#00E7FF;" cx="204.8" cy="317.44" r="10.24"/>
	<path style="fill:#00E7FF;" d="M204.8,334.507c-9.414,0-17.067-7.653-17.067-17.067c0-9.414,7.653-17.067,17.067-17.067
		s17.067,7.653,17.067,17.067C221.867,326.854,214.214,334.507,204.8,334.507z M204.8,314.027c-1.881,0-3.413,1.533-3.413,3.413
		c0,1.881,1.533,3.413,3.413,3.413s3.413-1.533,3.413-3.413C208.213,315.559,206.681,314.027,204.8,314.027z"/>
</g>
<polygon style="fill:#EAEAEA;" points="262.827,402.773 146.773,402.773 180.506,348.16 229.094,348.16 "/>
<path style="fill:#602F75;" d="M262.827,409.6H146.773c-2.473,0-4.753-1.34-5.96-3.5c-1.207-2.161-1.147-4.806,0.154-6.914
	l33.734-54.613c1.241-2.014,3.441-3.239,5.806-3.239h48.587c2.367,0,4.567,1.227,5.806,3.239l33.734,54.613
	c1.3,2.106,1.36,4.753,0.154,6.914C267.581,408.26,265.3,409.6,262.827,409.6z M159.014,395.947h91.573l-25.3-40.96h-40.974
	L159.014,395.947z"/>
<g>
	<circle style="fill:#FFE600;" cx="139.947" cy="184.32" r="68.267"/>
	<path style="fill:#FFE600;" d="M139.947,259.413c-41.407,0-75.093-33.686-75.093-75.093s33.686-75.093,75.093-75.093
		s75.093,33.686,75.093,75.093S181.354,259.413,139.947,259.413z M139.947,122.88c-33.881,0-61.44,27.559-61.44,61.44
		s27.559,61.44,61.44,61.44s61.44-27.559,61.44-61.44S173.827,122.88,139.947,122.88z"/>
</g>
<path style="fill:#EA3457;" d="M136.33,227.26v-10.341c-5.939-0.106-12.083-1.947-15.667-4.507l2.456-6.861
	c3.686,2.454,9.009,4.4,14.744,4.4c7.27,0,12.187-4.2,12.187-10.033c0-5.634-3.994-9.114-11.57-12.187
	c-10.447-4.093-16.896-8.806-16.896-17.714c0-8.499,6.043-14.947,15.464-16.486v-10.341h6.347v9.933
	c6.144,0.2,10.344,1.84,13.314,3.581l-2.56,6.76c-2.15-1.227-6.351-3.48-12.904-3.48c-7.883,0-10.853,4.707-10.853,8.806
	c0,5.32,3.791,7.987,12.696,11.674c10.547,4.301,15.874,9.62,15.874,18.734c0,8.093-5.634,15.667-16.179,17.413v10.646h-6.453
	V227.26z"/>
<g>
	<circle style="fill:#FFE600;" cx="290.133" cy="75.093" r="68.267"/>
	<path style="fill:#FFE600;" d="M290.133,150.187c-41.407,0-75.093-33.686-75.093-75.093S248.726,0,290.133,0
		s75.093,33.686,75.093,75.093S331.54,150.187,290.133,150.187z M290.133,13.653c-33.881,0-61.44,27.559-61.44,61.44
		s27.559,61.44,61.44,61.44s61.44-27.559,61.44-61.44S324.014,13.653,290.133,13.653z"/>
</g>
<path style="fill:#EA3457;" d="M286.517,118.033v-10.341c-5.939-0.106-12.083-1.947-15.667-4.507l2.456-6.861
	c3.686,2.454,9.01,4.4,14.744,4.4c7.27,0,12.187-4.2,12.187-10.033c0-5.634-3.994-9.114-11.57-12.187
	c-10.447-4.093-16.896-8.806-16.896-17.713c0-8.499,6.043-14.947,15.464-16.486V33.963h6.347v9.933
	c6.144,0.2,10.344,1.84,13.314,3.581l-2.56,6.76c-2.15-1.227-6.35-3.48-12.904-3.48c-7.883,0-10.853,4.707-10.853,8.806
	c0,5.32,3.79,7.987,12.696,11.674c10.547,4.301,15.874,9.62,15.874,18.734c0,8.093-5.634,15.667-16.179,17.413v10.646h-6.453
	V118.033z"/>
<g>
	<path style="fill:#FFFFFF;" d="M307.2,269.653c-1.746,0-3.494-0.667-4.826-2c-2.666-2.666-2.666-6.987,0-9.653l58.027-58.027
		c2.666-2.666,6.987-2.666,9.653,0c2.666,2.666,2.666,6.987,0,9.653l-58.027,58.027C310.694,268.986,308.946,269.653,307.2,269.653z
		"/>
	<path style="fill:#FFFFFF;" d="M351.573,266.24c-1.746,0-3.494-0.667-4.826-2c-2.666-2.666-2.666-6.987,0-9.653l20.48-20.48
		c2.666-2.666,6.987-2.666,9.653,0c2.666,2.666,2.666,6.987,0,9.653l-20.48,20.48C355.067,265.573,353.319,266.24,351.573,266.24z"
		/>
</g>
<path style="fill:#602F75;" d="M303.787,409.6h-204.8c-3.773,0-6.827-3.053-6.827-6.827s3.053-6.827,6.827-6.827h204.8
	c3.773,0,6.827,3.053,6.827,6.827S307.56,409.6,303.787,409.6z"/>
<g>
</g>
<g>
</g>
<g>
</g>
<g>
</g>
<g>
</g>
<g>
</g>
<g>
</g>
<g>
</g>
<g>
</g>
<g>
</g>
<g>
</g>
<g>
</g>
<g>
</g>
<g>
</g>
<g>
</g>
</svg>
