<?xml version="1.0" encoding="iso-8859-1"?>
<!-- Generator: Adobe Illustrator 19.0.0, SVG Export Plug-In . SVG Version: 6.00 Build 0)  -->
<svg version="1.1" id="Capa_1" xmlns="http://www.w3.org/2000/svg" xmlns:xlink="http://www.w3.org/1999/xlink" x="0px" y="0px"
	 viewBox="0 0 395.947 395.947" style="enable-background:new 0 0 395.947 395.947;" xml:space="preserve">
<circle style="fill:#00E7FF;" cx="197.973" cy="75.093" r="68.267"/>
<path style="fill:#FFFFFF;" d="M320.853,225.278v-63.3l68.267-18.618V68.267h-68.267h-6.827h-61.911
	c0.28,2.241,0.471,4.511,0.471,6.827c0,30.162-24.451,54.613-54.613,54.613s-54.613-24.451-54.613-54.613
	c0-2.316,0.191-4.586,0.471-6.827H81.92h-6.827H6.827v75.093l68.267,18.618v220.315h245.76V266.237"/>
<g>
	<path style="fill:#602F75;" d="M320.853,389.12H75.093c-3.773,0-6.827-3.053-6.827-6.827v-215.1L5.033,149.948
		C2.06,149.134,0,146.441,0,143.36V68.267c0-3.773,3.053-6.827,6.827-6.827h137.006c1.959,0,3.82,0.84,5.12,2.307
		c1.294,1.473,1.9,3.427,1.654,5.367c-0.246,1.959-0.42,3.946-0.42,5.978c0,26.348,21.439,47.787,47.787,47.787
		s47.787-21.439,47.787-47.787c0-2.033-0.174-4.019-0.42-5.98c-0.247-1.94,0.36-3.893,1.654-5.367c1.3-1.466,3.161-2.307,5.12-2.307
		H389.12c3.773,0,6.827,3.053,6.827,6.827v75.093c0,3.081-2.06,5.774-5.033,6.586l-63.234,17.249v58.086
		c0,3.773-3.053,6.827-6.827,6.827s-6.827-3.053-6.827-6.827v-63.3c0-3.081,2.06-5.774,5.033-6.586l63.234-17.248V75.093h-122.88
		c0,33.881-27.559,61.44-61.44,61.44s-61.44-27.559-61.44-61.44H13.653v63.053l63.234,17.246c2.973,0.814,5.033,3.507,5.033,6.586
		v213.489h232.107V266.24c0-3.773,3.053-6.827,6.827-6.827s6.827,3.053,6.827,6.827v116.053
		C327.68,386.067,324.627,389.12,320.853,389.12z"/>
	<path style="fill:#602F75;" d="M320.853,191.147c-3.773,0-6.827-3.053-6.827-6.827v-54.613c0-3.773,3.053-6.827,6.827-6.827
		s6.827,3.053,6.827,6.827v54.613C327.68,188.093,324.627,191.147,320.853,191.147z"/>
</g>
<rect x="81.92" y="266.24" style="fill:#EA3457;" width="232.107" height="109.227"/>
<path style="fill:#602F75;" d="M75.093,211.627c-3.773,0-6.827-3.053-6.827-6.827v-75.093c0-3.773,3.053-6.827,6.827-6.827
	s6.827,3.053,6.827,6.827V204.8C81.92,208.573,78.867,211.627,75.093,211.627z"/>
<path style="fill:#FFE600;" d="M128.241,329.146c-7.54,0-13.653-6.113-13.653-13.653v-34.133c0-56.467,45.933-102.4,102.4-102.4
	c7.54,0,13.653,6.113,13.653,13.653s-6.113,13.653-13.653,13.653c-41.407,0-75.093,33.686-75.093,75.093v34.133
	C141.894,323.031,135.781,329.146,128.241,329.146z"/>
<path style="fill:#602F75;" d="M128.241,335.973c-11.293,0-20.48-9.187-20.48-20.48v-34.133c0-60.227,49-109.227,109.227-109.227
	c11.293,0,20.48,9.187,20.48,20.48s-9.187,20.48-20.48,20.48c-37.641,0-68.267,30.626-68.267,68.267v34.133
	C148.721,326.787,139.534,335.973,128.241,335.973z M216.987,185.786c-52.7,0-95.573,42.873-95.573,95.573v34.133
	c0,3.767,3.06,6.827,6.827,6.827c3.767,0,6.827-3.06,6.827-6.827v-34.133c0-45.174,36.746-81.92,81.92-81.92
	c3.767,0,6.827-3.06,6.827-6.827S220.754,185.786,216.987,185.786z"/>
<path style="fill:#FFE600;" d="M271.106,181.806l-40.038-24.893c-8.475-5.27-19.441,0.824-19.441,10.805v49.789
	c0,9.981,10.965,16.075,19.441,10.805l40.038-24.893C279.112,198.438,279.112,186.784,271.106,181.806z"/>
<path style="fill:#602F75;" d="M224.367,237.094c-3.253,0-6.513-0.826-9.513-2.5c-6.294-3.5-10.054-9.887-10.054-17.087v-49.787
	c0-7.207,3.76-13.594,10.061-17.094c6.294-3.5,13.699-3.319,19.813,0.493l40.04,24.887l0,0c5.78,3.599,9.226,9.807,9.226,16.613
	c-0.007,6.799-3.453,13.007-9.233,16.594l-40.033,24.9C231.473,236.1,227.927,237.094,224.367,237.094z M224.387,161.801
	c-1.314,0-2.36,0.466-2.9,0.759c-0.913,0.507-3.033,2.028-3.033,5.159v49.787c0,3.133,2.12,4.647,3.033,5.154
	c0.906,0.507,3.308,1.507,5.973-0.147l40.04-24.9c2.514-1.56,2.787-4.014,2.787-5.001s-0.273-3.447-2.787-5.007l-40.04-24.893
	C226.367,162.028,225.314,161.801,224.387,161.801z"/>
<g>
</g>
<g>
</g>
<g>
</g>
<g>
</g>
<g>
</g>
<g>
</g>
<g>
</g>
<g>
</g>
<g>
</g>
<g>
</g>
<g>
</g>
<g>
</g>
<g>
</g>
<g>
</g>
<g>
</g>
</svg>
