<?xml version="1.0" encoding="iso-8859-1"?>
<!-- Generator: Adobe Illustrator 19.0.0, SVG Export Plug-In . SVG Version: 6.00 Build 0)  -->
<svg version="1.1" id="Capa_1" xmlns="http://www.w3.org/2000/svg" xmlns:xlink="http://www.w3.org/1999/xlink" x="0px" y="0px"
	 viewBox="0 0 416.427 416.427" style="enable-background:new 0 0 416.427 416.427;" xml:space="preserve">
<path style="fill:#00E7FF;" d="M184.65,343.497l-12.005-230.834c-15.147-7.014-25.873-10.575-25.873-30.744
	c0-18.118,8.644-47.534,21.383-55.636l-1.722-19.458h-26.107c-8.265,8.153-23.665,13.653-41.341,13.653S65.911,14.979,57.645,6.827
	H31.539l-1.722,19.458c12.739,8.102,21.383,37.518,21.383,55.636c0,20.169-10.726,23.729-25.875,30.744L10.239,402.773h177.493
	l-0.749-14.392"/>
<path style="fill:#602F75;" d="M187.733,409.6H10.239c-1.874,0-3.663-0.766-4.949-2.126c-1.29-1.36-1.963-3.186-1.867-5.053
	L18.51,112.314c0.13-2.526,1.65-4.78,3.946-5.84l2.816-1.294c13.51-6.173,19.101-8.733,19.101-23.26
	c0-17.234-8.407-43.633-18.22-49.874c-2.154-1.367-3.364-3.82-3.137-6.361l1.724-19.459C25.052,2.7,28.002,0,31.539,0h26.107
	c1.794,0,3.517,0.707,4.794,1.966c7.31,7.207,21.313,11.687,36.547,11.687s29.237-4.48,36.547-11.687
	c1.277-1.26,3-1.966,4.794-1.966h26.107c3.536,0,6.487,2.7,6.799,6.226l1.724,19.459c0.227,2.54-0.983,4.994-3.137,6.361
	c-9.813,6.241-18.22,32.64-18.22,49.874c0,14.527,5.589,17.087,19.099,23.26l2.816,1.294c2.297,1.06,3.816,3.313,3.946,5.84
	l12.003,230.833c0.196,3.767-2.697,6.973-6.463,7.173c-3.753,0.087-6.973-2.7-7.17-6.467l-11.79-226.707
	c-13.556-6.207-26.095-12.474-26.095-35.227c0-17.3,7.47-46.486,21.081-58.74l-0.845-9.527h-17.217
	c-10.15,8.593-26.317,13.653-43.981,13.653s-33.83-5.06-43.981-13.653H37.788l-0.843,9.527c13.611,12.254,21.081,41.44,21.081,58.74
	c0,22.753-12.541,29.02-26.097,35.227l-14.5,278.799h163.11l-0.374-7.214c-0.196-3.76,2.697-6.973,6.46-7.173
	c3.837-0.307,6.977,2.693,7.173,6.467l0.749,14.394c0.097,1.867-0.577,3.693-1.867,5.053
	C191.395,408.834,189.605,409.6,187.733,409.6z"/>
<rect x="71.679" y="81.92" style="fill:#602F75;" width="75.093" height="13.653"/>
<path style="fill:#FFFFFF;" d="M372.053,116.053h-46.599h-5.342H271.66c0.218,1.754,0.369,3.529,0.369,5.342
	c0,23.605-19.135,42.74-42.74,42.74s-42.74-19.137-42.74-42.74c0-1.812,0.15-3.587,0.369-5.342h-48.452h-5.345H78.506v58.769
	l54.613,14.572v172.419h191.147V189.392l47.787-14.572V116.053z"/>
<g>
	<path style="fill:#602F75;" d="M324.266,368.759H133.119c-3.837,0-6.946-3.106-6.946-6.946V194.734l-49.457-13.199
		c-3.043-0.814-5.156-3.567-5.156-6.714v-58.767c0-3.84,3.11-6.946,6.946-6.946h108.409c1.993,0,3.89,0.853,5.21,2.347
		c1.319,1.5,1.93,3.487,1.683,5.466c-0.183,1.466-0.317,2.953-0.317,4.473c0,19.739,16.056,35.801,35.794,35.801
		s35.794-16.06,35.794-35.801c0-1.527-0.133-3.014-0.317-4.487c-0.244-1.98,0.374-3.959,1.69-5.453
		c1.319-1.493,3.217-2.347,5.207-2.347h100.395c3.837,0,6.946,3.106,6.946,6.946v58.767c0,3.053-1.997,5.753-4.92,6.647
		l-42.866,13.073v167.272C331.212,365.653,328.103,368.759,324.266,368.759z M140.065,354.867h177.253V189.394
		c0-3.053,1.997-5.753,4.92-6.647l42.866-13.073v-46.674h-86.156c-0.853,26.66-22.803,48.087-49.664,48.087
		s-48.811-21.427-49.664-48.087H85.452v46.479l49.457,13.199c3.043,0.814,5.156,3.567,5.156,6.714L140.065,354.867L140.065,354.867z
		"/>
	<path style="fill:#602F75;" d="M133.119,229.733c-3.77,0-6.827-3.053-6.827-6.827v-58.767c0-3.773,3.057-6.827,6.827-6.827
		c3.77,0,6.827,3.053,6.827,6.827v58.767C139.946,226.679,136.889,229.733,133.119,229.733z"/>
	<path style="fill:#602F75;" d="M324.266,229.733c-3.77,0-6.827-3.053-6.827-6.827v-58.767c0-3.773,3.057-6.827,6.827-6.827
		c3.77,0,6.827,3.053,6.827,6.827v58.767C331.093,226.679,328.036,229.733,324.266,229.733z"/>
</g>
<g>
	<circle style="fill:#EA3457;" cx="331.093" cy="334.507" r="75.093"/>
	<path style="fill:#EA3457;" d="M331.093,416.427c-45.17,0-81.92-36.746-81.92-81.92s36.75-81.92,81.92-81.92
		s81.92,36.746,81.92,81.92S376.263,416.427,331.093,416.427z M331.093,266.24c-37.644,0-68.267,30.626-68.267,68.267
		s30.623,68.267,68.267,68.267s68.267-30.626,68.267-68.267S368.735,266.24,331.093,266.24z"/>
</g>
<g>
	<path style="fill:#FFE600;" d="M364.883,375.127c-1.746,0-3.494-0.667-4.826-2l-67.581-67.587c-2.666-2.666-2.666-6.987,0-9.653
		s6.987-2.666,9.653,0l67.581,67.587c2.666,2.666,2.666,6.987,0,9.653C368.375,374.46,366.629,375.127,364.883,375.127z"/>
	<path style="fill:#FFE600;" d="M297.302,375.127c-1.746,0-3.494-0.667-4.826-2c-2.666-2.666-2.666-6.987,0-9.653l67.581-67.587
		c2.666-2.666,6.987-2.666,9.653,0c2.666,2.666,2.666,6.987,0,9.653l-67.581,67.587C300.796,374.46,299.048,375.127,297.302,375.127
		z"/>
</g>
<g>
</g>
<g>
</g>
<g>
</g>
<g>
</g>
<g>
</g>
<g>
</g>
<g>
</g>
<g>
</g>
<g>
</g>
<g>
</g>
<g>
</g>
<g>
</g>
<g>
</g>
<g>
</g>
<g>
</g>
</svg>
