<?xml version="1.0" encoding="iso-8859-1"?>
<!-- Generator: Adobe Illustrator 19.0.0, SVG Export Plug-In . SVG Version: 6.00 Build 0)  -->
<svg version="1.1" id="Capa_1" xmlns="http://www.w3.org/2000/svg" xmlns:xlink="http://www.w3.org/1999/xlink" x="0px" y="0px"
	 viewBox="0 0 416.427 416.427" style="enable-background:new 0 0 416.427 416.427;" xml:space="preserve">
<path style="fill:#00E7FF;" d="M187.429,331.279l-11.368-218.615c-15.148-7.013-25.875-10.573-25.875-30.744
	c0-18.118,8.644-47.534,21.383-55.636l-1.72-19.458h-26.107c-8.267,8.153-23.665,13.653-41.341,13.653S69.326,14.979,61.06,6.827
	H34.953l-1.722,19.458C45.97,34.386,54.614,63.802,54.614,81.92c0,20.169-10.726,23.729-25.875,30.744L13.654,402.773h177.493
	l-0.835-16.038"/>
<path style="fill:#602F75;" d="M191.147,409.6H13.654c-1.874,0-3.661-0.766-4.953-2.126c-1.287-1.36-1.959-3.186-1.867-5.053
	l15.087-290.106c0.133-2.526,1.654-4.78,3.953-5.84l2.813-1.294c13.507-6.173,19.101-8.733,19.101-23.26
	c0-17.234-8.407-43.633-18.22-49.874c-2.147-1.367-3.36-3.82-3.133-6.361l1.72-19.459C28.466,2.7,31.414,0,34.953,0H61.06
	c1.794,0,3.514,0.707,4.794,1.966c7.306,7.207,21.313,11.687,36.547,11.687s29.24-4.48,36.547-11.687c1.28-1.26,3-1.966,4.794-1.966
	h26.107c3.54,0,6.487,2.7,6.799,6.226l1.72,19.459c0.227,2.54-0.986,4.994-3.133,6.361c-9.813,6.24-18.22,32.64-18.22,49.874
	c0,14.527,5.593,17.087,19.099,23.26l2.813,1.294c2.301,1.06,3.82,3.313,3.953,5.84l11.366,218.614
	c0.193,3.767-2.7,6.973-6.467,7.173c-3.76,0.087-6.973-2.7-7.173-6.467l-11.146-214.487c-13.559-6.207-26.1-12.474-26.1-35.227
	c0-17.294,7.467-46.486,21.081-58.74l-0.84-9.527h-17.22c-10.146,8.593-26.32,13.653-43.981,13.653s-33.833-5.06-43.981-13.653
	h-17.22l-0.84,9.527c13.616,12.254,21.082,41.446,21.082,58.74c0,22.753-12.541,29.02-26.1,35.227L20.846,395.947h163.106
	l-0.461-8.859c-0.193-3.767,2.7-6.973,6.467-7.173c3.686-0.321,6.973,2.693,7.173,6.467l0.833,16.039
	c0.094,1.867-0.58,3.693-1.867,5.053C194.807,408.834,193.02,409.6,191.147,409.6z"/>
<rect x="75.092" y="81.92" style="fill:#602F75;" width="75.093" height="13.653"/>
<path style="fill:#FFFFFF;" d="M375.467,116.053h-46.599h-5.342h-48.452c0.218,1.754,0.369,3.529,0.369,5.342
	c0,23.605-19.135,42.74-42.74,42.74s-42.74-19.137-42.74-42.74c0-1.812,0.15-3.587,0.369-5.342h-48.452h-5.342H81.924v58.769
	l54.613,14.572v172.419h191.147V189.392l47.787-14.572v-58.767H375.467z"/>
<g>
	<path style="fill:#602F75;" d="M327.681,368.759H136.534c-3.84,0-6.946-3.106-6.946-6.946V194.734l-49.459-13.199
		c-3.04-0.814-5.154-3.567-5.154-6.714v-58.767c0-3.84,3.106-6.946,6.946-6.946h108.407c1.993,0,3.893,0.853,5.207,2.347
		c1.319,1.5,1.934,3.487,1.686,5.466c-0.186,1.466-0.314,2.953-0.314,4.473c0,19.739,16.06,35.801,35.794,35.801
		s35.794-16.06,35.794-35.801c0-1.521-0.126-3.007-0.314-4.473c-0.247-1.98,0.367-3.966,1.686-5.466
		c1.314-1.493,3.214-2.347,5.207-2.347h100.393c3.84,0,6.946,3.106,6.946,6.946v58.767c0,3.053-1.993,5.753-4.92,6.647
		l-42.866,13.073v167.272C334.627,365.653,331.521,368.759,327.681,368.759z M143.48,354.867h177.253V189.394
		c0-3.053,1.993-5.753,4.92-6.647l42.866-13.073v-46.674H282.36c-0.853,26.66-22.799,48.087-49.661,48.087
		s-48.807-21.427-49.661-48.087H88.865v46.479l49.459,13.199c3.04,0.814,5.154,3.567,5.154,6.714v165.475H143.48z"/>
	<path style="fill:#602F75;" d="M136.534,229.733c-3.773,0-6.827-3.053-6.827-6.827v-58.767c0-3.773,3.053-6.827,6.827-6.827
		s6.827,3.053,6.827,6.827v58.767C143.361,226.679,140.306,229.733,136.534,229.733z"/>
	<path style="fill:#602F75;" d="M327.681,229.733c-3.773,0-6.827-3.053-6.827-6.827v-58.767c0-3.773,3.053-6.827,6.827-6.827
		s6.827,3.053,6.827,6.827v58.767C334.507,226.679,331.452,229.733,327.681,229.733z"/>
</g>
<g>
	<circle style="fill:#FFE600;" cx="327.679" cy="334.507" r="75.093"/>
	<path style="fill:#FFE600;" d="M327.681,416.427c-45.174,0-81.92-36.746-81.92-81.92s36.746-81.92,81.92-81.92
		s81.92,36.746,81.92,81.92S372.853,416.427,327.681,416.427z M327.681,266.24c-37.641,0-68.267,30.626-68.267,68.267
		s30.626,68.267,68.267,68.267s68.267-30.626,68.267-68.267S365.32,266.24,327.681,266.24z"/>
</g>
<path style="fill:#EA3457;" d="M336.139,290.458l5.818,17.905c1.097,3.378,4.244,5.664,7.796,5.664h18.826
	c7.941,0,11.244,10.161,4.818,14.829l-15.23,11.066c-2.872,2.087-4.076,5.787-2.978,9.165l5.818,17.905
	c2.454,7.552-6.19,13.833-12.614,9.165l-15.23-11.066c-2.872-2.087-6.764-2.087-9.636,0l-15.23,11.066
	c-6.424,4.668-15.068-1.613-12.614-9.165l5.818-17.905c1.097-3.378-0.104-7.078-2.978-9.165l-15.23-11.066
	c-6.424-4.668-3.123-14.829,4.818-14.829h18.826c3.552,0,6.699-2.287,7.796-5.664l5.818-17.905
	C323.001,282.906,333.685,282.906,336.139,290.458z"/>
<path style="fill:#602F75;" d="M353.212,384.606c-3.074,0-6.147-0.973-8.834-2.92l-15.234-11.073
	c-0.493-0.353-1.14-0.353-1.606,0.007l-15.234,11.059c-5.373,3.907-12.3,3.907-17.661,0c-5.367-3.893-7.506-10.487-5.46-16.794
	l5.82-17.913c0.179-0.56-0.014-1.179-0.5-1.527l-15.234-11.073c-5.361-3.893-7.506-10.487-5.453-16.794
	c2.046-6.306,7.66-10.38,14.286-10.38h18.826c0.594,0,1.113-0.381,1.3-0.94l5.82-17.913c2.046-6.299,7.66-10.38,14.286-10.38
	c6.634,0,12.24,4.074,14.293,10.38l5.82,17.9c0.186,0.573,0.707,0.954,1.3,0.954h18.826c6.627,0,12.24,4.074,14.286,10.38
	c2.053,6.306-0.094,12.901-5.453,16.794l-15.234,11.066c-0.486,0.353-0.679,0.973-0.5,1.546l5.82,17.893
	c2.046,6.313-0.094,12.906-5.46,16.8C359.36,383.633,356.286,384.606,353.212,384.606z M328.346,356.693
	c3.092,0,6.187,0.959,8.827,2.874l15.234,11.073c0.213,0.147,0.8,0.573,1.606,0c0.807-0.587,0.587-1.28,0.5-1.539l-5.82-17.9
	c-2.014-6.226,0.186-12.974,5.46-16.807l15.234-11.059c0.22-0.16,0.807-0.587,0.493-1.533c-0.307-0.947-1.027-0.947-1.3-0.947
	h-18.826c-6.533,0-12.279-4.173-14.287-10.394l-5.82-17.886v-0.007c-0.087-0.259-0.307-0.947-1.307-0.947
	c-0.993,0-1.213,0.686-1.3,0.947l-5.82,17.906c-2.007,6.207-7.753,10.38-14.287,10.38h-18.826c-0.273,0-0.993,0-1.3,0.947
	c-0.314,0.947,0.273,1.374,0.493,1.533l15.234,11.066c5.274,3.826,7.473,10.573,5.46,16.787l-5.82,17.92
	c-0.087,0.253-0.307,0.947,0.5,1.533c0.807,0.58,1.393,0.154,1.606-0.007l15.234-11.059
	C322.153,357.652,325.247,356.693,328.346,356.693z"/>
<g>
</g>
<g>
</g>
<g>
</g>
<g>
</g>
<g>
</g>
<g>
</g>
<g>
</g>
<g>
</g>
<g>
</g>
<g>
</g>
<g>
</g>
<g>
</g>
<g>
</g>
<g>
</g>
<g>
</g>
</svg>
