<?xml version="1.0" encoding="iso-8859-1"?>
<!-- Generator: Adobe Illustrator 19.0.0, SVG Export Plug-In . SVG Version: 6.00 Build 0)  -->
<svg version="1.1" id="Capa_1" xmlns="http://www.w3.org/2000/svg" xmlns:xlink="http://www.w3.org/1999/xlink" x="0px" y="0px"
	 viewBox="0 0 395.947 395.947" style="enable-background:new 0 0 395.947 395.947;" xml:space="preserve">
<circle style="fill:#FFE600;" cx="197.973" cy="75.093" r="68.267"/>
<path style="fill:#FFFFFF;" d="M320.853,184.318V161.98l68.267-18.62V68.267h-68.267h-6.827h-61.911
	c0.28,2.241,0.471,4.511,0.471,6.827c0,30.162-24.451,54.613-54.613,54.613s-54.613-24.451-54.613-54.613
	c0-2.316,0.191-4.586,0.471-6.827H81.92h-6.827H6.827v75.093l68.267,18.618v220.315h245.76V225.278"/>
<path style="fill:#602F75;" d="M320.853,389.12H75.093c-3.773,0-6.827-3.053-6.827-6.827v-215.1L5.033,149.948
	C2.06,149.134,0,146.441,0,143.36V68.267c0-3.773,3.053-6.827,6.827-6.827h137.006c1.959,0,3.82,0.84,5.12,2.307
	c1.294,1.473,1.9,3.427,1.654,5.367c-0.246,1.959-0.42,3.946-0.42,5.978c0,26.348,21.439,47.787,47.787,47.787
	s47.787-21.439,47.787-47.787c0-2.033-0.174-4.019-0.42-5.98c-0.247-1.94,0.36-3.893,1.654-5.367c1.3-1.466,3.161-2.307,5.12-2.307
	H389.12c3.773,0,6.827,3.053,6.827,6.827v75.093c0,3.081-2.06,5.774-5.033,6.586l-63.234,17.249v17.126
	c0,3.773-3.053,6.827-6.827,6.827s-6.827-3.053-6.827-6.827v-22.34c0-3.081,2.06-5.774,5.033-6.586l63.234-17.248V75.093h-122.88
	c0,33.881-27.559,61.44-61.44,61.44s-61.44-27.559-61.44-61.44H13.653v63.053l63.234,17.246c2.973,0.814,5.033,3.507,5.033,6.586
	v213.489h232.107V225.28c0-3.773,3.053-6.827,6.827-6.827s6.827,3.053,6.827,6.827v157.013
	C327.68,386.067,324.627,389.12,320.853,389.12z"/>
<rect x="81.92" y="225.28" style="fill:#00E7FF;" width="232.107" height="150.187"/>
<g>
	<path style="fill:#602F75;" d="M320.853,191.147c-3.773,0-6.827-3.053-6.827-6.827v-54.613c0-3.773,3.053-6.827,6.827-6.827
		s6.827,3.053,6.827,6.827v54.613C327.68,188.093,324.627,191.147,320.853,191.147z"/>
	<path style="fill:#602F75;" d="M75.093,211.627c-3.773,0-6.827-3.053-6.827-6.827v-75.093c0-3.773,3.053-6.827,6.827-6.827
		s6.827,3.053,6.827,6.827V204.8C81.92,208.573,78.867,211.627,75.093,211.627z"/>
</g>
<path style="fill:#EA3457;" d="M284.512,172.875c0-7.54-6.113-13.653-13.653-13.653h-34.133c-56.467,0-102.4,45.933-102.4,102.4
	c0,7.54,6.113,13.653,13.653,13.653c7.54,0,13.653-6.113,13.653-13.653c0-41.407,33.686-75.093,75.093-75.093h34.133
	C278.398,186.528,284.512,180.415,284.512,172.875z"/>
<path style="fill:#602F75;" d="M147.98,282.1c-11.293,0-20.48-9.187-20.48-20.48c0-60.227,49-109.227,109.227-109.227h34.133
	c11.293,0,20.48,9.187,20.48,20.48c0,11.293-9.187,20.48-20.48,20.48h-34.133c-37.641,0-68.267,30.626-68.267,68.267
	C168.46,272.913,159.273,282.1,147.98,282.1z M236.727,166.047c-52.7,0-95.573,42.873-95.573,95.573c0,3.767,3.06,6.827,6.827,6.827
	s6.827-3.06,6.827-6.827c0-45.174,36.746-81.92,81.92-81.92h34.133c3.767,0,6.827-3.06,6.827-6.827c0-3.767-3.06-6.827-6.827-6.827
	H236.727z"/>
<path style="fill:#EA3457;" d="M137.173,318.892l-24.893-40.038c-5.27-8.475,0.824-19.441,10.805-19.441h49.789
	c9.981,0,16.075,10.965,10.805,19.441l-24.893,40.038C153.805,326.898,142.152,326.898,137.173,318.892z"/>
<path style="fill:#602F75;" d="M147.98,331.727c-6.806,0-13.007-3.453-16.606-9.226l0,0l-24.893-40.04
	c-3.801-6.113-3.987-13.52-0.486-19.813c3.5-6.299,9.887-10.061,17.094-10.061h49.787c7.2,0,13.594,3.76,17.087,10.054
	c3.5,6.299,3.313,13.706-0.493,19.82l-24.887,40.04c-3.587,5.774-9.793,9.219-16.594,9.226H147.98L147.98,331.727z M142.973,315.286
	c1.56,2.514,4.019,2.787,5.007,2.787c0.988,0,3.441-0.273,5.001-2.78l24.893-40.047c1.661-2.661,0.66-5.067,0.154-5.973
	c-0.507-0.913-2.021-3.033-5.154-3.033h-49.787c-3.133,0-4.654,2.12-5.159,3.033s-1.5,3.319,0.147,5.973L142.973,315.286z"/>
<g>
</g>
<g>
</g>
<g>
</g>
<g>
</g>
<g>
</g>
<g>
</g>
<g>
</g>
<g>
</g>
<g>
</g>
<g>
</g>
<g>
</g>
<g>
</g>
<g>
</g>
<g>
</g>
<g>
</g>
</svg>
