<?xml version="1.0" encoding="iso-8859-1"?>
<!-- Generator: Adobe Illustrator 19.0.0, SVG Export Plug-In . SVG Version: 6.00 Build 0)  -->
<svg version="1.1" id="Capa_1" xmlns="http://www.w3.org/2000/svg" xmlns:xlink="http://www.w3.org/1999/xlink" x="0px" y="0px"
	 viewBox="0 0 416.427 416.427" style="enable-background:new 0 0 416.427 416.427;" xml:space="preserve">
<path style="fill:#00E7FF;" d="M187.765,337.749l-11.706-225.085c-15.147-7.014-25.873-10.575-25.873-30.744
	c0-18.118,8.644-47.534,21.383-55.636l-1.722-19.458H143.74c-8.265,8.153-23.665,13.653-41.341,13.653S69.324,14.979,61.059,6.827
	H34.952L33.23,26.284c12.739,8.102,21.383,37.518,21.383,55.636c0,20.169-10.726,23.729-25.875,30.744L13.653,402.773h177.493
	l-0.788-15.176"/>
<path style="fill:#602F75;" d="M191.146,409.6H13.653c-1.874,0-3.663-0.766-4.949-2.126c-1.29-1.36-1.963-3.186-1.867-5.053
	l15.087-290.106c0.13-2.526,1.65-4.78,3.946-5.84l2.816-1.294c13.51-6.173,19.101-8.733,19.101-23.26
	c0-17.234-8.407-43.633-18.22-49.874c-2.154-1.367-3.364-3.82-3.137-6.361l1.724-19.459C28.465,2.7,31.416,0,34.952,0h26.107
	c1.794,0,3.517,0.707,4.794,1.966c7.31,7.207,21.313,11.687,36.547,11.687s29.237-4.48,36.547-11.687
	c1.277-1.26,3-1.966,4.794-1.966h26.107c3.536,0,6.487,2.7,6.799,6.226l1.724,19.459c0.227,2.54-0.983,4.994-3.137,6.361
	c-9.813,6.241-18.22,32.64-18.22,49.874c0,14.527,5.589,17.087,19.099,23.26l2.816,1.294c2.297,1.06,3.816,3.313,3.946,5.84
	l11.706,225.08c0.196,3.767-2.697,6.973-6.463,7.173c-3.734,0.247-6.977-2.7-7.17-6.467l-11.493-220.954
	c-13.556-6.207-26.095-12.474-26.095-35.227c0-17.3,7.47-46.486,21.081-58.74l-0.845-9.527h-17.217
	c-10.15,8.593-26.317,13.653-43.981,13.653s-33.83-5.06-43.981-13.653H41.202l-0.843,9.527c13.611,12.254,21.081,41.44,21.081,58.74
	c0,22.753-12.541,29.02-26.097,35.227l-14.5,278.799h163.113l-0.416-7.994c-0.196-3.767,2.697-6.973,6.463-7.173
	c3.7-0.147,6.97,2.7,7.17,6.467l0.79,15.174c0.097,1.867-0.577,3.693-1.867,5.053C194.809,408.834,193.018,409.6,191.146,409.6z"/>
<rect x="75.093" y="81.92" style="fill:#602F75;" width="75.093" height="13.653"/>
<path style="fill:#FFFFFF;" d="M375.466,116.053h-46.599h-5.342h-48.452c0.218,1.754,0.369,3.529,0.369,5.342
	c0,23.605-19.135,42.74-42.74,42.74s-42.74-19.137-42.74-42.74c0-1.812,0.15-3.587,0.369-5.342h-48.452h-5.345H81.919v58.769
	l54.613,14.572v172.419h191.147V189.392l47.787-14.572V116.053z"/>
<g>
	<path style="fill:#602F75;" d="M327.679,368.64H136.533c-3.77,0-6.827-3.053-6.827-6.827V194.64L80.16,181.414
		c-2.987-0.794-5.067-3.5-5.067-6.593v-58.767c0-3.773,3.057-6.827,6.827-6.827h108.409c1.959,0,3.823,0.84,5.12,2.307
		c1.294,1.473,1.896,3.427,1.654,5.367c-0.183,1.48-0.317,2.966-0.317,4.494c0,19.806,16.109,35.92,35.913,35.92
		s35.913-16.113,35.913-35.92c0-1.527-0.133-3.026-0.317-4.5c-0.241-1.947,0.367-3.893,1.664-5.361
		c1.294-1.466,3.157-2.307,5.113-2.307h100.395c3.77,0,6.827,3.053,6.827,6.827v58.767c0,3-1.963,5.652-4.837,6.526l-42.95,13.1
		v167.366C334.506,365.587,331.449,368.64,327.679,368.64z M143.359,354.987h177.493V189.394c0-3,1.963-5.652,4.837-6.526
		l42.95-13.1V122.88h-86.397c-0.787,26.653-22.711,48.087-49.543,48.087s-48.758-21.434-49.545-48.087H88.746v46.693l49.546,13.227
		c2.987,0.794,5.067,3.5,5.067,6.593V354.987z"/>
	<path style="fill:#602F75;" d="M136.533,229.733c-3.77,0-6.827-3.053-6.827-6.827v-58.767c0-3.773,3.057-6.827,6.827-6.827
		c3.77,0,6.827,3.053,6.827,6.827v58.767C143.359,226.679,140.303,229.733,136.533,229.733z"/>
	<path style="fill:#602F75;" d="M327.679,229.733c-3.77,0-6.827-3.053-6.827-6.827v-58.767c0-3.773,3.057-6.827,6.827-6.827
		c3.77,0,6.827,3.053,6.827,6.827v58.767C334.506,226.679,331.449,229.733,327.679,229.733z"/>
</g>
<g>
	<circle style="fill:#FFE600;" cx="327.679" cy="334.507" r="75.093"/>
	<path style="fill:#FFE600;" d="M327.679,416.427c-45.17,0-81.92-36.746-81.92-81.92s36.75-81.92,81.92-81.92
		s81.92,36.746,81.92,81.92S372.85,416.427,327.679,416.427z M327.679,266.24c-37.644,0-68.267,30.626-68.267,68.267
		s30.623,68.267,68.267,68.267s68.267-30.626,68.267-68.267S365.322,266.24,327.679,266.24z"/>
</g>
<g>
	<path style="fill:#EA3457;" d="M327.679,382.293c-3.77,0-6.827-3.053-6.827-6.827v-81.92c0-3.773,3.057-6.827,6.827-6.827
		c3.77,0,6.827,3.053,6.827,6.827v81.92C334.506,379.24,331.449,382.293,327.679,382.293z"/>
	<path style="fill:#EA3457;" d="M368.639,341.333h-81.92c-3.77,0-6.827-3.053-6.827-6.827s3.057-6.827,6.827-6.827h81.92
		c3.77,0,6.827,3.053,6.827,6.827S372.409,341.333,368.639,341.333z"/>
</g>
<g>
</g>
<g>
</g>
<g>
</g>
<g>
</g>
<g>
</g>
<g>
</g>
<g>
</g>
<g>
</g>
<g>
</g>
<g>
</g>
<g>
</g>
<g>
</g>
<g>
</g>
<g>
</g>
<g>
</g>
</svg>
