<?xml version="1.0" encoding="iso-8859-1"?>
<!-- Generator: Adobe Illustrator 19.0.0, SVG Export Plug-In . SVG Version: 6.00 Build 0)  -->
<svg version="1.1" id="Capa_1" xmlns="http://www.w3.org/2000/svg" xmlns:xlink="http://www.w3.org/1999/xlink" x="0px" y="0px"
	 viewBox="0 0 375.467 375.467" style="enable-background:new 0 0 375.467 375.467;" xml:space="preserve">
<path style="fill:#FFFFFF;" d="M327.122,74.424c-32.503-41.172-82.86-67.598-139.389-67.598C89.706,6.827,10.24,86.292,10.24,184.32
	s79.466,177.493,177.493,177.493s177.493-79.466,177.493-177.493c0-28.855-6.885-56.102-19.103-80.186"/>
<path style="fill:#602F75;" d="M187.733,368.64c-101.634,0-184.32-82.686-184.32-184.32S86.1,0,187.733,0
	c56.771,0,109.527,25.586,144.746,70.193c2.336,2.959,1.833,7.253-1.126,9.593c-2.959,2.326-7.247,1.819-9.586-1.126
	c-32.616-41.313-81.469-65.007-134.033-65.007c-94.107,0-170.667,76.559-170.667,170.667s76.559,170.667,170.667,170.667
	S358.4,278.427,358.4,184.32c0-27.133-6.18-53.074-18.367-77.1c-1.703-3.36-0.36-7.467,3.004-9.173c3.354-1.72,7.467-0.36,9.177,3
	c13.164,25.96,19.84,53.973,19.84,83.273C372.053,285.954,289.367,368.64,187.733,368.64z"/>
<g>
	<circle style="fill:#FFE600;" cx="187.733" cy="184.32" r="129.707"/>
	<path style="fill:#FFE600;" d="M187.733,320.853c-75.283,0-136.533-61.247-136.533-136.533S112.451,47.787,187.733,47.787
		s136.533,61.247,136.533,136.533S263.016,320.853,187.733,320.853z M187.733,61.44c-67.756,0-122.88,55.127-122.88,122.88
		s55.124,122.88,122.88,122.88s122.88-55.127,122.88-122.88S255.49,61.44,187.733,61.44z"/>
</g>
<g>
	<path style="fill:#602F75;" d="M160.396,170.667c-0.104,0-0.206,0-0.311-0.007c-3.767-0.167-6.683-3.354-6.516-7.12l0.031-1.287
		c0-14.181-11.54-25.719-25.723-25.719s-25.723,11.54-25.723,25.719c0,3.773-3.057,6.827-6.827,6.827
		c-3.77,0-6.827-3.053-6.827-6.827c0-21.714,17.664-39.373,39.376-39.373s39.376,17.661,39.376,39.373
		c0,0.633-0.017,1.26-0.043,1.886C167.047,167.806,164.026,170.667,160.396,170.667z"/>
	<path style="fill:#602F75;" d="M283.276,170.667c-0.104,0-0.207,0-0.311-0.007c-3.767-0.167-6.683-3.354-6.516-7.12l0.031-1.287
		c0-14.181-11.54-25.719-25.723-25.719c-14.182,0-25.723,11.54-25.723,25.719c0,3.773-3.057,6.827-6.827,6.827
		c-3.77,0-6.827-3.053-6.827-6.827c0-21.714,17.664-39.373,39.376-39.373s39.376,17.661,39.376,39.373
		c0,0.633-0.017,1.26-0.043,1.886C289.927,167.806,286.906,170.667,283.276,170.667z"/>
</g>
<polyline style="fill:#FFFFFF;" points="58.027,279.893 30.72,368.64 153.6,320.853 "/>
<path style="fill:#602F75;" d="M30.72,375.467c-1.693,0-3.364-0.633-4.651-1.826c-1.917-1.787-2.644-4.507-1.874-7.006
	l27.307-88.747c1.106-3.606,4.934-5.641,8.53-4.519c3.603,1.113,5.627,4.934,4.516,8.533L41.392,357.17l109.734-42.673
	c3.5-1.393,7.47,0.374,8.837,3.886c1.367,3.512-0.377,7.467-3.89,8.834l-122.88,47.787C32.391,375.313,31.553,375.467,30.72,375.467
	z"/>
<path style="fill:#EA3457;" d="M98.987,204.8c0,49.014,39.733,88.747,88.747,88.747s88.747-39.733,88.747-88.747H98.987z"/>
<path style="fill:#602F75;" d="M187.733,300.373c-52.7,0-95.573-42.873-95.573-95.573c0-3.773,3.057-6.827,6.827-6.827H276.48
	c3.77,0,6.827,3.053,6.827,6.827C283.307,257.5,240.434,300.373,187.733,300.373z M106.097,211.627
	c3.48,41.987,38.767,75.093,81.637,75.093s78.157-33.106,81.637-75.093H106.097z"/>
<g>
</g>
<g>
</g>
<g>
</g>
<g>
</g>
<g>
</g>
<g>
</g>
<g>
</g>
<g>
</g>
<g>
</g>
<g>
</g>
<g>
</g>
<g>
</g>
<g>
</g>
<g>
</g>
<g>
</g>
</svg>
