<?xml version="1.0" encoding="iso-8859-1"?>
<!-- Generator: Adobe Illustrator 19.0.0, SVG Export Plug-In . SVG Version: 6.00 Build 0)  -->
<svg version="1.1" id="Capa_1" xmlns="http://www.w3.org/2000/svg" xmlns:xlink="http://www.w3.org/1999/xlink" x="0px" y="0px"
	 viewBox="0 0 375.467 375.467" style="enable-background:new 0 0 375.467 375.467;" xml:space="preserve">
<path style="fill:#FFFFFF;" d="M354.987,197.722V68.267H82.816c-34.427,0-62.336,27.909-62.336,62.336v162.944v6.827v68.267
	l49.649-68.267h222.522c34.427,0,62.336-27.909,62.336-62.336"/>
<path style="fill:#602F75;" d="M20.48,375.467c-0.707,0-1.413-0.106-2.113-0.333c-2.807-0.913-4.714-3.534-4.714-6.494V130.599
	c0-38.132,31.027-69.159,69.159-69.159h272.174c3.773,0,6.827,3.053,6.827,6.827v129.454c0,3.773-3.053,6.827-6.827,6.827
	s-6.827-3.053-6.827-6.827V75.093H82.813c-30.606,0-55.506,24.9-55.506,55.506v217.047l37.299-51.287
	c1.287-1.766,3.333-2.813,5.519-2.813h222.527c30.607,0,55.508-24.9,55.508-55.506c0-3.773,3.053-6.827,6.827-6.827
	s6.827,3.053,6.827,6.827c0,38.132-31.027,69.159-69.159,69.159H73.6l-47.601,65.454C24.694,374.453,22.62,375.467,20.48,375.467z"
	/>
<g>
	<rect x="81.92" y="150.187" style="fill:#EA3457;" width="218.453" height="61.44"/>
	<path style="fill:#EA3457;" d="M300.373,218.453H81.92c-3.773,0-6.827-3.053-6.827-6.827v-61.44c0-3.773,3.053-6.827,6.827-6.827
		h218.453c3.773,0,6.827,3.053,6.827,6.827v61.44C307.2,215.4,304.147,218.453,300.373,218.453z M88.747,204.8h204.8v-47.787h-204.8
		V204.8z"/>
</g>
<path style="fill:#602F75;" d="M150.18,259.413c-1.193,0-2.406-0.314-3.507-0.973c-3.234-1.94-4.28-6.134-2.34-9.366l81.92-136.533
	c1.94-3.234,6.127-4.287,9.366-2.34c3.234,1.94,4.28,6.134,2.34,9.366l-81.92,136.533
	C154.761,258.234,152.499,259.413,150.18,259.413z"/>
<circle style="fill:#00E7FF;" cx="153.6" cy="126.293" r="17.067"/>
<path style="fill:#602F75;" d="M153.6,150.187c-13.174,0-23.893-10.72-23.893-23.893S140.426,102.4,153.6,102.4
	c13.174,0,23.893,10.72,23.893,23.893S166.774,150.187,153.6,150.187z M153.6,116.053c-5.647,0-10.24,4.593-10.24,10.24
	s4.593,10.24,10.24,10.24c5.647,0,10.24-4.593,10.24-10.24S159.247,116.053,153.6,116.053z"/>
<circle style="fill:#00E7FF;" cx="235.52" cy="228.693" r="17.067"/>
<g>
	<path style="fill:#602F75;" d="M235.52,252.587c-13.174,0-23.893-10.72-23.893-23.893s10.72-23.893,23.893-23.893
		s23.893,10.72,23.893,23.893S248.694,252.587,235.52,252.587z M235.52,218.453c-5.647,0-10.24,4.593-10.24,10.24
		s4.593,10.24,10.24,10.24s10.24-4.593,10.24-10.24S241.167,218.453,235.52,218.453z"/>
	<path style="fill:#602F75;" d="M116.053,307.2H47.787c-3.773,0-6.827-3.053-6.827-6.827s3.053-6.827,6.827-6.827h68.267
		c3.773,0,6.827,3.053,6.827,6.827S119.827,307.2,116.053,307.2z"/>
</g>
<g>
	<circle style="fill:#EA3457;" cx="194.56" cy="23.893" r="17.067"/>
	<path style="fill:#EA3457;" d="M194.56,47.787c-13.174,0-23.893-10.72-23.893-23.893S181.386,0,194.56,0
		c13.174,0,23.893,10.72,23.893,23.893S207.734,47.787,194.56,47.787z M194.56,13.653c-5.647,0-10.24,4.593-10.24,10.24
		s4.593,10.24,10.24,10.24c5.647,0,10.24-4.593,10.24-10.24S200.207,13.653,194.56,13.653z"/>
</g>
<g>
	<circle style="fill:#FFE600;" cx="262.827" cy="23.893" r="17.067"/>
	<path style="fill:#FFE600;" d="M262.827,47.787c-13.174,0-23.893-10.72-23.893-23.893S249.653,0,262.827,0
		C276,0,286.72,10.72,286.72,23.893S276,47.787,262.827,47.787z M262.827,13.653c-5.647,0-10.24,4.593-10.24,10.24
		s4.593,10.24,10.24,10.24s10.24-4.593,10.24-10.24S268.474,13.653,262.827,13.653z"/>
</g>
<g>
	<circle style="fill:#00E7FF;" cx="331.093" cy="23.893" r="17.067"/>
	<path style="fill:#00E7FF;" d="M331.093,47.787c-13.174,0-23.893-10.72-23.893-23.893S317.92,0,331.093,0
		c13.174,0,23.893,10.72,23.893,23.893S344.267,47.787,331.093,47.787z M331.093,13.653c-5.647,0-10.24,4.593-10.24,10.24
		s4.593,10.24,10.24,10.24s10.24-4.593,10.24-10.24S336.741,13.653,331.093,13.653z"/>
</g>
<g>
</g>
<g>
</g>
<g>
</g>
<g>
</g>
<g>
</g>
<g>
</g>
<g>
</g>
<g>
</g>
<g>
</g>
<g>
</g>
<g>
</g>
<g>
</g>
<g>
</g>
<g>
</g>
<g>
</g>
</svg>
