<?xml version="1.0" encoding="iso-8859-1"?>
<!-- Generator: Adobe Illustrator 19.0.0, SVG Export Plug-In . SVG Version: 6.00 Build 0)  -->
<svg version="1.1" id="Capa_1" xmlns="http://www.w3.org/2000/svg" xmlns:xlink="http://www.w3.org/1999/xlink" x="0px" y="0px"
	 viewBox="0 0 409.721 409.721" style="enable-background:new 0 0 409.721 409.721;" xml:space="preserve">
<path style="fill:#FFFFFF;" d="M262.89,80.64c-23.308-41.916-68.047-70.279-119.409-70.279
	c-75.406,0-136.533,61.128-136.533,136.533c0,37.079,14.833,70.656,38.823,95.259l-18.343,41.274l41.151-22.446
	c21.513,14.153,47.225,22.446,74.902,22.446c75.406,0,136.533-61.128,136.533-136.533"/>
<path style="fill:#602F75;" d="M27.428,290.374c-1.707,0-3.393-0.626-4.707-1.84c-2.193-2.021-2.854-5.207-1.64-7.927l16.466-37.047
	C13.293,217.027,0,182.886,0,146.893C0,67.78,64.367,3.413,143.479,3.413c52.074,0,100.154,28.3,125.479,73.853
	c1.86,3.354,0.654,7.579-2.7,9.446c-3.36,1.853-7.586,0.654-9.446-2.7c-22.873-41.146-66.301-66.707-113.333-66.707
	c-71.453,0-129.587,58.132-129.587,129.587c0,33.927,13.087,66.039,36.854,90.407c1.987,2.039,2.526,5.081,1.374,7.673
	l-10.013,22.533l23.146-12.626c2.26-1.22,5.001-1.113,7.148,0.294c21.18,13.94,45.759,21.306,71.079,21.306
	c71.453,0,129.587-58.132,129.587-129.587c0-3.84,3.106-6.946,6.946-6.946s6.946,3.106,6.946,6.946
	c0,79.113-64.367,143.479-143.479,143.479c-26.639,0-52.54-7.359-75.174-21.333l-37.553,20.487
	C29.708,290.094,28.568,290.374,27.428,290.374z"/>
<circle style="fill:#EA3457;" cx="88.859" cy="146.886" r="13.653"/>
<path style="fill:#602F75;" d="M88.868,167.375c-11.293,0-20.48-9.187-20.48-20.48c0-11.293,9.187-20.48,20.48-20.48
	s20.48,9.187,20.48,20.48C109.348,158.188,100.161,167.375,88.868,167.375z M88.868,140.068c-3.767,0-6.827,3.06-6.827,6.827
	c0,3.767,3.06,6.827,6.827,6.827c3.767,0,6.827-3.06,6.827-6.827C95.695,143.128,92.634,140.068,88.868,140.068z"/>
<circle style="fill:#EA3457;" cx="143.473" cy="146.886" r="13.653"/>
<path style="fill:#602F75;" d="M143.481,167.375c-11.293,0-20.48-9.187-20.48-20.48c0-11.293,9.187-20.48,20.48-20.48
	c11.293,0,20.48,9.187,20.48,20.48C163.961,158.188,154.774,167.375,143.481,167.375z M143.481,140.068
	c-3.767,0-6.827,3.06-6.827,6.827c0,3.767,3.06,6.827,6.827,6.827s6.827-3.06,6.827-6.827
	C150.308,143.128,147.248,140.068,143.481,140.068z"/>
<circle style="fill:#EA3457;" cx="198.086" cy="146.886" r="13.653"/>
<path style="fill:#602F75;" d="M198.095,167.375c-11.293,0-20.48-9.187-20.48-20.48c0-11.293,9.187-20.48,20.48-20.48
	c11.293,0,20.48,9.187,20.48,20.48C218.575,158.188,209.388,167.375,198.095,167.375z M198.095,140.068
	c-3.767,0-6.827,3.06-6.827,6.827c0,3.767,3.06,6.827,6.827,6.827s6.827-3.06,6.827-6.827
	C204.921,143.128,201.861,140.068,198.095,140.068z"/>
<path style="fill:#FFFFFF;" d="M266.361,126.415c75.406,0,136.533,61.128,136.533,136.533c0,37.079-14.833,70.656-38.823,95.259
	l18.343,41.274l-41.151-22.446c-21.513,14.153-47.225,22.446-74.902,22.446c-75.406,0-136.533-61.128-136.533-136.533
	S190.957,126.415,266.361,126.415z"/>
<path style="fill:#602F75;" d="M382.415,406.308c-1.12,0-2.239-0.273-3.267-0.833l-37.613-20.514
	c-22.634,13.979-48.534,21.347-75.174,21.347c-79.046,0-143.36-64.314-143.36-143.36s64.314-143.36,143.36-143.36
	s143.36,64.314,143.36,143.36c0,35.987-13.307,70.127-37.56,96.64l16.493,37.12c1.186,2.673,0.539,5.806-1.613,7.793
	C385.748,405.688,384.089,406.308,382.415,406.308z M266.361,133.241c-71.52,0-129.707,58.187-129.707,129.707
	s58.187,129.707,129.707,129.707c25.341,0,49.947-7.373,71.148-21.32c2.099-1.386,4.806-1.514,7.02-0.294l23.467,12.8l-10.16-22.861
	c-1.133-2.553-0.601-5.54,1.353-7.54c23.781-24.4,36.879-56.533,36.879-90.493C396.068,191.428,337.881,133.241,266.361,133.241z"/>
<circle style="fill:#FFE600;" cx="266.353" cy="262.939" r="102.4"/>
<g>
	<path style="fill:#EA3457;" d="M174.688,285.635c-0.613-0.273-1.113-0.707-1.521-1.307c-0.399-0.601-0.587-1.241-0.573-1.906
		c0.014-0.874,0.326-1.626,0.934-2.26c0.601-0.626,1.36-0.934,2.287-0.913c0.514,0.007,1,0.119,1.459,0.333
		c4.693,2.207,9.747,3.354,15.147,3.459c9.006,0.174,13.573-2.7,13.687-8.614c0.034-1.546-0.527-2.84-1.661-3.893
		c-1.14-1.053-2.546-1.886-4.239-2.514c-1.686-0.626-4.093-1.381-7.214-2.266c-4.147-1.161-7.501-2.266-10.054-3.326
		c-2.553-1.046-4.739-2.599-6.554-4.64c-1.807-2.039-2.686-4.739-2.62-8.086c0.06-2.934,0.881-5.581,2.459-7.946
		c1.594-2.367,3.913-4.214,6.946-5.574c3.04-1.36,6.666-1.993,10.894-1.913c5.659,0.113,10.767,1.06,15.314,2.847
		c1.42,0.539,2.127,1.587,2.099,3.12c-0.02,0.826-0.321,1.567-0.899,2.227c-0.573,0.66-1.326,0.98-2.253,0.959
		c-0.307-0.007-0.713-0.119-1.227-0.326c-3.987-1.473-8.12-2.246-12.394-2.333c-4.067-0.073-7.386,0.633-9.96,2.127
		c-2.58,1.493-3.893,3.627-3.946,6.407c-0.039,1.853,0.532,3.374,1.727,4.56c1.179,1.174,2.686,2.113,4.5,2.787
		c1.812,0.679,4.287,1.406,7.414,2.193c4.047,1.053,7.306,2.099,9.786,3.12c2.473,1.033,4.588,2.594,6.313,4.68
		c1.734,2.094,2.574,4.893,2.507,8.393c-0.06,2.881-0.934,5.446-2.627,7.7c-1.686,2.266-4.04,4.007-7.04,5.233
		c-3.014,1.234-6.48,1.812-10.387,1.734C186.455,289.568,180.355,288.215,174.688,285.635z"/>
	<path style="fill:#EA3457;" d="M220.921,288.841c-0.633-0.679-0.94-1.507-0.92-2.48c0.007-0.413,0.147-0.927,0.42-1.539
		l20.586-46.087c0.433-0.92,1.027-1.667,1.787-2.246c0.753-0.58,1.673-0.853,2.753-0.833l0.766,0.014
		c1.08,0.02,1.987,0.333,2.727,0.94c0.734,0.606,1.3,1.381,1.693,2.313l18.787,46.853c0.247,0.62,0.36,1.14,0.353,1.553
		c-0.02,0.973-0.353,1.794-1.014,2.447c-0.654,0.66-1.5,0.98-2.526,0.959c-0.72-0.02-1.374-0.22-1.954-0.62
		c-0.587-0.399-1.033-0.934-1.326-1.606l-4.787-12.146l-26.247-0.507l-5.253,11.947c-0.321,0.66-0.78,1.179-1.374,1.553
		c-0.601,0.381-1.266,0.56-1.987,0.546C222.382,289.881,221.548,289.527,220.921,288.841z M234.854,269.508l20.84,0.399l-9.933-25.3
		L234.854,269.508z"/>
	<path style="fill:#EA3457;" d="M282.621,289.236c-0.934-0.973-1.393-2.127-1.367-3.466l0.893-45.846
		c0.02-0.98,0.374-1.812,1.053-2.493c0.679-0.681,1.514-1.014,2.493-0.993c0.973,0.02,1.807,0.381,2.487,1.087
		c0.679,0.707,1.014,1.553,0.993,2.533l-0.846,43.687l25.254,0.493c0.973,0.014,1.807,0.381,2.48,1.087
		c0.679,0.713,1.014,1.553,0.993,2.533c-0.02,0.98-0.387,1.794-1.094,2.447c-0.7,0.66-1.546,0.973-2.521,0.959l-27.412-0.532
		C284.687,290.702,283.561,290.208,282.621,289.236z"/>
	<path style="fill:#EA3457;" d="M326.654,290.509c-0.654-0.679-0.98-1.507-0.959-2.487l0.913-46.853
		c0.02-0.98,0.374-1.812,1.053-2.493c0.679-0.681,1.514-1.014,2.493-0.993l30.954,0.601c0.927,0.02,1.707,0.353,2.333,1.014
		c0.633,0.654,0.94,1.447,0.92,2.374c-0.014,0.927-0.353,1.686-1.007,2.287c-0.654,0.606-1.447,0.899-2.374,0.881l-27.407-0.527
		l-0.333,17.067l24.627,0.473c0.927,0.02,1.707,0.353,2.333,1.014c0.64,0.654,0.94,1.447,0.927,2.374
		c-0.02,0.927-0.353,1.693-1.014,2.294c-0.654,0.606-1.447,0.899-2.374,0.881l-24.627-0.473l-0.331,17.135l27.407,0.527
		c0.927,0.02,1.707,0.353,2.333,1.007c0.64,0.66,0.94,1.454,0.927,2.381c-0.02,0.927-0.353,1.686-1.014,2.294
		c-0.654,0.606-1.447,0.899-2.374,0.881l-30.954-0.601C328.129,291.541,327.308,291.195,326.654,290.509z"/>
</g>
<g>
</g>
<g>
</g>
<g>
</g>
<g>
</g>
<g>
</g>
<g>
</g>
<g>
</g>
<g>
</g>
<g>
</g>
<g>
</g>
<g>
</g>
<g>
</g>
<g>
</g>
<g>
</g>
<g>
</g>
</svg>
