<?xml version="1.0" encoding="iso-8859-1"?>
<!-- Generator: Adobe Illustrator 19.0.0, SVG Export Plug-In . SVG Version: 6.00 Build 0)  -->
<svg version="1.1" id="Capa_1" xmlns="http://www.w3.org/2000/svg" xmlns:xlink="http://www.w3.org/1999/xlink" x="0px" y="0px"
	 viewBox="0 0 409.721 409.721" style="enable-background:new 0 0 409.721 409.721;" xml:space="preserve">
<path style="fill:#FFFFFF;" d="M266.371,87.33c-22.125-45.559-68.838-76.967-122.889-76.967C68.077,10.363,6.95,71.491,6.95,146.896
	c0,37.079,14.833,70.656,38.823,95.259L27.43,283.43l41.151-22.446c21.513,14.153,47.225,22.446,74.902,22.446
	c75.406,0,136.533-61.128,136.533-136.533"/>
<path style="fill:#602F75;" d="M27.428,290.374c-1.707,0-3.393-0.626-4.707-1.84c-2.193-2.021-2.854-5.207-1.64-7.927l16.466-37.047
	C13.293,217.027,0,182.886,0,146.893C0,67.78,64.367,3.413,143.479,3.413c54.593,0,105.281,31.747,129.133,80.881
	c1.679,3.453,0.241,7.607-3.214,9.281c-3.447,1.693-7.607,0.227-9.281-3.214c-21.879-45.059-66.574-73.054-116.64-73.054
	c-71.453,0-129.587,58.132-129.587,129.587c0,33.927,13.087,66.039,36.854,90.407c1.987,2.039,2.526,5.081,1.374,7.673
	l-10.013,22.533l23.146-12.626c2.26-1.22,4.994-1.113,7.148,0.294c21.18,13.94,45.759,21.306,71.079,21.306
	c71.453,0,129.587-58.132,129.587-129.587c0-3.84,3.106-6.946,6.946-6.946s6.946,3.106,6.946,6.946
	c0,79.113-64.367,143.479-143.479,143.479c-26.639,0-52.54-7.359-75.174-21.333l-37.553,20.487
	C29.708,290.094,28.568,290.374,27.428,290.374z"/>
<circle style="fill:#EA3457;" cx="88.859" cy="146.886" r="13.653"/>
<path style="fill:#602F75;" d="M88.868,167.375c-11.293,0-20.48-9.187-20.48-20.48c0-11.293,9.187-20.48,20.48-20.48
	s20.48,9.187,20.48,20.48C109.348,158.188,100.161,167.375,88.868,167.375z M88.868,140.068c-3.767,0-6.827,3.06-6.827,6.827
	c0,3.767,3.06,6.827,6.827,6.827c3.767,0,6.827-3.06,6.827-6.827C95.695,143.128,92.634,140.068,88.868,140.068z"/>
<circle style="fill:#EA3457;" cx="143.473" cy="146.886" r="13.653"/>
<path style="fill:#602F75;" d="M143.481,167.375c-11.293,0-20.48-9.187-20.48-20.48c0-11.293,9.187-20.48,20.48-20.48
	c11.293,0,20.48,9.187,20.48,20.48C163.961,158.188,154.774,167.375,143.481,167.375z M143.481,140.068
	c-3.767,0-6.827,3.06-6.827,6.827c0,3.767,3.06,6.827,6.827,6.827s6.827-3.06,6.827-6.827
	C150.308,143.128,147.248,140.068,143.481,140.068z"/>
<circle style="fill:#EA3457;" cx="198.086" cy="146.886" r="13.653"/>
<path style="fill:#602F75;" d="M198.095,167.375c-11.293,0-20.48-9.187-20.48-20.48c0-11.293,9.187-20.48,20.48-20.48
	c11.293,0,20.48,9.187,20.48,20.48C218.575,158.188,209.388,167.375,198.095,167.375z M198.095,140.068
	c-3.767,0-6.827,3.06-6.827,6.827c0,3.767,3.06,6.827,6.827,6.827s6.827-3.06,6.827-6.827
	C204.921,143.128,201.861,140.068,198.095,140.068z"/>
<path style="fill:#FFFFFF;" d="M266.361,126.415c75.406,0,136.533,61.128,136.533,136.533c0,37.079-14.833,70.656-38.823,95.259
	l18.343,41.274l-41.151-22.446c-21.513,14.153-47.225,22.446-74.902,22.446c-75.406,0-136.533-61.128-136.533-136.533
	S190.957,126.415,266.361,126.415z"/>
<path style="fill:#602F75;" d="M382.415,406.308c-1.12,0-2.239-0.273-3.267-0.833l-37.613-20.514
	c-22.634,13.979-48.534,21.347-75.174,21.347c-79.046,0-143.36-64.314-143.36-143.36s64.314-143.36,143.36-143.36
	s143.36,64.314,143.36,143.36c0,35.987-13.307,70.127-37.56,96.64l16.493,37.12c1.186,2.673,0.539,5.806-1.613,7.793
	C385.748,405.688,384.089,406.308,382.415,406.308z M266.361,133.241c-71.52,0-129.707,58.187-129.707,129.707
	s58.187,129.707,129.707,129.707c25.341,0,49.947-7.373,71.148-21.32c2.099-1.386,4.806-1.514,7.02-0.294l23.467,12.8l-10.16-22.861
	c-1.133-2.553-0.601-5.54,1.353-7.54c23.781-24.4,36.879-56.533,36.879-90.493C396.068,191.428,337.881,133.241,266.361,133.241z"/>
<circle style="fill:#FFE600;" cx="266.353" cy="262.939" r="102.4"/>
<path style="fill:#602F75;" d="M225.394,344.868c-1.193,0-2.406-0.314-3.507-0.973c-3.234-1.94-4.28-6.134-2.34-9.366l81.92-136.533
	c1.94-3.227,6.134-4.287,9.366-2.34c3.234,1.94,4.28,6.134,2.34,9.366l-81.92,136.533
	C229.975,343.689,227.715,344.868,225.394,344.868z"/>
<circle style="fill:#00E7FF;" cx="228.806" cy="211.739" r="17.067"/>
<path style="fill:#602F75;" d="M228.815,235.641c-13.174,0-23.893-10.72-23.893-23.893s10.72-23.893,23.893-23.893
	s23.893,10.72,23.893,23.893S241.988,235.641,228.815,235.641z M228.815,201.508c-5.647,0-10.24,4.593-10.24,10.24
	s4.593,10.24,10.24,10.24s10.24-4.593,10.24-10.24S234.462,201.508,228.815,201.508z"/>
<circle style="fill:#00E7FF;" cx="310.726" cy="314.139" r="17.067"/>
<path style="fill:#602F75;" d="M310.735,338.041c-13.174,0-23.893-10.72-23.893-23.893c0-13.174,10.72-23.893,23.893-23.893
	c13.174,0,23.893,10.72,23.893,23.893C334.628,327.322,323.908,338.041,310.735,338.041z M310.735,303.908
	c-5.647,0-10.24,4.593-10.24,10.24s4.593,10.24,10.24,10.24s10.24-4.593,10.24-10.24S316.382,303.908,310.735,303.908z"/>
<g>
</g>
<g>
</g>
<g>
</g>
<g>
</g>
<g>
</g>
<g>
</g>
<g>
</g>
<g>
</g>
<g>
</g>
<g>
</g>
<g>
</g>
<g>
</g>
<g>
</g>
<g>
</g>
<g>
</g>
</svg>
