<?xml version="1.0" encoding="iso-8859-1"?>
<!-- Generator: Adobe Illustrator 19.0.0, SVG Export Plug-In . SVG Version: 6.00 Build 0)  -->
<svg version="1.1" id="Capa_1" xmlns="http://www.w3.org/2000/svg" xmlns:xlink="http://www.w3.org/1999/xlink" x="0px" y="0px"
	 viewBox="0 0 402.773 402.773" style="enable-background:new 0 0 402.773 402.773;" xml:space="preserve">
<polyline style="fill:#FFFFFF;" points="235.518,114.402 395.947,114.402 361.813,271.415 81.92,271.415 68.267,114.402 
	154.281,114.402 "/>
<g>
	<path style="fill:#602F75;" d="M361.813,278.242H81.92c-3.54,0-6.494-2.707-6.799-6.233L61.467,114.996
		c-0.167-1.906,0.473-3.794,1.766-5.207c1.294-1.413,3.12-2.214,5.033-2.214h86.013c3.773,0,6.827,3.053,6.827,6.827
		s-3.053,6.827-6.827,6.827H75.713l12.467,143.36h268.133l31.16-143.36H235.52c-3.773,0-6.827-3.053-6.827-6.827
		s3.053-6.827,6.827-6.827h160.427c2.067,0,4.019,0.934,5.313,2.54c1.3,1.613,1.794,3.721,1.36,5.74l-34.133,157.013
		C367.8,276.003,365.027,278.242,361.813,278.242z"/>
	<path style="fill:#602F75;" d="M68.26,121.229c-3.434,0-6.393-2.58-6.781-6.074l-6.153-55.366h-48.5
		C3.053,59.789,0,56.735,0,52.962s3.053-6.827,6.827-6.827H61.44c3.48,0,6.4,2.613,6.787,6.074l6.827,61.44
		c0.413,3.746-2.287,7.12-6.033,7.54C68.767,121.215,68.507,121.229,68.26,121.229z"/>
	<path style="fill:#602F75;" d="M88.74,339.682c-3.434,0-6.393-2.58-6.781-6.074l-6.827-61.44c-0.413-3.746,2.287-7.12,6.033-7.54
		c3.773-0.374,7.127,2.294,7.54,6.033l6.827,61.44c0.413,3.746-2.287,7.12-6.033,7.54C89.247,339.668,88.987,339.682,88.74,339.682z
		"/>
</g>
<polygon style="fill:#EA3457;" points="327.68,230.455 118.328,230.455 109.227,155.362 348.16,155.362 "/>
<circle style="fill:#FFE600;" cx="95.573" cy="360.158" r="27.307"/>
<path style="fill:#602F75;" d="M95.573,394.295c-18.819,0-34.133-15.314-34.133-34.133s15.314-34.133,34.133-34.133
	s34.133,15.314,34.133,34.133S114.393,394.295,95.573,394.295z M95.573,339.682c-11.293,0-20.48,9.187-20.48,20.48
	s9.187,20.48,20.48,20.48s20.48-9.187,20.48-20.48S106.866,339.682,95.573,339.682z"/>
<circle style="fill:#FFE600;" cx="327.68" cy="360.158" r="27.307"/>
<g>
	<path style="fill:#602F75;" d="M327.68,394.295c-18.819,0-34.133-15.314-34.133-34.133s15.314-34.133,34.133-34.133
		c18.819,0,34.133,15.314,34.133,34.133S346.499,394.295,327.68,394.295z M327.68,339.682c-11.293,0-20.48,9.187-20.48,20.48
		s9.187,20.48,20.48,20.48c11.293,0,20.48-9.187,20.48-20.48S338.973,339.682,327.68,339.682z"/>
	<path style="fill:#602F75;" d="M300.373,366.989H122.88c-3.773,0-6.827-3.053-6.827-6.827s3.053-6.827,6.827-6.827h177.493
		c3.773,0,6.827,3.053,6.827,6.827S304.147,366.989,300.373,366.989z"/>
</g>
<path style="fill:#EA3457;" d="M191.147,189.495c-7.54,0-13.653-6.113-13.653-13.653v-34.133c0-56.467,45.933-102.4,102.4-102.4
	c7.54,0,13.653,6.113,13.653,13.653s-6.113,13.653-13.653,13.653c-41.407,0-75.093,33.686-75.093,75.093v34.133
	C204.8,183.382,198.687,189.495,191.147,189.495z"/>
<path style="fill:#602F75;" d="M191.147,196.322c-11.293,0-20.48-9.187-20.48-20.48v-34.133c0-60.227,49-109.227,109.227-109.227
	c11.293,0,20.48,9.187,20.48,20.48s-9.187,20.48-20.48,20.48c-37.641,0-68.267,30.626-68.267,68.267v34.133
	C211.627,187.135,202.44,196.322,191.147,196.322z M279.893,46.135c-52.7,0-95.573,42.873-95.573,95.573v34.133
	c0,3.767,3.06,6.827,6.827,6.827s6.827-3.06,6.827-6.827v-34.133c0-45.174,36.746-81.92,81.92-81.92c3.767,0,6.827-3.06,6.827-6.827
	C286.72,49.195,283.66,46.135,279.893,46.135z"/>
<path style="fill:#EA3457;" d="M334.234,42.157l-40.038-24.893c-8.475-5.27-19.441,0.824-19.441,10.805v49.789
	c0,9.981,10.965,16.075,19.441,10.805l40.038-24.893C342.24,58.788,342.24,47.135,334.234,42.157z"/>
<path style="fill:#602F75;" d="M287.493,97.443c-3.253,0-6.513-0.826-9.513-2.5c-6.294-3.5-10.054-9.887-10.054-17.087V28.068
	c0-7.2,3.76-13.587,10.054-17.087c6.287-3.5,13.699-3.319,19.82,0.48l40.04,24.893l0,0c5.774,3.593,9.226,9.807,9.226,16.606
	c0,6.799-3.453,13.013-9.226,16.606L297.8,94.459C294.6,96.449,291.053,97.443,287.493,97.443z M287.52,22.148
	c-1.319,0-2.374,0.466-2.906,0.766c-0.913,0.507-3.033,2.021-3.033,5.154v49.787c0,3.133,2.12,4.647,3.033,5.154
	c0.906,0.507,3.308,1.507,5.973-0.147l40.04-24.893c2.514-1.56,2.787-4.019,2.787-5.007c0-0.988-0.273-3.447-2.787-5.007
	l-40.04-24.893C289.493,22.382,288.44,22.148,287.52,22.148z"/>
<g>
</g>
<g>
</g>
<g>
</g>
<g>
</g>
<g>
</g>
<g>
</g>
<g>
</g>
<g>
</g>
<g>
</g>
<g>
</g>
<g>
</g>
<g>
</g>
<g>
</g>
<g>
</g>
<g>
</g>
</svg>
