<?xml version="1.0" encoding="iso-8859-1"?>
<!-- Generator: Adobe Illustrator 19.0.0, SVG Export Plug-In . SVG Version: 6.00 Build 0)  -->
<svg version="1.1" id="Capa_1" xmlns="http://www.w3.org/2000/svg" xmlns:xlink="http://www.w3.org/1999/xlink" x="0px" y="0px"
	 viewBox="0 0 430.08 430.08" style="enable-background:new 0 0 430.08 430.08;" xml:space="preserve">
<polygon style="fill:#FFFFFF;" points="348.16,372.053 252.587,372.053 238.933,296.96 361.813,296.96 "/>
<g>
	<path style="fill:#EA3457;" d="M348.16,378.88h-95.573c-3.301,0-6.127-2.36-6.717-5.606l-13.653-75.093
		c-0.364-1.99,0.179-4.04,1.476-5.593c1.297-1.553,3.217-2.454,5.241-2.454h122.88c2.024,0,3.944,0.899,5.239,2.454
		c1.295,1.555,1.84,3.603,1.476,5.593l-13.653,75.093C354.287,376.52,351.461,378.88,348.16,378.88z M258.284,365.227h84.18
		l11.17-61.44h-106.52L258.284,365.227z"/>
	<path style="fill:#EA3457;" d="M368.64,399.36H238.933c-3.77,0-6.827-3.057-6.827-6.827s3.057-6.827,6.827-6.827h124.187
		l19.323-90.177c0.676-3.147,3.456-5.396,6.676-5.396h34.133c3.77,0,6.827,3.057,6.827,6.827c0,3.77-3.057,6.827-6.827,6.827
		h-28.614l-19.323,90.177C374.641,397.111,371.86,399.36,368.64,399.36z"/>
	<path style="fill:#EA3457;" d="M279.887,378.88c-3.236,0-6.11-2.311-6.711-5.606l-13.653-75.093
		c-0.674-3.707,1.787-7.264,5.497-7.936c3.703-0.667,7.26,1.79,7.936,5.497l13.653,75.093c0.674,3.707-1.787,7.264-5.497,7.936
		C280.704,378.844,280.289,378.88,279.887,378.88z"/>
	<path style="fill:#EA3457;" d="M300.373,378.88c-3.77,0-6.827-3.057-6.827-6.827V296.96c0-3.77,3.057-6.827,6.827-6.827
		c3.77,0,6.827,3.057,6.827,6.827v75.093C307.2,375.823,304.143,378.88,300.373,378.88z"/>
	<path style="fill:#EA3457;" d="M320.86,378.88c-0.403,0-0.814-0.036-1.227-0.109c-3.71-0.674-6.17-4.231-5.497-7.936l13.653-75.093
		c0.676-3.707,4.2-6.159,7.936-5.497c3.71,0.674,6.17,4.231,5.497,7.936l-13.653,75.093
		C326.97,376.569,324.096,378.88,320.86,378.88z"/>
	<circle style="fill:#EA3457;" cx="259.413" cy="406.187" r="13.653"/>
	<circle style="fill:#EA3457;" cx="348.16" cy="406.187" r="13.653"/>
</g>
<path style="fill:#00E7FF;" d="M204.8,337.92c0-26.803,10.382-51.123,27.237-69.376l-54.543-2.304l-103.863,4.388
	c-36.895,0-66.804,26.877-66.804,60.029v61.877h213.857C210.678,376.714,204.8,358.023,204.8,337.92z"/>
<path style="fill:#602F75;" d="M220.684,399.36H6.827c-3.77,0-6.827-3.057-6.827-6.827v-61.877
	c0-36.864,33.031-66.857,73.631-66.857l103.576-4.379l55.117,2.304c2.661,0.109,5.011,1.756,6.023,4.217
	c1.017,2.456,0.51,5.28-1.294,7.233c-16.396,17.756-25.426,40.748-25.426,64.746c0,18.007,5.127,35.63,14.828,50.963
	c1.33,2.103,1.41,4.763,0.21,6.943C225.464,398.005,223.171,399.36,220.684,399.36z M13.653,385.707H209.06
	c-7.281-14.877-11.087-31.186-11.087-47.787c0-22.76,7.096-44.723,20.207-63.13l-40.974-1.731l-103.289,4.386
	c-33.357,0.007-60.264,23.875-60.264,53.21V385.707z"/>
<path style="fill:#FFFFFF;" d="M232.107,274.773L232.107,274.773c-34.379,10.743-74.848,10.743-109.227,0l0,0V215.04h109.227
	V274.773z"/>
<path style="fill:#602F75;" d="M177.493,289.603c-19.456,0-38.914-2.773-56.649-8.313c-2.85-0.889-4.791-3.529-4.791-6.516V215.04
	c0-3.77,3.057-6.827,6.827-6.827h109.227c3.77,0,6.827,3.057,6.827,6.827v59.733c0,2.987-1.94,5.627-4.791,6.516
	C216.407,286.829,196.949,289.603,177.493,289.603z M129.707,269.67c30.287,8.4,65.287,8.4,95.573,0v-47.804h-95.573V269.67z
	 M232.107,274.773h0.067H232.107z"/>
<path style="fill:#FFFFFF;" d="M273.067,134.827v62.848c0,24.672-20,44.672-44.672,44.672H126.592
	c-24.672,0-44.672-20-44.672-44.672V74.482c0-9.088,7.368-16.456,16.456-16.456h158.235c9.088,0,16.456,7.368,16.456,16.456"/>
<path style="fill:#602F75;" d="M228.393,249.173H126.594c-28.397,0-51.5-23.103-51.5-51.5V74.484
	c0-12.841,10.443-23.284,23.284-23.284h158.234c12.839,0,23.282,10.443,23.282,23.284c0,3.77-3.057,6.827-6.827,6.827
	s-6.827-3.057-6.827-6.827c0-5.309-4.32-9.631-9.631-9.631H98.377c-5.311,0-9.631,4.32-9.631,9.631v123.191
	c0,20.869,16.976,37.845,37.847,37.845h101.799c20.871,0,37.847-16.976,37.847-37.847v-62.846c0-3.77,3.057-6.827,6.827-6.827
	s6.827,3.057,6.827,6.827v62.846C279.893,226.07,256.79,249.173,228.393,249.173z"/>
<path style="fill:#FFE600;" d="M246.88,105.813H81.92v-60.3c0-15.71,12.737-28.447,28.447-28.447h183.18v42.08
	C293.547,84.92,272.654,105.813,246.88,105.813z"/>
<path style="fill:#602F75;" d="M246.88,112.64H81.92c-3.77,0-6.827-3.057-6.827-6.827v-60.3c0-19.451,15.823-35.273,35.273-35.273
	h183.18c3.77,0,6.827,3.057,6.827,6.827v42.08C300.373,88.643,276.376,112.64,246.88,112.64z M88.747,98.987H246.88
	c21.966,0,39.84-17.874,39.84-39.84V23.893H110.367c-11.919,0-21.62,9.701-21.62,21.62V98.987z"/>
<g>
</g>
<g>
</g>
<g>
</g>
<g>
</g>
<g>
</g>
<g>
</g>
<g>
</g>
<g>
</g>
<g>
</g>
<g>
</g>
<g>
</g>
<g>
</g>
<g>
</g>
<g>
</g>
<g>
</g>
</svg>
