<?xml version="1.0" encoding="iso-8859-1"?>
<!-- Generator: Adobe Illustrator 19.0.0, SVG Export Plug-In . SVG Version: 6.00 Build 0)  -->
<svg version="1.1" id="Capa_1" xmlns="http://www.w3.org/2000/svg" xmlns:xlink="http://www.w3.org/1999/xlink" x="0px" y="0px"
	 viewBox="0 0 402.773 402.773" style="enable-background:new 0 0 402.773 402.773;" xml:space="preserve">
<polyline style="fill:#FFFFFF;" points="232.108,102.4 395.947,102.4 361.813,259.413 81.92,259.413 68.267,102.4 175.256,102.4 "/>
<g>
	<path style="fill:#602F75;" d="M361.813,266.24H81.92c-3.54,0-6.494-2.707-6.799-6.233L61.467,102.994
		c-0.167-1.906,0.473-3.794,1.766-5.207c1.294-1.413,3.12-2.214,5.033-2.214h106.993c3.773,0,6.827,3.053,6.827,6.827
		s-3.053,6.827-6.827,6.827H75.713l12.467,143.36h268.133l31.16-143.36H232.107c-3.773,0-6.827-3.053-6.827-6.827
		s3.053-6.827,6.827-6.827h163.84c2.067,0,4.019,0.934,5.313,2.54c1.3,1.613,1.794,3.721,1.36,5.74l-34.133,157.013
		C367.8,264.001,365.027,266.24,361.813,266.24z"/>
	<path style="fill:#602F75;" d="M68.26,109.227c-3.434,0-6.393-2.58-6.781-6.074l-6.153-55.366h-48.5C3.053,47.787,0,44.733,0,40.96
		s3.053-6.827,6.827-6.827H61.44c3.48,0,6.4,2.613,6.787,6.074l6.827,61.44c0.413,3.746-2.287,7.12-6.033,7.54
		C68.767,109.213,68.507,109.227,68.26,109.227z"/>
	<path style="fill:#602F75;" d="M88.74,327.68c-3.434,0-6.393-2.58-6.781-6.074l-6.827-61.44c-0.413-3.746,2.287-7.12,6.033-7.54
		c3.746-0.393,7.127,2.294,7.54,6.033l6.827,61.44c0.413,3.746-2.287,7.12-6.033,7.54C89.247,327.666,88.987,327.68,88.74,327.68z"
		/>
</g>
<circle style="fill:#00E7FF;" cx="95.573" cy="348.16" r="27.307"/>
<path style="fill:#602F75;" d="M95.573,382.293c-18.819,0-34.133-15.314-34.133-34.133s15.314-34.133,34.133-34.133
	s34.133,15.314,34.133,34.133S114.393,382.293,95.573,382.293z M95.573,327.68c-11.293,0-20.48,9.187-20.48,20.48
	s9.187,20.48,20.48,20.48s20.48-9.187,20.48-20.48S106.866,327.68,95.573,327.68z"/>
<circle style="fill:#00E7FF;" cx="327.68" cy="348.16" r="27.307"/>
<g>
	<path style="fill:#602F75;" d="M327.68,382.293c-18.819,0-34.133-15.314-34.133-34.133s15.314-34.133,34.133-34.133
		c18.819,0,34.133,15.314,34.133,34.133S346.499,382.293,327.68,382.293z M327.68,327.68c-11.293,0-20.48,9.187-20.48,20.48
		s9.187,20.48,20.48,20.48c11.293,0,20.48-9.187,20.48-20.48S338.973,327.68,327.68,327.68z"/>
	<path style="fill:#602F75;" d="M300.373,354.987H122.88c-3.773,0-6.827-3.053-6.827-6.827s3.053-6.827,6.827-6.827h177.493
		c3.773,0,6.827,3.053,6.827,6.827S304.147,354.987,300.373,354.987z"/>
</g>
<g>
	<circle style="fill:#EA3457;" cx="286.72" cy="102.4" r="75.093"/>
	<path style="fill:#EA3457;" d="M286.72,184.32c-45.174,0-81.92-36.746-81.92-81.92s36.746-81.92,81.92-81.92
		s81.92,36.746,81.92,81.92S331.894,184.32,286.72,184.32z M286.72,34.133c-37.641,0-68.267,30.626-68.267,68.267
		s30.626,68.267,68.267,68.267s68.267-30.626,68.267-68.267S324.361,34.133,286.72,34.133z"/>
</g>
<path style="fill:#FFE600;" d="M314.115,65.765c-8.409-3.299-18.5,0.614-27.035,9.264c-8.535-8.649-18.627-12.561-27.035-9.264
	c-13.629,5.347-17.661,27.569-9.004,49.637c7.772,19.811,28.465,30.715,36.04,31.285c7.574-0.57,28.268-11.474,36.04-31.285
	C331.776,93.334,327.745,71.112,314.115,65.765z"/>
<path style="fill:#602F75;" d="M287.08,153.513c-0.174,0-0.346-0.007-0.514-0.02c-10.327-0.78-33.154-13.346-41.88-35.599
	c-10.187-25.974-4.533-51.661,12.867-58.481c9.127-3.593,19.847-1.167,29.527,6.46c9.68-7.627,20.361-10.054,29.527-6.46l0,0
	c17.399,6.82,23.054,32.507,12.867,58.481c-8.726,22.253-31.553,34.819-41.88,35.599
	C287.427,153.506,287.252,153.513,287.08,153.513z M266.346,71.427c-1.34,0-2.62,0.227-3.806,0.693
	c-8.666,3.4-12.906,20.987-5.147,40.786c6.647,16.927,24.267,25.999,29.687,26.907c5.42-0.906,23.04-9.981,29.687-26.907
	c7.76-19.801,3.519-37.386-5.147-40.786l0,0c-5.46-2.14-12.814,0.748-19.68,7.7c-2.574,2.599-7.148,2.599-9.719,0
	C276.847,74.373,271.174,71.427,266.346,71.427z"/>
<g>
</g>
<g>
</g>
<g>
</g>
<g>
</g>
<g>
</g>
<g>
</g>
<g>
</g>
<g>
</g>
<g>
</g>
<g>
</g>
<g>
</g>
<g>
</g>
<g>
</g>
<g>
</g>
<g>
</g>
</svg>
