<?xml version="1.0" encoding="iso-8859-1"?>
<!-- Generator: Adobe Illustrator 19.0.0, SVG Export Plug-In . SVG Version: 6.00 Build 0)  -->
<svg version="1.1" id="Capa_1" xmlns="http://www.w3.org/2000/svg" xmlns:xlink="http://www.w3.org/1999/xlink" x="0px" y="0px"
	 viewBox="0 0 409.6 409.6" style="enable-background:new 0 0 409.6 409.6;" xml:space="preserve">
<path style="fill:#FFE600;" d="M225.28,252.385l26.812-18.963c16.44-11.626,24.093-30.433,19.799-48.654L232.107,34.133
	L68.267,40.96L28.483,184.771c-4.294,18.22,3.359,37.028,19.799,48.654l101.905,72.069l26.547-18.775"/>
<path style="fill:#602F75;" d="M150.187,312.32c-1.381,0-2.76-0.416-3.944-1.253L44.339,238.996
	c-18.847-13.331-27.471-34.707-22.501-55.793L61.686,39.141c0.79-2.857,3.333-4.876,6.296-5.001l163.84-6.827
	c3.007-0.104,6.067,1.976,6.883,5.077l39.784,150.637c5.014,21.263-3.61,42.639-22.456,55.97l-26.81,18.963
	c-3.081,2.179-7.34,1.447-9.516-1.63c-2.176-3.081-1.447-7.34,1.63-9.516l26.81-18.963c14.213-10.051,20.763-25.957,17.101-41.513
	l-38.34-145.154L73.52,47.575L35.063,186.59c-3.599,15.304,2.951,31.21,17.164,41.26l97.959,69.284l22.603-15.99
	c3.077-2.173,7.34-1.447,9.516,1.63c2.176,3.081,1.447,7.34-1.63,9.516l-26.547,18.777
	C152.946,311.904,151.567,312.32,150.187,312.32z"/>
<path style="fill:#00E7FF;" d="M196.791,272.464l-46.604-9.638l-87.245,18.041c-30.991,0-56.115,26.877-56.115,60.029v48.224
	h192.963c-9.858-18.29-15.469-39.206-15.469-61.44C184.32,307.905,188.875,289.236,196.791,272.464"/>
<path style="fill:#602F75;" d="M199.789,395.947H6.827c-3.77,0-6.827-3.057-6.827-6.827v-48.224
	c0-36.61,27.846-66.444,62.223-66.854l86.579-17.903c0.913-0.186,1.853-0.186,2.767,0l46.604,9.636
	c2.046,0.427,3.79,1.766,4.724,3.637c0.937,1.874,0.959,4.07,0.067,5.963c-7.84,16.621-11.817,34.217-11.817,52.304
	c0,20.287,5.067,40.414,14.653,58.201c1.14,2.116,1.084,4.676-0.15,6.74C204.419,394.684,202.194,395.947,199.789,395.947z
	 M13.653,382.293h175.234c-7.477-17.147-11.394-35.82-11.394-54.613c0-17.27,3.253-34.13,9.687-50.234l-36.994-7.649l-85.861,17.756
	c-0.457,0.094-0.92,0.14-1.384,0.14c-27.179,0-49.289,23.868-49.289,53.204V382.293z"/>
<path style="fill:#FFFFFF;" d="M184.32,271.36L184.32,271.36c-21.487,10.743-46.78,10.743-68.267,0l0,0v-59.733h68.267V271.36z"/>
<path style="fill:#602F75;" d="M150.187,286.196c-12.773,0-25.544-2.91-37.187-8.73c-2.314-1.157-3.773-3.519-3.773-6.106v-59.733
	c0-3.77,3.057-6.827,6.827-6.827h68.267c3.77,0,6.827,3.057,6.827,6.827v59.733c0,2.587-1.459,4.949-3.773,6.106
	C175.73,283.286,162.959,286.196,150.187,286.196z M122.88,266.999c17.367,7.4,37.246,7.4,54.613,0v-48.546H122.88V266.999z
	 M184.32,271.36h0.067H184.32z"/>
<path style="fill:#FFFFFF;" d="M176.014,225.28H124.36c-30.979,0-56.093-25.114-56.093-56.093V57.416
	c0-9.088,7.368-16.456,16.456-16.456h130.929c9.088,0,16.456,7.368,16.456,16.456v111.771
	C232.107,200.166,206.993,225.28,176.014,225.28z"/>
<path style="fill:#602F75;" d="M176.014,232.107H124.36c-34.693,0-62.92-28.227-62.92-62.92V57.417
	c0-12.841,10.443-23.284,23.284-23.284h130.927c12.839,0,23.282,10.443,23.282,23.284v111.77
	C238.933,203.88,210.707,232.107,176.014,232.107z M84.724,47.787c-5.311,0-9.631,4.32-9.631,9.631v111.77
	c0,27.167,22.1,49.266,49.266,49.266h51.654c27.167,0,49.266-22.1,49.266-49.266V57.417c0-5.309-4.32-9.631-9.631-9.631
	C215.649,47.787,84.724,47.787,84.724,47.787z"/>
<path style="fill:#FFE600;" d="M185.44,95.573H68.267v-60.3c0-15.71,12.737-28.447,28.447-28.447h135.393v42.08
	C232.107,74.68,211.214,95.573,185.44,95.573z"/>
<path style="fill:#602F75;" d="M185.44,102.4H68.267c-3.77,0-6.827-3.057-6.827-6.827v-60.3C61.44,15.823,77.263,0,96.713,0h135.393
	c3.77,0,6.827,3.057,6.827,6.827v42.08C238.933,78.403,214.936,102.4,185.44,102.4z M75.093,88.747H185.44
	c21.966,0,39.84-17.874,39.84-39.84V13.653H96.713c-11.919,0-21.62,9.701-21.62,21.62V88.747z"/>
<polygon style="fill:#FFFFFF;" points="327.68,361.813 232.107,361.813 218.453,286.72 341.333,286.72 "/>
<g>
	<path style="fill:#EA3457;" d="M327.68,368.64h-95.573c-3.301,0-6.127-2.36-6.717-5.606l-13.653-75.093
		c-0.364-1.99,0.179-4.04,1.476-5.593c1.297-1.553,3.217-2.454,5.241-2.454h122.88c2.024,0,3.944,0.899,5.239,2.454
		c1.295,1.555,1.84,3.603,1.476,5.593l-13.653,75.093C333.807,366.28,330.981,368.64,327.68,368.64z M237.804,354.987h84.18
		l11.17-61.44h-106.52L237.804,354.987z"/>
	<path style="fill:#EA3457;" d="M348.16,389.12H218.453c-3.77,0-6.827-3.057-6.827-6.827s3.057-6.827,6.827-6.827h124.187
		l19.323-90.177c0.676-3.147,3.456-5.396,6.676-5.396h34.133c3.77,0,6.827,3.057,6.827,6.827s-3.057,6.827-6.827,6.827h-28.614
		l-19.323,90.177C354.161,386.871,351.38,389.12,348.16,389.12z"/>
	<path style="fill:#EA3457;" d="M259.407,368.64c-3.236,0-6.11-2.311-6.711-5.606l-13.653-75.093
		c-0.674-3.707,1.787-7.264,5.497-7.936c3.7-0.667,7.26,1.79,7.936,5.497l13.653,75.093c0.674,3.707-1.787,7.264-5.497,7.936
		C260.224,368.604,259.809,368.64,259.407,368.64z"/>
	<path style="fill:#EA3457;" d="M279.893,368.64c-3.77,0-6.827-3.057-6.827-6.827V286.72c0-3.77,3.057-6.827,6.827-6.827
		s6.827,3.057,6.827,6.827v75.093C286.72,365.583,283.663,368.64,279.893,368.64z"/>
	<path style="fill:#EA3457;" d="M300.38,368.64c-0.403,0-0.814-0.036-1.227-0.109c-3.71-0.674-6.17-4.231-5.497-7.936l13.653-75.093
		c0.676-3.707,4.2-6.159,7.936-5.497c3.71,0.674,6.17,4.231,5.497,7.936l-13.653,75.093
		C306.49,366.329,303.616,368.64,300.38,368.64z"/>
	<circle style="fill:#EA3457;" cx="238.933" cy="395.947" r="13.653"/>
	<circle style="fill:#EA3457;" cx="327.68" cy="395.947" r="13.653"/>
</g>
<g>
</g>
<g>
</g>
<g>
</g>
<g>
</g>
<g>
</g>
<g>
</g>
<g>
</g>
<g>
</g>
<g>
</g>
<g>
</g>
<g>
</g>
<g>
</g>
<g>
</g>
<g>
</g>
<g>
</g>
</svg>
