<?xml version="1.0" encoding="iso-8859-1"?>
<!-- Generator: Adobe Illustrator 19.0.0, SVG Export Plug-In . SVG Version: 6.00 Build 0)  -->
<svg version="1.1" id="Capa_1" xmlns="http://www.w3.org/2000/svg" xmlns:xlink="http://www.w3.org/1999/xlink" x="0px" y="0px"
	 viewBox="0 0 402.773 402.773" style="enable-background:new 0 0 402.773 402.773;" xml:space="preserve">
<polyline style="fill:#FFFFFF;" points="226.529,102.4 395.947,102.4 361.813,259.413 81.92,259.413 68.267,102.4 172.172,102.4 "/>
<g>
	<path style="fill:#602F75;" d="M361.813,266.24H81.92c-3.54,0-6.494-2.707-6.799-6.233L61.467,102.994
		c-0.167-1.906,0.473-3.794,1.766-5.207c1.294-1.413,3.12-2.214,5.033-2.214h103.907c3.773,0,6.827,3.053,6.827,6.827
		s-3.053,6.827-6.827,6.827H75.713l12.467,143.36h268.133l31.16-143.36H226.526c-3.773,0-6.827-3.053-6.827-6.827
		s3.053-6.827,6.827-6.827h169.421c2.067,0,4.019,0.934,5.313,2.54c1.3,1.613,1.794,3.721,1.36,5.74l-34.133,157.013
		C367.8,264.001,365.027,266.24,361.813,266.24z"/>
	<path style="fill:#602F75;" d="M68.26,109.227c-3.434,0-6.393-2.58-6.781-6.074l-6.153-55.366h-48.5C3.053,47.787,0,44.733,0,40.96
		s3.053-6.827,6.827-6.827H61.44c3.48,0,6.4,2.613,6.787,6.074l6.827,61.44c0.413,3.746-2.287,7.12-6.033,7.54
		C68.767,109.213,68.507,109.227,68.26,109.227z"/>
	<path style="fill:#602F75;" d="M88.74,327.68c-3.434,0-6.393-2.58-6.781-6.074l-6.827-61.44c-0.413-3.746,2.287-7.12,6.033-7.54
		c3.773-0.393,7.127,2.294,7.54,6.033l6.827,61.44c0.413,3.746-2.287,7.12-6.033,7.54C89.247,327.666,88.987,327.68,88.74,327.68z"
		/>
</g>
<circle style="fill:#00E7FF;" cx="95.573" cy="348.16" r="27.307"/>
<path style="fill:#602F75;" d="M95.573,382.293c-18.819,0-34.133-15.314-34.133-34.133s15.314-34.133,34.133-34.133
	s34.133,15.314,34.133,34.133S114.393,382.293,95.573,382.293z M95.573,327.68c-11.293,0-20.48,9.187-20.48,20.48
	s9.187,20.48,20.48,20.48s20.48-9.187,20.48-20.48S106.866,327.68,95.573,327.68z"/>
<circle style="fill:#00E7FF;" cx="327.68" cy="348.16" r="27.307"/>
<g>
	<path style="fill:#602F75;" d="M327.68,382.293c-18.819,0-34.133-15.314-34.133-34.133s15.314-34.133,34.133-34.133
		c18.819,0,34.133,15.314,34.133,34.133S346.499,382.293,327.68,382.293z M327.68,327.68c-11.293,0-20.48,9.187-20.48,20.48
		s9.187,20.48,20.48,20.48c11.293,0,20.48-9.187,20.48-20.48S338.973,327.68,327.68,327.68z"/>
	<path style="fill:#602F75;" d="M300.373,354.987H122.88c-3.773,0-6.827-3.053-6.827-6.827s3.053-6.827,6.827-6.827h177.493
		c3.773,0,6.827,3.053,6.827,6.827S304.147,354.987,300.373,354.987z"/>
</g>
<g>
	<circle style="fill:#FFE600;" cx="279.893" cy="102.4" r="75.093"/>
	<path style="fill:#FFE600;" d="M279.893,184.32c-45.174,0-81.92-36.746-81.92-81.92s36.746-81.92,81.92-81.92
		s81.92,36.746,81.92,81.92S325.067,184.32,279.893,184.32z M279.893,34.133c-37.641,0-68.267,30.626-68.267,68.267
		s30.626,68.267,68.267,68.267s68.267-30.626,68.267-68.267S317.534,34.133,279.893,34.133z"/>
</g>
<path style="fill:#EA3457;" d="M288.353,58.351l5.818,17.905c1.097,3.377,4.245,5.664,7.796,5.664h18.826
	c7.941,0,11.243,10.161,4.818,14.829l-15.23,11.066c-2.872,2.087-4.076,5.787-2.978,9.165l5.818,17.905
	c2.454,7.552-6.19,13.833-12.614,9.165l-15.23-11.066c-2.872-2.087-6.764-2.087-9.636,0l-15.23,11.066
	c-6.424,4.668-15.068-1.613-12.614-9.165l5.818-17.905c1.097-3.377-0.104-7.078-2.978-9.165l-15.23-11.066
	c-6.424-4.668-3.123-14.829,4.818-14.829h18.826c3.552,0,6.699-2.287,7.796-5.664l5.818-17.905
	C275.214,50.799,285.899,50.799,288.353,58.351z"/>
<path style="fill:#602F75;" d="M305.427,152.499c-3.074,0-6.147-0.973-8.834-2.92l-15.234-11.073
	c-0.486-0.353-1.133-0.353-1.606,0.007l-15.234,11.059c-5.373,3.907-12.3,3.907-17.661,0c-5.367-3.893-7.506-10.487-5.46-16.794
	l5.82-17.913c0.179-0.56-0.014-1.179-0.5-1.527l-15.234-11.073c-5.361-3.893-7.506-10.487-5.453-16.794
	c2.046-6.306,7.66-10.38,14.286-10.38h18.826c0.594,0,1.113-0.381,1.3-0.94l5.82-17.913c2.046-6.299,7.66-10.38,14.287-10.38
	c6.634,0,12.24,4.074,14.293,10.38l5.82,17.9c0.186,0.573,0.707,0.954,1.3,0.954h18.826c6.627,0,12.24,4.074,14.287,10.38
	c2.053,6.306-0.094,12.901-5.453,16.794l-15.234,11.066c-0.486,0.353-0.679,0.973-0.5,1.546l5.82,17.893
	c2.046,6.313-0.094,12.906-5.46,16.8C311.572,151.526,308.5,152.499,305.427,152.499z M280.561,124.587
	c3.092,0,6.187,0.959,8.827,2.874l15.234,11.073c0.206,0.147,0.794,0.573,1.606,0c0.807-0.587,0.587-1.28,0.5-1.539l-5.82-17.9
	c-2.014-6.226,0.186-12.974,5.46-16.807l15.234-11.059c0.22-0.16,0.807-0.587,0.493-1.533c-0.307-0.949-1.027-0.949-1.3-0.949
	h-18.826c-6.533,0-12.279-4.173-14.286-10.394l-5.82-17.886V60.46c-0.087-0.259-0.307-0.947-1.307-0.947
	c-0.993,0-1.213,0.686-1.3,0.947l-5.82,17.906c-2.007,6.207-7.753,10.38-14.286,10.38h-18.826c-0.273,0-0.993,0-1.3,0.947
	c-0.314,0.947,0.273,1.374,0.493,1.533l15.234,11.066c5.274,3.826,7.473,10.573,5.46,16.787l-5.82,17.92
	c-0.087,0.253-0.307,0.947,0.5,1.533c0.814,0.587,1.393,0.16,1.606-0.007l15.234-11.059
	C274.367,125.546,277.46,124.587,280.561,124.587z"/>
<g>
</g>
<g>
</g>
<g>
</g>
<g>
</g>
<g>
</g>
<g>
</g>
<g>
</g>
<g>
</g>
<g>
</g>
<g>
</g>
<g>
</g>
<g>
</g>
<g>
</g>
<g>
</g>
<g>
</g>
</svg>
