<?xml version="1.0" encoding="iso-8859-1"?>
<!-- Generator: Adobe Illustrator 19.0.0, SVG Export Plug-In . SVG Version: 6.00 Build 0)  -->
<svg version="1.1" id="Capa_1" xmlns="http://www.w3.org/2000/svg" xmlns:xlink="http://www.w3.org/1999/xlink" x="0px" y="0px"
	 viewBox="0 0 402.773 402.773" style="enable-background:new 0 0 402.773 402.773;" xml:space="preserve">
<polyline style="fill:#FFFFFF;" points="264.786,95.573 395.947,95.573 361.813,252.587 81.92,252.587 68.267,95.573 
	177.693,95.573 "/>
<path style="fill:#602F75;" d="M361.813,259.413H81.92c-3.54,0-6.494-2.707-6.799-6.233L61.467,96.167
	c-0.167-1.906,0.473-3.794,1.766-5.207c1.294-1.413,3.12-2.214,5.033-2.214h109.426c3.773,0,6.827,3.053,6.827,6.827
	s-3.053,6.827-6.827,6.827H75.713L88.18,245.76h268.133l31.16-143.36H264.786c-3.773,0-6.827-3.053-6.827-6.827
	s3.053-6.827,6.827-6.827h131.161c2.067,0,4.019,0.934,5.313,2.54c1.3,1.613,1.794,3.721,1.36,5.74l-34.133,157.013
	C367.8,257.174,365.027,259.413,361.813,259.413z"/>
<polygon style="fill:#00E7FF;" points="327.68,211.627 118.328,211.627 109.227,136.533 348.16,136.533 "/>
<g>
	<path style="fill:#602F75;" d="M68.26,102.4c-3.434,0-6.393-2.58-6.781-6.074L55.327,40.96h-48.5C3.053,40.96,0,37.907,0,34.133
		s3.053-6.827,6.827-6.827H61.44c3.48,0,6.4,2.613,6.787,6.074l6.827,61.44c0.413,3.746-2.287,7.12-6.033,7.54
		C68.767,102.386,68.507,102.4,68.26,102.4z"/>
	<path style="fill:#602F75;" d="M88.74,320.853c-3.434,0-6.393-2.58-6.781-6.074l-6.827-61.44c-0.413-3.746,2.287-7.12,6.033-7.54
		c3.773-0.374,7.127,2.294,7.54,6.033l6.827,61.44c0.413,3.746-2.287,7.12-6.033,7.54C89.247,320.84,88.987,320.853,88.74,320.853z"
		/>
</g>
<circle style="fill:#FFE600;" cx="95.573" cy="341.333" r="27.307"/>
<path style="fill:#602F75;" d="M95.573,375.467c-18.819,0-34.133-15.314-34.133-34.133S76.754,307.2,95.573,307.2
	s34.133,15.314,34.133,34.133S114.393,375.467,95.573,375.467z M95.573,320.853c-11.293,0-20.48,9.187-20.48,20.48
	c0,11.293,9.187,20.48,20.48,20.48s20.48-9.187,20.48-20.48C116.053,330.04,106.866,320.853,95.573,320.853z"/>
<circle style="fill:#FFE600;" cx="327.68" cy="341.333" r="27.307"/>
<g>
	<path style="fill:#602F75;" d="M327.68,375.467c-18.819,0-34.133-15.314-34.133-34.133S308.861,307.2,327.68,307.2
		c18.819,0,34.133,15.314,34.133,34.133S346.499,375.467,327.68,375.467z M327.68,320.853c-11.293,0-20.48,9.187-20.48,20.48
		c0,11.293,9.187,20.48,20.48,20.48c11.293,0,20.48-9.187,20.48-20.48C348.16,330.04,338.973,320.853,327.68,320.853z"/>
	<path style="fill:#602F75;" d="M300.373,348.16H122.88c-3.773,0-6.827-3.053-6.827-6.827s3.053-6.827,6.827-6.827h177.493
		c3.773,0,6.827,3.053,6.827,6.827S304.147,348.16,300.373,348.16z"/>
</g>
<path style="fill:#00E7FF;" d="M345.952,49.995c0-7.54-6.113-13.653-13.653-13.653h-34.133c-56.467,0-102.4,45.933-102.4,102.4
	c0,7.54,6.113,13.653,13.653,13.653c7.54,0,13.653-6.113,13.653-13.653c0-41.407,33.686-75.093,75.093-75.093h34.133
	C339.838,63.648,345.952,57.535,345.952,49.995z"/>
<path style="fill:#602F75;" d="M209.42,159.22c-11.293,0-20.48-9.187-20.48-20.48c0-60.227,49-109.227,109.227-109.227H332.3
	c11.293,0,20.48,9.187,20.48,20.48s-9.187,20.48-20.48,20.48h-34.133c-37.641,0-68.267,30.626-68.267,68.267
	C229.9,150.033,220.713,159.22,209.42,159.22z M298.167,43.167c-52.7,0-95.573,42.873-95.573,95.573c0,3.767,3.06,6.827,6.827,6.827
	s6.827-3.06,6.827-6.827c0-45.174,36.746-81.92,81.92-81.92H332.3c3.767,0,6.827-3.06,6.827-6.827c0-3.767-3.06-6.827-6.827-6.827
	H298.167z"/>
<path style="fill:#00E7FF;" d="M198.613,193.082l-24.893-40.038c-5.27-8.475,0.824-19.441,10.805-19.441h49.789
	c9.981,0,16.075,10.965,10.805,19.441l-24.893,40.038C215.245,201.088,203.592,201.088,198.613,193.082z"/>
<path style="fill:#602F75;" d="M209.42,205.913c-6.806,0-13.007-3.453-16.606-9.226l0,0l-24.893-40.033
	c-3.801-6.12-3.98-13.527-0.486-19.826c3.5-6.294,9.894-10.054,17.094-10.054h49.787c7.2,0,13.587,3.76,17.087,10.054
	c3.5,6.294,3.313,13.706-0.486,19.826l-24.893,40.033c-3.587,5.774-9.793,9.219-16.594,9.226H209.42z M204.413,189.474
	c1.56,2.514,4.019,2.787,5.007,2.787s3.441-0.273,5.001-2.78l24.893-40.04c1.661-2.661,0.66-5.074,0.154-5.98
	c-0.507-0.913-2.028-3.033-5.154-3.033h-49.787c-3.133,0-4.647,2.12-5.159,3.033c-0.507,0.913-1.507,3.319,0.154,5.98
	L204.413,189.474z"/>
<g>
</g>
<g>
</g>
<g>
</g>
<g>
</g>
<g>
</g>
<g>
</g>
<g>
</g>
<g>
</g>
<g>
</g>
<g>
</g>
<g>
</g>
<g>
</g>
<g>
</g>
<g>
</g>
<g>
</g>
</svg>
