<?xml version="1.0" encoding="iso-8859-1"?>
<!-- Generator: Adobe Illustrator 19.0.0, SVG Export Plug-In . SVG Version: 6.00 Build 0)  -->
<svg version="1.1" id="Capa_1" xmlns="http://www.w3.org/2000/svg" xmlns:xlink="http://www.w3.org/1999/xlink" x="0px" y="0px"
	 viewBox="0 0 402.773 402.773" style="enable-background:new 0 0 402.773 402.773;" xml:space="preserve">
<polyline style="fill:#FFFFFF;" points="214.661,102.4 395.947,102.4 361.813,259.413 81.92,259.413 68.267,102.4 172.158,102.4 "/>
<path style="fill:#602F75;" d="M361.813,266.24H81.92c-3.54,0-6.494-2.707-6.799-6.233L61.467,102.994
	c-0.167-1.906,0.473-3.794,1.766-5.207c1.294-1.413,3.12-2.214,5.033-2.214H172.16c3.773,0,6.827,3.053,6.827,6.827
	s-3.053,6.827-6.827,6.827H75.713l12.467,143.36h268.133l31.16-143.36H214.659c-3.773,0-6.827-3.053-6.827-6.827
	s3.053-6.827,6.827-6.827h181.287c2.067,0,4.019,0.934,5.313,2.54c1.3,1.613,1.794,3.721,1.36,5.74l-34.133,157.013
	C367.8,264.001,365.027,266.24,361.813,266.24z"/>
<g>
	<path style="fill:#602F75;" d="M68.26,109.227c-3.434,0-6.393-2.58-6.781-6.074l-6.153-55.366h-48.5C3.053,47.787,0,44.733,0,40.96
		s3.053-6.827,6.827-6.827H61.44c3.48,0,6.4,2.613,6.787,6.074l6.827,61.44c0.413,3.746-2.287,7.12-6.033,7.54
		C68.767,109.213,68.507,109.227,68.26,109.227z"/>
	<path style="fill:#602F75;" d="M88.74,327.68c-3.434,0-6.393-2.58-6.781-6.074l-6.827-61.44c-0.413-3.746,2.287-7.12,6.033-7.54
		c3.773-0.393,7.127,2.294,7.54,6.033l6.827,61.44c0.413,3.746-2.287,7.12-6.033,7.54C89.247,327.666,88.987,327.68,88.74,327.68z"
		/>
</g>
<circle style="fill:#00E7FF;" cx="95.573" cy="348.16" r="27.307"/>
<path style="fill:#602F75;" d="M95.573,382.293c-18.819,0-34.133-15.314-34.133-34.133s15.314-34.133,34.133-34.133
	s34.133,15.314,34.133,34.133S114.393,382.293,95.573,382.293z M95.573,327.68c-11.293,0-20.48,9.187-20.48,20.48
	s9.187,20.48,20.48,20.48s20.48-9.187,20.48-20.48S106.866,327.68,95.573,327.68z"/>
<circle style="fill:#00E7FF;" cx="327.68" cy="348.16" r="27.307"/>
<g>
	<path style="fill:#602F75;" d="M327.68,382.293c-18.819,0-34.133-15.314-34.133-34.133s15.314-34.133,34.133-34.133
		c18.819,0,34.133,15.314,34.133,34.133S346.499,382.293,327.68,382.293z M327.68,327.68c-11.293,0-20.48,9.187-20.48,20.48
		s9.187,20.48,20.48,20.48c11.293,0,20.48-9.187,20.48-20.48S338.973,327.68,327.68,327.68z"/>
	<path style="fill:#602F75;" d="M300.373,354.987H122.88c-3.773,0-6.827-3.053-6.827-6.827s3.053-6.827,6.827-6.827h177.493
		c3.773,0,6.827,3.053,6.827,6.827S304.147,354.987,300.373,354.987z"/>
</g>
<g>
	<circle style="fill:#FFE600;" cx="279.893" cy="102.4" r="75.093"/>
	<path style="fill:#FFE600;" d="M279.893,184.32c-45.174,0-81.92-36.746-81.92-81.92s36.746-81.92,81.92-81.92
		s81.92,36.746,81.92,81.92S325.067,184.32,279.893,184.32z M279.893,34.133c-37.641,0-68.267,30.626-68.267,68.267
		s30.626,68.267,68.267,68.267s68.267-30.626,68.267-68.267S317.534,34.133,279.893,34.133z"/>
</g>
<path style="fill:#EA3457;" d="M279.893,143.36c-1.533,0-3.04-0.521-4.267-1.493l-34.133-27.307c-2.941-2.36-3.42-6.653-1.067-9.6
	c2.367-2.927,6.653-3.42,9.6-1.067l26.947,21.56l23.887-59.72c1.399-3.514,5.4-5.207,8.873-3.806c3.5,1.399,5.207,5.373,3.806,8.873
	l-27.307,68.267c-0.807,2.007-2.507,3.519-4.599,4.067C281.061,143.287,280.474,143.36,279.893,143.36z"/>
<g>
</g>
<g>
</g>
<g>
</g>
<g>
</g>
<g>
</g>
<g>
</g>
<g>
</g>
<g>
</g>
<g>
</g>
<g>
</g>
<g>
</g>
<g>
</g>
<g>
</g>
<g>
</g>
<g>
</g>
</svg>
