<?xml version="1.0" encoding="iso-8859-1"?>
<!-- Generator: Adobe Illustrator 19.0.0, SVG Export Plug-In . SVG Version: 6.00 Build 0)  -->
<svg version="1.1" id="Capa_1" xmlns="http://www.w3.org/2000/svg" xmlns:xlink="http://www.w3.org/1999/xlink" x="0px" y="0px"
	 viewBox="0 0 402.773 402.773" style="enable-background:new 0 0 402.773 402.773;" xml:space="preserve">
<g>
	<circle style="fill:#00E7FF;" cx="225.28" cy="92.16" r="61.44"/>
	<path style="fill:#00E7FF;" d="M225.28,160.427c-37.641,0-68.267-30.623-68.267-68.267s30.626-68.267,68.267-68.267
		s68.267,30.623,68.267,68.267S262.921,160.427,225.28,160.427z M225.28,37.547c-30.114,0-54.613,24.499-54.613,54.613
		s24.499,54.613,54.613,54.613s54.613-24.499,54.613-54.613S255.392,37.547,225.28,37.547z"/>
</g>
<polyline style="fill:#FFFFFF;" points="327.68,98.987 395.947,98.987 361.813,256 81.92,256 68.267,98.987 286.72,98.987 "/>
<path style="fill:#602F75;" d="M361.813,262.827H81.92c-3.54,0-6.494-2.707-6.799-6.236L61.467,99.577
	c-0.167-1.903,0.473-3.794,1.766-5.204c1.294-1.41,3.12-2.214,5.033-2.214H286.72c3.773,0,6.827,3.057,6.827,6.827
	s-3.053,6.827-6.827,6.827H75.713l12.467,143.36h268.133l31.16-143.36H327.68c-3.773,0-6.827-3.057-6.827-6.827
	s3.053-6.827,6.827-6.827h68.267c2.067,0,4.019,0.934,5.313,2.543c1.3,1.606,1.794,3.717,1.36,5.733l-34.133,157.013
	C367.8,260.589,365.027,262.827,361.813,262.827z"/>
<polygon style="fill:#FFE600;" points="318.578,215.04 131.982,215.04 122.88,139.947 341.333,139.947 "/>
<g>
	<path style="fill:#602F75;" d="M68.26,105.813c-3.434,0-6.393-2.58-6.781-6.074l-6.153-55.366h-48.5
		C3.053,44.373,0,41.317,0,37.547s3.053-6.827,6.827-6.827H61.44c3.48,0,6.4,2.616,6.787,6.074l6.827,61.44
		c0.413,3.746-2.287,7.124-6.033,7.537C68.767,105.8,68.507,105.813,68.26,105.813z"/>
	<path style="fill:#602F75;" d="M88.74,324.267c-3.434,0-6.393-2.58-6.781-6.074l-6.827-61.44c-0.413-3.746,2.287-7.124,6.033-7.537
		c3.813-0.433,7.127,2.287,7.54,6.03l6.827,61.44c0.413,3.746-2.287,7.124-6.033,7.537C89.247,324.253,88.987,324.267,88.74,324.267
		z"/>
</g>
<circle style="fill:#EA3457;" cx="95.573" cy="344.747" r="27.307"/>
<path style="fill:#602F75;" d="M95.573,378.88c-18.819,0-34.133-15.314-34.133-34.133s15.314-34.133,34.133-34.133
	s34.133,15.314,34.133,34.133S114.393,378.88,95.573,378.88z M95.573,324.267c-11.293,0-20.48,9.187-20.48,20.48
	s9.187,20.48,20.48,20.48s20.48-9.187,20.48-20.48S106.866,324.267,95.573,324.267z"/>
<circle style="fill:#EA3457;" cx="327.68" cy="344.747" r="27.307"/>
<g>
	<path style="fill:#602F75;" d="M327.68,378.88c-18.819,0-34.133-15.314-34.133-34.133s15.314-34.133,34.133-34.133
		c18.819,0,34.133,15.314,34.133,34.133S346.499,378.88,327.68,378.88z M327.68,324.267c-11.293,0-20.48,9.187-20.48,20.48
		s9.187,20.48,20.48,20.48c11.293,0,20.48-9.187,20.48-20.48S338.973,324.267,327.68,324.267z"/>
	<path style="fill:#602F75;" d="M300.373,351.573H122.88c-3.773,0-6.827-3.057-6.827-6.827s3.053-6.827,6.827-6.827h177.493
		c3.773,0,6.827,3.057,6.827,6.827S304.147,351.573,300.373,351.573z"/>
</g>
<g>
</g>
<g>
</g>
<g>
</g>
<g>
</g>
<g>
</g>
<g>
</g>
<g>
</g>
<g>
</g>
<g>
</g>
<g>
</g>
<g>
</g>
<g>
</g>
<g>
</g>
<g>
</g>
<g>
</g>
</svg>
