<?xml version="1.0" encoding="iso-8859-1"?>
<!-- Generator: Adobe Illustrator 19.0.0, SVG Export Plug-In . SVG Version: 6.00 Build 0)  -->
<svg version="1.1" id="Capa_1" xmlns="http://www.w3.org/2000/svg" xmlns:xlink="http://www.w3.org/1999/xlink" x="0px" y="0px"
	 viewBox="0 0 402.773 402.773" style="enable-background:new 0 0 402.773 402.773;" xml:space="preserve">
<g>
	<circle style="fill:#FFE600;" cx="225.28" cy="92.16" r="61.44"/>
	<path style="fill:#FFE600;" d="M225.28,160.427c-37.641,0-68.267-30.623-68.267-68.267s30.626-68.267,68.267-68.267
		s68.267,30.623,68.267,68.267S262.921,160.427,225.28,160.427z M225.28,37.547c-30.114,0-54.613,24.499-54.613,54.613
		s24.499,54.613,54.613,54.613s54.613-24.499,54.613-54.613S255.392,37.547,225.28,37.547z"/>
</g>
<polygon style="fill:#FFFFFF;" points="361.813,256 81.92,256 68.267,98.987 395.947,98.987 "/>
<path style="fill:#602F75;" d="M361.813,262.827H81.92c-3.54,0-6.494-2.707-6.799-6.236L61.467,99.577
	c-0.167-1.903,0.473-3.794,1.766-5.204c1.294-1.41,3.12-2.214,5.033-2.214h327.68c2.067,0,4.019,0.934,5.313,2.543
	c1.3,1.606,1.794,3.717,1.36,5.733l-34.133,157.013C367.8,260.589,365.027,262.827,361.813,262.827z M88.18,249.173h268.133
	l31.16-143.36H75.713L88.18,249.173z"/>
<polygon style="fill:#EA3457;" points="327.68,215.04 118.328,215.04 109.227,139.947 348.16,139.947 "/>
<g>
	<path style="fill:#602F75;" d="M68.26,105.813c-3.434,0-6.393-2.58-6.781-6.074l-6.153-55.366h-48.5
		C3.053,44.373,0,41.317,0,37.547s3.053-6.827,6.827-6.827H61.44c3.48,0,6.4,2.616,6.787,6.074l6.827,61.44
		c0.413,3.746-2.287,7.124-6.033,7.537C68.767,105.8,68.507,105.813,68.26,105.813z"/>
	<path style="fill:#602F75;" d="M88.74,324.267c-3.434,0-6.393-2.58-6.781-6.074l-6.827-61.44c-0.413-3.746,2.287-7.124,6.033-7.537
		c3.787-0.433,7.127,2.287,7.54,6.03l6.827,61.44c0.413,3.746-2.287,7.124-6.033,7.537C89.247,324.253,88.987,324.267,88.74,324.267
		z"/>
</g>
<circle style="fill:#00E7FF;" cx="95.573" cy="344.747" r="27.307"/>
<path style="fill:#602F75;" d="M95.573,378.88c-18.819,0-34.133-15.314-34.133-34.133s15.314-34.133,34.133-34.133
	s34.133,15.314,34.133,34.133S114.393,378.88,95.573,378.88z M95.573,324.267c-11.293,0-20.48,9.187-20.48,20.48
	s9.187,20.48,20.48,20.48s20.48-9.187,20.48-20.48S106.866,324.267,95.573,324.267z"/>
<circle style="fill:#00E7FF;" cx="327.68" cy="344.747" r="27.307"/>
<g>
	<path style="fill:#602F75;" d="M327.68,378.88c-18.819,0-34.133-15.314-34.133-34.133s15.314-34.133,34.133-34.133
		c18.819,0,34.133,15.314,34.133,34.133S346.499,378.88,327.68,378.88z M327.68,324.267c-11.293,0-20.48,9.187-20.48,20.48
		s9.187,20.48,20.48,20.48c11.293,0,20.48-9.187,20.48-20.48S338.973,324.267,327.68,324.267z"/>
	<path style="fill:#602F75;" d="M266.24,351.573H122.88c-3.773,0-6.827-3.057-6.827-6.827s3.053-6.827,6.827-6.827h143.36
		c3.773,0,6.827,3.057,6.827,6.827S270.013,351.573,266.24,351.573z"/>
	<path style="fill:#602F75;" d="M327.687,256c-0.406,0-0.814-0.036-1.227-0.109c-3.714-0.674-6.173-4.231-5.494-7.936
		l27.307-150.187c0.667-3.71,4.233-6.151,7.933-5.497c3.714,0.674,6.173,4.231,5.494,7.936l-27.307,150.187
		C333.8,253.689,330.926,256,327.687,256z"/>
	<path style="fill:#602F75;" d="M286.727,262.827c-0.294,0-0.587-0.017-0.887-0.056c-3.739-0.486-6.38-3.913-5.886-7.653
		l20.48-157.013c0.486-3.739,3.874-6.417,7.646-5.886c3.739,0.486,6.38,3.913,5.886,7.653l-20.48,157.013
		C293.04,260.323,290.106,262.827,286.727,262.827z"/>
	<path style="fill:#602F75;" d="M122.873,262.827c-3.379,0-6.313-2.504-6.76-5.943L95.633,99.871
		c-0.493-3.739,2.147-7.166,5.886-7.653c3.633-0.531,7.159,2.147,7.646,5.886l20.48,157.013c0.493,3.739-2.147,7.166-5.886,7.653
		C123.467,262.81,123.167,262.827,122.873,262.827z"/>
	<path style="fill:#602F75;" d="M245.767,262.827c-0.2,0-0.399-0.007-0.601-0.027c-3.753-0.326-6.533-3.637-6.207-7.39
		l13.653-157.013c0.326-3.756,3.727-6.574,7.393-6.211c3.753,0.326,6.533,3.637,6.207,7.39l-13.653,157.013
		C252.254,260.147,249.274,262.827,245.767,262.827z"/>
	<path style="fill:#602F75;" d="M163.833,262.827c-3.507,0-6.487-2.679-6.793-6.236L143.387,99.577
		c-0.326-3.753,2.454-7.064,6.207-7.39c3.647-0.413,7.067,2.451,7.393,6.211l13.653,157.013c0.326,3.753-2.454,7.064-6.207,7.39
		C164.233,262.82,164.033,262.827,163.833,262.827z"/>
	<path style="fill:#602F75;" d="M204.8,262.827c-3.773,0-6.827-3.057-6.827-6.827V98.987c0-3.77,3.053-6.827,6.827-6.827
		s6.827,3.057,6.827,6.827V256C211.627,259.77,208.573,262.827,204.8,262.827z"/>
</g>
<g>
</g>
<g>
</g>
<g>
</g>
<g>
</g>
<g>
</g>
<g>
</g>
<g>
</g>
<g>
</g>
<g>
</g>
<g>
</g>
<g>
</g>
<g>
</g>
<g>
</g>
<g>
</g>
<g>
</g>
</svg>
