<?xml version="1.0" encoding="iso-8859-1"?>
<!-- Generator: Adobe Illustrator 19.0.0, SVG Export Plug-In . SVG Version: 6.00 Build 0)  -->
<svg version="1.1" id="Capa_1" xmlns="http://www.w3.org/2000/svg" xmlns:xlink="http://www.w3.org/1999/xlink" x="0px" y="0px"
	 viewBox="0 0 416.666 416.666" style="enable-background:new 0 0 416.666 416.666;" xml:space="preserve">
<path style="fill:#FFFFFF;" d="M409.719,226.082v85.444c0,10.873-8.813,19.686-19.686,19.686H26.633
	c-10.873,0-19.686-8.813-19.686-19.686V105.139c0-10.873,8.813-19.686,19.686-19.686h363.401c10.873,0,19.686,8.813,19.686,19.686
	v82.715"/>
<path style="fill:#602F75;" d="M390.033,338.159H26.633C11.947,338.159,0,326.212,0,311.526V105.139
	c0-14.686,11.947-26.633,26.633-26.633h363.401c14.686,0,26.633,11.947,26.633,26.633v82.714c0,3.84-3.11,6.946-6.946,6.946
	s-6.946-3.106-6.946-6.946v-82.714c0-7.026-5.717-12.74-12.74-12.74H26.633c-7.023,0-12.74,5.714-12.74,12.74v206.387
	c0,7.026,5.717,12.74,12.74,12.74h363.401c7.023,0,12.74-5.714,12.74-12.74V226.08c0-3.84,3.11-6.946,6.946-6.946
	s6.946,3.106,6.946,6.946v85.446C416.666,326.212,404.719,338.159,390.033,338.159z"/>
<rect x="13.773" y="126.413" style="fill:#FFE600;" width="389.12" height="61.44"/>
<g>
	<circle style="fill:#EA3457;" cx="280.013" cy="269.773" r="34.133"/>
	<path style="fill:#EA3457;" d="M280.013,310.733c-22.586,0-40.96-18.374-40.96-40.96s18.374-40.96,40.96-40.96
		c22.586,0,40.96,18.374,40.96,40.96S302.599,310.733,280.013,310.733z M280.013,242.466c-15.056,0-27.307,12.247-27.307,27.307
		s12.25,27.307,27.307,27.307c15.056,0,27.307-12.247,27.307-27.307S295.069,242.466,280.013,242.466z"/>
</g>
<g>
	<circle style="fill:#00E7FF;" cx="327.799" cy="269.773" r="34.133"/>
	<path style="fill:#00E7FF;" d="M327.799,310.733c-22.586,0-40.96-18.374-40.96-40.96s18.374-40.96,40.96-40.96
		c22.586,0,40.96,18.374,40.96,40.96S350.385,310.733,327.799,310.733z M327.799,242.466c-15.056,0-27.307,12.247-27.307,27.307
		s12.25,27.307,27.307,27.307c15.056,0,27.307-12.247,27.307-27.307S342.856,242.466,327.799,242.466z"/>
</g>
<g>
</g>
<g>
</g>
<g>
</g>
<g>
</g>
<g>
</g>
<g>
</g>
<g>
</g>
<g>
</g>
<g>
</g>
<g>
</g>
<g>
</g>
<g>
</g>
<g>
</g>
<g>
</g>
<g>
</g>
</svg>
