<?xml version="1.0" encoding="iso-8859-1"?>
<!-- Generator: Adobe Illustrator 19.0.0, SVG Export Plug-In . SVG Version: 6.00 Build 0)  -->
<svg version="1.1" id="Capa_1" xmlns="http://www.w3.org/2000/svg" xmlns:xlink="http://www.w3.org/1999/xlink" x="0px" y="0px"
	 viewBox="0 0 416.666 416.666" style="enable-background:new 0 0 416.666 416.666;" xml:space="preserve">
<path style="fill:#FFFFFF;" d="M223.198,133.24h166.835c10.873,0,19.686,8.813,19.686,19.686v206.387
	c0,10.873-8.813,19.686-19.686,19.686H26.633c-10.873,0-19.686-8.813-19.686-19.686V152.927c0-10.873,8.813-19.686,19.686-19.686
	h131.299"/>
<path style="fill:#602F75;" d="M390.033,385.946H26.633C11.947,385.946,0,374,0,359.314V152.927
	c0-14.686,11.947-26.633,26.633-26.633h131.301c3.84,0,6.946,3.106,6.946,6.946s-3.106,6.946-6.946,6.946H26.633
	c-7.026,0-12.74,5.714-12.74,12.74v206.387c0,7.026,5.714,12.74,12.74,12.74h363.401c7.026,0,12.74-5.714,12.74-12.74V152.927
	c0-7.026-5.714-12.74-12.74-12.74H223.2c-3.84,0-6.946-3.106-6.946-6.946s3.106-6.946,6.946-6.946h166.834
	c14.686,0,26.633,11.947,26.633,26.633v206.387C416.666,374,404.719,385.946,390.033,385.946z"/>
<rect x="6.946" y="174.2" style="fill:#FFE600;" width="402.773" height="61.44"/>
<path style="fill:#602F75;" d="M409.719,242.467H6.946c-3.773,0-6.827-3.053-6.827-6.827V174.2c0-3.773,3.053-6.827,6.827-6.827
	h402.773c3.773,0,6.827,3.053,6.827,6.827v61.44C416.546,239.414,413.493,242.467,409.719,242.467z M13.773,228.814h389.12v-47.787
	H13.773V228.814z"/>
<path style="fill:#EA3457;" d="M159.638,208.334H72.707c-9.928,0-17.975-8.047-17.975-17.975v-86.931
	c0-9.928,8.047-17.975,17.975-17.975h86.929c9.929,0,17.976,8.047,17.976,17.975v86.929
	C177.613,200.287,169.566,208.334,159.638,208.334z"/>
<g>
	<path style="fill:#602F75;" d="M159.64,215.16H72.706c-13.672,0-24.8-11.127-24.8-24.8v-86.934c0-13.672,11.127-24.8,24.8-24.8
		h86.934c13.672,0,24.8,11.127,24.8,24.8v86.934C184.439,204.033,173.312,215.16,159.64,215.16z M72.706,92.28
		c-6.146,0-11.146,5.001-11.146,11.146v86.934c0,6.147,5.001,11.146,11.146,11.146h86.934c6.147,0,11.146-5.001,11.146-11.146
		v-86.934c0-6.147-5.001-11.146-11.146-11.146H72.706z"/>
	<path style="fill:#602F75;" d="M136.653,133.24c0-11.31-9.17-20.48-20.48-20.48s-20.48,9.17-20.48,20.48
		c0,8.904,5.717,16.404,13.653,19.227v28.559h13.653v-28.559C130.935,149.645,136.653,142.144,136.653,133.24z"/>
	<path style="fill:#602F75;" d="M150.306,92.4H82.039c-3.833,0-6.946-3.113-6.946-6.946s3.113-6.946,6.946-6.946h61.321v-9.614
		c0-13.387-10.894-24.281-24.281-24.281h-5.813c-6.494,0-12.587,2.521-17.167,7.107c-2.72,2.707-7.113,2.714-9.82,0.007
		c-2.714-2.714-2.714-7.107-0.007-9.82c7.207-7.214,16.794-11.187,26.993-11.187h5.813c21.047,0,38.173,17.126,38.173,38.173v16.562
		C157.252,89.287,154.139,92.4,150.306,92.4z"/>
</g>
<g>
	<circle style="fill:#FFE600;" cx="280.013" cy="317.56" r="34.133"/>
	<path style="fill:#FFE600;" d="M280.013,358.52c-22.586,0-40.96-18.374-40.96-40.96c0-22.586,18.374-40.96,40.96-40.96
		c22.586,0,40.96,18.374,40.96,40.96C320.973,340.146,302.599,358.52,280.013,358.52z M280.013,290.254
		c-15.06,0-27.307,12.247-27.307,27.307s12.247,27.307,27.307,27.307c15.06,0,27.307-12.247,27.307-27.307
		S295.072,290.254,280.013,290.254z"/>
</g>
<g>
	<circle style="fill:#00E7FF;" cx="327.799" cy="317.56" r="34.133"/>
	<path style="fill:#00E7FF;" d="M327.799,358.52c-22.586,0-40.96-18.374-40.96-40.96c0-22.586,18.374-40.96,40.96-40.96
		c22.586,0,40.96,18.374,40.96,40.96C368.759,340.146,350.385,358.52,327.799,358.52z M327.799,290.254
		c-15.06,0-27.307,12.247-27.307,27.307s12.247,27.307,27.307,27.307s27.307-12.247,27.307-27.307S342.859,290.254,327.799,290.254z
		"/>
</g>
<g>
</g>
<g>
</g>
<g>
</g>
<g>
</g>
<g>
</g>
<g>
</g>
<g>
</g>
<g>
</g>
<g>
</g>
<g>
</g>
<g>
</g>
<g>
</g>
<g>
</g>
<g>
</g>
<g>
</g>
</svg>
