<?xml version="1.0" encoding="iso-8859-1"?>
<!-- Generator: Adobe Illustrator 19.0.0, SVG Export Plug-In . SVG Version: 6.00 Build 0)  -->
<svg version="1.1" id="Capa_1" xmlns="http://www.w3.org/2000/svg" xmlns:xlink="http://www.w3.org/1999/xlink" x="0px" y="0px"
	 viewBox="0 0 416.546 416.546" style="enable-background:new 0 0 416.546 416.546;" xml:space="preserve">
<path style="fill:#FFE600;" d="M369.626,283.366H163.094c-7.062,0-12.786-5.724-12.786-12.786l27.307-124.612
	c0-7.062,5.724-12.786,12.786-12.786h206.532c7.062,0,12.786,5.724,12.786,12.786L382.413,270.58
	C382.413,277.642,376.689,283.366,369.626,283.366z"/>
<path style="fill:#602F75;" d="M369.626,290.193H163.092c-10.813,0-19.613-8.8-19.613-19.613c0-0.493,0.053-0.98,0.16-1.459
	l27.167-123.967c0.427-10.44,9.054-18.801,19.593-18.801h206.534c10.813,0,19.613,8.8,19.613,19.613c0,0.493-0.053,0.98-0.16,1.459
	l-27.167,123.967C388.792,281.834,380.167,290.193,369.626,290.193z M157.167,271.179c0.3,3.007,2.84,5.361,5.927,5.361h206.534
	c3.287,0,5.96-2.673,5.96-5.96c0-0.493,0.053-0.98,0.16-1.459l27.114-123.754c-0.3-3.007-2.84-5.361-5.927-5.361H190.399
	c-3.287,0-5.96,2.673-5.96,5.96c0,0.493-0.053,0.98-0.16,1.459L157.167,271.179z"/>
<polygon style="fill:#EA3457;" points="163.959,208.273 396.066,208.273 405.042,167.313 172.935,167.313 "/>
<path style="fill:#602F75;" d="M396.066,215.1H163.959c-2.067,0-4.019-0.934-5.32-2.546c-1.294-1.613-1.794-3.721-1.347-5.74
	l8.974-40.96c0.686-3.133,3.459-5.367,6.666-5.367H405.04c2.067,0,4.019,0.934,5.32,2.546c1.294,1.613,1.794,3.721,1.347,5.74
	l-8.974,40.96C402.046,212.866,399.273,215.1,396.066,215.1z M172.447,201.446h218.127l5.98-27.307H178.427L172.447,201.446z"/>
<g>
	<path style="fill:#00E7FF;" d="M150.306,146.953H95.693c-3.84,0-6.946-3.106-6.946-6.946s3.106-6.946,6.946-6.946h54.613
		c3.84,0,6.946,3.106,6.946,6.946S154.146,146.953,150.306,146.953z"/>
	<path style="fill:#00E7FF;" d="M225.399,112.819h-95.573c-3.84,0-6.946-3.106-6.946-6.946c0-3.84,3.106-6.946,6.946-6.946h95.573
		c3.84,0,6.946,3.106,6.946,6.946C232.346,109.713,229.239,112.819,225.399,112.819z"/>
	<path style="fill:#00E7FF;" d="M334.626,317.619h-95.573c-3.84,0-6.946-3.106-6.946-6.946s3.106-6.946,6.946-6.946h95.573
		c3.84,0,6.946,3.106,6.946,6.946S338.466,317.619,334.626,317.619z"/>
	<path style="fill:#00E7FF;" d="M211.746,317.619H41.079c-3.84,0-6.946-3.106-6.946-6.946s3.106-6.946,6.946-6.946h170.667
		c3.84,0,6.946,3.106,6.946,6.946S215.586,317.619,211.746,317.619z"/>
	<path style="fill:#00E7FF;" d="M95.693,112.819H68.386c-3.84,0-6.946-3.106-6.946-6.946c0-3.84,3.106-6.946,6.946-6.946h27.307
		c3.84,0,6.946,3.106,6.946,6.946C102.639,109.713,99.533,112.819,95.693,112.819z"/>
	<path style="fill:#00E7FF;" d="M143.479,187.913h-34.133c-3.84,0-6.946-3.106-6.946-6.946s3.106-6.946,6.946-6.946h34.133
		c3.84,0,6.946,3.106,6.946,6.946S147.319,187.913,143.479,187.913z"/>
	<path style="fill:#00E7FF;" d="M68.386,146.953H6.946c-3.84,0-6.946-3.106-6.946-6.946s3.106-6.946,6.946-6.946h61.44
		c3.84,0,6.946,3.106,6.946,6.946S72.226,146.953,68.386,146.953z"/>
</g>
<g>
</g>
<g>
</g>
<g>
</g>
<g>
</g>
<g>
</g>
<g>
</g>
<g>
</g>
<g>
</g>
<g>
</g>
<g>
</g>
<g>
</g>
<g>
</g>
<g>
</g>
<g>
</g>
<g>
</g>
</svg>
