<?xml version="1.0" encoding="iso-8859-1"?>
<!-- Generator: Adobe Illustrator 19.0.0, SVG Export Plug-In . SVG Version: 6.00 Build 0)  -->
<svg version="1.1" id="Capa_1" xmlns="http://www.w3.org/2000/svg" xmlns:xlink="http://www.w3.org/1999/xlink" x="0px" y="0px"
	 viewBox="0 0 389.125 389.125" style="enable-background:new 0 0 389.125 389.125;" xml:space="preserve">
<path style="fill:#FFFFFF;" d="M13.656,341.338V95.578h342.127c10.873,0,19.686,8.813,19.686,19.686v206.387
	c0,10.873-8.813,19.686-19.686,19.686H54.467"/>
<path style="fill:#602F75;" d="M355.783,348.284H54.469c-3.84,0-6.946-3.106-6.946-6.946s3.106-6.946,6.946-6.946h301.314
	c7.026,0,12.74-5.714,12.74-12.74V115.265c0-7.026-5.714-12.74-12.74-12.74H20.602v238.814c0,3.84-3.106,6.946-6.946,6.946
	s-6.946-3.106-6.946-6.946V95.578c0-3.84,3.106-6.946,6.946-6.946h342.127c14.686,0,26.633,11.947,26.633,26.633v206.387
	C382.415,336.338,370.469,348.284,355.783,348.284z"/>
<rect x="13.656" y="136.537" style="fill:#00E7FF;" width="361.813" height="61.44"/>
<path style="fill:#602F75;" d="M375.469,204.805H13.656c-3.773,0-6.827-3.053-6.827-6.827v-61.44c0-3.773,3.053-6.827,6.827-6.827
	h361.813c3.773,0,6.827,3.053,6.827,6.827v61.44C382.296,201.752,379.243,204.805,375.469,204.805z M20.482,191.152h348.16v-47.787
	H20.482V191.152z"/>
<g>
	<circle style="fill:#EA3457;" cx="245.762" cy="279.897" r="34.133"/>
	<path style="fill:#EA3457;" d="M245.762,320.858c-22.586,0-40.96-18.374-40.96-40.96s18.374-40.96,40.96-40.96
		s40.96,18.374,40.96,40.96S268.349,320.858,245.762,320.858z M245.762,252.592c-15.06,0-27.307,12.247-27.307,27.307
		s12.247,27.307,27.307,27.307c15.06,0,27.307-12.247,27.307-27.307S260.822,252.592,245.762,252.592z"/>
</g>
<g>
	<circle style="fill:#FFE600;" cx="293.549" cy="279.897" r="34.133"/>
	<path style="fill:#FFE600;" d="M293.549,320.858c-22.586,0-40.96-18.374-40.96-40.96s18.374-40.96,40.96-40.96
		c22.586,0,40.96,18.374,40.96,40.96S316.135,320.858,293.549,320.858z M293.549,252.592c-15.06,0-27.307,12.247-27.307,27.307
		s12.247,27.307,27.307,27.307s27.307-12.247,27.307-27.307S308.609,252.592,293.549,252.592z"/>
</g>
<path style="fill:#602F75;" d="M13.656,389.125c-3.773,0-6.827-3.053-6.827-6.827V47.792c0-3.773,3.053-6.827,6.827-6.827
	s6.827,3.053,6.827,6.827v334.507C20.482,386.072,17.429,389.125,13.656,389.125z"/>
<g>
	<path style="fill:#EA3457;" d="M232.109,40.965H95.576c-3.773,0-6.827-3.053-6.827-6.827s3.053-6.827,6.827-6.827h136.533
		c3.773,0,6.827,3.053,6.827,6.827S235.883,40.965,232.109,40.965z"/>
	<path style="fill:#EA3457;" d="M225.276,68.272c-1.427,0-2.86-0.447-4.087-1.367c-3.021-2.26-3.633-6.54-1.367-9.554l17.408-23.212
		l-17.406-23.214c-2.266-3.014-1.654-7.293,1.367-9.554c3.014-2.266,7.293-1.661,9.554,1.367l20.48,27.307
		c1.819,2.427,1.819,5.76,0,8.187l-20.48,27.307C229.402,67.331,227.356,68.272,225.276,68.272z"/>
</g>
<g>
</g>
<g>
</g>
<g>
</g>
<g>
</g>
<g>
</g>
<g>
</g>
<g>
</g>
<g>
</g>
<g>
</g>
<g>
</g>
<g>
</g>
<g>
</g>
<g>
</g>
<g>
</g>
<g>
</g>
</svg>
