<?xml version="1.0" encoding="iso-8859-1"?>
<!-- Generator: Adobe Illustrator 19.0.0, SVG Export Plug-In . SVG Version: 6.00 Build 0)  -->
<svg version="1.1" id="Capa_1" xmlns="http://www.w3.org/2000/svg" xmlns:xlink="http://www.w3.org/1999/xlink" x="0px" y="0px"
	 viewBox="0 0 416.427 416.427" style="enable-background:new 0 0 416.427 416.427;" xml:space="preserve">
<path style="fill:#FFFFFF;" d="M245.917,133.18h143.997c10.873,0,19.686,8.813,19.686,19.686v206.387
	c0,10.873-8.813,19.686-19.686,19.686H26.513c-10.873,0-19.686-8.813-19.686-19.686V152.866c0-10.873,8.813-19.686,19.686-19.686
	h159.846"/>
<path style="fill:#602F75;" d="M389.914,385.766H26.513C11.894,385.766,0,373.873,0,359.253V152.866
	c0-14.619,11.894-26.513,26.513-26.513h159.846c3.773,0,6.827,3.053,6.827,6.827s-3.053,6.827-6.827,6.827H26.513
	c-7.093,0-12.86,5.767-12.86,12.86v206.387c0,7.093,5.767,12.86,12.86,12.86h363.401c7.093,0,12.86-5.767,12.86-12.86V152.866
	c0-7.093-5.767-12.86-12.86-12.86h-144c-3.773,0-6.827-3.053-6.827-6.827s3.053-6.827,6.827-6.827h144
	c14.619,0,26.513,11.894,26.513,26.513v206.387C416.427,373.873,404.533,385.766,389.914,385.766z"/>
<g>
	<path style="fill:#EA3457;" d="M88.747,269.713H34.133c-3.773,0-6.827-3.053-6.827-6.827s3.053-6.827,6.827-6.827h54.613
		c3.773,0,6.827,3.053,6.827,6.827S92.52,269.713,88.747,269.713z"/>
	<path style="fill:#EA3457;" d="M143.36,303.846H34.133c-3.773,0-6.827-3.053-6.827-6.827s3.053-6.827,6.827-6.827H143.36
		c3.773,0,6.827,3.053,6.827,6.827S147.133,303.846,143.36,303.846z"/>
	<path style="fill:#EA3457;" d="M218.453,303.846h-40.96c-3.773,0-6.827-3.053-6.827-6.827s3.053-6.827,6.827-6.827h40.96
		c3.773,0,6.827,3.053,6.827,6.827S222.227,303.846,218.453,303.846z"/>
	<path style="fill:#EA3457;" d="M54.613,337.98h-20.48c-3.773,0-6.827-3.053-6.827-6.827s3.053-6.827,6.827-6.827h20.48
		c3.773,0,6.827,3.053,6.827,6.827S58.387,337.98,54.613,337.98z"/>
	<path style="fill:#EA3457;" d="M136.533,337.98H102.4c-3.773,0-6.827-3.053-6.827-6.827s3.053-6.827,6.827-6.827h34.133
		c3.773,0,6.827,3.053,6.827,6.827S140.307,337.98,136.533,337.98z"/>
	<path style="fill:#EA3457;" d="M170.667,269.713h-54.613c-3.773,0-6.827-3.053-6.827-6.827s3.053-6.827,6.827-6.827h54.613
		c3.773,0,6.827,3.053,6.827,6.827S174.44,269.713,170.667,269.713z"/>
	<path style="fill:#EA3457;" d="M252.587,269.713h-54.613c-3.773,0-6.827-3.053-6.827-6.827s3.053-6.827,6.827-6.827h54.613
		c3.773,0,6.827,3.053,6.827,6.827S256.36,269.713,252.587,269.713z"/>
	<path style="fill:#EA3457;" d="M68.26,351.633c-1.3,0-2.613-0.374-3.78-1.147c-3.14-2.094-3.987-6.327-1.893-9.467l13.653-20.48
		c2.087-3.14,6.313-3.987,9.467-1.893c3.14,2.094,3.987,6.327,1.893,9.467l-13.653,20.48
		C72.634,350.566,70.467,351.633,68.26,351.633z"/>
</g>
<path style="fill:#FFE600;" d="M99.026,221.926H44.334c-5.634,0-10.201-4.567-10.201-10.201v-34.214
	c0-5.634,4.567-10.201,10.201-10.201h54.694c5.634,0,10.201,4.567,10.201,10.201v34.214
	C109.227,217.359,104.66,221.926,99.026,221.926z"/>
<g>
	<path style="fill:#602F75;" d="M99.026,228.753H44.334c-9.387,0-17.027-7.641-17.027-17.027v-34.214
		c0-9.387,7.641-17.027,17.027-17.027h54.694c9.387,0,17.027,7.641,17.027,17.027v34.214
		C116.053,221.114,108.413,228.753,99.026,228.753z M44.334,174.14c-1.86,0-3.374,1.514-3.374,3.374v34.214
		c0,1.86,1.514,3.374,3.374,3.374h54.694c1.86,0,3.374-1.514,3.374-3.374v-34.214c0-1.86-1.514-3.374-3.374-3.374H44.334z"/>
	<path style="fill:#602F75;" d="M81.92,221.926c-3.773,0-6.827-3.053-6.827-6.827v-40.96c0-3.773,3.053-6.827,6.827-6.827
		c3.773,0,6.827,3.053,6.827,6.827v40.96C88.747,218.873,85.693,221.926,81.92,221.926z"/>
	<path style="fill:#602F75;" d="M75.093,201.446H40.96c-3.773,0-6.827-3.053-6.827-6.827s3.053-6.827,6.827-6.827h34.133
		c3.773,0,6.827,3.053,6.827,6.827S78.867,201.446,75.093,201.446z"/>
</g>
<path style="fill:#00E7FF;" d="M337.012,208.273h-86.929c-9.928,0-17.975-8.047-17.975-17.975v-86.929
	c0-9.928,8.047-17.975,17.975-17.975h86.929c9.928,0,17.975,8.047,17.975,17.975v86.929
	C354.987,200.226,346.94,208.273,337.012,208.273z"/>
<g>
	<path style="fill:#602F75;" d="M337.014,215.1H250.08c-13.674,0-24.8-11.127-24.8-24.8v-86.934c0-13.674,11.127-24.8,24.8-24.8
		h86.934c13.674,0,24.8,11.127,24.8,24.8V190.3C361.813,203.974,350.686,215.1,337.014,215.1z M250.08,92.22
		c-6.147,0-11.146,5.001-11.146,11.146V190.3c0,6.147,5.001,11.146,11.146,11.146h86.934c6.147,0,11.146-5.001,11.146-11.146
		v-86.934c0-6.147-5.001-11.146-11.146-11.146H250.08z"/>
	<path style="fill:#602F75;" d="M314.027,133.18c0-11.31-9.17-20.48-20.48-20.48c-11.31,0-20.48,9.17-20.48,20.48
		c0,8.904,5.717,16.404,13.653,19.227v28.559h13.653v-28.559C308.309,149.584,314.027,142.083,314.027,133.18z"/>
	<path style="fill:#602F75;" d="M327.68,92.339h-68.267c-3.833,0-6.946-3.113-6.946-6.946v-16.56
		c0-21.047,17.126-38.173,38.173-38.173h5.813c21.047,0,38.173,17.126,38.173,38.173v16.56
		C334.626,89.226,331.513,92.339,327.68,92.339z M266.359,78.447h54.373v-9.614c0-13.387-10.894-24.281-24.281-24.281h-5.813
		c-13.387,0-24.281,10.894-24.281,24.281v9.614H266.359z"/>
</g>
<g>
</g>
<g>
</g>
<g>
</g>
<g>
</g>
<g>
</g>
<g>
</g>
<g>
</g>
<g>
</g>
<g>
</g>
<g>
</g>
<g>
</g>
<g>
</g>
<g>
</g>
<g>
</g>
<g>
</g>
</svg>
