<?xml version="1.0" encoding="iso-8859-1"?>
<!-- Generator: Adobe Illustrator 19.0.0, SVG Export Plug-In . SVG Version: 6.00 Build 0)  -->
<svg version="1.1" id="Capa_1" xmlns="http://www.w3.org/2000/svg" xmlns:xlink="http://www.w3.org/1999/xlink" x="0px" y="0px"
	 viewBox="0 0 389.118 389.118" style="enable-background:new 0 0 389.118 389.118;" xml:space="preserve">
<path style="fill:#FFFFFF;" d="M13.652,341.331V95.571h342.127c10.873,0,19.686,8.813,19.686,19.686v206.387
	c0,10.873-8.813,19.686-19.686,19.686H56.92"/>
<path style="fill:#602F75;" d="M355.779,348.277H56.92c-3.837,0-6.946-3.106-6.946-6.946s3.11-6.946,6.946-6.946h298.86
	c7.023,0,12.74-5.714,12.74-12.74V115.258c0-7.026-5.717-12.74-12.74-12.74H20.598v238.814c0,3.84-3.11,6.946-6.946,6.946
	s-6.946-3.106-6.946-6.946V95.571c0-3.84,3.11-6.946,6.946-6.946h342.127c14.686,0,26.633,11.947,26.633,26.633v206.387
	C382.412,336.331,370.465,348.277,355.779,348.277z"/>
<rect x="13.652" y="136.533" style="fill:#00E7FF;" width="361.813" height="61.44"/>
<path style="fill:#602F75;" d="M375.466,204.798H13.652c-3.77,0-6.827-3.053-6.827-6.827v-61.44c0-3.773,3.057-6.827,6.827-6.827
	h361.813c3.77,0,6.827,3.053,6.827,6.827v61.44C382.292,201.745,379.236,204.798,375.466,204.798z M20.479,191.145h348.16v-47.787
	H20.479V191.145z"/>
<g>
	<circle style="fill:#EA3457;" cx="245.759" cy="279.893" r="34.133"/>
	<path style="fill:#EA3457;" d="M245.759,320.851c-22.586,0-40.96-18.374-40.96-40.96c0-22.586,18.374-40.96,40.96-40.96
		s40.96,18.374,40.96,40.96C286.719,302.477,268.345,320.851,245.759,320.851z M245.759,252.585
		c-15.056,0-27.307,12.247-27.307,27.307s12.25,27.307,27.307,27.307c15.056,0,27.307-12.247,27.307-27.307
		S260.815,252.585,245.759,252.585z"/>
</g>
<g>
	<circle style="fill:#FFE600;" cx="293.546" cy="279.893" r="34.133"/>
	<path style="fill:#FFE600;" d="M293.546,320.851c-22.586,0-40.96-18.374-40.96-40.96c0-22.586,18.374-40.96,40.96-40.96
		c22.586,0,40.96,18.374,40.96,40.96C334.506,302.477,316.132,320.851,293.546,320.851z M293.546,252.585
		c-15.056,0-27.307,12.247-27.307,27.307s12.25,27.307,27.307,27.307c15.056,0,27.307-12.247,27.307-27.307
		S308.602,252.585,293.546,252.585z"/>
</g>
<path style="fill:#602F75;" d="M13.652,389.118c-3.77,0-6.827-3.053-6.827-6.827V47.785c0-3.773,3.057-6.827,6.827-6.827
	s6.827,3.053,6.827,6.827v334.507C20.479,386.065,17.422,389.118,13.652,389.118z"/>
<g>
	<path style="fill:#00E7FF;" d="M245.759,40.958H109.226c-3.77,0-6.827-3.053-6.827-6.827s3.057-6.827,6.827-6.827h136.533
		c3.77,0,6.827,3.053,6.827,6.827S249.529,40.958,245.759,40.958z"/>
	<path style="fill:#00E7FF;" d="M116.059,68.265c-2.077,0-4.127-0.94-5.466-2.734l-20.48-27.307c-1.823-2.427-1.823-5.76,0-8.187
		l20.48-27.307c2.26-3.014,6.533-3.627,9.557-1.367c3.017,2.26,3.627,6.54,1.364,9.554l-17.408,23.214l17.406,23.214
		c2.263,3.014,1.654,7.293-1.364,9.554C118.92,67.818,117.483,68.265,116.059,68.265z"/>
</g>
<g>
</g>
<g>
</g>
<g>
</g>
<g>
</g>
<g>
</g>
<g>
</g>
<g>
</g>
<g>
</g>
<g>
</g>
<g>
</g>
<g>
</g>
<g>
</g>
<g>
</g>
<g>
</g>
<g>
</g>
</svg>
