<?xml version="1.0" encoding="iso-8859-1"?>
<!-- Generator: Adobe Illustrator 19.0.0, SVG Export Plug-In . SVG Version: 6.00 Build 0)  -->
<svg version="1.1" id="Capa_1" xmlns="http://www.w3.org/2000/svg" xmlns:xlink="http://www.w3.org/1999/xlink" x="0px" y="0px"
	 viewBox="0 0 402.773 402.773" style="enable-background:new 0 0 402.773 402.773;" xml:space="preserve">
<polyline style="fill:#FFE600;" points="271.357,110.365 395.947,110.365 361.813,267.378 81.92,267.378 68.267,110.365 
	182.612,110.365 "/>
<g>
	<path style="fill:#602F75;" d="M361.813,274.205H81.92c-3.54,0-6.494-2.707-6.799-6.233L61.467,110.959
		c-0.167-1.906,0.476-3.794,1.766-5.207c1.294-1.413,3.12-2.214,5.033-2.214H182.61c3.77,0,6.827,3.053,6.827,6.827
		s-3.057,6.827-6.827,6.827H75.713l12.467,143.36h268.129l31.167-143.36h-116.12c-3.77,0-6.827-3.053-6.827-6.827
		s3.057-6.827,6.827-6.827h124.59c2.067,0,4.019,0.934,5.316,2.54c1.294,1.613,1.794,3.721,1.353,5.74l-34.133,157.013
		C367.804,271.964,365.024,274.205,361.813,274.205z"/>
	<path style="fill:#602F75;" d="M68.256,117.191c-3.43,0-6.386-2.58-6.774-6.074L55.33,55.751H6.827C3.057,55.751,0,52.698,0,48.925
		s3.057-6.827,6.827-6.827H61.44c3.48,0,6.4,2.613,6.784,6.074l6.827,61.44c0.416,3.746-2.284,7.12-6.03,7.54
		C68.763,117.178,68.511,117.191,68.256,117.191z"/>
	<path style="fill:#602F75;" d="M88.736,335.645c-3.43,0-6.386-2.58-6.774-6.074l-6.827-61.44c-0.416-3.746,2.284-7.12,6.03-7.54
		c3.714-0.393,7.12,2.28,7.537,6.033l6.827,61.44c0.416,3.746-2.284,7.12-6.03,7.54C89.243,335.631,88.991,335.645,88.736,335.645z"
		/>
</g>
<circle style="fill:#FFFFFF;" cx="95.573" cy="356.13" r="27.307"/>
<path style="fill:#602F75;" d="M95.573,390.258c-18.819,0-34.133-15.314-34.133-34.133s15.314-34.133,34.133-34.133
	s34.133,15.314,34.133,34.133S114.393,390.258,95.573,390.258z M95.573,335.645c-11.293,0-20.48,9.187-20.48,20.48
	c0,11.293,9.187,20.48,20.48,20.48s20.48-9.187,20.48-20.48C116.053,344.832,106.866,335.645,95.573,335.645z"/>
<circle style="fill:#FFFFFF;" cx="327.68" cy="356.13" r="27.307"/>
<g>
	<path style="fill:#602F75;" d="M327.68,390.258c-18.819,0-34.133-15.314-34.133-34.133s15.314-34.133,34.133-34.133
		c18.819,0,34.133,15.314,34.133,34.133S346.499,390.258,327.68,390.258z M327.68,335.645c-11.293,0-20.48,9.187-20.48,20.48
		c0,11.293,9.187,20.48,20.48,20.48c11.293,0,20.48-9.187,20.48-20.48C348.16,344.832,338.973,335.645,327.68,335.645z"/>
	<path style="fill:#602F75;" d="M300.373,362.951H122.88c-3.77,0-6.827-3.053-6.827-6.827s3.057-6.827,6.827-6.827h177.493
		c3.77,0,6.827,3.053,6.827,6.827S304.143,362.951,300.373,362.951z"/>
</g>
<g>
	<polygon style="fill:#EA3457;" points="245.76,178.631 245.76,35.271 211.627,35.271 211.627,178.631 191.147,178.631 
		228.693,225.928 266.24,178.631 	"/>
	<path style="fill:#EA3457;" d="M228.693,232.752c-2.084,0-4.05-0.954-5.347-2.58L185.8,182.878c-1.63-2.053-1.94-4.854-0.8-7.214
		c1.14-2.36,3.526-3.86,6.147-3.86H204.8V35.27c0-3.773,3.057-6.827,6.827-6.827h34.133c3.77,0,6.827,3.053,6.827,6.827v136.533
		h13.653c2.62,0,5.007,1.5,6.147,3.86c1.14,2.36,0.829,5.159-0.8,7.214l-37.547,47.293
		C232.743,231.798,230.777,232.752,228.693,232.752z M205.283,185.458l23.41,29.486l23.41-29.486h-6.344
		c-3.77,0-6.827-3.053-6.827-6.827V42.098h-20.48v136.533c0,3.773-3.057,6.827-6.827,6.827L205.283,185.458L205.283,185.458z"/>
</g>
<g>
	<polygon style="fill:#00E7FF;" points="314.027,60.301 341.617,12.515 286.437,12.515 	"/>
	<polygon style="fill:#00E7FF;" points="143.36,60.301 170.95,12.515 115.77,12.515 	"/>
</g>
<g>
</g>
<g>
</g>
<g>
</g>
<g>
</g>
<g>
</g>
<g>
</g>
<g>
</g>
<g>
</g>
<g>
</g>
<g>
</g>
<g>
</g>
<g>
</g>
<g>
</g>
<g>
</g>
<g>
</g>
</svg>
