<?xml version="1.0" encoding="iso-8859-1"?>
<!-- Generator: Adobe Illustrator 19.0.0, SVG Export Plug-In . SVG Version: 6.00 Build 0)  -->
<svg version="1.1" id="Capa_1" xmlns="http://www.w3.org/2000/svg" xmlns:xlink="http://www.w3.org/1999/xlink" x="0px" y="0px"
	 viewBox="0 0 416.427 416.427" style="enable-background:new 0 0 416.427 416.427;" xml:space="preserve">
<path style="fill:#FFFFFF;" d="M409.6,228.693v82.712c0,10.873-8.813,19.686-19.686,19.686H26.513
	c-10.873,0.002-19.686-8.812-19.686-19.685V105.02c0-10.873,8.813-19.686,19.686-19.686h363.401
	c10.873,0,19.686,8.813,19.686,19.686v82.717"/>
<path style="fill:#602F75;" d="M389.914,337.92H26.513C11.894,337.92,0,326.026,0,311.407V105.02
	C0,90.4,11.894,78.507,26.513,78.507h363.401c14.619,0,26.513,11.894,26.513,26.513v82.714c0,3.773-3.053,6.827-6.827,6.827
	s-6.827-3.053-6.827-6.827V105.02c0-7.093-5.767-12.86-12.86-12.86H26.513c-7.093,0-12.86,5.767-12.86,12.86v206.387
	c0,7.093,5.767,12.86,12.86,12.86h363.401c7.093,0,12.86-5.767,12.86-12.86v-82.714c0-3.773,3.053-6.827,6.827-6.827
	s6.827,3.053,6.827,6.827v82.714C416.427,326.026,404.533,337.92,389.914,337.92z"/>
<g>
	<path style="fill:#EA3457;" d="M88.747,221.867H34.133c-3.773,0-6.827-3.053-6.827-6.827s3.053-6.827,6.827-6.827h54.613
		c3.773,0,6.827,3.053,6.827,6.827S92.52,221.867,88.747,221.867z"/>
	<path style="fill:#EA3457;" d="M143.36,256H34.133c-3.773,0-6.827-3.053-6.827-6.827s3.053-6.827,6.827-6.827H143.36
		c3.773,0,6.827,3.053,6.827,6.827S147.133,256,143.36,256z"/>
	<path style="fill:#EA3457;" d="M218.453,256h-40.96c-3.773,0-6.827-3.053-6.827-6.827s3.053-6.827,6.827-6.827h40.96
		c3.773,0,6.827,3.053,6.827,6.827S222.227,256,218.453,256z"/>
	<path style="fill:#EA3457;" d="M54.613,290.133h-20.48c-3.773,0-6.827-3.053-6.827-6.827s3.053-6.827,6.827-6.827h20.48
		c3.773,0,6.827,3.053,6.827,6.827S58.387,290.133,54.613,290.133z"/>
	<path style="fill:#EA3457;" d="M136.533,290.133H102.4c-3.773,0-6.827-3.053-6.827-6.827s3.053-6.827,6.827-6.827h34.133
		c3.773,0,6.827,3.053,6.827,6.827S140.307,290.133,136.533,290.133z"/>
	<path style="fill:#EA3457;" d="M170.667,221.867h-54.613c-3.773,0-6.827-3.053-6.827-6.827s3.053-6.827,6.827-6.827h54.613
		c3.773,0,6.827,3.053,6.827,6.827S174.44,221.867,170.667,221.867z"/>
	<path style="fill:#EA3457;" d="M252.587,221.867h-54.613c-3.773,0-6.827-3.053-6.827-6.827s3.053-6.827,6.827-6.827h54.613
		c3.773,0,6.827,3.053,6.827,6.827S256.36,221.867,252.587,221.867z"/>
	<path style="fill:#EA3457;" d="M68.26,303.787c-1.3,0-2.613-0.374-3.78-1.147c-3.14-2.094-3.987-6.327-1.893-9.467l13.653-20.48
		c2.08-3.14,6.313-3.987,9.467-1.893c3.14,2.094,3.987,6.327,1.893,9.467l-13.653,20.48C72.634,302.72,70.467,303.787,68.26,303.787
		z"/>
</g>
<path style="fill:#FFE600;" d="M99.026,174.08H44.334c-5.634,0-10.201-4.567-10.201-10.201v-34.214
	c0-5.632,4.567-10.199,10.201-10.199h54.694c5.634,0,10.201,4.567,10.201,10.201v34.214
	C109.227,169.513,104.66,174.08,99.026,174.08z"/>
<g>
	<path style="fill:#602F75;" d="M99.026,180.907H44.334c-9.387,0-17.027-7.641-17.027-17.027v-34.214
		c0-9.387,7.641-17.027,17.027-17.027h54.694c9.387,0,17.027,7.641,17.027,17.027v34.214
		C116.053,173.266,108.413,180.907,99.026,180.907z M44.334,126.293c-1.86,0-3.374,1.514-3.374,3.374v34.214
		c0,1.86,1.514,3.374,3.374,3.374h54.694c1.86,0,3.374-1.514,3.374-3.374v-34.214c0-1.86-1.514-3.374-3.374-3.374L44.334,126.293
		L44.334,126.293z"/>
	<path style="fill:#602F75;" d="M81.92,174.08c-3.773,0-6.827-3.053-6.827-6.827v-40.96c0-3.773,3.053-6.827,6.827-6.827
		c3.773,0,6.827,3.053,6.827,6.827v40.96C88.747,171.027,85.693,174.08,81.92,174.08z"/>
	<path style="fill:#602F75;" d="M75.093,153.6H40.96c-3.773,0-6.827-3.053-6.827-6.827s3.053-6.827,6.827-6.827h34.133
		c3.773,0,6.827,3.053,6.827,6.827S78.867,153.6,75.093,153.6z"/>
</g>
<rect x="279.893" y="92.16" style="fill:#00E7FF;" width="95.573" height="232.107"/>
<g>
</g>
<g>
</g>
<g>
</g>
<g>
</g>
<g>
</g>
<g>
</g>
<g>
</g>
<g>
</g>
<g>
</g>
<g>
</g>
<g>
</g>
<g>
</g>
<g>
</g>
<g>
</g>
<g>
</g>
</svg>
