<?xml version="1.0" encoding="iso-8859-1"?>
<!-- Generator: Adobe Illustrator 19.0.0, SVG Export Plug-In . SVG Version: 6.00 Build 0)  -->
<svg version="1.1" id="Capa_1" xmlns="http://www.w3.org/2000/svg" xmlns:xlink="http://www.w3.org/1999/xlink" x="0px" y="0px"
	 viewBox="0 0 402.773 402.773" style="enable-background:new 0 0 402.773 402.773;" xml:space="preserve">
<path style="fill:#FFE600;" d="M395.947,249.173H6.827V63.836c0-14.519,11.771-26.289,26.289-26.289h336.539
	c14.52,0,26.291,11.771,26.291,26.289v147.791"/>
<path style="fill:#602F75;" d="M395.947,256H6.827C3.053,256,0,252.947,0,249.173V63.84c0-18.26,14.86-33.12,33.12-33.12h336.534
	c18.26,0,33.12,14.86,33.12,33.12v147.787c0,3.773-3.053,6.827-6.827,6.827s-6.827-3.053-6.827-6.827V63.84
	c0-10.733-8.733-19.466-19.466-19.466H33.12c-10.733,0-19.466,8.733-19.466,19.466v178.507h382.293c3.773,0,6.827,3.053,6.827,6.827
	S399.72,256,395.947,256z"/>
<path style="fill:#FFFFFF;" d="M369.657,310.613H33.116c-14.519,0-26.289-11.771-26.289-26.29v-35.15h389.12v35.151
	C395.947,298.842,384.176,310.613,369.657,310.613z"/>
<path style="fill:#602F75;" d="M369.654,317.44H33.12C14.86,317.44,0,302.58,0,284.32v-35.147c0-3.773,3.053-6.827,6.827-6.827
	h389.12c3.773,0,6.827,3.053,6.827,6.827v35.147C402.773,302.58,387.913,317.44,369.654,317.44z M13.653,256v28.32
	c0,10.733,8.733,19.466,19.466,19.466h336.534c10.733,0,19.466-8.733,19.466-19.466V256H13.653z"/>
<g>
	<circle style="fill:#00E7FF;" cx="201.387" cy="279.893" r="10.24"/>
	<path style="fill:#00E7FF;" d="M201.387,296.96c-9.414,0-17.067-7.653-17.067-17.067s7.653-17.067,17.067-17.067
		s17.067,7.653,17.067,17.067S210.801,296.96,201.387,296.96z M201.387,276.48c-1.881,0-3.413,1.533-3.413,3.413
		s1.533,3.413,3.413,3.413s3.413-1.533,3.413-3.413S203.267,276.48,201.387,276.48z"/>
</g>
<polygon style="fill:#EAEAEA;" points="259.413,365.227 143.36,365.227 177.092,310.613 225.681,310.613 "/>
<path style="fill:#602F75;" d="M259.413,372.053H143.36c-2.473,0-4.753-1.34-5.96-3.5s-1.147-4.806,0.154-6.914l33.734-54.613
	c1.241-2.014,3.441-3.239,5.806-3.239h48.587c2.367,0,4.567,1.227,5.806,3.239l33.734,54.613c1.3,2.106,1.36,4.753,0.154,6.914
	S261.886,372.053,259.413,372.053z M155.6,358.4h91.573l-25.3-40.96H180.9L155.6,358.4z"/>
<g>
	<path style="fill:#FFFFFF;" d="M303.787,232.107c-1.746,0-3.494-0.667-4.826-2c-2.666-2.666-2.666-6.987,0-9.653l58.027-58.027
		c2.666-2.666,6.987-2.666,9.653,0s2.666,6.987,0,9.653l-58.027,58.027C307.28,231.439,305.533,232.107,303.787,232.107z"/>
	<path style="fill:#FFFFFF;" d="M348.16,228.693c-1.746,0-3.494-0.667-4.826-2c-2.666-2.666-2.666-6.987,0-9.653l20.48-20.48
		c2.666-2.666,6.987-2.666,9.653,0s2.666,6.987,0,9.653l-20.48,20.48C351.654,228.026,349.906,228.693,348.16,228.693z"/>
</g>
<path style="fill:#602F75;" d="M300.373,372.053h-204.8c-3.773,0-6.827-3.053-6.827-6.827s3.053-6.827,6.827-6.827h204.8
	c3.773,0,6.827,3.053,6.827,6.827S304.147,372.053,300.373,372.053z"/>
<polygon style="fill:#EA3457;" points="217.139,193.246 288.72,342.06 312.856,288.963 365.954,264.827 "/>
<g>
	<path style="fill:#602F75;" d="M288.72,348.887c-2.62,0-5.014-1.5-6.153-3.867l-71.579-148.813
		c-1.253-2.613-0.727-5.733,1.326-7.786c2.046-2.06,5.173-2.58,7.786-1.326l148.813,71.579c2.386,1.154,3.893,3.581,3.867,6.226
		c-0.027,2.654-1.587,5.047-4,6.141l-50.773,23.074l-23.074,50.773c-1.094,2.413-3.487,3.973-6.141,4
		C288.766,348.887,288.748,348.887,288.72,348.887z M231.733,207.84l56.813,118.106l18.094-39.813
		c0.679-1.5,1.886-2.707,3.386-3.386l39.813-18.094L231.733,207.84z"/>
	<path style="fill:#602F75;" d="M369.954,352.887c-1.746,0-3.494-0.667-4.826-2l-52.273-52.273c-2.666-2.666-2.666-6.987,0-9.653
		c2.666-2.666,6.987-2.666,9.653,0l52.273,52.273c2.666,2.666,2.666,6.987,0,9.653C373.446,352.22,371.7,352.887,369.954,352.887z"
		/>
</g>
<path style="fill:#00E7FF;" d="M150.187,221.867h-81.92l11.621-94.95c0.56-4.239,4.857-7.45,9.977-7.45h38.726
	c5.118,0,9.417,3.21,9.977,7.45L150.187,221.867z"/>
<path style="fill:#602F75;" d="M150.187,228.693h-81.92c-1.954,0-3.813-0.84-5.113-2.301c-1.294-1.466-1.9-3.413-1.661-5.354
	l11.621-94.947c1.014-7.699,8.212-13.452,16.753-13.452h38.721c8.54,0,15.741,5.753,16.746,13.387l11.626,95.014
	c0.241,1.94-0.367,3.886-1.661,5.354C153.999,227.854,152.141,228.693,150.187,228.693z M75.981,215.04h66.493l-10.68-87.293
	c-0.053-0.387-1.22-1.454-3.207-1.454H89.866c-1.987,0-3.154,1.067-3.214,1.521L75.981,215.04z"/>
<rect x="88.747" y="71.68" style="fill:#00E7FF;" width="40.96" height="47.787"/>
<g>
	<path style="fill:#602F75;" d="M129.707,126.293h-40.96c-3.773,0-6.827-3.053-6.827-6.827V71.68c0-3.773,3.053-6.827,6.827-6.827
		h40.96c3.773,0,6.827,3.053,6.827,6.827v47.787C136.533,123.24,133.48,126.293,129.707,126.293z M95.573,112.64h27.307V78.507
		H95.573V112.64z"/>
	<path style="fill:#602F75;" d="M88.747,85.333c-3.773,0-6.827-3.053-6.827-6.827v-20.48c0-3.773,3.053-6.827,6.827-6.827
		s6.827,3.053,6.827,6.827v20.48C95.573,82.28,92.52,85.333,88.747,85.333z"/>
	<path style="fill:#602F75;" d="M129.707,85.333c-3.773,0-6.827-3.053-6.827-6.827v-20.48c0-3.773,3.053-6.827,6.827-6.827
		c3.773,0,6.827,3.053,6.827,6.827v20.48C136.533,82.28,133.48,85.333,129.707,85.333z"/>
</g>
<g>
</g>
<g>
</g>
<g>
</g>
<g>
</g>
<g>
</g>
<g>
</g>
<g>
</g>
<g>
</g>
<g>
</g>
<g>
</g>
<g>
</g>
<g>
</g>
<g>
</g>
<g>
</g>
<g>
</g>
</svg>
