<?xml version="1.0" encoding="iso-8859-1"?>
<!-- Generator: Adobe Illustrator 19.0.0, SVG Export Plug-In . SVG Version: 6.00 Build 0)  -->
<svg version="1.1" id="Capa_1" xmlns="http://www.w3.org/2000/svg" xmlns:xlink="http://www.w3.org/1999/xlink" x="0px" y="0px"
	 viewBox="0 0 402.773 402.773" style="enable-background:new 0 0 402.773 402.773;" xml:space="preserve">
<path style="fill:#00E7FF;" d="M395.947,249.173H6.827V63.836c0-14.519,11.771-26.289,26.289-26.289h336.539
	c14.52,0,26.291,11.771,26.291,26.289v147.791"/>
<path style="fill:#602F75;" d="M395.947,256H6.827C3.053,256,0,252.947,0,249.173V63.84c0-18.26,14.86-33.12,33.12-33.12h336.534
	c18.26,0,33.12,14.86,33.12,33.12v147.787c0,3.773-3.053,6.827-6.827,6.827s-6.827-3.053-6.827-6.827V63.84
	c0-10.733-8.733-19.466-19.466-19.466H33.12c-10.733,0-19.466,8.733-19.466,19.466v178.507h382.293c3.773,0,6.827,3.053,6.827,6.827
	S399.72,256,395.947,256z"/>
<path style="fill:#FFFFFF;" d="M369.657,310.613H33.116c-14.519,0-26.289-11.771-26.289-26.29v-35.15h389.12v35.151
	C395.947,298.842,384.176,310.613,369.657,310.613z"/>
<path style="fill:#602F75;" d="M369.654,317.44H33.12C14.86,317.44,0,302.58,0,284.32v-35.147c0-3.773,3.053-6.827,6.827-6.827
	h389.12c3.773,0,6.827,3.053,6.827,6.827v35.147C402.773,302.58,387.913,317.44,369.654,317.44z M13.653,256v28.32
	c0,10.733,8.733,19.466,19.466,19.466h336.534c10.733,0,19.466-8.733,19.466-19.466V256H13.653z"/>
<g>
	<circle style="fill:#00E7FF;" cx="201.387" cy="279.893" r="10.24"/>
	<path style="fill:#00E7FF;" d="M201.387,296.96c-9.414,0-17.067-7.653-17.067-17.067s7.653-17.067,17.067-17.067
		s17.067,7.653,17.067,17.067S210.801,296.96,201.387,296.96z M201.387,276.48c-1.881,0-3.413,1.533-3.413,3.413
		s1.533,3.413,3.413,3.413s3.413-1.533,3.413-3.413S203.267,276.48,201.387,276.48z"/>
</g>
<polygon style="fill:#EAEAEA;" points="259.413,365.227 143.36,365.227 177.092,310.613 225.681,310.613 "/>
<path style="fill:#602F75;" d="M259.413,372.053H143.36c-2.473,0-4.753-1.34-5.96-3.5s-1.147-4.806,0.154-6.914l33.734-54.613
	c1.241-2.014,3.441-3.239,5.806-3.239h48.587c2.367,0,4.567,1.227,5.806,3.239l33.734,54.613c1.3,2.106,1.36,4.753,0.154,6.914
	S261.886,372.053,259.413,372.053z M155.6,358.4h91.573l-25.3-40.96H180.9L155.6,358.4z"/>
<g>
	<path style="fill:#FFFFFF;" d="M303.787,232.107c-1.746,0-3.494-0.667-4.826-2c-2.666-2.666-2.666-6.987,0-9.653l58.027-58.027
		c2.666-2.666,6.987-2.666,9.653,0s2.666,6.987,0,9.653l-58.027,58.027C307.28,231.439,305.533,232.107,303.787,232.107z"/>
	<path style="fill:#FFFFFF;" d="M348.16,228.693c-1.746,0-3.494-0.667-4.826-2c-2.666-2.666-2.666-6.987,0-9.653l20.48-20.48
		c2.666-2.666,6.987-2.666,9.653,0s2.666,6.987,0,9.653l-20.48,20.48C351.654,228.026,349.906,228.693,348.16,228.693z"/>
</g>
<path style="fill:#602F75;" d="M300.373,372.053h-204.8c-3.773,0-6.827-3.053-6.827-6.827s3.053-6.827,6.827-6.827h204.8
	c3.773,0,6.827,3.053,6.827,6.827S304.147,372.053,300.373,372.053z"/>
<polygon style="fill:#EA3457;" points="217.139,193.246 288.72,342.06 312.856,288.963 365.954,264.827 "/>
<g>
	<path style="fill:#602F75;" d="M288.72,348.887c-2.62,0-5.014-1.5-6.153-3.867l-71.579-148.813
		c-1.253-2.613-0.727-5.733,1.326-7.786c2.053-2.06,5.173-2.58,7.786-1.326l148.813,71.579c2.386,1.154,3.893,3.581,3.867,6.226
		c-0.027,2.654-1.587,5.047-4,6.141l-50.773,23.074l-23.074,50.773c-1.094,2.413-3.487,3.973-6.141,4
		C288.766,348.887,288.748,348.887,288.72,348.887z M231.733,207.84l56.813,118.106l18.094-39.813
		c0.679-1.5,1.886-2.707,3.386-3.386l39.813-18.094L231.733,207.84z"/>
	<path style="fill:#602F75;" d="M369.954,352.887c-1.746,0-3.494-0.667-4.826-2l-52.273-52.273c-2.666-2.666-2.666-6.987,0-9.653
		c2.666-2.666,6.987-2.666,9.653,0l52.273,52.273c2.666,2.666,2.666,6.987,0,9.653C373.446,352.22,371.7,352.887,369.954,352.887z"
		/>
</g>
<path style="fill:#FFE600;" d="M156.192,78.507c-3.111,13.669-15.287,23.893-29.899,23.893S99.507,92.175,96.394,78.507H68.267
	V215.04H184.32V78.507H156.192z"/>
<path style="fill:#602F75;" d="M184.32,221.867H68.267c-3.773,0-6.827-3.053-6.827-6.827V78.507c0-3.773,3.053-6.827,6.827-6.827
	h28.126c3.186,0,5.946,2.207,6.653,5.313c2.495,10.94,12.054,18.58,23.248,18.58s20.753-7.641,23.247-18.58
	c0.707-3.106,3.466-5.313,6.653-5.313h28.128c3.773,0,6.827,3.053,6.827,6.827V215.04
	C191.147,218.813,188.093,221.867,184.32,221.867z M75.093,208.213h102.4V85.333h-16.266c-5.526,14.307-19.2,23.893-34.934,23.893
	S96.887,99.64,91.36,85.333H75.093V208.213z"/>
<polygon style="fill:#FFE600;" points="68.267,126.293 34.133,119.467 34.133,78.507 68.267,78.507 "/>
<path style="fill:#602F75;" d="M68.267,133.12c-0.447,0-0.893-0.046-1.34-0.133l-34.133-6.827c-3.186-0.64-5.487-3.441-5.487-6.694
	v-40.96c0-3.773,3.053-6.827,6.827-6.827h34.133c3.773,0,6.827,3.053,6.827,6.827v47.787c0,2.046-0.92,3.98-2.5,5.28
	C71.366,132.581,69.833,133.12,68.267,133.12z M40.96,113.874l20.48,4.093V85.333H40.96V113.874z"/>
<polygon style="fill:#FFE600;" points="218.453,119.467 184.32,126.293 184.32,78.507 218.453,78.507 "/>
<path style="fill:#602F75;" d="M184.32,133.12c-1.567,0-3.099-0.539-4.326-1.546c-1.58-1.3-2.5-3.234-2.5-5.28V78.507
	c0-3.773,3.053-6.827,6.827-6.827h34.133c3.773,0,6.827,3.053,6.827,6.827v40.96c0,3.253-2.301,6.054-5.487,6.694l-34.133,6.827
	C185.213,133.074,184.767,133.12,184.32,133.12z M218.453,119.467h0.067H218.453z M191.147,85.333v32.633l20.48-4.093V85.333
	H191.147z"/>
<g>
</g>
<g>
</g>
<g>
</g>
<g>
</g>
<g>
</g>
<g>
</g>
<g>
</g>
<g>
</g>
<g>
</g>
<g>
</g>
<g>
</g>
<g>
</g>
<g>
</g>
<g>
</g>
<g>
</g>
</svg>
