<?xml version="1.0" encoding="iso-8859-1"?>
<!-- Generator: Adobe Illustrator 19.0.0, SVG Export Plug-In . SVG Version: 6.00 Build 0)  -->
<svg version="1.1" id="Capa_1" xmlns="http://www.w3.org/2000/svg" xmlns:xlink="http://www.w3.org/1999/xlink" x="0px" y="0px"
	 viewBox="0 0 436.907 436.907" style="enable-background:new 0 0 436.907 436.907;" xml:space="preserve">
<path style="fill:#EA3457;" d="M64.853,150.187c-32.048,0-58.027-25.979-58.027-58.027l0,0c0-32.048,25.979-58.027,58.027-58.027
	h307.2c32.048,0,58.027,25.979,58.027,58.027l0,0c0,32.048-25.979,58.027-58.027,58.027H139.948"/>
<path style="fill:#602F75;" d="M372.053,157.013H139.947c-3.773,0-6.827-3.053-6.827-6.827s3.053-6.827,6.827-6.827h232.107
	c28.233,0,51.2-22.967,51.2-51.2s-22.967-51.2-51.2-51.2h-307.2c-28.233,0-51.2,22.967-51.2,51.2s22.967,51.2,51.2,51.2
	c3.773,0,6.827,3.053,6.827,6.827s-3.053,6.827-6.827,6.827C29.094,157.013,0,127.92,0,92.16s29.094-64.853,64.853-64.853h307.2
	c35.76,0,64.853,29.094,64.853,64.853S407.813,157.013,372.053,157.013z"/>
<g>
	<path style="fill:#FFE600;" d="M138.914,60.933h20.934c9.713,0,16.734,1.42,21.053,4.246c4.326,2.833,6.494,7.299,6.494,13.406
		c0,4.12-1.067,7.547-3.186,10.274c-2.12,2.734-5.18,4.46-9.167,5.166v0.48c4.953,0.934,8.593,2.773,10.926,5.519
		c2.333,2.753,3.5,6.473,3.5,11.167c0,6.34-2.214,11.3-6.634,14.88c-4.42,3.587-10.573,5.379-18.452,5.379h-25.467V60.933H138.914z
		 M150.446,90.066h11.093c4.82,0,8.34-0.759,10.561-2.287c2.22-1.527,3.326-4.127,3.326-7.793c0-3.313-1.193-5.707-3.593-7.187
		c-2.393-1.48-6.193-2.22-11.407-2.22h-9.981V90.066z M150.446,99.427v22.333h12.247c4.826,0,8.467-0.927,10.926-2.773
		c2.459-1.853,3.686-4.767,3.686-8.753c0-3.666-1.253-6.386-3.76-8.153c-2.507-1.766-6.32-2.654-11.433-2.654H150.446z"/>
	<path style="fill:#FFE600;" d="M259.407,60.933v45.633c0,5.207-1.12,9.767-3.354,13.674s-5.466,6.914-9.694,9.02
		c-4.233,2.106-9.286,3.161-15.174,3.161c-8.747,0-15.546-2.319-20.4-6.946c-4.861-4.634-7.287-10.999-7.287-19.099V60.933h11.58
		v44.621c0,5.82,1.347,10.114,4.047,12.88c2.707,2.76,6.854,4.147,12.447,4.147c10.866,0,16.307-5.707,16.307-17.126V60.933H259.407
		z"/>
	<path style="fill:#FFE600;" d="M297.359,93.107l16.693-32.174h12.541l-23.492,43.174v27.346h-11.573v-26.959l-23.393-43.559h12.541
		L297.359,93.107z"/>
</g>
<path style="fill:#FFFFFF;" d="M163.603,191.147l-54.376-6.827v-64.853c0-9.426-7.641-17.067-17.067-17.067
	s-17.067,7.641-17.067,17.067v71.68v34.133v55.537c0,12.535,8.762,22.977,20.48,25.667v96.29h88.747v-96.29
	c11.718-2.688,20.48-13.131,20.48-25.667v-48.471C204.8,209.592,186.354,191.147,163.603,191.147z"/>
<g>
	<path style="fill:#602F75;" d="M184.32,409.6H95.573c-3.773,0-6.827-3.053-6.827-6.827v-91.32
		c-12.286-5.053-20.48-16.973-20.48-30.64V119.467c0-13.174,10.72-23.893,23.893-23.893s23.893,10.72,23.893,23.893v58.834
		l47.986,6.019c26.281,0.241,47.587,21.693,47.587,48.027v48.466c0,13.667-8.194,25.586-20.48,30.64v91.32
		C191.147,406.547,188.093,409.6,184.32,409.6z M102.4,395.947h75.093V306.48c0-3.18,2.2-5.939,5.299-6.653
		c8.94-2.046,15.181-9.866,15.181-19.014v-48.466c0-18.953-15.42-34.374-34.374-34.374c-0.287,0-0.567-0.02-0.853-0.053
		l-54.373-6.827c-3.413-0.427-5.973-3.333-5.973-6.774v-64.853c0-5.647-4.593-10.24-10.24-10.24c-5.647,0-10.24,4.593-10.24,10.24
		v161.347c0,9.146,6.24,16.966,15.181,19.014c3.099,0.713,5.299,3.473,5.299,6.653L102.4,395.947L102.4,395.947z"/>
	<path style="fill:#602F75;" d="M109.227,225.28c-3.773,0-6.827-3.053-6.827-6.827V184.32c0-3.773,3.053-6.827,6.827-6.827
		s6.827,3.053,6.827,6.827v34.133C116.053,222.227,113,225.28,109.227,225.28z"/>
	<path style="fill:#602F75;" d="M136.533,218.453c-3.773,0-6.827-3.053-6.827-6.827v-20.48c0-3.773,3.053-6.827,6.827-6.827
		s6.827,3.053,6.827,6.827v20.48C143.36,215.4,140.307,218.453,136.533,218.453z"/>
	<path style="fill:#602F75;" d="M163.84,218.453c-3.773,0-6.827-3.053-6.827-6.827v-20.48c0-3.773,3.053-6.827,6.827-6.827
		c3.773,0,6.827,3.053,6.827,6.827v20.48C170.667,215.4,167.613,218.453,163.84,218.453z"/>
</g>
<g>
	<path style="fill:#00E7FF;" d="M371.466,214.453c-1.746,0-3.494-0.667-4.826-2l-19.306-19.306c-2.666-2.666-2.666-6.987,0-9.653
		s6.987-2.666,9.653,0l19.306,19.306c2.666,2.666,2.666,6.987,0,9.653C374.96,213.787,373.214,214.453,371.466,214.453z"/>
	<path style="fill:#00E7FF;" d="M352.16,214.453c-1.746,0-3.494-0.667-4.826-2c-2.666-2.666-2.666-6.987,0-9.653l19.306-19.306
		c2.666-2.666,6.987-2.666,9.653,0s2.666,6.987,0,9.653l-19.306,19.306C355.654,213.787,353.906,214.453,352.16,214.453z"/>
	<path style="fill:#00E7FF;" d="M269.066,248.586c-1.746,0-3.494-0.667-4.826-2l-19.306-19.306c-2.666-2.666-2.666-6.987,0-9.653
		s6.987-2.666,9.653,0l19.306,19.306c2.666,2.666,2.666,6.987,0,9.653C272.56,247.921,270.814,248.586,269.066,248.586z"/>
	<path style="fill:#00E7FF;" d="M249.76,248.586c-1.746,0-3.494-0.667-4.826-2c-2.666-2.666-2.666-6.987,0-9.653l19.306-19.306
		c2.666-2.666,6.987-2.666,9.653,0c2.666,2.666,2.666,6.987,0,9.653l-19.306,19.306C253.254,247.921,251.506,248.586,249.76,248.586
		z"/>
</g>
<g>
</g>
<g>
</g>
<g>
</g>
<g>
</g>
<g>
</g>
<g>
</g>
<g>
</g>
<g>
</g>
<g>
</g>
<g>
</g>
<g>
</g>
<g>
</g>
<g>
</g>
<g>
</g>
<g>
</g>
</svg>
