<?xml version="1.0" encoding="iso-8859-1"?>
<!-- Generator: Adobe Illustrator 19.0.0, SVG Export Plug-In . SVG Version: 6.00 Build 0)  -->
<svg version="1.1" id="Capa_1" xmlns="http://www.w3.org/2000/svg" xmlns:xlink="http://www.w3.org/1999/xlink" x="0px" y="0px"
	 viewBox="0 0 402.773 402.773" style="enable-background:new 0 0 402.773 402.773;" xml:space="preserve">
<path style="fill:#FFE600;" d="M395.947,249.173H6.827V63.836c0-14.519,11.771-26.289,26.289-26.289h336.539
	c14.52,0,26.291,11.771,26.291,26.289v147.791"/>
<path style="fill:#602F75;" d="M395.947,256H6.827C3.053,256,0,252.947,0,249.173V63.84c0-18.26,14.86-33.12,33.12-33.12h336.534
	c18.26,0,33.12,14.86,33.12,33.12v147.787c0,3.773-3.053,6.827-6.827,6.827s-6.827-3.053-6.827-6.827V63.84
	c0-10.733-8.733-19.466-19.466-19.466H33.12c-10.733,0-19.466,8.733-19.466,19.466v178.507h382.293c3.773,0,6.827,3.053,6.827,6.827
	S399.72,256,395.947,256z"/>
<path style="fill:#FFFFFF;" d="M369.657,310.613H33.116c-14.519,0-26.289-11.771-26.289-26.29v-35.15h389.12v35.151
	C395.947,298.842,384.176,310.613,369.657,310.613z"/>
<path style="fill:#602F75;" d="M369.654,317.44H33.12C14.86,317.44,0,302.58,0,284.32v-35.147c0-3.773,3.053-6.827,6.827-6.827
	h389.12c3.773,0,6.827,3.053,6.827,6.827v35.147C402.773,302.58,387.913,317.44,369.654,317.44z M13.653,256v28.32
	c0,10.733,8.733,19.466,19.466,19.466h336.534c10.733,0,19.466-8.733,19.466-19.466V256H13.653z"/>
<g>
	<circle style="fill:#00E7FF;" cx="201.387" cy="279.893" r="10.24"/>
	<path style="fill:#00E7FF;" d="M201.387,296.96c-9.414,0-17.067-7.653-17.067-17.067s7.653-17.067,17.067-17.067
		s17.067,7.653,17.067,17.067S210.801,296.96,201.387,296.96z M201.387,276.48c-1.881,0-3.413,1.533-3.413,3.413
		s1.533,3.413,3.413,3.413s3.413-1.533,3.413-3.413S203.267,276.48,201.387,276.48z"/>
</g>
<polygon style="fill:#EAEAEA;" points="259.413,365.227 143.36,365.227 177.092,310.613 225.681,310.613 "/>
<path style="fill:#602F75;" d="M259.413,372.053H143.36c-2.473,0-4.753-1.34-5.96-3.5s-1.147-4.806,0.154-6.914l33.734-54.613
	c1.241-2.014,3.441-3.239,5.806-3.239h48.587c2.367,0,4.567,1.227,5.806,3.239l33.734,54.613c1.3,2.106,1.36,4.753,0.154,6.914
	S261.886,372.053,259.413,372.053z M155.6,358.4h91.573l-25.3-40.96H180.9L155.6,358.4z"/>
<g>
	<path style="fill:#FFFFFF;" d="M303.787,232.107c-1.746,0-3.494-0.667-4.826-2c-2.666-2.666-2.666-6.987,0-9.653l58.027-58.027
		c2.666-2.666,6.987-2.666,9.653,0s2.666,6.987,0,9.653l-58.027,58.027C307.28,231.439,305.533,232.107,303.787,232.107z"/>
	<path style="fill:#FFFFFF;" d="M348.16,228.693c-1.746,0-3.494-0.667-4.826-2c-2.666-2.666-2.666-6.987,0-9.653l20.48-20.48
		c2.666-2.666,6.987-2.666,9.653,0s2.666,6.987,0,9.653l-20.48,20.48C351.654,228.026,349.906,228.693,348.16,228.693z"/>
</g>
<path style="fill:#602F75;" d="M300.373,372.053h-204.8c-3.773,0-6.827-3.053-6.827-6.827s3.053-6.827,6.827-6.827h204.8
	c3.773,0,6.827,3.053,6.827,6.827S304.147,372.053,300.373,372.053z"/>
<polygon style="fill:#00E7FF;" points="217.139,193.246 288.72,342.06 312.856,288.963 365.954,264.827 "/>
<g>
	<path style="fill:#602F75;" d="M288.72,348.887c-2.62,0-5.014-1.5-6.153-3.867l-71.579-148.813
		c-1.253-2.613-0.727-5.733,1.326-7.786c2.046-2.06,5.173-2.58,7.786-1.326l148.813,71.579c2.386,1.154,3.893,3.581,3.867,6.226
		c-0.027,2.654-1.587,5.047-4,6.141l-50.773,23.074l-23.074,50.773c-1.094,2.413-3.487,3.973-6.141,4
		C288.766,348.887,288.748,348.887,288.72,348.887z M231.733,207.84l56.813,118.106l18.094-39.813
		c0.679-1.5,1.886-2.707,3.386-3.386l39.813-18.094L231.733,207.84z"/>
	<path style="fill:#602F75;" d="M369.954,352.887c-1.746,0-3.494-0.667-4.826-2l-52.273-52.273c-2.666-2.666-2.666-6.987,0-9.653
		c2.666-2.666,6.987-2.666,9.653,0l52.273,52.273c2.666,2.666,2.666,6.987,0,9.653C373.446,352.22,371.7,352.887,369.954,352.887z"
		/>
</g>
<g>
	<path style="fill:#EA3457;" d="M111.607,98.48h20.934c9.713,0,16.734,1.42,21.053,4.246c4.326,2.833,6.494,7.299,6.494,13.406
		c0,4.12-1.067,7.547-3.186,10.274c-2.12,2.734-5.18,4.46-9.167,5.166v0.48c4.953,0.934,8.593,2.773,10.926,5.519
		c2.333,2.753,3.5,6.473,3.5,11.167c0,6.34-2.214,11.3-6.634,14.88c-4.42,3.587-10.573,5.379-18.452,5.379h-25.469V98.48z
		 M123.139,127.613h11.093c4.82,0,8.34-0.759,10.561-2.287c2.22-1.527,3.326-4.127,3.326-7.793c0-3.313-1.193-5.707-3.593-7.187
		c-2.393-1.48-6.193-2.22-11.407-2.22h-9.981V127.613z M123.139,136.974v22.333h12.247c4.826,0,8.467-0.927,10.926-2.773
		c2.459-1.853,3.686-4.767,3.686-8.753c0-3.666-1.253-6.386-3.76-8.153s-6.32-2.654-11.433-2.654H123.139z"/>
	<path style="fill:#EA3457;" d="M232.1,98.48v45.633c0,5.207-1.12,9.767-3.354,13.674c-2.234,3.907-5.466,6.914-9.694,9.02
		c-4.233,2.106-9.286,3.161-15.174,3.161c-8.747,0-15.546-2.319-20.4-6.946c-4.861-4.634-7.287-10.999-7.287-19.099V98.48h11.58
		v44.621c0,5.82,1.347,10.114,4.047,12.88c2.707,2.76,6.854,4.147,12.447,4.147c10.866,0,16.307-5.707,16.307-17.126V98.48H232.1z"
		/>
	<path style="fill:#EA3457;" d="M270.053,130.654l16.693-32.174h12.541l-23.492,43.174v27.346h-11.573v-26.96L240.828,98.48h12.541
		L270.053,130.654z"/>
</g>
<g>
</g>
<g>
</g>
<g>
</g>
<g>
</g>
<g>
</g>
<g>
</g>
<g>
</g>
<g>
</g>
<g>
</g>
<g>
</g>
<g>
</g>
<g>
</g>
<g>
</g>
<g>
</g>
<g>
</g>
</svg>
