<?xml version="1.0" encoding="iso-8859-1"?>
<!-- Generator: Adobe Illustrator 19.0.0, SVG Export Plug-In . SVG Version: 6.00 Build 0)  -->
<svg version="1.1" id="Capa_1" xmlns="http://www.w3.org/2000/svg" xmlns:xlink="http://www.w3.org/1999/xlink" x="0px" y="0px"
	 viewBox="0 0 396.066 396.066" style="enable-background:new 0 0 396.066 396.066;" xml:space="preserve">
<g>
	<circle style="fill:#FFE600;" cx="197.982" cy="197.982" r="191.147"/>
	<path style="fill:#FFE600;" d="M197.973,395.947C88.813,395.947,0,307.133,0,197.973S88.813,0,197.973,0
		s197.973,88.813,197.973,197.973S307.133,395.947,197.973,395.947z M197.973,13.653c-101.634,0-184.32,82.686-184.32,184.32
		s82.686,184.32,184.32,184.32s184.32-82.686,184.32-184.32S299.607,13.653,197.973,13.653z"/>
</g>
<g>
	<path style="fill:#FFFFFF;" d="M27.307,204.919c-3.84,0-6.946-3.106-6.946-6.946c0-97.94,79.674-177.613,177.613-177.613
		c3.84,0,6.946,3.106,6.946,6.946s-3.106,6.946-6.946,6.946c-90.274,0-163.721,73.446-163.721,163.721
		C34.253,201.813,31.147,204.919,27.307,204.919z"/>
	<circle style="fill:#FFFFFF;" cx="197.982" cy="197.982" r="116.053"/>
</g>
<path style="fill:#602F75;" d="M197.973,320.853c-67.753,0-122.88-55.127-122.88-122.88s55.127-122.88,122.88-122.88
	s122.88,55.127,122.88,122.88S265.726,320.853,197.973,320.853z M197.973,88.747c-60.227,0-109.227,49-109.227,109.227
	s49,109.227,109.227,109.227S307.2,258.2,307.2,197.973S258.2,88.747,197.973,88.747z"/>
<circle style="fill:#00E7FF;" cx="157.022" cy="238.942" r="13.653"/>
<path style="fill:#602F75;" d="M157.013,259.413c-11.293,0-20.48-9.187-20.48-20.48c0-11.293,9.187-20.48,20.48-20.48
	s20.48,9.187,20.48,20.48C177.493,250.226,168.306,259.413,157.013,259.413z M157.013,232.107c-3.767,0-6.827,3.06-6.827,6.827
	s3.06,6.827,6.827,6.827s6.827-3.06,6.827-6.827S160.78,232.107,157.013,232.107z"/>
<circle style="fill:#00E7FF;" cx="238.942" cy="238.942" r="13.653"/>
<path style="fill:#602F75;" d="M238.933,259.413c-11.293,0-20.48-9.187-20.48-20.48c0-11.293,9.187-20.48,20.48-20.48
	c11.293,0,20.48,9.187,20.48,20.48C259.413,250.226,250.226,259.413,238.933,259.413z M238.933,232.107
	c-3.767,0-6.827,3.06-6.827,6.827s3.06,6.827,6.827,6.827s6.827-3.06,6.827-6.827S242.7,232.107,238.933,232.107z"/>
<circle style="fill:#00E7FF;" cx="157.022" cy="157.022" r="13.653"/>
<path style="fill:#602F75;" d="M157.013,177.493c-11.293,0-20.48-9.187-20.48-20.48s9.187-20.48,20.48-20.48
	s20.48,9.187,20.48,20.48S168.306,177.493,157.013,177.493z M157.013,150.187c-3.767,0-6.827,3.06-6.827,6.827
	s3.06,6.827,6.827,6.827s6.827-3.06,6.827-6.827S160.78,150.187,157.013,150.187z"/>
<circle style="fill:#FFFFFF;" cx="238.942" cy="157.022" r="13.653"/>
<path style="fill:#602F75;" d="M238.933,177.493c-11.293,0-20.48-9.187-20.48-20.48s9.187-20.48,20.48-20.48
	c11.293,0,20.48,9.187,20.48,20.48S250.226,177.493,238.933,177.493z M238.933,150.187c-3.767,0-6.827,3.06-6.827,6.827
	s3.06,6.827,6.827,6.827s6.827-3.06,6.827-6.827S242.7,150.187,238.933,150.187z"/>
<path style="fill:#EA3457;" d="M389.12,396.066h-13.653c-18.886,0-34.253-15.367-34.253-34.253V184.32
	c0-11.226-9.134-20.361-20.361-20.361h-81.92c-3.84,0-6.946-3.106-6.946-6.946s3.106-6.946,6.946-6.946h81.92
	c18.886,0,34.253,15.367,34.253,34.253v177.493c0,11.226,9.134,20.361,20.361,20.361h13.653c3.84,0,6.946,3.106,6.946,6.946
	C396.066,392.96,392.96,396.066,389.12,396.066z"/>
<g>
</g>
<g>
</g>
<g>
</g>
<g>
</g>
<g>
</g>
<g>
</g>
<g>
</g>
<g>
</g>
<g>
</g>
<g>
</g>
<g>
</g>
<g>
</g>
<g>
</g>
<g>
</g>
<g>
</g>
</svg>
