<?xml version="1.0" encoding="iso-8859-1"?>
<!-- Generator: Adobe Illustrator 19.0.0, SVG Export Plug-In . SVG Version: 6.00 Build 0)  -->
<svg version="1.1" id="Capa_1" xmlns="http://www.w3.org/2000/svg" xmlns:xlink="http://www.w3.org/1999/xlink" x="0px" y="0px"
	 viewBox="0 0 430.08 430.08" style="enable-background:new 0 0 430.08 430.08;" xml:space="preserve">
<path style="fill:#FFFFFF;" d="M134.41,307.2H54.427c-20.634,0-37.361-16.727-37.361-37.361V95.573h395.947v174.266
	c0,20.634-16.727,37.361-37.361,37.361H190.191"/>
<path style="fill:#602F75;" d="M375.653,314.027h-185.46c-3.773,0-6.827-3.053-6.827-6.827s3.053-6.827,6.827-6.827h185.46
	c16.833,0,30.534-13.699,30.534-30.534V102.4H23.893v167.439c0,16.835,13.699,30.534,30.534,30.534h79.98
	c3.773,0,6.827,3.053,6.827,6.827s-3.053,6.827-6.827,6.827h-79.98c-24.368,0-44.187-19.82-44.187-44.187V95.573
	c0-3.773,3.053-6.827,6.827-6.827h395.947c3.773,0,6.827,3.053,6.827,6.827v174.266C419.84,294.207,400.02,314.027,375.653,314.027z
	"/>
<path style="fill:#00E7FF;" d="M17.067,90.436v-42.65h395.947v42.65c0,25.458-20.639,46.097-46.097,46.097H63.164
	C37.705,136.533,17.067,115.895,17.067,90.436z"/>
<g>
	<path style="fill:#602F75;" d="M366.913,143.36H63.167c-29.187,0-52.927-23.74-52.927-52.927V47.787
		c0-3.773,3.053-6.827,6.827-6.827h395.947c3.773,0,6.827,3.053,6.827,6.827v42.646C419.84,119.62,396.1,143.36,366.913,143.36z
		 M23.893,54.613v35.82c0,21.654,17.62,39.274,39.274,39.274h303.747c21.652,0,39.272-17.62,39.272-39.274v-35.82H23.893z"/>
	<path style="fill:#602F75;" d="M276.48,54.613H153.6c-3.773,0-6.827-3.053-6.827-6.827V31.7c0-17.48,14.22-31.7,31.7-31.7h73.134
		c17.48,0,31.7,14.22,31.7,31.7v16.087C283.307,51.56,280.253,54.613,276.48,54.613z M160.427,40.96h109.227V31.7
		c0-9.953-8.093-18.046-18.046-18.046h-73.134c-9.953,0-18.046,8.093-18.046,18.046V40.96z"/>
</g>
<path style="fill:#EA3457;" d="M133.12,177.493L133.12,177.493c-11.31,0-20.48-9.17-20.48-20.48v-47.787h40.96v47.787
	C153.6,168.323,144.43,177.493,133.12,177.493z"/>
<path style="fill:#602F75;" d="M133.12,184.32c-15.06,0-27.307-12.247-27.307-27.307v-47.787c0-3.773,3.053-6.827,6.827-6.827h40.96
	c3.773,0,6.827,3.053,6.827,6.827v47.787C160.427,172.073,148.18,184.32,133.12,184.32z M119.467,116.053v40.96
	c0,7.526,6.127,13.653,13.653,13.653c7.526,0,13.653-6.127,13.653-13.653v-40.96H119.467z"/>
<g>
	<circle style="fill:#FFE600;" cx="286.72" cy="310.613" r="112.64"/>
	<path style="fill:#FFE600;" d="M286.72,430.08c-65.874,0-119.467-53.593-119.467-119.467s53.593-119.467,119.467-119.467
		s119.467,53.593,119.467,119.467S352.594,430.08,286.72,430.08z M286.72,204.8c-58.348,0-105.813,47.466-105.813,105.813
		s47.466,105.813,105.813,105.813s105.813-47.466,105.813-105.813S345.068,204.8,286.72,204.8z"/>
</g>
<path style="fill:#EA3457;" d="M303.787,177.493L303.787,177.493c-11.31,0-20.48-9.17-20.48-20.48v-47.787h40.96v47.787
	C324.267,168.323,315.097,177.493,303.787,177.493z"/>
<path style="fill:#602F75;" d="M303.787,184.32c-15.06,0-27.307-12.247-27.307-27.307v-47.787c0-3.773,3.053-6.827,6.827-6.827
	h40.96c3.773,0,6.827,3.053,6.827,6.827v47.787C331.093,172.073,318.846,184.32,303.787,184.32z M290.133,116.053v40.96
	c0,7.526,6.127,13.653,13.653,13.653c7.526,0,13.653-6.127,13.653-13.653v-40.96H290.133z"/>
<polyline style="fill:#FFFFFF;" points="221.867,266.24 221.867,266.24 242.347,348.16 358.4,348.16 372.053,279.893 
	228.693,279.893 "/>
<g>
	<path style="fill:#EA3457;" d="M358.4,354.987H242.347c-3.133,0-5.861-2.133-6.62-5.173l-20.48-81.92
		c-0.92-3.654,1.307-7.359,4.966-8.274c3.64-0.927,7.359,1.307,8.274,4.966l2.127,8.48h141.44c2.046,0,3.98,0.92,5.28,2.5
		c1.294,1.58,1.812,3.661,1.413,5.666L365.094,349.5C364.454,352.686,361.653,354.987,358.4,354.987z M247.68,341.333h105.127
		l10.919-54.613h-129.7L247.68,341.333z"/>
	<g>
		<circle style="fill:#EA3457;" cx="269.653" cy="368.64" r="13.653"/>
		<circle style="fill:#EA3457;" cx="331.093" cy="368.64" r="13.653"/>
	</g>
	<path style="fill:#EA3457;" d="M365.227,320.853H235.52c-3.773,0-6.827-3.053-6.827-6.827s3.053-6.827,6.827-6.827h129.707
		c3.773,0,6.827,3.053,6.827,6.827S369,320.853,365.227,320.853z"/>
	<path style="fill:#EA3457;" d="M221.867,273.067h-20.48c-3.773,0-6.827-3.053-6.827-6.827s3.053-6.827,6.827-6.827h20.48
		c3.773,0,6.827,3.053,6.827,6.827S225.64,273.067,221.867,273.067z"/>
</g>
<g>
</g>
<g>
</g>
<g>
</g>
<g>
</g>
<g>
</g>
<g>
</g>
<g>
</g>
<g>
</g>
<g>
</g>
<g>
</g>
<g>
</g>
<g>
</g>
<g>
</g>
<g>
</g>
<g>
</g>
</svg>
