<?xml version="1.0" encoding="iso-8859-1"?>
<!-- Generator: Adobe Illustrator 19.0.0, SVG Export Plug-In . SVG Version: 6.00 Build 0)  -->
<svg version="1.1" id="Capa_1" xmlns="http://www.w3.org/2000/svg" xmlns:xlink="http://www.w3.org/1999/xlink" x="0px" y="0px"
	 viewBox="0 0 382.293 382.293" style="enable-background:new 0 0 382.293 382.293;" xml:space="preserve">
<path style="fill:#FFFFFF;" d="M157.013,334.507h-20.48c-71.636,0-129.707-58.071-129.707-129.707v-36.289h68.39
	c45.175,0,81.797,36.622,81.797,81.797V334.507z"/>
<path style="fill:#602F75;" d="M157.013,341.333h-20.48C61.247,341.333,0,280.086,0,204.8v-36.287c0-3.773,3.053-6.827,6.827-6.827
	h68.386c48.867,0,88.627,39.753,88.627,88.62v84.2C163.84,338.28,160.787,341.333,157.013,341.333z M13.653,175.34v29.46
	c0,67.753,55.127,122.88,122.88,122.88h13.653v-77.373c0-41.341-33.633-74.967-74.974-74.967H13.653z"/>
<path style="fill:#FFFFFF;" d="M327.677,168.511h-20.601c-45.175,0-81.797,36.622-81.797,81.797v84.198h20.48
	c71.636,0,129.707-58.071,129.707-129.707v-36.289H327.677"/>
<g>
	<path style="fill:#602F75;" d="M245.76,341.333h-20.48c-3.773,0-6.827-3.053-6.827-6.827v-84.2c0-48.867,39.753-88.62,88.62-88.62
		h68.393c3.773,0,6.827,3.053,6.827,6.827V204.8C382.293,280.086,321.046,341.333,245.76,341.333z M232.107,327.68h13.653
		c67.753,0,122.88-55.127,122.88-122.88v-29.46h-61.566c-41.341,0-74.967,33.626-74.967,74.967V327.68z"/>
	<path style="fill:#602F75;" d="M157.02,331.093c-2.507,0-4.913-1.381-6.113-3.773c-1.686-3.374-0.321-7.474,3.053-9.16
		l68.267-34.133c3.374-1.679,7.467-0.321,9.16,3.053c1.686,3.374,0.321,7.473-3.053,9.16l-68.267,34.133
		C159.087,330.86,158.046,331.093,157.02,331.093z"/>
	<path style="fill:#602F75;" d="M225.273,331.093c-1.027,0-2.067-0.234-3.046-0.72L153.96,296.24
		c-3.374-1.686-4.739-5.787-3.053-9.16c1.693-3.374,5.787-4.733,9.16-3.053l68.267,34.133c3.374,1.686,4.739,5.787,3.053,9.16
		C230.187,329.713,227.78,331.093,225.273,331.093z"/>
	<path style="fill:#602F75;" d="M20.48,170.667c-3.773,0-6.827-3.053-6.827-6.827V47.787c0-3.773,3.053-6.827,6.827-6.827
		s6.827,3.053,6.827,6.827V163.84C27.307,167.613,24.253,170.667,20.48,170.667z"/>
	<path style="fill:#602F75;" d="M361.813,170.667c-3.773,0-6.827-3.053-6.827-6.827V47.787c0-3.773,3.053-6.827,6.827-6.827
		s6.827,3.053,6.827,6.827V163.84C368.64,167.613,365.587,170.667,361.813,170.667z"/>
</g>
<g>
	<circle style="fill:#EA3457;" cx="81.92" cy="238.933" r="27.307"/>
	<path style="fill:#EA3457;" d="M81.92,273.067c-18.819,0-34.133-15.314-34.133-34.133S63.101,204.8,81.92,204.8
		s34.133,15.314,34.133,34.133S100.739,273.067,81.92,273.067z M81.92,218.453c-11.293,0-20.48,9.187-20.48,20.48
		c0,11.293,9.187,20.48,20.48,20.48s20.48-9.187,20.48-20.48C102.4,227.64,93.213,218.453,81.92,218.453z"/>
</g>
<g>
	<circle style="fill:#00E7FF;" cx="300.373" cy="238.933" r="27.307"/>
	<path style="fill:#00E7FF;" d="M300.373,273.067c-18.819,0-34.133-15.314-34.133-34.133s15.314-34.133,34.133-34.133
		s34.133,15.314,34.133,34.133S319.193,273.067,300.373,273.067z M300.373,218.453c-11.293,0-20.48,9.187-20.48,20.48
		c0,11.293,9.187,20.48,20.48,20.48c11.293,0,20.48-9.187,20.48-20.48C320.853,227.64,311.666,218.453,300.373,218.453z"/>
</g>
<g>
	<circle style="fill:#FFE600;" cx="300.373" cy="238.933" r="13.653"/>
	<circle style="fill:#FFE600;" cx="81.92" cy="238.933" r="13.653"/>
</g>
<g>
</g>
<g>
</g>
<g>
</g>
<g>
</g>
<g>
</g>
<g>
</g>
<g>
</g>
<g>
</g>
<g>
</g>
<g>
</g>
<g>
</g>
<g>
</g>
<g>
</g>
<g>
</g>
<g>
</g>
</svg>
