<?xml version="1.0" encoding="iso-8859-1"?>
<!-- Generator: Adobe Illustrator 19.0.0, SVG Export Plug-In . SVG Version: 6.00 Build 0)  -->
<svg version="1.1" id="Capa_1" xmlns="http://www.w3.org/2000/svg" xmlns:xlink="http://www.w3.org/1999/xlink" x="0px" y="0px"
	 viewBox="0 0 436.907 436.907" style="enable-background:new 0 0 436.907 436.907;" xml:space="preserve">
<rect x="33.975" y="126.293" style="fill:#FFFFFF;" width="211.78" height="177.493"/>
<path style="fill:#602F75;" d="M245.76,310.613H33.973c-3.77,0-6.827-3.053-6.827-6.827V126.293c0-3.773,3.057-6.827,6.827-6.827
	H245.76c3.77,0,6.827,3.053,6.827,6.827v177.493C252.587,307.56,249.53,310.613,245.76,310.613z M40.8,296.96h198.134V133.12H40.8
	V296.96z"/>
<path style="fill:#EA3457;" d="M235.894,85.333H43.841c-12.902,0-23.361,10.458-23.361,23.361v24.426h238.775v-24.426
	C259.255,95.792,248.796,85.333,235.894,85.333z"/>
<path style="fill:#602F75;" d="M259.253,139.947H20.48c-3.77,0-6.827-3.053-6.827-6.827v-24.426
	c0-16.647,13.541-30.188,30.188-30.188h192.053c16.647,0,30.188,13.541,30.188,30.188v24.426
	C266.08,136.893,263.023,139.947,259.253,139.947z M27.307,126.293h225.12v-17.599c0-9.114-7.417-16.534-16.534-16.534H43.841
	c-9.117,0-16.534,7.421-16.534,16.534V126.293z"/>
<polyline style="fill:#FFFFFF;" points="395.947,174.077 395.947,303.787 156.855,303.787 156.855,126.293 395.947,126.293 "/>
<path style="fill:#602F75;" d="M395.947,310.613H156.853c-3.77,0-6.827-3.053-6.827-6.827V126.293c0-3.773,3.057-6.827,6.827-6.827
	h239.094c3.77,0,6.827,3.053,6.827,6.827s-3.057,6.827-6.827,6.827H163.68v163.84h225.44V174.08c0-3.773,3.057-6.827,6.827-6.827
	c3.77,0,6.827,3.053,6.827,6.827v129.707C402.773,307.56,399.717,310.613,395.947,310.613z"/>
<rect x="314.027" y="139.947" style="fill:#EA3457;" width="40.96" height="157.013"/>
<path style="fill:#00E7FF;" d="M379.412,64.853H166.721c-12.902,0-23.361,10.458-23.361,23.361v44.906h259.413V88.214
	C402.773,75.312,392.315,64.853,379.412,64.853z"/>
<path style="fill:#602F75;" d="M402.773,139.947H143.36c-3.77,0-6.827-3.053-6.827-6.827V88.214
	c0-16.647,13.541-30.188,30.188-30.188h212.693c16.645,0,30.186,13.541,30.186,30.188v44.906
	C409.6,136.893,406.543,139.947,402.773,139.947z M150.187,126.293h245.76V88.214c0-9.114-7.417-16.534-16.534-16.534H166.721
	c-9.117,0-16.534,7.421-16.534,16.534V126.293z"/>
<polygon style="fill:#FFE600;" points="368.64,215.04 334.507,194.56 300.373,215.04 300.373,133.12 368.64,133.12 "/>
<path style="fill:#602F75;" d="M368.64,221.867c-1.217,0-2.434-0.326-3.514-0.973l-30.619-18.374l-30.619,18.374
	c-2.109,1.26-4.739,1.307-6.876,0.087c-2.142-1.213-3.465-3.482-3.465-5.941v-81.92c0-3.773,3.057-6.827,6.827-6.827h68.267
	c3.77,0,6.827,3.053,6.827,6.827v81.92c0,2.459-1.323,4.727-3.463,5.939C370.959,221.573,369.801,221.867,368.64,221.867z
	 M334.507,187.733c1.217,0,2.43,0.326,3.514,0.973l23.793,14.275v-63.034H307.2v63.034l23.793-14.273
	C332.076,188.059,333.29,187.733,334.507,187.733z"/>
<rect x="75.093" y="139.947" style="fill:#FFE600;" width="40.96" height="157.013"/>
<polygon style="fill:#00E7FF;" points="122.88,201.387 95.573,184.32 68.267,201.387 68.267,133.12 122.88,133.12 "/>
<path style="fill:#602F75;" d="M122.88,208.213c-1.256,0-2.514-0.346-3.616-1.039l-23.69-14.8l-23.69,14.8
	c-2.109,1.314-4.756,1.374-6.927,0.186c-2.169-1.207-3.516-3.494-3.516-5.973V133.12c0-3.773,3.057-6.827,6.827-6.827h54.613
	c3.77,0,6.827,3.053,6.827,6.827v68.267c0,2.48-1.347,4.767-3.517,5.973C125.157,207.927,124.02,208.213,122.88,208.213z
	 M95.573,177.493c1.256,0,2.511,0.346,3.616,1.039l16.864,10.534v-49.12h-40.96v49.12l16.864-10.534
	C93.063,177.84,94.317,177.493,95.573,177.493z"/>
<rect x="6.827" y="303.787" style="fill:#FFFFFF;" width="423.253" height="20.48"/>
<path style="fill:#602F75;" d="M430.08,331.093H6.827c-3.77,0-6.827-3.053-6.827-6.827v-20.48c0-3.773,3.057-6.827,6.827-6.827
	H430.08c3.77,0,6.827,3.053,6.827,6.827v20.48C436.907,328.04,433.85,331.093,430.08,331.093z M13.653,317.44h409.6v-6.827h-409.6
	V317.44z"/>
<rect x="6.827" y="324.267" style="fill:#FFFFFF;" width="68.267" height="47.787"/>
<path style="fill:#602F75;" d="M75.093,378.88H6.827c-3.77,0-6.827-3.053-6.827-6.827v-47.787c0-3.773,3.057-6.827,6.827-6.827
	h68.267c3.77,0,6.827,3.053,6.827,6.827v47.787C81.92,375.827,78.863,378.88,75.093,378.88z M13.653,365.227h54.613v-34.133H13.653
	V365.227z"/>
<rect x="361.813" y="324.267" style="fill:#FFFFFF;" width="68.267" height="47.787"/>
<path style="fill:#602F75;" d="M430.08,378.88h-68.267c-3.77,0-6.827-3.053-6.827-6.827v-47.787c0-3.773,3.057-6.827,6.827-6.827
	h68.267c3.77,0,6.827,3.053,6.827,6.827v47.787C436.907,375.827,433.85,378.88,430.08,378.88z M368.64,365.227h54.613v-34.133
	H368.64V365.227z"/>
<g>
</g>
<g>
</g>
<g>
</g>
<g>
</g>
<g>
</g>
<g>
</g>
<g>
</g>
<g>
</g>
<g>
</g>
<g>
</g>
<g>
</g>
<g>
</g>
<g>
</g>
<g>
</g>
<g>
</g>
</svg>
