<?xml version="1.0" encoding="iso-8859-1"?>
<!-- Generator: Adobe Illustrator 19.0.0, SVG Export Plug-In . SVG Version: 6.00 Build 0)  -->
<svg version="1.1" id="Capa_1" xmlns="http://www.w3.org/2000/svg" xmlns:xlink="http://www.w3.org/1999/xlink" x="0px" y="0px"
	 viewBox="0 0 436.908 436.908" style="enable-background:new 0 0 436.908 436.908;" xml:space="preserve">
<polygon style="fill:#00E7FF;" points="395.235,279.894 109.51,279.894 95.573,122.88 430.08,122.88 "/>
<path style="fill:#602F75;" d="M395.233,286.72h-285.72c-3.533,0-6.487-2.7-6.799-6.221l-13.94-157.013
	c-0.167-1.913,0.473-3.801,1.766-5.214c1.294-1.413,3.12-2.219,5.033-2.219H430.08c2.074,0,4.026,0.94,5.327,2.553
	c1.294,1.613,1.787,3.734,1.34,5.753L401.9,281.374C401.207,284.5,398.433,286.72,395.233,286.72z M115.76,273.067h273.993
	l31.821-143.36H103.033L115.76,273.067z"/>
<polygon style="fill:#FFFFFF;" points="361.813,279.894 81.92,279.894 68.267,122.88 395.947,122.88 "/>
<g>
	<path style="fill:#602F75;" d="M361.813,286.72H81.92c-3.54,0-6.494-2.707-6.799-6.233L61.467,123.474
		c-0.167-1.906,0.473-3.794,1.766-5.207c1.294-1.413,3.12-2.214,5.033-2.214h327.68c2.067,0,4.019,0.934,5.313,2.54
		c1.3,1.613,1.794,3.721,1.36,5.74l-34.133,157.013C367.799,284.481,365.025,286.72,361.813,286.72z M88.18,273.067h268.133
		l31.16-143.36H75.713L88.18,273.067z"/>
	<path style="fill:#602F75;" d="M68.26,129.707c-3.434,0-6.393-2.58-6.781-6.074l-6.153-55.366h-48.5C3.053,68.267,0,65.214,0,61.44
		c0-3.773,3.053-6.827,6.827-6.827H61.44c3.48,0,6.4,2.613,6.787,6.074l6.827,61.44c0.413,3.746-2.287,7.12-6.033,7.54
		C68.767,129.693,68.506,129.707,68.26,129.707z"/>
	<path style="fill:#602F75;" d="M122.873,348.16c-3.434,0-6.393-2.58-6.781-6.074l-6.827-61.44c-0.413-3.746,2.287-7.12,6.033-7.54
		c3.773-0.367,7.127,2.294,7.54,6.033l6.827,61.44c0.413,3.746-2.287,7.12-6.033,7.54C123.38,348.147,123.119,348.16,122.873,348.16
		z"/>
</g>
<circle style="fill:#FFE600;" cx="129.707" cy="368.641" r="27.307"/>
<path style="fill:#602F75;" d="M129.707,402.774c-18.819,0-34.133-15.314-34.133-34.133s15.314-34.133,34.133-34.133
	s34.133,15.314,34.133,34.133S148.526,402.774,129.707,402.774z M129.707,348.16c-11.293,0-20.48,9.187-20.48,20.48
	c0,11.293,9.187,20.48,20.48,20.48s20.48-9.187,20.48-20.48C150.187,357.347,141,348.16,129.707,348.16z"/>
<circle style="fill:#FFE600;" cx="361.813" cy="368.641" r="27.307"/>
<path style="fill:#602F75;" d="M361.813,402.774c-18.819,0-34.133-15.314-34.133-34.133s15.314-34.133,34.133-34.133
	s34.133,15.314,34.133,34.133S380.633,402.774,361.813,402.774z M361.813,348.16c-11.293,0-20.48,9.187-20.48,20.48
	c0,11.293,9.187,20.48,20.48,20.48c11.293,0,20.48-9.187,20.48-20.48C382.293,357.347,373.106,348.16,361.813,348.16z"/>
<g>
	<path style="fill:#602F75;" d="M334.507,375.467H157.013c-3.773,0-6.827-3.053-6.827-6.827s3.053-6.827,6.827-6.827h177.493
		c3.773,0,6.827,3.053,6.827,6.827S338.28,375.467,334.507,375.467z"/>
	<path style="fill:#602F75;" d="M88.74,348.16c-3.434,0-6.393-2.58-6.781-6.074l-6.827-61.44c-0.413-3.746,2.287-7.12,6.033-7.54
		c3.794-0.367,7.127,2.294,7.54,6.033l6.827,61.44c0.413,3.746-2.287,7.12-6.033,7.54C89.247,348.147,88.986,348.16,88.74,348.16z"
		/>
</g>
<circle style="fill:#FFE600;" cx="95.573" cy="368.641" r="27.307"/>
<path style="fill:#602F75;" d="M95.573,402.774c-18.819,0-34.133-15.314-34.133-34.133s15.314-34.133,34.133-34.133
	s34.133,15.314,34.133,34.133S114.393,402.774,95.573,402.774z M95.573,348.16c-11.293,0-20.48,9.187-20.48,20.48
	c0,11.293,9.187,20.48,20.48,20.48s20.48-9.187,20.48-20.48C116.053,357.347,106.866,348.16,95.573,348.16z"/>
<circle style="fill:#FFE600;" cx="327.68" cy="368.641" r="27.307"/>
<path style="fill:#602F75;" d="M327.68,402.774c-18.819,0-34.133-15.314-34.133-34.133s15.314-34.133,34.133-34.133
	c18.819,0,34.133,15.314,34.133,34.133S346.499,402.774,327.68,402.774z M327.68,348.16c-11.293,0-20.48,9.187-20.48,20.48
	c0,11.293,9.187,20.48,20.48,20.48c11.293,0,20.48-9.187,20.48-20.48C348.16,357.347,338.973,348.16,327.68,348.16z"/>
<g>
	<path style="fill:#602F75;" d="M300.373,375.467H122.88c-3.773,0-6.827-3.053-6.827-6.827s3.053-6.827,6.827-6.827h177.493
		c3.773,0,6.827,3.053,6.827,6.827S304.147,375.467,300.373,375.467z"/>
	<path style="fill:#602F75;" d="M327.687,279.894c-0.406,0-0.814-0.034-1.227-0.113c-3.714-0.674-6.173-4.227-5.494-7.933
		l27.307-150.187c0.667-3.714,4.221-6.214,7.933-5.494c3.714,0.674,6.173,4.227,5.494,7.933l-27.307,150.187
		C333.8,277.586,330.926,279.894,327.687,279.894z"/>
	<path style="fill:#602F75;" d="M286.727,286.72c-0.294,0-0.587-0.02-0.887-0.06c-3.739-0.486-6.38-3.913-5.886-7.646l20.48-157.013
		c0.486-3.739,3.879-6.427,7.646-5.886c3.739,0.486,6.38,3.913,5.886,7.646l-20.48,157.013
		C293.04,284.213,290.106,286.72,286.727,286.72z"/>
	<path style="fill:#602F75;" d="M122.873,286.72c-3.379,0-6.313-2.507-6.76-5.946l-20.48-157.013
		c-0.493-3.734,2.147-7.159,5.886-7.646c3.64-0.539,7.159,2.147,7.646,5.886l20.48,157.013c0.493,3.734-2.147,7.159-5.886,7.646
		C123.465,286.7,123.167,286.72,122.873,286.72z"/>
	<path style="fill:#602F75;" d="M245.767,286.72c-0.2,0-0.399-0.007-0.601-0.027c-3.753-0.326-6.533-3.633-6.207-7.393
		l13.653-157.013c0.326-3.753,3.721-6.519,7.393-6.207c3.753,0.326,6.533,3.633,6.207,7.393l-13.653,157.013
		C252.252,284.041,249.272,286.72,245.767,286.72z"/>
	<path style="fill:#602F75;" d="M163.833,286.72c-3.507,0-6.487-2.679-6.793-6.233l-13.653-157.013
		c-0.326-3.76,2.454-7.067,6.207-7.393c3.707-0.427,7.067,2.447,7.393,6.207l13.653,157.013c0.326,3.76-2.454,7.067-6.207,7.393
		C164.233,286.714,164.033,286.72,163.833,286.72z"/>
	<path style="fill:#602F75;" d="M204.8,286.72c-3.773,0-6.827-3.053-6.827-6.827V122.88c0-3.773,3.053-6.827,6.827-6.827
		s6.827,3.053,6.827,6.827v157.013C211.627,283.667,208.573,286.72,204.8,286.72z"/>
	<path style="fill:#602F75;" d="M382.293,170.667h-307.2c-3.773,0-6.827-3.053-6.827-6.827s3.053-6.827,6.827-6.827h307.2
		c3.773,0,6.827,3.053,6.827,6.827S386.067,170.667,382.293,170.667z"/>
	<path style="fill:#602F75;" d="M375.467,211.627H75.093c-3.773,0-6.827-3.053-6.827-6.827s3.053-6.827,6.827-6.827h300.373
		c3.773,0,6.827,3.053,6.827,6.827S379.24,211.627,375.467,211.627z"/>
	<path style="fill:#602F75;" d="M368.64,252.587H81.92c-3.773,0-6.827-3.053-6.827-6.827s3.053-6.827,6.827-6.827h286.72
		c3.773,0,6.827,3.053,6.827,6.827S372.413,252.587,368.64,252.587z"/>
</g>
<g>
	<path style="fill:#EA3457;" d="M245.76,81.92c-3.773,0-6.827-3.053-6.827-6.827V40.96c0-3.773,3.053-6.827,6.827-6.827
		s6.827,3.053,6.827,6.827v34.133C252.587,78.867,249.533,81.92,245.76,81.92z"/>
	<path style="fill:#EA3457;" d="M307.2,88.747c-1.746,0-3.494-0.667-4.826-2c-2.666-2.666-2.666-6.987,0-9.653l27.307-27.307
		c2.666-2.666,6.987-2.666,9.653,0s2.666,6.987,0,9.653l-27.307,27.307C310.694,88.08,308.946,88.747,307.2,88.747z"/>
	<path style="fill:#EA3457;" d="M184.32,88.747c-1.746,0-3.494-0.667-4.826-2L152.187,59.44c-2.666-2.666-2.666-6.987,0-9.653
		c2.666-2.666,6.987-2.666,9.653,0l27.307,27.307c2.666,2.666,2.666,6.987,0,9.653C187.814,88.08,186.066,88.747,184.32,88.747z"/>
</g>
<g>
</g>
<g>
</g>
<g>
</g>
<g>
</g>
<g>
</g>
<g>
</g>
<g>
</g>
<g>
</g>
<g>
</g>
<g>
</g>
<g>
</g>
<g>
</g>
<g>
</g>
<g>
</g>
<g>
</g>
</svg>
